<?xml version="1.0" encoding="UTF-8"?>
<svg xmlns="http://www.w3.org/2000/svg" xmlns:xlink="http://www.w3.org/1999/xlink" width="500pt" height="1361.558743pt" viewBox="0 0 500 1361.558743" version="1.1">
<g id="surface1">
<path style=" stroke:none;fill-rule:nonzero;fill:rgb(0%,17.254902%,78.823529%);fill-opacity:1;" d="M 449.003906 1353.863281 L 449.003906 1225.507812 L 250 1225.507812 L 250 1353.863281 Z M 449.003906 1353.863281 "/>
<path style=" stroke:none;fill-rule:nonzero;fill:rgb(85.490196%,87.058824%,91.764706%);fill-opacity:1;" d="M 250 1353.863281 L 250 1225.507812 L 50.996094 1225.507812 L 50.996094 1353.863281 Z M 250 1353.863281 "/>
<path style=" stroke:none;fill-rule:nonzero;fill:rgb(86.666667%,25.098039%,28.235294%);fill-opacity:1;" d="M 367.191406 1225.503906 L 367.191406 1067.191406 L 250 1067.191406 L 250 1225.503906 Z M 367.191406 1225.503906 "/>
<path style=" stroke:none;fill-rule:nonzero;fill:rgb(3.921569%,17.647059%,46.27451%);fill-opacity:1;" d="M 250 1225.503906 L 250 1067.191406 L 132.808594 1067.191406 L 132.808594 1225.503906 Z M 250 1225.503906 "/>
<path style=" stroke:none;fill-rule:nonzero;fill:rgb(80%,33.333333%,100%);fill-opacity:1;" d="M 260.097656 1067.195312 L 260.097656 974.527344 L 255.046875 974.527344 L 255.046875 1067.195312 Z M 260.097656 1067.195312 "/>
<path style=" stroke:none;fill-rule:nonzero;fill:rgb(0%,17.254902%,78.823529%);fill-opacity:1;" d="M 255.050781 1067.195312 L 255.050781 974.527344 L 250 974.527344 L 250 1067.195312 Z M 255.050781 1067.195312 "/>
<path style=" stroke:none;fill-rule:nonzero;fill:rgb(80%,33.333333%,100%);fill-opacity:1;" d="M 250 1067.195312 L 250 974.527344 L 244.949219 974.527344 L 244.949219 1067.195312 Z M 250 1067.195312 "/>
<path style=" stroke:none;fill-rule:nonzero;fill:rgb(0%,17.254902%,78.823529%);fill-opacity:1;" d="M 244.949219 1067.195312 L 244.949219 974.527344 L 239.898438 974.527344 L 239.898438 1067.195312 Z M 244.949219 1067.195312 "/>
<path style=" stroke:none;fill-rule:nonzero;fill:rgb(26.666667%,63.529412%,91.764706%);fill-opacity:1;" d="M 488.203125 974.523438 L 488.203125 873.1875 L 250 873.1875 L 250 974.523438 Z M 488.203125 974.523438 "/>
<path style=" stroke:none;fill-rule:nonzero;fill:rgb(71.372549%,70.588235%,70.588235%);fill-opacity:1;" d="M 250 974.523438 L 250 873.1875 L 11.796875 873.1875 L 11.796875 974.523438 Z M 250 974.523438 "/>
<path style=" stroke:none;fill-rule:nonzero;fill:rgb(71.372549%,70.588235%,70.588235%);fill-opacity:1;" d="M 268.152344 873.191406 L 268.152344 723.613281 L 250 723.613281 L 250 873.191406 Z M 268.152344 873.191406 "/>
<path style=" stroke:none;fill-rule:nonzero;fill:rgb(85.490196%,87.058824%,91.764706%);fill-opacity:1;" d="M 250 873.191406 L 250 723.613281 L 231.847656 723.613281 L 231.847656 873.191406 Z M 250 873.191406 "/>
<path style=" stroke:none;fill-rule:nonzero;fill:rgb(0%,17.254902%,78.823529%);fill-opacity:1;" d="M 421.257812 723.609375 L 421.257812 553.65625 L 250 553.65625 L 250 723.609375 Z M 421.257812 723.609375 "/>
<path style=" stroke:none;fill-rule:nonzero;fill:rgb(80%,33.333333%,100%);fill-opacity:1;" d="M 250 723.609375 L 250 553.65625 L 78.742188 553.65625 L 78.742188 723.609375 Z M 250 723.609375 "/>
<path style=" stroke:none;fill-rule:nonzero;fill:rgb(71.372549%,70.588235%,70.588235%);fill-opacity:1;" d="M 403.019531 553.660156 L 403.019531 394.308594 L 250 394.308594 L 250 553.660156 Z M 403.019531 553.660156 "/>
<path style=" stroke:none;fill-rule:nonzero;fill:rgb(96.470588%,50.588235%,25.490196%);fill-opacity:1;" d="M 250 553.660156 L 250 394.308594 L 96.980469 394.308594 L 96.980469 553.660156 Z M 250 553.660156 "/>
<path style=" stroke:none;fill-rule:nonzero;fill:rgb(94.901961%,55.686275%,26.666667%);fill-opacity:1;" d="M 450.5625 394.308594 L 450.5625 284.5 L 250 284.5 L 250 394.308594 Z M 450.5625 394.308594 "/>
<path style=" stroke:none;fill-rule:nonzero;fill:rgb(94.901961%,55.686275%,26.666667%);fill-opacity:1;" d="M 250 394.308594 L 250 284.5 L 49.4375 284.5 L 49.4375 394.308594 Z M 250 394.308594 "/>
<path style=" stroke:none;fill-rule:nonzero;fill:rgb(26.666667%,63.529412%,91.764706%);fill-opacity:1;" d="M 492.304688 284.5 L 492.304688 186.730469 L 250 186.730469 L 250 284.5 Z M 492.304688 284.5 "/>
<path style=" stroke:none;fill-rule:nonzero;fill:rgb(80%,33.333333%,100%);fill-opacity:1;" d="M 250 284.5 L 250 186.730469 L 7.695312 186.730469 L 7.695312 284.5 Z M 250 284.5 "/>
<path style=" stroke:none;fill-rule:nonzero;fill:rgb(94.901961%,55.686275%,26.666667%);fill-opacity:1;" d="M 314.582031 186.730469 L 314.582031 7.699219 L 250 7.699219 L 250 186.730469 Z M 314.582031 186.730469 "/>
<path style=" stroke:none;fill-rule:nonzero;fill:rgb(85.490196%,87.058824%,91.764706%);fill-opacity:1;" d="M 250 186.730469 L 250 7.699219 L 185.417969 7.699219 L 185.417969 186.730469 Z M 250 186.730469 "/>
</g>
</svg>
