<?xml version="1.0" encoding="UTF-8"?>
<svg xmlns="http://www.w3.org/2000/svg" xmlns:xlink="http://www.w3.org/1999/xlink" width="500pt" height="500pt" viewBox="0 0 500 500" version="1.1">
<g id="surface1">
<path style=" stroke:none;fill-rule:nonzero;fill:rgb(100%,84.313725%,0%);fill-opacity:1;" d="M 462.964844 462.964844 L 462.964844 37.039062 L 37.039062 37.039062 L 37.039062 462.964844 Z M 462.964844 462.964844 "/>
<path style=" stroke:none;fill-rule:nonzero;fill:rgb(100%,84.313725%,0%);fill-opacity:1;" d="M 250 250 L 435.183594 250 C 435.183594 147.726562 352.273438 64.816406 250 64.816406 C 147.726562 64.816406 64.816406 147.726562 64.816406 250 Z M 250 250 "/>
<path style=" stroke:none;fill-rule:nonzero;fill:rgb(100%,100%,100%);fill-opacity:1;" d="M 250 250 L 416.667969 250 C 416.667969 157.953125 342.046875 83.332031 250 83.332031 C 157.953125 83.332031 83.332031 157.953125 83.332031 250 Z M 250 250 "/>
<path style=" stroke:none;fill-rule:nonzero;fill:rgb(100%,84.313725%,0%);fill-opacity:1;" d="M 250 250 L 398.148438 250 C 398.148438 168.179688 331.820312 101.851562 250 101.851562 C 168.179688 101.851562 101.851562 168.179688 101.851562 250 Z M 250 250 "/>
<path style=" stroke:none;fill-rule:nonzero;fill:rgb(100%,100%,100%);fill-opacity:1;" d="M 250 250 L 379.628906 250 C 379.628906 178.40625 321.589844 120.371094 250 120.371094 C 178.40625 120.371094 120.371094 178.410156 120.371094 250 Z M 250 250 "/>
<path style=" stroke:none;fill-rule:nonzero;fill:rgb(100%,84.313725%,0%);fill-opacity:1;" d="M 250 250 L 361.109375 250 C 361.109375 188.636719 311.363281 138.890625 250 138.890625 C 188.636719 138.890625 138.890625 188.636719 138.890625 250 Z M 250 250 "/>
<path style=" stroke:none;fill-rule:nonzero;fill:rgb(100%,100%,100%);fill-opacity:1;" d="M 250 250 L 342.59375 250 C 342.59375 198.863281 301.136719 157.40625 250 157.40625 C 198.863281 157.40625 157.40625 198.863281 157.40625 250 Z M 250 250 "/>
<path style=" stroke:none;fill-rule:nonzero;fill:rgb(100%,84.313725%,0%);fill-opacity:1;" d="M 250 250 L 324.074219 250 C 324.074219 209.089844 290.910156 175.925781 250 175.925781 C 209.089844 175.925781 175.925781 209.089844 175.925781 250 Z M 250 250 "/>
<path style=" stroke:none;fill-rule:nonzero;fill:rgb(100%,100%,100%);fill-opacity:1;" d="M 250 250 L 305.554688 250 C 305.554688 219.316406 280.679688 194.445312 250 194.445312 C 219.316406 194.445312 194.445312 219.320312 194.445312 250 Z M 250 250 "/>
<path style=" stroke:none;fill-rule:nonzero;fill:rgb(100%,84.313725%,0%);fill-opacity:1;" d="M 250 250 L 287.035156 250 C 287.035156 229.546875 270.453125 212.964844 250 212.964844 C 229.546875 212.964844 212.964844 229.546875 212.964844 250 Z M 250 250 "/>
<path style=" stroke:none;fill-rule:nonzero;fill:rgb(100%,100%,100%);fill-opacity:1;" d="M 250 250 L 268.519531 250 C 268.519531 239.773438 260.226562 231.480469 250 231.480469 C 239.773438 231.480469 231.480469 239.773438 231.480469 250 Z M 250 250 "/>
<path style=" stroke:none;fill-rule:nonzero;fill:rgb(100%,84.313725%,0%);fill-opacity:1;" d="M 250 250 L 435.183594 250 C 435.183594 219.316406 352.273438 194.445312 250 194.445312 C 147.726562 194.445312 64.816406 219.320312 64.816406 250 Z M 250 250 "/>
<path style=" stroke:none;fill-rule:nonzero;fill:rgb(100%,100%,100%);fill-opacity:1;" d="M 250 250 L 416.667969 250 C 416.667969 222.386719 342.046875 200 250 200 C 157.953125 200 83.332031 222.386719 83.332031 250 Z M 250 250 "/>
<path style=" stroke:none;fill-rule:nonzero;fill:rgb(100%,84.313725%,0%);fill-opacity:1;" d="M 250 250 L 398.148438 250 C 398.148438 225.453125 331.820312 205.554688 250 205.554688 C 168.179688 205.554688 101.851562 225.453125 101.851562 250 Z M 250 250 "/>
<path style=" stroke:none;fill-rule:nonzero;fill:rgb(100%,100%,100%);fill-opacity:1;" d="M 250 250 L 379.628906 250 C 379.628906 228.523438 321.589844 211.109375 250 211.109375 C 178.40625 211.109375 120.371094 228.519531 120.371094 250 Z M 250 250 "/>
<path style=" stroke:none;fill-rule:nonzero;fill:rgb(100%,84.313725%,0%);fill-opacity:1;" d="M 250 250 L 361.109375 250 C 361.109375 231.589844 311.363281 216.667969 250 216.667969 C 188.636719 216.667969 138.890625 231.59375 138.890625 250 Z M 250 250 "/>
<path style=" stroke:none;fill-rule:nonzero;fill:rgb(100%,100%,100%);fill-opacity:1;" d="M 250 250 L 342.59375 250 C 342.59375 234.660156 301.136719 222.222656 250 222.222656 C 198.863281 222.222656 157.40625 234.660156 157.40625 250 Z M 250 250 "/>
<path style=" stroke:none;fill-rule:nonzero;fill:rgb(100%,84.313725%,0%);fill-opacity:1;" d="M 250 250 L 324.074219 250 C 324.074219 237.726562 290.910156 227.777344 250 227.777344 C 209.089844 227.777344 175.925781 237.726562 175.925781 250 Z M 250 250 "/>
<path style=" stroke:none;fill-rule:nonzero;fill:rgb(100%,100%,100%);fill-opacity:1;" d="M 250 250 L 305.554688 250 C 305.554688 240.796875 280.679688 233.332031 250 233.332031 C 219.316406 233.332031 194.445312 240.792969 194.445312 250 Z M 250 250 "/>
<path style=" stroke:none;fill-rule:nonzero;fill:rgb(100%,84.313725%,0%);fill-opacity:1;" d="M 250 250 L 287.035156 250 C 287.035156 243.863281 270.453125 238.890625 250 238.890625 C 229.546875 238.890625 212.964844 243.867188 212.964844 250 Z M 250 250 "/>
<path style=" stroke:none;fill-rule:nonzero;fill:rgb(100%,100%,100%);fill-opacity:1;" d="M 250 250 L 268.519531 250 C 268.519531 246.933594 260.226562 244.445312 250 244.445312 C 239.773438 244.445312 231.480469 246.933594 231.480469 250 Z M 250 250 "/>
<path style=" stroke:none;fill-rule:nonzero;fill:rgb(100%,84.313725%,0%);fill-opacity:1;" d="M 250 250 L 435.183594 250 C 435.183594 352.273438 352.273438 435.183594 250 435.183594 C 147.726562 435.183594 64.816406 352.273438 64.816406 250 Z M 250 250 "/>
<path style=" stroke:none;fill-rule:nonzero;fill:rgb(100%,100%,100%);fill-opacity:1;" d="M 250 250 L 416.667969 250 C 416.667969 342.046875 342.046875 416.667969 250 416.667969 C 157.953125 416.667969 83.332031 342.046875 83.332031 250 Z M 250 250 "/>
<path style=" stroke:none;fill-rule:nonzero;fill:rgb(100%,84.313725%,0%);fill-opacity:1;" d="M 250 250 L 398.148438 250 C 398.148438 331.820312 331.820312 398.148438 250 398.148438 C 168.179688 398.148438 101.851562 331.820312 101.851562 250 Z M 250 250 "/>
<path style=" stroke:none;fill-rule:nonzero;fill:rgb(100%,100%,100%);fill-opacity:1;" d="M 250 250 L 379.628906 250 C 379.628906 321.59375 321.589844 379.628906 250 379.628906 C 178.40625 379.628906 120.371094 321.589844 120.371094 250 Z M 250 250 "/>
<path style=" stroke:none;fill-rule:nonzero;fill:rgb(100%,84.313725%,0%);fill-opacity:1;" d="M 250 250 L 361.109375 250 C 361.109375 311.363281 311.363281 361.109375 250 361.109375 C 188.636719 361.109375 138.890625 311.363281 138.890625 250 Z M 250 250 "/>
<path style=" stroke:none;fill-rule:nonzero;fill:rgb(100%,100%,100%);fill-opacity:1;" d="M 250 250 L 342.59375 250 C 342.59375 301.136719 301.136719 342.59375 250 342.59375 C 198.863281 342.59375 157.40625 301.136719 157.40625 250 Z M 250 250 "/>
<path style=" stroke:none;fill-rule:nonzero;fill:rgb(100%,84.313725%,0%);fill-opacity:1;" d="M 250 250 L 324.074219 250 C 324.074219 290.910156 290.910156 324.074219 250 324.074219 C 209.089844 324.074219 175.925781 290.910156 175.925781 250 Z M 250 250 "/>
<path style=" stroke:none;fill-rule:nonzero;fill:rgb(100%,100%,100%);fill-opacity:1;" d="M 250 250 L 305.554688 250 C 305.554688 280.683594 280.679688 305.554688 250 305.554688 C 219.316406 305.554688 194.445312 280.679688 194.445312 250 Z M 250 250 "/>
<path style=" stroke:none;fill-rule:nonzero;fill:rgb(100%,84.313725%,0%);fill-opacity:1;" d="M 250 250 L 287.035156 250 C 287.035156 270.453125 270.453125 287.035156 250 287.035156 C 229.546875 287.035156 212.964844 270.453125 212.964844 250 Z M 250 250 "/>
<path style=" stroke:none;fill-rule:nonzero;fill:rgb(100%,100%,100%);fill-opacity:1;" d="M 250 250 L 268.519531 250 C 268.519531 260.226562 260.226562 268.519531 250 268.519531 C 239.773438 268.519531 231.480469 260.226562 231.480469 250 Z M 250 250 "/>
</g>
</svg>
