<?xml version="1.0" encoding="UTF-8"?>
<svg xmlns="http://www.w3.org/2000/svg" xmlns:xlink="http://www.w3.org/1999/xlink" width="500pt" height="399.509804pt" viewBox="0 0 500 399.509804" version="1.1">
<g id="surface1">
<path style="fill:none;stroke-width:1.787758;stroke-linecap:butt;stroke-linejoin:miter;stroke:rgb(0%,0%,0%);stroke-opacity:1;stroke-miterlimit:10;" d="M 495.097656 248.773438 L 495.097656 253.675781 L 4.902344 253.675781 L 4.902344 248.773438 Z M 495.097656 248.773438 "/>
<path style="fill:none;stroke-width:1.787758;stroke-linecap:butt;stroke-linejoin:miter;stroke:rgb(0%,0%,0%);stroke-opacity:1;stroke-miterlimit:10;" d="M 495.097656 253.675781 L 495.097656 259.804688 L 4.902344 259.804688 L 4.902344 253.675781 Z M 495.097656 253.675781 "/>
<path style="fill:none;stroke-width:1.787758;stroke-linecap:butt;stroke-linejoin:miter;stroke:rgb(0%,0%,0%);stroke-opacity:1;stroke-miterlimit:10;" d="M 495.097656 259.804688 L 495.097656 267.15625 L 4.902344 267.15625 L 4.902344 259.804688 Z M 495.097656 259.804688 "/>
<path style="fill:none;stroke-width:1.787758;stroke-linecap:butt;stroke-linejoin:miter;stroke:rgb(0%,0%,0%);stroke-opacity:1;stroke-miterlimit:10;" d="M 495.097656 267.15625 L 495.097656 279.410156 L 4.902344 279.410156 L 4.902344 267.15625 Z M 495.097656 267.15625 "/>
<path style="fill:none;stroke-width:1.787758;stroke-linecap:butt;stroke-linejoin:miter;stroke:rgb(0%,0%,0%);stroke-opacity:1;stroke-miterlimit:10;" d="M 495.097656 279.410156 L 495.097656 296.566406 L 4.902344 296.566406 L 4.902344 279.410156 Z M 495.097656 279.410156 "/>
<path style="fill:none;stroke-width:1.787758;stroke-linecap:butt;stroke-linejoin:miter;stroke:rgb(0%,0%,0%);stroke-opacity:1;stroke-miterlimit:10;" d="M 495.097656 296.570312 L 495.097656 321.082031 L 4.902344 321.082031 L 4.902344 296.570312 Z M 495.097656 296.570312 "/>
<path style="fill:none;stroke-width:1.787758;stroke-linecap:butt;stroke-linejoin:miter;stroke:rgb(0%,0%,0%);stroke-opacity:1;stroke-miterlimit:10;" d="M 495.097656 321.078125 L 495.097656 345.589844 L 4.902344 345.589844 L 4.902344 321.078125 Z M 495.097656 321.078125 "/>
<path style="fill:none;stroke-width:1.787758;stroke-linecap:butt;stroke-linejoin:miter;stroke:rgb(0%,0%,0%);stroke-opacity:1;stroke-miterlimit:10;" d="M 495.097656 345.589844 L 495.097656 370.101562 L 4.902344 370.101562 L 4.902344 345.589844 Z M 495.097656 345.589844 "/>
<path style="fill:none;stroke-width:1.787758;stroke-linecap:butt;stroke-linejoin:miter;stroke:rgb(0%,0%,0%);stroke-opacity:1;stroke-miterlimit:10;" d="M 495.097656 370.097656 L 495.097656 394.609375 L 4.902344 394.609375 L 4.902344 370.097656 Z M 495.097656 370.097656 "/>
<path style="fill-rule:nonzero;fill:rgb(100%,64.705882%,0%);fill-opacity:1;stroke-width:1.787758;stroke-linecap:butt;stroke-linejoin:miter;stroke:rgb(0%,0%,0%);stroke-opacity:1;stroke-miterlimit:10;" d="M 446.078125 199.753906 C 446.078125 172.679688 424.132812 150.734375 397.058594 150.734375 C 369.984375 150.734375 348.039062 172.679688 348.039062 199.753906 C 348.039062 226.828125 369.984375 248.773438 397.058594 248.773438 C 424.132812 248.773438 446.078125 226.828125 446.078125 199.753906 Z M 446.078125 199.753906 "/>
<path style="fill-rule:nonzero;fill:rgb(100%,64.705882%,0%);fill-opacity:1;stroke-width:1.787758;stroke-linecap:butt;stroke-linejoin:miter;stroke:rgb(0%,0%,0%);stroke-opacity:1;stroke-miterlimit:10;" d="M 348.039062 199.753906 C 348.039062 172.679688 326.09375 150.734375 299.019531 150.734375 C 271.945312 150.734375 250 172.679688 250 199.753906 C 250 226.828125 271.945312 248.773438 299.019531 248.773438 C 326.09375 248.773438 348.039062 226.828125 348.039062 199.753906 Z M 348.039062 199.753906 "/>
<path style="fill-rule:nonzero;fill:rgb(100%,64.705882%,0%);fill-opacity:1;stroke-width:1.787758;stroke-linecap:butt;stroke-linejoin:miter;stroke:rgb(0%,0%,0%);stroke-opacity:1;stroke-miterlimit:10;" d="M 250 199.753906 C 250 172.679688 228.054688 150.734375 200.980469 150.734375 C 173.90625 150.734375 151.960938 172.679688 151.960938 199.753906 C 151.960938 226.828125 173.90625 248.773438 200.980469 248.773438 C 228.054688 248.773438 250 226.828125 250 199.753906 Z M 250 199.753906 "/>
<path style="fill-rule:nonzero;fill:rgb(100%,64.705882%,0%);fill-opacity:1;stroke-width:1.787758;stroke-linecap:butt;stroke-linejoin:miter;stroke:rgb(0%,0%,0%);stroke-opacity:1;stroke-miterlimit:10;" d="M 151.960938 199.753906 C 151.960938 172.679688 130.015625 150.734375 102.941406 150.734375 C 75.867188 150.734375 53.921875 172.679688 53.921875 199.753906 C 53.921875 226.828125 75.867188 248.773438 102.941406 248.773438 C 130.015625 248.773438 151.960938 226.828125 151.960938 199.753906 Z M 151.960938 199.753906 "/>
<path style="fill:none;stroke-width:1.787758;stroke-linecap:butt;stroke-linejoin:miter;stroke:rgb(0%,0%,0%);stroke-opacity:1;stroke-miterlimit:10;" d="M 495.097656 150.734375 L 495.097656 145.832031 L 4.902344 145.832031 L 4.902344 150.734375 Z M 495.097656 150.734375 "/>
<path style="fill:none;stroke-width:1.787758;stroke-linecap:butt;stroke-linejoin:miter;stroke:rgb(0%,0%,0%);stroke-opacity:1;stroke-miterlimit:10;" d="M 495.097656 145.832031 L 495.097656 139.703125 L 4.902344 139.703125 L 4.902344 145.832031 Z M 495.097656 145.832031 "/>
<path style="fill:none;stroke-width:1.787758;stroke-linecap:butt;stroke-linejoin:miter;stroke:rgb(0%,0%,0%);stroke-opacity:1;stroke-miterlimit:10;" d="M 495.097656 139.707031 L 495.097656 132.355469 L 4.902344 132.355469 L 4.902344 139.707031 Z M 495.097656 139.707031 "/>
<path style="fill:none;stroke-width:1.787758;stroke-linecap:butt;stroke-linejoin:miter;stroke:rgb(0%,0%,0%);stroke-opacity:1;stroke-miterlimit:10;" d="M 495.097656 132.351562 L 495.097656 120.097656 L 4.902344 120.097656 L 4.902344 132.351562 Z M 495.097656 132.351562 "/>
<path style="fill:none;stroke-width:1.787758;stroke-linecap:butt;stroke-linejoin:miter;stroke:rgb(0%,0%,0%);stroke-opacity:1;stroke-miterlimit:10;" d="M 495.097656 120.097656 L 495.097656 102.941406 L 4.902344 102.941406 L 4.902344 120.097656 Z M 495.097656 120.097656 "/>
<path style="fill:none;stroke-width:1.787758;stroke-linecap:butt;stroke-linejoin:miter;stroke:rgb(0%,0%,0%);stroke-opacity:1;stroke-miterlimit:10;" d="M 495.097656 102.941406 L 495.097656 78.429688 L 4.902344 78.429688 L 4.902344 102.941406 Z M 495.097656 102.941406 "/>
<path style="fill:none;stroke-width:1.787758;stroke-linecap:butt;stroke-linejoin:miter;stroke:rgb(0%,0%,0%);stroke-opacity:1;stroke-miterlimit:10;" d="M 495.097656 78.429688 L 495.097656 53.917969 L 4.902344 53.917969 L 4.902344 78.429688 Z M 495.097656 78.429688 "/>
<path style="fill:none;stroke-width:1.787758;stroke-linecap:butt;stroke-linejoin:miter;stroke:rgb(0%,0%,0%);stroke-opacity:1;stroke-miterlimit:10;" d="M 495.097656 53.921875 L 495.097656 29.410156 L 4.902344 29.410156 L 4.902344 53.921875 Z M 495.097656 53.921875 "/>
<path style="fill:none;stroke-width:1.787758;stroke-linecap:butt;stroke-linejoin:miter;stroke:rgb(0%,0%,0%);stroke-opacity:1;stroke-miterlimit:10;" d="M 495.097656 29.410156 L 495.097656 4.898438 L 4.902344 4.898438 L 4.902344 29.410156 Z M 495.097656 29.410156 "/>
</g>
</svg>
