<?xml version="1.0" encoding="UTF-8"?>
<svg xmlns="http://www.w3.org/2000/svg" xmlns:xlink="http://www.w3.org/1999/xlink" width="500pt" height="620.098039pt" viewBox="0 0 500 620.098039" version="1.1">
<g id="surface1">
<path style="fill:none;stroke-width:2.227282;stroke-linecap:butt;stroke-linejoin:miter;stroke:rgb(0%,0%,0%);stroke-opacity:1;stroke-miterlimit:10;" d="M 495.097656 469.363281 L 495.097656 474.265625 L 4.902344 474.265625 L 4.902344 469.363281 Z M 495.097656 469.363281 "/>
<path style="fill:none;stroke-width:2.227282;stroke-linecap:butt;stroke-linejoin:miter;stroke:rgb(0%,0%,0%);stroke-opacity:1;stroke-miterlimit:10;" d="M 495.097656 474.265625 L 495.097656 480.394531 L 4.902344 480.394531 L 4.902344 474.265625 Z M 495.097656 474.265625 "/>
<path style="fill:none;stroke-width:2.227282;stroke-linecap:butt;stroke-linejoin:miter;stroke:rgb(0%,0%,0%);stroke-opacity:1;stroke-miterlimit:10;" d="M 495.097656 480.390625 L 495.097656 487.742188 L 4.902344 487.742188 L 4.902344 480.390625 Z M 495.097656 480.390625 "/>
<path style="fill:none;stroke-width:2.227282;stroke-linecap:butt;stroke-linejoin:miter;stroke:rgb(0%,0%,0%);stroke-opacity:1;stroke-miterlimit:10;" d="M 495.097656 487.746094 L 495.097656 500 L 4.902344 500 L 4.902344 487.746094 Z M 495.097656 487.746094 "/>
<path style="fill:none;stroke-width:2.227282;stroke-linecap:butt;stroke-linejoin:miter;stroke:rgb(0%,0%,0%);stroke-opacity:1;stroke-miterlimit:10;" d="M 495.097656 500 L 495.097656 517.15625 L 4.902344 517.15625 L 4.902344 500 Z M 495.097656 500 "/>
<path style="fill:none;stroke-width:2.227282;stroke-linecap:butt;stroke-linejoin:miter;stroke:rgb(0%,0%,0%);stroke-opacity:1;stroke-miterlimit:10;" d="M 495.097656 517.15625 L 495.097656 541.667969 L 4.902344 541.667969 L 4.902344 517.15625 Z M 495.097656 517.15625 "/>
<path style="fill:none;stroke-width:2.227282;stroke-linecap:butt;stroke-linejoin:miter;stroke:rgb(0%,0%,0%);stroke-opacity:1;stroke-miterlimit:10;" d="M 495.097656 541.667969 L 495.097656 566.179688 L 4.902344 566.179688 L 4.902344 541.667969 Z M 495.097656 541.667969 "/>
<path style="fill:none;stroke-width:2.227282;stroke-linecap:butt;stroke-linejoin:miter;stroke:rgb(0%,0%,0%);stroke-opacity:1;stroke-miterlimit:10;" d="M 495.097656 566.175781 L 495.097656 590.6875 L 4.902344 590.6875 L 4.902344 566.175781 Z M 495.097656 566.175781 "/>
<path style="fill:none;stroke-width:2.227282;stroke-linecap:butt;stroke-linejoin:miter;stroke:rgb(0%,0%,0%);stroke-opacity:1;stroke-miterlimit:10;" d="M 495.097656 590.6875 L 495.097656 615.199219 L 4.902344 615.199219 L 4.902344 590.6875 Z M 495.097656 590.6875 "/>
<path style="fill-rule:nonzero;fill:rgb(0%,0%,0%);fill-opacity:1;stroke-width:2.227282;stroke-linecap:butt;stroke-linejoin:miter;stroke:rgb(0%,0%,0%);stroke-opacity:1;stroke-miterlimit:10;" d="M 4.902344 469.363281 L 5.378906 443.746094 L 14.910156 402.496094 L 15.386719 402.496094 L 24.917969 409.605469 L 25.394531 409.605469 L 34.925781 452.496094 L 35.402344 452.496094 L 44.933594 444.292969 L 45.410156 444.292969 L 54.941406 433.199219 L 55.417969 433.199219 L 64.949219 428.902344 L 65.425781 428.902344 L 74.957031 375.855469 L 75.433594 375.855469 L 84.964844 433.902344 L 85.441406 433.902344 L 94.972656 434.527344 L 95.449219 434.527344 L 104.980469 389.136719 L 105.457031 389.136719 L 114.988281 441.089844 L 115.464844 441.089844 L 124.996094 405.074219 L 125.472656 405.074219 L 135.003906 431.558594 L 135.480469 431.558594 L 145.011719 400.621094 L 145.488281 400.621094 L 155.019531 385.152344 L 155.496094 385.152344 L 165.027344 456.714844 L 165.503906 456.714844 L 175.035156 400.542969 L 175.511719 400.542969 L 185.042969 379.136719 L 185.519531 379.136719 L 195.050781 397.964844 L 195.527344 397.964844 L 205.058594 388.355469 L 205.535156 388.355469 L 215.066406 355.855469 L 215.542969 355.855469 L 225.074219 408.121094 L 225.550781 408.121094 L 235.082031 417.417969 L 235.558594 417.417969 L 245.089844 393.121094 L 245.566406 393.121094 L 255.097656 409.527344 L 255.574219 409.527344 L 265.105469 372.183594 L 265.582031 372.183594 L 275.113281 382.496094 L 275.589844 382.496094 L 285.121094 404.371094 L 285.597656 404.371094 L 295.128906 446.167969 L 295.605469 446.167969 L 305.136719 402.886719 L 305.613281 402.886719 L 315.144531 412.496094 L 315.621094 412.496094 L 325.152344 427.730469 L 325.628906 427.730469 L 335.160156 397.886719 L 335.636719 397.886719 L 345.167969 435.152344 L 345.644531 435.152344 L 355.175781 424.761719 L 355.652344 424.761719 L 365.183594 446.480469 L 365.660156 446.480469 L 375.191406 435.074219 L 375.667969 435.074219 L 385.199219 429.371094 L 385.675781 429.371094 L 395.207031 427.261719 L 395.683594 427.261719 L 405.214844 443.902344 L 405.691406 443.902344 L 415.222656 450.386719 L 415.699219 450.386719 L 425.230469 420.855469 L 425.707031 420.855469 L 435.238281 425.933594 L 435.714844 425.933594 L 445.246094 397.105469 L 445.722656 397.105469 L 455.253906 437.652344 L 455.730469 437.652344 L 465.261719 400.230469 L 465.738281 400.230469 L 475.269531 412.886719 L 475.746094 412.886719 L 485.277344 379.761719 L 485.753906 379.761719 L 495.285156 443.199219 L 495.761719 469.367188 Z M 4.902344 469.363281 "/>
<path style="fill-rule:nonzero;fill:rgb(100%,64.705882%,0%);fill-opacity:1;stroke-width:2.227282;stroke-linecap:butt;stroke-linejoin:miter;stroke:rgb(0%,0%,0%);stroke-opacity:1;stroke-miterlimit:10;" d="M 102.941406 224.265625 C 102.941406 197.191406 80.996094 175.246094 53.921875 175.246094 C 26.847656 175.246094 4.902344 197.191406 4.902344 224.265625 C 4.902344 251.339844 26.847656 273.285156 53.921875 273.285156 C 80.996094 273.285156 102.941406 251.339844 102.941406 224.265625 Z M 102.941406 224.265625 "/>
<path style="fill:none;stroke-width:2.227282;stroke-linecap:butt;stroke-linejoin:miter;stroke:rgb(0%,0%,0%);stroke-opacity:1;stroke-miterlimit:10;" d="M 495.097656 150.734375 L 495.097656 145.832031 L 4.902344 145.832031 L 4.902344 150.734375 Z M 495.097656 150.734375 "/>
<path style="fill:none;stroke-width:2.227282;stroke-linecap:butt;stroke-linejoin:miter;stroke:rgb(0%,0%,0%);stroke-opacity:1;stroke-miterlimit:10;" d="M 495.097656 145.832031 L 495.097656 139.703125 L 4.902344 139.703125 L 4.902344 145.832031 Z M 495.097656 145.832031 "/>
<path style="fill:none;stroke-width:2.227282;stroke-linecap:butt;stroke-linejoin:miter;stroke:rgb(0%,0%,0%);stroke-opacity:1;stroke-miterlimit:10;" d="M 495.097656 139.707031 L 495.097656 132.355469 L 4.902344 132.355469 L 4.902344 139.707031 Z M 495.097656 139.707031 "/>
<path style="fill:none;stroke-width:2.227282;stroke-linecap:butt;stroke-linejoin:miter;stroke:rgb(0%,0%,0%);stroke-opacity:1;stroke-miterlimit:10;" d="M 495.097656 132.351562 L 495.097656 120.097656 L 4.902344 120.097656 L 4.902344 132.351562 Z M 495.097656 132.351562 "/>
<path style="fill:none;stroke-width:2.227282;stroke-linecap:butt;stroke-linejoin:miter;stroke:rgb(0%,0%,0%);stroke-opacity:1;stroke-miterlimit:10;" d="M 495.097656 120.097656 L 495.097656 102.941406 L 4.902344 102.941406 L 4.902344 120.097656 Z M 495.097656 120.097656 "/>
<path style="fill:none;stroke-width:2.227282;stroke-linecap:butt;stroke-linejoin:miter;stroke:rgb(0%,0%,0%);stroke-opacity:1;stroke-miterlimit:10;" d="M 495.097656 102.941406 L 495.097656 78.429688 L 4.902344 78.429688 L 4.902344 102.941406 Z M 495.097656 102.941406 "/>
<path style="fill:none;stroke-width:2.227282;stroke-linecap:butt;stroke-linejoin:miter;stroke:rgb(0%,0%,0%);stroke-opacity:1;stroke-miterlimit:10;" d="M 495.097656 78.429688 L 495.097656 53.917969 L 4.902344 53.917969 L 4.902344 78.429688 Z M 495.097656 78.429688 "/>
<path style="fill:none;stroke-width:2.227282;stroke-linecap:butt;stroke-linejoin:miter;stroke:rgb(0%,0%,0%);stroke-opacity:1;stroke-miterlimit:10;" d="M 495.097656 53.921875 L 495.097656 29.410156 L 4.902344 29.410156 L 4.902344 53.921875 Z M 495.097656 53.921875 "/>
<path style="fill:none;stroke-width:2.227282;stroke-linecap:butt;stroke-linejoin:miter;stroke:rgb(0%,0%,0%);stroke-opacity:1;stroke-miterlimit:10;" d="M 495.097656 29.410156 L 495.097656 4.898438 L 4.902344 4.898438 L 4.902344 29.410156 Z M 495.097656 29.410156 "/>
</g>
</svg>
