<?xml version="1.0" encoding="UTF-8"?>
<svg xmlns="http://www.w3.org/2000/svg" xmlns:xlink="http://www.w3.org/1999/xlink" width="500pt" height="529.411765pt" viewBox="0 0 500 529.411765" version="1.1">
<g id="surface1">
<path style="fill:none;stroke-width:2.057983;stroke-linecap:butt;stroke-linejoin:miter;stroke:rgb(0%,0%,0%);stroke-opacity:1;stroke-miterlimit:10;" d="M 495.097656 378.675781 L 495.097656 383.578125 L 4.902344 383.578125 L 4.902344 378.675781 Z M 495.097656 378.675781 "/>
<path style="fill:none;stroke-width:2.057983;stroke-linecap:butt;stroke-linejoin:miter;stroke:rgb(0%,0%,0%);stroke-opacity:1;stroke-miterlimit:10;" d="M 495.097656 383.578125 L 495.097656 389.707031 L 4.902344 389.707031 L 4.902344 383.578125 Z M 495.097656 383.578125 "/>
<path style="fill:none;stroke-width:2.057983;stroke-linecap:butt;stroke-linejoin:miter;stroke:rgb(0%,0%,0%);stroke-opacity:1;stroke-miterlimit:10;" d="M 495.097656 389.707031 L 495.097656 397.058594 L 4.902344 397.058594 L 4.902344 389.707031 Z M 495.097656 389.707031 "/>
<path style="fill:none;stroke-width:2.057983;stroke-linecap:butt;stroke-linejoin:miter;stroke:rgb(0%,0%,0%);stroke-opacity:1;stroke-miterlimit:10;" d="M 495.097656 397.058594 L 495.097656 409.3125 L 4.902344 409.3125 L 4.902344 397.058594 Z M 495.097656 397.058594 "/>
<path style="fill:none;stroke-width:2.057983;stroke-linecap:butt;stroke-linejoin:miter;stroke:rgb(0%,0%,0%);stroke-opacity:1;stroke-miterlimit:10;" d="M 495.097656 409.3125 L 495.097656 426.46875 L 4.902344 426.46875 L 4.902344 409.3125 Z M 495.097656 409.3125 "/>
<path style="fill:none;stroke-width:2.057983;stroke-linecap:butt;stroke-linejoin:miter;stroke:rgb(0%,0%,0%);stroke-opacity:1;stroke-miterlimit:10;" d="M 495.097656 426.46875 L 495.097656 450.980469 L 4.902344 450.980469 L 4.902344 426.46875 Z M 495.097656 426.46875 "/>
<path style="fill:none;stroke-width:2.057983;stroke-linecap:butt;stroke-linejoin:miter;stroke:rgb(0%,0%,0%);stroke-opacity:1;stroke-miterlimit:10;" d="M 495.097656 450.980469 L 495.097656 475.492188 L 4.902344 475.492188 L 4.902344 450.980469 Z M 495.097656 450.980469 "/>
<path style="fill:none;stroke-width:2.057983;stroke-linecap:butt;stroke-linejoin:miter;stroke:rgb(0%,0%,0%);stroke-opacity:1;stroke-miterlimit:10;" d="M 495.097656 475.488281 L 495.097656 500 L 4.902344 500 L 4.902344 475.488281 Z M 495.097656 475.488281 "/>
<path style="fill:none;stroke-width:2.057983;stroke-linecap:butt;stroke-linejoin:miter;stroke:rgb(0%,0%,0%);stroke-opacity:1;stroke-miterlimit:10;" d="M 495.097656 500 L 495.097656 524.511719 L 4.902344 524.511719 L 4.902344 500 Z M 495.097656 500 "/>
<path style="fill-rule:nonzero;fill:rgb(100%,64.705882%,0%);fill-opacity:1;stroke-width:1;stroke-linecap:butt;stroke-linejoin:miter;stroke:rgb(0%,0%,0%);stroke-opacity:1;stroke-miterlimit:10;" d="M 225.488281 252.449219 C 225.488281 211.839844 192.566406 178.917969 151.957031 178.917969 C 111.347656 178.917969 78.425781 211.839844 78.425781 252.449219 C 78.425781 293.058594 111.347656 325.980469 151.957031 325.980469 C 192.566406 325.980469 225.488281 293.058594 225.488281 252.449219 Z M 225.488281 252.449219 "/>
<path style="fill-rule:nonzero;fill:rgb(0%,0%,0%);fill-opacity:1;stroke-width:2.057983;stroke-linecap:butt;stroke-linejoin:miter;stroke:rgb(100%,100%,100%);stroke-opacity:1;stroke-miterlimit:10;" d="M 4.902344 375 L 5.378906 349.382812 L 14.910156 308.132812 L 15.386719 308.132812 L 24.917969 315.242188 L 25.394531 315.242188 L 34.925781 358.132812 L 35.402344 358.132812 L 44.933594 349.929688 L 45.410156 349.929688 L 54.941406 338.835938 L 55.417969 338.835938 L 64.949219 334.539062 L 65.425781 334.539062 L 74.957031 281.492188 L 75.433594 281.492188 L 84.964844 339.539062 L 85.441406 339.539062 L 94.972656 340.164062 L 95.449219 340.164062 L 104.980469 294.773438 L 105.457031 294.773438 L 114.988281 346.726562 L 115.464844 346.726562 L 124.996094 310.710938 L 125.472656 310.710938 L 135.003906 337.195312 L 135.480469 337.195312 L 145.011719 306.257812 L 145.488281 306.257812 L 155.019531 290.789062 L 155.496094 290.789062 L 165.027344 362.351562 L 165.503906 362.351562 L 175.035156 306.179688 L 175.511719 306.179688 L 185.042969 284.773438 L 185.519531 284.773438 L 195.050781 303.601562 L 195.527344 303.601562 L 205.058594 293.992188 L 205.535156 293.992188 L 215.066406 261.492188 L 215.542969 261.492188 L 225.074219 313.757812 L 225.550781 313.757812 L 235.082031 323.054688 L 235.558594 323.054688 L 245.089844 298.757812 L 245.566406 298.757812 L 255.097656 315.164062 L 255.574219 315.164062 L 265.105469 277.820312 L 265.582031 277.820312 L 275.113281 288.132812 L 275.589844 288.132812 L 285.121094 310.007812 L 285.597656 310.007812 L 295.128906 351.804688 L 295.605469 351.804688 L 305.136719 308.523438 L 305.613281 308.523438 L 315.144531 318.132812 L 315.621094 318.132812 L 325.152344 333.367188 L 325.628906 333.367188 L 335.160156 303.523438 L 335.636719 303.523438 L 345.167969 340.789062 L 345.644531 340.789062 L 355.175781 330.398438 L 355.652344 330.398438 L 365.183594 352.117188 L 365.660156 352.117188 L 375.191406 340.710938 L 375.667969 340.710938 L 385.199219 335.007812 L 385.675781 335.007812 L 395.207031 332.898438 L 395.683594 332.898438 L 405.214844 349.539062 L 405.691406 349.539062 L 415.222656 356.023438 L 415.699219 356.023438 L 425.230469 326.492188 L 425.707031 326.492188 L 435.238281 331.570312 L 435.714844 331.570312 L 445.246094 302.742188 L 445.722656 302.742188 L 455.253906 343.289062 L 455.730469 343.289062 L 465.261719 305.867188 L 465.738281 305.867188 L 475.269531 318.523438 L 475.746094 318.523438 L 485.277344 285.398438 L 485.753906 285.398438 L 495.285156 348.835938 L 495.761719 375.003906 Z M 4.902344 375 "/>
<path style="fill:none;stroke-width:2.057983;stroke-linecap:butt;stroke-linejoin:miter;stroke:rgb(0%,0%,0%);stroke-opacity:1;stroke-miterlimit:10;" d="M 495.097656 150.734375 L 495.097656 145.832031 L 4.902344 145.832031 L 4.902344 150.734375 Z M 495.097656 150.734375 "/>
<path style="fill:none;stroke-width:2.057983;stroke-linecap:butt;stroke-linejoin:miter;stroke:rgb(0%,0%,0%);stroke-opacity:1;stroke-miterlimit:10;" d="M 495.097656 145.832031 L 495.097656 139.703125 L 4.902344 139.703125 L 4.902344 145.832031 Z M 495.097656 145.832031 "/>
<path style="fill:none;stroke-width:2.057983;stroke-linecap:butt;stroke-linejoin:miter;stroke:rgb(0%,0%,0%);stroke-opacity:1;stroke-miterlimit:10;" d="M 495.097656 139.707031 L 495.097656 132.355469 L 4.902344 132.355469 L 4.902344 139.707031 Z M 495.097656 139.707031 "/>
<path style="fill:none;stroke-width:2.057983;stroke-linecap:butt;stroke-linejoin:miter;stroke:rgb(0%,0%,0%);stroke-opacity:1;stroke-miterlimit:10;" d="M 495.097656 132.351562 L 495.097656 120.097656 L 4.902344 120.097656 L 4.902344 132.351562 Z M 495.097656 132.351562 "/>
<path style="fill:none;stroke-width:2.057983;stroke-linecap:butt;stroke-linejoin:miter;stroke:rgb(0%,0%,0%);stroke-opacity:1;stroke-miterlimit:10;" d="M 495.097656 120.097656 L 495.097656 102.941406 L 4.902344 102.941406 L 4.902344 120.097656 Z M 495.097656 120.097656 "/>
<path style="fill:none;stroke-width:2.057983;stroke-linecap:butt;stroke-linejoin:miter;stroke:rgb(0%,0%,0%);stroke-opacity:1;stroke-miterlimit:10;" d="M 495.097656 102.941406 L 495.097656 78.429688 L 4.902344 78.429688 L 4.902344 102.941406 Z M 495.097656 102.941406 "/>
<path style="fill:none;stroke-width:2.057983;stroke-linecap:butt;stroke-linejoin:miter;stroke:rgb(0%,0%,0%);stroke-opacity:1;stroke-miterlimit:10;" d="M 495.097656 78.429688 L 495.097656 53.917969 L 4.902344 53.917969 L 4.902344 78.429688 Z M 495.097656 78.429688 "/>
<path style="fill:none;stroke-width:2.057983;stroke-linecap:butt;stroke-linejoin:miter;stroke:rgb(0%,0%,0%);stroke-opacity:1;stroke-miterlimit:10;" d="M 495.097656 53.921875 L 495.097656 29.410156 L 4.902344 29.410156 L 4.902344 53.921875 Z M 495.097656 53.921875 "/>
<path style="fill:none;stroke-width:2.057983;stroke-linecap:butt;stroke-linejoin:miter;stroke:rgb(0%,0%,0%);stroke-opacity:1;stroke-miterlimit:10;" d="M 495.097656 29.410156 L 495.097656 4.898438 L 4.902344 4.898438 L 4.902344 29.410156 Z M 495.097656 29.410156 "/>
</g>
</svg>
