<?xml version="1.0" encoding="UTF-8"?>
<svg xmlns="http://www.w3.org/2000/svg" xmlns:xlink="http://www.w3.org/1999/xlink" width="500pt" height="398.668626pt" viewBox="0 0 500 398.668626" version="1.1">
<g id="surface1">
<path style="fill:none;stroke-width:1.785875;stroke-linecap:butt;stroke-linejoin:miter;stroke:rgb(0%,0%,0%);stroke-opacity:1;stroke-miterlimit:10;" d="M 495.097656 247.933594 L 495.097656 252.835938 L 4.902344 252.835938 L 4.902344 247.933594 Z M 495.097656 247.933594 "/>
<path style="fill:none;stroke-width:1.785875;stroke-linecap:butt;stroke-linejoin:miter;stroke:rgb(0%,0%,0%);stroke-opacity:1;stroke-miterlimit:10;" d="M 495.097656 252.835938 L 495.097656 258.964844 L 4.902344 258.964844 L 4.902344 252.835938 Z M 495.097656 252.835938 "/>
<path style="fill:none;stroke-width:1.785875;stroke-linecap:butt;stroke-linejoin:miter;stroke:rgb(0%,0%,0%);stroke-opacity:1;stroke-miterlimit:10;" d="M 495.097656 258.960938 L 495.097656 266.3125 L 4.902344 266.3125 L 4.902344 258.960938 Z M 495.097656 258.960938 "/>
<path style="fill:none;stroke-width:1.785875;stroke-linecap:butt;stroke-linejoin:miter;stroke:rgb(0%,0%,0%);stroke-opacity:1;stroke-miterlimit:10;" d="M 495.097656 266.316406 L 495.097656 278.570312 L 4.902344 278.570312 L 4.902344 266.316406 Z M 495.097656 266.316406 "/>
<path style="fill:none;stroke-width:1.785875;stroke-linecap:butt;stroke-linejoin:miter;stroke:rgb(0%,0%,0%);stroke-opacity:1;stroke-miterlimit:10;" d="M 495.097656 278.570312 L 495.097656 295.726562 L 4.902344 295.726562 L 4.902344 278.570312 Z M 495.097656 278.570312 "/>
<path style="fill:none;stroke-width:1.785875;stroke-linecap:butt;stroke-linejoin:miter;stroke:rgb(0%,0%,0%);stroke-opacity:1;stroke-miterlimit:10;" d="M 495.097656 295.726562 L 495.097656 320.238281 L 4.902344 320.238281 L 4.902344 295.726562 Z M 495.097656 295.726562 "/>
<path style="fill:none;stroke-width:1.785875;stroke-linecap:butt;stroke-linejoin:miter;stroke:rgb(0%,0%,0%);stroke-opacity:1;stroke-miterlimit:10;" d="M 495.097656 320.238281 L 495.097656 344.75 L 4.902344 344.75 L 4.902344 320.238281 Z M 495.097656 320.238281 "/>
<path style="fill:none;stroke-width:1.785875;stroke-linecap:butt;stroke-linejoin:miter;stroke:rgb(0%,0%,0%);stroke-opacity:1;stroke-miterlimit:10;" d="M 495.097656 344.746094 L 495.097656 369.257812 L 4.902344 369.257812 L 4.902344 344.746094 Z M 495.097656 344.746094 "/>
<path style="fill:none;stroke-width:1.785875;stroke-linecap:butt;stroke-linejoin:miter;stroke:rgb(0%,0%,0%);stroke-opacity:1;stroke-miterlimit:10;" d="M 495.097656 369.257812 L 495.097656 393.769531 L 4.902344 393.769531 L 4.902344 369.257812 Z M 495.097656 369.257812 "/>
<path style="fill:none;stroke-width:1.785875;stroke-linecap:butt;stroke-linejoin:miter;stroke:rgb(0%,0%,0%);stroke-opacity:1;stroke-miterlimit:10;" d="M 495.097656 150.734375 L 495.097656 145.832031 L 4.902344 145.832031 L 4.902344 150.734375 Z M 495.097656 150.734375 "/>
<path style="fill:none;stroke-width:1.785875;stroke-linecap:butt;stroke-linejoin:miter;stroke:rgb(0%,0%,0%);stroke-opacity:1;stroke-miterlimit:10;" d="M 495.097656 145.832031 L 495.097656 139.703125 L 4.902344 139.703125 L 4.902344 145.832031 Z M 495.097656 145.832031 "/>
<path style="fill:none;stroke-width:1.785875;stroke-linecap:butt;stroke-linejoin:miter;stroke:rgb(0%,0%,0%);stroke-opacity:1;stroke-miterlimit:10;" d="M 495.097656 139.707031 L 495.097656 132.355469 L 4.902344 132.355469 L 4.902344 139.707031 Z M 495.097656 139.707031 "/>
<path style="fill:none;stroke-width:1.785875;stroke-linecap:butt;stroke-linejoin:miter;stroke:rgb(0%,0%,0%);stroke-opacity:1;stroke-miterlimit:10;" d="M 495.097656 132.351562 L 495.097656 120.097656 L 4.902344 120.097656 L 4.902344 132.351562 Z M 495.097656 132.351562 "/>
<path style="fill:none;stroke-width:1.785875;stroke-linecap:butt;stroke-linejoin:miter;stroke:rgb(0%,0%,0%);stroke-opacity:1;stroke-miterlimit:10;" d="M 495.097656 120.097656 L 495.097656 102.941406 L 4.902344 102.941406 L 4.902344 120.097656 Z M 495.097656 120.097656 "/>
<path style="fill:none;stroke-width:1.785875;stroke-linecap:butt;stroke-linejoin:miter;stroke:rgb(0%,0%,0%);stroke-opacity:1;stroke-miterlimit:10;" d="M 495.097656 102.941406 L 495.097656 78.429688 L 4.902344 78.429688 L 4.902344 102.941406 Z M 495.097656 102.941406 "/>
<path style="fill:none;stroke-width:1.785875;stroke-linecap:butt;stroke-linejoin:miter;stroke:rgb(0%,0%,0%);stroke-opacity:1;stroke-miterlimit:10;" d="M 495.097656 78.429688 L 495.097656 53.917969 L 4.902344 53.917969 L 4.902344 78.429688 Z M 495.097656 78.429688 "/>
<path style="fill:none;stroke-width:1.785875;stroke-linecap:butt;stroke-linejoin:miter;stroke:rgb(0%,0%,0%);stroke-opacity:1;stroke-miterlimit:10;" d="M 495.097656 53.921875 L 495.097656 29.410156 L 4.902344 29.410156 L 4.902344 53.921875 Z M 495.097656 53.921875 "/>
<path style="fill:none;stroke-width:1.785875;stroke-linecap:butt;stroke-linejoin:miter;stroke:rgb(0%,0%,0%);stroke-opacity:1;stroke-miterlimit:10;" d="M 495.097656 29.410156 L 495.097656 4.898438 L 4.902344 4.898438 L 4.902344 29.410156 Z M 495.097656 29.410156 "/>
<path style="fill-rule:nonzero;fill:rgb(100%,64.705882%,0%);fill-opacity:1;stroke-width:1;stroke-linecap:butt;stroke-linejoin:miter;stroke:rgb(0%,0%,0%);stroke-opacity:1;stroke-miterlimit:10;" d="M 176.46875 115.195312 C 176.46875 74.585938 143.546875 41.664062 102.9375 41.664062 C 62.328125 41.664062 29.40625 74.585938 29.40625 115.195312 C 29.40625 155.804688 62.328125 188.726562 102.9375 188.726562 C 143.546875 188.726562 176.46875 155.804688 176.46875 115.195312 Z M 176.46875 115.195312 "/>
<path style="fill-rule:nonzero;fill:rgb(0%,0%,0%);fill-opacity:1;stroke-width:1.785875;stroke-linecap:butt;stroke-linejoin:miter;stroke:rgb(100%,100%,100%);stroke-opacity:1;stroke-miterlimit:10;" d="M 4.902344 245.480469 L 5.378906 219.863281 L 14.910156 178.613281 L 15.386719 178.613281 L 24.917969 185.722656 L 25.394531 185.722656 L 34.925781 228.613281 L 35.402344 228.613281 L 44.933594 220.410156 L 45.410156 220.410156 L 54.941406 209.316406 L 55.417969 209.316406 L 64.949219 205.019531 L 65.425781 205.019531 L 74.957031 151.972656 L 75.433594 151.972656 L 84.964844 210.019531 L 85.441406 210.019531 L 94.972656 210.644531 L 95.449219 210.644531 L 104.980469 165.253906 L 105.457031 165.253906 L 114.988281 217.207031 L 115.464844 217.207031 L 124.996094 181.191406 L 125.472656 181.191406 L 135.003906 207.675781 L 135.480469 207.675781 L 145.011719 176.738281 L 145.488281 176.738281 L 155.019531 161.269531 L 155.496094 161.269531 L 165.027344 232.832031 L 165.503906 232.832031 L 175.035156 176.660156 L 175.511719 176.660156 L 185.042969 155.253906 L 185.519531 155.253906 L 195.050781 174.082031 L 195.527344 174.082031 L 205.058594 164.472656 L 205.535156 164.472656 L 215.066406 131.972656 L 215.542969 131.972656 L 225.074219 184.238281 L 225.550781 184.238281 L 235.082031 193.535156 L 235.558594 193.535156 L 245.089844 169.238281 L 245.566406 169.238281 L 255.097656 185.644531 L 255.574219 185.644531 L 265.105469 148.300781 L 265.582031 148.300781 L 275.113281 158.613281 L 275.589844 158.613281 L 285.121094 180.488281 L 285.597656 180.488281 L 295.128906 222.285156 L 295.605469 222.285156 L 305.136719 179.003906 L 305.613281 179.003906 L 315.144531 188.613281 L 315.621094 188.613281 L 325.152344 203.847656 L 325.628906 203.847656 L 335.160156 174.003906 L 335.636719 174.003906 L 345.167969 211.269531 L 345.644531 211.269531 L 355.175781 200.878906 L 355.652344 200.878906 L 365.183594 222.597656 L 365.660156 222.597656 L 375.191406 211.191406 L 375.667969 211.191406 L 385.199219 205.488281 L 385.675781 205.488281 L 395.207031 203.378906 L 395.683594 203.378906 L 405.214844 220.019531 L 405.691406 220.019531 L 415.222656 226.503906 L 415.699219 226.503906 L 425.230469 196.972656 L 425.707031 196.972656 L 435.238281 202.050781 L 435.714844 202.050781 L 445.246094 173.222656 L 445.722656 173.222656 L 455.253906 213.769531 L 455.730469 213.769531 L 465.261719 176.347656 L 465.738281 176.347656 L 475.269531 189.003906 L 475.746094 189.003906 L 485.277344 155.878906 L 485.753906 155.878906 L 495.285156 219.316406 L 495.761719 245.484375 Z M 4.902344 245.480469 "/>
</g>
</svg>
