<?xml version="1.0" encoding="UTF-8"?>
<svg xmlns="http://www.w3.org/2000/svg" xmlns:xlink="http://www.w3.org/1999/xlink" width="500pt" height="390.888672pt" viewBox="0 0 500 390.888672" version="1.1">
<g id="surface1">
<path style="fill:none;stroke-width:1.768363;stroke-linecap:butt;stroke-linejoin:miter;stroke:rgb(0%,0%,0%);stroke-opacity:1;stroke-miterlimit:10;" d="M 495.097656 240.152344 L 495.097656 245.054688 L 4.902344 245.054688 L 4.902344 240.152344 Z M 495.097656 240.152344 "/>
<path style="fill:none;stroke-width:1.768363;stroke-linecap:butt;stroke-linejoin:miter;stroke:rgb(0%,0%,0%);stroke-opacity:1;stroke-miterlimit:10;" d="M 495.097656 245.054688 L 495.097656 251.183594 L 4.902344 251.183594 L 4.902344 245.054688 Z M 495.097656 245.054688 "/>
<path style="fill:none;stroke-width:1.768363;stroke-linecap:butt;stroke-linejoin:miter;stroke:rgb(0%,0%,0%);stroke-opacity:1;stroke-miterlimit:10;" d="M 495.097656 251.183594 L 495.097656 258.535156 L 4.902344 258.535156 L 4.902344 251.183594 Z M 495.097656 251.183594 "/>
<path style="fill:none;stroke-width:1.768363;stroke-linecap:butt;stroke-linejoin:miter;stroke:rgb(0%,0%,0%);stroke-opacity:1;stroke-miterlimit:10;" d="M 495.097656 258.535156 L 495.097656 270.789062 L 4.902344 270.789062 L 4.902344 258.535156 Z M 495.097656 258.535156 "/>
<path style="fill:none;stroke-width:1.768363;stroke-linecap:butt;stroke-linejoin:miter;stroke:rgb(0%,0%,0%);stroke-opacity:1;stroke-miterlimit:10;" d="M 495.097656 270.789062 L 495.097656 287.945312 L 4.902344 287.945312 L 4.902344 270.789062 Z M 495.097656 270.789062 "/>
<path style="fill:none;stroke-width:1.768363;stroke-linecap:butt;stroke-linejoin:miter;stroke:rgb(0%,0%,0%);stroke-opacity:1;stroke-miterlimit:10;" d="M 495.097656 287.949219 L 495.097656 312.460938 L 4.902344 312.460938 L 4.902344 287.949219 Z M 495.097656 287.949219 "/>
<path style="fill:none;stroke-width:1.768363;stroke-linecap:butt;stroke-linejoin:miter;stroke:rgb(0%,0%,0%);stroke-opacity:1;stroke-miterlimit:10;" d="M 495.097656 312.457031 L 495.097656 336.96875 L 4.902344 336.96875 L 4.902344 312.457031 Z M 495.097656 312.457031 "/>
<path style="fill:none;stroke-width:1.768363;stroke-linecap:butt;stroke-linejoin:miter;stroke:rgb(0%,0%,0%);stroke-opacity:1;stroke-miterlimit:10;" d="M 495.097656 336.96875 L 495.097656 361.480469 L 4.902344 361.480469 L 4.902344 336.96875 Z M 495.097656 336.96875 "/>
<path style="fill:none;stroke-width:1.768363;stroke-linecap:butt;stroke-linejoin:miter;stroke:rgb(0%,0%,0%);stroke-opacity:1;stroke-miterlimit:10;" d="M 495.097656 361.476562 L 495.097656 385.988281 L 4.902344 385.988281 L 4.902344 361.476562 Z M 495.097656 361.476562 "/>
<path style="fill:none;stroke-width:1.768363;stroke-linecap:butt;stroke-linejoin:miter;stroke:rgb(0%,0%,0%);stroke-opacity:1;stroke-miterlimit:10;" d="M 495.097656 150.734375 L 495.097656 145.832031 L 4.902344 145.832031 L 4.902344 150.734375 Z M 495.097656 150.734375 "/>
<path style="fill:none;stroke-width:1.768363;stroke-linecap:butt;stroke-linejoin:miter;stroke:rgb(0%,0%,0%);stroke-opacity:1;stroke-miterlimit:10;" d="M 495.097656 145.832031 L 495.097656 139.703125 L 4.902344 139.703125 L 4.902344 145.832031 Z M 495.097656 145.832031 "/>
<path style="fill:none;stroke-width:1.768363;stroke-linecap:butt;stroke-linejoin:miter;stroke:rgb(0%,0%,0%);stroke-opacity:1;stroke-miterlimit:10;" d="M 495.097656 139.707031 L 495.097656 132.355469 L 4.902344 132.355469 L 4.902344 139.707031 Z M 495.097656 139.707031 "/>
<path style="fill:none;stroke-width:1.768363;stroke-linecap:butt;stroke-linejoin:miter;stroke:rgb(0%,0%,0%);stroke-opacity:1;stroke-miterlimit:10;" d="M 495.097656 132.351562 L 495.097656 120.097656 L 4.902344 120.097656 L 4.902344 132.351562 Z M 495.097656 132.351562 "/>
<path style="fill:none;stroke-width:1.768363;stroke-linecap:butt;stroke-linejoin:miter;stroke:rgb(0%,0%,0%);stroke-opacity:1;stroke-miterlimit:10;" d="M 495.097656 120.097656 L 495.097656 102.941406 L 4.902344 102.941406 L 4.902344 120.097656 Z M 495.097656 120.097656 "/>
<path style="fill:none;stroke-width:1.768363;stroke-linecap:butt;stroke-linejoin:miter;stroke:rgb(0%,0%,0%);stroke-opacity:1;stroke-miterlimit:10;" d="M 495.097656 102.941406 L 495.097656 78.429688 L 4.902344 78.429688 L 4.902344 102.941406 Z M 495.097656 102.941406 "/>
<path style="fill:none;stroke-width:1.768363;stroke-linecap:butt;stroke-linejoin:miter;stroke:rgb(0%,0%,0%);stroke-opacity:1;stroke-miterlimit:10;" d="M 495.097656 78.429688 L 495.097656 53.917969 L 4.902344 53.917969 L 4.902344 78.429688 Z M 495.097656 78.429688 "/>
<path style="fill:none;stroke-width:1.768363;stroke-linecap:butt;stroke-linejoin:miter;stroke:rgb(0%,0%,0%);stroke-opacity:1;stroke-miterlimit:10;" d="M 495.097656 53.921875 L 495.097656 29.410156 L 4.902344 29.410156 L 4.902344 53.921875 Z M 495.097656 53.921875 "/>
<path style="fill:none;stroke-width:1.768363;stroke-linecap:butt;stroke-linejoin:miter;stroke:rgb(0%,0%,0%);stroke-opacity:1;stroke-miterlimit:10;" d="M 495.097656 29.410156 L 495.097656 4.898438 L 4.902344 4.898438 L 4.902344 29.410156 Z M 495.097656 29.410156 "/>
<path style="fill-rule:nonzero;fill:rgb(100%,64.705882%,0%);fill-opacity:1;stroke-width:1;stroke-linecap:butt;stroke-linejoin:miter;stroke:rgb(0%,0%,0%);stroke-opacity:1;stroke-miterlimit:10;" d="M 176.46875 115.195312 C 176.46875 74.585938 143.546875 41.664062 102.9375 41.664062 C 62.328125 41.664062 29.40625 74.585938 29.40625 115.195312 C 29.40625 155.804688 62.328125 188.726562 102.9375 188.726562 C 143.546875 188.726562 176.46875 155.804688 176.46875 115.195312 Z M 176.46875 115.195312 "/>
<path style="fill-rule:nonzero;fill:rgb(0%,0%,0%);fill-opacity:1;stroke-width:1.768363;stroke-linecap:butt;stroke-linejoin:miter;stroke:rgb(100%,100%,100%);stroke-opacity:1;stroke-miterlimit:10;" d="M 4.902344 237.703125 L 9.753906 209.109375 L 14.605469 206.582031 L 19.457031 203.425781 L 24.308594 212.210938 L 29.160156 217.832031 L 34.011719 213.65625 L 38.863281 216.167969 L 43.714844 217.742188 L 48.566406 211.335938 L 53.417969 216.765625 L 58.269531 216.363281 L 63.121094 216.605469 L 67.972656 213.082031 L 72.824219 207.351562 L 77.675781 203.875 L 82.527344 199.148438 L 87.378906 196.5 L 92.230469 185.925781 L 97.082031 190.621094 L 101.933594 195.828125 L 106.785156 190.964844 L 111.636719 189.863281 L 116.488281 187.210938 L 121.339844 185.59375 L 126.191406 178.707031 L 131.042969 181.0625 L 135.894531 182.640625 L 140.746094 187.746094 L 145.597656 197.394531 L 150.449219 206.894531 L 155.300781 213.371094 L 160.152344 210.921875 L 165.003906 220.0625 L 169.855469 226.519531 L 174.707031 230.941406 L 179.558594 232.800781 L 184.410156 229.542969 L 189.261719 220.730469 L 194.113281 219.257812 L 198.964844 212.40625 L 203.816406 203.304688 L 208.667969 203.117188 L 213.519531 201.277344 L 218.371094 210.03125 L 223.222656 214.585938 L 228.074219 215.863281 L 232.925781 218.066406 L 237.777344 215.464844 L 242.628906 213.992188 L 247.480469 215.632812 L 252.332031 217.558594 L 257.183594 220.398438 L 262.035156 222.027344 L 266.886719 210.230469 L 271.738281 213.027344 L 276.589844 209.421875 L 281.441406 217.390625 L 286.292969 214.640625 L 291.144531 219.511719 L 295.996094 226.332031 L 300.847656 218.367188 L 305.699219 218.953125 L 310.550781 219.507812 L 315.402344 217.734375 L 320.253906 216.648438 L 325.105469 217 L 329.957031 214.042969 L 334.808594 208.34375 L 339.660156 204.882812 L 344.511719 191.710938 L 349.363281 193.609375 L 354.214844 190.980469 L 359.066406 187.828125 L 363.917969 191.785156 L 368.769531 190.816406 L 373.621094 178.859375 L 378.472656 171.75 L 383.324219 165.570312 L 388.175781 160.824219 L 393.027344 157.371094 L 397.878906 155.003906 L 402.730469 154.027344 L 407.582031 148.730469 L 412.433594 147.230469 L 417.285156 154.796875 L 422.136719 156.824219 L 426.988281 157.6875 L 431.839844 159.738281 L 436.691406 160.375 L 441.542969 155.992188 L 446.394531 153.074219 L 451.246094 143.972656 L 456.097656 144.972656 L 460.949219 140.246094 L 465.800781 139.761719 L 470.652344 144.886719 L 475.503906 147.417969 L 480.355469 155.445312 L 485.207031 156.988281 L 490.058594 161.945312 L 494.910156 237.71875 Z M 4.902344 237.703125 "/>
</g>
</svg>
