<?xml version="1.0" encoding="UTF-8" standalone="no"?>
<!-- Created with Inkscape (http://www.inkscape.org/) -->

<svg
   xmlns:dc="http://purl.org/dc/elements/1.1/"
   xmlns:cc="http://creativecommons.org/ns#"
   xmlns:rdf="http://www.w3.org/1999/02/22-rdf-syntax-ns#"
   xmlns:svg="http://www.w3.org/2000/svg"
   xmlns="http://www.w3.org/2000/svg"
   xmlns:sodipodi="http://sodipodi.sourceforge.net/DTD/sodipodi-0.dtd"
   xmlns:inkscape="http://www.inkscape.org/namespaces/inkscape"
   width="210mm"
   height="297mm"
   viewBox="0 0 210 297"
   version="1.1"
   id="svg3760"
   inkscape:version="0.92.3 (2405546, 2018-03-11)"
   sodipodi:docname="circle.svg">
  <defs
     id="defs3754">
    <inkscape:path-effect
       effect="simplify"
       id="path-effect898"
       is_visible="true"
       steps="1"
       threshold="0.000408163"
       smooth_angles="360"
       helper_size="0"
       simplify_individual_paths="false"
       simplify_just_coalesce="false"
       simplifyindividualpaths="false"
       simplifyJustCoalesce="false" />
    <inkscape:path-effect
       effect="simplify"
       id="path-effect894"
       is_visible="true"
       steps="1"
       threshold="0.000408163"
       smooth_angles="360"
       helper_size="0"
       simplify_individual_paths="false"
       simplify_just_coalesce="false"
       simplifyindividualpaths="false"
       simplifyJustCoalesce="false" />
    <inkscape:path-effect
       effect="simplify"
       id="path-effect890"
       is_visible="true"
       steps="1"
       threshold="0.000408163"
       smooth_angles="360"
       helper_size="0"
       simplify_individual_paths="false"
       simplify_just_coalesce="false"
       simplifyindividualpaths="false"
       simplifyJustCoalesce="false" />
  </defs>
  <sodipodi:namedview
     id="base"
     pagecolor="#ffffff"
     bordercolor="#666666"
     borderopacity="1.0"
     inkscape:pageopacity="0.0"
     inkscape:pageshadow="2"
     inkscape:zoom="0.49497475"
     inkscape:cx="559.97748"
     inkscape:cy="614.01794"
     inkscape:document-units="mm"
     inkscape:current-layer="layer1"
     showgrid="false"
     inkscape:window-width="1528"
     inkscape:window-height="1438"
     inkscape:window-x="0"
     inkscape:window-y="0"
     inkscape:window-maximized="0" />
  <metadata
     id="metadata3757">
    <rdf:RDF>
      <cc:Work
         rdf:about="">
        <dc:format>image/svg+xml</dc:format>
        <dc:type
           rdf:resource="http://purl.org/dc/dcmitype/StillImage" />
        <dc:title></dc:title>
      </cc:Work>
    </rdf:RDF>
  </metadata>
  <g
     inkscape:label="Layer 1"
     inkscape:groupmode="layer"
     id="layer1">
    <path
       style="opacity:1;fill:#ff0000;fill-opacity:1;stroke:none;stroke-width:0.30000001;stroke-linejoin:round;stroke-miterlimit:4;stroke-dasharray:none;stroke-dashoffset:0;stroke-opacity:1"
       id="path952"
       d="m 65.640455,107.84506 c 0.03754,-0.05 0.02003,-0.0127 0.04048,0.0133 -0.05631,-0.0126 -0.110728,-0.0327 -0.167254,-0.0463 -0.114046,-0.0295 -0.224433,-0.0725 -0.341183,-0.0896 -0.157385,-0.0363 -0.315359,-0.0604 -0.475276,-0.0803 -0.195154,-0.0328 -0.390845,-0.0559 -0.588865,-0.0522 -0.219712,-0.0207 -0.437036,0.0132 -0.656412,0.0193 -0.235466,0.0217 -0.463804,0.0822 -0.695519,0.12495 -0.25778,0.0583 -0.511921,0.13088 -0.769249,0.19136 -0.282213,0.077 -0.558033,0.17395 -0.837626,0.25949 -0.319122,0.0683 -0.618694,0.19564 -0.92511,0.30322 -0.339193,0.11148 -0.680916,0.21757 -1.014728,0.34455 -0.358325,0.13358 -0.707175,0.29141 -1.065553,0.42641 -0.380889,0.14542 -0.743144,0.33185 -1.112991,0.50193 -0.380902,0.185 -0.747245,0.39705 -1.120725,0.59596 -4.688605,2.76229 13.728067,-8.0415 9.354394,-5.39027 -0.392724,0.22378 -0.771356,0.46971 -1.144596,0.72423 -0.388662,0.26001 -0.750768,0.55576 -1.116494,0.84632 -0.375311,0.29634 -0.732554,0.6142 -1.081807,0.94055 -0.353338,0.34423 -0.699111,0.69657 -1.03909,1.05406 -0.352279,0.36798 -0.678585,0.75899 -1.002601,1.15165 -0.338363,0.4077 -0.65916,0.82935 -0.972381,1.25652 -0.323035,0.4422 -0.626454,0.89813 -0.923057,1.35832 -0.306512,0.47663 -0.593016,0.96558 -0.875554,1.45667 -0.28856,0.51101 -0.562311,1.02998 -0.815311,1.55946 -0.262784,0.54757 -0.497023,1.10768 -0.72227,1.67149 -0.235136,0.58379 -0.447765,1.17602 -0.653243,1.77076 -0.214368,0.61297 -0.407842,1.23261 -0.592117,1.85518 -0.186668,0.6332 -0.356097,1.27136 -0.518427,1.91118 -0.162999,0.65438 -0.312642,1.31194 -0.454184,1.97126 -0.142636,0.67612 -0.281918,1.35306 -0.40323,2.03336 -0.123412,0.70265 -0.22538,1.40872 -0.323995,2.11519 -0.101976,0.71718 -0.190577,1.43608 -0.27527,2.15547 -0.08765,0.73258 -0.158467,1.467 -0.228553,2.20142 -0.07268,0.74016 -0.131162,1.48159 -0.187341,2.22316 -0.05396,0.74704 -0.09805,1.4947 -0.135572,2.24273 -0.03923,0.75651 -0.06443,1.51364 -0.08812,2.27077 -0.02299,0.77237 -0.03067,1.54502 -0.03658,2.31767 -0.008,0.78914 0.0046,1.57823 0.01738,2.36724 0.01127,0.79364 0.03331,1.58708 0.05723,2.38042 0.02704,0.79065 0.06916,1.58067 0.117835,2.37024 0.0478,0.78901 0.118584,1.57629 0.196429,2.36282 0.07769,0.78693 0.175173,1.57161 0.280654,2.35522 0.104868,0.78506 0.232344,1.56677 0.365467,2.34745 0.132876,0.77495 0.282,1.54694 0.436697,2.31778 0.152109,0.7634 0.322707,1.52276 0.504256,2.27964 0.180861,0.75269 0.38073,1.50058 0.59291,2.24499 0.210034,0.73292 0.451395,1.45617 0.706806,2.17436 0.251539,0.71185 0.526944,1.41486 0.813366,2.11329 0.282472,0.68401 0.599067,1.35297 0.928134,2.01556 0.324308,0.65047 0.679847,1.28444 1.047036,1.91145 0.363307,0.61817 0.755589,1.21842 1.158478,1.8113 0.400516,0.58743 0.82764,1.15586 1.264327,1.71668 0.429012,0.55006 0.881269,1.08121 1.342401,1.60442 0.460743,0.5212 0.943329,1.0223 1.433515,1.51569 0.49326,0.49504 1.006041,0.96989 1.525529,1.43713 0.523423,0.469 1.063162,0.91921 1.610503,1.3599 0.544563,0.4355 1.100683,0.85636 1.668513,1.26101 0.568857,0.40439 1.151633,0.7884 1.739945,1.16372 0.588121,0.38278 1.204981,0.71772 1.821635,1.0515 0.631814,0.33784 1.273172,0.65703 1.918859,0.96734 0.641934,0.31001 1.294643,0.59679 1.94882,0.87978 0.65078,0.28181 1.311013,0.54082 1.973831,0.7927 0.658014,0.25068 1.32251,0.48404 1.991104,0.70483 0.662691,0.2213 1.332603,0.41985 2.002734,0.61715 0.662416,0.19239 1.331759,0.3587 2.002356,0.51965 0.656484,0.15482 1.318414,0.28383 1.981182,0.40824 0.650216,0.1168 1.304607,0.20659 1.961443,0.27603 0.651513,0.0767 1.305454,0.12864 1.960277,0.16638 0.654817,0.0346 1.310328,0.0459 1.965865,0.0555 0.661056,7.9e-4 1.322326,2.6e-4 1.982258,-0.041 0.67668,-0.0353 1.351933,-0.0899 2.025544,-0.16285 0.690983,-0.071 1.380408,-0.15726 2.068208,-0.25427 0.686036,-0.11976 1.373177,-0.23381 2.057482,-0.36322 0.679125,-0.13536 1.357216,-0.27537 2.030286,-0.43839 0.67131,-0.14638 1.32923,-0.34455 1.98961,-0.53229 0.65597,-0.1909 1.30714,-0.39748 1.95459,-0.61544 0.6387,-0.21949 1.26747,-0.4655 1.8983,-0.70613 0.63694,-0.227 1.25375,-0.50465 1.87592,-0.76815 0.61848,-0.271 1.22465,-0.56883 1.83586,-0.85559 0.60846,-0.29832 1.21554,-0.59857 1.81152,-0.92128 0.60611,-0.30492 1.18375,-0.66115 1.77017,-1.00121 4.01341,-2.56849 -14.600116,8.64372 -8.72195,5.02294 0.5781,-0.35235 1.14955,-0.71565 1.71306,-1.09088 0.5631,-0.38353 1.11638,-0.78092 1.66883,-1.17954 0.55201,-0.40311 1.09517,-0.81804 1.62852,-1.24552 0.53123,-0.43961 1.05954,-0.88275 1.58635,-1.32766 0.52596,-0.46416 1.04891,-0.93215 1.5612,-1.41144 0.52009,-0.47584 1.02707,-0.96547 1.5275,-1.46184 0.49866,-0.5108 0.98618,-1.03252 1.46742,-1.55975 0.48122,-0.53341 0.94809,-1.07964 1.41325,-1.62706 0.47281,-0.55275 0.91913,-1.12729 1.35909,-1.70629 0.44049,-0.58919 0.87807,-1.18043 1.3059,-1.77889 0.42758,-0.60551 0.84282,-1.2197 1.2568,-1.83457 0.41691,-0.61906 0.81621,-1.24963 1.20853,-1.88446 0.39622,-0.64258 0.77444,-1.29592 1.14616,-1.95289 0.37614,-0.66136 0.73021,-1.33464 1.0746,-2.01295 0.34498,-0.67828 0.66816,-1.36721 0.98553,-2.05873 0.31423,-0.68589 0.60993,-1.38009 0.89704,-2.07771 0.28817,-0.70181 0.55603,-1.41166 0.81577,-2.1244 0.25699,-0.70504 0.49339,-1.41729 0.72187,-2.132 0.22988,-0.71432 0.43877,-1.43508 0.63859,-2.15831 0.19681,-0.71527 0.37274,-1.436 0.54158,-2.1583 0.16804,-0.71201 0.31218,-1.42926 0.45181,-2.14728 0.13693,-0.71322 0.25555,-1.42968 0.36922,-2.14692 0.1107,-0.71368 0.20727,-1.4294 0.29225,-2.14657 0.0833,-0.71904 0.15366,-1.43946 0.19464,-2.16219 0.0393,-0.74242 0.049,-1.48583 0.0499,-2.22914 0,-0.74542 -0.0223,-1.49052 -0.0484,-2.23539 -0.0251,-0.73794 -0.0674,-1.47509 -0.11756,-2.2117 -0.0499,-0.72766 -0.11801,-1.45386 -0.19321,-2.17929 -0.0749,-0.71801 -0.16724,-1.43399 -0.26623,-2.14902 -0.0965,-0.70555 -0.21375,-1.40791 -0.33937,-2.10879 -0.1246,-0.69418 -0.26586,-1.38513 -0.41687,-2.07399 -0.15041,-0.68373 -0.32143,-1.3626 -0.50048,-2.0393 -0.17819,-0.67582 -0.38249,-1.34428 -0.58947,-2.01171 -0.20164,-0.66974 -0.44224,-1.3263 -0.69232,-1.97915 -0.25718,-0.6647 -0.5392,-1.31929 -0.83177,-1.96906 -0.29864,-0.65727 -0.6188,-1.30454 -0.94687,-1.94755 -0.32693,-0.63945 -0.67499,-1.26747 -1.02748,-1.89305 -0.34589,-0.62096 -0.72351,-1.22309 -1.1025,-1.82411 -0.37399,-0.59925 -0.77868,-1.17815 -1.18351,-1.75669 -0.40115,-0.57591 -0.82561,-1.13483 -1.26013,-1.6858 -0.43,-0.5559 -0.87926,-1.09628 -1.33832,-1.6283 -0.46381,-0.52827 -0.93525,-1.04976 -1.41641,-1.56228 -0.47898,-0.50926 -0.97834,-0.99857 -1.48526,-1.4798 -0.49445,-0.46848 -1.00781,-0.91621 -1.52811,-1.35558 -0.49915,-0.42023 -1.01618,-0.81827 -1.53946,-1.20778 -0.50021,-0.36917 -1.02001,-0.71078 -1.54537,-1.04281 -0.50331,-0.31976 -1.0235,-0.61144 -1.54723,-0.89606 -0.50142,-0.27065 -1.01549,-0.51646 -1.53513,-0.74985 -0.50523,-0.22585 -1.02261,-0.42416 -1.5427,-0.6129 -0.51808,-0.18976 -1.04449,-0.35481 -1.57309,-0.5123 -0.53955,-0.15729 -1.08233,-0.30448 -1.62848,-0.43712 -0.55352,-0.13938 -1.11177,-0.25757 -1.67037,-0.37432 -0.56281,-0.11269 -1.12896,-0.20613 -1.6953,-0.2988 -0.57324,-0.0863 -1.14754,-0.163473 -1.72302,-0.232921 -0.582444,-0.06952 -1.167851,-0.11675 -1.753246,-0.15364 -0.59036,-0.04591 -1.182058,-0.06483 -1.773754,-0.08269 -0.594397,-0.0068 -1.188781,0.0011 -1.78308,0.01138 -0.595283,0.01492 -1.189643,0.05124 -1.782998,0.100502 -0.596884,0.04631 -1.192786,0.106735 -1.786755,0.181697 -0.594362,0.07162 -1.187286,0.156372 -1.777688,0.255542 -0.584996,0.10532 -1.169196,0.21425 -1.748509,0.34764 -0.576659,0.12257 -1.145548,0.27972 -1.711979,0.44243 -0.56208,0.1689 -1.124251,0.33699 -1.678744,0.52961 -0.558906,0.18225 -1.105998,0.39807 -1.657215,0.60185 -0.553675,0.21045 -1.101339,0.43585 -1.651219,0.65586 -0.552469,0.23311 -1.103728,0.46865 -1.660465,0.69151 -0.569158,0.2258 -1.133977,0.46236 -1.700336,0.69509 -0.576213,0.23361 -1.148678,0.47631 -1.722626,0.71543 -0.587626,0.23665 -1.171027,0.48316 -1.760119,0.71622 -0.605838,0.22958 -1.207421,0.46993 -1.812602,0.70118 -0.616461,0.23229 -1.234186,0.46171 -1.846551,0.70465 -0.622247,0.24729 -1.255943,0.46406 -1.881325,0.70292 -0.638379,0.24101 -1.282528,0.46626 -1.927982,0.68748 -0.661834,0.22628 -1.3277,0.44043 -1.994855,0.65041 -0.339595,0.1067 -0.680331,0.2097 -1.021096,0.3126 0,0 9.686256,-7.49103 9.686256,-7.49103 v 0 c 0.337933,-0.10683 0.675835,-0.21378 1.012467,-0.32468 0.661194,-0.21819 1.320938,-0.44085 1.976234,-0.67626 0.639972,-0.23033 1.277557,-0.46708 1.913969,-0.70706 0.627894,-0.229275 1.250546,-0.472303 1.873777,-0.713886 0.616783,-0.231444 1.231733,-0.467889 1.84559,-0.706959 0.601385,-0.237114 1.20573,-0.466743 1.802392,-0.71569 0.584391,-0.242112 1.169564,-0.482253 1.75296,-0.726731 0.574471,-0.239794 1.151279,-0.473948 1.726806,-0.711176 0.566526,-0.233283 1.135697,-0.460131 1.7018,-0.694441 0.554109,-0.232624 1.107771,-0.466511 1.668952,-0.681739 0.553979,-0.219025 1.111768,-0.42859 1.672775,-0.628922 0.557832,-0.201536 1.120227,-0.389544 1.687354,-0.56333 0.569843,-0.168193 1.139933,-0.336616 1.716521,-0.480404 0.581742,-0.142544 1.165119,-0.276881 1.754143,-0.38653 0.594288,-0.107905 1.189214,-0.213878 1.787882,-0.294806 0.60162,-0.07974 1.203506,-0.157533 1.807736,-0.215252 0.60551,-0.05503 1.21127,-0.107585 1.81859,-0.138602 0.6072,-0.02793 1.2147,-0.04934 1.82267,-0.04638 0.60625,-0.0011 1.21284,0.0042 1.81835,0.03669 0.60155,0.029 1.20234,0.07108 1.80241,0.122338 0.59759,0.05693 1.19488,0.116218 1.78903,0.203221 0.58525,0.08121 1.16976,0.169302 1.75151,0.272799 0.57776,0.10265 1.15416,0.213603 1.72655,0.343225 0.5688,0.127553 1.13552,0.264361 1.69884,0.414446 0.55683,0.153088 1.11348,0.307303 1.66269,0.486305 0.54355,0.177022 1.08338,0.365704 1.61556,0.57469 0.53718,0.214072 1.07209,0.434229 1.59208,0.687928 0.53462,0.25941 1.06444,0.528783 1.58093,0.822983 0.53892,0.306592 1.07167,0.624073 1.58968,0.9651 0.54133,0.357476 1.07731,0.723511 1.59172,1.119187 0.53615,0.41043 1.06516,0.830305 1.57676,1.27117 0.53235,0.459506 1.05732,0.927676 1.56372,1.415826 0.51863,0.50113 1.02957,1.01034 1.52065,1.53868 0.48944,0.52765 0.97182,1.06193 1.44296,1.60603 0.46744,0.54802 0.92478,1.10449 1.36575,1.67413 0.44568,0.57059 0.88119,1.14911 1.2943,1.74388 0.41579,0.59468 0.82852,1.19169 1.21289,1.8074 0.38961,0.61813 0.77628,1.23831 1.13243,1.87658 0.36072,0.64006 0.71685,1.28263 1.052,1.93659 0.33765,0.65993 0.6667,1.32447 0.97577,1.99834 0.30401,0.6697 0.59749,1.34425 0.86616,2.02902 0.26277,0.6766 0.51981,1.35585 0.7325,2.05022 0.21295,0.68284 0.42646,1.36573 0.61372,2.05619 0.18538,0.69243 0.36669,1.38596 0.52513,2.08516 0.15656,0.70211 0.30892,1.40516 0.43727,2.11308 0.13454,0.71594 0.25892,1.43374 0.36292,2.15481 0.10343,0.72759 0.20386,1.45562 0.28513,2.18609 0.0797,0.73834 0.1561,1.47706 0.21251,2.21762 0.0546,0.74905 0.10554,1.49837 0.13611,2.24886 0.0286,0.7563 0.0597,1.51265 0.0656,2.26957 0.009,0.76221 0.007,1.52455 -0.0205,2.28641 -0.0287,0.74624 -0.0712,1.49088 -0.15772,2.23308 -0.0788,0.73047 -0.16321,1.46032 -0.27225,2.18702 -0.10443,0.73025 -0.22076,1.45884 -0.35101,2.18495 -0.13047,0.73349 -0.273,1.46488 -0.4306,2.19305 -0.16507,0.73567 -0.33349,1.47058 -0.52196,2.20069 -0.19395,0.73758 -0.39317,1.47401 -0.61724,2.2031 -0.22405,0.72859 -0.45241,1.45583 -0.7019,2.1762 -0.25487,0.72629 -0.51459,1.45087 -0.79506,2.16776 -0.28059,0.71265 -0.57013,1.42169 -0.8767,2.12362 -0.31243,0.70483 -0.62899,1.40803 -0.96627,2.10138 -0.33866,0.69365 -0.67961,1.38649 -1.05165,2.06303 -0.36555,0.67058 -0.73742,1.33776 -1.12681,1.99485 -0.38563,0.64929 -0.77786,1.29474 -1.18849,1.9286 -0.40692,0.62643 -0.82691,1.24396 -1.24363,1.86387 -0.4189,0.61164 -0.84439,1.21896 -1.29205,1.81003 -0.43294,0.59746 -0.8733,1.18957 -1.33175,1.7678 -0.45697,0.5623 -0.92753,1.11299 -1.39695,1.66489 -0.47216,0.54462 -0.95638,1.07801 -1.44791,1.60516 -0.48356,0.52368 -0.98479,1.03085 -1.50279,1.52057 -0.51557,0.48102 -1.02501,0.96851 -1.54807,1.4414 -0.50863,0.47174 -1.04041,0.91682 -1.57177,1.36258 -0.52234,0.4506 -1.05265,0.89137 -1.6035,1.3069 -0.54304,0.41647 -1.09557,0.82077 -1.65433,1.21586 -0.55171,0.40048 -1.11348,0.78565 -1.6895,1.1505 -3.99543,2.49819 -8.09813,4.81439 -12.21773,7.10788 -0.59214,0.33679 -1.19649,0.6507 -1.80377,0.95923 -0.61066,0.30155 -1.22328,0.59945 -1.8426,0.8828 -0.61589,0.28648 -1.236178,0.56362 -1.866942,0.81603 -0.628817,0.25943 -1.265886,0.49716 -1.90386,0.733 -0.638919,0.23625 -1.283274,0.45852 -1.934361,0.659 -0.658775,0.20168 -1.318895,0.39904 -1.984991,0.57544 -0.67082,0.18037 -1.347192,0.33821 -2.026388,0.48384 -0.685647,0.14107 -1.372172,0.27879 -2.062586,0.3947 -0.695783,0.1157 -1.390838,0.23919 -2.092196,0.31701 -0.697719,0.0822 -1.395891,0.16085 -2.096264,0.21721 -0.688295,0.0509 -1.377477,0.0922 -2.06756,0.10838 -0.674598,0.005 -1.349373,0.007 -2.023735,-0.0148 -0.668168,-0.0199 -1.336278,-0.0499 -2.00248,-0.10618 -0.66688,-0.0593 -1.332831,-0.12807 -1.996408,-0.21774 -0.672799,-0.0971 -1.343843,-0.20733 -2.009492,-0.34579 -0.674947,-0.13813 -1.347682,-0.28743 -2.015038,-0.45885 -0.682114,-0.17511 -1.361347,-0.36155 -2.0346,-0.56837 -0.679768,-0.20729 -1.357601,-0.421 -2.028622,-0.65534 -0.676944,-0.23835 -1.351703,-0.48292 -2.019112,-0.74702 -0.672793,-0.26649 -1.341821,-0.54254 -2.002874,-0.83711 -0.664203,-0.29561 -1.325148,-0.59857 -1.976472,-0.92177 -0.656707,-0.32625 -1.309307,-0.66107 -1.950628,-1.01679 -0.635513,-0.35461 -1.264589,-0.72064 -1.870702,-1.1241 -0.600421,-0.39364 -1.195408,-0.7958 -1.775219,-1.21941 -0.577829,-0.42705 -1.149154,-0.86303 -1.704779,-1.31877 -0.558173,-0.46006 -1.11038,-0.92751 -1.644809,-1.41514 -0.531736,-0.48646 -1.056566,-0.98061 -1.56147,-1.49506 -0.502973,-0.51393 -0.998159,-1.03562 -1.471144,-1.57749 -0.473694,-0.54426 -0.938467,-1.09642 -1.379249,-1.66787 -0.450001,-0.58326 -0.890302,-1.17416 -1.303774,-1.78409 -0.41641,-0.61624 -0.822114,-1.23986 -1.198663,-1.88146 -0.380791,-0.65107 -0.749864,-1.30913 -1.087546,-1.9838 -0.342866,-0.68759 -0.673093,-1.38164 -0.9695,-2.09074 -0.297201,-0.71469 -0.580853,-1.43515 -0.841044,-2.16422 -0.26783,-0.74084 -0.521544,-1.48685 -0.743628,-2.24285 -0.221691,-0.75985 -0.429252,-1.52369 -0.618368,-2.29235 -0.187272,-0.7708 -0.369337,-1.54277 -0.525804,-2.32055 -0.158564,-0.7816 -0.314396,-1.56375 -0.452786,-2.34923 -0.137367,-0.7927 -0.274376,-1.58567 -0.383985,-2.38279 -0.113429,-0.79678 -0.217212,-1.59492 -0.301836,-2.39533 -0.08221,-0.79913 -0.163677,-1.59856 -0.216231,-2.40031 -0.05636,-0.80104 -0.09935,-1.60286 -0.135626,-2.40506 -0.03023,-0.79941 -0.05076,-1.59926 -0.06683,-2.39907 -0.014,-0.79746 -0.03109,-1.59491 -0.03094,-2.39253 0.0043,-0.77935 0.0055,-1.55877 0.02455,-2.33794 0.01561,-0.76522 0.0426,-1.53028 0.07542,-2.29493 0.03482,-0.75574 0.07064,-1.51139 0.122944,-2.26617 0.04819,-0.75039 0.107566,-1.50015 0.174252,-2.24911 0.06839,-0.74149 0.135289,-1.48323 0.216767,-2.22342 0.08083,-0.72721 0.162568,-1.45441 0.262575,-2.17929 0.09613,-0.71709 0.191392,-1.43439 0.306208,-2.14879 0.110583,-0.69508 0.235358,-1.38737 0.380558,-2.07618 0.137126,-0.67067 0.277069,-1.34072 0.436325,-2.00656 0.153122,-0.65568 0.318873,-1.30817 0.495815,-1.95785 0.179547,-0.63716 0.356762,-1.27534 0.567619,-1.90304 0.200451,-0.60988 0.401246,-1.21998 0.628761,-1.82043 0.219766,-0.58286 0.438113,-1.16683 0.690489,-1.73657 0.243117,-0.55425 0.487963,-1.10751 0.77793,-1.63942 0.268118,-0.51346 0.551106,-1.01902 0.846979,-1.51703 0.287613,-0.48033 0.581578,-0.95697 0.893908,-1.42173 0.302887,-0.44913 0.612312,-0.89402 0.941813,-1.32419 0.317482,-0.41156 0.638123,-0.82104 0.972447,-1.21911 0.326483,-0.38171 0.665338,-0.75143 1.013101,-1.11374 0.335584,-0.35668 0.678322,-0.70693 1.042162,-1.03508 0.354049,-0.31628 0.720611,-0.61819 1.085027,-0.92238 0.360026,-0.28386 0.724524,-0.56333 1.107702,-0.8155 3.79291,-2.38444 7.644513,-4.69632 11.64473,-6.71694 0.381206,-0.19594 0.772499,-0.37259 1.167598,-0.53855 0.378471,-0.16555 0.767443,-0.30565 1.153049,-0.45343 0.360781,-0.14432 0.725654,-0.27589 1.097211,-0.3894 0.343337,-0.10571 0.682797,-0.22383 1.024385,-0.33502 0.316061,-0.0985 0.641136,-0.16446 0.956122,-0.26715 0.292825,-0.0796 0.590518,-0.14217 0.889357,-0.19428 0.274619,-0.0545 0.552945,-0.0932 0.832401,-0.11051 0.264451,-0.0212 0.531124,-0.0136 0.795319,0.008 0.247687,0.01 0.491042,0.05 0.735623,0.0887 0.222835,0.0505 0.446202,0.0988 0.666533,0.15973 0.194406,0.061 0.387176,0.1312 0.571725,0.21781 0.163187,0.0879 0.330036,0.17131 0.475023,0.28849 0.144862,0.11941 0.281349,0.24958 0.390845,0.40305 0.128759,0.18634 0.245909,0.38472 0.299228,0.60711 0,0 -10.887705,5.68161 -10.887705,5.68161 z"
       inkscape:connector-curvature="0" />
  </g>
</svg>
