<?xml version="1.0" encoding="UTF-8" standalone="no"?>
<!-- Created with Inkscape (http://www.inkscape.org/) -->

<svg
   xmlns:dc="http://purl.org/dc/elements/1.1/"
   xmlns:cc="http://creativecommons.org/ns#"
   xmlns:rdf="http://www.w3.org/1999/02/22-rdf-syntax-ns#"
   xmlns:svg="http://www.w3.org/2000/svg"
   xmlns="http://www.w3.org/2000/svg"
   xmlns:sodipodi="http://sodipodi.sourceforge.net/DTD/sodipodi-0.dtd"
   xmlns:inkscape="http://www.inkscape.org/namespaces/inkscape"
   width="210mm"
   height="297mm"
   viewBox="0 0 210 297"
   version="1.1"
   id="svg198"
   inkscape:version="0.92.3 (2405546, 2018-03-11)"
   sodipodi:docname="j-small.svg">
  <defs
     id="defs192" />
  <sodipodi:namedview
     id="base"
     pagecolor="#ffffff"
     bordercolor="#666666"
     borderopacity="1.0"
     inkscape:pageopacity="0.0"
     inkscape:pageshadow="2"
     inkscape:zoom="0.35"
     inkscape:cx="350"
     inkscape:cy="560"
     inkscape:document-units="mm"
     inkscape:current-layer="layer1"
     showgrid="false"
     inkscape:window-width="2217"
     inkscape:window-height="2158"
     inkscape:window-x="0"
     inkscape:window-y="0"
     inkscape:window-maximized="0" />
  <metadata
     id="metadata195">
    <rdf:RDF>
      <cc:Work
         rdf:about="">
        <dc:format>image/svg+xml</dc:format>
        <dc:type
           rdf:resource="http://purl.org/dc/dcmitype/StillImage" />
        <dc:title></dc:title>
      </cc:Work>
    </rdf:RDF>
  </metadata>
  <g
     inkscape:label="Layer 1"
     inkscape:groupmode="layer"
     id="layer1">
    <path
       style="opacity:1;fill:#ff0000;fill-opacity:1;stroke:none;stroke-width:0.30000001;stroke-linejoin:round;stroke-miterlimit:4;stroke-dasharray:none;stroke-dashoffset:0;stroke-opacity:1"
       id="path200"
       d="m 24.642973,216.8516 c 0.122175,0.16814 0.248085,0.33343 0.373918,0.49881 0.120582,0.1527 0.240011,0.30635 0.36356,0.45667 0.146128,0.17918 0.294075,0.35691 0.444191,0.53277 0.169113,0.20058 0.343996,0.39622 0.517145,0.59332 0.19178,0.22081 0.383923,0.44132 0.578257,0.65989 0.212508,0.24089 0.425574,0.48132 0.640712,0.71987 0.230204,0.26247 0.461603,0.52383 0.696685,0.78196 0.254141,0.27966 0.505778,0.56159 0.765067,0.8365 0.275855,0.2995 0.565579,0.58569 0.856025,0.8709 0.311274,0.29953 0.628176,0.59313 0.952061,0.87897 0.344093,0.30106 0.694078,0.59499 1.051671,0.87987 0.378997,0.30071 0.772948,0.58161 1.171326,0.85585 0.4151,0.28503 0.844518,0.54817 1.277258,0.80532 0.452913,0.26838 0.91595,0.51885 1.383479,0.76066 0.486781,0.25033 0.982023,0.48356 1.479587,0.71152 0.525529,0.23994 1.057818,0.46453 1.592096,0.68415 0.547153,0.22297 1.102477,0.42497 1.660829,0.61788 0.565613,0.19571 1.138415,0.36934 1.712101,0.53954 0.578008,0.17145 1.162838,0.31776 1.750322,0.45261 0.599085,0.13671 1.203325,0.24829 1.80989,0.34576 0.62275,0.0973 1.248902,0.16943 1.875636,0.23513 0.631315,0.0642 1.264076,0.10987 1.89755,0.14573 0.638011,0.0319 1.276514,0.0514 1.915242,0.06 0.649626,0.004 1.29922,-0.01 1.9485,-0.0298 0.65859,-0.0197 1.316468,-0.0574 1.973638,-0.1042 0.661371,-0.0518 1.32166,-0.11481 1.980187,-0.19501 0.668059,-0.0806 1.333002,-0.18405 1.998088,-0.28568 0.67252,-0.10802 1.343483,-0.22614 2.012008,-0.35664 0.674267,-0.12919 1.343924,-0.28013 2.012191,-0.43698 0.677896,-0.1621 1.351634,-0.34107 2.023411,-0.52674 0.67433,-0.19175 1.343192,-0.40221 2.01,-0.6185 0.676513,-0.21246 1.342435,-0.45594 2.007137,-0.70228 0.675693,-0.25058 1.341078,-0.52755 2.00411,-0.80958 0.668079,-0.28534 1.328301,-0.58795 1.981441,-0.90587 0.660979,-0.31677 1.309664,-0.65803 1.954146,-1.00686 0.739127,-0.39532 1.166228,-0.66913 1.537642,-0.89536 0.668512,-0.40767 1.316982,-0.84657 1.957044,-1.2972 0.617847,-0.43752 1.216096,-0.90169 1.813266,-1.36676 0.603488,-0.46932 1.188545,-0.96144 1.76579,-1.46247 0.583186,-0.50759 1.146103,-1.03762 1.701374,-1.57538 0.562205,-0.54594 1.103987,-1.1122 1.638178,-1.6854 0.541814,-0.58284 1.063299,-1.18398 1.577308,-1.79134 0.522039,-0.61831 1.024025,-1.25305 1.518695,-1.89335 0.502886,-0.65239 0.986131,-1.3195 1.462262,-1.99156 0.484349,-0.68515 0.949579,-1.38344 1.407925,-2.08614 0.462708,-0.71773 0.915188,-1.44203 1.365409,-2.16763 0.457774,-0.73773 0.898382,-1.48585 1.332335,-2.23777 0.441545,-0.76653 0.865614,-1.54288 1.283431,-2.32254 0.425116,-0.79476 0.833429,-1.5983 1.235744,-2.40479 0.4108,-0.82898 0.802984,-1.66697 1.189897,-2.50732 0.393899,-0.85787 0.773835,-1.72204 1.145641,-2.58969 0.377706,-0.89306 0.750043,-1.78839 1.117331,-2.68578 0.37399,-0.91455 0.73419,-1.83461 1.08929,-2.75662 0.36031,-0.93696 0.70712,-1.87899 1.04912,-2.82276 0.34891,-0.95666 0.67854,-1.92006 1.00024,-2.88615 0.32507,-0.97936 0.63737,-1.96288 0.94549,-2.94768 0.31226,-0.9995 0.61306,-2.00252 0.90976,-3.00673 0.30057,-1.01871 0.59021,-2.04059 0.87595,-3.06354 0.28932,-1.0372 0.56823,-2.07724 0.84341,-3.11826 0.2833,-1.05727 0.54222,-2.12076 0.79783,-3.18499 0.25899,-1.08122 0.50841,-2.1647 0.75464,-3.24889 0.24892,-1.0975 0.48916,-2.19692 0.72629,-3.29702 0.24126,-1.11742 0.47175,-2.23712 0.69935,-3.35739 0.23064,-1.13698 0.45339,-2.27553 0.67332,-3.41462 0.2231,-1.1542 0.43737,-2.31007 0.64833,-3.46654 0.21374,-1.17359 0.42025,-2.34847 0.62422,-3.52379 0.20567,-1.18643 0.40457,-2.374 0.60103,-3.56198 0.19798,-1.19857 0.38951,-2.39818 0.57869,-3.59816 0.19059,-1.21025 0.37501,-2.42146 0.5572,-3.633 0.18347,-1.2215 0.36105,-2.44387 0.53649,-3.66654 0.17663,-1.23232 0.34762,-2.46544 0.51656,-3.69883 0.17003,-1.24274 0.33468,-2.48621 0.49737,-3.72993 0.16403,-1.25468 0.32285,-2.51004 0.4789,-3.76574 0.15768,-1.27131 0.31027,-2.54324 0.4611,-3.81538 0.15168,-1.28146 0.29911,-2.56341 0.44398,-3.84565 0.14623,-1.29783 0.28763,-2.59619 0.42748,-3.89471 0.14056,-1.30659 0.27685,-2.61363 0.41159,-3.92082 0.13532,-1.31425 0.26655,-2.6289 0.39629,-3.94371 0.13243,-1.31769 0.25443,-2.63637 0.37165,-3.955493 0.11664,-1.319633 0.22905,-2.639634 0.34028,-3.959733 0.11167,-1.326642 0.21997,-2.653562 0.32705,-3.980579 0.10797,-1.331333 0.21257,-2.662918 0.30907,-3.995132 0.0953,-1.331216 0.18632,-2.662737 0.27651,-3.994309 0.0938,-1.33705 0.17272,-2.675064 0.25078,-4.01311 0.0781,-1.344117 0.1534,-2.688394 0.22796,-4.032713 0.0705,-1.342313 0.13307,-2.685031 0.19581,-4.027725 0.0628,-1.347356 0.1237,-2.694802 0.1839,-4.042275 0.0611,-1.353291 0.12021,-2.706653 0.17118,-4.060362 0.0508,-1.350735 0.087,-2.701973 0.12492,-4.053115 0.0324,-1.334929 0.0619,-2.669947 0.0843,-4.005083 0.02,-1.319768 0.0363,-2.639586 0.053,-3.959399 0.008,-0.876583 0.004,-0.438383 0.0106,-1.314598 0,0 0.67147,-0.341538 0.67147,-0.341538 v 0 c -0.006,0.876425 -0.003,0.4381 -0.0104,1.314974 -0.0166,1.319906 -0.033,2.63982 -0.0528,3.959683 -0.0222,1.335397 -0.0519,2.670667 -0.0839,4.005863 -0.0379,1.351357 -0.074,2.702809 -0.12463,4.053763 -0.0508,1.35387 -0.10973,2.707391 -0.17092,4.060833 -0.0602,1.347518 -0.12102,2.695006 -0.18382,4.042407 -0.0627,1.342888 -0.12527,2.685796 -0.19553,4.028316 -0.0745,1.34438 -0.14984,2.688717 -0.22784,4.032901 -0.078,1.338249 -0.15662,2.67648 -0.25046,4.013734 -0.0902,1.331675 -0.18114,2.663293 -0.27635,3.994618 -0.0964,1.332402 -0.20077,2.664177 -0.30879,3.995688 -0.10704,1.327094 -0.2153,2.654093 -0.32692,3.980812 -0.11119,1.320197 -0.22356,2.640298 -0.34012,3.960034 -0.11712,1.319345 -0.23883,2.638248 -0.37132,3.956158 -0.12969,1.3149 -0.26087,2.62965 -0.39614,3.94399 -0.13468,1.30729 -0.27092,2.61443 -0.41142,3.92112 -0.13979,1.29864 -0.28115,2.59711 -0.42729,3.89505 -0.14476,1.28237 -0.29217,2.56444 -0.44376,3.84601 -0.15078,1.27227 -0.3033,2.54432 -0.4609,3.81576 -0.15596,1.25584 -0.31468,2.51134 -0.47866,3.76616 -0.16262,1.24385 -0.32719,2.48745 -0.49715,3.73033 -0.16887,1.23353 -0.33979,2.46679 -0.51633,3.69925 -0.17536,1.22282 -0.35286,2.44534 -0.53625,3.66699 -0.1821,1.21169 -0.36644,2.42306 -0.55694,3.63347 -0.1891,1.20015 -0.38054,2.39993 -0.57843,3.59866 -0.19637,1.18815 -0.39518,2.37591 -0.60074,3.5625 -0.20388,1.17551 -0.4103,2.35059 -0.62391,3.52437 -0.21086,1.15669 -0.42494,2.3128 -0.64796,3.46722 -0.21983,1.1393 -0.44246,2.27807 -0.67299,3.41526 -0.22748,1.12053 -0.45777,2.2405 -0.69891,3.35819 -0.23701,1.10033 -0.47713,2.20001 -0.72592,3.29775 -0.2461,1.08446 -0.49539,2.16821 -0.75421,3.24971 -0.25545,1.06471 -0.51382,2.12879 -0.79705,3.18653 -0.27503,1.04132 -0.55378,2.08168 -0.84292,3.11919 -0.28558,1.02328 -0.57506,2.04549 -0.87544,3.06454 -0.29654,1.00457 -0.59716,2.00794 -0.90923,3.0078 -0.30794,0.9852 -0.62007,1.96912 -0.94488,2.94891 -0.32144,0.96667 -0.65045,1.93077 -0.99938,2.88793 -0.34178,0.94421 -0.68838,1.88669 -1.04845,2.82411 -0.35488,0.92247 -0.71484,1.84301 -1.0886,2.75803 -0.36707,0.89778 -0.73955,1.79333 -1.116781,2.68688 -0.371356,0.86831 -0.751186,1.73301 -1.144762,2.5915 -0.386665,0.841 -0.778645,1.67963 -1.188879,2.50944 -0.402021,0.80714 -0.810027,1.61134 -1.234813,2.40678 -0.417496,0.78036 -0.84124,1.55742 -1.28243,2.32469 -0.433604,0.75265 -0.873834,1.50153 -1.331328,2.23996 -0.449963,0.72613 -0.902845,1.45054 -1.364704,2.16917 -0.457965,0.70356 -0.922806,1.40272 -1.406737,2.08878 -0.475729,0.67298 -0.958559,1.34103 -1.460998,1.99442 -0.494241,0.64128 -0.995783,1.27704 -1.517353,1.89643 -0.513548,0.60841 -1.034563,1.21065 -1.575888,1.79465 -0.533699,0.57434 -1.074983,1.14176 -1.636675,1.68894 -0.554749,0.53899 -1.117142,1.07027 -1.6998,1.57919 -0.576678,0.50229 -1.161129,0.99577 -1.764268,1.46621 -0.596921,0.46589 -1.195014,0.93077 -1.81193,1.3701 -0.639519,0.45222 -1.287391,0.89286 -1.955551,1.30201 -0.930154,0.56831 -1.874306,1.11386 -2.828671,1.64046 -0.645195,0.34801 -1.294884,0.68778 -1.956221,1.00433 -0.654121,0.31655 -1.315159,0.61816 -1.983811,0.90288 -0.663771,0.28117 -1.329823,0.55738 -2.006307,0.80682 -0.665189,0.24606 -1.332282,0.48719 -2.009087,0.69981 -0.667506,0.2154 -1.33677,0.42593 -2.012034,0.61587 -0.672433,0.18475 -1.346594,0.36364 -2.025208,0.52443 -0.668788,0.15644 -1.33925,0.30567 -2.013953,0.43468 -0.66924,0.1292 -1.340625,0.24759 -2.013836,0.35423 -0.665486,0.10161 -1.330984,0.204 -1.999536,0.28378 -0.659336,0.0787 -1.320345,0.14129 -1.982436,0.192 -0.657809,0.0457 -1.316259,0.0828 -1.975437,0.10177 -0.649962,0.019 -1.300215,0.0327 -1.950495,0.0271 -0.639363,-0.01 -1.278533,-0.0294 -1.917142,-0.0626 -0.634193,-0.0367 -1.267655,-0.0837 -1.89965,-0.14867 -0.627599,-0.0665 -1.254569,-0.13989 -1.878057,-0.23853 -0.607558,-0.0988 -1.212744,-0.21204 -1.812798,-0.34984 -0.588352,-0.13631 -1.174076,-0.28387 -1.752968,-0.45648 -0.574405,-0.17091 -1.147802,-0.34562 -1.714021,-0.54231 -0.559125,-0.19424 -1.11537,-0.3971 -1.663229,-0.62145 -0.534874,-0.22039 -1.067745,-0.44579 -1.593808,-0.6866 -0.498287,-0.22889 -0.994238,-0.46307 -1.481624,-0.71452 -0.46835,-0.24306 -0.93218,-0.49483 -1.385935,-0.76435 -0.433729,-0.25847 -0.864058,-0.52304 -1.280009,-0.80954 -0.399378,-0.27568 -0.794293,-0.55806 -1.174189,-0.86027 -0.35818,-0.28607 -0.708898,-0.58102 -1.05373,-0.88307 -0.324509,-0.28707 -0.642345,-0.58157 -0.954206,-0.88234 -0.29095,-0.28606 -0.581123,-0.57312 -0.857584,-0.87336 -0.25931,-0.27548 -0.511334,-0.55764 -0.765797,-0.83758 -0.235003,-0.25837 -0.466407,-0.51988 -0.696923,-0.78225 -0.215109,-0.23881 -0.428416,-0.47926 -0.641037,-0.72029 -0.194276,-0.21883 -0.386636,-0.43935 -0.578539,-0.66025 -0.173273,-0.19748 -0.348609,-0.3932 -0.517761,-0.59422 -0.150232,-0.17639 -0.298616,-0.35437 -0.444985,-0.53397 -0.123862,-0.15124 -0.244161,-0.30535 -0.365024,-0.45899 -0.126249,-0.16569 -0.252101,-0.33164 -0.374267,-0.50039 0,0 0.649861,-0.38451 0.649861,-0.38451 z"
       inkscape:connector-curvature="0" />
  </g>
</svg>
