<?xml version="1.0" encoding="UTF-8" standalone="no"?>
<!-- Created with Inkscape (http://www.inkscape.org/) -->

<svg
   xmlns:dc="http://purl.org/dc/elements/1.1/"
   xmlns:cc="http://creativecommons.org/ns#"
   xmlns:rdf="http://www.w3.org/1999/02/22-rdf-syntax-ns#"
   xmlns:svg="http://www.w3.org/2000/svg"
   xmlns="http://www.w3.org/2000/svg"
   xmlns:sodipodi="http://sodipodi.sourceforge.net/DTD/sodipodi-0.dtd"
   xmlns:inkscape="http://www.inkscape.org/namespaces/inkscape"
   width="500"
   height="500"
   viewBox="0 0 132.29166 132.29167"
   version="1.1"
   id="svg66"
   inkscape:version="0.92.3 (2405546, 2018-03-11)"
   sodipodi:docname="j.svg">
  <defs
     id="defs60" />
  <sodipodi:namedview
     id="base"
     pagecolor="#ffffff"
     bordercolor="#666666"
     borderopacity="1.0"
     inkscape:pageopacity="0.0"
     inkscape:pageshadow="2"
     inkscape:zoom="1.4"
     inkscape:cx="-14.27819"
     inkscape:cy="296.21769"
     inkscape:document-units="mm"
     inkscape:current-layer="layer1"
     showgrid="false"
     units="px"
     inkscape:window-width="2217"
     inkscape:window-height="2158"
     inkscape:window-x="0"
     inkscape:window-y="0"
     inkscape:window-maximized="0" />
  <metadata
     id="metadata63">
    <rdf:RDF>
      <cc:Work
         rdf:about="">
        <dc:format>image/svg+xml</dc:format>
        <dc:type
           rdf:resource="http://purl.org/dc/dcmitype/StillImage" />
        <dc:title></dc:title>
      </cc:Work>
    </rdf:RDF>
  </metadata>
  <g
     inkscape:label="Layer 1"
     inkscape:groupmode="layer"
     id="layer1"
     transform="translate(0,-164.70832)">
    <path
       style="opacity:1;fill:#ff0000;fill-opacity:1;stroke:none;stroke-width:0.30000001;stroke-linejoin:round;stroke-miterlimit:4;stroke-dasharray:none;stroke-dashoffset:0;stroke-opacity:1"
       id="path70"
       d="m 43.049524,251.87917 c 0.02678,0.0462 0.05309,0.0927 0.07754,0.14017 0.02349,0.0457 0.04646,0.0917 0.06939,0.13772 0.0291,0.0568 0.05727,0.11413 0.08463,0.17184 0.03104,0.0662 0.06122,0.13287 0.09346,0.19855 0.03737,0.0749 0.07558,0.1494 0.113951,0.2238 0.04117,0.0803 0.08387,0.15979 0.127611,0.2387 0.0471,0.0861 0.09492,0.17178 0.1431,0.25728 0.05124,0.0893 0.102942,0.17832 0.156319,0.26636 0.05713,0.0945 0.115538,0.18818 0.174963,0.28123 0.06235,0.0982 0.125704,0.19572 0.19009,0.29258 0.06621,0.10168 0.135215,0.20147 0.204494,0.30108 0.07196,0.10302 0.145989,0.20454 0.221165,0.30523 0.07797,0.10578 0.161928,0.20689 0.244854,0.30876 0.08688,0.10607 0.177815,0.20872 0.270578,0.30965 0.09609,0.10419 0.197403,0.20332 0.300403,0.3006 0.106987,0.10067 0.218546,0.19626 0.331547,0.29006 0.115969,0.0962 0.236326,0.18688 0.357851,0.27588 0.121817,0.089 0.24837,0.17114 0.376539,0.25057 0.132713,0.0773 0.267907,0.15007 0.404744,0.21973 0.138311,0.0701 0.278971,0.13554 0.421571,0.19643 0.14441,0.063 0.292775,0.11511 0.44237,0.16403 0.153025,0.0484 0.307565,0.0917 0.462474,0.13365 0.157109,0.0427 0.315655,0.0798 0.474445,0.11567 0.160549,0.0359 0.322681,0.0635 0.484947,0.0902 0.167349,0.0269 0.336074,0.0425 0.504592,0.0598 0.17127,0.0147 0.342876,0.0255 0.514625,0.0326 0.173445,0.008 0.347038,0.0111 0.520624,0.0139 0.178797,4e-5 0.357637,-8e-4 0.536379,-0.005 0.180668,-0.002 0.360817,-0.0171 0.541099,-0.0278 0.183489,-0.009 0.366215,-0.0272 0.548973,-0.045 0.184815,-0.0174 0.369219,-0.0387 0.553596,-0.0602 0.185362,-0.0249 0.370396,-0.0523 0.555443,-0.0795 0.186991,-0.03 0.373284,-0.0639 0.558501,-0.1034 0.189454,-0.0374 0.377396,-0.0816 0.565515,-0.12509 0.191735,-0.0446 0.381206,-0.0979 0.570579,-0.15151 0.191865,-0.0567 0.382365,-0.11791 0.573839,-0.17594 0.193511,-0.0613 0.386919,-0.12286 0.578985,-0.18857 0.195987,-0.0651 0.390038,-0.13604 0.583184,-0.20913 0.194762,-0.0746 0.38826,-0.15245 0.582178,-0.22923 0.194064,-0.0784 0.385239,-0.16356 0.577094,-0.24714 0.192791,-0.0829 0.381275,-0.17501 0.570825,-0.26492 0.189256,-0.0913 0.37542,-0.18867 0.562467,-0.28434 0.186039,-0.10104 0.372899,-0.2007 0.55708,-0.30514 1.666981,-0.96327 -4.185065,2.43562 -2.673477,1.54191 0.185471,-0.10754 0.367888,-0.22025 0.548294,-0.33606 0.182623,-0.11468 0.361429,-0.23521 0.54016,-0.35582 0.181115,-0.12257 0.35814,-0.25101 0.535072,-0.3795 0.180758,-0.13104 0.356613,-0.26857 0.532448,-0.40608 0.177077,-0.1385 0.350845,-0.28117 0.524457,-0.42397 0.175008,-0.14527 0.343818,-0.29774 0.511892,-0.45091 0.168846,-0.15614 0.335904,-0.31423 0.501179,-0.47415 0.165504,-0.1616 0.327337,-0.32693 0.488603,-0.49275 0.161732,-0.16812 0.320995,-0.33858 0.479592,-0.50965 0.160795,-0.17364 0.317889,-0.35067 0.473723,-0.52876 0.157356,-0.17998 0.309816,-0.36414 0.460378,-0.54982 0.151069,-0.18815 0.29878,-0.37898 0.446018,-0.57014 0.148278,-0.19248 0.291899,-0.38847 0.433668,-0.58578 0.142163,-0.20099 0.28398,-0.40225 0.422135,-0.60602 0.140351,-0.20813 0.275516,-0.41966 0.409041,-0.63221 0.135855,-0.2163 0.265303,-0.43652 0.395761,-0.65609 0.132818,-0.22266 0.260765,-0.44814 0.38809,-0.67397 0.130144,-0.23011 0.255432,-0.46289 0.378699,-0.69674 0.12555,-0.23799 0.24611,-0.47854 0.364791,-0.72001 0.119502,-0.24476 0.238721,-0.48965 0.355875,-0.73554 0.118883,-0.2494 0.232664,-0.50118 0.345221,-0.75349 0.116062,-0.25688 0.227952,-0.5156 0.339709,-0.77438 0.115403,-0.27318 0.230476,-0.54651 0.342458,-0.82112 0.11616,-0.28544 0.229145,-0.57215 0.340386,-0.85954 0.113697,-0.29423 0.222322,-0.59037 0.329304,-0.8871 0.108833,-0.30262 0.213674,-0.60667 0.316917,-0.91124 0.103765,-0.30816 0.204806,-0.61724 0.306708,-0.92602 0.101346,-0.31043 0.203409,-0.62062 0.304192,-0.93124 0.09984,-0.31079 0.200556,-0.62131 0.299981,-0.93224 0.09845,-0.31097 0.19779,-0.62165 0.295863,-0.93273 0.0971,-0.31113 0.195125,-0.62196 0.291891,-0.93319 0.09716,-0.3123 0.191463,-0.62548 0.284239,-0.9391 0.09404,-0.31781 0.18446,-0.63666 0.27386,-0.95579 0.08967,-0.32638 0.17994,-0.6526 0.269991,-0.97887 0.09018,-0.33015 0.180382,-0.6603 0.270505,-0.99046 0.09118,-0.33006 0.181369,-0.66037 0.270348,-0.99102 0.08805,-0.33074 0.177266,-0.66117 0.265335,-0.99191 0.08703,-0.33019 0.175318,-0.66006 0.262456,-0.99022 0.08666,-0.331 0.173837,-0.66186 0.259903,-0.99301 0.08647,-0.33347 0.170667,-0.66751 0.255254,-1.00146 0.08534,-0.33916 0.169926,-0.67852 0.253863,-1.01803 0.08404,-0.34672 0.169269,-0.69314 0.25468,-1.03952 0.08587,-0.34975 0.17205,-0.69942 0.256976,-1.04941 0.0858,-0.35256 0.16782,-0.70602 0.25133,-1.05913 0.08418,-0.35246 0.169318,-0.70469 0.252852,-1.0573 0.08224,-0.3543 0.167013,-0.70799 0.25178,-1.06168 0.08502,-0.35304 0.170569,-0.70595 0.255519,-1.059 0.08559,-0.35097 0.170027,-0.70222 0.254111,-1.05356 0.0848,-0.34961 0.168426,-0.69951 0.251712,-1.04949 0.08391,-0.34831 0.167068,-0.69679 0.249129,-1.04554 0.081,-0.34847 0.162448,-0.69683 0.243755,-1.04523 0.08119,-0.34762 0.160345,-0.69571 0.238651,-1.044 0.07805,-0.34764 0.153969,-0.69574 0.229608,-1.04391 0.07439,-0.34475 0.149202,-0.68939 0.225478,-1.03373 0.07634,-0.34766 0.153435,-0.69516 0.231797,-1.04237 0.07908,-0.34761 0.155619,-0.69579 0.233187,-1.04374 0.07805,-0.3506 0.157036,-0.701 0.234781,-1.05166 0.0785,-0.35306 0.154046,-0.70675 0.229468,-1.06047 0.07687,-0.35558 0.155279,-0.71083 0.234878,-1.06581 0.08166,-0.35514 0.164254,-0.71005 0.245121,-1.06537 0.08015,-0.35633 0.15989,-0.71275 0.241824,-1.06868 0.08154,-0.35449 0.163377,-0.70892 0.245737,-1.06322 0.08312,-0.35212 0.164846,-0.70457 0.24778,-1.05673 0.08303,-0.35048 0.164584,-0.7013 0.245178,-1.05235 0.0805,-0.35007 0.161777,-0.69996 0.241755,-1.05015 0.07887,-0.34957 0.158266,-0.69902 0.237533,-1.0485 0.07868,-0.34721 0.155681,-0.69479 0.232407,-1.04243 0.07499,-0.34218 0.149815,-0.6844 0.225716,-1.02638 0.0749,-0.33674 0.148746,-0.67372 0.222502,-1.01071 0.01233,-0.0558 0.02469,-0.11166 0.03702,-0.16749 0,0 3.392152,-1.63622 3.392152,-1.63622 v 0 c -0.01238,0.0558 -0.02477,0.11151 -0.03715,0.16727 -0.0751,0.33682 -0.147172,0.67431 -0.222546,1.01107 -0.07574,0.34191 -0.152189,0.68365 -0.226193,1.02594 -0.07644,0.34832 -0.153506,0.6965 -0.23159,1.04446 -0.07886,0.34971 -0.159334,0.69905 -0.237376,1.04894 -0.07939,0.35045 -0.159692,0.70068 -0.241628,1.05055 -0.08008,0.35186 -0.161023,0.70353 -0.244051,1.05471 -0.08319,0.35199 -0.16518,0.70425 -0.248066,1.05631 -0.08369,0.35366 -0.164896,0.70789 -0.246322,1.06207 -0.08233,0.35543 -0.164168,0.71096 -0.242604,1.06727 -0.08011,0.35568 -0.16151,0.71107 -0.244729,1.06604 -0.08225,0.35305 -0.158152,0.70753 -0.236942,1.06136 -0.07668,0.354 -0.150075,0.70872 -0.228484,1.06235 -0.07719,0.35098 -0.155731,0.70166 -0.234318,1.05233 -0.0777,0.3482 -0.154529,0.6966 -0.232592,1.04473 -0.07863,0.34661 -0.15689,0.69331 -0.232696,1.04055 -0.07561,0.34418 -0.152987,0.68796 -0.225891,1.03273 -0.076,0.34872 -0.151267,0.69761 -0.228774,1.046 -0.07782,0.34923 -0.156462,0.69829 -0.237268,1.04684 -0.08088,0.34867 -0.163417,0.69694 -0.243554,1.04577 -0.0815,0.3494 -0.163904,0.6986 -0.248298,1.04732 -0.08452,0.34982 -0.165963,0.70038 -0.251556,1.04995 -0.08532,0.35118 -0.167563,0.70309 -0.253963,1.054 -0.08611,0.35248 -0.169214,0.70568 -0.256119,1.05796 -0.08431,0.3535 -0.170934,0.70643 -0.25223,1.06064 -0.08288,0.35285 -0.166539,0.70552 -0.252698,1.0576 -0.08382,0.35348 -0.166232,0.70729 -0.250542,1.06065 -0.08434,0.3505 -0.170066,0.70066 -0.256207,1.05072 -0.08496,0.34646 -0.172265,0.69234 -0.254418,1.03948 -0.08338,0.34021 -0.168298,0.68003 -0.252674,1.01999 -0.08425,0.33458 -0.168992,0.66903 -0.254188,1.00337 -0.08543,0.33168 -0.1725,0.66292 -0.259236,0.99426 -0.08648,0.33057 -0.174831,0.66064 -0.262131,0.99099 -0.08741,0.33116 -0.176696,0.66182 -0.264961,0.99276 -0.08832,0.33148 -0.177623,0.66269 -0.269251,0.99327 -0.09131,0.32981 -0.180774,0.66014 -0.270505,0.99039 -0.08932,0.32668 -0.181189,0.65265 -0.269282,0.97967 -0.08829,0.32086 -0.178292,0.64126 -0.271267,0.9608 -0.09201,0.3152 -0.185044,0.63011 -0.281842,0.94388 -0.09596,0.31186 -0.193963,0.62308 -0.291269,0.93452 -0.09725,0.31174 -0.19657,0.62282 -0.295217,0.93412 -0.0986,0.31161 -0.199273,0.62255 -0.299312,0.93369 -0.09995,0.31133 -0.201989,0.62197 -0.303419,0.93282 -0.100933,0.3098 -0.203978,0.61892 -0.305448,0.92855 -0.10227,0.30667 -0.20618,0.61279 -0.313656,0.91768 -0.106119,0.29903 -0.213125,0.59776 -0.325562,0.89448 -0.109561,0.2896 -0.221337,0.57837 -0.337227,0.8655 -0.110387,0.27675 -0.223925,0.55215 -0.339119,0.82693 -0.108916,0.26159 -0.221671,0.5216 -0.336431,0.78068 -0.113369,0.25378 -0.224788,0.50843 -0.341752,0.76059 -0.115684,0.2476 -0.232796,0.49453 -0.35402,0.73947 -0.11747,0.24445 -0.23595,0.48844 -0.360302,0.72948 -0.121952,0.23697 -0.244935,0.47344 -0.374068,0.7066 -0.126172,0.22837 -0.253555,0.4561 -0.384336,0.68186 -0.129567,0.22194 -0.261136,0.44271 -0.392195,0.66377 -0.132035,0.21607 -0.265771,0.43111 -0.404037,0.64326 -0.135573,0.20779 -0.274447,0.41323 -0.417629,0.61586 -0.140036,0.20115 -0.281847,0.40108 -0.428527,0.59745 -0.145436,0.19432 -0.294161,0.38609 -0.442484,0.5782 -0.148693,0.18992 -0.299233,0.37842 -0.454771,0.5628 -0.153829,0.18199 -0.310256,0.36174 -0.469104,0.53937 -0.15704,0.17396 -0.31615,0.346 -0.476385,0.51702 -0.159186,0.16982 -0.321712,0.33637 -0.484338,0.50288 -0.162896,0.16433 -0.328724,0.32557 -0.49684,0.48455 -0.166153,0.15789 -0.334475,0.31353 -0.505571,0.46606 -0.169532,0.14972 -0.344808,0.29258 -0.519427,0.43628 -0.174702,0.14062 -0.350253,0.28021 -0.527955,0.41703 -0.174794,0.13302 -0.3522,0.26255 -0.530191,0.39125 -0.176532,0.12535 -0.355404,0.24744 -0.535551,0.36752 -0.180721,0.11681 -0.359725,0.23635 -0.543351,0.34859 -1.248748,0.747 -2.506204,1.48031 -3.781226,2.18158 -0.187423,0.10021 -0.374124,0.20186 -0.56497,0.29546 -0.18827,0.0951 -0.378262,0.18685 -0.569812,0.27517 -0.191096,0.0889 -0.384509,0.17265 -0.578239,0.2556 -0.193397,0.0827 -0.388361,0.16183 -0.584565,0.23767 -0.195022,0.0766 -0.390816,0.15127 -0.588127,0.22175 -0.196022,0.0691 -0.392649,0.13631 -0.590544,0.19983 -0.194424,0.0618 -0.388975,0.12333 -0.584452,0.18177 -0.192672,0.059 -0.385754,0.11679 -0.58099,0.16677 -0.192622,0.05 -0.385887,0.0973 -0.580573,0.13871 -0.190246,0.0418 -0.381299,0.08 -0.572751,0.11586 -0.18931,0.0328 -0.37899,0.0637 -0.569479,0.0889 -0.187161,0.0262 -0.374512,0.0514 -0.562586,0.0701 -0.186013,0.0199 -0.372235,0.0379 -0.558655,0.0535 -0.185274,0.015 -0.370882,0.0252 -0.556498,0.0349 -0.183401,0.009 -0.36689,0.0149 -0.550558,0.015 -0.181557,1.2e-4 -0.363156,0.001 -0.544634,-0.006 -0.17621,-0.005 -0.352378,-0.0127 -0.528286,-0.0244 -0.17577,-0.0129 -0.351549,-0.0266 -0.526417,-0.0491 -0.173665,-0.0209 -0.346777,-0.0463 -0.518581,-0.0795 -0.166698,-0.0315 -0.332661,-0.0669 -0.497351,-0.1077 -0.162023,-0.0399 -0.323466,-0.0822 -0.483674,-0.12895 -0.159721,-0.0468 -0.318989,-0.0956 -0.47539,-0.15266 -0.155871,-0.0577 -0.309483,-0.12138 -0.460491,-0.19082 -0.146601,-0.0687 -0.292413,-0.13918 -0.434825,-0.2163 -0.143049,-0.0778 -0.285525,-0.15699 -0.421893,-0.24612 -0.133081,-0.0873 -0.264626,-0.17701 -0.39128,-0.27351 -0.125756,-0.0953 -0.250007,-0.19255 -0.370001,-0.29504 -0.117419,-0.10049 -0.233291,-0.20283 -0.344363,-0.31036 -0.107675,-0.10461 -0.21354,-0.21112 -0.3141,-0.32265 -0.09621,-0.1069 -0.190897,-0.21519 -0.281334,-0.32704 -0.08654,-0.10611 -0.172572,-0.21267 -0.253696,-0.32301 -0.07711,-0.10415 -0.15336,-0.20891 -0.227335,-0.31531 -0.07094,-0.10188 -0.140886,-0.20444 -0.208952,-0.30827 -0.06543,-0.0989 -0.130178,-0.19824 -0.193718,-0.29835 -0.06082,-0.0956 -0.12089,-0.19162 -0.179501,-0.28856 -0.05534,-0.0914 -0.109241,-0.1837 -0.16243,-0.27639 -0.04865,-0.0862 -0.09701,-0.17246 -0.144539,-0.25924 -0.04567,-0.082 -0.09028,-0.16462 -0.133271,-0.24807 -0.0398,-0.0764 -0.07888,-0.15322 -0.117925,-0.23003 -0.0333,-0.0671 -0.0655,-0.13459 -0.0964,-0.2028 -0.02635,-0.055 -0.05239,-0.11008 -0.08074,-0.16406 -0.02349,-0.0459 -0.04589,-0.0924 -0.07003,-0.13803 -0.02159,-0.0421 -0.04475,-0.0834 -0.06648,-0.12545 0,0 3.27147,-1.88498 3.27147,-1.88498 z"
       inkscape:connector-curvature="0" />
  </g>
</svg>
