<?xml version="1.0" encoding="UTF-8" standalone="no"?>
<!-- Created with Inkscape (http://www.inkscape.org/) -->

<svg
   xmlns:dc="http://purl.org/dc/elements/1.1/"
   xmlns:cc="http://creativecommons.org/ns#"
   xmlns:rdf="http://www.w3.org/1999/02/22-rdf-syntax-ns#"
   xmlns:svg="http://www.w3.org/2000/svg"
   xmlns="http://www.w3.org/2000/svg"
   xmlns:sodipodi="http://sodipodi.sourceforge.net/DTD/sodipodi-0.dtd"
   xmlns:inkscape="http://www.inkscape.org/namespaces/inkscape"
   width="210mm"
   height="297mm"
   viewBox="0 0 210 297"
   version="1.1"
   id="svg3760"
   inkscape:version="0.92.3 (2405546, 2018-03-11)"
   sodipodi:docname="love.svg">
  <defs
     id="defs3754">
    <inkscape:path-effect
       effect="simplify"
       id="path-effect898"
       is_visible="true"
       steps="1"
       threshold="0.000408163"
       smooth_angles="360"
       helper_size="0"
       simplify_individual_paths="false"
       simplify_just_coalesce="false"
       simplifyindividualpaths="false"
       simplifyJustCoalesce="false" />
    <inkscape:path-effect
       effect="simplify"
       id="path-effect894"
       is_visible="true"
       steps="1"
       threshold="0.000408163"
       smooth_angles="360"
       helper_size="0"
       simplify_individual_paths="false"
       simplify_just_coalesce="false"
       simplifyindividualpaths="false"
       simplifyJustCoalesce="false" />
    <inkscape:path-effect
       effect="simplify"
       id="path-effect890"
       is_visible="true"
       steps="1"
       threshold="0.000408163"
       smooth_angles="360"
       helper_size="0"
       simplify_individual_paths="false"
       simplify_just_coalesce="false"
       simplifyindividualpaths="false"
       simplifyJustCoalesce="false" />
  </defs>
  <sodipodi:namedview
     id="base"
     pagecolor="#ffffff"
     bordercolor="#666666"
     borderopacity="1.0"
     inkscape:pageopacity="0.0"
     inkscape:pageshadow="2"
     inkscape:zoom="0.49497475"
     inkscape:cx="559.97748"
     inkscape:cy="614.01794"
     inkscape:document-units="mm"
     inkscape:current-layer="layer1"
     showgrid="false"
     inkscape:window-width="1528"
     inkscape:window-height="1438"
     inkscape:window-x="0"
     inkscape:window-y="0"
     inkscape:window-maximized="0" />
  <metadata
     id="metadata3757">
    <rdf:RDF>
      <cc:Work
         rdf:about="">
        <dc:format>image/svg+xml</dc:format>
        <dc:type
           rdf:resource="http://purl.org/dc/dcmitype/StillImage" />
        <dc:title></dc:title>
      </cc:Work>
    </rdf:RDF>
  </metadata>
  <g
     inkscape:label="Layer 1"
     inkscape:groupmode="layer"
     id="layer1">
    <path
       style="opacity:1;fill:#ff0000;fill-opacity:1;stroke:none;stroke-width:0.30000001;stroke-linejoin:round;stroke-miterlimit:4;stroke-dasharray:none;stroke-dashoffset:0;stroke-opacity:1"
       id="path910"
       d="m 90.402676,81.043792 c -0.08662,-0.07106 -0.188161,-0.121115 -0.274338,-0.19127 -0.114388,-0.0686 -0.207325,-0.164237 -0.319622,-0.235815 -0.137668,-0.09296 -0.269566,-0.193879 -0.408977,-0.28448 -0.161219,-0.1251 -0.333476,-0.234767 -0.49766,-0.355655 -0.186087,-0.134917 -0.377487,-0.262782 -0.562391,-0.399368 -0.207822,-0.148106 -0.415287,-0.296653 -0.62552,-0.441388 -0.2335,-0.161277 -0.463717,-0.327229 -0.699159,-0.48573 -0.259082,-0.182716 -0.518453,-0.364969 -0.780118,-0.544005 -0.278551,-0.187542 -0.555948,-0.376774 -0.835652,-0.562636 -0.296413,-0.203595 -0.590323,-0.410821 -0.88876,-0.611484 -0.314515,-0.205314 -0.634796,-0.401672 -0.954323,-0.599049 -0.336661,-0.206504 -0.682384,-0.397531 -1.030517,-0.583832 -0.366231,-0.19668 -0.740582,-0.377113 -1.118256,-0.550526 -0.386398,-0.177729 -0.779595,-0.34041 -1.176965,-0.491882 -0.398277,-0.154718 -0.802685,-0.292552 -1.212225,-0.414126 -0.399011,-0.122287 -0.803863,-0.222969 -1.21275,-0.305845 -0.400465,-0.08168 -0.804556,-0.14765 -1.209511,-0.20293 -0.40626,-0.0548 -0.814065,-0.08881 -1.222632,-0.119732 -0.414565,-0.02344 -0.828968,-0.04633 -1.244245,-0.05035 -0.425746,-0.0149 -0.851453,-0.0045 -1.277162,0.0038 -0.431829,0.02024 -0.86405,0.03771 -1.295083,0.07149 -0.43457,0.04922 -0.869413,0.100603 -1.302231,0.163735 -0.440714,0.06777 -0.878562,0.151326 -1.31713,0.231349 -0.445889,0.08655 -0.887966,0.19023 -1.331082,0.289554 -0.450263,0.106302 -0.896229,0.22891 -1.343517,0.34675 -0.448588,0.134022 -0.897165,0.268777 -1.341205,0.417317 -0.454419,0.147029 -0.907269,0.299757 -1.355397,0.465098 -0.452286,0.173191 -0.904322,0.346437 -1.350933,0.533913 -0.452409,0.197392 -0.899382,0.405773 -1.341808,0.624549 -0.449427,0.226658 -0.888743,0.472093 -1.33268,0.70903 -5.231019,3.034155 13.232574,-7.574311 9.163622,-5.286737 -0.448006,0.257061 -0.887855,0.527013 -1.32547,0.801193 -0.445064,0.272235 -0.87203,0.571939 -1.300597,0.86901 -0.430437,0.305991 -0.855329,0.620017 -1.274971,0.940687 -0.426072,0.323712 -0.829673,0.675071 -1.235946,1.022871 -0.40927,0.349006 -0.80346,0.71496 -1.19109,1.087678 -0.388102,0.374256 -0.758757,0.765839 -1.123294,1.162892 -0.362617,0.397782 -0.711052,0.808034 -1.047509,1.228082 -0.335971,0.422674 -0.6554,0.858027 -0.966404,1.299278 -0.307136,0.435758 -0.594201,0.884976 -0.876705,1.336924 -0.281429,0.446768 -0.537035,0.908629 -0.787874,1.372997 -0.246784,0.465397 -0.471752,0.941866 -0.682344,1.424593 -0.207351,0.478949 -0.393335,0.966727 -0.570056,1.45768 -0.176469,0.478483 -0.32426,0.96652 -0.461769,1.45738 -0.139472,0.48018 -0.247539,0.968148 -0.345215,1.458241 -0.09957,0.479121 -0.174609,0.962546 -0.233624,1.448176 -0.0573,0.478202 -0.07987,0.959347 -0.08918,1.440569 -0.0081,0.467381 0.01678,0.934204 0.0547,1.399825 0.04151,0.461934 0.10495,0.92142 0.181081,1.3788 0.07993,0.458477 0.183195,0.912487 0.2949,1.364138 0.115212,0.462323 0.248806,0.919708 0.388874,1.375019 0.146708,0.465645 0.307853,0.926536 0.471461,1.386453 0.166356,0.465506 0.347345,0.925608 0.531349,1.384367 0.188246,0.46916 0.384752,0.93494 0.585184,1.399 0.203124,0.4737 0.416989,0.94263 0.633161,1.41048 0.220708,0.47659 0.456595,0.94588 0.693106,1.41476 0.243596,0.48123 0.500126,0.95576 0.760806,1.4279 0.26824,0.48229 0.547759,0.9581 0.831477,1.4314 0.285949,0.48399 0.584184,0.96048 0.890037,1.43209 0.315037,0.4868 0.638935,0.96765 0.971058,1.44294 0.337921,0.48739 0.682615,0.96996 1.033275,1.44826 0.358042,0.4857 0.730266,0.96068 1.104569,1.43389 0.382969,0.48508 0.776335,0.96172 1.16931,1.43867 0.400696,0.47898 0.804757,0.95518 1.211191,1.42929 0.410652,0.47629 0.826895,0.94766 1.24619,1.41634 0.420701,0.4748 0.846836,0.94484 1.278711,1.4095 0.432969,0.47219 0.876675,0.93436 1.31614,1.40047 0.446016,0.46587 0.893353,0.93049 1.342885,1.39297 0.453319,0.47116 0.910897,0.93818 1.361387,1.41205 0.451332,0.48159 0.908868,0.95719 1.356503,1.44225 0.457226,0.48627 0.902398,0.98357 1.349676,1.47893 0.451266,0.50448 0.896409,1.01448 1.337025,1.52828 0.443119,0.51899 0.881475,1.04196 1.315079,1.56892 0.442532,0.53797 0.869104,1.08869 1.289386,1.64412 0.424299,0.56191 0.832221,1.13585 1.234115,1.71391 0.405686,0.58473 0.795425,1.18022 1.179338,1.77939 0.382812,0.5999 0.748485,1.21044 1.108747,1.82407 0.361212,0.61778 0.708964,1.24329 1.052153,1.87121 0.339891,0.62398 0.6653,1.25563 0.983038,1.89111 0.316703,0.6357 0.619694,1.27804 0.915021,1.9239 0.294849,0.64738 0.576729,1.30052 0.850953,1.95686 0.274349,0.6596 0.535747,1.32446 0.793012,1.99087 0.260019,0.67194 0.50306,1.35024 0.742545,2.02971 0.241705,0.68733 0.472657,1.37836 0.699874,2.0706 0.230912,0.70014 0.447809,1.40474 0.65796,2.11136 0.208108,0.70016 0.397293,1.40567 0.585481,2.11138 0.181054,0.68593 0.354348,1.37389 0.523935,2.06273 0.16531,0.67722 0.320506,1.35679 0.469355,2.0378 0.145799,0.67194 0.287095,1.34485 0.427011,2.01804 0.12831,0.63141 0.255024,1.26314 0.385281,1.89416 0.118735,0.5675 0.241036,1.13423 0.358818,1.70194 0.106201,0.51625 0.215458,1.03186 0.325768,1.54725 0.103452,0.46965 0.199872,0.94081 0.298556,1.41148 0.09199,0.42816 0.171325,0.85885 0.251396,1.28935 0.06907,0.37518 0.136144,0.75077 0.200197,1.12684 0.0515,0.3103 0.103955,0.62044 0.161285,0.92972 0.04411,0.25247 0.08267,0.50581 0.131961,0.75735 0.03828,0.19553 0.08492,0.38921 0.131112,0.58297 0.03633,0.14063 0.08208,0.27857 0.133148,0.41447 0.02726,0.0796 0.068,0.1519 0.116761,0.21976 0.04118,0.0673 0.05601,0.0196 0.08545,0.0186 0.009,-0.0971 -0.0204,-0.19337 -0.04296,-0.28706 -0.65161,-4.3503 -13.654331,8.45365 -10.284362,5.77767 0.122473,-0.0563 0.206484,-0.13471 0.276929,-0.24779 0.08572,-0.11733 0.128201,-0.25914 0.17222,-0.39592 0.04529,-0.18766 0.09611,-0.37401 0.147659,-0.56035 0.04886,-0.22271 0.112511,-0.44222 0.159784,-0.66535 0.06611,-0.24547 0.123063,-0.49308 0.190146,-0.73827 0.06095,-0.27602 0.147505,-0.54515 0.222125,-0.8175 0.08271,-0.29258 0.181758,-0.57996 0.274283,-0.86947 0.104092,-0.3067 0.213577,-0.61127 0.333687,-0.91208 0.120285,-0.32114 0.250884,-0.63826 0.374161,-0.95827 0.135623,-0.333 0.275098,-0.66443 0.419158,-0.99387 0.147876,-0.346 0.30113,-0.68979 0.458351,-1.03166 0.159687,-0.36031 0.321254,-0.71983 0.487018,-1.07741 0.16732,-0.37673 0.342564,-0.75005 0.505005,-1.12894 0.175835,-0.39288 0.353079,-0.78509 0.515927,-1.18357 0.1762,-0.41494 0.353013,-0.8296 0.516607,-1.24971 0.176192,-0.43625 0.352761,-0.87233 0.517073,-1.31322 0.174027,-0.4566 0.349157,-0.91273 0.525354,-1.36851 0.176715,-0.47357 0.359211,-0.94502 0.532614,-1.41983 0.18664,-0.48575 0.363191,-0.97521 0.542864,-1.46353 0.184896,-0.50711 0.374722,-1.01242 0.555625,-1.52097 0.188794,-0.52144 0.37982,-1.04202 0.571265,-1.56249 0.193603,-0.53566 0.385302,-1.07201 0.57967,-1.60741 0.196765,-0.55182 0.40077,-1.10103 0.596926,-1.65307 0.205142,-0.56111 0.40653,-1.12357 0.608246,-1.68593 0.210806,-0.56846 0.419258,-1.13778 0.627785,-1.70708 0.217532,-0.57678 0.430601,-1.15519 0.658378,-1.72802 0.23358,-0.57836 0.460581,-1.15932 0.696053,-1.73691 0.236527,-0.58403 0.475924,-1.16685 0.720016,-1.74776 0.243485,-0.58807 0.49132,-1.17436 0.745667,-1.75782 0.251415,-0.58914 0.515591,-1.17259 0.776515,-1.75753 0.266708,-0.58621 0.535337,-1.17172 0.813144,-1.75277 0.271454,-0.58563 0.566264,-1.15964 0.866974,-1.73061 0.29338,-0.56998 0.60402,-1.13063 0.92585,-1.68495 0.32301,-0.54854 0.66545,-1.08522 1.00788,-1.62173 0.34185,-0.54052 0.70304,-1.06826 1.07355,-1.58942 0.37279,-0.51783 0.75924,-1.02528 1.1483,-1.5309 0.38982,-0.51096 0.79663,-1.00845 1.21163,-1.49907 0.41486,-0.49334 0.85572,-0.96345 1.29599,-1.43388 0.44177,-0.47584 0.89785,-0.93793 1.36083,-1.39304 0.4675,-0.45845 0.95128,-0.89972 1.4407,-1.33454 0.49487,-0.43858 1.00441,-0.86008 1.51896,-1.27524 0.51989,-0.41603 1.05367,-0.81411 1.57996,-1.22193 0.53145,-0.40634 1.0641,-0.81115 1.59293,-1.22089 0.53338,-0.41067 1.06463,-0.82406 1.60001,-1.23213 0.53674,-0.41188 1.07049,-0.82762 1.60628,-1.24072 0.53437,-0.41954 1.0735,-0.83303 1.60426,-1.25714 0.53397,-0.42505 1.06936,-0.84823 1.5989,-1.27882 0.53343,-0.4306 1.06516,-0.86333 1.59591,-1.29725 0.53493,-0.44177 1.06997,-0.88333 1.60839,-1.32084 0.53974,-0.44717 1.07951,-0.89431 1.62197,-1.33817 0.54244,-0.45122 1.09058,-0.89541 1.63306,-1.34657 0.54929,-0.45471 1.10537,-0.90109 1.65714,-1.35276 0.55768,-0.45303 1.11431,-0.90733 1.66867,-1.36442 0.56093,-0.45716 1.12486,-0.91069 1.68982,-1.36286 0.56195,-0.45915 1.13149,-0.90887 1.69661,-1.36409 0.567,-0.45395 1.13374,-0.90826 1.69728,-1.36651 0.56816,-0.4527 1.12558,-0.91856 1.68626,-1.38042 0.55767,-0.46718 1.11759,-0.93179 1.672,-1.40285 0.55857,-0.4648 1.1046,-0.94422 1.65075,-1.423472 0.54261,-0.474943 1.07008,-0.966647 1.59096,-1.465196 0.51075,-0.485924 0.99734,-0.996212 1.48007,-1.509697 0.46702,-0.498861 0.90684,-1.022165 1.34042,-1.550061 0.41818,-0.510236 0.82188,-1.031852 1.20652,-1.567792 0.36546,-0.510026 0.69938,-1.041476 1.02666,-1.576472 0.31052,-0.510286 0.60014,-1.032695 0.88144,-1.559517 0.26778,-0.496086 0.50267,-1.008595 0.72993,-1.524164 0.21485,-0.489255 0.40568,-0.988516 0.58694,-1.491028 0.16896,-0.476808 0.31581,-0.961014 0.45045,-1.448504 0.12551,-0.465389 0.22951,-0.935913 0.31971,-1.409282 0.086,-0.453199 0.13449,-0.911844 0.17602,-1.370838 0.0407,-0.439584 0.0519,-0.880861 0.0489,-1.322067 -0.004,-0.421026 -0.0399,-0.840526 -0.0895,-1.258316 -0.051,-0.413607 -0.12346,-0.823799 -0.21074,-1.231149 -0.0858,-0.396179 -0.20286,-0.784315 -0.33178,-1.168299 -0.12919,-0.381273 -0.28787,-0.751277 -0.45718,-1.116163 -0.16734,-0.360567 -0.35881,-0.708875 -0.56051,-1.05114 -0.20448,-0.343249 -0.43033,-0.672986 -0.66897,-0.993214 -0.24384,-0.324128 -0.50927,-0.630928 -0.78113,-0.931627 -0.2826,-0.310761 -0.58254,-0.604917 -0.88886,-0.892079 -0.31243,-0.291675 -0.63996,-0.566352 -0.97216,-0.835052 -0.34688,-0.279408 -0.70653,-0.542226 -1.07007,-0.79937 -0.37345,-0.260318 -0.75737,-0.50497 -1.14455,-0.744217 -0.40445,-0.24905 -0.81781,-0.483084 -1.23386,-0.712076 -0.43489,-0.238583 -0.87728,-0.463015 -1.32195,-0.682699 -0.4569,-0.220035 -0.91959,-0.42763 -1.38421,-0.630737 -0.47349,-0.202436 -0.9526,-0.390838 -1.43458,-0.571966 -0.48723,-0.180242 -0.97852,-0.349975 -1.47346,-0.507833 -0.49407,-0.163971 -0.99692,-0.298345 -1.4993,-0.433883 -0.50121,-0.128291 -1.00517,-0.246144 -1.5117,-0.351507 -0.50791,-0.107066 -1.01932,-0.19614 -1.53121,-0.281688 -0.51431,-0.08696 -1.03151,-0.156454 -1.54994,-0.213567 -0.50968,-0.06161 -1.02268,-0.09152 -1.5354,-0.113686 -0.50117,-0.03129 -1.00338,-0.02368 -1.5047,-0.0024 -0.49216,0.01561 -0.98379,0.05078 -1.47346,0.102349 -0.48189,0.05377 -0.95987,0.133831 -1.43856,0.209645 -0.47981,0.0806 -0.95679,0.176448 -1.43138,0.283477 -0.47832,0.10182 -0.95297,0.22202 -1.42274,0.357923 -0.47489,0.131191 -0.94635,0.276373 -1.41281,0.435055 -0.47688,0.154789 -0.94896,0.325263 -1.41479,0.510704 -0.47516,0.174596 -0.93802,0.380643 -1.39543,0.596971 -0.46775,0.211889 -0.93038,0.435838 -1.38544,0.67383 -3.7683,2.149192 -8.61872,4.982001 9.1487,-5.282035 -0.44895,0.250436 -0.88365,0.525444 -1.31536,0.804248 -0.43257,0.279808 -0.84959,0.582353 -1.26021,0.893178 -0.40848,0.317667 -0.8104,0.643469 -1.20073,0.983208 -0.39536,0.336864 -0.77364,0.692523 -1.14854,1.051734 -0.38221,0.360503 -0.74272,0.742342 -1.10041,1.126813 -0.36186,0.383196 -0.72032,0.769511 -1.06776,1.165849 -0.3554,0.391811 -0.6993,0.793753 -1.05075,1.189078 -0.34846,0.398364 -0.69671,0.797149 -1.03657,1.202922 -0.34767,0.408099 -0.69454,0.81706 -1.033,1.232861 -0.3486,0.421338 -0.69346,0.845719 -1.03985,1.268873 -0.35094,0.433035 -0.69958,0.868002 -1.04591,1.304753 -0.3555,0.439973 -0.71147,0.879686 -1.05941,1.325684 -0.35663,0.450998 -0.71237,0.90283 -1.06051,1.360429 -0.3518,0.464264 -0.71326,0.921099 -1.07245,1.379649 -0.35251,0.452101 -0.71959,0.892267 -1.08686,1.332343 -0.355,0.42952 -0.72481,0.846326 -1.10216,1.256237 -0.36878,0.392006 -0.74569,0.776269 -1.12704,1.156025 -0.36476,0.365768 -0.74777,0.712161 -1.13472,1.054068 -0.36579,0.32533 -0.74274,0.637705 -1.13025,0.936763 -0.0628,0.04851 -0.12556,0.09701 -0.18834,0.145516 0,0 -11.398072,4.519996 -11.398072,4.519996 v 0 c 0.06434,-0.04491 0.128678,-0.08983 0.193016,-0.134742 0.390295,-0.284149 0.785617,-0.561882 1.159823,-0.867402 0.393962,-0.322334 0.785315,-0.648261 1.163052,-0.989595 0.392507,-0.359007 0.775425,-0.728114 1.148321,-1.107503 0.387734,-0.386522 0.768882,-0.779801 1.130954,-1.190665 0.373618,-0.427305 0.743114,-0.858567 1.102809,-1.297651 0.367004,-0.447244 0.723138,-0.903195 1.082556,-1.356498 0.353861,-0.456007 0.698691,-0.918977 1.054051,-1.373859 0.35345,-0.444209 0.69776,-0.895639 1.05334,-1.338202 0.35346,-0.430977 0.6996,-0.868005 1.04488,-1.305528 0.34184,-0.428681 0.68831,-0.853578 1.03511,-1.278232 0.34415,-0.414453 0.67896,-0.836609 1.02523,-1.249359 0.3461,-0.403715 0.6827,-0.815608 1.02965,-1.218616 0.34489,-0.403489 0.70215,-0.796186 1.04587,-1.200695 0.35596,-0.39398 0.69515,-0.80279 1.05716,-1.191413 0.36235,-0.388742 0.71467,-0.786535 1.08151,-1.171091 0.36741,-0.377671 0.73857,-0.752118 1.12366,-1.111837 0.38675,-0.353841 0.76855,-0.713677 1.17628,-1.043702 0.39904,-0.337796 0.80439,-0.668351 1.22645,-0.97721 0.42009,-0.305855 0.84972,-0.597733 1.28599,-0.88003 3.85682,-2.230496 7.76893,-4.804228 11.8689,-6.774566 0.47072,-0.216406 0.94187,-0.431647 1.42039,-0.630457 0.47643,-0.190487 0.95691,-0.369922 1.44118,-0.539539 0.48179,-0.161512 0.9643,-0.320434 1.45201,-0.463362 0.48159,-0.136496 0.96333,-0.271992 1.4507,-0.386699 0.48591,-0.109934 0.97252,-0.216064 1.46267,-0.30566 0.48885,-0.08634 0.9784,-0.168873 1.47106,-0.230899 0.49411,-0.06547 0.99061,-0.115851 1.48845,-0.141864 0.50646,-0.02403 1.01314,-0.04296 1.5203,-0.03776 0.52013,0.01042 1.03955,0.03652 1.55818,0.07802 0.52816,0.04558 1.05528,0.10024 1.57992,0.177432 0.52928,0.07812 1.05776,0.161314 1.58344,0.26121 0.52321,0.09851 1.04504,0.204777 1.56319,0.327374 0.5181,0.125283 1.03591,0.252386 1.54727,0.403389 0.51525,0.149164 1.02702,0.3097 1.53405,0.484987 0.50493,0.176963 1.00923,0.356018 1.50588,0.555397 0.49373,0.197469 0.98475,0.402087 1.46866,0.622676 0.47646,0.217151 0.95122,0.438422 1.41662,0.678571 0.45558,0.23436 0.90861,0.473808 1.35339,0.728218 0.42832,0.245793 0.85363,0.496986 1.26912,0.764059 0.40201,0.25935 0.80062,0.524253 1.18598,0.807987 0.37857,0.27882 0.75284,0.563666 1.11333,0.865714 0.34891,0.293507 0.6927,0.593299 1.02009,0.91086 0.32353,0.315314 0.64142,0.636632 0.94045,0.975513 0.29264,0.333121 0.5784,0.672595 0.84084,1.030293 0.25879,0.35674 0.50723,0.721098 0.73204,1.100418 0.22092,0.375393 0.43207,0.756669 0.61722,1.151205 0.19038,0.402243 0.37007,0.809736 0.52018,1.228981 0.15006,0.422402 0.28827,0.849183 0.39488,1.284894 0.10619,0.438446 0.19987,0.880054 0.26155,1.327234 0.0703,0.456499 0.12702,0.91522 0.14988,1.376844 0.0226,0.477205 0.0311,0.955204 0.006,1.43256 -0.0275,0.491072 -0.0633,0.982105 -0.12831,1.469824 -0.07,0.504677 -0.15676,1.007081 -0.27592,1.502725 -0.11804,0.517014 -0.25208,1.029965 -0.41097,1.536086 -0.1664,0.53009 -0.34835,1.055082 -0.55137,1.572361 -0.21648,0.542557 -0.44262,1.081481 -0.69343,1.609201 -0.26932,0.55009 -0.55061,1.094433 -0.85344,1.626941 -0.31755,0.560139 -0.64671,1.113713 -0.99443,1.655736 -0.37111,0.563962 -0.75134,1.122045 -1.17279,1.650135 -0.42706,0.548211 -0.86165,1.090546 -1.31284,1.619192 -0.46962,0.539165 -0.956,1.063403 -1.45319,1.577252 -0.51316,0.516335 -1.03329,1.02584 -1.57016,1.517632 -0.5394,0.492167 -1.087,0.975386 -1.63829,1.454168 -0.55651,0.470218 -1.11143,0.942272 -1.66812,1.412267 -0.55691,0.469199 -1.11961,0.931487 -1.67952,1.397095 -0.56653,0.455427 -1.12876,0.916187 -1.695,1.371977 -0.56735,0.45138 -1.13016,0.90843 -1.69885,1.35813 -0.55986,0.45793 -1.12505,0.90938 -1.69082,1.35997 -0.56037,0.44945 -1.1116,0.91012 -1.66822,1.36419 -0.55408,0.44772 -1.10351,0.90115 -1.65859,1.34764 -0.54801,0.44358 -1.0841,0.90152 -1.6347,1.34194 -0.5375,0.44951 -1.08221,0.89026 -1.62164,1.33745 -0.53039,0.44742 -1.07341,0.87941 -1.60722,1.32271 -0.52772,0.43933 -1.0598,0.87324 -1.59109,1.30822 -0.53236,0.42817 -1.05618,0.867 -1.5957,1.2862 -0.53222,0.42405 -1.05875,0.85523 -1.59949,1.26852 -0.5308,0.42047 -1.06735,0.83367 -1.60334,1.24746 -0.53041,0.41462 -1.07035,0.81679 -1.59919,1.23342 -0.53161,0.40678 -1.05877,0.81931 -1.59079,1.22555 -0.5309,0.39916 -1.04971,0.81397 -1.58578,1.20632 -0.52084,0.39772 -1.03709,0.80157 -1.53981,1.22211 -0.49627,0.41615 -0.98737,0.83859 -1.46332,1.27799 -0.47082,0.4358 -0.93599,0.87787 -1.38327,1.33797 -0.44277,0.458 -0.88463,0.91713 -1.31571,1.38619 -0.424,0.4694 -0.84114,0.94517 -1.23718,1.43858 -0.3941,0.49386 -0.78717,0.98898 -1.16249,1.49734 -0.38056,0.49846 -0.75313,1.00319 -1.10178,1.52467 -0.34794,0.52363 -0.6888,1.05185 -1.02473,1.58325 -0.33344,0.53154 -0.65771,1.06903 -0.95433,1.62218 -0.29826,0.56106 -0.60676,1.11685 -0.88685,1.68735 -0.27749,0.57498 -0.55466,1.1499 -0.82387,1.72883 -0.2672,0.57757 -0.52926,1.15778 -0.78376,1.74103 -0.25313,0.5788 -0.50953,1.15614 -0.75421,1.73859 -0.23953,0.58065 -0.4899,1.15677 -0.72307,1.74003 -0.23548,0.57554 -0.47432,1.14969 -0.69877,1.72968 -0.22885,0.56564 -0.46245,1.12935 -0.66892,1.70376 -0.21786,0.56372 -0.4215,1.13264 -0.6306,1.69964 -0.21131,0.55711 -0.40834,1.11933 -0.61037,1.67984 -0.20339,0.54869 -0.39494,1.1018 -0.59694,1.651 -0.19254,0.53577 -0.38873,1.07025 -0.5786,1.60697 -0.18561,0.5232 -0.38104,1.0427 -0.56903,1.56503 -0.18877,0.50614 -0.36362,1.01744 -0.55297,1.52339 -0.17973,0.49014 -0.35664,0.98127 -0.53832,1.4707 -0.18186,0.47197 -0.35048,0.94908 -0.53058,1.42171 -0.16939,0.45953 -0.34938,0.91485 -0.52194,1.37317 -0.17359,0.44152 -0.32757,0.89061 -0.50807,1.32951 -0.1732,0.421 -0.32603,0.85021 -0.5065,1.26833 -0.17277,0.3995 -0.32427,0.80801 -0.504844,1.20427 -0.172185,0.37601 -0.328528,0.7593 -0.500623,1.13537 -0.15757,0.35982 -0.323554,0.7159 -0.487783,1.07269 -0.148373,0.34295 -0.305129,0.68225 -0.461582,1.02154 -0.141309,0.32536 -0.28648,0.64898 -0.426495,0.97487 -0.137734,0.30634 -0.255294,0.62069 -0.38581,0.93006 -0.11107,0.29562 -0.23853,0.58453 -0.346488,0.8813 -0.107492,0.27074 -0.200165,0.54756 -0.29418,0.82314 -0.08911,0.25347 -0.159639,0.51321 -0.243953,0.7683 -0.06186,0.24414 -0.133885,0.48522 -0.191807,0.73041 -0.06565,0.21341 -0.107651,0.4344 -0.165016,0.64995 -0.04074,0.19278 -0.09038,0.3828 -0.139075,0.57309 -0.03562,0.17867 -0.07441,0.35681 -0.103947,0.53662 -0.04681,0.1888 -0.07928,0.38161 -0.141899,0.56592 -1.965428,3.75746 -7.379859,8.83948 -10.908919,6.33234 -0.148606,-0.12115 -0.290409,-0.25043 -0.419692,-0.39228 -0.110152,-0.12183 -0.216276,-0.2476 -0.306502,-0.3852 -0.09393,-0.14495 -0.178871,-0.29528 -0.248353,-0.45366 -0.0724,-0.17376 -0.137488,-0.35042 -0.193189,-0.53029 -0.0677,-0.21657 -0.118565,-0.43783 -0.168256,-0.65913 -0.05793,-0.26491 -0.11321,-0.53028 -0.150431,-0.79908 -0.04757,-0.31277 -0.11257,-0.62271 -0.159777,-0.9356 -0.05948,-0.36959 -0.123052,-0.73843 -0.185341,-1.10756 -0.07838,-0.42219 -0.150923,-0.84544 -0.235235,-1.26651 -0.09809,-0.46925 -0.192075,-0.93937 -0.292889,-1.40804 -0.111165,-0.51854 -0.220943,-1.03739 -0.327197,-1.55697 -0.11662,-0.56832 -0.233622,-1.13653 -0.355012,-1.70387 -0.130488,-0.63219 -0.257525,-1.26508 -0.38312,-1.89826 -0.134255,-0.66961 -0.276855,-1.33753 -0.418997,-2.0055 -0.144576,-0.67208 -0.29306,-1.34328 -0.454673,-2.01151 -0.163081,-0.68174 -0.33637,-1.361 -0.50996,-2.04014 -0.18437,-0.6959 -0.366753,-1.39243 -0.569492,-2.08328 -0.20266,-0.69628 -0.414457,-1.38991 -0.640167,-2.0791 -0.223296,-0.68432 -0.450287,-1.36745 -0.687856,-2.04697 -0.234225,-0.6686 -0.471239,-1.33634 -0.725072,-1.99779 -0.252307,-0.65664 -0.508765,-1.31171 -0.777582,-1.96179 -0.267377,-0.64453 -0.542329,-1.28587 -0.831032,-1.92118 -0.288123,-0.63347 -0.583846,-1.26344 -0.893908,-1.88652 -0.310211,-0.62263 -0.628089,-1.24141 -0.960615,-1.85248 -0.336031,-0.61711 -0.677865,-1.23112 -1.032737,-1.83764 -0.352386,-0.59963 -0.710208,-1.19615 -1.084459,-1.78247 -0.376229,-0.58566 -0.758264,-1.16765 -1.156242,-1.73884 -0.393592,-0.56368 -0.793192,-1.12324 -1.209172,-1.6707 -0.411999,-0.54105 -0.830369,-1.0773 -1.264304,-1.60102 -0.429874,-0.51928 -0.863632,-1.0353 -1.302599,-1.54693 -0.436282,-0.50512 -0.875207,-1.00802 -1.322459,-1.50347 -0.443312,-0.49162 -0.889146,-0.98093 -1.341551,-1.46422 -0.446125,-0.47848 -0.8988,-0.95077 -1.34751,-1.42683 -0.450596,-0.46962 -0.904954,-0.93561 -1.356852,-1.40398 -0.45198,-0.46735 -0.904423,-0.93429 -1.351447,-1.40638 -0.443309,-0.46835 -0.887227,-0.93616 -1.323181,-1.4114 -0.434478,-0.4721 -0.865039,-0.94781 -1.29041,-1.42815 -0.423516,-0.47617 -0.845198,-0.95397 -1.259684,-1.43805 -0.410072,-0.48064 -0.819975,-0.96147 -1.222909,-1.44812 -0.398756,-0.48348 -0.795113,-0.96896 -1.183455,-1.46088 -0.382132,-0.48566 -0.762672,-0.97269 -1.127818,-1.47134 -0.355611,-0.48638 -0.704538,-0.97755 -1.048303,-1.47239 -0.338998,-0.48744 -0.670304,-0.98006 -0.993151,-1.47837 -0.312989,-0.48393 -0.619075,-0.97229 -0.912381,-1.46846 -0.29088,-0.48553 -0.577644,-0.97351 -0.853207,-1.46793 -0.268785,-0.48518 -0.532839,-0.97306 -0.784574,-1.46734 -0.243242,-0.48111 -0.486638,-0.96223 -0.714539,-1.45087 -0.22074,-0.47635 -0.441085,-0.95291 -0.648227,-1.43538 -0.206367,-0.4728 -0.407548,-0.9479 -0.601064,-1.42612 -0.19262,-0.47328 -0.380003,-0.9488 -0.556292,-1.42843 -0.169709,-0.47422 -0.338688,-0.94872 -0.494882,-1.42762 -0.151471,-0.47372 -0.295238,-0.9501 -0.420293,-1.43155 -0.126982,-0.47799 -0.241049,-0.95928 -0.338254,-1.44427 -0.09259,-0.48583 -0.171114,-0.97392 -0.226518,-1.465535 -0.05628,-0.500668 -0.0996,-1.002964 -0.109019,-1.506982 -0.0085,-0.516453 -0.0036,-1.033282 0.03535,-1.548617 0.04098,-0.517527 0.09477,-1.034272 0.186422,-1.545627 0.09295,-0.514704 0.180893,-1.03089 0.307023,-1.538808 0.130424,-0.515332 0.261903,-1.030925 0.424796,-1.537169 0.169143,-0.512172 0.343329,-1.022699 0.539256,-1.525383 0.200183,-0.508974 0.405868,-1.016024 0.643789,-1.508834 0.233503,-0.492789 0.483426,-0.978117 0.752539,-1.452446 0.271409,-0.473589 0.552849,-0.94156 0.849206,-1.400009 0.301464,-0.462864 0.609624,-0.921438 0.937961,-1.365824 0.326375,-0.443873 0.656839,-0.884798 1.015095,-1.303774 0.35428,-0.419788 0.716093,-0.833308 1.094137,-1.231974 0.37719,-0.396049 0.761283,-0.785664 1.162442,-1.157618 0.397933,-0.36658 0.805844,-0.722175 1.212802,-1.078659 0.407816,-0.344379 0.825365,-0.675949 1.252244,-0.996376 0.418997,-0.318259 0.847463,-0.623956 1.277128,-0.927581 0.43036,-0.290158 0.862187,-0.579263 1.307608,-0.845934 3.848748,-2.424007 7.800271,-4.693597 11.831298,-6.800744 0.449893,-0.234847 0.906958,-0.456703 1.37127,-0.66162 0.457755,-0.200411 0.918718,-0.394438 1.387506,-0.567703 0.459142,-0.170458 0.918681,-0.34059 1.384525,-0.491966 0.459073,-0.147976 0.917435,-0.298077 1.380292,-0.434004 0.457438,-0.130344 0.913968,-0.264623 1.37804,-0.370004 0.455046,-0.11361 0.912794,-0.216741 1.372513,-0.309645 0.451987,-0.09396 0.906306,-0.17718 1.362318,-0.249131 0.449649,-0.07336 0.901234,-0.136491 1.354598,-0.181952 0.449535,-0.04366 0.898747,-0.09341 1.350973,-0.09866 0.443362,-0.01371 0.88674,-0.03329 1.330452,-0.02394 0.436869,0.0033 0.873482,0.01945 1.309849,0.0402 0.428781,0.02862 0.857946,0.05627 1.284869,0.106402 0.425326,0.04882 0.849432,0.111271 1.27067,0.187674 0.422391,0.08084 0.844558,0.162918 1.259922,0.27567 0.426513,0.117118 0.850471,0.243768 1.268481,0.38862 0.423466,0.151117 0.844344,0.309523 1.258927,0.483732 0.410268,0.175649 0.818618,0.355804 1.218705,0.553823 0.390946,0.193921 0.778113,0.395566 1.158407,0.609722 0.360635,0.204727 0.717957,0.415264 1.067676,0.638249 0.330639,0.208338 0.662593,0.414779 0.982324,0.639813 0.293968,0.202906 0.588227,0.405426 0.885491,0.60348 0.282435,0.191492 0.566201,0.38105 0.846069,0.576305 0.259278,0.181269 0.518927,0.362011 0.78014,0.540483 0.23505,0.165142 0.471535,0.328173 0.706614,0.49326 0.21018,0.149767 0.421384,0.298048 0.631579,0.447786 0.189146,0.129027 0.373415,0.265078 0.561975,0.394933 0.166336,0.112199 0.324829,0.235672 0.49312,0.345072 0.141674,0.103582 0.286651,0.202219 0.426891,0.307703 0.10379,0.08329 0.21462,0.154056 0.32122,0.233489 0.0993,0.07524 0.19874,0.151315 0.29288,0.233791 0,0 -10.392784,6.540704 -10.392784,6.540704 z"
       inkscape:connector-curvature="0" />
  </g>
</svg>
