<?xml version="1.0" encoding="UTF-8" standalone="no"?>
<!-- Created with Inkscape (http://www.inkscape.org/) -->

<svg
   xmlns:dc="http://purl.org/dc/elements/1.1/"
   xmlns:cc="http://creativecommons.org/ns#"
   xmlns:rdf="http://www.w3.org/1999/02/22-rdf-syntax-ns#"
   xmlns:svg="http://www.w3.org/2000/svg"
   xmlns="http://www.w3.org/2000/svg"
   xmlns:sodipodi="http://sodipodi.sourceforge.net/DTD/sodipodi-0.dtd"
   xmlns:inkscape="http://www.inkscape.org/namespaces/inkscape"
   width="210mm"
   height="297mm"
   viewBox="0 0 210 297"
   version="1.1"
   id="svg3760"
   inkscape:version="0.92.3 (2405546, 2018-03-11)"
   sodipodi:docname="small-circle.svg">
  <defs
     id="defs3754">
    <inkscape:path-effect
       effect="simplify"
       id="path-effect898"
       is_visible="true"
       steps="1"
       threshold="0.000408163"
       smooth_angles="360"
       helper_size="0"
       simplify_individual_paths="false"
       simplify_just_coalesce="false"
       simplifyindividualpaths="false"
       simplifyJustCoalesce="false" />
    <inkscape:path-effect
       effect="simplify"
       id="path-effect894"
       is_visible="true"
       steps="1"
       threshold="0.000408163"
       smooth_angles="360"
       helper_size="0"
       simplify_individual_paths="false"
       simplify_just_coalesce="false"
       simplifyindividualpaths="false"
       simplifyJustCoalesce="false" />
    <inkscape:path-effect
       effect="simplify"
       id="path-effect890"
       is_visible="true"
       steps="1"
       threshold="0.000408163"
       smooth_angles="360"
       helper_size="0"
       simplify_individual_paths="false"
       simplify_just_coalesce="false"
       simplifyindividualpaths="false"
       simplifyJustCoalesce="false" />
  </defs>
  <sodipodi:namedview
     id="base"
     pagecolor="#ffffff"
     bordercolor="#666666"
     borderopacity="1.0"
     inkscape:pageopacity="0.0"
     inkscape:pageshadow="2"
     inkscape:zoom="1.979899"
     inkscape:cx="532.26207"
     inkscape:cy="667.53208"
     inkscape:document-units="mm"
     inkscape:current-layer="layer1"
     showgrid="false"
     inkscape:window-width="1528"
     inkscape:window-height="1438"
     inkscape:window-x="0"
     inkscape:window-y="0"
     inkscape:window-maximized="0" />
  <metadata
     id="metadata3757">
    <rdf:RDF>
      <cc:Work
         rdf:about="">
        <dc:format>image/svg+xml</dc:format>
        <dc:type
           rdf:resource="http://purl.org/dc/dcmitype/StillImage" />
        <dc:title></dc:title>
      </cc:Work>
    </rdf:RDF>
  </metadata>
  <g
     inkscape:label="Layer 1"
     inkscape:groupmode="layer"
     id="layer1">
    <path
       style="opacity:1;fill:#ff0000;fill-opacity:1;stroke:none;stroke-width:0.30000001;stroke-linejoin:round;stroke-miterlimit:4;stroke-dasharray:none;stroke-dashoffset:0;stroke-opacity:1"
       id="path973"
       d="m 130.2135,64.381104 c -0.0355,2.4e-5 -0.0711,1.6e-5 -0.10658,1.3e-5 -0.0411,-0.0016 -0.0822,-0.0041 -0.12324,-0.0061 -0.0531,-0.0026 -0.10627,-0.0046 -0.15942,-0.0066 -0.0669,-0.0024 -0.13379,-0.0044 -0.20069,-0.0063 -0.0806,-0.0021 -0.1612,-0.0041 -0.2418,-0.006 -0.0934,-0.0021 -0.18687,-0.0013 -0.2803,-7.93e-4 -0.10376,2.64e-4 -0.20749,0.0035 -0.31122,0.0061 -0.11408,0.0013 -0.22795,0.0066 -0.34182,0.01307 -0.12228,0.0063 -0.24442,0.01474 -0.36654,0.02347 -0.13003,0.0089 -0.25985,0.02045 -0.38957,0.03305 -0.13429,0.01387 -0.26827,0.03067 -0.40203,0.04895 -0.13593,0.01807 -0.2711,0.04129 -0.4063,0.06408 -0.13822,0.02381 -0.27603,0.04976 -0.41347,0.07773 -0.14178,0.02673 -0.28175,0.0614 -0.42072,0.09998 -0.14326,0.03999 -0.28559,0.08325 -0.42695,0.129492 -0.14543,0.04934 -0.29014,0.100926 -0.43361,0.155713 -0.14612,0.05607 -0.29107,0.115144 -0.43542,0.175599 -0.1463,0.05951 -0.28975,0.125518 -0.43278,0.192399 -0.14388,0.06704 -0.28571,0.138169 -0.42612,0.212165 -0.0934,0.05066 -0.18661,0.101782 -0.2779,0.156146 -0.0148,0.0088 0.0594,-0.03498 0.045,-0.02545 -0.0222,0.01468 -0.0456,0.0273 -0.0684,0.04094 -0.13618,0.08266 -0.26927,0.170307 -0.40127,0.25945 -0.13202,0.0898 -0.26187,0.182655 -0.38955,0.278516 -0.12779,0.09624 -0.25072,0.198639 -0.37172,0.303221 -0.12149,0.105357 -0.23793,0.216276 -0.35244,0.329104 -0.11539,0.114054 -0.22571,0.233038 -0.33412,0.35369 -0.10748,0.120116 -0.20997,0.244523 -0.31036,0.370584 -0.0991,0.12474 -0.19298,0.253468 -0.28483,0.383603 -0.0914,0.129757 -0.17799,0.262774 -0.26206,0.397367 -0.0831,0.132406 -0.15929,0.268901 -0.23318,0.406601 -0.0735,0.136679 -0.13998,0.276897 -0.2041,0.418148 -0.0626,0.13866 -0.11965,0.279746 -0.17462,0.421589 -0.055,0.141021 -0.10401,0.284205 -0.14965,0.42848 -0.0444,0.144457 -0.0839,0.290362 -0.12034,0.437023 -0.0362,0.148087 -0.0626,0.29831 -0.0861,0.448857 -0.0239,0.151062 -0.0379,0.303401 -0.0499,0.45579 -0.011,0.152268 -0.0185,0.30475 -0.0234,0.457325 -0.006,0.15476 -0.004,0.309626 -8e-4,0.464415 0.004,0.155554 0.013,0.310901 0.0243,0.466061 0.0112,0.155585 0.0268,0.310792 0.0461,0.465568 0.0197,0.156038 0.0438,0.311476 0.0698,0.466569 0.0255,0.156131 0.057,0.311174 0.0893,0.466024 0.0331,0.155379 0.0689,0.310153 0.10753,0.464246 0.0384,0.155202 0.0816,0.309115 0.12638,0.462582 0.0453,0.15246 0.095,0.30359 0.14604,0.454218 0.0508,0.150458 0.10778,0.298616 0.16725,0.445817 0.0601,0.147707 0.12718,0.292418 0.1953,0.43656 0.0688,0.144873 0.14393,0.286607 0.21999,0.427771 0.0786,0.142978 0.16339,0.282419 0.2505,0.420335 0.0896,0.141759 0.18275,0.281303 0.27761,0.419611 0.0956,0.138798 0.19468,0.275029 0.29585,0.409773 0.10192,0.135885 0.20968,0.267198 0.31971,0.396553 0.1105,0.129492 0.22664,0.25397 0.34473,0.376515 0.11733,0.121441 0.23968,0.237834 0.36381,0.352266 0.12316,0.113279 0.25079,0.221509 0.38019,0.327552 0.12693,0.103809 0.25799,0.202363 0.39049,0.298905 0.13017,0.09489 0.26434,0.184033 0.39974,0.271219 0.13302,0.08575 0.26936,0.166052 0.40776,0.242742 0.13676,0.07557 0.27674,0.145034 0.41784,0.212058 0.14154,0.06719 0.28566,0.128675 0.43026,0.188897 0.14381,0.05998 0.29019,0.113297 0.4374,0.164234 0.14706,0.05011 0.29623,0.0936 0.4459,0.135128 0.14771,0.04202 0.29756,0.0757 0.4479,0.106741 0.14866,0.02982 0.29886,0.05102 0.44936,0.06895 0.14861,0.01656 0.29773,0.0279 0.44705,0.03555 0.14785,0.0064 0.29584,0.0079 0.44379,0.0059 0.14659,-0.0011 0.29291,-0.0085 0.43913,-0.01828 0.1446,-0.01053 0.28888,-0.02477 0.43276,-0.04256 0.14451,-0.01849 0.28781,-0.04498 0.43095,-0.07184 0.14279,-0.0263 0.28345,-0.06236 0.42425,-0.09745 0.14007,-0.03458 0.27799,-0.07703 0.41536,-0.120955 0.13747,-0.04206 0.27207,-0.09245 0.40623,-0.143883 0.13403,-0.05135 0.26635,-0.106799 0.39698,-0.166227 0.13082,-0.05921 0.25975,-0.122521 0.38747,-0.188119 0.0151,-1.88e-4 0.44878,-0.246763 0.26528,-0.142928 0.12546,-0.07487 0.24883,-0.15318 0.37045,-0.234135 0.12283,-0.08154 0.2437,-0.166002 0.36334,-0.252145 0.12153,-0.08766 0.23906,-0.180567 0.3553,-0.275063 0.11864,-0.0966 0.23265,-0.198663 0.34645,-0.300861 0.11493,-0.103605 0.22809,-0.209087 0.33891,-0.317066 0.1116,-0.10963 0.2212,-0.221213 0.3285,-0.335047 0.10855,-0.115454 0.21208,-0.235426 0.31375,-0.356933 0.10307,-0.123574 0.20117,-0.251143 0.29747,-0.380035 0.0978,-0.131294 0.19077,-0.266062 0.282,-0.401973 0.0925,-0.138602 0.18117,-0.27976 0.26676,-0.422738 0.0862,-0.14532 0.16739,-0.293516 0.24711,-0.44246 0.0801,-0.149945 0.15533,-0.302406 0.22842,-0.455862 0.0725,-0.153625 0.14135,-0.308977 0.20794,-0.465267 0.0671,-0.157046 0.12868,-0.316317 0.18827,-0.476337 0.059,-0.16057 0.1137,-0.322654 0.16631,-0.485413 0.0528,-0.162263 0.10063,-0.326064 0.14617,-0.490497 0.0454,-0.163664 0.0866,-0.328441 0.12561,-0.493737 0.038,-0.161261 0.0659,-0.324596 0.0932,-0.487923 0.0265,-0.155697 0.0445,-0.312584 0.0581,-0.469863 0.0133,-0.150484 0.0212,-0.301339 0.0262,-0.452305 0.005,-0.148804 0.004,-0.297715 5.3e-4,-0.446545 -0.004,-0.148569 -0.0131,-0.296916 -0.0245,-0.445069 -0.0106,-0.147992 -0.0285,-0.295286 -0.0484,-0.442262 -0.0206,-0.147037 -0.0466,-0.293211 -0.0747,-0.438978 -0.0286,-0.147333 -0.0652,-0.292915 -0.10329,-0.438026 -0.0381,-0.145994 -0.081,-0.290697 -0.12443,-0.435189 -0.0438,-0.143587 -0.0938,-0.285215 -0.14614,-0.425884 -0.0513,-0.140523 -0.1091,-0.27849 -0.16822,-0.415851 -0.0587,-0.136456 -0.12506,-0.269319 -0.19458,-0.400502 -0.0693,-0.130133 -0.14621,-0.25594 -0.22582,-0.37995 -0.0789,-0.125045 -0.16308,-0.246584 -0.25003,-0.36613 -0.0872,-0.119341 -0.18058,-0.2339 -0.27606,-0.346644 -0.0946,-0.11126 -0.19468,-0.217593 -0.29672,-0.321977 -0.1004,-0.102404 -0.20576,-0.199707 -0.31281,-0.295068 -0.10683,-0.09475 -0.21847,-0.183841 -0.32905,-0.274117 -0.10946,-0.08891 -0.22016,-0.17626 -0.3302,-0.26443 -0.10873,-0.08744 -0.21942,-0.172368 -0.33109,-0.255989 -0.11287,-0.08488 -0.22993,-0.163883 -0.34652,-0.243486 -0.11906,-0.0823 -0.24149,-0.159485 -0.36352,-0.23726 -0.12476,-0.08013 -0.25183,-0.156548 -0.37991,-0.231224 -0.13167,-0.07667 -0.266,-0.148556 -0.40067,-0.219755 -0.13653,-0.07188 -0.27462,-0.140729 -0.41328,-0.208378 -0.13945,-0.06857 -0.28067,-0.133427 -0.42221,-0.197554 -0.14364,-0.06484 -0.28873,-0.126402 -0.43345,-0.188796 -0.14598,-0.06275 -0.29255,-0.124095 -0.43965,-0.184163 -0.0972,-0.04018 -0.19528,-0.07827 -0.29343,-0.116107 0,0 0.11054,-0.07425 0.11054,-0.07425 v 0 c 0.0982,0.03791 0.19628,0.07613 0.29357,0.116329 0.14714,0.06016 0.29377,0.121563 0.4398,0.184375 0.14477,0.06243 0.28992,0.124024 0.43359,0.188997 0.14161,0.06422 0.28288,0.12922 0.42242,0.197869 0.13874,0.06777 0.27692,0.136724 0.41352,0.208735 0.13479,0.07132 0.26921,0.143389 0.40098,0.220216 0.12817,0.07483 0.25532,0.151418 0.3802,0.231656 0.12215,0.07782 0.24459,0.155231 0.36376,0.237609 0.11676,0.07969 0.23386,0.158943 0.34684,0.243975 0.11174,0.08376 0.2225,0.168812 0.33132,0.256357 0.11008,0.08818 0.22081,0.175562 0.33025,0.264536 0.11074,0.09039 0.22247,0.179644 0.32936,0.274608 0.10722,0.09562 0.21274,0.193186 0.31329,0.295854 0.10221,0.104656 0.20247,0.211262 0.2972,0.322792 0.0956,0.113027 0.18922,0.22787 0.27657,0.347491 0.0871,0.119774 0.17137,0.241535 0.25042,0.366794 0.0798,0.124331 0.15689,0.250457 0.22637,0.380913 0.0697,0.131495 0.13629,0.264668 0.19511,0.401442 0.0592,0.137551 0.11718,0.275711 0.16855,0.41643 0.0525,0.14092 0.10257,0.282805 0.14655,0.426638 0.0435,0.144626 0.0864,0.289475 0.12465,0.435599 0.0382,0.14537 0.075,0.291211 0.10372,0.438801 0.0282,0.145981 0.0543,0.292378 0.0751,0.439632 0.0201,0.147198 0.0381,0.294719 0.0488,0.442944 0.0115,0.148373 0.021,0.296947 0.0248,0.445741 0.003,0.149037 0.005,0.298162 -2.7e-4,0.44718 -0.005,0.151178 -0.0126,0.302244 -0.0259,0.452946 -0.0135,0.157593 -0.0313,0.314806 -0.0577,0.470818 -0.0273,0.163576 -0.055,0.327181 -0.0928,0.488722 -0.0389,0.165457 -0.08,0.330385 -0.12538,0.4942 -0.0455,0.164602 -0.0931,0.328591 -0.14593,0.491011 -0.0525,0.16293 -0.10718,0.325183 -0.16607,0.485941 -0.0595,0.160198 -0.12093,0.319678 -0.18801,0.476893 -0.0665,0.156472 -0.13526,0.31196 -0.2077,0.465773 -0.073,0.153657 -0.14818,0.306287 -0.22817,0.456432 -0.0796,0.149122 -0.16078,0.29749 -0.24684,0.443035 -0.0854,0.143237 -0.17404,0.284546 -0.26648,0.423367 -0.0911,0.136107 -0.18402,0.271079 -0.28172,0.402588 -0.0962,0.129103 -0.19421,0.256894 -0.29718,0.380703 -0.10156,0.12174 -0.20499,0.241954 -0.31343,0.357656 -0.10718,0.114051 -0.21672,0.22579 -0.32828,0.335569 -0.1107,0.108206 -0.22378,0.213857 -0.3387,0.317568 -0.11375,0.102354 -0.22773,0.20456 -0.3462,0.301464 -0.11618,0.09468 -0.23354,0.187907 -0.355,0.27578 -0.11952,0.08637 -0.24037,0.170927 -0.36316,0.252598 -0.12148,0.08124 -0.24484,0.159655 -0.37017,0.234842 -0.1627,0.09456 -0.32485,0.190344 -0.49353,0.274063 -0.1279,0.06535 -0.25693,0.128558 -0.38787,0.187621 -0.13084,0.05912 -0.26334,0.114324 -0.39747,0.1656 -0.13428,0.05136 -0.26917,0.101169 -0.4067,0.143283 -0.13755,0.04371 -0.27564,0.08593 -0.41588,0.120272 -0.14091,0.03509 -0.28178,0.07075 -0.42472,0.09682 -0.14328,0.02679 -0.28677,0.05301 -0.43146,0.07117 -0.14404,0.01749 -0.28846,0.03166 -0.4332,0.04196 -0.14636,0.0097 -0.29284,0.01667 -0.43954,0.0177 -0.14813,0.0019 -0.29629,1.59e-4 -0.4443,-0.0066 -0.14949,-0.008 -0.29879,-0.01939 -0.44756,-0.03628 -0.15073,-0.01826 -0.30116,-0.03966 -0.45001,-0.06987 -0.15051,-0.03131 -0.3005,-0.06529 -0.4484,-0.107474 -0.14985,-0.04171 -0.29916,-0.08545 -0.44637,-0.135821 -0.14737,-0.05114 -0.29388,-0.104743 -0.43785,-0.164914 -0.14474,-0.06038 -0.28896,-0.122066 -0.43061,-0.18944 -0.14126,-0.06727 -0.28141,-0.136937 -0.41831,-0.212751 -0.13854,-0.07696 -0.27503,-0.157546 -0.40822,-0.243485 -0.13555,-0.0874 -0.26984,-0.176774 -0.40015,-0.27187 -0.13264,-0.09675 -0.26382,-0.195533 -0.39089,-0.299548 -0.12953,-0.106273 -0.2573,-0.214718 -0.38059,-0.328216 -0.12427,-0.114655 -0.24675,-0.231272 -0.36422,-0.352938 -0.11824,-0.12278 -0.23451,-0.247494 -0.34515,-0.377222 -0.11017,-0.129588 -0.21806,-0.261136 -0.32013,-0.397245 -0.10128,-0.134904 -0.20048,-0.271307 -0.29615,-0.410263 -0.0949,-0.138454 -0.18814,-0.278141 -0.27787,-0.42004 -0.0873,-0.138181 -0.1722,-0.277884 -0.25096,-0.421126 -0.0762,-0.141367 -0.1514,-0.283306 -0.22035,-0.428379 -0.0682,-0.144362 -0.13542,-0.289301 -0.19567,-0.437224 -0.0596,-0.147421 -0.11673,-0.295796 -0.16763,-0.446485 -0.0511,-0.150794 -0.10087,-0.302098 -0.14631,-0.45472 -0.0448,-0.153618 -0.0882,-0.307671 -0.12662,-0.463029 -0.0387,-0.154244 -0.0746,-0.309182 -0.10779,-0.464717 -0.0323,-0.155006 -0.0639,-0.310192 -0.0895,-0.466479 -0.0261,-0.155255 -0.0503,-0.310862 -0.0701,-0.467064 -0.0195,-0.154969 -0.0352,-0.310377 -0.0464,-0.466169 -0.0115,-0.155369 -0.0209,-0.31093 -0.0246,-0.466699 -0.003,-0.154987 -0.005,-0.310054 5.3e-4,-0.465018 0.005,-0.152762 0.0122,-0.305422 0.0231,-0.45788 0.0119,-0.152678 0.0256,-0.305324 0.0494,-0.456689 0.0233,-0.150895 0.0496,-0.301456 0.0856,-0.449922 0.0363,-0.146923 0.0757,-0.293044 0.11997,-0.437782 0.0455,-0.144544 0.0944,-0.287983 0.14929,-0.429244 0.0549,-0.14206 0.11178,-0.283379 0.17432,-0.422272 0.064,-0.141518 0.1304,-0.282001 0.20374,-0.418957 0.0738,-0.137949 0.14978,-0.274757 0.23283,-0.407401 0.0839,-0.134839 0.17043,-0.268075 0.26176,-0.398057 0.0917,-0.130363 0.18551,-0.259337 0.28453,-0.384315 0.10027,-0.126305 0.20269,-0.250942 0.31005,-0.371317 0.10832,-0.120888 0.21853,-0.240117 0.33381,-0.354433 0.1144,-0.113083 0.23073,-0.224266 0.35211,-0.329906 0.12088,-0.104855 0.24369,-0.207537 0.37138,-0.304067 0.12755,-0.09613 0.25732,-0.189177 0.38931,-0.279136 0.13189,-0.08938 0.26499,-0.177093 0.40099,-0.26013 0.17426,-0.104672 0.35046,-0.206354 0.52933,-0.302943 0.14055,-0.07381 0.28257,-0.144663 0.42651,-0.211674 0.1431,-0.06684 0.28681,-0.132395 0.43312,-0.191977 0.14447,-0.06029 0.28946,-0.119369 0.4357,-0.17526 0.14367,-0.05446 0.28838,-0.106248 0.43401,-0.155212 0.14153,-0.046 0.28395,-0.08919 0.42734,-0.129019 0.13919,-0.03825 0.2794,-0.07243 0.42129,-0.09926 0.13752,-0.02789 0.27544,-0.05361 0.41374,-0.07738 0.13528,-0.02281 0.27055,-0.04578 0.40657,-0.06375 0.13387,-0.0181 0.26793,-0.03495 0.40234,-0.04854 0.12979,-0.01251 0.25969,-0.02389 0.38978,-0.0328 0.12217,-0.0087 0.24436,-0.01688 0.36667,-0.02331 0.11397,-0.0064 0.22795,-0.01127 0.3421,-0.01273 0.10379,-0.0026 0.20759,-0.0057 0.31141,-0.0059 0.0935,-2.65e-4 0.18705,-0.0013 0.28054,0.0011 0.0806,0.0019 0.16126,0.0038 0.24187,0.006 0.0669,0.0019 0.13388,0.0039 0.2008,0.0063 0.0532,0.0019 0.10638,0.004 0.15954,0.0067 0.0409,0.0021 0.0819,0.0046 0.12288,0.0055 0.0355,-3e-6 0.071,-1.1e-5 0.10654,1.3e-5 0,0 -0.10798,0.07846 -0.10798,0.07846 z"
       inkscape:connector-curvature="0" />
  </g>
</svg>
