<?xml version="1.0" encoding="UTF-8" standalone="no"?>
<!-- Created with Inkscape (http://www.inkscape.org/) -->

<svg
   xmlns:dc="http://purl.org/dc/elements/1.1/"
   xmlns:cc="http://creativecommons.org/ns#"
   xmlns:rdf="http://www.w3.org/1999/02/22-rdf-syntax-ns#"
   xmlns:svg="http://www.w3.org/2000/svg"
   xmlns="http://www.w3.org/2000/svg"
   xmlns:sodipodi="http://sodipodi.sourceforge.net/DTD/sodipodi-0.dtd"
   xmlns:inkscape="http://www.inkscape.org/namespaces/inkscape"
   width="210mm"
   height="297mm"
   viewBox="0 0 210 297"
   version="1.1"
   id="svg3760"
   inkscape:version="0.92.3 (2405546, 2018-03-11)"
   sodipodi:docname="sup.svg">
  <defs
     id="defs3754" />
  <sodipodi:namedview
     id="base"
     pagecolor="#ffffff"
     bordercolor="#666666"
     borderopacity="1.0"
     inkscape:pageopacity="0.0"
     inkscape:pageshadow="2"
     inkscape:zoom="0.35"
     inkscape:cx="-211.42857"
     inkscape:cy="560"
     inkscape:document-units="mm"
     inkscape:current-layer="layer1"
     showgrid="false"
     inkscape:window-width="3840"
     inkscape:window-height="2160"
     inkscape:window-x="0"
     inkscape:window-y="0"
     inkscape:window-maximized="0" />
  <metadata
     id="metadata3757">
    <rdf:RDF>
      <cc:Work
         rdf:about="">
        <dc:format>image/svg+xml</dc:format>
        <dc:type
           rdf:resource="http://purl.org/dc/dcmitype/StillImage" />
        <dc:title></dc:title>
      </cc:Work>
    </rdf:RDF>
  </metadata>
  <g
     inkscape:label="Layer 1"
     inkscape:groupmode="layer"
     id="layer1">
    <path
       style="opacity:1;fill:#ff00a2;fill-opacity:1;stroke:none;stroke-width:0.30000001;stroke-linejoin:round;stroke-miterlimit:4;stroke-dasharray:none;stroke-dashoffset:0;stroke-opacity:1"
       id="path4305"
       d="m 58.903205,61.530205 c -0.140954,0.337138 -0.276915,0.676101 -0.398589,1.020684 -0.112091,0.345985 -0.227801,0.690835 -0.337461,1.037629 -0.117596,0.396653 -0.241077,0.791525 -0.3582,1.188329 -0.124312,0.444579 -0.255191,0.887275 -0.37963,1.331819 -0.134876,0.491644 -0.257791,0.986423 -0.387278,1.479495 -0.141904,0.535861 -0.27096,1.074957 -0.395193,1.615146 -0.134987,0.582449 -0.270039,1.164945 -0.410728,1.746052 -0.145873,0.61287 -0.298678,1.224026 -0.449625,1.835652 -0.154265,0.647055 -0.312134,1.293231 -0.468593,1.939756 -0.16568,0.682233 -0.314751,1.368311 -0.472408,2.052405 -0.164336,0.714885 -0.325747,1.430417 -0.491694,2.144934 -0.17494,0.745353 -0.335357,1.49396 -0.497298,2.242201 -0.173651,0.776322 -0.342564,1.553663 -0.50578,2.332241 -0.17018,0.813988 -0.328379,1.630397 -0.482637,2.447529 -0.162062,0.863838 -0.310764,1.730091 -0.456382,2.596827 -0.15303,0.909243 -0.293725,1.820473 -0.430996,2.732206 -0.142528,0.949759 -0.276109,1.90082 -0.406757,2.852272 -0.134374,0.981038 -0.260673,1.963153 -0.384249,2.945601 -0.126789,1.010396 -0.246161,2.021697 -0.363022,3.033287 -0.119647,1.03811 -0.232476,2.07698 -0.342976,3.1161 -0.112925,1.06428 -0.219562,2.12921 -0.324046,3.19435 -0.105548,1.08837 -0.209587,2.1769 -0.30361,3.26633 -0.09147,1.11156 -0.17214,2.22397 -0.252169,3.3364 -0.08139,1.13453 -0.158403,2.26937 -0.233955,3.40429 -0.07106,1.1417 -0.132085,2.28403 -0.185243,3.42669 -0.04965,1.16127 -0.09075,2.32288 -0.132021,3.48448 -0.04278,1.16874 -0.07058,2.33801 -0.09125,3.50734 -0.01691,1.16924 -0.02827,2.33854 -0.02911,3.5079 -0.0024,1.17188 0.0069,2.34367 0.02233,3.51543 0.01336,1.16848 0.04446,2.33666 0.08422,3.50451 0.03681,1.17258 0.0905,2.34444 0.154813,3.5158 0.06398,1.1785 0.146069,2.35591 0.235778,3.5327 0.08693,1.17586 0.194451,2.35003 0.314699,3.52292 0.12075,1.16572 0.25595,2.32988 0.398949,3.49307 0.142721,1.15713 0.297958,2.31268 0.460936,3.46712 0.160403,1.14206 0.34368,2.28071 0.538342,3.41737 0.189471,1.12026 0.407138,2.2353 0.637186,3.34783 0.227555,1.08708 0.484349,2.1677 0.763733,3.24254 0.26779,1.05024 0.577477,2.08875 0.91109,3.11974 0.324673,0.99841 0.702,1.97819 1.099888,2.94934 0.389692,0.94666 0.829355,1.87124 1.287971,2.78609 0.437282,0.88014 0.924912,1.73333 1.431062,2.57525 0.482936,0.80198 1.002478,1.58074 1.536534,2.34931 0.50097,0.7382 1.070136,1.42489 1.651005,2.10061 0.565465,0.65253 1.15928,1.27962 1.772436,1.88731 0.592508,0.58978 1.222351,1.13861 1.869609,1.66692 0.62016,0.50838 1.273281,0.97294 1.937451,1.42138 0.631174,0.4241 1.285158,0.8121 1.948458,1.18335 0.632566,0.35438 1.283393,0.67394 1.944677,0.97071 0.605001,0.26974 1.228738,0.49295 1.862172,0.68526 0.590761,0.17563 1.195242,0.29835 1.801627,0.40536 0.576667,0.0979 1.160539,0.14213 1.744128,0.17191 0.564364,0.0271 1.128437,-0.006 1.689867,-0.0616 0.554117,-0.0644 1.103696,-0.1581 1.647648,-0.28121 0.550714,-0.11352 1.090168,-0.27538 1.625724,-0.4452 0.540637,-0.16948 1.054002,-0.40917 1.57171,-0.63618 0.523711,-0.24396 1.037574,-0.50968 1.540888,-0.79328 2.012561,-1.19106 -0.710501,0.42196 -4.914212,2.81796 -0.152323,0.0868 0.298479,-0.18405 0.446979,-0.27726 0.315913,-0.1983 0.626354,-0.40362 0.934382,-0.61384 0.522732,-0.36779 1.029456,-0.7577 1.524637,-1.16165 0.507342,-0.41046 1.004192,-0.83343 1.49932,-1.25844 0.509103,-0.4404 1.00325,-0.89789 1.49102,-1.3617 0.508722,-0.47196 0.995447,-0.96633 1.471059,-1.47139 0.49733,-0.52195 0.978324,-1.05905 1.451645,-1.60276 0.496252,-0.55798 0.970113,-1.13493 1.434435,-1.71956 0.483069,-0.59731 0.945306,-1.21077 1.395582,-1.83304 0.458359,-0.64543 0.909122,-1.29619 1.34842,-1.95474 0.452488,-0.67878 0.874998,-1.37664 1.292297,-2.07737 0.07085,-0.1187 0.141692,-0.2374 0.212539,-0.3561 0,0 6.210417,-2.75573 6.210417,-2.75573 v 0 c -0.07057,0.1193 -0.141137,0.23859 -0.211707,0.35789 -0.422754,0.70371 -0.831776,1.41593 -1.280332,2.10385 -0.433223,0.66795 -0.881544,1.32541 -1.338222,1.97751 -0.4439,0.63414 -0.898234,1.26115 -1.380842,1.86661 -0.468628,0.58699 -0.924777,1.1844 -1.422138,1.74788 -0.477391,0.54482 -0.945386,1.09808 -1.44135,1.6264 -0.479298,0.50802 -0.946782,1.02786 -1.456248,1.50651 -0.491442,0.46474 -0.976955,0.93575 -1.479947,1.38818 -0.490545,0.43362 -0.987332,0.85996 -1.491094,1.27816 -0.4978,0.40762 -0.98948,0.82247 -1.508291,1.20372 -2.521953,1.87164 -5.393312,3.24282 -8.083505,4.83054 -0.517914,0.26573 -1.039006,0.52635 -1.578245,0.74669 -0.528677,0.22234 -1.066924,0.4216 -1.620409,0.57388 -0.549481,0.15317 -1.10168,0.29576 -1.663843,0.39548 -0.562033,0.0978 -1.127717,0.17976 -1.697595,0.21425 -0.582052,0.0289 -1.165297,0.0336 -1.746552,-0.0166 -0.600678,-0.0508 -1.200542,-0.1159 -1.791385,-0.2393 -0.623274,-0.12825 -1.244037,-0.27149 -1.848202,-0.47367 -0.647944,-0.21901 -1.287381,-0.46296 -1.907104,-0.7534 -0.671065,-0.31546 -1.332746,-0.65076 -1.976276,-1.01962 -0.673176,-0.38765 -1.337492,-0.79088 -1.978295,-1.23052 -0.675581,-0.46535 -1.337929,-0.94965 -1.969809,-1.47342 -0.658739,-0.54687 -1.298506,-1.11593 -1.903542,-1.72224 -0.621335,-0.624 -1.225677,-1.26495 -1.799807,-1.93292 -0.593238,-0.69521 -1.172618,-1.40287 -1.68602,-2.16014 -0.541367,-0.7815 -1.068261,-1.57313 -1.55842,-2.38802 -0.514705,-0.85685 -1.010952,-1.72495 -1.456346,-2.62027 -0.466969,-0.92967 -0.914964,-1.86911 -1.312894,-2.83075 -0.406136,-0.98604 -0.791705,-1.98076 -1.124445,-2.99431 -0.3405,-1.04235 -0.657778,-2.09218 -0.929844,-3.15471 -0.285697,-1.08487 -0.5472,-2.17591 -0.780018,-3.27342 -0.232899,-1.11937 -0.456594,-2.24064 -0.64775,-3.36804 -0.198753,-1.14238 -0.384345,-2.28712 -0.547569,-3.43516 -0.166229,-1.15782 -0.321722,-2.31719 -0.466526,-3.47789 -0.14641,-1.16699 -0.281877,-2.33537 -0.405133,-3.50504 -0.124465,-1.17813 -0.234386,-2.35781 -0.323151,-3.5392 -0.09153,-1.18103 -0.176827,-2.36262 -0.242324,-3.54543 -0.06637,-1.1755 -0.125151,-2.35139 -0.161446,-3.52828 -0.04174,-1.17213 -0.07644,-2.34458 -0.09075,-3.51741 -0.01632,-1.17446 -0.0292,-2.34892 -0.02649,-3.52352 -0.0011,-1.1726 0.0083,-2.34511 0.02416,-3.51761 0.01667,-1.17325 0.04531,-2.34643 0.08533,-3.51912 0.04093,-1.16337 0.0821,-2.32675 0.12904,-3.48991 0.04873,-1.14713 0.112916,-2.29356 0.178559,-3.43984 0.07499,-1.13596 0.151432,-2.27182 0.232143,-3.40739 0.07943,-1.11481 0.15994,-2.22955 0.248256,-3.3437 0.08894,-1.09246 0.195339,-2.1834 0.299249,-3.27452 0.103634,-1.06673 0.209396,-2.13325 0.321352,-3.19915 0.109572,-1.04089 0.221435,-2.08154 0.340008,-3.12144 0.115832,-1.01357 0.234141,-2.02685 0.359733,-3.03925 0.122439,-0.984668 0.247552,-1.969002 0.38059,-2.952297 0.129389,-0.953968 0.261665,-1.907556 0.402619,-2.859894 0.135811,-0.915004 0.274153,-1.82966 0.425513,-2.742243 0.144042,-0.870579 0.291397,-1.74063 0.449998,-2.608693 0.152358,-0.821047 0.308534,-1.641404 0.476401,-2.459443 0.160793,-0.7812 0.326142,-1.561465 0.501886,-2.339456 0.167931,-0.74875 0.319151,-1.501201 0.493863,-2.248472 0.164748,-0.714732 0.332333,-1.428749 0.491397,-2.144781 0.159131,-0.685136 0.310952,-1.371854 0.469731,-2.057074 0.153816,-0.647875 0.317283,-1.293363 0.466984,-1.942209 0.147945,-0.612187 0.305957,-1.221835 0.449467,-1.835086 0.141541,-0.5778 0.276553,-1.157042 0.415419,-1.735497 0.120981,-0.546661 0.246065,-1.09246 0.385112,-1.634856 0.127675,-0.495625 0.260408,-0.989832 0.383291,-1.486691 0.119314,-0.44809 0.249513,-0.892921 0.375626,-1.339037 0.111266,-0.401323 0.233688,-0.799092 0.353042,-1.197946 0.102881,-0.353248 0.217329,-0.702498 0.329832,-1.052611 0.111636,-0.360672 0.231431,-0.719026 0.381222,-1.065993 0,0 6.171515,-2.846673 6.171515,-2.846673 z"
       inkscape:connector-curvature="0" />
  </g>
</svg>
