<?xml version="1.0" encoding="UTF-8" standalone="no"?>
<!-- Created with Inkscape (http://www.inkscape.org/) -->

<svg
   xmlns:dc="http://purl.org/dc/elements/1.1/"
   xmlns:cc="http://creativecommons.org/ns#"
   xmlns:rdf="http://www.w3.org/1999/02/22-rdf-syntax-ns#"
   xmlns:svg="http://www.w3.org/2000/svg"
   xmlns="http://www.w3.org/2000/svg"
   xmlns:sodipodi="http://sodipodi.sourceforge.net/DTD/sodipodi-0.dtd"
   xmlns:inkscape="http://www.inkscape.org/namespaces/inkscape"
   width="210mm"
   height="297mm"
   viewBox="0 0 210 297"
   version="1.1"
   id="svg8"
   inkscape:version="0.92.3 (2405546, 2018-03-11)"
   sodipodi:docname="emu.svg">
  <defs
     id="defs2" />
  <sodipodi:namedview
     id="base"
     pagecolor="#ffffff"
     bordercolor="#666666"
     borderopacity="1.0"
     inkscape:pageopacity="0.0"
     inkscape:pageshadow="2"
     inkscape:zoom="0.24748737"
     inkscape:cx="-3188.7359"
     inkscape:cy="435.67248"
     inkscape:document-units="mm"
     inkscape:current-layer="layer1"
     showgrid="false"
     inkscape:window-width="2558"
     inkscape:window-height="721"
     inkscape:window-x="0"
     inkscape:window-y="717"
     inkscape:window-maximized="0" />
  <metadata
     id="metadata5">
    <rdf:RDF>
      <cc:Work
         rdf:about="">
        <dc:format>image/svg+xml</dc:format>
        <dc:type
           rdf:resource="http://purl.org/dc/dcmitype/StillImage" />
        <dc:title></dc:title>
      </cc:Work>
    </rdf:RDF>
  </metadata>
  <g
     inkscape:label="Layer 1"
     inkscape:groupmode="layer"
     id="layer1">
    <path
       style="opacity:1;fill:#b3b3b3;fill-opacity:1;stroke:none;stroke-width:0.30000001;stroke-linejoin:round;stroke-miterlimit:4;stroke-dasharray:none;stroke-dashoffset:0;stroke-opacity:1"
       id="path4569"
       d="m -359.6464,240.24508 c -0.14928,-0.0188 -0.2984,-0.0388 -0.44794,-0.0557 -0.16425,-0.0244 -0.3279,-0.0513 -0.49091,-0.0829 -0.17655,-0.0437 -0.35547,-0.0763 -0.53321,-0.11471 -0.19638,-0.048 -0.39085,-0.10358 -0.58444,-0.16176 -0.21857,-0.0708 -0.43318,-0.15285 -0.65035,-0.22774 -0.2468,-0.089 -0.49569,-0.17195 -0.74345,-0.25827 -0.27361,-0.0913 -0.54544,-0.1878 -0.81928,-0.27845 -0.29028,-0.0969 -0.58648,-0.17419 -0.88416,-0.24448 -0.30697,-0.0739 -0.61685,-0.13364 -0.92771,-0.18852 -0.31787,-0.0559 -0.63921,-0.0853 -0.96115,-0.10398 -0.32578,-0.011 -0.6518,-0.0136 -0.97774,-0.0174 -0.33621,-0.004 -0.67223,-0.0185 -1.00822,-0.0304 -0.36253,-0.0129 -0.72509,-0.0245 -1.08768,-0.0357 -0.39124,-0.012 -0.78253,-0.0228 -1.17382,-0.0332 -0.41714,-0.0111 -0.83434,-0.021 -1.25153,-0.0308 -0.4335,-0.0102 -0.86704,-0.0195 -1.30056,-0.0286 -0.44802,-0.0106 -0.89617,-0.0153 -1.34409,-0.0293 -0.45331,-0.009 -0.9054,-0.0376 -1.3562,-0.0855 -0.43331,-0.0413 -0.8613,-0.1198 -1.28767,-0.20528 -0.41005,-0.0817 -0.81153,-0.19825 -1.2079,-0.33008 -0.39188,-0.12668 -0.77415,-0.27987 -1.15399,-0.43837 -0.38391,-0.16299 -0.77099,-0.31827 -1.15691,-0.47636 -0.39532,-0.15933 -0.78081,-0.34083 -1.16475,-0.52548 -0.38896,-0.18623 -0.77666,-0.37522 -1.16221,-0.56843 -0.39661,-0.19375 -0.78351,-0.4064 -1.17099,-0.61754 -0.38762,-0.21899 -0.77465,-0.43924 -1.15644,-0.66828 -0.38783,-0.23022 -0.77656,-0.45874 -1.16242,-0.69225 -0.39331,-0.23333 -0.78145,-0.47523 -1.17309,-0.71135 -0.40039,-0.24141 -0.81042,-0.46608 -1.22367,-0.68449 -0.42669,-0.22461 -0.86172,-0.43267 -1.29926,-0.63513 -0.44508,-0.20721 -0.89945,-0.39317 -1.3557,-0.57412 -0.45934,-0.18362 -0.92654,-0.34634 -1.39504,-0.50477 -0.46588,-0.15875 -0.93848,-0.29639 -1.41404,-0.42268 -0.46165,-0.1191 -0.92985,-0.20989 -1.39893,-0.29384 -0.47144,-0.0828 -0.94644,-0.14136 -1.42216,-0.19254 -0.4825,-0.0526 -0.96626,-0.0923 -1.45058,-0.12326 -0.4852,-0.0311 -0.9711,-0.0497 -1.45717,-0.0598 -0.49268,-0.0115 -0.98539,-0.0105 -1.47815,-0.007 -0.51048,0.005 -1.02102,0.005 -1.53146,0.0145 -0.52083,0.0115 -1.04161,0.0246 -1.56241,0.037 -0.53187,0.0126 -1.06379,0.0242 -1.59565,0.0362 -0.47715,0.0113 -0.95407,-0.002 -1.43053,-0.0271 -0.40462,-0.0225 -0.80737,-0.0663 -1.20888,-0.12003 -0.34337,-0.0495 -0.68307,-0.12063 -1.0206,-0.20014 -0.27826,-0.0638 -0.55232,-0.14287 -0.82391,-0.23043 -0.21455,-0.0673 -0.42307,-0.15052 -0.62741,-0.24394 -0.15912,-0.0728 -0.31107,-0.15993 -0.45067,-0.26541 -0.10583,-0.0815 -0.1956,-0.17946 -0.26969,-0.2902 -0.0568,-0.0875 -0.0842,-0.18457 -0.0909,-0.28767 -0.003,-0.10531 0.0332,-0.20113 0.0827,-0.29209 0.0644,-0.10262 0.14464,-0.19367 0.23103,-0.27811 0.42857,-0.37137 1.00431,-0.61939 1.47143,-0.88227 0.20791,-0.10799 0.42293,-0.19767 0.64637,-0.26726 0.18688,-0.0546 0.37862,-0.0869 0.57034,-0.11867 0.1964,-0.0281 0.39513,-0.0339 0.59322,-0.0299 0.21416,0.002 0.4272,0.0242 0.64101,0.033 0.23863,0.0119 0.47757,0.007 0.71636,0.005 0.26056,-0.003 0.52091,-0.0172 0.78126,-0.0281 0.2876,-0.0121 0.57465,-0.0346 0.86188,-0.0535 0.31276,-0.0205 0.62484,-0.0507 0.93718,-0.0771 0.33618,-0.0291 0.67032,-0.0756 1.00391,-0.12572 0.34758,-0.0513 0.69342,-0.11364 1.0387,-0.17847 0.36558,-0.0706 0.73136,-0.14056 1.09585,-0.21667 0.37867,-0.0762 0.75298,-0.17171 1.12805,-0.26348 0.38468,-0.0973 0.76735,-0.20209 1.15052,-0.30512 0.39571,-0.10883 0.7884,-0.2278 1.18041,-0.34904 0.41325,-0.12495 0.82346,-0.25955 1.23505,-0.38981 0.42717,-0.14263 0.85622,-0.27942 1.28685,-0.41118 0.44101,-0.13737 0.8804,-0.27983 1.32046,-0.42024 0.45564,-0.14504 0.91125,-0.29 1.36887,-0.42875 0.47459,-0.13924 0.94919,-0.27846 1.42402,-0.41689 0.48754,-0.1422 0.97787,-0.2744 1.46917,-0.40292 0.50279,-0.13042 1.00442,-0.26511 1.50773,-0.39356 0.51221,-0.12975 1.0232,-0.26412 1.5358,-0.39231 0.52528,-0.13108 1.05281,-0.25299 1.58099,-0.37172 0.53949,-0.1167 1.07739,-0.24036 1.61624,-0.35977 0.54184,-0.12643 1.08426,-0.25015 1.62764,-0.36975 0.55411,-0.12037 1.10963,-0.23401 1.66401,-0.35311 0.56007,-0.12235 1.11832,-0.25263 1.6768,-0.382 0.56168,-0.1296 1.12194,-0.2652 1.68365,-0.39476 0.56552,-0.13089 1.13123,-0.26126 1.69566,-0.39676 0.56629,-0.13658 1.13361,-0.26862 1.69984,-0.4054 0.56288,-0.13913 1.12364,-0.28654 1.68479,-0.43251 0.56684,-0.14772 1.13596,-0.2866 1.70587,-0.42199 0.5759,-0.13678 1.15176,-0.27387 1.72689,-0.41384 0.58314,-0.13949 1.16535,-0.28262 1.74773,-0.42529 0.58097,-0.14899 1.16268,-0.29508 1.74551,-0.43666 0.59052,-0.14454 1.18451,-0.27426 1.77667,-0.41168 0.5937,-0.13569 1.18634,-0.27568 1.77912,-0.41528 0.59724,-0.1409 1.19636,-0.27371 1.79617,-0.40329 0.60989,-0.12823 1.21979,-0.25662 1.8297,-0.3848 0.6195,-0.13034 1.24053,-0.25329 1.86209,-0.37333 0.62955,-0.1213 1.26047,-0.23521 1.89185,-0.34654 0.63317,-0.11429 1.26923,-0.21126 1.90547,-0.30648 0.63884,-0.0952 1.27855,-0.18428 1.91852,-0.27141 0.6467,-0.0868 1.29355,-0.17267 1.9416,-0.24868 0.64695,-0.0741 1.29465,-0.14138 1.94246,-0.2075 0.65257,-0.0653 1.30538,-0.12773 1.95755,-0.19672 0.6536,-0.0668 1.30656,-0.1394 1.95942,-0.21302 0.66008,-0.0748 1.32062,-0.14577 1.98131,-0.21509 0.66709,-0.0698 1.33464,-0.13558 2.00231,-0.19988 0.67363,-0.0647 1.3476,-0.12566 2.02171,-0.18527 0.6731,-0.0601 1.34739,-0.1059 2.02152,-0.15253 0.67659,-0.0466 1.3534,-0.0903 2.03026,-0.13305 0.67886,-0.0457 1.35831,-0.0811 2.03795,-0.11276 0.67564,-0.0339 1.35162,-0.0574 2.02779,-0.0774 0.67241,-0.0224 1.34501,-0.0349 2.01769,-0.0441 0.66796,-0.0121 1.33604,-0.0101 2.00408,-0.009 0.65802,0.002 1.3157,0.0231 1.97311,0.0498 0.65283,0.0269 1.30508,0.0663 1.95744,0.10243 0.64669,0.0377 1.29251,0.0876 1.93826,0.13875 0.64788,0.048 1.29418,0.11383 1.9405,0.17897 0.65493,0.0657 1.30898,0.14009 1.9634,0.2106 0.66138,0.0712 1.3232,0.13842 1.98517,0.20409 0.66831,0.0661 1.33701,0.12841 2.00583,0.1893 0.67405,0.0594 1.34726,0.12801 2.01996,0.20108 0.66733,0.0716 1.33337,0.15466 1.99898,0.24056 0.66887,0.0872 1.33821,0.17095 2.00779,0.25258 0.67281,0.0784 1.34504,0.16127 2.01708,0.24578 0.66643,0.0845 1.33244,0.17266 1.99763,0.26646 0.6604,0.0965 1.32191,0.18516 1.98236,0.28134 0.65487,0.0947 1.30884,0.19569 1.9617,0.30344 0.64487,0.10467 1.2877,0.22105 1.93122,0.33358 0.63749,0.11609 1.27484,0.23271 1.91135,0.35409 0.63445,0.11824 1.26812,0.24037 1.9017,0.36305 0.63534,0.11886 1.26783,0.25217 1.90055,0.38397 0.62682,0.13304 1.25174,0.27467 1.8768,0.41563 0.62796,0.1396 1.25589,0.27939 1.8828,0.42366 0.6333,0.14514 1.26701,0.28839 1.89833,0.44211 0.62907,0.15241 1.2564,0.31176 1.88494,0.46635 0.6308,0.15407 1.26027,0.31335 1.89127,0.46662 0.63437,0.15597 1.26844,0.31306 1.90058,0.47789 0.6367,0.17208 1.2736,0.34342 1.91003,0.5165 0.64035,0.17187 1.28045,0.34459 1.91897,0.52314 0.63063,0.17763 1.2591,0.36274 1.88963,0.54079 0.62547,0.18133 1.25182,0.3597 1.87708,0.54182 0.62193,0.17643 1.24172,0.36018 1.8604,0.54773 0.60952,0.18887 1.21774,0.38183 1.82483,0.57841 0.621,0.1985 1.23767,0.41021 1.85676,0.6146 0.62123,0.19807 1.23599,0.4155 1.85026,0.63402 0.60461,0.21204 1.20432,0.43791 1.80303,0.666 0.59319,0.22443 1.18617,0.44943 1.77982,0.67267 0.59261,0.2186 1.18579,0.43557 1.77373,0.66653 0.57533,0.22758 1.14292,0.47327 1.70332,0.73532 0.56277,0.26396 1.12099,0.53756 1.67665,0.81614 0.5457,0.27891 1.08869,0.56313 1.62585,0.85816 0.53006,0.28731 1.04946,0.59357 1.56966,0.89818 0.51218,0.30558 1.02712,0.60649 1.53845,0.91351 0.50737,0.30499 1.01377,0.61157 1.52079,0.91712 0.50544,0.30418 1.01177,0.60671 1.52363,0.89999 0.51231,0.29725 1.02726,0.58998 1.54498,0.87769 0.52876,0.29491 1.05889,0.58735 1.59305,0.87239 0.54452,0.28459 1.08752,0.57209 1.63259,0.85562 0.54829,0.28073 1.09944,0.55593 1.65169,0.8288 0.54721,0.27903 1.10142,0.5438 1.65395,0.81202 0.55204,0.26519 1.10254,0.53353 1.65646,0.79477 0.55367,0.26548 1.10826,0.52901 1.66296,0.79234 0.56227,0.26957 1.13227,0.52235 1.70162,0.77646 0.57606,0.25216 1.15037,0.5082 1.72368,0.76657 0.56435,0.26187 1.13144,0.51768 1.70049,0.76915 0.56056,0.25309 1.12411,0.49948 1.68668,0.74807 0.55936,0.24686 1.11154,0.50935 1.66608,0.76671 0.55214,0.26208 1.10741,0.51742 1.66178,0.77471 0.55413,0.25463 1.10994,0.50558 1.66392,0.76052 0.55218,0.25031 1.10204,0.50561 1.65102,0.76284 0.54511,0.25692 1.09228,0.50941 1.63851,0.76392 0.5455,0.25517 1.0959,0.4996 1.64505,0.74674 0.54505,0.24796 1.0861,0.50453 1.63076,0.75335 0.54399,0.25216 1.08864,0.50293 1.63516,0.74956 0.55343,0.24472 1.1063,0.49072 1.66195,0.73039 0.55959,0.24106 1.12503,0.46805 1.69248,0.68984 0.56793,0.22803 1.13868,0.44884 1.71175,0.66361 0.57881,0.21643 1.16232,0.41989 1.74737,0.61872 0.58561,0.20089 1.17769,0.38186 1.77087,0.55885 0.59566,0.1771 1.19451,0.34308 1.79437,0.5053 0.60755,0.16387 1.21773,0.31773 1.82874,0.46809 0.61781,0.15076 1.23698,0.29599 1.85837,0.43125 0.62022,0.1332 1.24255,0.25621 1.86534,0.37672 0.62291,0.12601 1.24614,0.25041 1.87013,0.371 0.62959,0.12275 1.26157,0.23272 1.89212,0.35032 0.63147,0.11974 1.26371,0.23529 1.89651,0.34774 0.63132,0.10793 1.26442,0.20504 1.89772,0.30057 0.63953,0.0962 1.27993,0.18644 1.92061,0.27468 0.64,0.0837 1.28121,0.15779 1.9225,0.23087 0.64749,0.0736 1.29549,0.14259 1.94364,0.21007 0.65545,0.0681 1.31131,0.13207 1.9673,0.19464 0.65594,0.0632 1.31318,0.11179 1.97026,0.16118 0.65711,0.0455 1.31338,0.10167 1.9698,0.15597 0.65912,0.0546 1.31846,0.10641 1.97791,0.15695 0.66608,0.0509 1.3324,0.0989 1.99879,0.14573 0.67267,0.0472 1.34554,0.0916 2.01847,0.13507 0.67146,0.0485 1.3427,0.0997 2.0141,0.14892 0.67184,0.0455 1.34282,0.1021 2.01395,0.15674 0.66737,0.0536 1.33389,0.11723 2.00071,0.17717 0.66998,0.0602 1.34025,0.11709 2.01062,0.17268 0.6647,0.0583 1.33016,0.10607 1.99596,0.14977 0.64831,0.0403 1.29734,0.0656 1.94648,0.0879 0.62929,0.0195 1.25888,0.024 1.88835,0.0128 0.62053,-0.0122 1.24085,-0.0311 1.86076,-0.0616 0.60597,-0.035 1.211,-0.0848 1.8153,-0.14141 0.59929,-0.0548 1.19766,-0.11849 1.79594,-0.18332 0.58496,-0.062 1.16646,-0.1502 1.7479,-0.23827 0.56036,-0.0861 1.11607,-0.19863 1.67217,-0.30811 0.54531,-0.11113 1.08967,-0.22656 1.63191,-0.35189 0.53806,-0.12553 1.074,-0.25996 1.61113,-0.38944 0.53027,-0.13501 1.06232,-0.2629 1.59249,-0.39824 0.52604,-0.12849 1.04526,-0.2818 1.56399,-0.43661 0.50995,-0.15054 1.01717,-0.3102 1.52299,-0.47401 0.48528,-0.15576 0.96676,-0.32278 1.44559,-0.49728 0.47207,-0.16819 0.94021,-0.34681 1.40868,-0.52464 0.45145,-0.17717 0.90003,-0.36198 1.34358,-0.55811 0.42963,-0.19348 0.85738,-0.39137 1.27905,-0.6017 0.41562,-0.20357 0.82059,-0.42783 1.2285,-0.64622 0.4049,-0.21107 0.80383,-0.43321 1.20445,-0.65219 0.39347,-0.211 0.78169,-0.43145 1.17023,-0.65131 -0.12952,0.0751 0.5115,-0.29109 0.38424,-0.21725 -0.25916,0.15037 -1.03804,0.59902 -0.77871,0.44896 0.38546,-0.22303 0.77114,-0.44567 1.15707,-0.66789 0.0634,-0.0365 0.25414,-0.14495 0.19087,-0.10825 -0.2589,0.15013 -0.5185,0.29905 -0.77774,0.44858 2.64432,-1.52537 0.72263,-0.41639 0.38138,-0.22093 -0.064,0.0367 0.12746,-0.0742 0.19103,-0.11165 0.19156,-0.11274 0.38229,-0.22688 0.57391,-0.33953 0.38734,-0.22357 0.77425,-0.44789 1.16202,-0.67072 1.40325,-0.80637 -1.38339,0.82019 0.0111,-0.007 0.38945,-0.23505 0.77313,-0.47944 1.15644,-0.72431 0.38324,-0.24372 0.75701,-0.50174 1.12308,-0.77043 0.35285,-0.2675 0.70647,-0.5337 1.06854,-0.78862 0.34998,-0.24437 0.70415,-0.48265 1.06338,-0.71318 0.65827,-0.41993 1.33896,-0.80303 2.0148,-1.19346 0.33098,-0.18369 0.67005,-0.35231 1.01555,-0.50681 0.32105,-0.14659 0.64909,-0.27615 0.97876,-0.40175 0.31018,-0.1123 0.62441,-0.21374 0.94285,-0.29988 0.30692,-0.0811 0.6188,-0.14176 0.93035,-0.20199 0.32528,-0.0605 0.65333,-0.10261 0.98173,-0.14169 0.33533,-0.0408 0.67115,-0.0761 1.00826,-0.098 0.33278,-0.0173 0.66564,-0.0213 0.99849,-0.006 0.32921,0.014 0.6568,0.0526 0.98204,0.10427 0.32216,0.048 0.63953,0.12037 0.955,0.20032 0.30372,0.0812 0.60143,0.18304 0.89655,0.29093 0.29009,0.1075 0.57595,0.22617 0.86035,0.34781 0.28151,0.12558 0.56157,0.25431 0.84176,0.38276 0.28309,0.13299 0.56313,0.27223 0.83993,0.41782 0.28706,0.14696 0.57148,0.29885 0.85553,0.45152 0.29828,0.15548 0.59212,0.31917 0.88523,0.48413 0.29167,0.16954 0.58253,0.34059 0.87028,0.51672 0.2905,0.17518 0.5758,0.35855 0.85775,0.54713 0.28865,0.19393 0.58241,0.38005 0.87133,0.57355 0.29769,0.19987 0.59493,0.4004 0.8932,0.59941 0.30827,0.2074 0.61294,0.42001 0.91806,0.632 0.31834,0.21408 0.63125,0.43583 0.94274,0.65969 0.30692,0.21449 0.61086,0.43315 0.91382,0.65318 0.24948,0.1805 0.50126,0.35758 0.75494,0.53209 0.19757,0.13445 0.38886,0.27796 0.58771,0.41048 0.15382,0.10012 0.31357,0.19008 0.47843,0.2706 0.13272,0.0691 0.27021,0.1279 0.40639,0.18956 0.1149,0.0475 0.22938,0.0972 0.35129,0.12346 0.0903,0.0155 0.17993,0.033 0.26876,0.0561 0.0648,0.0176 0.12631,0.0422 0.19102,0.0604 0.0616,0.0229 0.10317,0.0639 0.14078,0.11572 0.0249,0.0353 0.0335,0.077 0.0452,0.11767 -0.11004,0.47977 -0.83922,0.55326 -1.29688,0.69526 -0.12425,0.0394 -0.24977,0.0766 -0.37854,0.0977 -0.12523,0.0228 -0.25181,0.0301 -0.37866,0.0365 -0.13734,0.0124 -0.27501,7.9e-4 -0.4125,0.006 -0.15776,-5.3e-4 -0.31514,-0.005 -0.47254,-0.0157 -0.19293,-0.0129 -0.38598,-0.0239 -0.57907,-0.0343 -0.22361,-0.0154 -0.44751,-0.0192 -0.67156,-0.0212 -0.23855,-0.004 -0.47633,-0.0222 -0.71414,-0.0403 -0.25282,-0.016 -0.50477,-0.0408 -0.7567,-0.0669 -0.26124,-0.0263 -0.52109,-0.0647 -0.78143,-0.0985 -0.26546,-0.0352 -0.5326,-0.0563 -0.79937,-0.0789 -0.27566,-0.0234 -0.5515,-0.0446 -0.82733,-0.0659 -0.27607,-0.0263 -0.55165,-0.0562 -0.82655,-0.0926 -0.27253,-0.0429 -0.54455,-0.0889 -0.81684,-0.13336 -0.28011,-0.0473 -0.55749,-0.10874 -0.83538,-0.16738 -0.28601,-0.0558 -0.56708,-0.1335 -0.84922,-0.20576 -0.28339,-0.0729 -0.56584,-0.14977 -0.84397,-0.2408 -0.27814,-0.0884 -0.55273,-0.18697 -0.82188,-0.29976 -0.26644,-0.11864 -0.53844,-0.22398 -0.80714,-0.33722 -0.27643,-0.11802 -0.55541,-0.22983 -0.83588,-0.33785 -0.28413,-0.11202 -0.5741,-0.20703 -0.86709,-0.29273 -0.28921,-0.0886 -0.58392,-0.15591 -0.87988,-0.21725 -0.28722,-0.0572 -0.57832,-0.0888 -0.87058,-0.10287 -0.28049,-0.0113 -0.56032,0.0154 -0.83829,0.05 -0.27068,0.0377 -0.53656,0.10307 -0.79805,0.18145 -0.25393,0.0788 -0.49965,0.18004 -0.74115,0.29063 -0.23787,0.12103 -0.47447,0.24506 -0.70892,0.37266 -1.22982,0.70071 1.23166,-0.72185 0.14955,-0.0851 -0.24847,0.14471 -0.49027,0.30006 -0.72937,0.45964 -0.24591,0.1651 -0.48175,0.34388 -0.71363,0.52793 -0.24223,0.19763 -0.4877,0.3912 -0.73175,0.58656 -0.25271,0.20699 -0.51707,0.39896 -0.77841,0.59474 -0.26529,0.20173 -0.5314,0.40216 -0.80268,0.5958 -0.27873,0.20094 -0.55883,0.40001 -0.84121,0.59578 -0.29779,0.2027 -0.60119,0.39692 -0.90557,0.58949 -0.3206,0.20443 -0.6315,0.42354 -0.94329,0.64103 -0.32257,0.23139 -0.65084,0.45458 -0.97916,0.67768 -0.34121,0.22789 -0.6848,0.45229 -1.03226,0.67055 -0.36605,0.22851 -0.73509,0.4522 -1.103,0.6777 -0.70161,0.42515 -1.41639,0.82806 -2.13266,1.22786 -0.4015,0.22575 -0.81075,0.43709 -1.22311,0.64217 -0.42674,0.21141 -0.86104,0.4069 -1.29758,0.59704 -0.44517,0.1953 -0.89909,0.36936 -1.35457,0.53884 -0.45943,0.17252 -0.92618,0.32422 -1.39401,0.47207 -0.47626,0.15058 -0.95617,0.28885 -1.43854,0.4184 -0.49057,0.13065 -0.98391,0.25051 -1.47795,0.36725 -0.50992,0.12007 -1.02186,0.23122 -1.53441,0.33943 -0.52225,0.11272 -1.04811,0.20726 -1.57422,0.29984 -0.53623,0.0939 -1.07364,0.18073 -1.61139,0.26536 -0.54485,0.0916 -1.08984,0.18222 -1.63537,0.26965 -0.55161,0.0888 -1.10564,0.16166 -1.65956,0.23434 -0.56055,0.073 -1.12172,0.14109 -1.68288,0.20918 -0.56018,0.0725 -1.12235,0.12624 -1.68523,0.1723 -0.57466,0.0457 -1.14969,0.0867 -1.72477,0.12697 -0.5829,0.0439 -1.16674,0.0728 -1.75053,0.10162 -0.57697,0.0324 -1.15372,0.069 -1.73084,0.0985 -0.57759,0.028 -1.15535,0.0521 -1.73313,0.0758 -0.58099,0.0237 -1.16205,0.0458 -1.74307,0.0688 -0.54656,0.0213 -1.09311,0.0429 -1.63969,0.0638 -0.55653,0.0278 -1.11341,0.0354 -1.67052,0.0377 -0.58573,0.002 -1.17147,0.002 -1.7572,0.002 -0.59416,-0.003 -1.18823,0.007 -1.78229,0.0157 -0.60173,0.009 -1.20345,0.0183 -1.80518,0.027 -0.6137,0.009 -1.2274,0.0173 -1.84111,0.0253 -0.63507,0.008 -1.27014,0.0159 -1.90522,0.0234 -0.64261,0.0126 -1.28512,0.0296 -1.92765,0.0455 -0.64968,0.016 -1.29939,0.0312 -1.94911,0.046 -0.65744,0.0149 -1.31491,0.029 -1.97238,0.0427 -0.66465,0.0138 -1.32932,0.0268 -1.99399,0.0396 -0.66744,0.0127 -1.33489,0.0247 -2.00234,0.0367 -0.6616,0.015 -1.32327,0.021 -1.98502,0.0235 -0.725,0.0179 -1.44962,0.0484 -2.1743,0.076 -0.7419,0.0283 -1.48386,0.0554 -2.22584,0.0818 -0.74258,0.0254 -1.48506,0.054 -2.22783,0.0734 -0.73517,0.0163 -1.47034,0.0337 -2.20564,0.0424 -0.73029,0.01 -1.4606,0.008 -2.19092,0.004 -0.73361,-10e-4 -1.46708,-0.0161 -2.20053,-0.0299 -0.7251,-0.013 -1.44993,-0.0379 -2.17479,-0.0601 -0.71968,-0.0186 -1.43894,-0.0494 -2.15822,-0.079 -0.70214,-0.0283 -1.40376,-0.0681 -2.10548,-0.10526 -0.6805,-0.0348 -1.36034,-0.0816 -2.04031,-0.12538 -0.66644,-0.044 -1.33332,-0.0813 -1.99963,-0.12726 -0.65294,-0.0459 -1.30592,-0.0895 -1.95828,-0.14308 -0.64754,-0.0533 -1.29508,-0.10607 -1.94211,-0.16528 -0.6479,-0.0607 -1.29546,-0.1257 -1.94232,-0.19671 -0.64696,-0.0731 -1.29407,-0.14487 -1.9414,-0.21454 -0.64852,-0.0656 -1.2959,-0.14152 -1.94346,-0.21586 -0.62348,-0.0722 -1.24714,-0.14292 -1.87089,-0.21277 -0.6111,-0.0715 -1.22383,-0.12739 -1.83658,-0.18242 -0.64684,-0.0679 -1.29394,-0.13367 -1.94025,-0.20649 -0.64144,-0.0728 -1.28264,-0.14693 -1.92561,-0.20498 -0.61116,-0.0504 -1.22305,-0.0908 -1.83563,-0.11884 -0.5717,-0.0303 -1.14303,-0.038 -1.71516,-0.0195 -0.54042,0.0121 -1.07806,0.0685 -1.61609,0.11575 -0.50277,0.036 -1.00244,0.10387 -1.50079,0.17793 -0.4764,0.0731 -0.94461,0.18577 -1.42025,0.26254 -0.46693,0.0745 -0.93174,0.15992 -1.39681,0.24561 -0.43692,0.0878 -0.88008,0.14283 -1.32295,0.1911 -0.40185,0.0517 -0.80347,0.10125 -1.20358,0.16532 -0.36627,0.0608 -0.73361,0.11394 -1.10004,0.17347 -0.33971,0.039 -0.67758,0.0943 -1.01473,0.15138 -0.32138,0.0517 -0.64287,0.10463 -0.96698,0.13587 -0.29503,0.0605 -0.592,0.10915 -0.88873,0.16047 -0.26841,0.0436 -0.53461,0.0996 -0.80197,0.1492 -0.24348,0.0279 -0.48385,0.0736 -0.72461,0.11846 -0.22223,0.0557 -0.44924,0.0876 -0.67312,0.13455 -0.21381,0.0468 -0.42939,0.0878 -0.64092,0.14414 -0.22188,0.06 -0.44155,0.12733 -0.6621,0.19188 -0.24401,0.0732 -0.48906,0.14332 -0.73224,0.21926 -0.25737,0.0786 -0.51461,0.15765 -0.77233,0.23515 -0.25726,0.0774 -0.51567,0.15067 -0.77549,0.21903 -0.28643,0.0748 -0.57522,0.13984 -0.86452,0.20233 -0.31365,0.0705 -0.63122,0.12059 -0.94824,0.17292 -0.33628,0.0648 -0.67572,0.10003 -1.01708,0.12287 -0.39017,0.0254 -0.78079,0.0413 -1.17175,0.0453 -0.40666,0.004 -0.81336,-0.003 -1.21973,-0.0179 -0.40412,-0.0157 -0.80803,-0.0351 -1.21164,-0.0607 -0.41415,-0.028 -0.82676,-0.0732 -1.24009,-0.11036 -0.40288,-0.0323 -0.80517,-0.0705 -1.20566,-0.12509 -0.39721,-0.0543 -0.79365,-0.11345 -1.18838,-0.18359 -0.39708,-0.0649 -0.78718,-0.16398 -1.17805,-0.25794 -0.40099,-0.10213 -0.80218,-0.2033 -1.20243,-0.30831 -0.43271,-0.12077 -0.86428,-0.24556 -1.29648,-0.36817 -0.45002,-0.13298 -0.90081,-0.26328 -1.35056,-0.39717 -0.46102,-0.13668 -0.92428,-0.26555 -1.38627,-0.39891 -0.4667,-0.13163 -0.93263,-0.26588 -1.39666,-0.40675 -0.43143,-0.12915 -0.86122,-0.26388 -1.29423,-0.38772 -0.40923,-0.11688 -0.81505,-0.24573 -1.22643,-0.35486 -0.38483,-0.10268 -0.77419,-0.18721 -1.1589,-0.29028 -0.37613,-0.10385 -0.75186,-0.20921 -1.12853,-0.31116 -0.38819,-0.10361 -0.77848,-0.19899 -1.16795,-0.29765 -0.39759,-0.10967 -0.79811,-0.20806 -1.19877,-0.30573 -0.39172,-0.0957 -0.78015,-0.20285 -1.16673,-0.31731 -0.38457,-0.1145 -0.77031,-0.22489 -1.15655,-0.33355 -0.3856,-0.10695 -0.76888,-0.222 -1.15417,-0.33013 -0.39557,-0.11171 -0.79057,-0.2254 -1.18726,-0.33315 -0.41754,-0.11438 -0.83902,-0.21325 -1.25862,-0.31959 -0.43765,-0.11201 -0.87387,-0.22942 -1.31223,-0.33879 -0.51681,-0.11979 -1.03756,-0.22173 -1.55829,-0.32282 -0.54867,-0.1061 -1.09876,-0.20463 -1.64925,-0.30069 -0.55883,-0.0977 -1.1175,-0.19666 -1.67513,-0.30099 -0.55632,-0.10277 -1.11075,-0.21533 -1.66571,-0.32511 -0.55415,-0.1062 -1.10752,-0.21637 -1.66093,-0.32634 -0.56036,-0.10783 -1.12014,-0.21855 -1.67981,-0.32983 -0.56539,-0.11272 -1.12882,-0.23408 -1.69055,-0.36367 -0.56939,-0.13021 -1.13803,-0.26355 -1.70765,-0.39277 -0.58579,-0.13771 -1.1724,-0.27182 -1.75993,-0.40193 -0.59907,-0.12926 -1.19817,-0.2583 -1.79732,-0.38719 -0.61002,-0.13223 -1.22237,-0.25325 -1.8339,-0.37819 -0.62495,-0.12847 -1.25098,-0.25154 -1.87706,-0.3742 -0.62918,-0.12973 -1.26148,-0.24221 -1.895,-0.34826 -0.67389,-0.1103 -1.34641,-0.22887 -2.01972,-0.34261 -0.66969,-0.10904 -1.33795,-0.22648 -2.00676,-0.34065 -0.66982,-0.11438 -1.3407,-0.22256 -2.01192,-0.32835 -0.67604,-0.10631 -1.353,-0.20653 -2.03028,-0.30459 -0.68196,-0.0985 -1.3647,-0.19141 -2.04769,-0.28232 -0.67794,-0.0963 -1.35583,-0.19239 -2.03507,-0.27914 -0.65646,-0.0863 -1.31424,-0.16103 -1.9725,-0.2319 -0.61288,-0.0713 -1.22822,-0.11717 -1.84382,-0.15684 -0.57515,-0.0374 -1.15166,-0.0397 -1.72771,-0.0322 -0.53647,0.009 -1.07145,0.0491 -1.6057,0.096 -0.50432,0.0513 -1.0092,0.0976 -1.51249,0.15872 -0.48202,0.0601 -0.96232,0.13345 -1.44309,0.20276 -0.47315,0.0632 -0.94298,0.14775 -1.4133,0.22862 -0.46913,0.087 -0.93818,0.17425 -1.40745,0.26055 -0.46215,0.0825 -0.92366,0.16844 -1.38475,0.25671 -0.45043,0.0833 -0.90128,0.16466 -1.35091,0.25232 -0.45916,0.0914 -0.91927,0.17792 -1.37993,0.2615 -0.47493,0.0853 -0.94867,0.17721 -1.42336,0.26386 -0.48635,0.088 -0.97147,0.1827 -1.45759,0.27213 -0.50191,0.0921 -1.00502,0.1774 -1.50852,0.26029 -0.51683,0.0858 -1.03634,0.1541 -1.55575,0.22204 -0.52866,0.0743 -1.0573,0.14902 -1.5862,0.22174 -0.52808,0.0713 -1.05487,0.15211 -1.58224,0.22858 -0.53758,0.0855 -1.07577,0.167 -1.61472,0.24337 -0.56317,0.0834 -1.12591,0.1692 -1.68788,0.26016 -0.56277,0.0882 -1.12464,0.18167 -1.68646,0.27571 -0.557,0.0968 -1.11257,0.2014 -1.66899,0.30142 -0.52991,0.0957 -1.05471,0.21654 -1.58004,0.33402 -0.51398,0.12335 -1.02912,0.24174 -1.54075,0.37468 -0.49347,0.11845 -0.98324,0.25161 -1.47529,0.37573 -0.45934,0.11847 -0.91876,0.23677 -1.37617,0.36249 -0.45697,0.12763 -0.91583,0.24813 -1.37571,0.36465 -0.46352,0.12366 -0.92866,0.24125 -1.39152,0.36728 -0.46109,0.12318 -0.91969,0.25527 -1.37985,0.38177 -0.47594,0.13021 -0.95152,0.26159 -1.4287,0.38723 -0.49374,0.12823 -0.98944,0.24855 -1.48389,0.37393 -0.50837,0.13038 -1.01925,0.25046 -1.53101,0.36669 -0.52493,0.11376 -1.04503,0.24829 -1.56676,0.37564 -0.51792,0.12205 -1.03814,0.23402 -1.5585,0.3451 -0.51321,0.11213 -1.02902,0.21165 -1.54318,0.3191 -0.517,0.10798 -1.03185,0.22588 -1.54649,0.34439 -0.52605,0.11693 -1.05056,0.24073 -1.57668,0.35733 -0.51038,0.11457 -1.02015,0.23184 -1.53072,0.34566 -0.50456,0.11594 -1.00899,0.23184 -1.51067,0.35972 -0.50747,0.13164 -1.01065,0.27867 -1.51373,0.4259 -0.51046,0.14957 -1.02089,0.2995 -1.52717,0.46264 -0.49978,0.16237 -0.99717,0.33192 -1.49614,0.49661 -0.49964,0.17202 -1.00124,0.33817 -1.50458,0.49899 -0.50811,0.1646 -1.01463,0.33395 -1.52183,0.50125 -0.5143,0.15974 -1.0228,0.33632 -1.53006,0.51693 -0.51348,0.18602 -1.03317,0.354 -1.54956,0.53154 -0.51684,0.17902 -1.03622,0.35061 -1.55506,0.52371 -0.53078,0.17318 -1.06162,0.34627 -1.59285,0.51815 -0.54139,0.17182 -1.08243,0.34478 -1.62512,0.51258 -0.54682,0.17722 -1.0972,0.34298 -1.64568,0.51491 -0.55264,0.17512 -1.10784,0.34186 -1.66439,0.50408 -0.56653,0.1647 -1.13604,0.31877 -1.70648,0.46916 -0.57214,0.15285 -1.14253,0.31184 -1.71334,0.46948 -0.57005,0.15269 -1.13816,0.31228 -1.70664,0.47064 -0.56113,0.15261 -1.12197,0.30638 -1.68294,0.45958 -0.54856,0.14991 -1.09643,0.30244 -1.64261,0.46085 -0.53904,0.16526 -1.0786,0.32864 -1.61986,0.48649 -0.54732,0.15848 -1.09357,0.32059 -1.64176,0.47609 -0.55047,0.16256 -1.10229,0.32036 -1.6555,0.47334 -0.55817,0.1547 -1.11691,0.30737 -1.67434,0.46479 -0.55914,0.15579 -1.11739,0.31467 -1.67595,0.47255 -0.55348,0.15983 -1.10985,0.3093 -1.66473,0.46405 -0.54872,0.15402 -1.09551,0.31472 -1.64433,0.46839 -0.55055,0.16063 -1.10239,0.31663 -1.65558,0.46784 -0.5634,0.15362 -1.12943,0.29726 -1.69632,0.43738 -0.56769,0.14761 -1.13779,0.28573 -1.70575,0.43236 -0.55782,0.14187 -1.11381,0.29067 -1.67018,0.43812 -0.5552,0.15034 -1.10744,0.31158 -1.6592,0.474 -0.55322,0.16084 -1.10625,0.32234 -1.65751,0.48975 -0.54837,0.16354 -1.09141,0.34414 -1.63571,0.52056 -0.5452,0.17619 -1.08921,0.35595 -1.63557,0.52854 -0.55404,0.17327 -1.11101,0.33686 -1.66661,0.50506 -0.56192,0.17238 -1.1243,0.34287 -1.68849,0.50768 -0.56677,0.16444 -1.13483,0.32428 -1.70395,0.48019 -0.55729,0.15402 -1.1163,0.30163 -1.67637,0.44519 -0.55435,0.14052 -1.10871,0.28099 -1.66587,0.40997 -0.54901,0.12301 -1.09775,0.24681 -1.64769,0.36555 -0.54555,0.10983 -1.08786,0.2345 -1.63026,0.3587 -0.53157,0.13398 -1.06735,0.24971 -1.60144,0.37288 -0.51533,0.12239 -1.03455,0.22772 -1.55062,0.34676 -0.49535,0.1126 -0.99245,0.2168 -1.49026,0.318 -0.46652,0.0997 -0.93213,0.20463 -1.39669,0.31327 -0.43846,0.0964 -0.87603,0.19674 -1.31302,0.29964 -0.4168,0.0952 -0.83521,0.18277 -1.2519,0.27863 -0.37693,0.0914 -0.75496,0.1778 -1.13231,0.26736 -0.3552,0.0833 -0.70977,0.16852 -1.06643,0.24527 -0.32983,0.0753 -0.65863,0.15484 -0.98801,0.23193 -0.31559,0.0755 -0.63185,0.1482 -0.94901,0.21688 -0.32633,0.069 -0.65113,0.14518 -0.97596,0.22096 -0.30486,0.0747 -0.61069,0.14554 -0.91734,0.21262 -0.32298,0.0654 -0.64408,0.13964 -0.96554,0.21206 -0.31534,0.0691 -0.62995,0.14131 -0.94555,0.20913 -0.30966,0.0665 -0.6197,0.13083 -0.92866,0.20066 -0.30445,0.0724 -0.61089,0.1361 -0.91826,0.19481 -0.3274,0.0617 -0.65638,0.11351 -0.9865,0.15793 -0.3565,0.0475 -0.714,0.0858 -1.07206,0.11948 -0.33264,0.0405 -0.66641,0.0698 -1.00016,0.0994 -0.3253,0.0196 -0.64867,0.0597 -0.97303,0.0904 -0.29318,0.0273 -0.58785,0.0412 -0.88228,0.0425 -0.26731,0.007 -0.53469,-0.0103 -0.80105,-0.0313 -0.2382,-0.0233 -0.47413,-0.0648 -0.70916,-0.10922 -0.19706,-0.0528 -0.38349,-0.13529 -0.56528,-0.22649 -0.15209,-0.0761 -0.29131,-0.17396 -0.41815,-0.28675 -0.10851,-0.10644 -0.2127,-0.21799 -0.30057,-0.34221 -0.0804,-0.10637 -0.15245,-0.21863 -0.21376,-0.33698 -0.057,-0.10887 -0.10006,-0.22357 -0.12625,-0.34351 -0.0196,-0.10567 -0.013,-0.21219 0.008,-0.31681 0.0212,-0.10599 0.0704,-0.20248 0.11795,-0.29848 0.0449,-0.0929 0.0921,-0.18497 0.14089,-0.27596 0.0584,-0.10871 0.14047,-0.19518 0.23609,-0.27141 0.51938,-0.36298 1.08736,-0.64486 1.66812,-0.89188 0.21071,-0.0938 0.43206,-0.15896 0.64968,-0.23397 0.2525,-0.0828 0.50742,-0.15872 0.76296,-0.23175 0.28466,-0.0778 0.57044,-0.15116 0.85328,-0.23558 0.28945,-0.0763 0.5774,-0.15756 0.86474,-0.24133 0.30363,-0.0925 0.61616,-0.1502 0.92612,-0.21677 0.3312,-0.0671 0.66056,-0.1428 0.99097,-0.21371 0.33821,-0.0761 0.67177,-0.1724 1.00322,-0.27371 0.32028,-0.10279 0.63682,-0.21659 0.95525,-0.32491 0.323,-0.0995 0.63532,-0.22809 0.94678,-0.35835 0.32663,-0.13277 0.65297,-0.26606 0.97351,-0.41309 0.32584,-0.15402 0.64551,-0.32036 0.96547,-0.48612 0.32274,-0.16775 0.63844,-0.34825 0.95366,-0.52959 0.51104,-0.29475 -0.3474,0.20058 -0.59267,0.33856 -0.0623,0.0351 0.12264,-0.0736 0.18376,-0.11068 0.15036,-0.0912 0.29948,-0.1843 0.44807,-0.27831 0.24019,-0.15383 0.47485,-0.31628 0.70038,-0.49094 0.18026,-0.14097 0.34115,-0.30374 0.50022,-0.46762 0.12062,-0.13256 0.23902,-0.26739 0.35568,-0.40352 0.0898,-0.10691 0.16576,-0.22436 0.22773,-0.3493 0.045,-0.0963 0.068,-0.20029 0.0721,-0.30612 -0.005,-0.10536 -0.0479,-0.20339 -0.0915,-0.29792 -0.0551,-0.10203 -0.1211,-0.19841 -0.19209,-0.28999 -0.0877,-0.10961 -0.19658,-0.19814 -0.30866,-0.2813 -0.14219,-0.10282 -0.29681,-0.18608 -0.45307,-0.26503 -0.16836,-0.0879 -0.33968,-0.16958 -0.5107,-0.25199 -0.17415,-0.0866 -0.35708,-0.15259 -0.54092,-0.21511 -0.18693,-0.065 -0.37425,-0.12838 -0.56441,-0.1832 -0.19319,-0.056 -0.38496,-0.11538 -0.57673,-0.17616 -0.22318,-0.0662 -0.44583,-0.13396 -0.66895,-0.20029 -0.25776,-0.0776 -0.51673,-0.15007 -0.77782,-0.21542 -0.26342,-0.06 -0.52843,-0.11282 -0.79357,-0.16468 -0.25971,-0.048 -0.52149,-0.0824 -0.78274,-0.12041 -0.25487,-0.0289 -0.50853,-0.0669 -0.76248,-0.10271 -0.25053,-0.0405 -0.50001,-0.0872 -0.75025,-0.12938 -0.25278,-0.0409 -0.50549,-0.0824 -0.75832,-0.12301 -0.2421,-0.0415 -0.48533,-0.0759 -0.72747,-0.11702 -0.23501,-0.0407 -0.46977,-0.0822 -0.70041,-0.14333 -0.19447,-0.0503 -0.37864,-0.13213 -0.55756,-0.22217 -0.1475,-0.0731 -0.27402,-0.17669 -0.39232,-0.28964 -0.10324,-0.0999 -0.18508,-0.21743 -0.25593,-0.34165 -0.0629,-0.11195 -0.0966,-0.23384 -0.11052,-0.36063 -0.0106,-0.11877 0.0172,-0.23212 0.0605,-0.34155 0.0528,-0.12139 0.13819,-0.22267 0.22627,-0.3197 0.11163,-0.11975 0.24315,-0.21732 0.37791,-0.30911 0.54181,-0.33745 1.09677,-0.65712 1.67232,-0.93371 0.21439,-0.10401 0.43857,-0.18492 0.66355,-0.26242 0.24897,-0.0847 0.50186,-0.15713 0.75546,-0.22651 0.28647,-0.0777 0.5755,-0.14528 0.86506,-0.21018 0.32115,-0.0715 0.64407,-0.13454 0.96742,-0.19521 0.3342,-0.0663 0.67353,-0.10245 1.01238,-0.13534 0.34107,-0.0321 0.68344,-0.0398 1.02579,-0.0364 0.3398,0.009 0.67905,0.0334 1.01748,0.0645 0.34771,0.0322 0.69397,0.0781 1.03968,0.12698 0.36121,0.0482 0.71959,0.11453 1.07831,0.17793 0.38052,0.0735 0.76126,0.14573 1.14149,0.22056 0.41077,0.0813 0.82275,0.15621 1.23518,0.22854 0.42921,0.0813 0.85868,0.16087 1.28881,0.23707 0.45003,0.0785 0.90056,0.15444 1.35261,0.22048 0.44328,0.0656 0.88974,0.0999 1.3368,0.12541 0.4046,0.0222 0.80987,0.0116 1.21447,-0.004 0.34795,-0.007 0.69321,-0.0498 1.03767,-0.0959 0.28704,-0.0353 0.5702,-0.0943 0.85198,-0.15831 0.23053,-0.052 0.45339,-0.12866 0.67064,-0.22068 1.0378,-0.54243 -0.92416,0.59237 -0.34279,0.19719 0.12835,-0.0898 0.25154,-0.18661 0.36922,-0.2899 0.0835,-0.0738 0.15666,-0.15537 0.21855,-0.24789 0.0579,-0.0884 0.0919,-0.18529 0.10586,-0.28938 0.013,-0.1144 -0.005,-0.22606 -0.0383,-0.33522 -0.041,-0.1278 -0.099,-0.24977 -0.16896,-0.3641 -0.0872,-0.13999 -0.1832,-0.27392 -0.28858,-0.40071 -0.12629,-0.14213 -0.26115,-0.27633 -0.40265,-0.40325 -0.16684,-0.14211 -0.338,-0.27874 -0.51953,-0.40164 -0.20786,-0.14406 -0.42096,-0.28033 -0.63667,-0.41225 -0.22521,-0.13591 -0.45318,-0.26721 -0.6817,-0.39748 -0.23733,-0.14257 -0.47839,-0.27873 -0.72274,-0.40887 -0.24754,-0.13686 -0.50217,-0.26001 -0.75665,-0.3833 -0.25389,-0.12329 -0.49996,-0.26126 -0.74335,-0.40389 -0.24199,-0.14235 -0.46709,-0.31041 -0.69329,-0.476 -0.23637,-0.17128 -0.45521,-0.36438 -0.6664,-0.56541 -0.22201,-0.21359 -0.42397,-0.44635 -0.61788,-0.68535 -0.17603,-0.22123 -0.33311,-0.45664 -0.4875,-0.69323 -0.12462,-0.1938 -0.23265,-0.39751 -0.34046,-0.60092 -0.0781,-0.14576 -0.15166,-0.29373 -0.21715,-0.44556 -0.0444,-0.10009 -0.0861,-0.20112 -0.12165,-0.30471 -0.0246,-0.0577 -0.0376,-0.11699 -0.0415,-0.17913 -0.0401,-0.56872 0.95345,-0.67569 1.38716,-0.45512 0.1329,0.0744 0.24834,0.17402 0.36436,0.27152 0.12411,0.1102 0.25127,0.21717 0.38216,0.31925 0.15092,0.12134 0.30144,0.24299 0.45847,0.35636 0.1773,0.13357 0.36137,0.25763 0.5434,0.38452 0.20974,0.14118 0.41926,0.28274 0.63079,0.42123 0.23548,0.15348 0.47305,0.30324 0.71613,0.44441 0.26162,0.15443 0.52403,0.30758 0.78856,0.45693 0.28586,0.16465 0.57788,0.31823 0.86879,0.47369 0.31025,0.16626 0.6282,0.31731 0.94855,0.4629 0.35185,0.15695 0.71099,0.29638 1.07236,0.42959 0.37084,0.13822 0.7412,0.27768 1.11297,0.41341 0.3584,0.12699 0.72199,0.2385 1.08646,0.34658 0.38491,0.11467 0.77314,0.21702 1.1639,0.30957 0.40891,0.0981 0.82135,0.17951 1.23468,0.25633 0.43024,0.0792 0.86185,0.15082 1.29376,0.22029 0.44206,0.0755 0.88815,0.122 1.33305,0.17656 0.45701,0.0544 0.91546,0.0952 1.37472,0.12449 0.47363,0.0337 0.94795,0.057 1.42227,0.0781 0.56856,0.026 1.1376,0.0411 1.70669,0.0481 0.57709,0.008 1.15412,0.005 1.73117,-0.002 0.58195,-0.006 1.16385,-0.0125 1.74567,-0.0265 0.58774,-0.017 1.17488,-0.0478 1.76197,-0.0797 0.59981,-0.0298 1.19917,-0.0668 1.79842,-0.10572 0.60524,-0.0378 1.20965,-0.0876 1.81367,-0.14093 0.61015,-0.055 1.22084,-0.10351 1.82999,-0.1687 0.59137,-0.0541 1.18015,-0.13131 1.76903,-0.20703 0.57359,-0.0757 1.14657,-0.15534 1.71868,-0.24159 0.57039,-0.0926 1.14144,-0.18077 1.71093,-0.27878 0.56954,-0.10074 1.14083,-0.19134 1.71074,-0.28984 0.57145,-0.0849 1.1339,-0.21293 1.69442,-0.35077 0.55816,-0.13524 1.11387,-0.2803 1.67089,-0.42017 0.56941,-0.14369 1.14171,-0.27533 1.71466,-0.40405 0.58322,-0.12985 1.16525,-0.26501 1.74858,-0.39442 0.58574,-0.12898 1.17242,-0.2534 1.75996,-0.37382 0.59478,-0.12158 1.19112,-0.23536 1.78795,-0.34645 0.60459,-0.10848 1.20864,-0.21977 1.8126,-0.33175 0.60391,-0.11143 1.20645,-0.23013 1.81002,-0.34344 0.61158,-0.11148 1.2229,-0.22438 1.83422,-0.3374 0.61529,-0.11449 1.23037,-0.23039 1.84436,-0.35167 0.59804,-0.12037 1.19562,-0.24313 1.79242,-0.3694 0.56039,-0.10915 1.11577,-0.24106 1.67023,-0.37656 0.541,-0.12893 1.0789,-0.27 1.61267,-0.42604 0.52966,-0.15478 1.05552,-0.32227 1.57895,-0.4969 0.52115,-0.16606 1.03521,-0.35194 1.54728,-0.5438 0.50123,-0.19138 0.99642,-0.39788 1.48514,-0.61917 0.47717,-0.21912 0.94633,-0.45474 1.41073,-0.69968 0.45201,-0.24313 0.89953,-0.49433 1.34908,-0.74195 0.4327,-0.23817 0.86283,-0.48097 1.29527,-0.71963 -1.66629,1.01544 -0.11139,0.0128 0.26165,-0.23934 0.39539,-0.27138 0.78787,-0.54695 1.18446,-0.81661 0.38639,-0.26341 0.77311,-0.52631 1.15824,-0.79158 0.37412,-0.25324 0.75316,-0.49912 1.13077,-0.7471 0.3569,-0.23469 0.72073,-0.45867 1.07646,-0.69514 0.35258,-0.23606 0.70104,-0.47813 1.05084,-0.71824 0.34158,-0.23627 0.68284,-0.4731 1.02069,-0.71471 0.32464,-0.23627 0.64394,-0.47973 0.96398,-0.72215 0.30324,-0.22377 0.60325,-0.45124 0.89651,-0.68793 0.27515,-0.21878 0.55185,-0.43538 0.82212,-0.66021 0.25175,-0.20116 0.51094,-0.39279 0.76835,-0.5866 0.23889,-0.18167 0.47371,-0.36797 0.70609,-0.55788 0.22757,-0.18889 0.45665,-0.37586 0.68683,-0.56154 0.23302,-0.1975 0.47551,-0.38324 0.71157,-0.57694 0.2498,-0.21062 0.50181,-0.41862 0.74872,-0.63267 0.24733,-0.21995 0.49668,-0.43761 0.74922,-0.65158 0.24813,-0.20922 0.49676,-0.41786 0.74494,-0.62699 0.25386,-0.20615 0.49331,-0.42857 0.73289,-0.65084 0.23598,-0.21902 0.48086,-0.42819 0.72792,-0.6345 0.23945,-0.19888 0.48607,-0.38877 0.732,-0.57947 0.22577,-0.17602 0.45768,-0.34396 0.68905,-0.51246 0.18333,-0.13902 0.37831,-0.26072 0.5736,-0.38182 0.1412,-0.0866 0.27918,-0.17818 0.41661,-0.27059 0.46918,-0.319 0.97263,-0.58611 1.49907,-0.79518 0.0583,-0.0147 0.11515,-0.0308 0.16828,-0.0589 -0.68458,0.72289 -0.8082,0.58355 -1.41219,0.60609 -0.12753,0.0118 -0.25484,0.004 -0.38203,-0.007 -0.14531,-0.014 -0.29128,-0.0206 -0.43619,-0.0382 -0.16934,-0.0211 -0.33888,-0.0406 -0.50861,-0.0584 -0.19468,-0.0234 -0.39063,-0.0307 -0.58637,-0.0393 -0.2082,-0.006 -0.41622,0.006 -0.62413,0.0155 -0.23767,0.007 -0.47471,0.0228 -0.71183,0.0395 -0.27072,0.0194 -0.54158,0.0364 -0.81248,0.0526 -0.29007,0.0168 -0.58013,0.0334 -0.87024,0.0496 -0.2879,0.0227 -0.5764,0.0216 -0.86493,0.0191 -0.28159,-5.3e-4 -0.56316,-0.0105 -0.84418,-0.0289 -0.27466,-0.0174 -0.55009,-0.027 -0.82415,-0.0527 -0.25704,-0.003 -0.51107,-0.0404 -0.76652,-0.0641 -0.2412,-0.023 -0.48138,-0.055 -0.7212,-0.0894 -0.22998,-0.0207 -0.45837,-0.0521 -0.68554,-0.0934 -0.21254,-0.0497 -0.43055,-0.059 -0.64421,-0.1013 -0.20626,-0.0336 -0.4097,-0.0818 -0.61473,-0.12245 -0.1883,-0.0338 -0.37669,-0.0679 -0.56589,-0.0965 -0.17629,-0.0293 -0.35216,-0.0619 -0.52895,-0.0882 -0.16891,-0.0131 -0.33084,-0.0419 -0.49642,-0.0758 -0.15988,-0.0394 -0.3194,-0.081 -0.47961,-0.11933 -0.1633,-0.0348 -0.31985,-0.0855 -0.47812,-0.13791 -0.1628,-0.0546 -0.327,-0.10435 -0.48935,-0.1602 -0.16841,-0.0617 -0.34282,-0.1036 -0.51417,-0.15585 -0.1793,-0.0532 -0.35867,-0.10576 -0.53633,-0.16416 -0.17262,-0.0566 -0.33917,-0.12968 -0.50126,-0.21131 -0.10551,-0.0546 -0.0526,-0.0275 -0.15883,-0.0812 0,0 0.94668,-0.6222 0.94668,-0.6222 v 0 c 0.106,0.0538 0.0533,0.0272 0.15807,0.08 0.15972,0.0763 0.323,0.14523 0.4922,0.19794 0.1774,0.0569 0.35645,0.1082 0.53483,0.16183 0.17312,0.0503 0.347,0.0979 0.51662,0.15943 0.16249,0.0546 0.32658,0.10415 0.48888,0.15938 0.15576,0.0515 0.31358,0.0926 0.47318,0.13067 0.15872,0.0403 0.31787,0.0788 0.47736,0.11603 0.16306,0.035 0.32858,0.0443 0.49307,0.0711 0.17635,0.0293 0.35267,0.0588 0.52899,0.0883 0.18968,0.0316 0.37951,0.0627 0.56819,0.0999 0.20468,0.0398 0.40719,0.0903 0.61357,0.12104 0.2145,0.0345 0.43127,0.0539 0.64383,0.1008 0.22678,0.0376 0.45477,0.065 0.68324,0.0903 0.23913,0.0322 0.47823,0.0643 0.71861,0.0858 0.25471,0.0272 0.5094,0.0519 0.76541,0.0627 0.27392,0.0205 0.5483,0.0345 0.82248,0.0505 0.27999,0.0151 0.56023,0.0243 0.84066,0.024 0.28721,0.001 0.57418,-0.004 0.86072,-0.0249 0.29001,-0.0164 0.58002,-0.0327 0.86995,-0.05 0.27077,-0.0166 0.54147,-0.0342 0.81203,-0.0536 0.23776,-0.0164 0.47562,-0.0289 0.7138,-0.0373 0.20989,-0.009 0.42005,-0.0181 0.6301,-0.007 0.19722,0.01 0.39434,0.0209 0.59044,0.0448 0.16968,0.0185 0.33909,0.0392 0.50869,0.0582 0.14457,0.0129 0.28935,0.0236 0.43403,0.0349 0.12573,0.007 0.25111,0.004 0.37692,-1.2e-4 0.59709,0.0133 0.50602,0.10064 -0.39412,0.76279 -0.0573,0.0163 -0.11486,0.0324 -0.16939,0.0567 -0.89429,0.34996 1.05077,-0.63886 0.44686,-0.3186 -0.13693,0.0938 -0.27443,0.18696 -0.41545,0.27455 -0.19362,0.12281 -0.39352,0.23597 -0.57687,0.37444 -0.23056,0.16923 -0.46377,0.335 -0.69054,0.50933 -0.24479,0.19165 -0.49318,0.37872 -0.73342,0.57615 -0.24742,0.20491 -0.49314,0.41207 -0.73031,0.62884 -0.23992,0.22273 -0.47625,0.44959 -0.73088,0.65578 -0.24792,0.20949 -0.49678,0.41775 -0.74494,0.62695 -0.2531,0.21299 -0.50384,0.42877 -0.75004,0.64974 -0.24506,0.21655 -0.49781,0.42396 -0.74766,0.63493 -0.23243,0.19854 -0.48038,0.37772 -0.71062,0.57908 -0.23095,0.18445 -0.45987,0.37139 -0.68741,0.56004 -0.23085,0.1928 -0.46596,0.37923 -0.70437,0.56238 -0.25607,0.19489 -0.5147,0.38636 -0.77076,0.58125 -0.26776,0.22823 -0.54438,0.44537 -0.82145,0.66206 -0.29218,0.23905 -0.5901,0.46955 -0.89504,0.69216 -0.32279,0.23902 -0.63822,0.48802 -0.96332,0.72414 -0.33639,0.24413 -0.67916,0.47908 -1.01973,0.71727 -0.35054,0.23916 -0.69784,0.48302 -1.0505,0.71907 -0.35319,0.24058 -0.7184,0.4626 -1.07617,0.69622 -0.37681,0.24895 -0.75625,0.4939 -1.13178,0.7448 -0.38444,0.26646 -0.77197,0.52838 -1.15795,0.79257 -0.39748,0.26843 -0.79039,0.54345 -1.18454,0.81675 -0.71387,0.48286 -1.42263,0.97193 -2.19479,1.36229 -0.43178,0.23973 -0.86273,0.48095 -1.29522,0.71941 -0.44921,0.24845 -0.89749,0.49862 -1.35056,0.74003 -0.46596,0.24287 -0.93618,0.47749 -1.41494,0.69427 -0.49062,0.21856 -0.98698,0.42398 -1.48961,0.6134 -0.51279,0.19117 -1.02883,0.37273 -1.54985,0.54043 -0.52451,0.1729 -1.05095,0.34019 -1.58157,0.49345 -0.53515,0.15347 -1.07405,0.29304 -1.6156,0.4222 -0.55504,0.13495 -1.11175,0.26285 -1.67222,0.37359 -0.59722,0.12516 -1.1947,0.24917 -1.79319,0.36806 -0.61444,0.11999 -1.22946,0.23703 -1.84509,0.35067 -0.61127,0.1132 -1.22275,0.22507 -1.8341,0.33771 -0.60351,0.11378 -1.20612,0.23234 -1.81017,0.34321 -0.60394,0.1121 -1.20822,0.22201 -1.81255,0.33186 -0.59645,0.11162 -1.1924,0.22595 -1.78676,0.34813 -0.58716,0.12102 -1.17351,0.24581 -1.75887,0.37527 -0.58317,0.12999 -1.16517,0.26505 -1.74842,0.3947 -0.57243,0.1294 -1.14414,0.2621 -1.71305,0.40636 -0.55697,0.14041 -1.11299,0.28465 -1.67137,0.41956 -0.56203,0.13643 -1.1271,0.25716 -1.69913,0.34447 -0.57017,0.0972 -1.14112,0.18975 -1.71082,0.28983 -0.56996,0.0971 -1.14138,0.18552 -1.7123,0.27691 -0.57256,0.0857 -1.1461,0.16407 -1.72009,0.23963 -0.5893,0.0755 -1.17879,0.14978 -1.77045,0.20486 -0.60971,0.063 -1.22069,0.11211 -1.83113,0.16715 -0.60455,0.0528 -1.20952,0.10122 -1.81523,0.13884 -0.59952,0.0387 -1.1992,0.0744 -1.79919,0.10478 -0.58777,0.0316 -1.17565,0.0613 -1.76409,0.0769 -0.58211,0.0132 -1.16432,0.0193 -1.74656,0.0254 -0.57759,0.006 -1.15517,0.008 -1.73276,0 -0.56991,-0.009 -1.13972,-0.0241 -1.70908,-0.0507 -0.47487,-0.0217 -0.94972,-0.0459 -1.42388,-0.0799 -0.46048,-0.0318 -0.92022,-0.0735 -1.37842,-0.12943 -0.44606,-0.0537 -0.8926,-0.10437 -1.33562,-0.18019 -0.43251,-0.0701 -0.86471,-0.14231 -1.29548,-0.22251 -0.4145,-0.0781 -0.82785,-0.16187 -1.23793,-0.2609 -0.39196,-0.0945 -0.78126,-0.1991 -1.16758,-0.31462 -0.36595,-0.10957 -0.73105,-0.2225 -1.0904,-0.35237 -0.37145,-0.13678 -0.74226,-0.2753 -1.11308,-0.41378 -0.36309,-0.13524 -0.72395,-0.27679 -1.07717,-0.43637 -0.32173,-0.14758 -0.64093,-0.30079 -0.95261,-0.46877 -0.29149,-0.15613 -0.58404,-0.31045 -0.8704,-0.47589 -0.26453,-0.15036 -0.52749,-0.30343 -0.78949,-0.45813 -0.24386,-0.14332 -0.4826,-0.29475 -0.71948,-0.4493 -0.21193,-0.13959 -0.42275,-0.28087 -0.63254,-0.42364 -0.18306,-0.1268 -0.36663,-0.25301 -0.54491,-0.38656 -0.15708,-0.11553 -0.30845,-0.23829 -0.46087,-0.35984 -0.13084,-0.10402 -0.25866,-0.21185 -0.3842,-0.32218 -0.10928,-0.0917 -0.22001,-0.18373 -0.34867,-0.24739 -0.75782,-0.33434 1.05161,-0.28348 0.57168,-0.6771 -0.007,0.0502 -0.004,0.092 0.0204,0.13949 0.0341,0.1011 0.0733,0.19999 0.11718,0.29728 0.0633,0.14939 0.13592,0.29441 0.21217,0.43759 0.1061,0.20043 0.21212,0.40132 0.33499,0.59216 0.15224,0.23329 0.3071,0.46546 0.48122,0.6832 0.1914,0.23486 0.39082,0.46349 0.61032,0.67276 0.20883,0.19693 0.42547,0.38556 0.65889,0.55321 0.22336,0.16345 0.44701,0.32738 0.68696,0.46613 0.2417,0.14049 0.48662,0.27531 0.73859,0.39667 0.25548,0.12421 0.51038,0.24973 0.75914,0.38708 0.24453,0.13177 0.48569,0.2695 0.72448,0.41138 0.22929,0.13112 0.45821,0.26304 0.68374,0.40052 0.21659,0.13388 0.43077,0.27169 0.63989,0.41703 0.18365,0.12798 0.35875,0.26754 0.52777,0.41431 0.14433,0.1317 0.28292,0.26986 0.41134,0.41723 0.10788,0.13161 0.20701,0.26991 0.29689,0.41447 0.0744,0.12214 0.13735,0.2517 0.18243,0.38765 0.0402,0.12115 0.0669,0.24587 0.0589,0.37443 -0.005,0.11772 -0.0265,0.23144 -0.084,0.33579 -0.0538,0.10221 -0.11755,0.20015 -0.20701,0.27503 -0.10774,0.11724 -0.23865,0.20966 -0.36282,0.3084 -0.50454,0.35176 -1.03391,0.67749 -1.60094,0.91747 -0.22175,0.0861 -0.44919,0.15563 -0.68194,0.20555 -0.28377,0.0617 -0.56922,0.11568 -0.85778,0.15008 -0.34652,0.0442 -0.69403,0.0806 -1.04367,0.0871 -0.40672,0.0138 -0.81407,0.0201 -1.22055,-0.005 -0.44908,-0.0275 -0.89731,-0.0664 -1.34242,-0.13362 -0.45254,-0.068 -0.9039,-0.14362 -1.35456,-0.2231 -0.43003,-0.0767 -0.85931,-0.15724 -1.28879,-0.23685 -0.41288,-0.073 -0.82528,-0.14867 -1.23658,-0.23029 -0.37981,-0.0745 -0.76004,-0.14695 -1.14038,-0.21868 -0.35788,-0.0632 -0.71572,-0.12706 -1.07609,-0.17455 -0.34456,-0.0478 -0.68982,-0.0918 -1.0364,-0.12221 -0.33668,-0.0283 -0.67397,-0.0529 -1.01197,-0.0569 -0.34015,0 -0.68022,0.0109 -1.01881,0.0459 -0.33713,0.0349 -0.6741,0.0755 -1.00645,0.14328 -0.32263,0.0616 -0.64481,0.12567 -0.96512,0.19854 -0.28861,0.0661 -0.57666,0.13507 -0.86196,0.2146 -0.25225,0.071 -0.50376,0.14515 -0.75089,0.2327 -0.22283,0.0802 -0.44373,0.16595 -0.65537,0.27276 -1.20451,0.60002 1.01965,-0.59319 0.26797,-0.18468 -0.13613,0.0852 -0.26985,0.17521 -0.38719,0.28557 -0.0895,0.0866 -0.17574,0.17838 -0.24119,0.28495 -0.0492,0.0901 -0.0865,0.18484 -0.0859,0.28935 0.004,0.11187 0.0314,0.2185 0.0864,0.31692 0.0652,0.11459 0.1416,0.22214 0.23846,0.31261 0.11274,0.1039 0.23421,0.19645 0.37415,0.26135 0.17484,0.0839 0.35473,0.15814 0.54409,0.20275 0.2295,0.0555 0.4621,0.096 0.6948,0.13563 0.24235,0.0391 0.48506,0.0762 0.7272,0.1166 0.25302,0.041 0.50605,0.0819 0.75888,0.12382 0.24935,0.0428 0.49808,0.0895 0.74835,0.12674 0.25403,0.0358 0.50805,0.0713 0.76261,0.10292 0.26278,0.0369 0.52541,0.0755 0.78613,0.12531 0.26641,0.0528 0.53295,0.10562 0.79695,0.16965 0.26194,0.067 0.52165,0.1419 0.78071,0.21929 0.22344,0.0671 0.44725,0.13303 0.67018,0.20179 0.19109,0.0608 0.38344,0.11679 0.57555,0.17418 0.19071,0.0576 0.37907,0.1224 0.56732,0.18756 0.18656,0.0658 0.37121,0.13695 0.54822,0.22588 0.17193,0.0825 0.343,0.16668 0.51229,0.2545 0.16049,0.0838 0.31898,0.17232 0.46392,0.28144 0.11826,0.0913 0.23246,0.18862 0.32469,0.3071 0.0752,0.0988 0.14592,0.20193 0.20463,0.31144 0.0506,0.10792 0.0975,0.21952 0.11353,0.33856 0.01,0.11925 -0.0114,0.23865 -0.0501,0.35168 -0.0541,0.13542 -0.12767,0.26096 -0.21559,0.37741 -0.11215,0.14168 -0.23873,0.27093 -0.35269,0.41126 -0.15758,0.16786 -0.318,0.33391 -0.49474,0.48192 -0.22138,0.18179 -0.45723,0.3447 -0.69633,0.50223 -0.64408,0.41381 -1.30934,0.79288 -1.97387,1.17274 -0.31581,0.18084 -0.63315,0.35896 -0.95668,0.52575 -0.32033,0.16592 -0.64149,0.33057 -0.96928,0.48141 -0.32239,0.14356 -0.64931,0.27636 -0.9757,0.41048 -0.31271,0.12938 -0.62868,0.25011 -0.95136,0.35263 -0.31848,0.10946 -0.63585,0.22233 -0.95777,0.3215 -0.33351,0.0986 -0.66823,0.19455 -1.0087,0.26654 -0.33028,0.0717 -0.66005,0.14563 -0.9911,0.21373 -0.30895,0.0666 -0.61942,0.12832 -0.92133,0.22336 -0.28731,0.0838 -0.57658,0.16029 -0.86463,0.24138 -0.28377,0.0814 -0.56965,0.15475 -0.85363,0.23537 -0.25455,0.0745 -0.50884,0.15034 -0.75988,0.23601 -0.21757,0.0729 -0.43492,0.14679 -0.64466,0.24059 -1.19848,0.5071 0.9357,-0.55859 0.27477,-0.22569 -0.0993,0.0616 -0.19068,0.12766 -0.254,0.22799 -0.0566,0.0837 -0.0925,0.17801 -0.14687,0.26284 -0.0372,0.0955 -0.0952,0.18124 -0.12705,0.27895 -0.023,0.0904 -0.0433,0.18049 -0.0298,0.27471 0.0188,0.11097 0.0589,0.21559 0.11065,0.31541 0.0584,0.1138 0.12851,0.22082 0.20548,0.32295 0.0838,0.11618 0.18256,0.22109 0.28657,0.31938 0.12292,0.10367 0.2568,0.19299 0.4023,0.26223 0.17563,0.0843 0.35602,0.16134 0.54774,0.20095 0.23251,0.0422 0.46598,0.0814 0.70183,0.0994 0.26458,0.0188 0.52985,0.0312 0.79518,0.0236 0.2926,-0.006 0.58523,-0.0201 0.8764,-0.0502 0.32428,-0.0329 0.64839,-0.0663 0.97354,-0.0895 0.33356,-0.03 0.66683,-0.0623 0.99962,-0.0998 0.35719,-0.0345 0.71374,-0.075 1.06931,-0.12333 0.32893,-0.0462 0.6567,-0.10014 0.98288,-0.16301 0.30654,-0.0604 0.61206,-0.12602 0.91622,-0.19745 0.30922,-0.0691 0.61971,-0.13211 0.92922,-0.19995 0.3152,-0.0688 0.62987,-0.14018 0.94488,-0.20987 0.32152,-0.0726 0.64328,-0.14409 0.96592,-0.21169 0.3062,-0.0683 0.61153,-0.14028 0.91654,-0.21357 0.32517,-0.0752 0.65029,-0.15084 0.97687,-0.21976 0.31665,-0.0698 0.63248,-0.14317 0.94792,-0.21826 0.32948,-0.0776 0.65857,-0.15706 0.98909,-0.23032 0.35605,-0.0777 0.70996,-0.16462 1.06498,-0.24691 0.37745,-0.0893 0.75533,-0.17671 1.13265,-0.26657 0.41669,-0.0951 0.83534,-0.18124 1.25143,-0.27903 0.43706,-0.10244 0.87497,-0.20124 1.31307,-0.29924 0.46535,-0.10689 0.93075,-0.21431 1.39838,-0.31078 0.49725,-0.10173 0.99367,-0.20722 1.48854,-0.31993 0.51668,-0.11623 1.03489,-0.22561 1.55046,-0.34687 0.53438,-0.12182 1.0691,-0.24196 1.60142,-0.37275 0.54271,-0.12374 1.08561,-0.24648 1.63107,-0.35763 0.5496,-0.11888 1.098,-0.24321 1.64651,-0.36698 0.55634,-0.13086 1.11045,-0.27083 1.66425,-0.41193 0.55962,-0.14433 1.11821,-0.29255 1.67521,-0.44664 0.5687,-0.15658 1.13647,-0.3166 1.70275,-0.48165 0.56394,-0.16531 1.12578,-0.33737 1.68794,-0.50856 0.55547,-0.16806 1.11239,-0.33131 1.66574,-0.50622 0.54599,-0.17347 1.08987,-0.35341 1.63512,-0.5292 0.54446,-0.17682 1.08834,-0.35554 1.63708,-0.51874 0.55179,-0.16603 1.10472,-0.32814 1.65802,-0.48906 0.55223,-0.16226 1.10508,-0.32266 1.66108,-0.47162 0.55639,-0.14774 1.11283,-0.29522 1.67068,-0.43738 0.56843,-0.14518 1.13805,-0.28564 1.70627,-0.43159 0.56637,-0.14083 1.13186,-0.28522 1.69471,-0.43963 0.55288,-0.152 1.10427,-0.30927 1.65516,-0.46836 0.54866,-0.15444 1.09542,-0.31541 1.64454,-0.46818 0.55512,-0.15354 1.11067,-0.3056 1.66434,-0.46443 0.55848,-0.15824 1.11707,-0.31604 1.67608,-0.47241 0.55782,-0.15618 1.11622,-0.31033 1.6746,-0.46448 0.5529,-0.1538 1.10426,-0.31287 1.65507,-0.47394 0.54788,-0.15627 1.094,-0.31846 1.64127,-0.47681 0.54104,-0.15872 1.08018,-0.32367 1.62009,-0.48615 0.54676,-0.15697 1.09461,-0.31022 1.64352,-0.45955 0.56081,-0.15354 1.12191,-0.30604 1.68261,-0.46001 0.56843,-0.15853 1.137,-0.3166 1.70672,-0.4704 0.57087,-0.15798 1.14171,-0.31607 1.71411,-0.46847 0.56988,-0.15113 1.13884,-0.30599 1.70473,-0.47151 0.55608,-0.16307 1.1107,-0.33089 1.66318,-0.50575 0.54887,-0.17079 1.09839,-0.3394 1.64584,-0.51473 0.54229,-0.16855 1.08333,-0.34107 1.6243,-0.51379 0.53097,-0.17236 1.06209,-0.34423 1.59226,-0.51896 0.51869,-0.17333 1.03788,-0.34523 1.55461,-0.52439 0.51684,-0.17581 1.03529,-0.34699 1.54874,-0.53263 0.50771,-0.1802 1.01793,-0.35248 1.53162,-0.51494 0.50718,-0.16783 1.0141,-0.3363 1.52247,-0.50048 0.50292,-0.16183 1.00385,-0.32955 1.50397,-0.49984 0.4989,-0.16539 0.9965,-0.33467 1.49683,-0.49568 0.50739,-0.16075 1.01801,-0.31119 1.52889,-0.46042 0.50366,-0.14715 1.00788,-0.29269 1.51633,-0.42264 0.50257,-0.12593 1.00743,-0.24199 1.51254,-0.35722 0.51041,-0.11438 1.02026,-0.23129 1.5307,-0.34557 0.52567,-0.11812 1.0506,-0.23959 1.57622,-0.35793 0.51504,-0.11835 1.03048,-0.2353 1.54798,-0.34249 0.51437,-0.10602 1.0296,-0.20785 1.54278,-0.31963 0.5198,-0.11134 1.03947,-0.22374 1.55644,-0.34769 0.52186,-0.12785 1.0427,-0.26036 1.56784,-0.37424 0.51125,-0.11706 1.02148,-0.23849 1.52948,-0.36893 0.4944,-0.12512 0.99012,-0.24492 1.48328,-0.37489 0.4768,-0.12647 0.95221,-0.25813 1.42803,-0.38826 0.46006,-0.12724 0.91901,-0.2584 1.38023,-0.38133 0.46358,-0.1243 0.92834,-0.24402 1.39253,-0.36594 0.45942,-0.11742 0.9177,-0.23918 1.37459,-0.36623 0.45812,-0.12393 0.91747,-0.2433 1.37729,-0.3608 0.49159,-0.1254 0.98189,-0.256 1.47489,-0.37591 0.51268,-0.13053 1.02791,-0.25075 1.54289,-0.3718 0.52597,-0.1176 1.05193,-0.2361 1.58276,-0.33016 0.55653,-0.10045 1.11231,-0.20498 1.66976,-0.30025 0.56193,-0.0941 1.12414,-0.18616 1.68688,-0.2752 0.5624,-0.0905 1.12556,-0.17572 1.68915,-0.25849 0.53885,-0.0772 1.07678,-0.16039 1.6147,-0.24375 0.52745,-0.0768 1.05445,-0.15698 1.58274,-0.2279 0.52896,-0.0731 1.05762,-0.1483 1.58663,-0.22118 0.51877,-0.0685 1.03751,-0.13813 1.55355,-0.22509 0.50313,-0.0834 1.00587,-0.16931 1.50736,-0.26205 0.48604,-0.09 0.97123,-0.1845 1.45772,-0.27204 0.47464,-0.0872 0.94843,-0.17893 1.42349,-0.26383 0.4604,-0.0842 0.92016,-0.1718 1.37932,-0.2625 0.44998,-0.0859 0.90059,-0.16856 1.35099,-0.25214 0.46125,-0.0879 0.92308,-0.17273 1.3852,-0.25606 0.4694,-0.0864 0.93848,-0.17474 1.40819,-0.2595 0.47075,-0.0812 0.94155,-0.16256 1.41513,-0.22613 0.48119,-0.0694 0.96194,-0.14261 1.44473,-0.20046 0.50411,-0.0586 1.00938,-0.10656 1.5145,-0.1557 0.53583,-0.0456 1.07259,-0.0823 1.61054,-0.089 0.57777,-0.005 1.15586,-2.6e-4 1.73255,0.0394 0.6165,0.0409 1.23253,0.0895 1.84637,0.16091 0.65868,0.0714 1.31675,0.14765 1.97365,0.23385 0.67924,0.0875 1.35711,0.18479 2.03534,0.27964 0.68326,0.0912 1.36625,0.18448 2.04846,0.28336 0.67754,0.0984 1.35482,0.19902 2.03112,0.30573 0.67152,0.10618 1.34266,0.21479 2.01277,0.32951 0.66871,0.11437 1.33707,0.23102 2.00662,0.3405 0.67324,0.11401 1.34578,0.23225 2.01967,0.34251 0.63418,0.10683 1.26694,0.22133 1.89699,0.3506 0.62624,0.12295 1.2524,0.24634 1.87753,0.37491 0.61196,0.1245 1.22439,0.24672 1.8347,0.37915 0.59928,0.12911 1.19875,0.25744 1.79777,0.38773 0.58758,0.1306 1.17419,0.26546 1.76032,0.40236 0.56963,0.12961 1.13845,0.26273 1.70792,0.39295 0.56107,0.1288 1.12408,0.24829 1.68865,0.36091 0.55967,0.11138 1.11963,0.22103 1.67984,0.3298 0.55335,0.11009 1.10691,0.21921 1.66086,0.32624 0.55465,0.1098 1.10887,0.22178 1.66497,0.32407 0.55756,0.10316 1.11578,0.20293 1.67442,0.29998 0.55097,0.0966 1.10149,0.19567 1.6506,0.3024 0.52216,0.10194 1.04447,0.20429 1.56213,0.32747 0.43818,0.11028 0.87447,0.2278 1.31244,0.33884 0.42042,0.10536 0.84198,0.20637 1.25994,0.32131 0.39677,0.10851 0.79193,0.22256 1.1879,0.33388 0.38508,0.1088 0.76846,0.22355 1.1542,0.33013 0.3865,0.10906 0.77239,0.22023 1.15731,0.33469 0.3855,0.11331 0.77338,0.21754 1.16369,0.31294 0.40076,0.0982 0.801,0.19853 1.19928,0.30653 0.38997,0.0987 0.78086,0.194 1.16916,0.29916 0.3763,0.10254 0.75174,0.20805 1.12806,0.31048 0.3856,0.1 0.77448,0.18713 1.15916,0.2909 0.41085,0.11277 0.81783,0.23912 1.22735,0.35652 0.43289,0.12562 0.86326,0.25956 1.29498,0.38907 0.46386,0.13986 0.92956,0.27362 1.39573,0.4056 0.46226,0.13331 0.92585,0.26201 1.38686,0.39964 0.44945,0.13364 0.8999,0.26387 1.34981,0.39598 0.43159,0.12279 0.86264,0.24746 1.29539,0.3661 0.39976,0.10459 0.80044,0.2056 1.20118,0.30636 0.38925,0.0935 0.77847,0.18847 1.17403,0.25209 0.39402,0.0678 0.78943,0.12657 1.18568,0.17975 0.39986,0.0514 0.80123,0.0879 1.20294,0.12145 0.4125,0.0385 0.82469,0.081 1.23822,0.10761 0.403,0.0246 0.80631,0.043 1.20977,0.0581 0.40539,0.0127 0.811,0.0196 1.2166,0.0135 0.3897,-0.007 0.77911,-0.0233 1.16795,-0.0507 0.33937,-0.0266 0.67632,-0.0691 1.01114,-0.13137 0.31617,-0.0525 0.63221,-0.10628 0.94482,-0.17757 0.2884,-0.0637 0.57624,-0.13006 0.86155,-0.20654 0.25893,-0.0699 0.51655,-0.14442 0.77328,-0.22203 0.25744,-0.0782 0.51488,-0.15643 0.77206,-0.2355 0.24419,-0.0734 0.48834,-0.14692 0.7331,-0.21839 0.22089,-0.0655 0.4418,-0.13116 0.6651,-0.18812 0.21407,-0.0497 0.42871,-0.0973 0.64439,-0.1396 0.22525,-0.0412 0.4495,-0.0868 0.67359,-0.13381 0.24047,-0.0456 0.48255,-0.0802 0.72425,-0.11864 0.26705,-0.0526 0.53479,-0.10226 0.80321,-0.14734 0.29786,-0.0504 0.59444,-0.1085 0.89295,-0.1545 0.32236,-0.0369 0.64285,-0.0885 0.96296,-0.14118 0.3377,-0.0544 0.67547,-0.1088 1.015,-0.15069 0.36678,-0.0569 0.73345,-0.11441 1.09992,-0.17326 0.40099,-0.0624 0.80381,-0.11015 1.20636,-0.16119 0.4413,-0.0517 0.88261,-0.10815 1.3182,-0.19721 0.46539,-0.0847 0.9306,-0.17017 1.39782,-0.24403 0.47499,-0.0811 0.94413,-0.19293 1.42151,-0.26074 0.49977,-0.0718 1.00066,-0.13664 1.50448,-0.17268 0.53913,-0.0481 1.07832,-0.0992 1.61987,-0.11024 0.57379,-0.015 1.14683,-0.003 1.72007,0.0266 0.61345,0.0301 1.22631,0.0707 1.83828,0.12302 0.64329,0.0595 1.28488,0.13469 1.92684,0.2069 0.64596,0.0717 1.29243,0.13898 1.93906,0.20437 0.61326,0.0555 1.22637,0.11274 1.83799,0.18443 0.62376,0.0701 1.24743,0.14087 1.87094,0.21311 0.64736,0.0744 1.29467,0.14923 1.94295,0.21526 0.64735,0.0699 1.29444,0.14207 1.94149,0.21462 0.64656,0.0698 1.29361,0.13547 1.94118,0.19508 0.64684,0.0587 1.29421,0.11095 1.94149,0.16442 0.65205,0.0529 1.30477,0.0957 1.95733,0.1419 0.66628,0.0448 1.33299,0.0831 1.99934,0.12695 0.67967,0.0438 1.35921,0.0901 2.03944,0.12441 0.70141,0.0371 1.40274,0.0765 2.10459,0.10426 0.71904,0.0295 1.43808,0.0594 2.1575,0.0781 0.72458,0.0222 1.44914,0.0466 2.17397,0.059 0.73315,0.0137 1.46632,0.0275 2.19963,0.0287 0.72993,0.004 1.45984,0.004 2.18973,-0.006 0.73497,-0.01 1.46983,-0.0265 2.20465,-0.0437 0.74254,-0.0206 1.48485,-0.0486 2.22723,-0.0742 0.74193,-0.0265 1.48384,-0.0537 2.2257,-0.082 0.72548,-0.0276 1.45093,-0.0591 2.17683,-0.0731 0.66148,-0.003 1.32288,-0.0103 1.98422,-0.0248 0.66741,-0.012 1.33482,-0.024 2.00222,-0.0368 0.66465,-0.0128 1.32929,-0.0258 1.99391,-0.0397 0.65744,-0.0138 1.31487,-0.0279 1.97229,-0.0429 0.64969,-0.0149 1.29937,-0.0301 1.94903,-0.0462 0.64281,-0.0159 1.28559,-0.0332 1.92851,-0.0443 0.63508,-0.008 1.27016,-0.0152 1.90524,-0.0236 0.6137,-0.008 1.2274,-0.0165 1.84109,-0.0255 0.60174,-0.009 1.20347,-0.0179 1.8052,-0.0271 0.59439,-0.009 1.1888,-0.0174 1.78327,-0.0144 0.58567,-2.6e-4 1.17134,-2.6e-4 1.757,-0.002 0.55644,-0.003 1.1126,-0.0142 1.66847,-0.0409 0.54651,-0.021 1.093,-0.0424 1.63949,-0.0638 0.58096,-0.0228 1.16194,-0.0451 1.74286,-0.0689 0.57755,-0.0239 1.1551,-0.048 1.73243,-0.0769 0.57708,-0.0309 1.15391,-0.0666 1.73095,-0.0982 0.58337,-0.0292 1.16671,-0.0595 1.74919,-0.10349 0.57483,-0.0405 1.14962,-0.0816 1.72398,-0.12817 0.56206,-0.0473 1.12321,-0.10384 1.6827,-0.17579 0.56095,-0.0683 1.12192,-0.13647 1.6822,-0.21009 0.55335,-0.0732 1.10672,-0.14701 1.65765,-0.23693 0.54551,-0.0879 1.09041,-0.17949 1.63559,-0.26942 0.53737,-0.0851 1.07441,-0.1725 1.61021,-0.26707 0.52544,-0.0933 1.05037,-0.1897 1.57195,-0.30291 0.51204,-0.1089 1.02347,-0.22078 1.53284,-0.34167 0.4934,-0.11752 0.9861,-0.23814 1.47587,-0.3701 0.48133,-0.1311 0.96017,-0.27107 1.43558,-0.42232 0.46682,-0.14904 0.93217,-0.30292 1.39053,-0.47658 0.45437,-0.17085 0.90677,-0.34717 1.35076,-0.54372 0.43547,-0.19156 0.86862,-0.38855 1.29407,-0.60162 0.41121,-0.20672 0.81906,-0.42006 1.22003,-0.64614 0.33941,-0.18855 1.14186,-0.65485 -0.37681,0.22822 -0.6182,0.35948 1.20527,-0.68486 0.57421,-0.33746 0.36809,-0.225 0.73646,-0.44956 1.10323,-0.67671 0.3484,-0.21623 0.69152,-0.44069 1.03372,-0.66657 0.32873,-0.22223 0.65781,-0.4441 0.97962,-0.6763 0.31232,-0.21726 0.62235,-0.43806 0.94137,-0.64547 0.30347,-0.19344 0.60852,-0.38441 0.90704,-0.58553 0.28348,-0.19389 0.56347,-0.39294 0.84176,-0.5942 0.27189,-0.19232 0.53988,-0.38963 0.8038,-0.59278 0.25978,-0.19729 0.52636,-0.3857 0.7797,-0.5914 0.24295,-0.19679 0.4906,-0.38771 0.73137,-0.58721 0.2323,-0.18471 0.46439,-0.36944 0.71033,-0.53604 0.23775,-0.16249 0.47909,-0.31954 0.72694,-0.46628 0.59344,-0.34875 1.18507,-0.70107 1.78906,-1.03129 0.23619,-0.12553 0.47119,-0.25413 0.71418,-0.36615 0.24503,-0.10638 0.49363,-0.20484 0.75087,-0.27812 0.26577,-0.073 0.53496,-0.13552 0.80925,-0.16655 0.28218,-0.0301 0.56584,-0.0523 0.84976,-0.0342 0.29566,0.0198 0.59016,0.0554 0.88032,0.11674 0.29784,0.0635 0.59378,0.13539 0.88506,0.22481 0.29467,0.0885 0.58596,0.18732 0.87223,0.30033 0.28092,0.10924 0.5603,0.22226 0.83763,0.34035 0.26917,0.11176 0.53974,0.22013 0.80688,0.33674 0.26805,0.10889 0.54086,0.20507 0.81676,0.29219 0.27745,0.0873 0.55829,0.16343 0.84014,0.23524 0.28095,0.0722 0.56154,0.14649 0.84648,0.20171 0.27669,0.0583 0.55319,0.11807 0.83245,0.1631 0.27141,0.0444 0.54245,0.0914 0.81471,0.13033 0.27374,0.0349 0.5482,0.0639 0.82312,0.0879 0.27603,0.0214 0.55206,0.0429 0.8279,0.0667 0.26786,0.0232 0.53592,0.046 0.80231,0.0829 0.25962,0.0341 0.51895,0.0712 0.77968,0.0959 0.2513,0.0256 0.50289,0.0471 0.75493,0.0643 0.23635,0.0174 0.47292,0.032 0.70998,0.0344 0.22507,0.003 0.4499,0.0108 0.67457,0.0251 0.19321,0.0107 0.38635,0.0225 0.57949,0.0345 0.15575,0.008 0.31177,0.0105 0.46772,0.009 0.13665,5.2e-4 0.27329,0.001 0.40962,-0.0101 0.12399,-0.009 0.24761,-0.0227 0.3692,-0.0493 0.12508,-0.0308 0.24867,-0.0668 0.37148,-0.1057 0.57742,-0.17178 -1.05504,0.44243 -0.63262,0.46375 0.002,-0.001 0.0397,0.0392 0.012,-0.008 -0.0298,-0.0259 -0.0592,-0.0469 -0.10091,-0.0533 -0.062,-0.0199 -0.12307,-0.0425 -0.18721,-0.055 -0.0899,-0.02 -0.18094,-0.034 -0.26987,-0.058 -0.12363,-0.0378 -0.24328,-0.0868 -0.36151,-0.13896 -0.1381,-0.0609 -0.27447,-0.12547 -0.40907,-0.19381 -0.16694,-0.0857 -0.33003,-0.17845 -0.48607,-0.28296 -0.19775,-0.13466 -0.39039,-0.27671 -0.588,-0.41161 -0.25433,-0.17501 -0.50577,-0.35401 -0.75607,-0.53473 -0.303,-0.21966 -0.60688,-0.43807 -0.91336,-0.65286 -0.31106,-0.22354 -0.62459,-0.44347 -0.94185,-0.65816 -0.30447,-0.21179 -0.60907,-0.42339 -0.91698,-0.63019 -0.2981,-0.19927 -0.59547,-0.39962 -0.89326,-0.59934 -0.28946,-0.19265 -0.58274,-0.37949 -0.87133,-0.57345 -0.28141,-0.18691 -0.56591,-0.36893 -0.85531,-0.54328 -0.28732,-0.17454 -0.57665,-0.34582 -0.86811,-0.51335 -0.2927,-0.16443 -0.58667,-0.32654 -0.88409,-0.48232 -0.28369,-0.15255 -0.56855,-0.30285 -0.8549,-0.45037 -0.27601,-0.14345 -0.55452,-0.28204 -0.83672,-0.41294 -0.2793,-0.12832 -0.55875,-0.25633 -0.84007,-0.38017 -0.28312,-0.12018 -0.56773,-0.23731 -0.8568,-0.34256 -0.29305,-0.10473 -0.58816,-0.20492 -0.89004,-0.28147 -0.31341,-0.0776 -0.6292,-0.1451 -0.94889,-0.19162 -0.32308,-0.0473 -0.64806,-0.0831 -0.97463,-0.0939 -0.3305,-0.0105 -0.66113,-0.005 -0.99121,0.0159 -0.33583,0.0253 -0.67058,0.0615 -1.00484,0.10258 -0.32694,0.0403 -0.65339,0.0852 -0.97685,0.1483 -0.3101,0.0614 -0.62041,0.12377 -0.925,0.2091 -0.31583,0.0906 -0.62875,0.19194 -0.93614,0.30819 -0.32852,0.12673 -0.65437,0.26006 -0.97444,0.40706 -0.34281,0.15833 -0.68052,0.32796 -1.00861,0.51512 1.71083,-0.98997 0.30152,-0.17889 -0.0809,0.0715 -0.36063,0.22779 -0.71474,0.46561 -1.06526,0.70865 -0.36356,0.25246 -0.7189,0.51599 -1.06974,0.78585 -0.36453,0.27184 -0.73742,0.53217 -1.12026,0.77768 -0.38366,0.24473 -0.76665,0.49053 -1.15518,0.72751 -0.51363,0.30788 -1.03415,0.60413 -1.55289,0.90327 -0.13039,0.0752 -0.52292,0.29828 -0.39288,0.22251 0.25719,-0.14985 0.51535,-0.29804 0.77302,-0.44707 -0.55643,0.32491 -3.1821,1.85928 -1.14603,0.67274 -0.38598,0.22275 -0.77183,0.44573 -1.15796,0.66823 -0.0633,0.0365 -0.25372,0.14542 -0.19046,0.10876 0.25917,-0.15021 1.03785,-0.59888 0.77824,-0.44942 -0.51346,0.2956 -1.02462,0.59507 -1.54137,0.88487 -0.38853,0.22004 -0.77821,0.43802 -1.1712,0.65002 -0.40036,0.21958 -0.80076,0.43911 -1.20508,0.65136 -0.40805,0.21862 -0.81416,0.4412 -1.23076,0.64334 -0.42336,0.20769 -0.85126,0.40616 -1.28222,0.59757 -0.44519,0.1936 -0.89402,0.37905 -1.34704,0.55359 -0.46852,0.1781 -0.93772,0.35437 -1.40969,0.52319 -0.47991,0.17267 -0.96205,0.33897 -1.44795,0.4941 -0.50637,0.16302 -1.01423,0.3215 -1.52451,0.4719 -0.51948,0.15429 -1.04025,0.30418 -1.56678,0.43293 -0.5307,0.13392 -1.06233,0.26414 -1.59325,0.39717 -0.53719,0.12996 -1.07333,0.26431 -1.61191,0.38841 -0.54308,0.12372 -1.08796,0.23914 -1.63401,0.34905 -0.55682,0.10951 -1.1137,0.21988 -1.67507,0.30404 -0.58224,0.0878 -1.16488,0.17324 -1.75066,0.23437 -0.59859,0.0647 -1.1974,0.12712 -1.79701,0.18188 -0.60531,0.0549 -1.21117,0.1052 -1.81819,0.13732 -0.62064,0.0287 -1.24166,0.0475 -1.86287,0.0587 -0.63059,0.009 -1.26126,0.003 -1.8916,-0.0175 -0.64981,-0.0228 -1.2995,-0.0494 -1.94843,-0.0909 -0.66615,-0.0442 -1.3319,-0.0935 -1.99702,-0.15137 -0.67053,-0.0558 -1.34095,-0.1129 -2.01109,-0.1733 -0.6666,-0.06 -1.33294,-0.12332 -2.00014,-0.1764 -0.67093,-0.0546 -1.3418,-0.11021 -2.01341,-0.15601 -0.67118,-0.0494 -1.34219,-0.10096 -2.01352,-0.14813 -0.67307,-0.0436 -1.34607,-0.0882 -2.01889,-0.13558 -0.66653,-0.047 -1.333,-0.0951 -1.99923,-0.14628 -0.65958,-0.0507 -1.31907,-0.1027 -1.97833,-0.15748 -0.65623,-0.0543 -1.3124,-0.10949 -1.96931,-0.1553 -0.65755,-0.0497 -1.31521,-0.0991 -1.97156,-0.16303 -0.6562,-0.0628 -1.31226,-0.12706 -1.9679,-0.19542 -0.64839,-0.0677 -1.29661,-0.13705 -1.94433,-0.21094 -0.64183,-0.0735 -1.28362,-0.14772 -1.92401,-0.23303 -0.64097,-0.0886 -1.28167,-0.17924 -1.92149,-0.27585 -0.63391,-0.096 -1.26766,-0.19344 -1.89939,-0.303 -0.63294,-0.11286 -1.26529,-0.22896 -1.89702,-0.34842 -0.63093,-0.11675 -1.26286,-0.22807 -1.89263,-0.35101 -0.62392,-0.12098 -1.24703,-0.24602 -1.87015,-0.37102 -0.62335,-0.12108 -1.24626,-0.24459 -1.8669,-0.37894 -0.6218,-0.13679 -1.24172,-0.28203 -1.86006,-0.43368 -0.61154,-0.15103 -1.22222,-0.30558 -1.83025,-0.47019 -0.60044,-0.16297 -1.19988,-0.32972 -1.79607,-0.50769 -0.59404,-0.17801 -1.18676,-0.3606 -1.77324,-0.56238 -0.58573,-0.19977 -1.16991,-0.40419 -1.74936,-0.6216 -0.57325,-0.21555 -1.14406,-0.43736 -1.71265,-0.66492 -0.56819,-0.22286 -1.13436,-0.45096 -1.69467,-0.69307 -0.5559,-0.24042 -1.10941,-0.4863 -1.66301,-0.73194 -0.54646,-0.24716 -1.09122,-0.49804 -1.63548,-0.74999 -0.54424,-0.24925 -1.08516,-0.50564 -1.63037,-0.75279 -0.54946,-0.24743 -1.10018,-0.49213 -1.64583,-0.74792 -0.54653,-0.25408 -1.09327,-0.50767 -1.63867,-0.76418 -0.54876,-0.25712 -1.09881,-0.51142 -1.65053,-0.76215 -0.55435,-0.25444 -1.11003,-0.50595 -1.66415,-0.76089 -0.55432,-0.2574 -1.10949,-0.51298 -1.66178,-0.77473 -0.55385,-0.25743 -1.10592,-0.51876 -1.66492,-0.76496 -0.56253,-0.24869 -1.12599,-0.49527 -1.68667,-0.74813 -0.56902,-0.25205 -1.13598,-0.50865 -1.70088,-0.76982 -0.5732,-0.2583 -1.14782,-0.51336 -1.72345,-0.76622 -0.57009,-0.25431 -1.14018,-0.50871 -1.70311,-0.77864 -0.55474,-0.26311 -1.10895,-0.52733 -1.66288,-0.79213 -0.55396,-0.26194 -1.10487,-0.53022 -1.6571,-0.79576 -0.55295,-0.26794 -1.10658,-0.53445 -1.65443,-0.81276 -0.55263,-0.2736 -1.10458,-0.54872 -1.65297,-0.83075 -0.54518,-0.28409 -1.08884,-0.57111 -1.63328,-0.85662 -0.53435,-0.2859 -1.06487,-0.57882 -1.59417,-0.87396 -0.51783,-0.28843 -1.03305,-0.58155 -1.54582,-0.87892 -0.51211,-0.29428 -1.01887,-0.59752 -1.52496,-0.90203 -0.50685,-0.30567 -1.01329,-0.61205 -1.52063,-0.91691 -0.51131,-0.30634 -1.02562,-0.60763 -1.53778,-0.91254 -0.51937,-0.30414 -1.03853,-0.60889 -1.56787,-0.89552 -0.53659,-0.29348 -1.07842,-0.57725 -1.62349,-0.85467 -0.55519,-0.27748 -1.11256,-0.55073 -1.6749,-0.81349 -0.5593,-0.25963 -1.12555,-0.50348 -1.69935,-0.72944 -0.58802,-0.22958 -1.18094,-0.44606 -1.77285,-0.66532 -0.59362,-0.2236 -1.18687,-0.44815 -1.78002,-0.67299 -0.59837,-0.22712 -1.19744,-0.45268 -1.80161,-0.664 -0.61369,-0.2181 -1.22838,-0.43361 -1.8488,-0.63196 -0.61878,-0.20472 -1.23547,-0.41585 -1.85642,-0.61394 -0.60669,-0.19596 -1.21438,-0.3888 -1.82364,-0.57668 -0.61844,-0.18724 -1.23828,-0.36962 -1.85968,-0.54674 -0.62505,-0.18196 -1.25116,-0.36026 -1.87655,-0.54111 -0.63029,-0.17847 -1.25863,-0.3637 -1.88937,-0.54048 -0.63857,-0.17766 -1.27841,-0.35063 -1.91852,-0.52255 -0.63616,-0.17297 -1.27272,-0.34442 -1.90939,-0.51543 -0.63193,-0.16386 -1.26555,-0.32091 -1.89958,-0.47641 -0.63097,-0.1537 -1.26055,-0.31298 -1.89145,-0.46688 -0.62836,-0.15492 -1.25571,-0.31392 -1.88476,-0.46602 -0.63121,-0.15252 -1.26457,-0.29581 -1.89751,-0.44097 -0.62698,-0.14352 -1.25476,-0.28352 -1.88259,-0.42328 -0.6246,-0.14095 -1.2492,-0.28182 -1.87571,-0.41412 -0.63235,-0.13177 -1.26474,-0.26361 -1.89966,-0.38266 -0.63349,-0.12275 -1.26724,-0.24394 -1.90148,-0.36277 -0.63616,-0.12101 -1.27315,-0.23738 -1.91034,-0.35272 -0.6432,-0.11268 -1.2859,-0.22832 -1.93053,-0.33263 -0.65255,-0.10655 -1.30596,-0.20763 -1.96043,-0.30172 -0.66046,-0.0952 -1.32165,-0.18519 -1.98205,-0.28093 -0.66495,-0.0927 -1.33051,-0.18149 -1.99668,-0.26517 -0.67196,-0.0845 -1.34421,-0.16624 -2.01681,-0.24546 -0.66974,-0.0819 -1.33919,-0.16599 -2.00827,-0.25316 -0.66516,-0.0855 -1.33077,-0.16749 -1.99763,-0.23871 -0.67233,-0.0726 -1.34522,-0.14006 -2.01885,-0.19952 -0.66902,-0.0611 -1.33789,-0.12363 -2.00641,-0.19003 -0.66215,-0.0659 -1.32416,-0.13338 -1.98575,-0.20484 -0.65424,-0.0707 -1.30813,-0.14478 -1.96295,-0.20991 -0.64585,-0.0649 -1.2918,-0.12915 -1.93916,-0.17698 -0.64518,-0.0509 -1.2905,-0.0998 -1.93664,-0.13661 -0.65201,-0.0361 -1.30392,-0.0752 -1.95644,-0.10103 -0.65656,-0.0259 -1.31339,-0.0454 -1.97053,-0.0463 -0.66768,-0.001 -1.33538,-0.002 -2.003,0.0102 -0.67234,0.01 -1.34456,0.0234 -2.01663,0.0455 -0.67577,0.0204 -1.35136,0.0452 -2.02663,0.0789 -0.67929,0.0321 -1.35829,0.0689 -2.03684,0.11424 -0.67673,0.0429 -1.3534,0.0868 -2.02989,0.13362 -0.67373,0.0469 -1.34757,0.0933 -2.0202,0.15426 -0.67394,0.0598 -1.34776,0.12102 -2.02123,0.18599 -0.66749,0.0645 -1.33485,0.13056 -2.00175,0.20068 -0.66054,0.0696 -1.32088,0.14093 -1.98086,0.21579 -0.65299,0.0736 -1.30622,0.14507 -1.95993,0.21239 -0.65228,0.0685 -1.30521,0.13025 -1.95776,0.19645 -0.64746,0.0664 -1.29484,0.13387 -1.94138,0.20895 -0.64756,0.0775 -1.29415,0.16285 -1.94042,0.25029 -0.63969,0.0875 -1.27911,0.17697 -1.91762,0.27265 -0.63575,0.0958 -1.27109,0.19422 -1.90373,0.30881 -0.63104,0.11181 -1.26159,0.22621 -1.89077,0.34804 -0.62122,0.12057 -1.24187,0.2441 -1.86105,0.37481 -0.60979,0.12843 -1.21978,0.25585 -1.82933,0.38538 -0.59939,0.13018 -1.19809,0.26367 -1.79499,0.40495 -0.59277,0.13984 -1.18575,0.2787 -1.7794,0.41488 -0.59227,0.13622 -1.18562,0.26793 -1.77588,0.41278 -0.58264,0.14225 -1.16404,0.28951 -1.74543,0.4368 -0.58235,0.14293 -1.16491,0.2849 -1.74792,0.42508 -0.57542,0.13909 -1.1511,0.2772 -1.72717,0.4135 -0.56947,0.13607 -1.13808,0.27573 -1.70453,0.42389 -0.56131,0.14629 -1.12257,0.29284 -1.686,0.4309 -0.56632,0.13653 -1.13377,0.26829 -1.7,0.40519 -0.56486,0.13419 -1.13036,0.26591 -1.69617,0.39612 -0.56155,0.13019 -1.12181,0.26576 -1.68362,0.39483 -0.5587,0.12961 -1.11747,0.25892 -1.67796,0.38054 -0.55436,0.11879 -1.10993,0.23187 -1.66362,0.35367 -0.54322,0.12029 -1.08538,0.24516 -1.62759,0.36989 -0.53872,0.11989 -1.07685,0.2424 -1.61605,0.3601 -0.52771,0.11943 -1.05468,0.24209 -1.57945,0.37392 -0.51234,0.12892 -1.02328,0.26329 -1.53549,0.39278 -0.50302,0.12922 -1.00459,0.26389 -1.50735,0.39415 -0.4907,0.12938 -0.98042,0.26255 -1.46736,0.40544 -0.47458,0.13887 -0.94948,0.27658 -1.42332,0.41794 -0.45715,0.13974 -0.91247,0.28516 -1.368,0.43008 -0.44003,0.14098 -0.8799,0.28243 -1.32125,0.41926 -0.43022,0.1329 -0.85855,0.27153 -1.2863,0.41205 -0.41153,0.13095 -0.82241,0.26402 -1.23574,0.38919 -0.39264,0.12092 -0.78645,0.2381 -1.18295,0.34585 -0.38341,0.10353 -0.76679,0.20713 -1.15218,0.3031 -0.3756,0.0921 -0.75121,0.18478 -1.13065,0.26017 -0.36525,0.0741 -0.73093,0.1463 -1.09722,0.21508 -0.3461,0.0642 -0.69295,0.1245 -1.0413,0.17516 -0.33496,0.049 -0.67077,0.0922 -1.00824,0.12011 -0.31272,0.0267 -0.62524,0.0563 -0.93856,0.0755 -0.28774,0.0191 -0.57539,0.0409 -0.8636,0.0515 -0.26109,0.011 -0.52224,0.0244 -0.78362,0.0251 -0.24016,0.002 -0.48043,0.003 -0.72033,-0.0103 -0.21261,-0.0121 -0.42505,-0.0298 -0.63822,-0.0289 -0.1946,0.002 -0.38958,0.011 -0.58148,0.0459 -0.18902,0.0333 -0.37772,0.071 -0.56007,0.13214 -0.21876,0.0763 -0.42838,0.17431 -0.63471,0.27951 1.45582,-0.86343 0.76814,-0.48244 0.46067,-0.2531 -0.0899,0.0752 -0.17132,0.15723 -0.24254,0.25049 -0.0532,0.0697 -0.0995,0.14415 -0.11055,0.2331 -0.006,0.083 0.0124,0.15895 0.0587,0.22925 0.0678,0.0996 0.15177,0.18553 0.24908,0.25691 0.13703,0.0968 0.28395,0.17794 0.43752,0.24568 0.20217,0.0894 0.40867,0.16785 0.61989,0.23341 0.2699,0.0849 0.5425,0.16041 0.81849,0.22318 0.33533,0.0769 0.67286,0.14528 1.01399,0.19126 0.39965,0.0516 0.80065,0.0923 1.20324,0.11282 0.47477,0.0228 0.95002,0.0328 1.42531,0.0207 0.53187,-0.0119 1.06371,-0.0236 1.59555,-0.0363 0.52096,-0.0124 1.04193,-0.0258 1.56294,-0.0364 0.51073,-0.008 1.02151,-0.009 1.53226,-0.0136 0.49342,-0.003 0.98681,-0.002 1.48013,0.01 0.48702,0.0122 0.97391,0.0312 1.46002,0.0638 0.48522,0.0331 0.96997,0.0734 1.45339,0.12718 0.47736,0.0528 0.95385,0.11412 1.42671,0.19902 0.47109,0.0858 0.94112,0.17918 1.40428,0.30157 0.47685,0.12886 0.95083,0.26842 1.41816,0.42881 0.46969,0.15984 0.93782,0.32461 1.39833,0.5096 0.45749,0.18253 0.91289,0.37062 1.35919,0.57935 0.4387,0.20405 0.87489,0.41375 1.30262,0.64008 0.41447,0.22018 0.82563,0.44668 1.22722,0.68974 0.39137,0.23663 0.78001,0.47776 1.17319,0.71142 0.38573,0.23338 0.77491,0.46082 1.1621,0.69173 0.38129,0.22728 0.76673,0.44762 1.154,0.66447 0.38651,0.21057 0.7732,0.42104 1.16883,0.61417 0.38552,0.19214 0.77261,0.38126 1.16131,0.56691 0.38243,0.18345 0.76739,0.36163 1.16107,0.51992 0.38605,0.15823 0.77324,0.31373 1.15729,0.47683 0.37803,0.15671 0.75927,0.30599 1.14913,0.43116 0.39399,0.12782 0.79299,0.24014 1.20005,0.31882 0.42426,0.0834 0.85055,0.15672 1.28145,0.19665 0.44935,0.0443 0.89991,0.0692 1.35136,0.0788 0.44781,0.0122 0.89575,0.0183 1.34361,0.0285 0.4336,0.009 0.86723,0.0185 1.3008,0.0288 0.4173,0.01 0.8346,0.0199 1.25187,0.031 0.39143,0.0105 0.78285,0.0214 1.17423,0.0335 0.36271,0.0113 0.72543,0.0231 1.08809,0.036 0.33552,0.0119 0.67104,0.0258 1.00677,0.0282 0.3271,0.004 0.65442,0.006 0.98118,0.0222 0.32457,0.0226 0.64836,0.0554 0.96859,0.1144 0.31221,0.0564 0.62314,0.11906 0.93152,0.19392 0.29966,0.0729 0.5975,0.15353 0.88974,0.25248 0.27395,0.0917 0.54655,0.18736 0.82028,0.27966 0.24779,0.0863 0.49668,0.16927 0.74356,0.25809 0.21548,0.0754 0.42895,0.15687 0.64749,0.22323 0.19206,0.0557 0.38423,0.1118 0.57968,0.15459 0.17722,0.0377 0.35499,0.0727 0.53176,0.11246 0.16134,0.03 0.32361,0.0551 0.48635,0.0762 0.14857,0.0178 0.29673,0.039 0.44569,0.0533 0,0 -0.92204,0.65776 -0.92204,0.65776 z"
       inkscape:connector-curvature="0" />
  </g>
</svg>
