<?xml version="1.0" encoding="UTF-8"?>
<svg xmlns="http://www.w3.org/2000/svg" xmlns:xlink="http://www.w3.org/1999/xlink" width="500pt" height="389.826014pt" viewBox="0 0 500 389.826014" version="1.1">
<g id="surface1">
<path style="fill-rule:nonzero;fill:rgb(48.235294%,40.784314%,93.333333%);fill-opacity:1;stroke-width:1.765958;stroke-linecap:butt;stroke-linejoin:miter;stroke:rgb(0%,0%,0%);stroke-opacity:1;stroke-miterlimit:10;" d="M 22.15625 133.558594 L 34.691406 133.558594 L 34.691406 8.214844 L 22.15625 8.214844 Z M 22.15625 133.558594 "/>
<path style=" stroke:none;fill-rule:nonzero;fill:rgb(100%,0%,0%);fill-opacity:1;" d="M 36.070312 9.597656 C 36.832031 8.835938 36.832031 7.601562 36.070312 6.839844 C 35.308594 6.078125 34.074219 6.078125 33.3125 6.839844 C 32.550781 7.601562 32.550781 8.835938 33.3125 9.597656 C 34.074219 10.359375 35.308594 10.359375 36.070312 9.597656 Z M 36.070312 9.597656 "/>
<path style="fill-rule:nonzero;fill:rgb(48.235294%,40.784314%,93.333333%);fill-opacity:1;stroke-width:1.765958;stroke-linecap:butt;stroke-linejoin:miter;stroke:rgb(0%,0%,0%);stroke-opacity:1;stroke-miterlimit:10;" d="M 160.035156 146.09375 L 160.035156 133.558594 L 34.691406 133.558594 L 34.691406 146.09375 Z M 160.035156 146.09375 "/>
<path style=" stroke:none;fill-rule:nonzero;fill:rgb(100%,0%,0%);fill-opacity:1;" d="M 161.414062 134.9375 C 162.175781 134.175781 162.175781 132.941406 161.414062 132.179688 C 160.652344 131.417969 159.417969 131.417969 158.65625 132.179688 C 157.894531 132.941406 157.894531 134.175781 158.65625 134.9375 C 159.417969 135.699219 160.652344 135.699219 161.414062 134.9375 Z M 161.414062 134.9375 "/>
<path style="fill-rule:nonzero;fill:rgb(48.235294%,40.784314%,93.333333%);fill-opacity:1;stroke-width:1.765958;stroke-linecap:butt;stroke-linejoin:miter;stroke:rgb(0%,0%,0%);stroke-opacity:1;stroke-miterlimit:10;" d="M 227.84375 383.558594 L 250 361.402344 L 28.425781 139.828125 L 6.269531 161.984375 Z M 227.84375 383.558594 "/>
<path style=" stroke:none;fill-rule:nonzero;fill:rgb(100%,0%,0%);fill-opacity:1;" d="M 35.96875 139.824219 C 35.96875 135.65625 32.589844 132.277344 28.421875 132.277344 C 24.253906 132.277344 20.875 135.65625 20.875 139.824219 C 20.875 143.992188 24.253906 147.371094 28.421875 147.371094 C 32.589844 147.371094 35.96875 143.992188 35.96875 139.824219 Z M 35.96875 139.824219 "/>
<path style="fill-rule:nonzero;fill:rgb(48.235294%,40.784314%,93.333333%);fill-opacity:1;stroke-width:1.765958;stroke-linecap:butt;stroke-linejoin:miter;stroke:rgb(0%,0%,0%);stroke-opacity:1;stroke-miterlimit:10;" d="M 465.308594 146.09375 L 465.308594 133.558594 L 339.964844 133.558594 L 339.964844 146.09375 Z M 465.308594 146.09375 "/>
<path style=" stroke:none;fill-rule:nonzero;fill:rgb(100%,0%,0%);fill-opacity:1;" d="M 341.34375 132.179688 C 340.582031 131.417969 339.347656 131.417969 338.585938 132.179688 C 337.824219 132.941406 337.824219 134.175781 338.585938 134.9375 C 339.347656 135.699219 340.582031 135.699219 341.34375 134.9375 C 342.105469 134.175781 342.105469 132.941406 341.34375 132.179688 Z M 341.34375 132.179688 "/>
<path style="fill-rule:nonzero;fill:rgb(48.235294%,40.784314%,93.333333%);fill-opacity:1;stroke-width:1.765958;stroke-linecap:butt;stroke-linejoin:miter;stroke:rgb(0%,0%,0%);stroke-opacity:1;stroke-miterlimit:10;" d="M 477.84375 8.21875 L 465.308594 8.21875 L 465.308594 133.5625 L 477.84375 133.5625 Z M 477.84375 8.21875 "/>
<path style=" stroke:none;fill-rule:nonzero;fill:rgb(100%,0%,0%);fill-opacity:1;" d="M 466.6875 6.839844 C 465.925781 6.078125 464.691406 6.078125 463.929688 6.839844 C 463.167969 7.601562 463.167969 8.835938 463.929688 9.597656 C 464.691406 10.359375 465.925781 10.359375 466.6875 9.597656 C 467.449219 8.835938 467.449219 7.601562 466.6875 6.839844 Z M 466.6875 6.839844 "/>
<path style="fill-rule:nonzero;fill:rgb(48.235294%,40.784314%,93.333333%);fill-opacity:1;stroke-width:1.765958;stroke-linecap:butt;stroke-linejoin:miter;stroke:rgb(0%,0%,0%);stroke-opacity:1;stroke-miterlimit:10;" d="M 493.734375 161.984375 L 471.578125 139.828125 L 250.003906 361.402344 L 272.160156 383.558594 Z M 493.734375 161.984375 "/>
<path style=" stroke:none;fill-rule:nonzero;fill:rgb(100%,0%,0%);fill-opacity:1;" d="M 479.121094 139.824219 C 479.121094 135.65625 475.742188 132.277344 471.574219 132.277344 C 467.40625 132.277344 464.027344 135.65625 464.027344 139.824219 C 464.027344 143.992188 467.40625 147.371094 471.574219 147.371094 C 475.742188 147.371094 479.121094 143.992188 479.121094 139.824219 Z M 479.121094 139.824219 "/>
</g>
</svg>
