<?xml version="1.0" encoding="UTF-8"?>
<svg xmlns="http://www.w3.org/2000/svg" xmlns:xlink="http://www.w3.org/1999/xlink" width="800pt" height="415.384615pt" viewBox="0 0 800 415.384615" version="1.1">
<g id="surface1">
<path style=" stroke:none;fill-rule:nonzero;fill:rgb(94.901961%,67.45098%,43.529412%);fill-opacity:1;" d="M 707.691406 323.078125 L 707.691406 400 L 784.613281 400 L 784.613281 323.078125 Z M 707.691406 323.078125 "/>
<path style=" stroke:none;fill-rule:nonzero;fill:rgb(94.901961%,67.45098%,43.529412%);fill-opacity:1;" d="M 707.691406 323.078125 L 707.691406 400 L 784.613281 323.078125 Z M 707.691406 323.078125 "/>
<path style=" stroke:none;fill-rule:nonzero;fill:rgb(96.078431%,39.215686%,34.509804%);fill-opacity:1;" d="M 776.921875 323.078125 C 776.921875 340.070312 763.144531 353.847656 746.152344 353.847656 C 729.160156 353.847656 715.382812 340.070312 715.382812 323.078125 C 735.894531 323.078125 756.410156 323.078125 776.921875 323.078125 Z M 776.921875 323.078125 "/>
<path style=" stroke:none;fill-rule:nonzero;fill:rgb(69.803922%,24.705882%,85.882353%);fill-opacity:1;" d="M 630.769531 400 L 630.769531 323.078125 L 707.691406 323.078125 L 707.691406 400 Z M 630.769531 400 "/>
<path style=" stroke:none;fill-rule:nonzero;fill:rgb(100%,60.784314%,21.176471%);fill-opacity:1;" d="M 630.769531 400 L 630.769531 323.078125 L 707.691406 400 Z M 630.769531 400 "/>
<path style=" stroke:none;fill-rule:nonzero;fill:rgb(100%,55.686275%,53.333333%);fill-opacity:1;" d="M 700 400 C 700 383.007812 686.222656 369.230469 669.230469 369.230469 C 652.238281 369.230469 638.460938 383.007812 638.460938 400 C 658.972656 400 679.488281 400 700 400 Z M 700 400 "/>
<path style=" stroke:none;fill-rule:nonzero;fill:rgb(100%,100%,100%);fill-opacity:1;" d="M 630.769531 400 L 630.769531 323.078125 L 553.847656 323.078125 L 553.847656 400 Z M 630.769531 400 "/>
<path style=" stroke:none;fill-rule:nonzero;fill:rgb(100%,100%,100%);fill-opacity:1;" d="M 630.769531 400 L 630.769531 323.078125 L 553.847656 400 Z M 630.769531 400 "/>
<path style=" stroke:none;fill-rule:nonzero;fill:rgb(100%,100%,100%);fill-opacity:1;" d="M 561.539062 400 C 561.539062 383.007812 575.316406 369.230469 592.308594 369.230469 C 609.300781 369.230469 623.078125 383.007812 623.078125 400 C 602.566406 400 582.050781 400 561.539062 400 Z M 561.539062 400 "/>
<path style=" stroke:none;fill-rule:nonzero;fill:rgb(100%,7.45098%,7.45098%);fill-opacity:1;" d="M 476.921875 400 L 476.921875 323.078125 L 553.84375 323.078125 L 553.84375 400 Z M 476.921875 400 "/>
<path style=" stroke:none;fill-rule:nonzero;fill:rgb(100%,88.235294%,19.607843%);fill-opacity:1;" d="M 476.921875 400 L 476.921875 323.078125 L 553.84375 400 Z M 476.921875 400 "/>
<path style=" stroke:none;fill-rule:nonzero;fill:rgb(6.666667%,76.470588%,0%);fill-opacity:1;" d="M 546.152344 400 C 546.152344 383.007812 532.375 369.230469 515.382812 369.230469 C 498.390625 369.230469 484.613281 383.007812 484.613281 400 C 505.125 400 525.640625 400 546.152344 400 Z M 546.152344 400 "/>
<path style=" stroke:none;fill-rule:nonzero;fill:rgb(83.921569%,18.823529%,0%);fill-opacity:1;" d="M 400 400 L 400 323.078125 L 476.921875 323.078125 L 476.921875 400 Z M 400 400 "/>
<path style=" stroke:none;fill-rule:nonzero;fill:rgb(0%,75.686275%,100%);fill-opacity:1;" d="M 400 400 L 400 323.078125 L 476.921875 400 Z M 400 400 "/>
<path style=" stroke:none;fill-rule:nonzero;fill:rgb(100%,78.823529%,0%);fill-opacity:1;" d="M 469.230469 400 C 469.230469 383.007812 455.453125 369.230469 438.460938 369.230469 C 421.46875 369.230469 407.691406 383.007812 407.691406 400 C 428.203125 400 448.71875 400 469.230469 400 Z M 469.230469 400 "/>
<path style=" stroke:none;fill-rule:nonzero;fill:rgb(99.607843%,31.372549%,100%);fill-opacity:1;" d="M 400 323.078125 L 400 400 L 323.078125 400 L 323.078125 323.078125 Z M 400 323.078125 "/>
<path style=" stroke:none;fill-rule:nonzero;fill:rgb(99.607843%,31.372549%,100%);fill-opacity:1;" d="M 400 323.078125 L 400 400 L 323.078125 323.078125 Z M 400 323.078125 "/>
<path style=" stroke:none;fill-rule:nonzero;fill:rgb(34.901961%,100%,45.882353%);fill-opacity:1;" d="M 330.769531 323.078125 C 330.769531 340.070312 344.546875 353.847656 361.539062 353.847656 C 378.53125 353.847656 392.308594 340.070312 392.308594 323.078125 C 371.796875 323.078125 351.28125 323.078125 330.769531 323.078125 Z M 330.769531 323.078125 "/>
<path style=" stroke:none;fill-rule:nonzero;fill:rgb(3.921569%,17.647059%,46.27451%);fill-opacity:1;" d="M 246.152344 400 L 246.152344 323.078125 L 323.074219 323.078125 L 323.074219 400 Z M 246.152344 400 "/>
<path style=" stroke:none;fill-rule:nonzero;fill:rgb(71.372549%,70.588235%,70.588235%);fill-opacity:1;" d="M 246.152344 400 L 246.152344 323.078125 L 323.074219 400 Z M 246.152344 400 "/>
<path style=" stroke:none;fill-rule:nonzero;fill:rgb(3.921569%,17.647059%,46.27451%);fill-opacity:1;" d="M 315.382812 400 C 315.382812 383.007812 301.605469 369.230469 284.613281 369.230469 C 267.621094 369.230469 253.84375 383.007812 253.84375 400 C 274.355469 400 294.871094 400 315.382812 400 Z M 315.382812 400 "/>
<path style=" stroke:none;fill-rule:nonzero;fill:rgb(83.529412%,29.803922%,49.803922%);fill-opacity:1;" d="M 169.230469 323.078125 L 169.230469 400 L 246.152344 400 L 246.152344 323.078125 Z M 169.230469 323.078125 "/>
<path style=" stroke:none;fill-rule:nonzero;fill:rgb(31.372549%,68.627451%,82.352941%);fill-opacity:1;" d="M 169.230469 323.078125 L 169.230469 400 L 246.152344 323.078125 Z M 169.230469 323.078125 "/>
<path style=" stroke:none;fill-rule:nonzero;fill:rgb(83.529412%,32.941176%,82.352941%);fill-opacity:1;" d="M 238.460938 323.078125 C 238.460938 340.070312 224.683594 353.847656 207.691406 353.847656 C 190.699219 353.847656 176.921875 340.070312 176.921875 323.078125 C 197.433594 323.078125 217.949219 323.078125 238.460938 323.078125 Z M 238.460938 323.078125 "/>
<path style=" stroke:none;fill-rule:nonzero;fill:rgb(76.078431%,0%,82.745098%);fill-opacity:1;" d="M 169.230469 400 L 169.230469 323.078125 L 92.308594 323.078125 L 92.308594 400 Z M 169.230469 400 "/>
<path style=" stroke:none;fill-rule:nonzero;fill:rgb(0%,61.960784%,83.529412%);fill-opacity:1;" d="M 169.230469 400 L 169.230469 323.078125 L 92.308594 400 Z M 169.230469 400 "/>
<path style=" stroke:none;fill-rule:nonzero;fill:rgb(83.529412%,0%,39.607843%);fill-opacity:1;" d="M 100 400 C 100 383.007812 113.777344 369.230469 130.769531 369.230469 C 147.761719 369.230469 161.539062 383.007812 161.539062 400 C 141.027344 400 120.511719 400 100 400 Z M 100 400 "/>
<path style=" stroke:none;fill-rule:nonzero;fill:rgb(0%,59.215686%,57.647059%);fill-opacity:1;" d="M 15.382812 323.078125 L 15.382812 400 L 92.304688 400 L 92.304688 323.078125 Z M 15.382812 323.078125 "/>
<path style=" stroke:none;fill-rule:nonzero;fill:rgb(99.215686%,72.54902%,7.45098%);fill-opacity:1;" d="M 15.382812 323.078125 L 15.382812 400 L 92.304688 323.078125 Z M 15.382812 323.078125 "/>
<path style=" stroke:none;fill-rule:nonzero;fill:rgb(10.980392%,60.392157%,83.921569%);fill-opacity:1;" d="M 84.617188 323.078125 C 84.617188 340.070312 70.839844 353.847656 53.847656 353.847656 C 36.855469 353.847656 23.078125 340.070312 23.078125 323.078125 C 43.589844 323.078125 64.105469 323.078125 84.617188 323.078125 Z M 84.617188 323.078125 "/>
<path style=" stroke:none;fill-rule:nonzero;fill:rgb(83.529412%,0%,39.607843%);fill-opacity:1;" d="M 784.617188 323.078125 L 784.617188 246.15625 L 707.695312 246.15625 L 707.695312 323.078125 Z M 784.617188 323.078125 "/>
<path style=" stroke:none;fill-rule:nonzero;fill:rgb(76.078431%,0%,82.745098%);fill-opacity:1;" d="M 784.617188 323.078125 L 784.617188 246.15625 L 707.695312 323.078125 Z M 784.617188 323.078125 "/>
<path style=" stroke:none;fill-rule:nonzero;fill:rgb(35.294118%,0%,84.313725%);fill-opacity:1;" d="M 715.382812 323.078125 C 715.382812 306.085938 729.160156 292.308594 746.152344 292.308594 C 763.144531 292.308594 776.921875 306.085938 776.921875 323.078125 C 756.410156 323.078125 735.894531 323.078125 715.382812 323.078125 Z M 715.382812 323.078125 "/>
<path style=" stroke:none;fill-rule:nonzero;fill:rgb(65.098039%,100%,96.862745%);fill-opacity:1;" d="M 707.691406 323.078125 L 707.691406 246.15625 L 630.769531 246.15625 L 630.769531 323.078125 Z M 707.691406 323.078125 "/>
<path style=" stroke:none;fill-rule:nonzero;fill:rgb(11.372549%,0%,100%);fill-opacity:1;" d="M 707.691406 323.078125 L 707.691406 246.15625 L 630.769531 323.078125 Z M 707.691406 323.078125 "/>
<path style=" stroke:none;fill-rule:nonzero;fill:rgb(65.098039%,100%,96.862745%);fill-opacity:1;" d="M 638.460938 323.078125 C 638.460938 306.085938 652.238281 292.308594 669.230469 292.308594 C 686.222656 292.308594 700 306.085938 700 323.078125 C 679.488281 323.078125 658.972656 323.078125 638.460938 323.078125 Z M 638.460938 323.078125 "/>
<path style=" stroke:none;fill-rule:nonzero;fill:rgb(100%,64.313725%,70.196078%);fill-opacity:1;" d="M 553.847656 246.152344 L 553.847656 323.074219 L 630.769531 323.074219 L 630.769531 246.152344 Z M 553.847656 246.152344 "/>
<path style=" stroke:none;fill-rule:nonzero;fill:rgb(14.509804%,64.705882%,9.803922%);fill-opacity:1;" d="M 553.847656 246.152344 L 553.847656 323.074219 L 630.769531 246.152344 Z M 553.847656 246.152344 "/>
<path style=" stroke:none;fill-rule:nonzero;fill:rgb(100%,88.235294%,19.607843%);fill-opacity:1;" d="M 623.078125 246.152344 C 623.078125 263.144531 609.300781 276.921875 592.308594 276.921875 C 575.316406 276.921875 561.539062 263.144531 561.539062 246.152344 C 582.050781 246.152344 602.566406 246.152344 623.078125 246.152344 Z M 623.078125 246.152344 "/>
<path style=" stroke:none;fill-rule:nonzero;fill:rgb(98.039216%,49.411765%,11.764706%);fill-opacity:1;" d="M 553.847656 323.078125 L 553.847656 246.15625 L 476.925781 246.15625 L 476.925781 323.078125 Z M 553.847656 323.078125 "/>
<path style=" stroke:none;fill-rule:nonzero;fill:rgb(99.607843%,85.490196%,45.882353%);fill-opacity:1;" d="M 553.847656 323.078125 L 553.847656 246.15625 L 476.925781 323.078125 Z M 553.847656 323.078125 "/>
<path style=" stroke:none;fill-rule:nonzero;fill:rgb(58.823529%,18.431373%,74.901961%);fill-opacity:1;" d="M 484.617188 323.078125 C 484.617188 306.085938 498.394531 292.308594 515.386719 292.308594 C 532.378906 292.308594 546.15625 306.085938 546.15625 323.078125 C 525.644531 323.078125 505.128906 323.078125 484.617188 323.078125 Z M 484.617188 323.078125 "/>
<path style=" stroke:none;fill-rule:nonzero;fill:rgb(100%,100%,100%);fill-opacity:1;" d="M 476.921875 323.078125 L 476.921875 246.15625 L 400 246.15625 L 400 323.078125 Z M 476.921875 323.078125 "/>
<path style=" stroke:none;fill-rule:nonzero;fill:rgb(100%,98.039216%,48.235294%);fill-opacity:1;" d="M 476.921875 323.078125 L 476.921875 246.15625 L 400 323.078125 Z M 476.921875 323.078125 "/>
<path style=" stroke:none;fill-rule:nonzero;fill:rgb(0%,18.823529%,100%);fill-opacity:1;" d="M 407.691406 323.078125 C 407.691406 306.085938 421.46875 292.308594 438.460938 292.308594 C 455.453125 292.308594 469.230469 306.085938 469.230469 323.078125 C 448.71875 323.078125 428.203125 323.078125 407.691406 323.078125 Z M 407.691406 323.078125 "/>
<path style=" stroke:none;fill-rule:nonzero;fill:rgb(98.431373%,70.196078%,35.294118%);fill-opacity:1;" d="M 400 323.078125 L 400 246.15625 L 323.078125 246.15625 L 323.078125 323.078125 Z M 400 323.078125 "/>
<path style=" stroke:none;fill-rule:nonzero;fill:rgb(100%,34.901961%,47.058824%);fill-opacity:1;" d="M 400 323.078125 L 400 246.15625 L 323.078125 323.078125 Z M 400 323.078125 "/>
<path style=" stroke:none;fill-rule:nonzero;fill:rgb(21.568627%,30.196078%,48.627451%);fill-opacity:1;" d="M 330.769531 323.078125 C 330.769531 306.085938 344.546875 292.308594 361.539062 292.308594 C 378.53125 292.308594 392.308594 306.085938 392.308594 323.078125 C 371.796875 323.078125 351.28125 323.078125 330.769531 323.078125 Z M 330.769531 323.078125 "/>
<path style=" stroke:none;fill-rule:nonzero;fill:rgb(31.372549%,68.627451%,82.352941%);fill-opacity:1;" d="M 246.152344 323.078125 L 246.152344 246.15625 L 323.074219 246.15625 L 323.074219 323.078125 Z M 246.152344 323.078125 "/>
<path style=" stroke:none;fill-rule:nonzero;fill:rgb(83.529412%,32.941176%,82.352941%);fill-opacity:1;" d="M 246.152344 323.078125 L 246.152344 246.15625 L 323.074219 323.078125 Z M 246.152344 323.078125 "/>
<path style=" stroke:none;fill-rule:nonzero;fill:rgb(31.372549%,68.627451%,82.352941%);fill-opacity:1;" d="M 315.382812 323.078125 C 315.382812 306.085938 301.605469 292.308594 284.613281 292.308594 C 267.621094 292.308594 253.84375 306.085938 253.84375 323.078125 C 274.355469 323.078125 294.871094 323.078125 315.382812 323.078125 Z M 315.382812 323.078125 "/>
<path style=" stroke:none;fill-rule:nonzero;fill:rgb(47.058824%,16.862745%,56.470588%);fill-opacity:1;" d="M 246.152344 246.152344 L 246.152344 323.074219 L 169.230469 323.074219 L 169.230469 246.152344 Z M 246.152344 246.152344 "/>
<path style=" stroke:none;fill-rule:nonzero;fill:rgb(10.980392%,60.392157%,83.921569%);fill-opacity:1;" d="M 246.152344 246.152344 L 246.152344 323.074219 L 169.230469 246.152344 Z M 246.152344 246.152344 "/>
<path style=" stroke:none;fill-rule:nonzero;fill:rgb(10.980392%,60.392157%,83.921569%);fill-opacity:1;" d="M 176.921875 246.152344 C 176.921875 263.144531 190.699219 276.921875 207.691406 276.921875 C 224.683594 276.921875 238.460938 263.144531 238.460938 246.152344 C 217.949219 246.152344 197.433594 246.152344 176.921875 246.152344 Z M 176.921875 246.152344 "/>
<path style=" stroke:none;fill-rule:nonzero;fill:rgb(100%,100%,100%);fill-opacity:1;" d="M 92.308594 323.078125 L 92.308594 246.15625 L 169.230469 246.15625 L 169.230469 323.078125 Z M 92.308594 323.078125 "/>
<path style=" stroke:none;fill-rule:nonzero;fill:rgb(100%,100%,100%);fill-opacity:1;" d="M 92.308594 323.078125 L 92.308594 246.15625 L 169.230469 323.078125 Z M 92.308594 323.078125 "/>
<path style=" stroke:none;fill-rule:nonzero;fill:rgb(100%,100%,100%);fill-opacity:1;" d="M 161.539062 323.078125 C 161.539062 306.085938 147.761719 292.308594 130.769531 292.308594 C 113.777344 292.308594 100 306.085938 100 323.078125 C 120.511719 323.078125 141.027344 323.078125 161.539062 323.078125 Z M 161.539062 323.078125 "/>
<path style=" stroke:none;fill-rule:nonzero;fill:rgb(100%,81.176471%,100%);fill-opacity:1;" d="M 15.382812 246.152344 L 15.382812 323.074219 L 92.304688 323.074219 L 92.304688 246.152344 Z M 15.382812 246.152344 "/>
<path style=" stroke:none;fill-rule:nonzero;fill:rgb(67.058824%,63.921569%,100%);fill-opacity:1;" d="M 15.382812 246.152344 L 15.382812 323.074219 L 92.304688 246.152344 Z M 15.382812 246.152344 "/>
<path style=" stroke:none;fill-rule:nonzero;fill:rgb(100%,84.705882%,48.235294%);fill-opacity:1;" d="M 84.617188 246.152344 C 84.617188 263.144531 70.839844 276.921875 53.847656 276.921875 C 36.855469 276.921875 23.078125 263.144531 23.078125 246.152344 C 43.589844 246.152344 64.105469 246.152344 84.617188 246.152344 Z M 84.617188 246.152344 "/>
<path style=" stroke:none;fill-rule:nonzero;fill:rgb(71.372549%,70.588235%,70.588235%);fill-opacity:1;" d="M 784.617188 169.230469 L 784.617188 246.152344 L 707.695312 246.152344 L 707.695312 169.230469 Z M 784.617188 169.230469 "/>
<path style=" stroke:none;fill-rule:nonzero;fill:rgb(3.921569%,17.647059%,46.27451%);fill-opacity:1;" d="M 784.617188 169.230469 L 784.617188 246.152344 L 707.695312 169.230469 Z M 784.617188 169.230469 "/>
<path style=" stroke:none;fill-rule:nonzero;fill:rgb(0%,17.254902%,78.823529%);fill-opacity:1;" d="M 715.382812 169.230469 C 715.382812 186.222656 729.160156 200 746.152344 200 C 763.144531 200 776.921875 186.222656 776.921875 169.230469 C 756.410156 169.230469 735.894531 169.230469 715.382812 169.230469 Z M 715.382812 169.230469 "/>
<path style=" stroke:none;fill-rule:nonzero;fill:rgb(0%,83.137255%,72.156863%);fill-opacity:1;" d="M 707.691406 246.152344 L 707.691406 169.230469 L 630.769531 169.230469 L 630.769531 246.152344 Z M 707.691406 246.152344 "/>
<path style=" stroke:none;fill-rule:nonzero;fill:rgb(0%,83.137255%,72.156863%);fill-opacity:1;" d="M 707.691406 246.152344 L 707.691406 169.230469 L 630.769531 246.152344 Z M 707.691406 246.152344 "/>
<path style=" stroke:none;fill-rule:nonzero;fill:rgb(0%,83.137255%,72.156863%);fill-opacity:1;" d="M 638.460938 246.152344 C 638.460938 229.160156 652.238281 215.382812 669.230469 215.382812 C 686.222656 215.382812 700 229.160156 700 246.152344 C 679.488281 246.152344 658.972656 246.152344 638.460938 246.152344 Z M 638.460938 246.152344 "/>
<path style=" stroke:none;fill-rule:nonzero;fill:rgb(34.117647%,32.156863%,95.686275%);fill-opacity:1;" d="M 630.769531 246.152344 L 630.769531 169.230469 L 553.847656 169.230469 L 553.847656 246.152344 Z M 630.769531 246.152344 "/>
<path style=" stroke:none;fill-rule:nonzero;fill:rgb(34.117647%,32.156863%,95.686275%);fill-opacity:1;" d="M 630.769531 246.152344 L 630.769531 169.230469 L 553.847656 246.152344 Z M 630.769531 246.152344 "/>
<path style=" stroke:none;fill-rule:nonzero;fill:rgb(96.470588%,4.313725%,4.313725%);fill-opacity:1;" d="M 561.539062 246.152344 C 561.539062 229.160156 575.316406 215.382812 592.308594 215.382812 C 609.300781 215.382812 623.078125 229.160156 623.078125 246.152344 C 602.566406 246.152344 582.050781 246.152344 561.539062 246.152344 Z M 561.539062 246.152344 "/>
<path style=" stroke:none;fill-rule:nonzero;fill:rgb(83.921569%,16.078431%,46.27451%);fill-opacity:1;" d="M 476.921875 246.152344 L 476.921875 169.230469 L 553.84375 169.230469 L 553.84375 246.152344 Z M 476.921875 246.152344 "/>
<path style=" stroke:none;fill-rule:nonzero;fill:rgb(30.980392%,35.686275%,83.529412%);fill-opacity:1;" d="M 476.921875 246.152344 L 476.921875 169.230469 L 553.84375 246.152344 Z M 476.921875 246.152344 "/>
<path style=" stroke:none;fill-rule:nonzero;fill:rgb(58.823529%,18.431373%,74.901961%);fill-opacity:1;" d="M 546.152344 246.152344 C 546.152344 229.160156 532.375 215.382812 515.382812 215.382812 C 498.390625 215.382812 484.613281 229.160156 484.613281 246.152344 C 505.125 246.152344 525.640625 246.152344 546.152344 246.152344 Z M 546.152344 246.152344 "/>
<path style=" stroke:none;fill-rule:nonzero;fill:rgb(0%,17.254902%,78.823529%);fill-opacity:1;" d="M 476.921875 246.152344 L 476.921875 169.230469 L 400 169.230469 L 400 246.152344 Z M 476.921875 246.152344 "/>
<path style=" stroke:none;fill-rule:nonzero;fill:rgb(0%,17.254902%,78.823529%);fill-opacity:1;" d="M 476.921875 246.152344 L 476.921875 169.230469 L 400 246.152344 Z M 476.921875 246.152344 "/>
<path style=" stroke:none;fill-rule:nonzero;fill:rgb(96.470588%,50.588235%,25.490196%);fill-opacity:1;" d="M 407.691406 246.152344 C 407.691406 229.160156 421.46875 215.382812 438.460938 215.382812 C 455.453125 215.382812 469.230469 229.160156 469.230469 246.152344 C 448.71875 246.152344 428.203125 246.152344 407.691406 246.152344 Z M 407.691406 246.152344 "/>
<path style=" stroke:none;fill-rule:nonzero;fill:rgb(100%,18.431373%,50.588235%);fill-opacity:1;" d="M 400 169.230469 L 400 246.152344 L 323.078125 246.152344 L 323.078125 169.230469 Z M 400 169.230469 "/>
<path style=" stroke:none;fill-rule:nonzero;fill:rgb(49.803922%,45.098039%,100%);fill-opacity:1;" d="M 400 169.230469 L 400 246.152344 L 323.078125 169.230469 Z M 400 169.230469 "/>
<path style=" stroke:none;fill-rule:nonzero;fill:rgb(6.666667%,76.470588%,0%);fill-opacity:1;" d="M 330.769531 169.230469 C 330.769531 186.222656 344.546875 200 361.539062 200 C 378.53125 200 392.308594 186.222656 392.308594 169.230469 C 371.796875 169.230469 351.28125 169.230469 330.769531 169.230469 Z M 330.769531 169.230469 "/>
<path style=" stroke:none;fill-rule:nonzero;fill:rgb(100%,0%,0%);fill-opacity:1;" d="M 246.152344 246.152344 L 246.152344 169.230469 L 323.074219 169.230469 L 323.074219 246.152344 Z M 246.152344 246.152344 "/>
<path style=" stroke:none;fill-rule:nonzero;fill:rgb(100%,0%,0%);fill-opacity:1;" d="M 246.152344 246.152344 L 246.152344 169.230469 L 323.074219 246.152344 Z M 246.152344 246.152344 "/>
<path style=" stroke:none;fill-rule:nonzero;fill:rgb(76.078431%,100%,99.215686%);fill-opacity:1;" d="M 315.382812 246.152344 C 315.382812 229.160156 301.605469 215.382812 284.613281 215.382812 C 267.621094 215.382812 253.84375 229.160156 253.84375 246.152344 C 274.355469 246.152344 294.871094 246.152344 315.382812 246.152344 Z M 315.382812 246.152344 "/>
<path style=" stroke:none;fill-rule:nonzero;fill:rgb(35.294118%,73.72549%,80%);fill-opacity:1;" d="M 246.152344 169.230469 L 246.152344 246.152344 L 169.230469 246.152344 L 169.230469 169.230469 Z M 246.152344 169.230469 "/>
<path style=" stroke:none;fill-rule:nonzero;fill:rgb(13.72549%,43.137255%,58.823529%);fill-opacity:1;" d="M 246.152344 169.230469 L 246.152344 246.152344 L 169.230469 169.230469 Z M 246.152344 169.230469 "/>
<path style=" stroke:none;fill-rule:nonzero;fill:rgb(100%,74.509804%,25.882353%);fill-opacity:1;" d="M 176.921875 169.230469 C 176.921875 186.222656 190.699219 200 207.691406 200 C 224.683594 200 238.460938 186.222656 238.460938 169.230469 C 217.949219 169.230469 197.433594 169.230469 176.921875 169.230469 Z M 176.921875 169.230469 "/>
<path style=" stroke:none;fill-rule:nonzero;fill:rgb(0%,0%,26.666667%);fill-opacity:1;" d="M 92.308594 169.230469 L 92.308594 246.152344 L 169.230469 246.152344 L 169.230469 169.230469 Z M 92.308594 169.230469 "/>
<path style=" stroke:none;fill-rule:nonzero;fill:rgb(66.666667%,0%,6.666667%);fill-opacity:1;" d="M 92.308594 169.230469 L 92.308594 246.152344 L 169.230469 169.230469 Z M 92.308594 169.230469 "/>
<path style=" stroke:none;fill-rule:nonzero;fill:rgb(26.666667%,0%,26.666667%);fill-opacity:1;" d="M 161.539062 169.230469 C 161.539062 186.222656 147.761719 200 130.769531 200 C 113.777344 200 100 186.222656 100 169.230469 C 120.511719 169.230469 141.027344 169.230469 161.539062 169.230469 Z M 161.539062 169.230469 "/>
<path style=" stroke:none;fill-rule:nonzero;fill:rgb(0.784314%,23.137255%,100%);fill-opacity:1;" d="M 92.308594 246.152344 L 92.308594 169.230469 L 15.386719 169.230469 L 15.386719 246.152344 Z M 92.308594 246.152344 "/>
<path style=" stroke:none;fill-rule:nonzero;fill:rgb(100%,0%,0%);fill-opacity:1;" d="M 92.308594 246.152344 L 92.308594 169.230469 L 15.386719 246.152344 Z M 92.308594 246.152344 "/>
<path style=" stroke:none;fill-rule:nonzero;fill:rgb(78.823529%,0%,74.117647%);fill-opacity:1;" d="M 23.078125 246.152344 C 23.078125 229.160156 36.855469 215.382812 53.847656 215.382812 C 70.839844 215.382812 84.617188 229.160156 84.617188 246.152344 C 64.105469 246.152344 43.589844 246.152344 23.078125 246.152344 Z M 23.078125 246.152344 "/>
<path style=" stroke:none;fill-rule:nonzero;fill:rgb(21.568627%,48.627451%,85.882353%);fill-opacity:1;" d="M 707.691406 169.230469 L 707.691406 92.308594 L 784.613281 92.308594 L 784.613281 169.230469 Z M 707.691406 169.230469 "/>
<path style=" stroke:none;fill-rule:nonzero;fill:rgb(70.588235%,42.745098%,100%);fill-opacity:1;" d="M 707.691406 169.230469 L 707.691406 92.308594 L 784.613281 169.230469 Z M 707.691406 169.230469 "/>
<path style=" stroke:none;fill-rule:nonzero;fill:rgb(90.588235%,43.921569%,48.627451%);fill-opacity:1;" d="M 776.921875 169.230469 C 776.921875 152.238281 763.144531 138.460938 746.152344 138.460938 C 729.160156 138.460938 715.382812 152.238281 715.382812 169.230469 C 735.894531 169.230469 756.410156 169.230469 776.921875 169.230469 Z M 776.921875 169.230469 "/>
<path style=" stroke:none;fill-rule:nonzero;fill:rgb(100%,96.470588%,0%);fill-opacity:1;" d="M 707.691406 169.230469 L 707.691406 92.308594 L 630.769531 92.308594 L 630.769531 169.230469 Z M 707.691406 169.230469 "/>
<path style=" stroke:none;fill-rule:nonzero;fill:rgb(100%,21.176471%,38.823529%);fill-opacity:1;" d="M 707.691406 169.230469 L 707.691406 92.308594 L 630.769531 169.230469 Z M 707.691406 169.230469 "/>
<path style=" stroke:none;fill-rule:nonzero;fill:rgb(100%,21.176471%,38.823529%);fill-opacity:1;" d="M 638.460938 169.230469 C 638.460938 152.238281 652.238281 138.460938 669.230469 138.460938 C 686.222656 138.460938 700 152.238281 700 169.230469 C 679.488281 169.230469 658.972656 169.230469 638.460938 169.230469 Z M 638.460938 169.230469 "/>
<path style=" stroke:none;fill-rule:nonzero;fill:rgb(67.058824%,9.019608%,100%);fill-opacity:1;" d="M 553.847656 92.308594 L 553.847656 169.230469 L 630.769531 169.230469 L 630.769531 92.308594 Z M 553.847656 92.308594 "/>
<path style=" stroke:none;fill-rule:nonzero;fill:rgb(100%,0%,80.784314%);fill-opacity:1;" d="M 553.847656 92.308594 L 553.847656 169.230469 L 630.769531 92.308594 Z M 553.847656 92.308594 "/>
<path style=" stroke:none;fill-rule:nonzero;fill:rgb(48.627451%,0%,100%);fill-opacity:1;" d="M 623.078125 92.308594 C 623.078125 109.300781 609.300781 123.078125 592.308594 123.078125 C 575.316406 123.078125 561.539062 109.300781 561.539062 92.308594 C 582.050781 92.308594 602.566406 92.308594 623.078125 92.308594 Z M 623.078125 92.308594 "/>
<path style=" stroke:none;fill-rule:nonzero;fill:rgb(99.215686%,38.431373%,36.862745%);fill-opacity:1;" d="M 553.847656 169.230469 L 553.847656 92.308594 L 476.925781 92.308594 L 476.925781 169.230469 Z M 553.847656 169.230469 "/>
<path style=" stroke:none;fill-rule:nonzero;fill:rgb(56.078431%,49.019608%,92.941176%);fill-opacity:1;" d="M 553.847656 169.230469 L 553.847656 92.308594 L 476.925781 169.230469 Z M 553.847656 169.230469 "/>
<path style=" stroke:none;fill-rule:nonzero;fill:rgb(33.72549%,34.509804%,88.235294%);fill-opacity:1;" d="M 484.617188 169.230469 C 484.617188 152.238281 498.394531 138.460938 515.386719 138.460938 C 532.378906 138.460938 546.15625 152.238281 546.15625 169.230469 C 525.644531 169.230469 505.128906 169.230469 484.617188 169.230469 Z M 484.617188 169.230469 "/>
<path style=" stroke:none;fill-rule:nonzero;fill:rgb(46.666667%,0%,26.666667%);fill-opacity:1;" d="M 476.921875 92.308594 L 476.921875 169.230469 L 400 169.230469 L 400 92.308594 Z M 476.921875 92.308594 "/>
<path style=" stroke:none;fill-rule:nonzero;fill:rgb(0%,0%,26.666667%);fill-opacity:1;" d="M 476.921875 92.308594 L 476.921875 169.230469 L 400 92.308594 Z M 476.921875 92.308594 "/>
<path style=" stroke:none;fill-rule:nonzero;fill:rgb(66.666667%,0%,6.666667%);fill-opacity:1;" d="M 407.691406 92.308594 C 407.691406 109.300781 421.46875 123.078125 438.460938 123.078125 C 455.453125 123.078125 469.230469 109.300781 469.230469 92.308594 C 448.71875 92.308594 428.203125 92.308594 407.691406 92.308594 Z M 407.691406 92.308594 "/>
<path style=" stroke:none;fill-rule:nonzero;fill:rgb(85.490196%,85.490196%,85.490196%);fill-opacity:1;" d="M 400 169.230469 L 400 92.308594 L 323.078125 92.308594 L 323.078125 169.230469 Z M 400 169.230469 "/>
<path style=" stroke:none;fill-rule:nonzero;fill:rgb(91.764706%,91.764706%,91.764706%);fill-opacity:1;" d="M 400 169.230469 L 400 92.308594 L 323.078125 169.230469 Z M 400 169.230469 "/>
<path style=" stroke:none;fill-rule:nonzero;fill:rgb(91.764706%,91.764706%,91.764706%);fill-opacity:1;" d="M 330.769531 169.230469 C 330.769531 152.238281 344.546875 138.460938 361.539062 138.460938 C 378.53125 138.460938 392.308594 152.238281 392.308594 169.230469 C 371.796875 169.230469 351.28125 169.230469 330.769531 169.230469 Z M 330.769531 169.230469 "/>
<path style=" stroke:none;fill-rule:nonzero;fill:rgb(90.588235%,43.137255%,81.568627%);fill-opacity:1;" d="M 246.152344 92.308594 L 246.152344 169.230469 L 323.074219 169.230469 L 323.074219 92.308594 Z M 246.152344 92.308594 "/>
<path style=" stroke:none;fill-rule:nonzero;fill:rgb(66.27451%,11.764706%,58.431373%);fill-opacity:1;" d="M 246.152344 92.308594 L 246.152344 169.230469 L 323.074219 92.308594 Z M 246.152344 92.308594 "/>
<path style=" stroke:none;fill-rule:nonzero;fill:rgb(90.588235%,43.137255%,81.568627%);fill-opacity:1;" d="M 315.382812 92.308594 C 315.382812 109.300781 301.605469 123.078125 284.613281 123.078125 C 267.621094 123.078125 253.84375 109.300781 253.84375 92.308594 C 274.355469 92.308594 294.871094 92.308594 315.382812 92.308594 Z M 315.382812 92.308594 "/>
<path style=" stroke:none;fill-rule:nonzero;fill:rgb(64.313725%,86.27451%,98.823529%);fill-opacity:1;" d="M 246.152344 169.230469 L 246.152344 92.308594 L 169.230469 92.308594 L 169.230469 169.230469 Z M 246.152344 169.230469 "/>
<path style=" stroke:none;fill-rule:nonzero;fill:rgb(98.431373%,98.823529%,64.313725%);fill-opacity:1;" d="M 246.152344 169.230469 L 246.152344 92.308594 L 169.230469 169.230469 Z M 246.152344 169.230469 "/>
<path style=" stroke:none;fill-rule:nonzero;fill:rgb(98.431373%,98.823529%,64.313725%);fill-opacity:1;" d="M 176.921875 169.230469 C 176.921875 152.238281 190.699219 138.460938 207.691406 138.460938 C 224.683594 138.460938 238.460938 152.238281 238.460938 169.230469 C 217.949219 169.230469 197.433594 169.230469 176.921875 169.230469 Z M 176.921875 169.230469 "/>
<path style=" stroke:none;fill-rule:nonzero;fill:rgb(88.235294%,0%,65.490196%);fill-opacity:1;" d="M 92.308594 92.308594 L 92.308594 169.230469 L 169.230469 169.230469 L 169.230469 92.308594 Z M 92.308594 92.308594 "/>
<path style=" stroke:none;fill-rule:nonzero;fill:rgb(100%,85.098039%,22.352941%);fill-opacity:1;" d="M 92.308594 92.308594 L 92.308594 169.230469 L 169.230469 92.308594 Z M 92.308594 92.308594 "/>
<path style=" stroke:none;fill-rule:nonzero;fill:rgb(100%,85.098039%,22.352941%);fill-opacity:1;" d="M 161.539062 92.308594 C 161.539062 109.300781 147.761719 123.078125 130.769531 123.078125 C 113.777344 123.078125 100 109.300781 100 92.308594 C 120.511719 92.308594 141.027344 92.308594 161.539062 92.308594 Z M 161.539062 92.308594 "/>
<path style=" stroke:none;fill-rule:nonzero;fill:rgb(100%,78.823529%,32.156863%);fill-opacity:1;" d="M 15.382812 169.230469 L 15.382812 92.308594 L 92.304688 92.308594 L 92.304688 169.230469 Z M 15.382812 169.230469 "/>
<path style=" stroke:none;fill-rule:nonzero;fill:rgb(65.098039%,100%,96.862745%);fill-opacity:1;" d="M 15.382812 169.230469 L 15.382812 92.308594 L 92.304688 169.230469 Z M 15.382812 169.230469 "/>
<path style=" stroke:none;fill-rule:nonzero;fill:rgb(100%,78.823529%,32.156863%);fill-opacity:1;" d="M 84.617188 169.230469 C 84.617188 152.238281 70.839844 138.460938 53.847656 138.460938 C 36.855469 138.460938 23.078125 152.238281 23.078125 169.230469 C 43.589844 169.230469 64.105469 169.230469 84.617188 169.230469 Z M 84.617188 169.230469 "/>
<path style=" stroke:none;fill-rule:nonzero;fill:rgb(98.039216%,83.137255%,0%);fill-opacity:1;" d="M 784.617188 15.382812 L 784.617188 92.304688 L 707.695312 92.304688 L 707.695312 15.382812 Z M 784.617188 15.382812 "/>
<path style=" stroke:none;fill-rule:nonzero;fill:rgb(100%,0%,76.078431%);fill-opacity:1;" d="M 784.617188 15.382812 L 784.617188 92.304688 L 707.695312 15.382812 Z M 784.617188 15.382812 "/>
<path style=" stroke:none;fill-rule:nonzero;fill:rgb(100%,0%,76.078431%);fill-opacity:1;" d="M 715.382812 15.382812 C 715.382812 32.375 729.160156 46.152344 746.152344 46.152344 C 763.144531 46.152344 776.921875 32.375 776.921875 15.382812 C 756.410156 15.382812 735.894531 15.382812 715.382812 15.382812 Z M 715.382812 15.382812 "/>
<path style=" stroke:none;fill-rule:nonzero;fill:rgb(16.862745%,7.45098%,12.941176%);fill-opacity:1;" d="M 630.769531 92.308594 L 630.769531 15.386719 L 707.691406 15.386719 L 707.691406 92.308594 Z M 630.769531 92.308594 "/>
<path style=" stroke:none;fill-rule:nonzero;fill:rgb(72.156863%,20%,29.803922%);fill-opacity:1;" d="M 630.769531 92.308594 L 630.769531 15.386719 L 707.691406 92.308594 Z M 630.769531 92.308594 "/>
<path style=" stroke:none;fill-rule:nonzero;fill:rgb(72.156863%,20%,29.803922%);fill-opacity:1;" d="M 700 92.308594 C 700 75.316406 686.222656 61.539062 669.230469 61.539062 C 652.238281 61.539062 638.460938 75.316406 638.460938 92.308594 C 658.972656 92.308594 679.488281 92.308594 700 92.308594 Z M 700 92.308594 "/>
<path style=" stroke:none;fill-rule:nonzero;fill:rgb(95.686275%,100%,45.098039%);fill-opacity:1;" d="M 630.769531 92.308594 L 630.769531 15.386719 L 553.847656 15.386719 L 553.847656 92.308594 Z M 630.769531 92.308594 "/>
<path style=" stroke:none;fill-rule:nonzero;fill:rgb(100%,0%,0%);fill-opacity:1;" d="M 630.769531 92.308594 L 630.769531 15.386719 L 553.847656 92.308594 Z M 630.769531 92.308594 "/>
<path style=" stroke:none;fill-rule:nonzero;fill:rgb(95.686275%,100%,45.098039%);fill-opacity:1;" d="M 561.539062 92.308594 C 561.539062 75.316406 575.316406 61.539062 592.308594 61.539062 C 609.300781 61.539062 623.078125 75.316406 623.078125 92.308594 C 602.566406 92.308594 582.050781 92.308594 561.539062 92.308594 Z M 561.539062 92.308594 "/>
<path style=" stroke:none;fill-rule:nonzero;fill:rgb(97.647059%,55.294118%,46.666667%);fill-opacity:1;" d="M 476.921875 92.308594 L 476.921875 15.386719 L 553.84375 15.386719 L 553.84375 92.308594 Z M 476.921875 92.308594 "/>
<path style=" stroke:none;fill-rule:nonzero;fill:rgb(97.647059%,55.294118%,46.666667%);fill-opacity:1;" d="M 476.921875 92.308594 L 476.921875 15.386719 L 553.84375 92.308594 Z M 476.921875 92.308594 "/>
<path style=" stroke:none;fill-rule:nonzero;fill:rgb(97.647059%,55.294118%,46.666667%);fill-opacity:1;" d="M 546.152344 92.308594 C 546.152344 75.316406 532.375 61.539062 515.382812 61.539062 C 498.390625 61.539062 484.613281 75.316406 484.613281 92.308594 C 505.125 92.308594 525.640625 92.308594 546.152344 92.308594 Z M 546.152344 92.308594 "/>
<path style=" stroke:none;fill-rule:nonzero;fill:rgb(100%,100%,100%);fill-opacity:1;" d="M 400 15.382812 L 400 92.304688 L 476.921875 92.304688 L 476.921875 15.382812 Z M 400 15.382812 "/>
<path style=" stroke:none;fill-rule:nonzero;fill:rgb(23.529412%,68.627451%,78.039216%);fill-opacity:1;" d="M 400 15.382812 L 400 92.304688 L 476.921875 15.382812 Z M 400 15.382812 "/>
<path style=" stroke:none;fill-rule:nonzero;fill:rgb(100%,42.745098%,42.745098%);fill-opacity:1;" d="M 469.230469 15.382812 C 469.230469 32.375 455.453125 46.152344 438.460938 46.152344 C 421.46875 46.152344 407.691406 32.375 407.691406 15.382812 C 428.203125 15.382812 448.71875 15.382812 469.230469 15.382812 Z M 469.230469 15.382812 "/>
<path style=" stroke:none;fill-rule:nonzero;fill:rgb(49.803922%,45.098039%,100%);fill-opacity:1;" d="M 400 92.308594 L 400 15.386719 L 323.078125 15.386719 L 323.078125 92.308594 Z M 400 92.308594 "/>
<path style=" stroke:none;fill-rule:nonzero;fill:rgb(100%,88.235294%,19.607843%);fill-opacity:1;" d="M 400 92.308594 L 400 15.386719 L 323.078125 92.308594 Z M 400 92.308594 "/>
<path style=" stroke:none;fill-rule:nonzero;fill:rgb(100%,18.431373%,50.588235%);fill-opacity:1;" d="M 330.769531 92.308594 C 330.769531 75.316406 344.546875 61.539062 361.539062 61.539062 C 378.53125 61.539062 392.308594 75.316406 392.308594 92.308594 C 371.796875 92.308594 351.28125 92.308594 330.769531 92.308594 Z M 330.769531 92.308594 "/>
<path style=" stroke:none;fill-rule:nonzero;fill:rgb(80%,92.156863%,77.254902%);fill-opacity:1;" d="M 246.152344 15.382812 L 246.152344 92.304688 L 323.074219 92.304688 L 323.074219 15.382812 Z M 246.152344 15.382812 "/>
<path style=" stroke:none;fill-rule:nonzero;fill:rgb(80%,92.156863%,77.254902%);fill-opacity:1;" d="M 246.152344 15.382812 L 246.152344 92.304688 L 323.074219 15.382812 Z M 246.152344 15.382812 "/>
<path style=" stroke:none;fill-rule:nonzero;fill:rgb(85.098039%,85.098039%,85.098039%);fill-opacity:1;" d="M 315.382812 15.382812 C 315.382812 32.375 301.605469 46.152344 284.613281 46.152344 C 267.621094 46.152344 253.84375 32.375 253.84375 15.382812 C 274.355469 15.382812 294.871094 15.382812 315.382812 15.382812 Z M 315.382812 15.382812 "/>
<path style=" stroke:none;fill-rule:nonzero;fill:rgb(49.803922%,45.098039%,100%);fill-opacity:1;" d="M 169.230469 15.382812 L 169.230469 92.304688 L 246.152344 92.304688 L 246.152344 15.382812 Z M 169.230469 15.382812 "/>
<path style=" stroke:none;fill-rule:nonzero;fill:rgb(100%,88.235294%,19.607843%);fill-opacity:1;" d="M 169.230469 15.382812 L 169.230469 92.304688 L 246.152344 15.382812 Z M 169.230469 15.382812 "/>
<path style=" stroke:none;fill-rule:nonzero;fill:rgb(100%,88.235294%,19.607843%);fill-opacity:1;" d="M 238.460938 15.382812 C 238.460938 32.375 224.683594 46.152344 207.691406 46.152344 C 190.699219 46.152344 176.921875 32.375 176.921875 15.382812 C 197.433594 15.382812 217.949219 15.382812 238.460938 15.382812 Z M 238.460938 15.382812 "/>
<path style=" stroke:none;fill-rule:nonzero;fill:rgb(100%,100%,100%);fill-opacity:1;" d="M 169.230469 92.308594 L 169.230469 15.386719 L 92.308594 15.386719 L 92.308594 92.308594 Z M 169.230469 92.308594 "/>
<path style=" stroke:none;fill-rule:nonzero;fill:rgb(100%,100%,100%);fill-opacity:1;" d="M 169.230469 92.308594 L 169.230469 15.386719 L 92.308594 92.308594 Z M 169.230469 92.308594 "/>
<path style=" stroke:none;fill-rule:nonzero;fill:rgb(100%,100%,100%);fill-opacity:1;" d="M 100 92.308594 C 100 75.316406 113.777344 61.539062 130.769531 61.539062 C 147.761719 61.539062 161.539062 75.316406 161.539062 92.308594 C 141.027344 92.308594 120.511719 92.308594 100 92.308594 Z M 100 92.308594 "/>
<path style=" stroke:none;fill-rule:nonzero;fill:rgb(27.45098%,92.941176%,78.431373%);fill-opacity:1;" d="M 92.308594 92.308594 L 92.308594 15.386719 L 15.386719 15.386719 L 15.386719 92.308594 Z M 92.308594 92.308594 "/>
<path style=" stroke:none;fill-rule:nonzero;fill:rgb(98.431373%,70.196078%,35.294118%);fill-opacity:1;" d="M 92.308594 92.308594 L 92.308594 15.386719 L 15.386719 92.308594 Z M 92.308594 92.308594 "/>
<path style=" stroke:none;fill-rule:nonzero;fill:rgb(100%,34.901961%,47.058824%);fill-opacity:1;" d="M 23.078125 92.308594 C 23.078125 75.316406 36.855469 61.539062 53.847656 61.539062 C 70.839844 61.539062 84.617188 75.316406 84.617188 92.308594 C 64.105469 92.308594 43.589844 92.308594 23.078125 92.308594 Z M 23.078125 92.308594 "/>
</g>
</svg>
