<?xml version="1.0" encoding="UTF-8"?>
<svg xmlns="http://www.w3.org/2000/svg" xmlns:xlink="http://www.w3.org/1999/xlink" width="400pt" height="400pt" viewBox="0 0 400 400" version="1.1">
<g id="surface1">
<path style=" stroke:none;fill-rule:nonzero;fill:rgb(99.215686%,38.431373%,36.862745%);fill-opacity:1;" d="M 381.816406 381.816406 L 381.816406 290.90625 L 290.90625 290.90625 L 290.90625 381.816406 Z M 381.816406 381.816406 "/>
<path style=" stroke:none;fill-rule:nonzero;fill:rgb(21.568627%,27.45098%,28.627451%);fill-opacity:1;" d="M 381.816406 381.816406 L 381.816406 290.90625 L 290.90625 381.816406 Z M 381.816406 381.816406 "/>
<path style=" stroke:none;fill-rule:nonzero;fill:rgb(56.078431%,49.019608%,92.941176%);fill-opacity:1;" d="M 300 381.816406 C 300 361.734375 316.28125 345.453125 336.363281 345.453125 C 356.445312 345.453125 372.726562 361.734375 372.726562 381.816406 C 348.484375 381.816406 324.242188 381.816406 300 381.816406 Z M 300 381.816406 "/>
<path style=" stroke:none;fill-rule:nonzero;fill:rgb(32.941176%,100%,73.333333%);fill-opacity:1;" d="M 200 381.816406 L 200 290.90625 L 290.910156 290.90625 L 290.910156 381.816406 Z M 200 381.816406 "/>
<path style=" stroke:none;fill-rule:nonzero;fill:rgb(32.941176%,100%,73.333333%);fill-opacity:1;" d="M 200 381.816406 L 200 290.90625 L 290.910156 381.816406 Z M 200 381.816406 "/>
<path style=" stroke:none;fill-rule:nonzero;fill:rgb(100%,30.196078%,30.196078%);fill-opacity:1;" d="M 281.816406 381.816406 C 281.816406 361.734375 265.535156 345.453125 245.453125 345.453125 C 225.371094 345.453125 209.089844 361.734375 209.089844 381.816406 C 233.332031 381.816406 257.574219 381.816406 281.816406 381.816406 Z M 281.816406 381.816406 "/>
<path style=" stroke:none;fill-rule:nonzero;fill:rgb(0%,61.960784%,83.529412%);fill-opacity:1;" d="M 109.089844 381.816406 L 109.089844 290.90625 L 200 290.90625 L 200 381.816406 Z M 109.089844 381.816406 "/>
<path style=" stroke:none;fill-rule:nonzero;fill:rgb(83.529412%,0%,39.607843%);fill-opacity:1;" d="M 109.089844 381.816406 L 109.089844 290.90625 L 200 381.816406 Z M 109.089844 381.816406 "/>
<path style=" stroke:none;fill-rule:nonzero;fill:rgb(0%,61.960784%,83.529412%);fill-opacity:1;" d="M 190.910156 381.816406 C 190.910156 361.734375 174.628906 345.453125 154.546875 345.453125 C 134.464844 345.453125 118.183594 361.734375 118.183594 381.816406 C 142.425781 381.816406 166.667969 381.816406 190.910156 381.816406 Z M 190.910156 381.816406 "/>
<path style=" stroke:none;fill-rule:nonzero;fill:rgb(85.098039%,0%,59.215686%);fill-opacity:1;" d="M 18.183594 290.910156 L 18.183594 381.820312 L 109.09375 381.820312 L 109.09375 290.910156 Z M 18.183594 290.910156 "/>
<path style=" stroke:none;fill-rule:nonzero;fill:rgb(96.078431%,95.686275%,14.901961%);fill-opacity:1;" d="M 18.183594 290.910156 L 18.183594 381.820312 L 109.09375 290.910156 Z M 18.183594 290.910156 "/>
<path style=" stroke:none;fill-rule:nonzero;fill:rgb(96.470588%,63.921569%,5.098039%);fill-opacity:1;" d="M 100 290.910156 C 100 310.992188 83.71875 327.273438 63.636719 327.273438 C 43.554688 327.273438 27.273438 310.992188 27.273438 290.910156 C 51.515625 290.910156 75.757812 290.910156 100 290.910156 Z M 100 290.910156 "/>
<path style=" stroke:none;fill-rule:nonzero;fill:rgb(99.215686%,70.588235%,38.431373%);fill-opacity:1;" d="M 290.910156 200 L 290.910156 290.910156 L 381.820312 290.910156 L 381.820312 200 Z M 290.910156 200 "/>
<path style=" stroke:none;fill-rule:nonzero;fill:rgb(98.823529%,80.392157%,89.803922%);fill-opacity:1;" d="M 290.910156 200 L 290.910156 290.910156 L 381.820312 200 Z M 290.910156 200 "/>
<path style=" stroke:none;fill-rule:nonzero;fill:rgb(99.215686%,70.588235%,38.431373%);fill-opacity:1;" d="M 372.726562 200 C 372.726562 220.082031 356.445312 236.363281 336.363281 236.363281 C 316.28125 236.363281 300 220.082031 300 200 C 324.242188 200 348.484375 200 372.726562 200 Z M 372.726562 200 "/>
<path style=" stroke:none;fill-rule:nonzero;fill:rgb(33.72549%,22.352941%,32.156863%);fill-opacity:1;" d="M 290.910156 290.910156 L 290.910156 200 L 200 200 L 200 290.910156 Z M 290.910156 290.910156 "/>
<path style=" stroke:none;fill-rule:nonzero;fill:rgb(86.27451%,19.607843%,34.117647%);fill-opacity:1;" d="M 290.910156 290.910156 L 290.910156 200 L 200 290.910156 Z M 290.910156 290.910156 "/>
<path style=" stroke:none;fill-rule:nonzero;fill:rgb(86.27451%,19.607843%,34.117647%);fill-opacity:1;" d="M 209.089844 290.910156 C 209.089844 270.828125 225.371094 254.546875 245.453125 254.546875 C 265.535156 254.546875 281.816406 270.828125 281.816406 290.910156 C 257.574219 290.910156 233.332031 290.910156 209.089844 290.910156 Z M 209.089844 290.910156 "/>
<path style=" stroke:none;fill-rule:nonzero;fill:rgb(54.901961%,38.431373%,91.372549%);fill-opacity:1;" d="M 200 200 L 200 290.910156 L 109.089844 290.910156 L 109.089844 200 Z M 200 200 "/>
<path style=" stroke:none;fill-rule:nonzero;fill:rgb(54.901961%,38.431373%,91.372549%);fill-opacity:1;" d="M 200 200 L 200 290.910156 L 109.089844 200 Z M 200 200 "/>
<path style=" stroke:none;fill-rule:nonzero;fill:rgb(0%,14.509804%,37.254902%);fill-opacity:1;" d="M 118.183594 200 C 118.183594 220.082031 134.464844 236.363281 154.546875 236.363281 C 174.628906 236.363281 190.910156 220.082031 190.910156 200 C 166.667969 200 142.425781 200 118.183594 200 Z M 118.183594 200 "/>
<path style=" stroke:none;fill-rule:nonzero;fill:rgb(100%,88.627451%,41.176471%);fill-opacity:1;" d="M 18.183594 200 L 18.183594 290.910156 L 109.09375 290.910156 L 109.09375 200 Z M 18.183594 200 "/>
<path style=" stroke:none;fill-rule:nonzero;fill:rgb(97.647059%,55.294118%,46.666667%);fill-opacity:1;" d="M 18.183594 200 L 18.183594 290.910156 L 109.09375 200 Z M 18.183594 200 "/>
<path style=" stroke:none;fill-rule:nonzero;fill:rgb(97.647059%,55.294118%,46.666667%);fill-opacity:1;" d="M 100 200 C 100 220.082031 83.71875 236.363281 63.636719 236.363281 C 43.554688 236.363281 27.273438 220.082031 27.273438 200 C 51.515625 200 75.757812 200 100 200 Z M 100 200 "/>
<path style=" stroke:none;fill-rule:nonzero;fill:rgb(98.039216%,49.411765%,11.764706%);fill-opacity:1;" d="M 381.816406 200 L 381.816406 109.089844 L 290.90625 109.089844 L 290.90625 200 Z M 381.816406 200 "/>
<path style=" stroke:none;fill-rule:nonzero;fill:rgb(30.980392%,35.686275%,83.529412%);fill-opacity:1;" d="M 381.816406 200 L 381.816406 109.089844 L 290.90625 200 Z M 381.816406 200 "/>
<path style=" stroke:none;fill-rule:nonzero;fill:rgb(58.823529%,18.431373%,74.901961%);fill-opacity:1;" d="M 300 200 C 300 179.917969 316.28125 163.636719 336.363281 163.636719 C 356.445312 163.636719 372.726562 179.917969 372.726562 200 C 348.484375 200 324.242188 200 300 200 Z M 300 200 "/>
<path style=" stroke:none;fill-rule:nonzero;fill:rgb(69.803922%,24.705882%,85.882353%);fill-opacity:1;" d="M 200 109.089844 L 200 200 L 290.910156 200 L 290.910156 109.089844 Z M 200 109.089844 "/>
<path style=" stroke:none;fill-rule:nonzero;fill:rgb(100%,60.784314%,21.176471%);fill-opacity:1;" d="M 200 109.089844 L 200 200 L 290.910156 109.089844 Z M 200 109.089844 "/>
<path style=" stroke:none;fill-rule:nonzero;fill:rgb(47.45098%,92.54902%,68.627451%);fill-opacity:1;" d="M 281.816406 109.089844 C 281.816406 129.171875 265.535156 145.453125 245.453125 145.453125 C 225.371094 145.453125 209.089844 129.171875 209.089844 109.089844 C 233.332031 109.089844 257.574219 109.089844 281.816406 109.089844 Z M 281.816406 109.089844 "/>
<path style=" stroke:none;fill-rule:nonzero;fill:rgb(100%,98.039216%,52.156863%);fill-opacity:1;" d="M 200 109.089844 L 200 200 L 109.089844 200 L 109.089844 109.089844 Z M 200 109.089844 "/>
<path style=" stroke:none;fill-rule:nonzero;fill:rgb(90.196078%,36.078431%,43.529412%);fill-opacity:1;" d="M 200 109.089844 L 200 200 L 109.089844 109.089844 Z M 200 109.089844 "/>
<path style=" stroke:none;fill-rule:nonzero;fill:rgb(100%,98.039216%,52.156863%);fill-opacity:1;" d="M 118.183594 109.089844 C 118.183594 129.171875 134.464844 145.453125 154.546875 145.453125 C 174.628906 145.453125 190.910156 129.171875 190.910156 109.089844 C 166.667969 109.089844 142.425781 109.089844 118.183594 109.089844 Z M 118.183594 109.089844 "/>
<path style=" stroke:none;fill-rule:nonzero;fill:rgb(64.313725%,86.27451%,98.823529%);fill-opacity:1;" d="M 18.183594 200 L 18.183594 109.089844 L 109.09375 109.089844 L 109.09375 200 Z M 18.183594 200 "/>
<path style=" stroke:none;fill-rule:nonzero;fill:rgb(62.745098%,94.509804%,61.176471%);fill-opacity:1;" d="M 18.183594 200 L 18.183594 109.089844 L 109.09375 200 Z M 18.183594 200 "/>
<path style=" stroke:none;fill-rule:nonzero;fill:rgb(98.431373%,98.823529%,64.313725%);fill-opacity:1;" d="M 100 200 C 100 179.917969 83.71875 163.636719 63.636719 163.636719 C 43.554688 163.636719 27.273438 179.917969 27.273438 200 C 51.515625 200 75.757812 200 100 200 Z M 100 200 "/>
<path style=" stroke:none;fill-rule:nonzero;fill:rgb(42.745098%,75.294118%,40%);fill-opacity:1;" d="M 290.910156 109.089844 L 290.910156 18.179688 L 381.820312 18.179688 L 381.820312 109.089844 Z M 290.910156 109.089844 "/>
<path style=" stroke:none;fill-rule:nonzero;fill:rgb(100%,25.098039%,25.098039%);fill-opacity:1;" d="M 290.910156 109.089844 L 290.910156 18.179688 L 381.820312 109.089844 Z M 290.910156 109.089844 "/>
<path style=" stroke:none;fill-rule:nonzero;fill:rgb(63.529412%,0%,100%);fill-opacity:1;" d="M 372.726562 109.089844 C 372.726562 89.007812 356.445312 72.726562 336.363281 72.726562 C 316.28125 72.726562 300 89.007812 300 109.089844 C 324.242188 109.089844 348.484375 109.089844 372.726562 109.089844 Z M 372.726562 109.089844 "/>
<path style=" stroke:none;fill-rule:nonzero;fill:rgb(100%,0%,65.490196%);fill-opacity:1;" d="M 290.910156 18.183594 L 290.910156 109.09375 L 200 109.09375 L 200 18.183594 Z M 290.910156 18.183594 "/>
<path style=" stroke:none;fill-rule:nonzero;fill:rgb(85.882353%,17.647059%,94.117647%);fill-opacity:1;" d="M 290.910156 18.183594 L 290.910156 109.09375 L 200 18.183594 Z M 290.910156 18.183594 "/>
<path style=" stroke:none;fill-rule:nonzero;fill:rgb(67.058824%,9.019608%,100%);fill-opacity:1;" d="M 209.089844 18.183594 C 209.089844 38.265625 225.371094 54.546875 245.453125 54.546875 C 265.535156 54.546875 281.816406 38.265625 281.816406 18.183594 C 257.574219 18.183594 233.332031 18.183594 209.089844 18.183594 Z M 209.089844 18.183594 "/>
<path style=" stroke:none;fill-rule:nonzero;fill:rgb(83.529412%,29.803922%,49.803922%);fill-opacity:1;" d="M 200 109.089844 L 200 18.179688 L 109.089844 18.179688 L 109.089844 109.089844 Z M 200 109.089844 "/>
<path style=" stroke:none;fill-rule:nonzero;fill:rgb(31.372549%,68.627451%,82.352941%);fill-opacity:1;" d="M 200 109.089844 L 200 18.179688 L 109.089844 109.089844 Z M 200 109.089844 "/>
<path style=" stroke:none;fill-rule:nonzero;fill:rgb(85.098039%,67.45098%,28.627451%);fill-opacity:1;" d="M 118.183594 109.089844 C 118.183594 89.007812 134.464844 72.726562 154.546875 72.726562 C 174.628906 72.726562 190.910156 89.007812 190.910156 109.089844 C 166.667969 109.089844 142.425781 109.089844 118.183594 109.089844 Z M 118.183594 109.089844 "/>
<path style=" stroke:none;fill-rule:nonzero;fill:rgb(96.470588%,96.078431%,93.333333%);fill-opacity:1;" d="M 18.183594 18.183594 L 18.183594 109.09375 L 109.09375 109.09375 L 109.09375 18.183594 Z M 18.183594 18.183594 "/>
<path style=" stroke:none;fill-rule:nonzero;fill:rgb(100%,80.784314%,67.843137%);fill-opacity:1;" d="M 18.183594 18.183594 L 18.183594 109.09375 L 109.09375 18.183594 Z M 18.183594 18.183594 "/>
<path style=" stroke:none;fill-rule:nonzero;fill:rgb(96.470588%,96.078431%,93.333333%);fill-opacity:1;" d="M 100 18.183594 C 100 38.265625 83.71875 54.546875 63.636719 54.546875 C 43.554688 54.546875 27.273438 38.265625 27.273438 18.183594 C 51.515625 18.183594 75.757812 18.183594 100 18.183594 Z M 100 18.183594 "/>
</g>
</svg>
