<?xml version="1.0" encoding="UTF-8"?>
<svg xmlns="http://www.w3.org/2000/svg" xmlns:xlink="http://www.w3.org/1999/xlink" width="400pt" height="400pt" viewBox="0 0 400 400" version="1.1">
<g id="surface1">
<path style=" stroke:none;fill-rule:nonzero;fill:rgb(100%,74.117647%,0%);fill-opacity:1;" d="M 290.910156 381.816406 L 290.910156 290.90625 L 381.820312 290.90625 L 381.820312 381.816406 Z M 290.910156 381.816406 "/>
<path style=" stroke:none;fill-rule:nonzero;fill:rgb(96.470588%,96.470588%,96.470588%);fill-opacity:1;" d="M 290.910156 381.816406 L 290.910156 290.90625 L 381.820312 381.816406 Z M 290.910156 381.816406 "/>
<path style=" stroke:none;fill-rule:nonzero;fill:rgb(96.470588%,96.470588%,96.470588%);fill-opacity:1;" d="M 372.726562 381.816406 C 372.726562 361.734375 356.445312 345.453125 336.363281 345.453125 C 316.28125 345.453125 300 361.734375 300 381.816406 C 324.242188 381.816406 348.484375 381.816406 372.726562 381.816406 Z M 372.726562 381.816406 "/>
<path style=" stroke:none;fill-rule:nonzero;fill:rgb(100%,83.137255%,0%);fill-opacity:1;" d="M 290.910156 290.910156 L 290.910156 381.820312 L 200 381.820312 L 200 290.910156 Z M 290.910156 290.910156 "/>
<path style=" stroke:none;fill-rule:nonzero;fill:rgb(100%,100%,100%);fill-opacity:1;" d="M 290.910156 290.910156 L 290.910156 381.820312 L 200 290.910156 Z M 290.910156 290.910156 "/>
<path style=" stroke:none;fill-rule:nonzero;fill:rgb(100%,83.137255%,0%);fill-opacity:1;" d="M 209.089844 290.910156 C 209.089844 310.992188 225.371094 327.273438 245.453125 327.273438 C 265.535156 327.273438 281.816406 310.992188 281.816406 290.910156 C 257.574219 290.910156 233.332031 290.910156 209.089844 290.910156 Z M 209.089844 290.910156 "/>
<path style=" stroke:none;fill-rule:nonzero;fill:rgb(14.509804%,37.647059%,99.607843%);fill-opacity:1;" d="M 109.089844 381.816406 L 109.089844 290.90625 L 200 290.90625 L 200 381.816406 Z M 109.089844 381.816406 "/>
<path style=" stroke:none;fill-rule:nonzero;fill:rgb(63.529412%,0%,100%);fill-opacity:1;" d="M 109.089844 381.816406 L 109.089844 290.90625 L 200 381.816406 Z M 109.089844 381.816406 "/>
<path style=" stroke:none;fill-rule:nonzero;fill:rgb(42.745098%,75.294118%,40%);fill-opacity:1;" d="M 190.910156 381.816406 C 190.910156 361.734375 174.628906 345.453125 154.546875 345.453125 C 134.464844 345.453125 118.183594 361.734375 118.183594 381.816406 C 142.425781 381.816406 166.667969 381.816406 190.910156 381.816406 Z M 190.910156 381.816406 "/>
<path style=" stroke:none;fill-rule:nonzero;fill:rgb(56.078431%,49.019608%,92.941176%);fill-opacity:1;" d="M 18.183594 290.910156 L 18.183594 381.820312 L 109.09375 381.820312 L 109.09375 290.910156 Z M 18.183594 290.910156 "/>
<path style=" stroke:none;fill-rule:nonzero;fill:rgb(56.078431%,49.019608%,92.941176%);fill-opacity:1;" d="M 18.183594 290.910156 L 18.183594 381.820312 L 109.09375 290.910156 Z M 18.183594 290.910156 "/>
<path style=" stroke:none;fill-rule:nonzero;fill:rgb(33.72549%,34.509804%,88.235294%);fill-opacity:1;" d="M 100 290.910156 C 100 310.992188 83.71875 327.273438 63.636719 327.273438 C 43.554688 327.273438 27.273438 310.992188 27.273438 290.910156 C 51.515625 290.910156 75.757812 290.910156 100 290.910156 Z M 100 290.910156 "/>
<path style=" stroke:none;fill-rule:nonzero;fill:rgb(100%,55.686275%,53.333333%);fill-opacity:1;" d="M 381.816406 200 L 381.816406 290.910156 L 290.90625 290.910156 L 290.90625 200 Z M 381.816406 200 "/>
<path style=" stroke:none;fill-rule:nonzero;fill:rgb(69.803922%,24.705882%,85.882353%);fill-opacity:1;" d="M 381.816406 200 L 381.816406 290.910156 L 290.90625 200 Z M 381.816406 200 "/>
<path style=" stroke:none;fill-rule:nonzero;fill:rgb(100%,60.784314%,21.176471%);fill-opacity:1;" d="M 300 200 C 300 220.082031 316.28125 236.363281 336.363281 236.363281 C 356.445312 236.363281 372.726562 220.082031 372.726562 200 C 348.484375 200 324.242188 200 300 200 Z M 300 200 "/>
<path style=" stroke:none;fill-rule:nonzero;fill:rgb(0%,0%,0%);fill-opacity:1;" d="M 200 290.910156 L 200 200 L 290.910156 200 L 290.910156 290.910156 Z M 200 290.910156 "/>
<path style=" stroke:none;fill-rule:nonzero;fill:rgb(98.039216%,83.137255%,0%);fill-opacity:1;" d="M 200 290.910156 L 200 200 L 290.910156 290.910156 Z M 200 290.910156 "/>
<path style=" stroke:none;fill-rule:nonzero;fill:rgb(0%,76.078431%,100%);fill-opacity:1;" d="M 281.816406 290.910156 C 281.816406 270.828125 265.535156 254.546875 245.453125 254.546875 C 225.371094 254.546875 209.089844 270.828125 209.089844 290.910156 C 233.332031 290.910156 257.574219 290.910156 281.816406 290.910156 Z M 281.816406 290.910156 "/>
<path style=" stroke:none;fill-rule:nonzero;fill:rgb(100%,98.039216%,48.235294%);fill-opacity:1;" d="M 200 290.910156 L 200 200 L 109.089844 200 L 109.089844 290.910156 Z M 200 290.910156 "/>
<path style=" stroke:none;fill-rule:nonzero;fill:rgb(100%,100%,100%);fill-opacity:1;" d="M 200 290.910156 L 200 200 L 109.089844 290.910156 Z M 200 290.910156 "/>
<path style=" stroke:none;fill-rule:nonzero;fill:rgb(100%,83.137255%,0%);fill-opacity:1;" d="M 118.183594 290.910156 C 118.183594 270.828125 134.464844 254.546875 154.546875 254.546875 C 174.628906 254.546875 190.910156 270.828125 190.910156 290.910156 C 166.667969 290.910156 142.425781 290.910156 118.183594 290.910156 Z M 118.183594 290.910156 "/>
<path style=" stroke:none;fill-rule:nonzero;fill:rgb(100%,81.176471%,100%);fill-opacity:1;" d="M 18.183594 200 L 18.183594 290.910156 L 109.09375 290.910156 L 109.09375 200 Z M 18.183594 200 "/>
<path style=" stroke:none;fill-rule:nonzero;fill:rgb(67.058824%,63.921569%,100%);fill-opacity:1;" d="M 18.183594 200 L 18.183594 290.910156 L 109.09375 200 Z M 18.183594 200 "/>
<path style=" stroke:none;fill-rule:nonzero;fill:rgb(82.745098%,100%,97.647059%);fill-opacity:1;" d="M 100 200 C 100 220.082031 83.71875 236.363281 63.636719 236.363281 C 43.554688 236.363281 27.273438 220.082031 27.273438 200 C 51.515625 200 75.757812 200 100 200 Z M 100 200 "/>
<path style=" stroke:none;fill-rule:nonzero;fill:rgb(39.215686%,92.54902%,48.235294%);fill-opacity:1;" d="M 290.910156 109.089844 L 290.910156 200 L 381.820312 200 L 381.820312 109.089844 Z M 290.910156 109.089844 "/>
<path style=" stroke:none;fill-rule:nonzero;fill:rgb(47.45098%,92.54902%,68.627451%);fill-opacity:1;" d="M 290.910156 109.089844 L 290.910156 200 L 381.820312 109.089844 Z M 290.910156 109.089844 "/>
<path style=" stroke:none;fill-rule:nonzero;fill:rgb(100%,55.686275%,53.333333%);fill-opacity:1;" d="M 372.726562 109.089844 C 372.726562 129.171875 356.445312 145.453125 336.363281 145.453125 C 316.28125 145.453125 300 129.171875 300 109.089844 C 324.242188 109.089844 348.484375 109.089844 372.726562 109.089844 Z M 372.726562 109.089844 "/>
<path style=" stroke:none;fill-rule:nonzero;fill:rgb(48.627451%,0%,100%);fill-opacity:1;" d="M 200 109.089844 L 200 200 L 290.910156 200 L 290.910156 109.089844 Z M 200 109.089844 "/>
<path style=" stroke:none;fill-rule:nonzero;fill:rgb(48.627451%,0%,100%);fill-opacity:1;" d="M 200 109.089844 L 200 200 L 290.910156 109.089844 Z M 200 109.089844 "/>
<path style=" stroke:none;fill-rule:nonzero;fill:rgb(67.058824%,9.019608%,100%);fill-opacity:1;" d="M 281.816406 109.089844 C 281.816406 129.171875 265.535156 145.453125 245.453125 145.453125 C 225.371094 145.453125 209.089844 129.171875 209.089844 109.089844 C 233.332031 109.089844 257.574219 109.089844 281.816406 109.089844 Z M 281.816406 109.089844 "/>
<path style=" stroke:none;fill-rule:nonzero;fill:rgb(40.392157%,38.039216%,90.588235%);fill-opacity:1;" d="M 200 200 L 200 109.089844 L 109.089844 109.089844 L 109.089844 200 Z M 200 200 "/>
<path style=" stroke:none;fill-rule:nonzero;fill:rgb(40.392157%,38.039216%,90.588235%);fill-opacity:1;" d="M 200 200 L 200 109.089844 L 109.089844 200 Z M 200 200 "/>
<path style=" stroke:none;fill-rule:nonzero;fill:rgb(98.431373%,76.862745%,61.960784%);fill-opacity:1;" d="M 118.183594 200 C 118.183594 179.917969 134.464844 163.636719 154.546875 163.636719 C 174.628906 163.636719 190.910156 179.917969 190.910156 200 C 166.667969 200 142.425781 200 118.183594 200 Z M 118.183594 200 "/>
<path style=" stroke:none;fill-rule:nonzero;fill:rgb(63.529412%,24.313725%,32.941176%);fill-opacity:1;" d="M 18.183594 109.089844 L 18.183594 200 L 109.09375 200 L 109.09375 109.089844 Z M 18.183594 109.089844 "/>
<path style=" stroke:none;fill-rule:nonzero;fill:rgb(63.529412%,24.313725%,32.941176%);fill-opacity:1;" d="M 18.183594 109.089844 L 18.183594 200 L 109.09375 109.089844 Z M 18.183594 109.089844 "/>
<path style=" stroke:none;fill-rule:nonzero;fill:rgb(33.72549%,22.352941%,32.156863%);fill-opacity:1;" d="M 100 109.089844 C 100 129.171875 83.71875 145.453125 63.636719 145.453125 C 43.554688 145.453125 27.273438 129.171875 27.273438 109.089844 C 51.515625 109.089844 75.757812 109.089844 100 109.089844 Z M 100 109.089844 "/>
<path style=" stroke:none;fill-rule:nonzero;fill:rgb(100%,98.039216%,48.235294%);fill-opacity:1;" d="M 290.910156 18.183594 L 290.910156 109.09375 L 381.820312 109.09375 L 381.820312 18.183594 Z M 290.910156 18.183594 "/>
<path style=" stroke:none;fill-rule:nonzero;fill:rgb(100%,98.039216%,48.235294%);fill-opacity:1;" d="M 290.910156 18.183594 L 290.910156 109.09375 L 381.820312 18.183594 Z M 290.910156 18.183594 "/>
<path style=" stroke:none;fill-rule:nonzero;fill:rgb(100%,98.039216%,48.235294%);fill-opacity:1;" d="M 372.726562 18.183594 C 372.726562 38.265625 356.445312 54.546875 336.363281 54.546875 C 316.28125 54.546875 300 38.265625 300 18.183594 C 324.242188 18.183594 348.484375 18.183594 372.726562 18.183594 Z M 372.726562 18.183594 "/>
<path style=" stroke:none;fill-rule:nonzero;fill:rgb(70.588235%,23.529412%,49.411765%);fill-opacity:1;" d="M 290.910156 109.089844 L 290.910156 18.179688 L 200 18.179688 L 200 109.089844 Z M 290.910156 109.089844 "/>
<path style=" stroke:none;fill-rule:nonzero;fill:rgb(85.490196%,20%,20%);fill-opacity:1;" d="M 290.910156 109.089844 L 290.910156 18.179688 L 200 109.089844 Z M 290.910156 109.089844 "/>
<path style=" stroke:none;fill-rule:nonzero;fill:rgb(85.490196%,20%,20%);fill-opacity:1;" d="M 209.089844 109.089844 C 209.089844 89.007812 225.371094 72.726562 245.453125 72.726562 C 265.535156 72.726562 281.816406 89.007812 281.816406 109.089844 C 257.574219 109.089844 233.332031 109.089844 209.089844 109.089844 Z M 209.089844 109.089844 "/>
<path style=" stroke:none;fill-rule:nonzero;fill:rgb(100%,60.784314%,21.176471%);fill-opacity:1;" d="M 109.089844 109.089844 L 109.089844 18.179688 L 200 18.179688 L 200 109.089844 Z M 109.089844 109.089844 "/>
<path style=" stroke:none;fill-rule:nonzero;fill:rgb(69.803922%,24.705882%,85.882353%);fill-opacity:1;" d="M 109.089844 109.089844 L 109.089844 18.179688 L 200 109.089844 Z M 109.089844 109.089844 "/>
<path style=" stroke:none;fill-rule:nonzero;fill:rgb(69.803922%,24.705882%,85.882353%);fill-opacity:1;" d="M 190.910156 109.089844 C 190.910156 89.007812 174.628906 72.726562 154.546875 72.726562 C 134.464844 72.726562 118.183594 89.007812 118.183594 109.089844 C 142.425781 109.089844 166.667969 109.089844 190.910156 109.089844 Z M 190.910156 109.089844 "/>
<path style=" stroke:none;fill-rule:nonzero;fill:rgb(92.941176%,7.843137%,35.686275%);fill-opacity:1;" d="M 109.089844 109.089844 L 109.089844 18.179688 L 18.179688 18.179688 L 18.179688 109.089844 Z M 109.089844 109.089844 "/>
<path style=" stroke:none;fill-rule:nonzero;fill:rgb(47.058824%,16.862745%,56.470588%);fill-opacity:1;" d="M 109.089844 109.089844 L 109.089844 18.179688 L 18.179688 109.089844 Z M 109.089844 109.089844 "/>
<path style=" stroke:none;fill-rule:nonzero;fill:rgb(99.215686%,72.54902%,7.45098%);fill-opacity:1;" d="M 27.273438 109.089844 C 27.273438 89.007812 43.554688 72.726562 63.636719 72.726562 C 83.71875 72.726562 100 89.007812 100 109.089844 C 75.757812 109.089844 51.515625 109.089844 27.273438 109.089844 Z M 27.273438 109.089844 "/>
</g>
</svg>
