<?xml version="1.0" encoding="UTF-8"?>
<svg xmlns="http://www.w3.org/2000/svg" xmlns:xlink="http://www.w3.org/1999/xlink" width="800pt" height="415.384615pt" viewBox="0 0 800 415.384615" version="1.1">
<defs>
<radialGradient id="radial0" gradientUnits="userSpaceOnUse" cx="0" cy="0" fx="-1.1" fy="1.1" r="2.5" gradientTransform="matrix(-15.384615,0,0,15.384615,746.153846,361.538462)">
<stop offset="0.12" style="stop-color:rgb(100%,100%,100%);stop-opacity:1;"/>
<stop offset="1" style="stop-color:rgb(100%,55.686275%,53.333333%);stop-opacity:1;"/>
</radialGradient>
<radialGradient id="radial1" gradientUnits="userSpaceOnUse" cx="0" cy="0" fx="-1.1" fy="1.1" r="2.5" gradientTransform="matrix(-15.384615,0,0,15.384615,669.230769,361.538462)">
<stop offset="0.12" style="stop-color:rgb(100%,100%,100%);stop-opacity:1;"/>
<stop offset="1" style="stop-color:rgb(33.72549%,89.019608%,81.568627%);stop-opacity:1;"/>
</radialGradient>
<radialGradient id="radial2" gradientUnits="userSpaceOnUse" cx="0" cy="0" fx="-1.1" fy="1.1" r="2.5" gradientTransform="matrix(-15.384615,0,0,15.384615,592.307692,361.538462)">
<stop offset="0.12" style="stop-color:rgb(100%,100%,100%);stop-opacity:1;"/>
<stop offset="1" style="stop-color:rgb(83.529412%,0%,39.607843%);stop-opacity:1;"/>
</radialGradient>
<radialGradient id="radial3" gradientUnits="userSpaceOnUse" cx="0" cy="0" fx="-1.1" fy="1.1" r="2.5" gradientTransform="matrix(15.384615,0,0,-15.384615,515.384615,361.538462)">
<stop offset="0.12" style="stop-color:rgb(100%,100%,100%);stop-opacity:1;"/>
<stop offset="1" style="stop-color:rgb(54.901961%,38.431373%,91.372549%);stop-opacity:1;"/>
</radialGradient>
<radialGradient id="radial4" gradientUnits="userSpaceOnUse" cx="0" cy="0" fx="-1.1" fy="1.1" r="2.5" gradientTransform="matrix(15.384615,0,0,-15.384615,438.461538,361.538462)">
<stop offset="0.12" style="stop-color:rgb(100%,100%,100%);stop-opacity:1;"/>
<stop offset="1" style="stop-color:rgb(36.078431%,81.176471%,100%);stop-opacity:1;"/>
</radialGradient>
<radialGradient id="radial5" gradientUnits="userSpaceOnUse" cx="0" cy="0" fx="-1.1" fy="1.1" r="2.5" gradientTransform="matrix(15.384615,0,0,15.384615,361.538462,361.538462)">
<stop offset="0.12" style="stop-color:rgb(100%,100%,100%);stop-opacity:1;"/>
<stop offset="1" style="stop-color:rgb(100%,88.627451%,41.176471%);stop-opacity:1;"/>
</radialGradient>
<radialGradient id="radial6" gradientUnits="userSpaceOnUse" cx="0" cy="0" fx="-1.1" fy="1.1" r="2.5" gradientTransform="matrix(-15.384615,0,0,15.384615,284.615385,361.538462)">
<stop offset="0.12" style="stop-color:rgb(100%,100%,100%);stop-opacity:1;"/>
<stop offset="1" style="stop-color:rgb(80.784314%,9.019608%,9.019608%);stop-opacity:1;"/>
</radialGradient>
<radialGradient id="radial7" gradientUnits="userSpaceOnUse" cx="0" cy="0" fx="-1.1" fy="1.1" r="2.5" gradientTransform="matrix(15.384615,0,0,-15.384615,207.692308,361.538462)">
<stop offset="0.12" style="stop-color:rgb(100%,100%,100%);stop-opacity:1;"/>
<stop offset="1" style="stop-color:rgb(100%,83.137255%,0%);stop-opacity:1;"/>
</radialGradient>
<radialGradient id="radial8" gradientUnits="userSpaceOnUse" cx="0" cy="0" fx="-1.1" fy="1.1" r="2.5" gradientTransform="matrix(15.384615,0,0,-15.384615,130.769231,361.538462)">
<stop offset="0.12" style="stop-color:rgb(100%,100%,100%);stop-opacity:1;"/>
<stop offset="1" style="stop-color:rgb(27.45098%,92.941176%,78.431373%);stop-opacity:1;"/>
</radialGradient>
<radialGradient id="radial9" gradientUnits="userSpaceOnUse" cx="0" cy="0" fx="-1.1" fy="1.1" r="2.5" gradientTransform="matrix(-15.384615,0,0,-15.384615,53.846154,361.538462)">
<stop offset="0.12" style="stop-color:rgb(100%,100%,100%);stop-opacity:1;"/>
<stop offset="1" style="stop-color:rgb(92.54902%,93.333333%,23.529412%);stop-opacity:1;"/>
</radialGradient>
<radialGradient id="radial10" gradientUnits="userSpaceOnUse" cx="0" cy="0" fx="-1.1" fy="1.1" r="2.5" gradientTransform="matrix(15.384615,0,0,-15.384615,746.153846,284.615385)">
<stop offset="0.12" style="stop-color:rgb(100%,100%,100%);stop-opacity:1;"/>
<stop offset="1" style="stop-color:rgb(40.392157%,38.039216%,90.588235%);stop-opacity:1;"/>
</radialGradient>
<radialGradient id="radial11" gradientUnits="userSpaceOnUse" cx="0" cy="0" fx="-1.1" fy="1.1" r="2.5" gradientTransform="matrix(-15.384615,0,0,15.384615,669.230769,284.615385)">
<stop offset="0.12" style="stop-color:rgb(100%,100%,100%);stop-opacity:1;"/>
<stop offset="1" style="stop-color:rgb(70.588235%,42.745098%,100%);stop-opacity:1;"/>
</radialGradient>
<radialGradient id="radial12" gradientUnits="userSpaceOnUse" cx="0" cy="0" fx="-1.1" fy="1.1" r="2.5" gradientTransform="matrix(15.384615,0,0,15.384615,592.307692,284.615385)">
<stop offset="0.12" style="stop-color:rgb(100%,100%,100%);stop-opacity:1;"/>
<stop offset="1" style="stop-color:rgb(50.196078%,0%,50.196078%);stop-opacity:1;"/>
</radialGradient>
<radialGradient id="radial13" gradientUnits="userSpaceOnUse" cx="0" cy="0" fx="-1.1" fy="1.1" r="2.5" gradientTransform="matrix(15.384615,0,0,-15.384615,515.384615,284.615385)">
<stop offset="0.12" style="stop-color:rgb(100%,100%,100%);stop-opacity:1;"/>
<stop offset="1" style="stop-color:rgb(81.568627%,72.941176%,37.254902%);stop-opacity:1;"/>
</radialGradient>
<radialGradient id="radial14" gradientUnits="userSpaceOnUse" cx="0" cy="0" fx="-1.1" fy="1.1" r="2.5" gradientTransform="matrix(-15.384615,0,0,-15.384615,438.461538,284.615385)">
<stop offset="0.12" style="stop-color:rgb(100%,100%,100%);stop-opacity:1;"/>
<stop offset="1" style="stop-color:rgb(83.921569%,16.078431%,46.27451%);stop-opacity:1;"/>
</radialGradient>
<radialGradient id="radial15" gradientUnits="userSpaceOnUse" cx="0" cy="0" fx="-1.1" fy="1.1" r="2.5" gradientTransform="matrix(15.384615,0,0,15.384615,361.538462,284.615385)">
<stop offset="0.12" style="stop-color:rgb(100%,100%,100%);stop-opacity:1;"/>
<stop offset="1" style="stop-color:rgb(100%,25.098039%,25.098039%);stop-opacity:1;"/>
</radialGradient>
<radialGradient id="radial16" gradientUnits="userSpaceOnUse" cx="0" cy="0" fx="-1.1" fy="1.1" r="2.5" gradientTransform="matrix(15.384615,0,0,-15.384615,284.615385,284.615385)">
<stop offset="0.12" style="stop-color:rgb(100%,100%,100%);stop-opacity:1;"/>
<stop offset="1" style="stop-color:rgb(100%,25.098039%,25.098039%);stop-opacity:1;"/>
</radialGradient>
<radialGradient id="radial17" gradientUnits="userSpaceOnUse" cx="0" cy="0" fx="-1.1" fy="1.1" r="2.5" gradientTransform="matrix(15.384615,0,0,-15.384615,207.692308,284.615385)">
<stop offset="0.12" style="stop-color:rgb(100%,100%,100%);stop-opacity:1;"/>
<stop offset="1" style="stop-color:rgb(67.058824%,63.921569%,100%);stop-opacity:1;"/>
</radialGradient>
<radialGradient id="radial18" gradientUnits="userSpaceOnUse" cx="0" cy="0" fx="-1.1" fy="1.1" r="2.5" gradientTransform="matrix(15.384615,0,0,-15.384615,130.769231,284.615385)">
<stop offset="0.12" style="stop-color:rgb(100%,100%,100%);stop-opacity:1;"/>
<stop offset="1" style="stop-color:rgb(0%,0%,0%);stop-opacity:1;"/>
</radialGradient>
<radialGradient id="radial19" gradientUnits="userSpaceOnUse" cx="0" cy="0" fx="-1.1" fy="1.1" r="2.5" gradientTransform="matrix(15.384615,0,0,-15.384615,53.846154,284.615385)">
<stop offset="0.12" style="stop-color:rgb(100%,100%,100%);stop-opacity:1;"/>
<stop offset="1" style="stop-color:rgb(70.588235%,42.745098%,100%);stop-opacity:1;"/>
</radialGradient>
<radialGradient id="radial20" gradientUnits="userSpaceOnUse" cx="0" cy="0" fx="-1.1" fy="1.1" r="2.5" gradientTransform="matrix(15.384615,0,0,-15.384615,746.153846,207.692308)">
<stop offset="0.12" style="stop-color:rgb(100%,100%,100%);stop-opacity:1;"/>
<stop offset="1" style="stop-color:rgb(98.823529%,91.764706%,3.137255%);stop-opacity:1;"/>
</radialGradient>
<radialGradient id="radial21" gradientUnits="userSpaceOnUse" cx="0" cy="0" fx="-1.1" fy="1.1" r="2.5" gradientTransform="matrix(15.384615,0,0,15.384615,669.230769,207.692308)">
<stop offset="0.12" style="stop-color:rgb(100%,100%,100%);stop-opacity:1;"/>
<stop offset="1" style="stop-color:rgb(100%,33.333333%,0%);stop-opacity:1;"/>
</radialGradient>
<radialGradient id="radial22" gradientUnits="userSpaceOnUse" cx="0" cy="0" fx="-1.1" fy="1.1" r="2.5" gradientTransform="matrix(15.384615,0,0,15.384615,592.307692,207.692308)">
<stop offset="0.12" style="stop-color:rgb(100%,100%,100%);stop-opacity:1;"/>
<stop offset="1" style="stop-color:rgb(23.529412%,68.627451%,78.039216%);stop-opacity:1;"/>
</radialGradient>
<radialGradient id="radial23" gradientUnits="userSpaceOnUse" cx="0" cy="0" fx="-1.1" fy="1.1" r="2.5" gradientTransform="matrix(15.384615,0,0,-15.384615,515.384615,207.692308)">
<stop offset="0.12" style="stop-color:rgb(100%,100%,100%);stop-opacity:1;"/>
<stop offset="1" style="stop-color:rgb(97.647059%,55.294118%,46.666667%);stop-opacity:1;"/>
</radialGradient>
<radialGradient id="radial24" gradientUnits="userSpaceOnUse" cx="0" cy="0" fx="-1.1" fy="1.1" r="2.5" gradientTransform="matrix(15.384615,0,0,15.384615,438.461538,207.692308)">
<stop offset="0.12" style="stop-color:rgb(100%,100%,100%);stop-opacity:1;"/>
<stop offset="1" style="stop-color:rgb(66.666667%,66.666667%,66.666667%);stop-opacity:1;"/>
</radialGradient>
<radialGradient id="radial25" gradientUnits="userSpaceOnUse" cx="0" cy="0" fx="-1.1" fy="1.1" r="2.5" gradientTransform="matrix(-15.384615,0,0,15.384615,361.538462,207.692308)">
<stop offset="0.12" style="stop-color:rgb(100%,100%,100%);stop-opacity:1;"/>
<stop offset="1" style="stop-color:rgb(99.215686%,94.901961%,53.72549%);stop-opacity:1;"/>
</radialGradient>
<radialGradient id="radial26" gradientUnits="userSpaceOnUse" cx="0" cy="0" fx="-1.1" fy="1.1" r="2.5" gradientTransform="matrix(15.384615,0,0,15.384615,284.615385,207.692308)">
<stop offset="0.12" style="stop-color:rgb(100%,100%,100%);stop-opacity:1;"/>
<stop offset="1" style="stop-color:rgb(98.431373%,67.843137%,80.392157%);stop-opacity:1;"/>
</radialGradient>
<radialGradient id="radial27" gradientUnits="userSpaceOnUse" cx="0" cy="0" fx="-1.1" fy="1.1" r="2.5" gradientTransform="matrix(15.384615,0,0,-15.384615,207.692308,207.692308)">
<stop offset="0.12" style="stop-color:rgb(100%,100%,100%);stop-opacity:1;"/>
<stop offset="1" style="stop-color:rgb(14.509804%,37.647059%,99.607843%);stop-opacity:1;"/>
</radialGradient>
<radialGradient id="radial28" gradientUnits="userSpaceOnUse" cx="0" cy="0" fx="-1.1" fy="1.1" r="2.5" gradientTransform="matrix(15.384615,0,0,-15.384615,130.769231,207.692308)">
<stop offset="0.12" style="stop-color:rgb(100%,100%,100%);stop-opacity:1;"/>
<stop offset="1" style="stop-color:rgb(21.568627%,48.627451%,85.882353%);stop-opacity:1;"/>
</radialGradient>
<radialGradient id="radial29" gradientUnits="userSpaceOnUse" cx="0" cy="0" fx="-1.1" fy="1.1" r="2.5" gradientTransform="matrix(-15.384615,0,0,-15.384615,53.846154,207.692308)">
<stop offset="0.12" style="stop-color:rgb(100%,100%,100%);stop-opacity:1;"/>
<stop offset="1" style="stop-color:rgb(21.568627%,27.45098%,28.627451%);stop-opacity:1;"/>
</radialGradient>
<radialGradient id="radial30" gradientUnits="userSpaceOnUse" cx="0" cy="0" fx="-1.1" fy="1.1" r="2.5" gradientTransform="matrix(15.384615,0,0,-15.384615,746.153846,130.769231)">
<stop offset="0.12" style="stop-color:rgb(100%,100%,100%);stop-opacity:1;"/>
<stop offset="1" style="stop-color:rgb(74.509804%,72.941176%,85.490196%);stop-opacity:1;"/>
</radialGradient>
<radialGradient id="radial31" gradientUnits="userSpaceOnUse" cx="0" cy="0" fx="-1.1" fy="1.1" r="2.5" gradientTransform="matrix(15.384615,0,0,15.384615,669.230769,130.769231)">
<stop offset="0.12" style="stop-color:rgb(100%,100%,100%);stop-opacity:1;"/>
<stop offset="1" style="stop-color:rgb(44.705882%,80%,100%);stop-opacity:1;"/>
</radialGradient>
<radialGradient id="radial32" gradientUnits="userSpaceOnUse" cx="0" cy="0" fx="-1.1" fy="1.1" r="2.5" gradientTransform="matrix(15.384615,0,0,-15.384615,592.307692,130.769231)">
<stop offset="0.12" style="stop-color:rgb(100%,100%,100%);stop-opacity:1;"/>
<stop offset="1" style="stop-color:rgb(0%,0%,26.666667%);stop-opacity:1;"/>
</radialGradient>
<radialGradient id="radial33" gradientUnits="userSpaceOnUse" cx="0" cy="0" fx="-1.1" fy="1.1" r="2.5" gradientTransform="matrix(15.384615,0,0,15.384615,515.384615,130.769231)">
<stop offset="0.12" style="stop-color:rgb(100%,100%,100%);stop-opacity:1;"/>
<stop offset="1" style="stop-color:rgb(96.470588%,50.588235%,25.490196%);stop-opacity:1;"/>
</radialGradient>
<radialGradient id="radial34" gradientUnits="userSpaceOnUse" cx="0" cy="0" fx="-1.1" fy="1.1" r="2.5" gradientTransform="matrix(15.384615,0,0,-15.384615,438.461538,130.769231)">
<stop offset="0.12" style="stop-color:rgb(100%,100%,100%);stop-opacity:1;"/>
<stop offset="1" style="stop-color:rgb(100%,87.45098%,52.54902%);stop-opacity:1;"/>
</radialGradient>
<radialGradient id="radial35" gradientUnits="userSpaceOnUse" cx="0" cy="0" fx="-1.1" fy="1.1" r="2.5" gradientTransform="matrix(15.384615,0,0,15.384615,361.538462,130.769231)">
<stop offset="0.12" style="stop-color:rgb(100%,100%,100%);stop-opacity:1;"/>
<stop offset="1" style="stop-color:rgb(30.980392%,35.686275%,83.529412%);stop-opacity:1;"/>
</radialGradient>
<radialGradient id="radial36" gradientUnits="userSpaceOnUse" cx="0" cy="0" fx="-1.1" fy="1.1" r="2.5" gradientTransform="matrix(15.384615,0,0,-15.384615,284.615385,130.769231)">
<stop offset="0.12" style="stop-color:rgb(100%,100%,100%);stop-opacity:1;"/>
<stop offset="1" style="stop-color:rgb(6.666667%,76.470588%,0%);stop-opacity:1;"/>
</radialGradient>
<radialGradient id="radial37" gradientUnits="userSpaceOnUse" cx="0" cy="0" fx="-1.1" fy="1.1" r="2.5" gradientTransform="matrix(-15.384615,0,0,15.384615,207.692308,130.769231)">
<stop offset="0.12" style="stop-color:rgb(100%,100%,100%);stop-opacity:1;"/>
<stop offset="1" style="stop-color:rgb(69.803922%,24.705882%,85.882353%);stop-opacity:1;"/>
</radialGradient>
<radialGradient id="radial38" gradientUnits="userSpaceOnUse" cx="0" cy="0" fx="-1.1" fy="1.1" r="2.5" gradientTransform="matrix(-15.384615,0,0,15.384615,130.769231,130.769231)">
<stop offset="0.12" style="stop-color:rgb(100%,100%,100%);stop-opacity:1;"/>
<stop offset="1" style="stop-color:rgb(83.921569%,18.823529%,0%);stop-opacity:1;"/>
</radialGradient>
<radialGradient id="radial39" gradientUnits="userSpaceOnUse" cx="0" cy="0" fx="-1.1" fy="1.1" r="2.5" gradientTransform="matrix(-15.384615,0,0,15.384615,53.846154,130.769231)">
<stop offset="0.12" style="stop-color:rgb(100%,100%,100%);stop-opacity:1;"/>
<stop offset="1" style="stop-color:rgb(48.627451%,0%,100%);stop-opacity:1;"/>
</radialGradient>
<radialGradient id="radial40" gradientUnits="userSpaceOnUse" cx="0" cy="0" fx="-1.1" fy="1.1" r="2.5" gradientTransform="matrix(-15.384615,0,0,-15.384615,746.153846,53.846154)">
<stop offset="0.12" style="stop-color:rgb(100%,100%,100%);stop-opacity:1;"/>
<stop offset="1" style="stop-color:rgb(99.215686%,70.588235%,38.431373%);stop-opacity:1;"/>
</radialGradient>
<radialGradient id="radial41" gradientUnits="userSpaceOnUse" cx="0" cy="0" fx="-1.1" fy="1.1" r="2.5" gradientTransform="matrix(15.384615,0,0,-15.384615,669.230769,53.846154)">
<stop offset="0.12" style="stop-color:rgb(100%,100%,100%);stop-opacity:1;"/>
<stop offset="1" style="stop-color:rgb(37.647059%,68.627451%,38.431373%);stop-opacity:1;"/>
</radialGradient>
<radialGradient id="radial42" gradientUnits="userSpaceOnUse" cx="0" cy="0" fx="-1.1" fy="1.1" r="2.5" gradientTransform="matrix(15.384615,0,0,-15.384615,592.307692,53.846154)">
<stop offset="0.12" style="stop-color:rgb(100%,100%,100%);stop-opacity:1;"/>
<stop offset="1" style="stop-color:rgb(96.078431%,39.215686%,34.509804%);stop-opacity:1;"/>
</radialGradient>
<radialGradient id="radial43" gradientUnits="userSpaceOnUse" cx="0" cy="0" fx="-1.1" fy="1.1" r="2.5" gradientTransform="matrix(-15.384615,0,0,15.384615,515.384615,53.846154)">
<stop offset="0.12" style="stop-color:rgb(100%,100%,100%);stop-opacity:1;"/>
<stop offset="1" style="stop-color:rgb(100%,7.45098%,7.45098%);stop-opacity:1;"/>
</radialGradient>
<radialGradient id="radial44" gradientUnits="userSpaceOnUse" cx="0" cy="0" fx="-1.1" fy="1.1" r="2.5" gradientTransform="matrix(15.384615,0,0,-15.384615,438.461538,53.846154)">
<stop offset="0.12" style="stop-color:rgb(100%,100%,100%);stop-opacity:1;"/>
<stop offset="1" style="stop-color:rgb(40%,100%,80.392157%);stop-opacity:1;"/>
</radialGradient>
<radialGradient id="radial45" gradientUnits="userSpaceOnUse" cx="0" cy="0" fx="-1.1" fy="1.1" r="2.5" gradientTransform="matrix(15.384615,0,0,-15.384615,361.538462,53.846154)">
<stop offset="0.12" style="stop-color:rgb(100%,100%,100%);stop-opacity:1;"/>
<stop offset="1" style="stop-color:rgb(100%,84.705882%,48.235294%);stop-opacity:1;"/>
</radialGradient>
<radialGradient id="radial46" gradientUnits="userSpaceOnUse" cx="0" cy="0" fx="-1.1" fy="1.1" r="2.5" gradientTransform="matrix(-15.384615,0,0,-15.384615,284.615385,53.846154)">
<stop offset="0.12" style="stop-color:rgb(100%,100%,100%);stop-opacity:1;"/>
<stop offset="1" style="stop-color:rgb(45.098039%,18.039216%,59.607843%);stop-opacity:1;"/>
</radialGradient>
<radialGradient id="radial47" gradientUnits="userSpaceOnUse" cx="0" cy="0" fx="-1.1" fy="1.1" r="2.5" gradientTransform="matrix(15.384615,0,0,-15.384615,207.692308,53.846154)">
<stop offset="0.12" style="stop-color:rgb(100%,100%,100%);stop-opacity:1;"/>
<stop offset="1" style="stop-color:rgb(58.431373%,11.764706%,74.901961%);stop-opacity:1;"/>
</radialGradient>
<radialGradient id="radial48" gradientUnits="userSpaceOnUse" cx="0" cy="0" fx="-1.1" fy="1.1" r="2.5" gradientTransform="matrix(15.384615,0,0,15.384615,130.769231,53.846154)">
<stop offset="0.12" style="stop-color:rgb(100%,100%,100%);stop-opacity:1;"/>
<stop offset="1" style="stop-color:rgb(76.078431%,0%,82.745098%);stop-opacity:1;"/>
</radialGradient>
<radialGradient id="radial49" gradientUnits="userSpaceOnUse" cx="0" cy="0" fx="-1.1" fy="1.1" r="2.5" gradientTransform="matrix(15.384615,0,0,15.384615,53.846154,53.846154)">
<stop offset="0.12" style="stop-color:rgb(100%,100%,100%);stop-opacity:1;"/>
<stop offset="1" style="stop-color:rgb(82.745098%,100%,97.647059%);stop-opacity:1;"/>
</radialGradient>
</defs>
<g id="surface1">
<path style=" stroke:none;fill-rule:nonzero;fill:rgb(100%,60.784314%,21.176471%);fill-opacity:1;" d="M 707.691406 323.078125 L 707.691406 400 L 784.613281 400 L 784.613281 323.078125 Z M 707.691406 323.078125 "/>
<path style=" stroke:none;fill-rule:nonzero;fill:rgb(39.215686%,92.54902%,48.235294%);fill-opacity:1;" d="M 707.691406 323.078125 L 707.691406 400 L 784.613281 323.078125 Z M 707.691406 323.078125 "/>
<path style=" stroke:none;fill-rule:nonzero;fill:url(#radial0);" d="M 776.921875 323.078125 C 776.921875 340.070312 763.144531 353.847656 746.152344 353.847656 C 729.160156 353.847656 715.382812 340.070312 715.382812 323.078125 C 735.894531 323.078125 756.410156 323.078125 776.921875 323.078125 Z M 776.921875 323.078125 "/>
<path style=" stroke:none;fill-rule:nonzero;fill:rgb(96.078431%,95.686275%,14.901961%);fill-opacity:1;" d="M 630.769531 323.078125 L 630.769531 400 L 707.691406 400 L 707.691406 323.078125 Z M 630.769531 323.078125 "/>
<path style=" stroke:none;fill-rule:nonzero;fill:rgb(6.666667%,84.705882%,44.313725%);fill-opacity:1;" d="M 630.769531 323.078125 L 630.769531 400 L 707.691406 323.078125 Z M 630.769531 323.078125 "/>
<path style=" stroke:none;fill-rule:nonzero;fill:url(#radial1);" d="M 700 323.078125 C 700 340.070312 686.222656 353.847656 669.230469 353.847656 C 652.238281 353.847656 638.460938 340.070312 638.460938 323.078125 C 658.972656 323.078125 679.488281 323.078125 700 323.078125 Z M 700 323.078125 "/>
<path style=" stroke:none;fill-rule:nonzero;fill:rgb(83.529412%,0%,39.607843%);fill-opacity:1;" d="M 553.847656 323.078125 L 553.847656 400 L 630.769531 400 L 630.769531 323.078125 Z M 553.847656 323.078125 "/>
<path style=" stroke:none;fill-rule:nonzero;fill:rgb(0%,83.137255%,72.156863%);fill-opacity:1;" d="M 553.847656 323.078125 L 553.847656 400 L 630.769531 323.078125 Z M 553.847656 323.078125 "/>
<path style=" stroke:none;fill-rule:nonzero;fill:url(#radial2);" d="M 623.078125 323.078125 C 623.078125 340.070312 609.300781 353.847656 592.308594 353.847656 C 575.316406 353.847656 561.539062 340.070312 561.539062 323.078125 C 582.050781 323.078125 602.566406 323.078125 623.078125 323.078125 Z M 623.078125 323.078125 "/>
<path style=" stroke:none;fill-rule:nonzero;fill:rgb(82.352941%,43.921569%,95.686275%);fill-opacity:1;" d="M 553.847656 400 L 553.847656 323.078125 L 476.925781 323.078125 L 476.925781 400 Z M 553.847656 400 "/>
<path style=" stroke:none;fill-rule:nonzero;fill:rgb(82.352941%,43.921569%,95.686275%);fill-opacity:1;" d="M 553.847656 400 L 553.847656 323.078125 L 476.925781 400 Z M 553.847656 400 "/>
<path style=" stroke:none;fill-rule:nonzero;fill:url(#radial3);" d="M 484.617188 400 C 484.617188 383.007812 498.394531 369.230469 515.386719 369.230469 C 532.378906 369.230469 546.15625 383.007812 546.15625 400 C 525.644531 400 505.128906 400 484.617188 400 Z M 484.617188 400 "/>
<path style=" stroke:none;fill-rule:nonzero;fill:rgb(0%,18.823529%,100%);fill-opacity:1;" d="M 476.921875 400 L 476.921875 323.078125 L 400 323.078125 L 400 400 Z M 476.921875 400 "/>
<path style=" stroke:none;fill-rule:nonzero;fill:rgb(100%,83.137255%,0%);fill-opacity:1;" d="M 476.921875 400 L 476.921875 323.078125 L 400 400 Z M 476.921875 400 "/>
<path style=" stroke:none;fill-rule:nonzero;fill:url(#radial4);" d="M 407.691406 400 C 407.691406 383.007812 421.46875 369.230469 438.460938 369.230469 C 455.453125 369.230469 469.230469 383.007812 469.230469 400 C 448.71875 400 428.203125 400 407.691406 400 Z M 407.691406 400 "/>
<path style=" stroke:none;fill-rule:nonzero;fill:rgb(97.647059%,55.294118%,46.666667%);fill-opacity:1;" d="M 400 323.078125 L 400 400 L 323.078125 400 L 323.078125 323.078125 Z M 400 323.078125 "/>
<path style=" stroke:none;fill-rule:nonzero;fill:rgb(97.647059%,55.294118%,46.666667%);fill-opacity:1;" d="M 400 323.078125 L 400 400 L 323.078125 323.078125 Z M 400 323.078125 "/>
<path style=" stroke:none;fill-rule:nonzero;fill:url(#radial5);" d="M 330.769531 323.078125 C 330.769531 340.070312 344.546875 353.847656 361.539062 353.847656 C 378.53125 353.847656 392.308594 340.070312 392.308594 323.078125 C 371.796875 323.078125 351.28125 323.078125 330.769531 323.078125 Z M 330.769531 323.078125 "/>
<path style=" stroke:none;fill-rule:nonzero;fill:rgb(100%,74.117647%,0%);fill-opacity:1;" d="M 246.152344 323.078125 L 246.152344 400 L 323.074219 400 L 323.074219 323.078125 Z M 246.152344 323.078125 "/>
<path style=" stroke:none;fill-rule:nonzero;fill:rgb(100%,74.117647%,0%);fill-opacity:1;" d="M 246.152344 323.078125 L 246.152344 400 L 323.074219 323.078125 Z M 246.152344 323.078125 "/>
<path style=" stroke:none;fill-rule:nonzero;fill:url(#radial6);" d="M 315.382812 323.078125 C 315.382812 340.070312 301.605469 353.847656 284.613281 353.847656 C 267.621094 353.847656 253.84375 340.070312 253.84375 323.078125 C 274.355469 323.078125 294.871094 323.078125 315.382812 323.078125 Z M 315.382812 323.078125 "/>
<path style=" stroke:none;fill-rule:nonzero;fill:rgb(100%,98.039216%,48.235294%);fill-opacity:1;" d="M 246.152344 400 L 246.152344 323.078125 L 169.230469 323.078125 L 169.230469 400 Z M 246.152344 400 "/>
<path style=" stroke:none;fill-rule:nonzero;fill:rgb(0%,18.823529%,100%);fill-opacity:1;" d="M 246.152344 400 L 246.152344 323.078125 L 169.230469 400 Z M 246.152344 400 "/>
<path style=" stroke:none;fill-rule:nonzero;fill:url(#radial7);" d="M 176.921875 400 C 176.921875 383.007812 190.699219 369.230469 207.691406 369.230469 C 224.683594 369.230469 238.460938 383.007812 238.460938 400 C 217.949219 400 197.433594 400 176.921875 400 Z M 176.921875 400 "/>
<path style=" stroke:none;fill-rule:nonzero;fill:rgb(100%,34.901961%,47.058824%);fill-opacity:1;" d="M 169.230469 400 L 169.230469 323.078125 L 92.308594 323.078125 L 92.308594 400 Z M 169.230469 400 "/>
<path style=" stroke:none;fill-rule:nonzero;fill:rgb(99.215686%,94.901961%,53.72549%);fill-opacity:1;" d="M 169.230469 400 L 169.230469 323.078125 L 92.308594 400 Z M 169.230469 400 "/>
<path style=" stroke:none;fill-rule:nonzero;fill:url(#radial8);" d="M 100 400 C 100 383.007812 113.777344 369.230469 130.769531 369.230469 C 147.761719 369.230469 161.539062 383.007812 161.539062 400 C 141.027344 400 120.511719 400 100 400 Z M 100 400 "/>
<path style=" stroke:none;fill-rule:nonzero;fill:rgb(92.54902%,93.333333%,23.529412%);fill-opacity:1;" d="M 15.382812 400 L 15.382812 323.078125 L 92.304688 323.078125 L 92.304688 400 Z M 15.382812 400 "/>
<path style=" stroke:none;fill-rule:nonzero;fill:rgb(37.647059%,68.627451%,38.431373%);fill-opacity:1;" d="M 15.382812 400 L 15.382812 323.078125 L 92.304688 400 Z M 15.382812 400 "/>
<path style=" stroke:none;fill-rule:nonzero;fill:url(#radial9);" d="M 84.617188 400 C 84.617188 383.007812 70.839844 369.230469 53.847656 369.230469 C 36.855469 369.230469 23.078125 383.007812 23.078125 400 C 43.589844 400 64.105469 400 84.617188 400 Z M 84.617188 400 "/>
<path style=" stroke:none;fill-rule:nonzero;fill:rgb(39.215686%,82.352941%,96.470588%);fill-opacity:1;" d="M 784.617188 323.078125 L 784.617188 246.15625 L 707.695312 246.15625 L 707.695312 323.078125 Z M 784.617188 323.078125 "/>
<path style=" stroke:none;fill-rule:nonzero;fill:rgb(58.431373%,11.764706%,74.901961%);fill-opacity:1;" d="M 784.617188 323.078125 L 784.617188 246.15625 L 707.695312 323.078125 Z M 784.617188 323.078125 "/>
<path style=" stroke:none;fill-rule:nonzero;fill:url(#radial10);" d="M 715.382812 323.078125 C 715.382812 306.085938 729.160156 292.308594 746.152344 292.308594 C 763.144531 292.308594 776.921875 306.085938 776.921875 323.078125 C 756.410156 323.078125 735.894531 323.078125 715.382812 323.078125 Z M 715.382812 323.078125 "/>
<path style=" stroke:none;fill-rule:nonzero;fill:rgb(90.588235%,43.921569%,48.627451%);fill-opacity:1;" d="M 630.769531 246.152344 L 630.769531 323.074219 L 707.691406 323.074219 L 707.691406 246.152344 Z M 630.769531 246.152344 "/>
<path style=" stroke:none;fill-rule:nonzero;fill:rgb(70.588235%,42.745098%,100%);fill-opacity:1;" d="M 630.769531 246.152344 L 630.769531 323.074219 L 707.691406 246.152344 Z M 630.769531 246.152344 "/>
<path style=" stroke:none;fill-rule:nonzero;fill:url(#radial11);" d="M 700 246.152344 C 700 263.144531 686.222656 276.921875 669.230469 276.921875 C 652.238281 276.921875 638.460938 263.144531 638.460938 246.152344 C 658.972656 246.152344 679.488281 246.152344 700 246.152344 Z M 700 246.152344 "/>
<path style=" stroke:none;fill-rule:nonzero;fill:rgb(100%,96.470588%,0%);fill-opacity:1;" d="M 630.769531 246.152344 L 630.769531 323.074219 L 553.847656 323.074219 L 553.847656 246.152344 Z M 630.769531 246.152344 "/>
<path style=" stroke:none;fill-rule:nonzero;fill:rgb(20%,70.196078%,65.098039%);fill-opacity:1;" d="M 630.769531 246.152344 L 630.769531 323.074219 L 553.847656 246.152344 Z M 630.769531 246.152344 "/>
<path style=" stroke:none;fill-rule:nonzero;fill:url(#radial12);" d="M 561.539062 246.152344 C 561.539062 263.144531 575.316406 276.921875 592.308594 276.921875 C 609.300781 276.921875 623.078125 263.144531 623.078125 246.152344 C 602.566406 246.152344 582.050781 246.152344 561.539062 246.152344 Z M 561.539062 246.152344 "/>
<path style=" stroke:none;fill-rule:nonzero;fill:rgb(81.568627%,72.941176%,37.254902%);fill-opacity:1;" d="M 553.847656 323.078125 L 553.847656 246.15625 L 476.925781 246.15625 L 476.925781 323.078125 Z M 553.847656 323.078125 "/>
<path style=" stroke:none;fill-rule:nonzero;fill:rgb(81.568627%,72.941176%,37.254902%);fill-opacity:1;" d="M 553.847656 323.078125 L 553.847656 246.15625 L 476.925781 323.078125 Z M 553.847656 323.078125 "/>
<path style=" stroke:none;fill-rule:nonzero;fill:url(#radial13);" d="M 484.617188 323.078125 C 484.617188 306.085938 498.394531 292.308594 515.386719 292.308594 C 532.378906 292.308594 546.15625 306.085938 546.15625 323.078125 C 525.644531 323.078125 505.128906 323.078125 484.617188 323.078125 Z M 484.617188 323.078125 "/>
<path style=" stroke:none;fill-rule:nonzero;fill:rgb(83.921569%,16.078431%,46.27451%);fill-opacity:1;" d="M 400 323.078125 L 400 246.15625 L 476.921875 246.15625 L 476.921875 323.078125 Z M 400 323.078125 "/>
<path style=" stroke:none;fill-rule:nonzero;fill:rgb(99.607843%,85.490196%,45.882353%);fill-opacity:1;" d="M 400 323.078125 L 400 246.15625 L 476.921875 323.078125 Z M 400 323.078125 "/>
<path style=" stroke:none;fill-rule:nonzero;fill:url(#radial14);" d="M 469.230469 323.078125 C 469.230469 306.085938 455.453125 292.308594 438.460938 292.308594 C 421.46875 292.308594 407.691406 306.085938 407.691406 323.078125 C 428.203125 323.078125 448.71875 323.078125 469.230469 323.078125 Z M 469.230469 323.078125 "/>
<path style=" stroke:none;fill-rule:nonzero;fill:rgb(14.509804%,37.647059%,99.607843%);fill-opacity:1;" d="M 400 246.152344 L 400 323.074219 L 323.078125 323.074219 L 323.078125 246.152344 Z M 400 246.152344 "/>
<path style=" stroke:none;fill-rule:nonzero;fill:rgb(42.745098%,75.294118%,40%);fill-opacity:1;" d="M 400 246.152344 L 400 323.074219 L 323.078125 246.152344 Z M 400 246.152344 "/>
<path style=" stroke:none;fill-rule:nonzero;fill:url(#radial15);" d="M 330.769531 246.152344 C 330.769531 263.144531 344.546875 276.921875 361.539062 276.921875 C 378.53125 276.921875 392.308594 263.144531 392.308594 246.152344 C 371.796875 246.152344 351.28125 246.152344 330.769531 246.152344 Z M 330.769531 246.152344 "/>
<path style=" stroke:none;fill-rule:nonzero;fill:rgb(100%,64.705882%,0%);fill-opacity:1;" d="M 323.078125 323.078125 L 323.078125 246.15625 L 246.15625 246.15625 L 246.15625 323.078125 Z M 323.078125 323.078125 "/>
<path style=" stroke:none;fill-rule:nonzero;fill:rgb(42.745098%,75.294118%,40%);fill-opacity:1;" d="M 323.078125 323.078125 L 323.078125 246.15625 L 246.15625 323.078125 Z M 323.078125 323.078125 "/>
<path style=" stroke:none;fill-rule:nonzero;fill:url(#radial16);" d="M 253.847656 323.078125 C 253.847656 306.085938 267.625 292.308594 284.617188 292.308594 C 301.609375 292.308594 315.386719 306.085938 315.386719 323.078125 C 294.875 323.078125 274.359375 323.078125 253.847656 323.078125 Z M 253.847656 323.078125 "/>
<path style=" stroke:none;fill-rule:nonzero;fill:rgb(100%,84.705882%,48.235294%);fill-opacity:1;" d="M 246.152344 323.078125 L 246.152344 246.15625 L 169.230469 246.15625 L 169.230469 323.078125 Z M 246.152344 323.078125 "/>
<path style=" stroke:none;fill-rule:nonzero;fill:rgb(67.058824%,63.921569%,100%);fill-opacity:1;" d="M 246.152344 323.078125 L 246.152344 246.15625 L 169.230469 323.078125 Z M 246.152344 323.078125 "/>
<path style=" stroke:none;fill-rule:nonzero;fill:url(#radial17);" d="M 176.921875 323.078125 C 176.921875 306.085938 190.699219 292.308594 207.691406 292.308594 C 224.683594 292.308594 238.460938 306.085938 238.460938 323.078125 C 217.949219 323.078125 197.433594 323.078125 176.921875 323.078125 Z M 176.921875 323.078125 "/>
<path style=" stroke:none;fill-rule:nonzero;fill:rgb(100%,100%,100%);fill-opacity:1;" d="M 169.230469 323.078125 L 169.230469 246.15625 L 92.308594 246.15625 L 92.308594 323.078125 Z M 169.230469 323.078125 "/>
<path style=" stroke:none;fill-rule:nonzero;fill:rgb(0%,76.078431%,100%);fill-opacity:1;" d="M 169.230469 323.078125 L 169.230469 246.15625 L 92.308594 323.078125 Z M 169.230469 323.078125 "/>
<path style=" stroke:none;fill-rule:nonzero;fill:url(#radial18);" d="M 100 323.078125 C 100 306.085938 113.777344 292.308594 130.769531 292.308594 C 147.761719 292.308594 161.539062 306.085938 161.539062 323.078125 C 141.027344 323.078125 120.511719 323.078125 100 323.078125 Z M 100 323.078125 "/>
<path style=" stroke:none;fill-rule:nonzero;fill:rgb(90.588235%,43.921569%,48.627451%);fill-opacity:1;" d="M 92.308594 323.078125 L 92.308594 246.15625 L 15.386719 246.15625 L 15.386719 323.078125 Z M 92.308594 323.078125 "/>
<path style=" stroke:none;fill-rule:nonzero;fill:rgb(21.568627%,48.627451%,85.882353%);fill-opacity:1;" d="M 92.308594 323.078125 L 92.308594 246.15625 L 15.386719 323.078125 Z M 92.308594 323.078125 "/>
<path style=" stroke:none;fill-rule:nonzero;fill:url(#radial19);" d="M 23.078125 323.078125 C 23.078125 306.085938 36.855469 292.308594 53.847656 292.308594 C 70.839844 292.308594 84.617188 306.085938 84.617188 323.078125 C 64.105469 323.078125 43.589844 323.078125 23.078125 323.078125 Z M 23.078125 323.078125 "/>
<path style=" stroke:none;fill-rule:nonzero;fill:rgb(43.137255%,71.372549%,24.705882%);fill-opacity:1;" d="M 784.617188 246.152344 L 784.617188 169.230469 L 707.695312 169.230469 L 707.695312 246.152344 Z M 784.617188 246.152344 "/>
<path style=" stroke:none;fill-rule:nonzero;fill:rgb(91.372549%,0%,55.294118%);fill-opacity:1;" d="M 784.617188 246.152344 L 784.617188 169.230469 L 707.695312 246.152344 Z M 784.617188 246.152344 "/>
<path style=" stroke:none;fill-rule:nonzero;fill:url(#radial20);" d="M 715.382812 246.152344 C 715.382812 229.160156 729.160156 215.382812 746.152344 215.382812 C 763.144531 215.382812 776.921875 229.160156 776.921875 246.152344 C 756.410156 246.152344 735.894531 246.152344 715.382812 246.152344 Z M 715.382812 246.152344 "/>
<path style=" stroke:none;fill-rule:nonzero;fill:rgb(0%,0%,26.666667%);fill-opacity:1;" d="M 707.691406 169.230469 L 707.691406 246.152344 L 630.769531 246.152344 L 630.769531 169.230469 Z M 707.691406 169.230469 "/>
<path style=" stroke:none;fill-rule:nonzero;fill:rgb(100%,33.333333%,0%);fill-opacity:1;" d="M 707.691406 169.230469 L 707.691406 246.152344 L 630.769531 169.230469 Z M 707.691406 169.230469 "/>
<path style=" stroke:none;fill-rule:nonzero;fill:url(#radial21);" d="M 638.460938 169.230469 C 638.460938 186.222656 652.238281 200 669.230469 200 C 686.222656 200 700 186.222656 700 169.230469 C 679.488281 169.230469 658.972656 169.230469 638.460938 169.230469 Z M 638.460938 169.230469 "/>
<path style=" stroke:none;fill-rule:nonzero;fill:rgb(100%,100%,100%);fill-opacity:1;" d="M 630.769531 169.230469 L 630.769531 246.152344 L 553.847656 246.152344 L 553.847656 169.230469 Z M 630.769531 169.230469 "/>
<path style=" stroke:none;fill-rule:nonzero;fill:rgb(21.176471%,78.039216%,50.588235%);fill-opacity:1;" d="M 630.769531 169.230469 L 630.769531 246.152344 L 553.847656 169.230469 Z M 630.769531 169.230469 "/>
<path style=" stroke:none;fill-rule:nonzero;fill:url(#radial22);" d="M 561.539062 169.230469 C 561.539062 186.222656 575.316406 200 592.308594 200 C 609.300781 200 623.078125 186.222656 623.078125 169.230469 C 602.566406 169.230469 582.050781 169.230469 561.539062 169.230469 Z M 561.539062 169.230469 "/>
<path style=" stroke:none;fill-rule:nonzero;fill:rgb(100%,79.607843%,41.176471%);fill-opacity:1;" d="M 553.847656 246.152344 L 553.847656 169.230469 L 476.925781 169.230469 L 476.925781 246.152344 Z M 553.847656 246.152344 "/>
<path style=" stroke:none;fill-rule:nonzero;fill:rgb(100%,79.607843%,41.176471%);fill-opacity:1;" d="M 553.847656 246.152344 L 553.847656 169.230469 L 476.925781 246.152344 Z M 553.847656 246.152344 "/>
<path style=" stroke:none;fill-rule:nonzero;fill:url(#radial23);" d="M 484.617188 246.152344 C 484.617188 229.160156 498.394531 215.382812 515.386719 215.382812 C 532.378906 215.382812 546.15625 229.160156 546.15625 246.152344 C 525.644531 246.152344 505.128906 246.152344 484.617188 246.152344 Z M 484.617188 246.152344 "/>
<path style=" stroke:none;fill-rule:nonzero;fill:rgb(100%,21.176471%,38.823529%);fill-opacity:1;" d="M 476.921875 169.230469 L 476.921875 246.152344 L 400 246.152344 L 400 169.230469 Z M 476.921875 169.230469 "/>
<path style=" stroke:none;fill-rule:nonzero;fill:rgb(100%,21.176471%,38.823529%);fill-opacity:1;" d="M 476.921875 169.230469 L 476.921875 246.152344 L 400 169.230469 Z M 476.921875 169.230469 "/>
<path style=" stroke:none;fill-rule:nonzero;fill:url(#radial24);" d="M 407.691406 169.230469 C 407.691406 186.222656 421.46875 200 438.460938 200 C 455.453125 200 469.230469 186.222656 469.230469 169.230469 C 448.71875 169.230469 428.203125 169.230469 407.691406 169.230469 Z M 407.691406 169.230469 "/>
<path style=" stroke:none;fill-rule:nonzero;fill:rgb(100%,34.901961%,47.058824%);fill-opacity:1;" d="M 323.078125 169.230469 L 323.078125 246.152344 L 400 246.152344 L 400 169.230469 Z M 323.078125 169.230469 "/>
<path style=" stroke:none;fill-rule:nonzero;fill:rgb(21.568627%,30.196078%,48.627451%);fill-opacity:1;" d="M 323.078125 169.230469 L 323.078125 246.152344 L 400 169.230469 Z M 323.078125 169.230469 "/>
<path style=" stroke:none;fill-rule:nonzero;fill:url(#radial25);" d="M 392.308594 169.230469 C 392.308594 186.222656 378.53125 200 361.539062 200 C 344.546875 200 330.769531 186.222656 330.769531 169.230469 C 351.28125 169.230469 371.796875 169.230469 392.308594 169.230469 Z M 392.308594 169.230469 "/>
<path style=" stroke:none;fill-rule:nonzero;fill:rgb(58.431373%,11.764706%,74.901961%);fill-opacity:1;" d="M 323.078125 169.230469 L 323.078125 246.152344 L 246.15625 246.152344 L 246.15625 169.230469 Z M 323.078125 169.230469 "/>
<path style=" stroke:none;fill-rule:nonzero;fill:rgb(98.431373%,76.862745%,61.960784%);fill-opacity:1;" d="M 323.078125 169.230469 L 323.078125 246.152344 L 246.15625 169.230469 Z M 323.078125 169.230469 "/>
<path style=" stroke:none;fill-rule:nonzero;fill:url(#radial26);" d="M 253.847656 169.230469 C 253.847656 186.222656 267.625 200 284.617188 200 C 301.609375 200 315.386719 186.222656 315.386719 169.230469 C 294.875 169.230469 274.359375 169.230469 253.847656 169.230469 Z M 253.847656 169.230469 "/>
<path style=" stroke:none;fill-rule:nonzero;fill:rgb(100%,64.705882%,0%);fill-opacity:1;" d="M 246.152344 246.152344 L 246.152344 169.230469 L 169.230469 169.230469 L 169.230469 246.152344 Z M 246.152344 246.152344 "/>
<path style=" stroke:none;fill-rule:nonzero;fill:rgb(100%,25.098039%,25.098039%);fill-opacity:1;" d="M 246.152344 246.152344 L 246.152344 169.230469 L 169.230469 246.152344 Z M 246.152344 246.152344 "/>
<path style=" stroke:none;fill-rule:nonzero;fill:url(#radial27);" d="M 176.921875 246.152344 C 176.921875 229.160156 190.699219 215.382812 207.691406 215.382812 C 224.683594 215.382812 238.460938 229.160156 238.460938 246.152344 C 217.949219 246.152344 197.433594 246.152344 176.921875 246.152344 Z M 176.921875 246.152344 "/>
<path style=" stroke:none;fill-rule:nonzero;fill:rgb(90.588235%,43.921569%,48.627451%);fill-opacity:1;" d="M 169.230469 246.152344 L 169.230469 169.230469 L 92.308594 169.230469 L 92.308594 246.152344 Z M 169.230469 246.152344 "/>
<path style=" stroke:none;fill-rule:nonzero;fill:rgb(81.568627%,72.941176%,37.254902%);fill-opacity:1;" d="M 169.230469 246.152344 L 169.230469 169.230469 L 92.308594 246.152344 Z M 169.230469 246.152344 "/>
<path style=" stroke:none;fill-rule:nonzero;fill:url(#radial28);" d="M 100 246.152344 C 100 229.160156 113.777344 215.382812 130.769531 215.382812 C 147.761719 215.382812 161.539062 229.160156 161.539062 246.152344 C 141.027344 246.152344 120.511719 246.152344 100 246.152344 Z M 100 246.152344 "/>
<path style=" stroke:none;fill-rule:nonzero;fill:rgb(99.215686%,38.431373%,36.862745%);fill-opacity:1;" d="M 15.382812 246.152344 L 15.382812 169.230469 L 92.304688 169.230469 L 92.304688 246.152344 Z M 15.382812 246.152344 "/>
<path style=" stroke:none;fill-rule:nonzero;fill:rgb(33.72549%,34.509804%,88.235294%);fill-opacity:1;" d="M 15.382812 246.152344 L 15.382812 169.230469 L 92.304688 246.152344 Z M 15.382812 246.152344 "/>
<path style=" stroke:none;fill-rule:nonzero;fill:url(#radial29);" d="M 84.617188 246.152344 C 84.617188 229.160156 70.839844 215.382812 53.847656 215.382812 C 36.855469 215.382812 23.078125 229.160156 23.078125 246.152344 C 43.589844 246.152344 64.105469 246.152344 84.617188 246.152344 Z M 84.617188 246.152344 "/>
<path style=" stroke:none;fill-rule:nonzero;fill:rgb(70.196078%,87.058824%,41.176471%);fill-opacity:1;" d="M 784.617188 169.230469 L 784.617188 92.308594 L 707.695312 92.308594 L 707.695312 169.230469 Z M 784.617188 169.230469 "/>
<path style=" stroke:none;fill-rule:nonzero;fill:rgb(70.196078%,87.058824%,41.176471%);fill-opacity:1;" d="M 784.617188 169.230469 L 784.617188 92.308594 L 707.695312 169.230469 Z M 784.617188 169.230469 "/>
<path style=" stroke:none;fill-rule:nonzero;fill:url(#radial30);" d="M 715.382812 169.230469 C 715.382812 152.238281 729.160156 138.460938 746.152344 138.460938 C 763.144531 138.460938 776.921875 152.238281 776.921875 169.230469 C 756.410156 169.230469 735.894531 169.230469 715.382812 169.230469 Z M 715.382812 169.230469 "/>
<path style=" stroke:none;fill-rule:nonzero;fill:rgb(100%,28.627451%,62.352941%);fill-opacity:1;" d="M 707.691406 92.308594 L 707.691406 169.230469 L 630.769531 169.230469 L 630.769531 92.308594 Z M 707.691406 92.308594 "/>
<path style=" stroke:none;fill-rule:nonzero;fill:rgb(100%,30.196078%,30.196078%);fill-opacity:1;" d="M 707.691406 92.308594 L 707.691406 169.230469 L 630.769531 92.308594 Z M 707.691406 92.308594 "/>
<path style=" stroke:none;fill-rule:nonzero;fill:url(#radial31);" d="M 638.460938 92.308594 C 638.460938 109.300781 652.238281 123.078125 669.230469 123.078125 C 686.222656 123.078125 700 109.300781 700 92.308594 C 679.488281 92.308594 658.972656 92.308594 638.460938 92.308594 Z M 638.460938 92.308594 "/>
<path style=" stroke:none;fill-rule:nonzero;fill:rgb(26.666667%,0%,26.666667%);fill-opacity:1;" d="M 630.769531 169.230469 L 630.769531 92.308594 L 553.847656 92.308594 L 553.847656 169.230469 Z M 630.769531 169.230469 "/>
<path style=" stroke:none;fill-rule:nonzero;fill:rgb(66.666667%,0%,6.666667%);fill-opacity:1;" d="M 630.769531 169.230469 L 630.769531 92.308594 L 553.847656 169.230469 Z M 630.769531 169.230469 "/>
<path style=" stroke:none;fill-rule:nonzero;fill:url(#radial32);" d="M 561.539062 169.230469 C 561.539062 152.238281 575.316406 138.460938 592.308594 138.460938 C 609.300781 138.460938 623.078125 152.238281 623.078125 169.230469 C 602.566406 169.230469 582.050781 169.230469 561.539062 169.230469 Z M 561.539062 169.230469 "/>
<path style=" stroke:none;fill-rule:nonzero;fill:rgb(71.372549%,70.588235%,70.588235%);fill-opacity:1;" d="M 553.847656 92.308594 L 553.847656 169.230469 L 476.925781 169.230469 L 476.925781 92.308594 Z M 553.847656 92.308594 "/>
<path style=" stroke:none;fill-rule:nonzero;fill:rgb(85.490196%,87.058824%,91.764706%);fill-opacity:1;" d="M 553.847656 92.308594 L 553.847656 169.230469 L 476.925781 92.308594 Z M 553.847656 92.308594 "/>
<path style=" stroke:none;fill-rule:nonzero;fill:url(#radial33);" d="M 484.617188 92.308594 C 484.617188 109.300781 498.394531 123.078125 515.386719 123.078125 C 532.378906 123.078125 546.15625 109.300781 546.15625 92.308594 C 525.644531 92.308594 505.128906 92.308594 484.617188 92.308594 Z M 484.617188 92.308594 "/>
<path style=" stroke:none;fill-rule:nonzero;fill:rgb(65.098039%,100%,96.862745%);fill-opacity:1;" d="M 476.921875 169.230469 L 476.921875 92.308594 L 400 92.308594 L 400 169.230469 Z M 476.921875 169.230469 "/>
<path style=" stroke:none;fill-rule:nonzero;fill:rgb(100%,78.823529%,32.156863%);fill-opacity:1;" d="M 476.921875 169.230469 L 476.921875 92.308594 L 400 169.230469 Z M 476.921875 169.230469 "/>
<path style=" stroke:none;fill-rule:nonzero;fill:url(#radial34);" d="M 407.691406 169.230469 C 407.691406 152.238281 421.46875 138.460938 438.460938 138.460938 C 455.453125 138.460938 469.230469 152.238281 469.230469 169.230469 C 448.71875 169.230469 428.203125 169.230469 407.691406 169.230469 Z M 407.691406 169.230469 "/>
<path style=" stroke:none;fill-rule:nonzero;fill:rgb(30.980392%,35.686275%,83.529412%);fill-opacity:1;" d="M 400 92.308594 L 400 169.230469 L 323.078125 169.230469 L 323.078125 92.308594 Z M 400 92.308594 "/>
<path style=" stroke:none;fill-rule:nonzero;fill:rgb(98.039216%,49.411765%,11.764706%);fill-opacity:1;" d="M 400 92.308594 L 400 169.230469 L 323.078125 92.308594 Z M 400 92.308594 "/>
<path style=" stroke:none;fill-rule:nonzero;fill:url(#radial35);" d="M 330.769531 92.308594 C 330.769531 109.300781 344.546875 123.078125 361.539062 123.078125 C 378.53125 123.078125 392.308594 109.300781 392.308594 92.308594 C 371.796875 92.308594 351.28125 92.308594 330.769531 92.308594 Z M 330.769531 92.308594 "/>
<path style=" stroke:none;fill-rule:nonzero;fill:rgb(100%,64.313725%,70.196078%);fill-opacity:1;" d="M 323.078125 169.230469 L 323.078125 92.308594 L 246.15625 92.308594 L 246.15625 169.230469 Z M 323.078125 169.230469 "/>
<path style=" stroke:none;fill-rule:nonzero;fill:rgb(14.509804%,64.705882%,9.803922%);fill-opacity:1;" d="M 323.078125 169.230469 L 323.078125 92.308594 L 246.15625 169.230469 Z M 323.078125 169.230469 "/>
<path style=" stroke:none;fill-rule:nonzero;fill:url(#radial36);" d="M 253.847656 169.230469 C 253.847656 152.238281 267.625 138.460938 284.617188 138.460938 C 301.609375 138.460938 315.386719 152.238281 315.386719 169.230469 C 294.875 169.230469 274.359375 169.230469 253.847656 169.230469 Z M 253.847656 169.230469 "/>
<path style=" stroke:none;fill-rule:nonzero;fill:rgb(100%,55.686275%,53.333333%);fill-opacity:1;" d="M 169.230469 92.308594 L 169.230469 169.230469 L 246.152344 169.230469 L 246.152344 92.308594 Z M 169.230469 92.308594 "/>
<path style=" stroke:none;fill-rule:nonzero;fill:rgb(100%,55.686275%,53.333333%);fill-opacity:1;" d="M 169.230469 92.308594 L 169.230469 169.230469 L 246.152344 92.308594 Z M 169.230469 92.308594 "/>
<path style=" stroke:none;fill-rule:nonzero;fill:url(#radial37);" d="M 238.460938 92.308594 C 238.460938 109.300781 224.683594 123.078125 207.691406 123.078125 C 190.699219 123.078125 176.921875 109.300781 176.921875 92.308594 C 197.433594 92.308594 217.949219 92.308594 238.460938 92.308594 Z M 238.460938 92.308594 "/>
<path style=" stroke:none;fill-rule:nonzero;fill:rgb(83.921569%,18.823529%,0%);fill-opacity:1;" d="M 92.308594 92.308594 L 92.308594 169.230469 L 169.230469 169.230469 L 169.230469 92.308594 Z M 92.308594 92.308594 "/>
<path style=" stroke:none;fill-rule:nonzero;fill:rgb(83.921569%,18.823529%,0%);fill-opacity:1;" d="M 92.308594 92.308594 L 92.308594 169.230469 L 169.230469 92.308594 Z M 92.308594 92.308594 "/>
<path style=" stroke:none;fill-rule:nonzero;fill:url(#radial38);" d="M 161.539062 92.308594 C 161.539062 109.300781 147.761719 123.078125 130.769531 123.078125 C 113.777344 123.078125 100 109.300781 100 92.308594 C 120.511719 92.308594 141.027344 92.308594 161.539062 92.308594 Z M 161.539062 92.308594 "/>
<path style=" stroke:none;fill-rule:nonzero;fill:rgb(100%,0%,80.784314%);fill-opacity:1;" d="M 15.382812 92.308594 L 15.382812 169.230469 L 92.304688 169.230469 L 92.304688 92.308594 Z M 15.382812 92.308594 "/>
<path style=" stroke:none;fill-rule:nonzero;fill:rgb(48.627451%,0%,100%);fill-opacity:1;" d="M 15.382812 92.308594 L 15.382812 169.230469 L 92.304688 92.308594 Z M 15.382812 92.308594 "/>
<path style=" stroke:none;fill-rule:nonzero;fill:url(#radial39);" d="M 84.617188 92.308594 C 84.617188 109.300781 70.839844 123.078125 53.847656 123.078125 C 36.855469 123.078125 23.078125 109.300781 23.078125 92.308594 C 43.589844 92.308594 64.105469 92.308594 84.617188 92.308594 Z M 84.617188 92.308594 "/>
<path style=" stroke:none;fill-rule:nonzero;fill:rgb(99.215686%,70.588235%,38.431373%);fill-opacity:1;" d="M 707.691406 92.308594 L 707.691406 15.386719 L 784.613281 15.386719 L 784.613281 92.308594 Z M 707.691406 92.308594 "/>
<path style=" stroke:none;fill-rule:nonzero;fill:rgb(80%,92.156863%,77.254902%);fill-opacity:1;" d="M 707.691406 92.308594 L 707.691406 15.386719 L 784.613281 92.308594 Z M 707.691406 92.308594 "/>
<path style=" stroke:none;fill-rule:nonzero;fill:url(#radial40);" d="M 776.921875 92.308594 C 776.921875 75.316406 763.144531 61.539062 746.152344 61.539062 C 729.160156 61.539062 715.382812 75.316406 715.382812 92.308594 C 735.894531 92.308594 756.410156 92.308594 776.921875 92.308594 Z M 776.921875 92.308594 "/>
<path style=" stroke:none;fill-rule:nonzero;fill:rgb(100%,80.784314%,67.843137%);fill-opacity:1;" d="M 707.691406 92.308594 L 707.691406 15.386719 L 630.769531 15.386719 L 630.769531 92.308594 Z M 707.691406 92.308594 "/>
<path style=" stroke:none;fill-rule:nonzero;fill:rgb(41.568627%,71.372549%,77.647059%);fill-opacity:1;" d="M 707.691406 92.308594 L 707.691406 15.386719 L 630.769531 92.308594 Z M 707.691406 92.308594 "/>
<path style=" stroke:none;fill-rule:nonzero;fill:url(#radial41);" d="M 638.460938 92.308594 C 638.460938 75.316406 652.238281 61.539062 669.230469 61.539062 C 686.222656 61.539062 700 75.316406 700 92.308594 C 679.488281 92.308594 658.972656 92.308594 638.460938 92.308594 Z M 638.460938 92.308594 "/>
<path style=" stroke:none;fill-rule:nonzero;fill:rgb(96.078431%,39.215686%,34.509804%);fill-opacity:1;" d="M 630.769531 92.308594 L 630.769531 15.386719 L 553.847656 15.386719 L 553.847656 92.308594 Z M 630.769531 92.308594 "/>
<path style=" stroke:none;fill-rule:nonzero;fill:rgb(16.862745%,7.45098%,12.941176%);fill-opacity:1;" d="M 630.769531 92.308594 L 630.769531 15.386719 L 553.847656 92.308594 Z M 630.769531 92.308594 "/>
<path style=" stroke:none;fill-rule:nonzero;fill:url(#radial42);" d="M 561.539062 92.308594 C 561.539062 75.316406 575.316406 61.539062 592.308594 61.539062 C 609.300781 61.539062 623.078125 75.316406 623.078125 92.308594 C 602.566406 92.308594 582.050781 92.308594 561.539062 92.308594 Z M 561.539062 92.308594 "/>
<path style=" stroke:none;fill-rule:nonzero;fill:rgb(100%,7.45098%,7.45098%);fill-opacity:1;" d="M 476.921875 15.382812 L 476.921875 92.304688 L 553.84375 92.304688 L 553.84375 15.382812 Z M 476.921875 15.382812 "/>
<path style=" stroke:none;fill-rule:nonzero;fill:rgb(85.490196%,85.490196%,85.490196%);fill-opacity:1;" d="M 476.921875 15.382812 L 476.921875 92.304688 L 553.84375 15.382812 Z M 476.921875 15.382812 "/>
<path style=" stroke:none;fill-rule:nonzero;fill:url(#radial43);" d="M 546.152344 15.382812 C 546.152344 32.375 532.375 46.152344 515.382812 46.152344 C 498.390625 46.152344 484.613281 32.375 484.613281 15.382812 C 505.125 15.382812 525.640625 15.382812 546.152344 15.382812 Z M 546.152344 15.382812 "/>
<path style=" stroke:none;fill-rule:nonzero;fill:rgb(34.901961%,100%,45.882353%);fill-opacity:1;" d="M 476.921875 92.308594 L 476.921875 15.386719 L 400 15.386719 L 400 92.308594 Z M 476.921875 92.308594 "/>
<path style=" stroke:none;fill-rule:nonzero;fill:rgb(40%,100%,80.392157%);fill-opacity:1;" d="M 476.921875 92.308594 L 476.921875 15.386719 L 400 92.308594 Z M 476.921875 92.308594 "/>
<path style=" stroke:none;fill-rule:nonzero;fill:url(#radial44);" d="M 407.691406 92.308594 C 407.691406 75.316406 421.46875 61.539062 438.460938 61.539062 C 455.453125 61.539062 469.230469 75.316406 469.230469 92.308594 C 448.71875 92.308594 428.203125 92.308594 407.691406 92.308594 Z M 407.691406 92.308594 "/>
<path style=" stroke:none;fill-rule:nonzero;fill:rgb(100%,81.176471%,100%);fill-opacity:1;" d="M 400 92.308594 L 400 15.386719 L 323.078125 15.386719 L 323.078125 92.308594 Z M 400 92.308594 "/>
<path style=" stroke:none;fill-rule:nonzero;fill:rgb(100%,84.705882%,48.235294%);fill-opacity:1;" d="M 400 92.308594 L 400 15.386719 L 323.078125 92.308594 Z M 400 92.308594 "/>
<path style=" stroke:none;fill-rule:nonzero;fill:url(#radial45);" d="M 330.769531 92.308594 C 330.769531 75.316406 344.546875 61.539062 361.539062 61.539062 C 378.53125 61.539062 392.308594 75.316406 392.308594 92.308594 C 371.796875 92.308594 351.28125 92.308594 330.769531 92.308594 Z M 330.769531 92.308594 "/>
<path style=" stroke:none;fill-rule:nonzero;fill:rgb(100%,74.117647%,0%);fill-opacity:1;" d="M 246.152344 92.308594 L 246.152344 15.386719 L 323.074219 15.386719 L 323.074219 92.308594 Z M 246.152344 92.308594 "/>
<path style=" stroke:none;fill-rule:nonzero;fill:rgb(80.784314%,9.019608%,9.019608%);fill-opacity:1;" d="M 246.152344 92.308594 L 246.152344 15.386719 L 323.074219 92.308594 Z M 246.152344 92.308594 "/>
<path style=" stroke:none;fill-rule:nonzero;fill:url(#radial46);" d="M 315.382812 92.308594 C 315.382812 75.316406 301.605469 61.539062 284.613281 61.539062 C 267.621094 61.539062 253.84375 75.316406 253.84375 92.308594 C 274.355469 92.308594 294.871094 92.308594 315.382812 92.308594 Z M 315.382812 92.308594 "/>
<path style=" stroke:none;fill-rule:nonzero;fill:rgb(98.431373%,76.862745%,61.960784%);fill-opacity:1;" d="M 246.152344 92.308594 L 246.152344 15.386719 L 169.230469 15.386719 L 169.230469 92.308594 Z M 246.152344 92.308594 "/>
<path style=" stroke:none;fill-rule:nonzero;fill:rgb(39.215686%,82.352941%,96.470588%);fill-opacity:1;" d="M 246.152344 92.308594 L 246.152344 15.386719 L 169.230469 92.308594 Z M 246.152344 92.308594 "/>
<path style=" stroke:none;fill-rule:nonzero;fill:url(#radial47);" d="M 176.921875 92.308594 C 176.921875 75.316406 190.699219 61.539062 207.691406 61.539062 C 224.683594 61.539062 238.460938 75.316406 238.460938 92.308594 C 217.949219 92.308594 197.433594 92.308594 176.921875 92.308594 Z M 176.921875 92.308594 "/>
<path style=" stroke:none;fill-rule:nonzero;fill:rgb(76.078431%,0%,82.745098%);fill-opacity:1;" d="M 169.230469 15.382812 L 169.230469 92.304688 L 92.308594 92.304688 L 92.308594 15.382812 Z M 169.230469 15.382812 "/>
<path style=" stroke:none;fill-rule:nonzero;fill:rgb(0%,83.137255%,72.156863%);fill-opacity:1;" d="M 169.230469 15.382812 L 169.230469 92.304688 L 92.308594 15.382812 Z M 169.230469 15.382812 "/>
<path style=" stroke:none;fill-rule:nonzero;fill:url(#radial48);" d="M 100 15.382812 C 100 32.375 113.777344 46.152344 130.769531 46.152344 C 147.761719 46.152344 161.539062 32.375 161.539062 15.382812 C 141.027344 15.382812 120.511719 15.382812 100 15.382812 Z M 100 15.382812 "/>
<path style=" stroke:none;fill-rule:nonzero;fill:rgb(100%,84.705882%,48.235294%);fill-opacity:1;" d="M 92.308594 15.382812 L 92.308594 92.304688 L 15.386719 92.304688 L 15.386719 15.382812 Z M 92.308594 15.382812 "/>
<path style=" stroke:none;fill-rule:nonzero;fill:rgb(85.490196%,62.745098%,95.686275%);fill-opacity:1;" d="M 92.308594 15.382812 L 92.308594 92.304688 L 15.386719 15.382812 Z M 92.308594 15.382812 "/>
<path style=" stroke:none;fill-rule:nonzero;fill:url(#radial49);" d="M 23.078125 15.382812 C 23.078125 32.375 36.855469 46.152344 53.847656 46.152344 C 70.839844 46.152344 84.617188 32.375 84.617188 15.382812 C 64.105469 15.382812 43.589844 15.382812 23.078125 15.382812 Z M 23.078125 15.382812 "/>
</g>
</svg>
