<?xml version="1.0" encoding="UTF-8"?>
<svg xmlns="http://www.w3.org/2000/svg" xmlns:xlink="http://www.w3.org/1999/xlink" width="800pt" height="415.384615pt" viewBox="0 0 800 415.384615" version="1.1">
<g id="surface1">
<path style=" stroke:none;fill-rule:nonzero;fill:rgb(21.568627%,30.196078%,48.627451%);fill-opacity:1;" d="M 784.617188 400 L 784.617188 323.078125 L 707.695312 323.078125 L 707.695312 400 Z M 784.617188 400 "/>
<path style=" stroke:none;fill-rule:nonzero;fill:rgb(21.568627%,30.196078%,48.627451%);fill-opacity:1;" d="M 784.617188 400 L 784.617188 323.078125 L 707.695312 400 Z M 784.617188 400 "/>
<path style=" stroke:none;fill-rule:nonzero;fill:rgb(21.568627%,30.196078%,48.627451%);fill-opacity:1;" d="M 715.382812 361.539062 C 715.382812 344.546875 729.160156 330.769531 746.152344 330.769531 C 763.144531 330.769531 776.921875 344.546875 776.921875 361.539062 C 776.921875 378.53125 763.144531 392.308594 746.152344 392.308594 C 729.160156 392.308594 715.382812 378.53125 715.382812 361.539062 Z M 715.382812 361.539062 "/>
<path style=" stroke:none;fill-rule:nonzero;fill:rgb(100%,34.901961%,56.078431%);fill-opacity:1;" d="M 707.691406 323.078125 L 707.691406 400 L 630.769531 400 L 630.769531 323.078125 Z M 707.691406 323.078125 "/>
<path style=" stroke:none;fill-rule:nonzero;fill:rgb(100%,84.313725%,0%);fill-opacity:1;" d="M 707.691406 323.078125 L 707.691406 400 L 630.769531 323.078125 Z M 707.691406 323.078125 "/>
<path style=" stroke:none;fill-rule:nonzero;fill:rgb(8.235294%,69.803922%,82.745098%);fill-opacity:1;" d="M 638.460938 361.539062 C 638.460938 378.53125 652.238281 392.308594 669.230469 392.308594 C 686.222656 392.308594 700 378.53125 700 361.539062 C 700 344.546875 686.222656 330.769531 669.230469 330.769531 C 652.238281 330.769531 638.460938 344.546875 638.460938 361.539062 Z M 638.460938 361.539062 "/>
<path style=" stroke:none;fill-rule:nonzero;fill:rgb(8.235294%,69.803922%,82.745098%);fill-opacity:1;" d="M 630.769531 323.078125 L 630.769531 400 L 553.847656 400 L 553.847656 323.078125 Z M 630.769531 323.078125 "/>
<path style=" stroke:none;fill-rule:nonzero;fill:rgb(13.72549%,43.137255%,58.823529%);fill-opacity:1;" d="M 630.769531 323.078125 L 630.769531 400 L 553.847656 323.078125 Z M 630.769531 323.078125 "/>
<path style=" stroke:none;fill-rule:nonzero;fill:rgb(35.294118%,73.72549%,80%);fill-opacity:1;" d="M 561.539062 361.539062 C 561.539062 378.53125 575.316406 392.308594 592.308594 392.308594 C 609.300781 392.308594 623.078125 378.53125 623.078125 361.539062 C 623.078125 344.546875 609.300781 330.769531 592.308594 330.769531 C 575.316406 330.769531 561.539062 344.546875 561.539062 361.539062 Z M 561.539062 361.539062 "/>
<path style=" stroke:none;fill-rule:nonzero;fill:rgb(12.156863%,49.411765%,12.941176%);fill-opacity:1;" d="M 553.847656 400 L 553.847656 323.078125 L 476.925781 323.078125 L 476.925781 400 Z M 553.847656 400 "/>
<path style=" stroke:none;fill-rule:nonzero;fill:rgb(45.098039%,18.039216%,59.607843%);fill-opacity:1;" d="M 553.847656 400 L 553.847656 323.078125 L 476.925781 400 Z M 553.847656 400 "/>
<path style=" stroke:none;fill-rule:nonzero;fill:rgb(80.784314%,9.019608%,9.019608%);fill-opacity:1;" d="M 484.617188 361.539062 C 484.617188 344.546875 498.394531 330.769531 515.386719 330.769531 C 532.378906 330.769531 546.15625 344.546875 546.15625 361.539062 C 546.15625 378.53125 532.378906 392.308594 515.386719 392.308594 C 498.394531 392.308594 484.617188 378.53125 484.617188 361.539062 Z M 484.617188 361.539062 "/>
<path style=" stroke:none;fill-rule:nonzero;fill:rgb(43.529412%,11.372549%,42.352941%);fill-opacity:1;" d="M 400 323.078125 L 400 400 L 476.921875 400 L 476.921875 323.078125 Z M 400 323.078125 "/>
<path style=" stroke:none;fill-rule:nonzero;fill:rgb(90.588235%,43.137255%,81.568627%);fill-opacity:1;" d="M 400 323.078125 L 400 400 L 476.921875 323.078125 Z M 400 323.078125 "/>
<path style=" stroke:none;fill-rule:nonzero;fill:rgb(43.529412%,11.372549%,42.352941%);fill-opacity:1;" d="M 469.230469 361.539062 C 469.230469 378.53125 455.453125 392.308594 438.460938 392.308594 C 421.46875 392.308594 407.691406 378.53125 407.691406 361.539062 C 407.691406 344.546875 421.46875 330.769531 438.460938 330.769531 C 455.453125 330.769531 469.230469 344.546875 469.230469 361.539062 Z M 469.230469 361.539062 "/>
<path style=" stroke:none;fill-rule:nonzero;fill:rgb(92.54902%,60.392157%,62.352941%);fill-opacity:1;" d="M 400 323.078125 L 400 400 L 323.078125 400 L 323.078125 323.078125 Z M 400 323.078125 "/>
<path style=" stroke:none;fill-rule:nonzero;fill:rgb(98.431373%,74.509804%,58.431373%);fill-opacity:1;" d="M 400 323.078125 L 400 400 L 323.078125 323.078125 Z M 400 323.078125 "/>
<path style=" stroke:none;fill-rule:nonzero;fill:rgb(100%,98.431373%,57.254902%);fill-opacity:1;" d="M 330.769531 361.539062 C 330.769531 378.53125 344.546875 392.308594 361.539062 392.308594 C 378.53125 392.308594 392.308594 378.53125 392.308594 361.539062 C 392.308594 344.546875 378.53125 330.769531 361.539062 330.769531 C 344.546875 330.769531 330.769531 344.546875 330.769531 361.539062 Z M 330.769531 361.539062 "/>
<path style=" stroke:none;fill-rule:nonzero;fill:rgb(3.921569%,17.647059%,46.27451%);fill-opacity:1;" d="M 323.078125 400 L 323.078125 323.078125 L 246.15625 323.078125 L 246.15625 400 Z M 323.078125 400 "/>
<path style=" stroke:none;fill-rule:nonzero;fill:rgb(85.490196%,87.058824%,91.764706%);fill-opacity:1;" d="M 323.078125 400 L 323.078125 323.078125 L 246.15625 400 Z M 323.078125 400 "/>
<path style=" stroke:none;fill-rule:nonzero;fill:rgb(3.921569%,17.647059%,46.27451%);fill-opacity:1;" d="M 253.847656 361.539062 C 253.847656 344.546875 267.625 330.769531 284.617188 330.769531 C 301.609375 330.769531 315.386719 344.546875 315.386719 361.539062 C 315.386719 378.53125 301.609375 392.308594 284.617188 392.308594 C 267.625 392.308594 253.847656 378.53125 253.847656 361.539062 Z M 253.847656 361.539062 "/>
<path style=" stroke:none;fill-rule:nonzero;fill:rgb(99.215686%,38.431373%,36.862745%);fill-opacity:1;" d="M 169.230469 400 L 169.230469 323.078125 L 246.152344 323.078125 L 246.152344 400 Z M 169.230469 400 "/>
<path style=" stroke:none;fill-rule:nonzero;fill:rgb(56.078431%,49.019608%,92.941176%);fill-opacity:1;" d="M 169.230469 400 L 169.230469 323.078125 L 246.152344 400 Z M 169.230469 400 "/>
<path style=" stroke:none;fill-rule:nonzero;fill:rgb(21.568627%,27.45098%,28.627451%);fill-opacity:1;" d="M 238.460938 361.539062 C 238.460938 344.546875 224.683594 330.769531 207.691406 330.769531 C 190.699219 330.769531 176.921875 344.546875 176.921875 361.539062 C 176.921875 378.53125 190.699219 392.308594 207.691406 392.308594 C 224.683594 392.308594 238.460938 378.53125 238.460938 361.539062 Z M 238.460938 361.539062 "/>
<path style=" stroke:none;fill-rule:nonzero;fill:rgb(85.098039%,67.45098%,28.627451%);fill-opacity:1;" d="M 92.308594 323.078125 L 92.308594 400 L 169.230469 400 L 169.230469 323.078125 Z M 92.308594 323.078125 "/>
<path style=" stroke:none;fill-rule:nonzero;fill:rgb(60.392157%,33.333333%,85.098039%);fill-opacity:1;" d="M 92.308594 323.078125 L 92.308594 400 L 169.230469 323.078125 Z M 92.308594 323.078125 "/>
<path style=" stroke:none;fill-rule:nonzero;fill:rgb(60.392157%,33.333333%,85.098039%);fill-opacity:1;" d="M 161.539062 361.539062 C 161.539062 378.53125 147.761719 392.308594 130.769531 392.308594 C 113.777344 392.308594 100 378.53125 100 361.539062 C 100 344.546875 113.777344 330.769531 130.769531 330.769531 C 147.761719 330.769531 161.539062 344.546875 161.539062 361.539062 Z M 161.539062 361.539062 "/>
<path style=" stroke:none;fill-rule:nonzero;fill:rgb(100%,81.176471%,100%);fill-opacity:1;" d="M 92.308594 400 L 92.308594 323.078125 L 15.386719 323.078125 L 15.386719 400 Z M 92.308594 400 "/>
<path style=" stroke:none;fill-rule:nonzero;fill:rgb(100%,84.705882%,48.235294%);fill-opacity:1;" d="M 92.308594 400 L 92.308594 323.078125 L 15.386719 400 Z M 92.308594 400 "/>
<path style=" stroke:none;fill-rule:nonzero;fill:rgb(82.745098%,100%,97.647059%);fill-opacity:1;" d="M 23.078125 361.539062 C 23.078125 344.546875 36.855469 330.769531 53.847656 330.769531 C 70.839844 330.769531 84.617188 344.546875 84.617188 361.539062 C 84.617188 378.53125 70.839844 392.308594 53.847656 392.308594 C 36.855469 392.308594 23.078125 378.53125 23.078125 361.539062 Z M 23.078125 361.539062 "/>
<path style=" stroke:none;fill-rule:nonzero;fill:rgb(92.54902%,93.333333%,23.529412%);fill-opacity:1;" d="M 707.691406 246.152344 L 707.691406 323.074219 L 784.613281 323.074219 L 784.613281 246.152344 Z M 707.691406 246.152344 "/>
<path style=" stroke:none;fill-rule:nonzero;fill:rgb(37.647059%,68.627451%,38.431373%);fill-opacity:1;" d="M 707.691406 246.152344 L 707.691406 323.074219 L 784.613281 246.152344 Z M 707.691406 246.152344 "/>
<path style=" stroke:none;fill-rule:nonzero;fill:rgb(92.54902%,93.333333%,23.529412%);fill-opacity:1;" d="M 776.921875 284.617188 C 776.921875 301.609375 763.144531 315.386719 746.152344 315.386719 C 729.160156 315.386719 715.382812 301.609375 715.382812 284.617188 C 715.382812 267.625 729.160156 253.847656 746.152344 253.847656 C 763.144531 253.847656 776.921875 267.625 776.921875 284.617188 Z M 776.921875 284.617188 "/>
<path style=" stroke:none;fill-rule:nonzero;fill:rgb(90.588235%,43.137255%,81.568627%);fill-opacity:1;" d="M 630.769531 323.078125 L 630.769531 246.15625 L 707.691406 246.15625 L 707.691406 323.078125 Z M 630.769531 323.078125 "/>
<path style=" stroke:none;fill-rule:nonzero;fill:rgb(66.27451%,11.764706%,58.431373%);fill-opacity:1;" d="M 630.769531 323.078125 L 630.769531 246.15625 L 707.691406 323.078125 Z M 630.769531 323.078125 "/>
<path style=" stroke:none;fill-rule:nonzero;fill:rgb(90.588235%,43.137255%,81.568627%);fill-opacity:1;" d="M 700 284.617188 C 700 267.625 686.222656 253.847656 669.230469 253.847656 C 652.238281 253.847656 638.460938 267.625 638.460938 284.617188 C 638.460938 301.609375 652.238281 315.386719 669.230469 315.386719 C 686.222656 315.386719 700 301.609375 700 284.617188 Z M 700 284.617188 "/>
<path style=" stroke:none;fill-rule:nonzero;fill:rgb(94.901961%,67.45098%,43.529412%);fill-opacity:1;" d="M 553.847656 246.152344 L 553.847656 323.074219 L 630.769531 323.074219 L 630.769531 246.152344 Z M 553.847656 246.152344 "/>
<path style=" stroke:none;fill-rule:nonzero;fill:rgb(96.078431%,39.215686%,34.509804%);fill-opacity:1;" d="M 553.847656 246.152344 L 553.847656 323.074219 L 630.769531 246.152344 Z M 553.847656 246.152344 "/>
<path style=" stroke:none;fill-rule:nonzero;fill:rgb(94.901961%,67.45098%,43.529412%);fill-opacity:1;" d="M 623.078125 284.617188 C 623.078125 301.609375 609.300781 315.386719 592.308594 315.386719 C 575.316406 315.386719 561.539062 301.609375 561.539062 284.617188 C 561.539062 267.625 575.316406 253.847656 592.308594 253.847656 C 609.300781 253.847656 623.078125 267.625 623.078125 284.617188 Z M 623.078125 284.617188 "/>
<path style=" stroke:none;fill-rule:nonzero;fill:rgb(96.470588%,51.764706%,10.588235%);fill-opacity:1;" d="M 476.921875 246.152344 L 476.921875 323.074219 L 553.84375 323.074219 L 553.84375 246.152344 Z M 476.921875 246.152344 "/>
<path style=" stroke:none;fill-rule:nonzero;fill:rgb(96.470588%,51.764706%,10.588235%);fill-opacity:1;" d="M 476.921875 246.152344 L 476.921875 323.074219 L 553.84375 246.152344 Z M 476.921875 246.152344 "/>
<path style=" stroke:none;fill-rule:nonzero;fill:rgb(98.823529%,91.764706%,3.137255%);fill-opacity:1;" d="M 546.152344 284.617188 C 546.152344 301.609375 532.375 315.386719 515.382812 315.386719 C 498.390625 315.386719 484.613281 301.609375 484.613281 284.617188 C 484.613281 267.625 498.390625 253.847656 515.382812 253.847656 C 532.375 253.847656 546.152344 267.625 546.152344 284.617188 Z M 546.152344 284.617188 "/>
<path style=" stroke:none;fill-rule:nonzero;fill:rgb(98.431373%,74.509804%,58.431373%);fill-opacity:1;" d="M 400 246.152344 L 400 323.074219 L 476.921875 323.074219 L 476.921875 246.152344 Z M 400 246.152344 "/>
<path style=" stroke:none;fill-rule:nonzero;fill:rgb(100%,98.823529%,67.45098%);fill-opacity:1;" d="M 400 246.152344 L 400 323.074219 L 476.921875 246.152344 Z M 400 246.152344 "/>
<path style=" stroke:none;fill-rule:nonzero;fill:rgb(81.568627%,56.470588%,95.686275%);fill-opacity:1;" d="M 469.230469 284.617188 C 469.230469 301.609375 455.453125 315.386719 438.460938 315.386719 C 421.46875 315.386719 407.691406 301.609375 407.691406 284.617188 C 407.691406 267.625 421.46875 253.847656 438.460938 253.847656 C 455.453125 253.847656 469.230469 267.625 469.230469 284.617188 Z M 469.230469 284.617188 "/>
<path style=" stroke:none;fill-rule:nonzero;fill:rgb(50.196078%,0%,50.196078%);fill-opacity:1;" d="M 323.078125 246.152344 L 323.078125 323.074219 L 400 323.074219 L 400 246.152344 Z M 323.078125 246.152344 "/>
<path style=" stroke:none;fill-rule:nonzero;fill:rgb(100%,96.470588%,0%);fill-opacity:1;" d="M 323.078125 246.152344 L 323.078125 323.074219 L 400 246.152344 Z M 323.078125 246.152344 "/>
<path style=" stroke:none;fill-rule:nonzero;fill:rgb(100%,96.470588%,0%);fill-opacity:1;" d="M 392.308594 284.617188 C 392.308594 301.609375 378.53125 315.386719 361.539062 315.386719 C 344.546875 315.386719 330.769531 301.609375 330.769531 284.617188 C 330.769531 267.625 344.546875 253.847656 361.539062 253.847656 C 378.53125 253.847656 392.308594 267.625 392.308594 284.617188 Z M 392.308594 284.617188 "/>
<path style=" stroke:none;fill-rule:nonzero;fill:rgb(58.431373%,11.764706%,74.901961%);fill-opacity:1;" d="M 323.078125 323.078125 L 323.078125 246.15625 L 246.15625 246.15625 L 246.15625 323.078125 Z M 323.078125 323.078125 "/>
<path style=" stroke:none;fill-rule:nonzero;fill:rgb(40.392157%,38.039216%,90.588235%);fill-opacity:1;" d="M 323.078125 323.078125 L 323.078125 246.15625 L 246.15625 323.078125 Z M 323.078125 323.078125 "/>
<path style=" stroke:none;fill-rule:nonzero;fill:rgb(98.431373%,76.862745%,61.960784%);fill-opacity:1;" d="M 253.847656 284.617188 C 253.847656 267.625 267.625 253.847656 284.617188 253.847656 C 301.609375 253.847656 315.386719 267.625 315.386719 284.617188 C 315.386719 301.609375 301.609375 315.386719 284.617188 315.386719 C 267.625 315.386719 253.847656 301.609375 253.847656 284.617188 Z M 253.847656 284.617188 "/>
<path style=" stroke:none;fill-rule:nonzero;fill:rgb(95.686275%,60.784314%,89.019608%);fill-opacity:1;" d="M 169.230469 246.152344 L 169.230469 323.074219 L 246.152344 323.074219 L 246.152344 246.152344 Z M 169.230469 246.152344 "/>
<path style=" stroke:none;fill-rule:nonzero;fill:rgb(100%,81.568627%,90.980392%);fill-opacity:1;" d="M 169.230469 246.152344 L 169.230469 323.074219 L 246.152344 246.152344 Z M 169.230469 246.152344 "/>
<path style=" stroke:none;fill-rule:nonzero;fill:rgb(90.588235%,43.137255%,81.568627%);fill-opacity:1;" d="M 238.460938 284.617188 C 238.460938 301.609375 224.683594 315.386719 207.691406 315.386719 C 190.699219 315.386719 176.921875 301.609375 176.921875 284.617188 C 176.921875 267.625 190.699219 253.847656 207.691406 253.847656 C 224.683594 253.847656 238.460938 267.625 238.460938 284.617188 Z M 238.460938 284.617188 "/>
<path style=" stroke:none;fill-rule:nonzero;fill:rgb(100%,60.784314%,21.176471%);fill-opacity:1;" d="M 92.308594 246.152344 L 92.308594 323.074219 L 169.230469 323.074219 L 169.230469 246.152344 Z M 92.308594 246.152344 "/>
<path style=" stroke:none;fill-rule:nonzero;fill:rgb(100%,60.784314%,21.176471%);fill-opacity:1;" d="M 92.308594 246.152344 L 92.308594 323.074219 L 169.230469 246.152344 Z M 92.308594 246.152344 "/>
<path style=" stroke:none;fill-rule:nonzero;fill:rgb(39.215686%,92.54902%,48.235294%);fill-opacity:1;" d="M 161.539062 284.617188 C 161.539062 301.609375 147.761719 315.386719 130.769531 315.386719 C 113.777344 315.386719 100 301.609375 100 284.617188 C 100 267.625 113.777344 253.847656 130.769531 253.847656 C 147.761719 253.847656 161.539062 267.625 161.539062 284.617188 Z M 161.539062 284.617188 "/>
<path style=" stroke:none;fill-rule:nonzero;fill:rgb(21.176471%,78.039216%,50.588235%);fill-opacity:1;" d="M 15.382812 323.078125 L 15.382812 246.15625 L 92.304688 246.15625 L 92.304688 323.078125 Z M 15.382812 323.078125 "/>
<path style=" stroke:none;fill-rule:nonzero;fill:rgb(23.529412%,68.627451%,78.039216%);fill-opacity:1;" d="M 15.382812 323.078125 L 15.382812 246.15625 L 92.304688 323.078125 Z M 15.382812 323.078125 "/>
<path style=" stroke:none;fill-rule:nonzero;fill:rgb(31.372549%,33.72549%,66.27451%);fill-opacity:1;" d="M 84.617188 284.617188 C 84.617188 267.625 70.839844 253.847656 53.847656 253.847656 C 36.855469 253.847656 23.078125 267.625 23.078125 284.617188 C 23.078125 301.609375 36.855469 315.386719 53.847656 315.386719 C 70.839844 315.386719 84.617188 301.609375 84.617188 284.617188 Z M 84.617188 284.617188 "/>
<path style=" stroke:none;fill-rule:nonzero;fill:rgb(27.45098%,92.941176%,78.431373%);fill-opacity:1;" d="M 784.617188 246.152344 L 784.617188 169.230469 L 707.695312 169.230469 L 707.695312 246.152344 Z M 784.617188 246.152344 "/>
<path style=" stroke:none;fill-rule:nonzero;fill:rgb(27.45098%,92.941176%,78.431373%);fill-opacity:1;" d="M 784.617188 246.152344 L 784.617188 169.230469 L 707.695312 246.152344 Z M 784.617188 246.152344 "/>
<path style=" stroke:none;fill-rule:nonzero;fill:rgb(98.431373%,70.196078%,35.294118%);fill-opacity:1;" d="M 715.382812 207.691406 C 715.382812 190.699219 729.160156 176.921875 746.152344 176.921875 C 763.144531 176.921875 776.921875 190.699219 776.921875 207.691406 C 776.921875 224.683594 763.144531 238.460938 746.152344 238.460938 C 729.160156 238.460938 715.382812 224.683594 715.382812 207.691406 Z M 715.382812 207.691406 "/>
<path style=" stroke:none;fill-rule:nonzero;fill:rgb(74.509804%,72.941176%,85.490196%);fill-opacity:1;" d="M 707.691406 246.152344 L 707.691406 169.230469 L 630.769531 169.230469 L 630.769531 246.152344 Z M 707.691406 246.152344 "/>
<path style=" stroke:none;fill-rule:nonzero;fill:rgb(73.72549%,50.196078%,74.117647%);fill-opacity:1;" d="M 707.691406 246.152344 L 707.691406 169.230469 L 630.769531 246.152344 Z M 707.691406 246.152344 "/>
<path style=" stroke:none;fill-rule:nonzero;fill:rgb(98.823529%,80.392157%,89.803922%);fill-opacity:1;" d="M 638.460938 207.691406 C 638.460938 190.699219 652.238281 176.921875 669.230469 176.921875 C 686.222656 176.921875 700 190.699219 700 207.691406 C 700 224.683594 686.222656 238.460938 669.230469 238.460938 C 652.238281 238.460938 638.460938 224.683594 638.460938 207.691406 Z M 638.460938 207.691406 "/>
<path style=" stroke:none;fill-rule:nonzero;fill:rgb(100%,0%,76.078431%);fill-opacity:1;" d="M 630.769531 169.230469 L 630.769531 246.152344 L 553.847656 246.152344 L 553.847656 169.230469 Z M 630.769531 169.230469 "/>
<path style=" stroke:none;fill-rule:nonzero;fill:rgb(100%,100%,100%);fill-opacity:1;" d="M 630.769531 169.230469 L 630.769531 246.152344 L 553.847656 169.230469 Z M 630.769531 169.230469 "/>
<path style=" stroke:none;fill-rule:nonzero;fill:rgb(100%,100%,100%);fill-opacity:1;" d="M 561.539062 207.691406 C 561.539062 224.683594 575.316406 238.460938 592.308594 238.460938 C 609.300781 238.460938 623.078125 224.683594 623.078125 207.691406 C 623.078125 190.699219 609.300781 176.921875 592.308594 176.921875 C 575.316406 176.921875 561.539062 190.699219 561.539062 207.691406 Z M 561.539062 207.691406 "/>
<path style=" stroke:none;fill-rule:nonzero;fill:rgb(100%,98.431373%,57.254902%);fill-opacity:1;" d="M 553.847656 246.152344 L 553.847656 169.230469 L 476.925781 169.230469 L 476.925781 246.152344 Z M 553.847656 246.152344 "/>
<path style=" stroke:none;fill-rule:nonzero;fill:rgb(100%,98.823529%,67.45098%);fill-opacity:1;" d="M 553.847656 246.152344 L 553.847656 169.230469 L 476.925781 246.152344 Z M 553.847656 246.152344 "/>
<path style=" stroke:none;fill-rule:nonzero;fill:rgb(100%,98.431373%,57.254902%);fill-opacity:1;" d="M 484.617188 207.691406 C 484.617188 190.699219 498.394531 176.921875 515.386719 176.921875 C 532.378906 176.921875 546.15625 190.699219 546.15625 207.691406 C 546.15625 224.683594 532.378906 238.460938 515.386719 238.460938 C 498.394531 238.460938 484.617188 224.683594 484.617188 207.691406 Z M 484.617188 207.691406 "/>
<path style=" stroke:none;fill-rule:nonzero;fill:rgb(100%,78.823529%,0%);fill-opacity:1;" d="M 476.921875 246.152344 L 476.921875 169.230469 L 400 169.230469 L 400 246.152344 Z M 476.921875 246.152344 "/>
<path style=" stroke:none;fill-rule:nonzero;fill:rgb(0%,75.686275%,100%);fill-opacity:1;" d="M 476.921875 246.152344 L 476.921875 169.230469 L 400 246.152344 Z M 476.921875 246.152344 "/>
<path style=" stroke:none;fill-rule:nonzero;fill:rgb(100%,1.568627%,0%);fill-opacity:1;" d="M 407.691406 207.691406 C 407.691406 190.699219 421.46875 176.921875 438.460938 176.921875 C 455.453125 176.921875 469.230469 190.699219 469.230469 207.691406 C 469.230469 224.683594 455.453125 238.460938 438.460938 238.460938 C 421.46875 238.460938 407.691406 224.683594 407.691406 207.691406 Z M 407.691406 207.691406 "/>
<path style=" stroke:none;fill-rule:nonzero;fill:rgb(70.588235%,23.529412%,49.411765%);fill-opacity:1;" d="M 400 246.152344 L 400 169.230469 L 323.078125 169.230469 L 323.078125 246.152344 Z M 400 246.152344 "/>
<path style=" stroke:none;fill-rule:nonzero;fill:rgb(85.490196%,20%,20%);fill-opacity:1;" d="M 400 246.152344 L 400 169.230469 L 323.078125 246.152344 Z M 400 246.152344 "/>
<path style=" stroke:none;fill-rule:nonzero;fill:rgb(70.588235%,23.529412%,49.411765%);fill-opacity:1;" d="M 330.769531 207.691406 C 330.769531 190.699219 344.546875 176.921875 361.539062 176.921875 C 378.53125 176.921875 392.308594 190.699219 392.308594 207.691406 C 392.308594 224.683594 378.53125 238.460938 361.539062 238.460938 C 344.546875 238.460938 330.769531 224.683594 330.769531 207.691406 Z M 330.769531 207.691406 "/>
<path style=" stroke:none;fill-rule:nonzero;fill:rgb(100%,30.196078%,30.196078%);fill-opacity:1;" d="M 323.078125 169.230469 L 323.078125 246.152344 L 246.15625 246.152344 L 246.15625 169.230469 Z M 323.078125 169.230469 "/>
<path style=" stroke:none;fill-rule:nonzero;fill:rgb(44.705882%,80%,100%);fill-opacity:1;" d="M 323.078125 169.230469 L 323.078125 246.152344 L 246.15625 169.230469 Z M 323.078125 169.230469 "/>
<path style=" stroke:none;fill-rule:nonzero;fill:rgb(32.941176%,100%,73.333333%);fill-opacity:1;" d="M 253.847656 207.691406 C 253.847656 224.683594 267.625 238.460938 284.617188 238.460938 C 301.609375 238.460938 315.386719 224.683594 315.386719 207.691406 C 315.386719 190.699219 301.609375 176.921875 284.617188 176.921875 C 267.625 176.921875 253.847656 190.699219 253.847656 207.691406 Z M 253.847656 207.691406 "/>
<path style=" stroke:none;fill-rule:nonzero;fill:rgb(95.294118%,52.941176%,18.431373%);fill-opacity:1;" d="M 246.152344 169.230469 L 246.152344 246.152344 L 169.230469 246.152344 L 169.230469 169.230469 Z M 246.152344 169.230469 "/>
<path style=" stroke:none;fill-rule:nonzero;fill:rgb(95.294118%,52.941176%,18.431373%);fill-opacity:1;" d="M 246.152344 169.230469 L 246.152344 246.152344 L 169.230469 169.230469 Z M 246.152344 169.230469 "/>
<path style=" stroke:none;fill-rule:nonzero;fill:rgb(8.235294%,69.803922%,82.745098%);fill-opacity:1;" d="M 176.921875 207.691406 C 176.921875 224.683594 190.699219 238.460938 207.691406 238.460938 C 224.683594 238.460938 238.460938 224.683594 238.460938 207.691406 C 238.460938 190.699219 224.683594 176.921875 207.691406 176.921875 C 190.699219 176.921875 176.921875 190.699219 176.921875 207.691406 Z M 176.921875 207.691406 "/>
<path style=" stroke:none;fill-rule:nonzero;fill:rgb(27.45098%,92.941176%,78.431373%);fill-opacity:1;" d="M 169.230469 169.230469 L 169.230469 246.152344 L 92.308594 246.152344 L 92.308594 169.230469 Z M 169.230469 169.230469 "/>
<path style=" stroke:none;fill-rule:nonzero;fill:rgb(98.431373%,70.196078%,35.294118%);fill-opacity:1;" d="M 169.230469 169.230469 L 169.230469 246.152344 L 92.308594 169.230469 Z M 169.230469 169.230469 "/>
<path style=" stroke:none;fill-rule:nonzero;fill:rgb(27.45098%,92.941176%,78.431373%);fill-opacity:1;" d="M 100 207.691406 C 100 224.683594 113.777344 238.460938 130.769531 238.460938 C 147.761719 238.460938 161.539062 224.683594 161.539062 207.691406 C 161.539062 190.699219 147.761719 176.921875 130.769531 176.921875 C 113.777344 176.921875 100 190.699219 100 207.691406 Z M 100 207.691406 "/>
<path style=" stroke:none;fill-rule:nonzero;fill:rgb(100%,49.803922%,0%);fill-opacity:1;" d="M 15.382812 169.230469 L 15.382812 246.152344 L 92.304688 246.152344 L 92.304688 169.230469 Z M 15.382812 169.230469 "/>
<path style=" stroke:none;fill-rule:nonzero;fill:rgb(100%,49.803922%,0%);fill-opacity:1;" d="M 15.382812 169.230469 L 15.382812 246.152344 L 92.304688 169.230469 Z M 15.382812 169.230469 "/>
<path style=" stroke:none;fill-rule:nonzero;fill:rgb(13.72549%,43.137255%,58.823529%);fill-opacity:1;" d="M 84.617188 207.691406 C 84.617188 224.683594 70.839844 238.460938 53.847656 238.460938 C 36.855469 238.460938 23.078125 224.683594 23.078125 207.691406 C 23.078125 190.699219 36.855469 176.921875 53.847656 176.921875 C 70.839844 176.921875 84.617188 190.699219 84.617188 207.691406 Z M 84.617188 207.691406 "/>
<path style=" stroke:none;fill-rule:nonzero;fill:rgb(50.980392%,58.431373%,98.823529%);fill-opacity:1;" d="M 707.691406 92.308594 L 707.691406 169.230469 L 784.613281 169.230469 L 784.613281 92.308594 Z M 707.691406 92.308594 "/>
<path style=" stroke:none;fill-rule:nonzero;fill:rgb(50.980392%,58.431373%,98.823529%);fill-opacity:1;" d="M 707.691406 92.308594 L 707.691406 169.230469 L 784.613281 92.308594 Z M 707.691406 92.308594 "/>
<path style=" stroke:none;fill-rule:nonzero;fill:rgb(62.745098%,94.509804%,61.176471%);fill-opacity:1;" d="M 776.921875 130.769531 C 776.921875 147.761719 763.144531 161.539062 746.152344 161.539062 C 729.160156 161.539062 715.382812 147.761719 715.382812 130.769531 C 715.382812 113.777344 729.160156 100 746.152344 100 C 763.144531 100 776.921875 113.777344 776.921875 130.769531 Z M 776.921875 130.769531 "/>
<path style=" stroke:none;fill-rule:nonzero;fill:rgb(90.588235%,43.921569%,48.627451%);fill-opacity:1;" d="M 630.769531 92.308594 L 630.769531 169.230469 L 707.691406 169.230469 L 707.691406 92.308594 Z M 630.769531 92.308594 "/>
<path style=" stroke:none;fill-rule:nonzero;fill:rgb(70.588235%,42.745098%,100%);fill-opacity:1;" d="M 630.769531 92.308594 L 630.769531 169.230469 L 707.691406 92.308594 Z M 630.769531 92.308594 "/>
<path style=" stroke:none;fill-rule:nonzero;fill:rgb(70.588235%,42.745098%,100%);fill-opacity:1;" d="M 700 130.769531 C 700 147.761719 686.222656 161.539062 669.230469 161.539062 C 652.238281 161.539062 638.460938 147.761719 638.460938 130.769531 C 638.460938 113.777344 652.238281 100 669.230469 100 C 686.222656 100 700 113.777344 700 130.769531 Z M 700 130.769531 "/>
<path style=" stroke:none;fill-rule:nonzero;fill:rgb(0%,76.078431%,100%);fill-opacity:1;" d="M 553.847656 92.308594 L 553.847656 169.230469 L 630.769531 169.230469 L 630.769531 92.308594 Z M 553.847656 92.308594 "/>
<path style=" stroke:none;fill-rule:nonzero;fill:rgb(0%,76.078431%,100%);fill-opacity:1;" d="M 553.847656 92.308594 L 553.847656 169.230469 L 630.769531 92.308594 Z M 553.847656 92.308594 "/>
<path style=" stroke:none;fill-rule:nonzero;fill:rgb(98.039216%,83.137255%,0%);fill-opacity:1;" d="M 623.078125 130.769531 C 623.078125 147.761719 609.300781 161.539062 592.308594 161.539062 C 575.316406 161.539062 561.539062 147.761719 561.539062 130.769531 C 561.539062 113.777344 575.316406 100 592.308594 100 C 609.300781 100 623.078125 113.777344 623.078125 130.769531 Z M 623.078125 130.769531 "/>
<path style=" stroke:none;fill-rule:nonzero;fill:rgb(90.196078%,36.078431%,43.529412%);fill-opacity:1;" d="M 476.921875 92.308594 L 476.921875 169.230469 L 553.84375 169.230469 L 553.84375 92.308594 Z M 476.921875 92.308594 "/>
<path style=" stroke:none;fill-rule:nonzero;fill:rgb(100%,88.627451%,41.176471%);fill-opacity:1;" d="M 476.921875 92.308594 L 476.921875 169.230469 L 553.84375 92.308594 Z M 476.921875 92.308594 "/>
<path style=" stroke:none;fill-rule:nonzero;fill:rgb(97.647059%,55.294118%,46.666667%);fill-opacity:1;" d="M 546.152344 130.769531 C 546.152344 147.761719 532.375 161.539062 515.382812 161.539062 C 498.390625 161.539062 484.613281 147.761719 484.613281 130.769531 C 484.613281 113.777344 498.390625 100 515.382812 100 C 532.375 100 546.152344 113.777344 546.152344 130.769531 Z M 546.152344 130.769531 "/>
<path style=" stroke:none;fill-rule:nonzero;fill:rgb(100%,25.098039%,25.098039%);fill-opacity:1;" d="M 400 92.308594 L 400 169.230469 L 476.921875 169.230469 L 476.921875 92.308594 Z M 400 92.308594 "/>
<path style=" stroke:none;fill-rule:nonzero;fill:rgb(63.529412%,0%,100%);fill-opacity:1;" d="M 400 92.308594 L 400 169.230469 L 476.921875 92.308594 Z M 400 92.308594 "/>
<path style=" stroke:none;fill-rule:nonzero;fill:rgb(100%,64.705882%,0%);fill-opacity:1;" d="M 469.230469 130.769531 C 469.230469 147.761719 455.453125 161.539062 438.460938 161.539062 C 421.46875 161.539062 407.691406 147.761719 407.691406 130.769531 C 407.691406 113.777344 421.46875 100 438.460938 100 C 455.453125 100 469.230469 113.777344 469.230469 130.769531 Z M 469.230469 130.769531 "/>
<path style=" stroke:none;fill-rule:nonzero;fill:rgb(70.588235%,42.745098%,100%);fill-opacity:1;" d="M 400 169.230469 L 400 92.308594 L 323.078125 92.308594 L 323.078125 169.230469 Z M 400 169.230469 "/>
<path style=" stroke:none;fill-rule:nonzero;fill:rgb(63.529412%,15.686275%,66.27451%);fill-opacity:1;" d="M 400 169.230469 L 400 92.308594 L 323.078125 169.230469 Z M 400 169.230469 "/>
<path style=" stroke:none;fill-rule:nonzero;fill:rgb(70.588235%,42.745098%,100%);fill-opacity:1;" d="M 330.769531 130.769531 C 330.769531 113.777344 344.546875 100 361.539062 100 C 378.53125 100 392.308594 113.777344 392.308594 130.769531 C 392.308594 147.761719 378.53125 161.539062 361.539062 161.539062 C 344.546875 161.539062 330.769531 147.761719 330.769531 130.769531 Z M 330.769531 130.769531 "/>
<path style=" stroke:none;fill-rule:nonzero;fill:rgb(100%,81.568627%,90.980392%);fill-opacity:1;" d="M 246.152344 92.308594 L 246.152344 169.230469 L 323.074219 169.230469 L 323.074219 92.308594 Z M 246.152344 92.308594 "/>
<path style=" stroke:none;fill-rule:nonzero;fill:rgb(90.588235%,43.137255%,81.568627%);fill-opacity:1;" d="M 246.152344 92.308594 L 246.152344 169.230469 L 323.074219 92.308594 Z M 246.152344 92.308594 "/>
<path style=" stroke:none;fill-rule:nonzero;fill:rgb(95.686275%,60.784314%,89.019608%);fill-opacity:1;" d="M 315.382812 130.769531 C 315.382812 147.761719 301.605469 161.539062 284.613281 161.539062 C 267.621094 161.539062 253.84375 147.761719 253.84375 130.769531 C 253.84375 113.777344 267.621094 100 284.613281 100 C 301.605469 100 315.382812 113.777344 315.382812 130.769531 Z M 315.382812 130.769531 "/>
<path style=" stroke:none;fill-rule:nonzero;fill:rgb(96.470588%,50.588235%,25.490196%);fill-opacity:1;" d="M 169.230469 92.308594 L 169.230469 169.230469 L 246.152344 169.230469 L 246.152344 92.308594 Z M 169.230469 92.308594 "/>
<path style=" stroke:none;fill-rule:nonzero;fill:rgb(96.470588%,50.588235%,25.490196%);fill-opacity:1;" d="M 169.230469 92.308594 L 169.230469 169.230469 L 246.152344 92.308594 Z M 169.230469 92.308594 "/>
<path style=" stroke:none;fill-rule:nonzero;fill:rgb(3.921569%,17.647059%,46.27451%);fill-opacity:1;" d="M 238.460938 130.769531 C 238.460938 147.761719 224.683594 161.539062 207.691406 161.539062 C 190.699219 161.539062 176.921875 147.761719 176.921875 130.769531 C 176.921875 113.777344 190.699219 100 207.691406 100 C 224.683594 100 238.460938 113.777344 238.460938 130.769531 Z M 238.460938 130.769531 "/>
<path style=" stroke:none;fill-rule:nonzero;fill:rgb(80%,92.156863%,77.254902%);fill-opacity:1;" d="M 92.308594 92.308594 L 92.308594 169.230469 L 169.230469 169.230469 L 169.230469 92.308594 Z M 92.308594 92.308594 "/>
<path style=" stroke:none;fill-rule:nonzero;fill:rgb(98.823529%,80.392157%,89.803922%);fill-opacity:1;" d="M 92.308594 92.308594 L 92.308594 169.230469 L 169.230469 92.308594 Z M 92.308594 92.308594 "/>
<path style=" stroke:none;fill-rule:nonzero;fill:rgb(99.215686%,70.588235%,38.431373%);fill-opacity:1;" d="M 161.539062 130.769531 C 161.539062 147.761719 147.761719 161.539062 130.769531 161.539062 C 113.777344 161.539062 100 147.761719 100 130.769531 C 100 113.777344 113.777344 100 130.769531 100 C 147.761719 100 161.539062 113.777344 161.539062 130.769531 Z M 161.539062 130.769531 "/>
<path style=" stroke:none;fill-rule:nonzero;fill:rgb(90.196078%,36.078431%,43.529412%);fill-opacity:1;" d="M 92.308594 169.230469 L 92.308594 92.308594 L 15.386719 92.308594 L 15.386719 169.230469 Z M 92.308594 169.230469 "/>
<path style=" stroke:none;fill-rule:nonzero;fill:rgb(100%,98.039216%,52.156863%);fill-opacity:1;" d="M 92.308594 169.230469 L 92.308594 92.308594 L 15.386719 169.230469 Z M 92.308594 169.230469 "/>
<path style=" stroke:none;fill-rule:nonzero;fill:rgb(100%,98.039216%,52.156863%);fill-opacity:1;" d="M 23.078125 130.769531 C 23.078125 113.777344 36.855469 100 53.847656 100 C 70.839844 100 84.617188 113.777344 84.617188 130.769531 C 84.617188 147.761719 70.839844 161.539062 53.847656 161.539062 C 36.855469 161.539062 23.078125 147.761719 23.078125 130.769531 Z M 23.078125 130.769531 "/>
<path style=" stroke:none;fill-rule:nonzero;fill:rgb(100%,33.333333%,0%);fill-opacity:1;" d="M 784.617188 92.308594 L 784.617188 15.386719 L 707.695312 15.386719 L 707.695312 92.308594 Z M 784.617188 92.308594 "/>
<path style=" stroke:none;fill-rule:nonzero;fill:rgb(66.666667%,0%,6.666667%);fill-opacity:1;" d="M 784.617188 92.308594 L 784.617188 15.386719 L 707.695312 92.308594 Z M 784.617188 92.308594 "/>
<path style=" stroke:none;fill-rule:nonzero;fill:rgb(26.666667%,0%,26.666667%);fill-opacity:1;" d="M 715.382812 53.847656 C 715.382812 36.855469 729.160156 23.078125 746.152344 23.078125 C 763.144531 23.078125 776.921875 36.855469 776.921875 53.847656 C 776.921875 70.839844 763.144531 84.617188 746.152344 84.617188 C 729.160156 84.617188 715.382812 70.839844 715.382812 53.847656 Z M 715.382812 53.847656 "/>
<path style=" stroke:none;fill-rule:nonzero;fill:rgb(85.490196%,20%,20%);fill-opacity:1;" d="M 707.691406 92.308594 L 707.691406 15.386719 L 630.769531 15.386719 L 630.769531 92.308594 Z M 707.691406 92.308594 "/>
<path style=" stroke:none;fill-rule:nonzero;fill:rgb(18.039216%,70.588235%,86.27451%);fill-opacity:1;" d="M 707.691406 92.308594 L 707.691406 15.386719 L 630.769531 92.308594 Z M 707.691406 92.308594 "/>
<path style=" stroke:none;fill-rule:nonzero;fill:rgb(70.588235%,23.529412%,49.411765%);fill-opacity:1;" d="M 638.460938 53.847656 C 638.460938 36.855469 652.238281 23.078125 669.230469 23.078125 C 686.222656 23.078125 700 36.855469 700 53.847656 C 700 70.839844 686.222656 84.617188 669.230469 84.617188 C 652.238281 84.617188 638.460938 70.839844 638.460938 53.847656 Z M 638.460938 53.847656 "/>
<path style=" stroke:none;fill-rule:nonzero;fill:rgb(99.607843%,31.372549%,100%);fill-opacity:1;" d="M 553.847656 92.308594 L 553.847656 15.386719 L 630.769531 15.386719 L 630.769531 92.308594 Z M 553.847656 92.308594 "/>
<path style=" stroke:none;fill-rule:nonzero;fill:rgb(99.607843%,31.372549%,100%);fill-opacity:1;" d="M 553.847656 92.308594 L 553.847656 15.386719 L 630.769531 92.308594 Z M 553.847656 92.308594 "/>
<path style=" stroke:none;fill-rule:nonzero;fill:rgb(40%,100%,80.392157%);fill-opacity:1;" d="M 623.078125 53.847656 C 623.078125 36.855469 609.300781 23.078125 592.308594 23.078125 C 575.316406 23.078125 561.539062 36.855469 561.539062 53.847656 C 561.539062 70.839844 575.316406 84.617188 592.308594 84.617188 C 609.300781 84.617188 623.078125 70.839844 623.078125 53.847656 Z M 623.078125 53.847656 "/>
<path style=" stroke:none;fill-rule:nonzero;fill:rgb(0%,83.137255%,72.156863%);fill-opacity:1;" d="M 476.921875 15.382812 L 476.921875 92.304688 L 553.84375 92.304688 L 553.84375 15.382812 Z M 476.921875 15.382812 "/>
<path style=" stroke:none;fill-rule:nonzero;fill:rgb(35.294118%,0%,84.313725%);fill-opacity:1;" d="M 476.921875 15.382812 L 476.921875 92.304688 L 553.84375 15.382812 Z M 476.921875 15.382812 "/>
<path style=" stroke:none;fill-rule:nonzero;fill:rgb(0%,61.960784%,83.529412%);fill-opacity:1;" d="M 546.152344 53.847656 C 546.152344 70.839844 532.375 84.617188 515.382812 84.617188 C 498.390625 84.617188 484.613281 70.839844 484.613281 53.847656 C 484.613281 36.855469 498.390625 23.078125 515.382812 23.078125 C 532.375 23.078125 546.152344 36.855469 546.152344 53.847656 Z M 546.152344 53.847656 "/>
<path style=" stroke:none;fill-rule:nonzero;fill:rgb(100%,18.431373%,50.588235%);fill-opacity:1;" d="M 476.921875 92.308594 L 476.921875 15.386719 L 400 15.386719 L 400 92.308594 Z M 476.921875 92.308594 "/>
<path style=" stroke:none;fill-rule:nonzero;fill:rgb(100%,18.431373%,50.588235%);fill-opacity:1;" d="M 476.921875 92.308594 L 476.921875 15.386719 L 400 92.308594 Z M 476.921875 92.308594 "/>
<path style=" stroke:none;fill-rule:nonzero;fill:rgb(100%,88.235294%,19.607843%);fill-opacity:1;" d="M 407.691406 53.847656 C 407.691406 36.855469 421.46875 23.078125 438.460938 23.078125 C 455.453125 23.078125 469.230469 36.855469 469.230469 53.847656 C 469.230469 70.839844 455.453125 84.617188 438.460938 84.617188 C 421.46875 84.617188 407.691406 70.839844 407.691406 53.847656 Z M 407.691406 53.847656 "/>
<path style=" stroke:none;fill-rule:nonzero;fill:rgb(96.470588%,96.078431%,93.333333%);fill-opacity:1;" d="M 400 92.308594 L 400 15.386719 L 323.078125 15.386719 L 323.078125 92.308594 Z M 400 92.308594 "/>
<path style=" stroke:none;fill-rule:nonzero;fill:rgb(41.568627%,71.372549%,77.647059%);fill-opacity:1;" d="M 400 92.308594 L 400 15.386719 L 323.078125 92.308594 Z M 400 92.308594 "/>
<path style=" stroke:none;fill-rule:nonzero;fill:rgb(96.470588%,96.078431%,93.333333%);fill-opacity:1;" d="M 330.769531 53.847656 C 330.769531 36.855469 344.546875 23.078125 361.539062 23.078125 C 378.53125 23.078125 392.308594 36.855469 392.308594 53.847656 C 392.308594 70.839844 378.53125 84.617188 361.539062 84.617188 C 344.546875 84.617188 330.769531 70.839844 330.769531 53.847656 Z M 330.769531 53.847656 "/>
<path style=" stroke:none;fill-rule:nonzero;fill:rgb(100%,81.568627%,90.980392%);fill-opacity:1;" d="M 246.152344 15.382812 L 246.152344 92.304688 L 323.074219 92.304688 L 323.074219 15.382812 Z M 246.152344 15.382812 "/>
<path style=" stroke:none;fill-rule:nonzero;fill:rgb(100%,81.568627%,90.980392%);fill-opacity:1;" d="M 246.152344 15.382812 L 246.152344 92.304688 L 323.074219 15.382812 Z M 246.152344 15.382812 "/>
<path style=" stroke:none;fill-rule:nonzero;fill:rgb(95.686275%,60.784314%,89.019608%);fill-opacity:1;" d="M 315.382812 53.847656 C 315.382812 70.839844 301.605469 84.617188 284.613281 84.617188 C 267.621094 84.617188 253.84375 70.839844 253.84375 53.847656 C 253.84375 36.855469 267.621094 23.078125 284.613281 23.078125 C 301.605469 23.078125 315.382812 36.855469 315.382812 53.847656 Z M 315.382812 53.847656 "/>
<path style=" stroke:none;fill-rule:nonzero;fill:rgb(37.647059%,68.627451%,38.431373%);fill-opacity:1;" d="M 246.152344 92.308594 L 246.152344 15.386719 L 169.230469 15.386719 L 169.230469 92.308594 Z M 246.152344 92.308594 "/>
<path style=" stroke:none;fill-rule:nonzero;fill:rgb(100%,80.784314%,67.843137%);fill-opacity:1;" d="M 246.152344 92.308594 L 246.152344 15.386719 L 169.230469 92.308594 Z M 246.152344 92.308594 "/>
<path style=" stroke:none;fill-rule:nonzero;fill:rgb(100%,80.784314%,67.843137%);fill-opacity:1;" d="M 176.921875 53.847656 C 176.921875 36.855469 190.699219 23.078125 207.691406 23.078125 C 224.683594 23.078125 238.460938 36.855469 238.460938 53.847656 C 238.460938 70.839844 224.683594 84.617188 207.691406 84.617188 C 190.699219 84.617188 176.921875 70.839844 176.921875 53.847656 Z M 176.921875 53.847656 "/>
<path style=" stroke:none;fill-rule:nonzero;fill:rgb(92.941176%,7.843137%,35.686275%);fill-opacity:1;" d="M 169.230469 15.382812 L 169.230469 92.304688 L 92.308594 92.304688 L 92.308594 15.382812 Z M 169.230469 15.382812 "/>
<path style=" stroke:none;fill-rule:nonzero;fill:rgb(47.058824%,16.862745%,56.470588%);fill-opacity:1;" d="M 169.230469 15.382812 L 169.230469 92.304688 L 92.308594 15.382812 Z M 169.230469 15.382812 "/>
<path style=" stroke:none;fill-rule:nonzero;fill:rgb(92.941176%,7.843137%,35.686275%);fill-opacity:1;" d="M 100 53.847656 C 100 70.839844 113.777344 84.617188 130.769531 84.617188 C 147.761719 84.617188 161.539062 70.839844 161.539062 53.847656 C 161.539062 36.855469 147.761719 23.078125 130.769531 23.078125 C 113.777344 23.078125 100 36.855469 100 53.847656 Z M 100 53.847656 "/>
<path style=" stroke:none;fill-rule:nonzero;fill:rgb(83.529412%,0%,39.607843%);fill-opacity:1;" d="M 15.382812 92.308594 L 15.382812 15.386719 L 92.304688 15.386719 L 92.304688 92.308594 Z M 15.382812 92.308594 "/>
<path style=" stroke:none;fill-rule:nonzero;fill:rgb(0%,83.137255%,72.156863%);fill-opacity:1;" d="M 15.382812 92.308594 L 15.382812 15.386719 L 92.304688 92.308594 Z M 15.382812 92.308594 "/>
<path style=" stroke:none;fill-rule:nonzero;fill:rgb(35.294118%,0%,84.313725%);fill-opacity:1;" d="M 84.617188 53.847656 C 84.617188 36.855469 70.839844 23.078125 53.847656 23.078125 C 36.855469 23.078125 23.078125 36.855469 23.078125 53.847656 C 23.078125 70.839844 36.855469 84.617188 53.847656 84.617188 C 70.839844 84.617188 84.617188 70.839844 84.617188 53.847656 Z M 84.617188 53.847656 "/>
</g>
</svg>
