<?xml version="1.0" encoding="UTF-8"?>
<svg xmlns="http://www.w3.org/2000/svg" xmlns:xlink="http://www.w3.org/1999/xlink" width="500pt" height="551.445512pt" viewBox="0 0 500 551.445512" version="1.1">
<g id="surface1">
<path style="fill:none;stroke-width:2.100372;stroke-linecap:butt;stroke-linejoin:miter;stroke:rgb(25.490196%,41.176471%,88.235294%);stroke-opacity:1;stroke-miterlimit:10;" d="M 495.140625 0.386719 L 479.722656 1.746094 L 464.304688 3.621094 L 448.886719 5.378906 L 433.46875 6.429688 L 418.050781 6.414062 L 402.632812 5.339844 L 371.792969 1.699219 L 356.375 0.359375 L 340.957031 0 L 325.539062 0.742188 L 310.121094 2.335938 L 294.703125 4.246094 L 279.285156 5.828125 L 263.867188 6.546875 L 248.449219 6.160156 L 233.03125 4.800781 L 217.613281 2.925781 L 202.195312 1.167969 L 186.777344 0.117188 L 171.359375 0.132812 L 155.941406 1.207031 L 125.101562 4.847656 L 109.683594 6.1875 L 94.265625 6.546875 L 78.847656 5.804688 L 63.429688 4.210938 L 48.011719 2.300781 L 32.59375 0.71875 L 17.175781 0 L 1.757812 0.386719 "/>
<path style="fill:none;stroke-width:2.100372;stroke-linecap:butt;stroke-linejoin:miter;stroke:rgb(25.490196%,41.176471%,88.235294%);stroke-opacity:1;stroke-miterlimit:10;" d="M 496.644531 6.878906 L 481.226562 7.472656 L 465.808594 8.972656 L 434.96875 12.542969 L 419.550781 13.410156 L 404.132812 13.183594 L 388.714844 11.941406 L 373.296875 10.101562 L 357.878906 8.285156 L 342.460938 7.105469 L 327.042969 6.957031 L 311.625 7.890625 L 280.785156 11.488281 L 265.367188 12.9375 L 249.949219 13.453125 L 234.53125 12.859375 L 219.113281 11.359375 L 188.273438 7.789062 L 172.855469 6.921875 L 157.4375 7.148438 L 142.019531 8.390625 L 126.601562 10.230469 L 111.183594 12.046875 L 95.765625 13.226562 L 80.347656 13.375 L 64.929688 12.441406 L 34.089844 8.84375 L 18.671875 7.394531 L 3.253906 6.878906 "/>
<path style="fill:none;stroke-width:2.100372;stroke-linecap:butt;stroke-linejoin:miter;stroke:rgb(25.490196%,41.176471%,88.235294%);stroke-opacity:1;stroke-miterlimit:10;" d="M 498.160156 14.117188 L 482.742188 13.808594 L 467.324219 14.597656 L 436.484375 18.128906 L 421.066406 19.679688 L 405.648438 20.351562 L 390.230469 19.914062 L 374.8125 18.519531 L 343.972656 14.894531 L 328.554688 13.886719 L 313.136719 13.953125 L 297.71875 15.066406 L 282.300781 16.855469 L 266.882812 18.714844 L 251.464844 20.019531 L 236.046875 20.328125 L 220.628906 19.539062 L 189.789062 16.007812 L 174.371094 14.457031 L 158.953125 13.785156 L 143.535156 14.222656 L 128.117188 15.617188 L 97.277344 19.242188 L 81.859375 20.25 L 66.441406 20.183594 L 51.023438 19.070312 L 35.605469 17.28125 L 20.1875 15.421875 L 4.769531 14.117188 "/>
<path style="fill:none;stroke-width:2.100372;stroke-linecap:butt;stroke-linejoin:miter;stroke:rgb(25.490196%,41.176471%,88.235294%);stroke-opacity:1;stroke-miterlimit:10;" d="M 499.355469 22.011719 L 483.9375 20.871094 L 468.519531 20.773438 L 453.101562 21.753906 L 437.683594 23.480469 L 422.265625 25.371094 L 406.847656 26.789062 L 391.429688 27.257812 L 376.011719 26.617188 L 360.59375 25.085938 L 345.175781 23.179688 L 329.757812 21.539062 L 314.339844 20.71875 L 298.921875 20.996094 L 283.503906 22.277344 L 252.664062 25.929688 L 237.246094 27.070312 L 221.828125 27.167969 L 206.410156 26.1875 L 190.992188 24.460938 L 175.574219 22.570312 L 160.15625 21.152344 L 144.738281 20.683594 L 129.320312 21.324219 L 113.902344 22.855469 L 98.484375 24.761719 L 83.066406 26.402344 L 67.648438 27.222656 L 52.230469 26.945312 L 36.8125 25.664062 L 5.972656 22.011719 "/>
<path style="fill:none;stroke-width:2.100372;stroke-linecap:butt;stroke-linejoin:miter;stroke:rgb(25.490196%,41.176471%,88.235294%);stroke-opacity:1;stroke-miterlimit:10;" d="M 499.957031 30.347656 L 484.539062 28.632812 L 469.121094 27.671875 L 453.703125 27.789062 L 438.285156 28.945312 L 407.445312 32.597656 L 392.027344 33.863281 L 376.609375 34.121094 L 361.191406 33.285156 L 345.773438 31.636719 L 330.355469 29.730469 L 314.9375 28.210938 L 299.519531 27.589844 L 284.101562 28.074219 L 268.683594 29.503906 L 253.265625 31.394531 L 237.847656 33.109375 L 222.429688 34.070312 L 207.011719 33.953125 L 191.59375 32.796875 L 160.753906 29.144531 L 145.335938 27.878906 L 129.917969 27.621094 L 114.5 28.457031 L 99.082031 30.105469 L 83.664062 32.011719 L 68.246094 33.53125 L 52.828125 34.152344 L 37.410156 33.667969 L 21.992188 32.238281 L 6.574219 30.347656 "/>
<path style="fill:none;stroke-width:2.100372;stroke-linecap:butt;stroke-linejoin:miter;stroke:rgb(25.490196%,41.176471%,88.235294%);stroke-opacity:1;stroke-miterlimit:10;" d="M 499.835938 38.796875 L 468.996094 35.273438 L 453.578125 34.5 L 438.160156 34.828125 L 422.742188 36.144531 L 407.324219 38.007812 L 391.90625 39.789062 L 376.488281 40.886719 L 361.070312 40.933594 L 345.652344 39.910156 L 314.8125 36.28125 L 299.394531 34.898438 L 283.976562 34.480469 L 268.558594 35.167969 L 253.140625 36.730469 L 222.300781 40.253906 L 206.882812 41.027344 L 191.464844 40.699219 L 176.046875 39.382812 L 160.628906 37.519531 L 145.210938 35.738281 L 129.792969 34.640625 L 114.375 34.59375 L 98.957031 35.617188 L 68.117188 39.246094 L 52.699219 40.628906 L 37.28125 41.046875 L 21.863281 40.359375 L 6.445312 38.796875 "/>
<path style="fill:none;stroke-width:2.100372;stroke-linecap:butt;stroke-linejoin:miter;stroke:rgb(25.490196%,41.176471%,88.235294%);stroke-opacity:1;stroke-miterlimit:10;" d="M 499.011719 47.015625 L 468.171875 43.4375 L 452.753906 41.949219 L 437.335938 41.375 L 421.917969 41.910156 L 406.5 43.375 L 375.660156 46.96875 L 360.242188 47.886719 L 344.824219 47.71875 L 329.40625 46.523438 L 313.988281 44.703125 L 298.570312 42.871094 L 283.152344 41.644531 L 267.734375 41.4375 L 252.316406 42.320312 L 221.476562 45.898438 L 206.058594 47.386719 L 190.640625 47.960938 L 175.222656 47.425781 L 159.804688 45.960938 L 128.964844 42.367188 L 113.546875 41.449219 L 98.128906 41.617188 L 82.710938 42.8125 L 67.292969 44.632812 L 51.875 46.464844 L 36.457031 47.691406 L 21.039062 47.898438 L 5.621094 47.015625 "/>
<path style="fill:none;stroke-width:2.100372;stroke-linecap:butt;stroke-linejoin:miter;stroke:rgb(25.490196%,41.176471%,88.235294%);stroke-opacity:1;stroke-miterlimit:10;" d="M 497.675781 54.703125 L 482.257812 53.636719 L 466.839844 51.871094 L 451.421875 50 L 436.003906 48.652344 L 420.585938 48.285156 L 405.167969 49.019531 L 374.328125 52.519531 L 358.910156 54.105469 L 343.492188 54.832031 L 328.074219 54.453125 L 312.65625 53.097656 L 281.816406 49.460938 L 266.398438 48.40625 L 250.980469 48.410156 L 235.5625 49.476562 L 220.144531 51.242188 L 204.726562 53.113281 L 189.308594 54.460938 L 173.890625 54.828125 L 158.472656 54.09375 L 127.632812 50.59375 L 112.214844 49.007812 L 96.796875 48.28125 L 81.378906 48.660156 L 65.960938 50.015625 L 35.121094 53.652344 L 19.703125 54.707031 L 4.285156 54.703125 "/>
<path style="fill:none;stroke-width:2.100372;stroke-linecap:butt;stroke-linejoin:miter;stroke:rgb(25.490196%,41.176471%,88.235294%);stroke-opacity:1;stroke-miterlimit:10;" d="M 496.121094 61.6875 L 480.703125 61.46875 L 465.285156 60.234375 L 434.445312 56.578125 L 419.027344 55.390625 L 403.609375 55.234375 L 388.191406 56.160156 L 372.773438 57.859375 L 357.355469 59.757812 L 341.9375 61.214844 L 326.519531 61.738281 L 311.101562 61.152344 L 295.683594 59.65625 L 280.265625 57.753906 L 264.847656 56.085938 L 249.429688 55.214844 L 234.011719 55.433594 L 218.59375 56.667969 L 187.753906 60.324219 L 172.335938 61.511719 L 156.917969 61.667969 L 141.5 60.742188 L 126.082031 59.042969 L 110.664062 57.144531 L 95.246094 55.6875 L 79.828125 55.164062 L 64.410156 55.75 L 48.992188 57.246094 L 33.574219 59.148438 L 18.15625 60.816406 L 2.738281 61.6875 "/>
<path style="fill:none;stroke-width:2.100372;stroke-linecap:butt;stroke-linejoin:miter;stroke:rgb(25.490196%,41.176471%,88.235294%);stroke-opacity:1;stroke-miterlimit:10;" d="M 494.699219 67.953125 L 479.28125 68.632812 L 463.863281 68.203125 L 448.445312 66.8125 L 433.027344 64.929688 L 417.609375 63.1875 L 402.191406 62.175781 L 386.773438 62.234375 L 371.355469 63.34375 L 340.515625 66.992188 L 325.097656 68.300781 L 309.679688 68.617188 L 294.261719 67.835938 L 278.84375 66.21875 L 263.425781 64.308594 L 248.007812 62.753906 L 232.589844 62.074219 L 217.171875 62.503906 L 201.753906 63.894531 L 186.335938 65.777344 L 170.917969 67.519531 L 155.5 68.53125 L 140.082031 68.472656 L 124.664062 67.363281 L 93.824219 63.714844 L 78.40625 62.40625 L 62.988281 62.089844 L 47.570312 62.871094 L 32.152344 64.488281 L 16.734375 66.398438 L 1.316406 67.953125 "/>
<path style="fill:none;stroke-width:2.100372;stroke-linecap:butt;stroke-linejoin:miter;stroke:rgb(25.490196%,41.176471%,88.235294%);stroke-opacity:1;stroke-miterlimit:10;" d="M 493.730469 73.636719 L 478.3125 75.058594 L 462.894531 75.535156 L 447.476562 74.902344 L 432.058594 73.375 L 401.21875 69.824219 L 385.800781 68.996094 L 370.382812 69.265625 L 354.964844 70.539062 L 339.546875 72.390625 L 324.128906 74.191406 L 308.710938 75.339844 L 293.292969 75.445312 L 277.875 74.472656 L 247.035156 70.859375 L 231.617188 69.4375 L 216.199219 68.960938 L 200.78125 69.59375 L 185.363281 71.121094 L 154.523438 74.671875 L 139.105469 75.5 L 123.6875 75.230469 L 108.269531 73.957031 L 92.851562 72.105469 L 77.433594 70.304688 L 62.015625 69.15625 L 46.597656 69.050781 L 31.179688 70.023438 L 0.339844 73.636719 "/>
<path style="fill:none;stroke-width:2.100372;stroke-linecap:butt;stroke-linejoin:miter;stroke:rgb(25.490196%,41.176471%,88.235294%);stroke-opacity:1;stroke-miterlimit:10;" d="M 493.425781 79.011719 L 478.007812 80.859375 L 462.589844 82.132812 L 447.171875 82.398438 L 431.753906 81.570312 L 400.914062 78.019531 L 385.496094 76.492188 L 370.078125 75.863281 L 354.660156 76.339844 L 339.242188 77.765625 L 308.402344 81.378906 L 292.984375 82.347656 L 277.566406 82.238281 L 262.148438 81.089844 L 246.730469 79.285156 L 231.3125 77.4375 L 215.894531 76.164062 L 200.476562 75.898438 L 185.058594 76.726562 L 154.21875 80.277344 L 138.800781 81.804688 L 123.382812 82.433594 L 107.964844 81.957031 L 92.546875 80.53125 L 61.707031 76.917969 L 46.289062 75.949219 L 30.871094 76.058594 L 15.453125 77.207031 L 0.0351562 79.011719 "/>
<path style="fill:none;stroke-width:2.100372;stroke-linecap:butt;stroke-linejoin:miter;stroke:rgb(25.490196%,41.176471%,88.235294%);stroke-opacity:1;stroke-miterlimit:10;" d="M 493.855469 84.414062 L 463.015625 88.058594 L 447.597656 89.164062 L 432.179688 89.21875 L 416.761719 88.203125 L 401.34375 86.460938 L 385.925781 84.578125 L 370.507812 83.191406 L 355.089844 82.765625 L 339.671875 83.445312 L 324.253906 85.003906 L 308.835938 86.914062 L 293.417969 88.53125 L 278 89.3125 L 262.582031 88.992188 L 247.164062 87.679688 L 216.324219 84.035156 L 200.90625 82.929688 L 185.488281 82.875 L 170.070312 83.890625 L 154.652344 85.632812 L 139.234375 87.515625 L 123.816406 88.902344 L 108.398438 89.328125 L 92.980469 88.648438 L 77.5625 87.089844 L 62.144531 85.179688 L 46.726562 83.5625 L 31.308594 82.78125 L 15.890625 83.101562 L 0.472656 84.414062 "/>
<path style="fill:none;stroke-width:2.100372;stroke-linecap:butt;stroke-linejoin:miter;stroke:rgb(25.490196%,41.176471%,88.235294%);stroke-opacity:1;stroke-miterlimit:10;" d="M 494.925781 90.183594 L 479.507812 91.640625 L 464.089844 93.539062 L 448.671875 95.238281 L 433.253906 96.164062 L 417.835938 96.003906 L 402.417969 94.8125 L 371.578125 91.15625 L 356.160156 89.921875 L 340.742188 89.707031 L 325.324219 90.582031 L 309.90625 92.253906 L 294.488281 94.15625 L 279.070312 95.648438 L 263.652344 96.230469 L 248.234375 95.703125 L 232.816406 94.246094 L 217.398438 92.347656 L 201.980469 90.648438 L 186.5625 89.722656 L 171.144531 89.882812 L 155.726562 91.074219 L 124.886719 94.730469 L 109.46875 95.964844 L 94.050781 96.179688 L 78.632812 95.304688 L 63.214844 93.632812 L 47.796875 91.730469 L 32.378906 90.238281 L 16.960938 89.65625 L 1.542969 90.183594 "/>
<path style="fill:none;stroke-width:2.100372;stroke-linecap:butt;stroke-linejoin:miter;stroke:rgb(25.490196%,41.176471%,88.235294%);stroke-opacity:1;stroke-miterlimit:10;" d="M 496.394531 96.5625 L 480.976562 97.289062 L 465.558594 98.875 L 434.71875 102.375 L 419.300781 103.109375 L 403.882812 102.738281 L 388.464844 101.390625 L 373.046875 99.519531 L 357.628906 97.753906 L 342.210938 96.691406 L 326.792969 96.6875 L 311.375 97.746094 L 280.535156 101.382812 L 265.117188 102.734375 L 249.699219 103.109375 L 234.28125 102.382812 L 218.863281 100.796875 L 188.023438 97.296875 L 172.605469 96.5625 L 157.1875 96.933594 L 141.769531 98.28125 L 126.351562 100.152344 L 110.933594 101.917969 L 95.515625 102.980469 L 80.097656 102.984375 L 64.679688 101.925781 L 33.839844 98.289062 L 18.421875 96.9375 L 3.003906 96.5625 "/>
<path style="fill:none;stroke-width:2.100372;stroke-linecap:butt;stroke-linejoin:miter;stroke:rgb(25.490196%,41.176471%,88.235294%);stroke-opacity:1;stroke-miterlimit:10;" d="M 497.933594 103.675781 L 482.515625 103.511719 L 467.097656 104.433594 L 436.257812 108.027344 L 420.839844 109.488281 L 405.421875 110.019531 L 390.003906 109.441406 L 374.585938 107.949219 L 343.746094 104.375 L 328.328125 103.496094 L 312.910156 103.707031 L 297.492188 104.9375 L 282.074219 106.773438 L 266.65625 108.59375 L 251.238281 109.789062 L 235.820312 109.953125 L 220.402344 109.03125 L 189.5625 105.4375 L 174.144531 103.976562 L 158.726562 103.445312 L 143.308594 104.023438 L 127.890625 105.515625 L 97.050781 109.089844 L 81.632812 109.96875 L 66.214844 109.757812 L 50.796875 108.527344 L 35.378906 106.691406 L 19.960938 104.871094 L 4.542969 103.675781 "/>
<path style="fill:none;stroke-width:2.100372;stroke-linecap:butt;stroke-linejoin:miter;stroke:rgb(25.490196%,41.176471%,88.235294%);stroke-opacity:1;stroke-miterlimit:10;" d="M 499.199219 111.476562 L 483.78125 110.457031 L 468.363281 110.503906 L 452.945312 111.605469 L 437.527344 113.386719 L 422.109375 115.25 L 406.691406 116.566406 L 391.273438 116.890625 L 375.855469 116.113281 L 345.015625 112.589844 L 329.597656 111.03125 L 314.179688 110.34375 L 298.761719 110.765625 L 283.34375 112.148438 L 252.503906 115.777344 L 237.085938 116.796875 L 221.667969 116.75 L 206.25 115.648438 L 190.832031 113.867188 L 175.414062 112.003906 L 159.996094 110.6875 L 144.578125 110.363281 L 129.160156 111.140625 L 98.320312 114.664062 L 82.902344 116.222656 L 67.484375 116.910156 L 52.066406 116.488281 L 36.648438 115.105469 L 5.808594 111.476562 "/>
<path style="fill:none;stroke-width:2.100372;stroke-linecap:butt;stroke-linejoin:miter;stroke:rgb(25.490196%,41.176471%,88.235294%);stroke-opacity:1;stroke-miterlimit:10;" d="M 499.910156 119.757812 L 484.492188 118.109375 L 469.074219 117.273438 L 453.65625 117.535156 L 438.238281 118.804688 L 407.398438 122.457031 L 391.980469 123.609375 L 376.5625 123.722656 L 361.144531 122.757812 L 345.726562 121.039062 L 330.308594 119.148438 L 314.890625 117.71875 L 299.472656 117.234375 L 284.054688 117.859375 L 268.636719 119.382812 L 253.21875 121.289062 L 237.800781 122.9375 L 222.382812 123.773438 L 206.964844 123.511719 L 191.546875 122.242188 L 160.707031 118.589844 L 145.289062 117.4375 L 129.871094 117.324219 L 114.453125 118.289062 L 99.035156 120.007812 L 83.617188 121.898438 L 68.199219 123.328125 L 52.78125 123.8125 L 37.363281 123.1875 L 21.945312 121.664062 L 6.527344 119.757812 "/>
<path style="fill:none;stroke-width:2.100372;stroke-linecap:butt;stroke-linejoin:miter;stroke:rgb(25.490196%,41.176471%,88.235294%);stroke-opacity:1;stroke-miterlimit:10;" d="M 499.902344 128.21875 L 484.484375 126.3125 L 469.066406 124.78125 L 453.648438 124.144531 L 438.230469 124.613281 L 422.8125 126.03125 L 407.394531 127.921875 L 391.976562 129.644531 L 376.558594 130.621094 L 361.140625 130.519531 L 345.722656 129.378906 L 314.882812 125.726562 L 299.464844 124.449219 L 284.046875 124.175781 L 268.628906 124.996094 L 253.210938 126.636719 L 237.792969 128.542969 L 222.375 130.074219 L 206.957031 130.710938 L 191.539062 130.242188 L 176.121094 128.824219 L 160.703125 126.933594 L 145.285156 125.210938 L 129.867188 124.234375 L 114.449219 124.335938 L 99.03125 125.476562 L 68.191406 129.128906 L 52.773438 130.40625 L 37.355469 130.679688 L 21.9375 129.859375 L 6.519531 128.21875 "/>
<path style="fill:none;stroke-width:2.100372;stroke-linecap:butt;stroke-linejoin:miter;stroke:rgb(25.490196%,41.176471%,88.235294%);stroke-opacity:1;stroke-miterlimit:10;" d="M 499.183594 136.492188 L 468.34375 132.867188 L 452.925781 131.472656 L 437.507812 131.039062 L 422.089844 131.710938 L 406.671875 133.261719 L 375.832031 136.792969 L 360.414062 137.582031 L 344.996094 137.269531 L 329.578125 135.964844 L 314.160156 134.105469 L 298.742188 132.316406 L 283.324219 131.203125 L 267.90625 131.140625 L 252.488281 132.148438 L 221.648438 135.773438 L 206.230469 137.167969 L 190.8125 137.601562 L 175.394531 136.929688 L 159.976562 135.378906 L 129.136719 131.847656 L 113.71875 131.058594 L 98.300781 131.371094 L 82.882812 132.675781 L 67.464844 134.535156 L 52.046875 136.324219 L 36.628906 137.4375 L 21.210938 137.5 L 5.792969 136.492188 "/>
<path style="fill:none;stroke-width:2.100372;stroke-linecap:butt;stroke-linejoin:miter;stroke:rgb(25.490196%,41.176471%,88.235294%);stroke-opacity:1;stroke-miterlimit:10;" d="M 497.910156 144.289062 L 482.492188 143.105469 L 467.074219 141.289062 L 451.65625 139.453125 L 436.238281 138.214844 L 420.820312 137.992188 L 405.402344 138.859375 L 374.5625 142.429688 L 359.144531 143.929688 L 343.726562 144.519531 L 328.308594 144 L 312.890625 142.546875 L 282.050781 138.949219 L 266.632812 138.015625 L 251.214844 138.167969 L 235.796875 139.351562 L 220.378906 141.167969 L 204.960938 143.003906 L 189.542969 144.242188 L 174.125 144.464844 L 158.707031 143.597656 L 127.867188 140.027344 L 112.449219 138.527344 L 97.03125 137.9375 L 81.613281 138.457031 L 66.195312 139.910156 L 35.355469 143.507812 L 19.9375 144.441406 L 4.519531 144.289062 "/>
<path style="fill:none;stroke-width:2.100372;stroke-linecap:butt;stroke-linejoin:miter;stroke:rgb(25.490196%,41.176471%,88.235294%);stroke-opacity:1;stroke-miterlimit:10;" d="M 496.371094 151.390625 L 480.953125 151.027344 L 465.535156 149.683594 L 434.695312 146.042969 L 419.277344 144.972656 L 403.859375 144.960938 L 388.441406 146.011719 L 373.023438 147.773438 L 357.605469 149.648438 L 342.1875 151.007812 L 326.769531 151.390625 L 311.351562 150.667969 L 280.511719 147.175781 L 265.09375 145.582031 L 249.675781 144.839844 L 234.257812 145.203125 L 218.839844 146.546875 L 188 150.1875 L 172.582031 151.257812 L 157.164062 151.269531 L 141.746094 150.21875 L 126.328125 148.457031 L 110.910156 146.582031 L 95.492188 145.222656 L 80.074219 144.839844 L 64.65625 145.5625 L 33.816406 149.054688 L 18.398438 150.648438 L 2.980469 151.390625 "/>
<path style="fill:none;stroke-width:2.100372;stroke-linecap:butt;stroke-linejoin:miter;stroke:rgb(25.490196%,41.176471%,88.235294%);stroke-opacity:1;stroke-miterlimit:10;" d="M 494.90625 157.761719 L 479.488281 158.300781 L 464.070312 157.730469 L 448.652344 156.246094 L 433.234375 154.34375 L 417.816406 152.667969 L 402.398438 151.78125 L 386.980469 151.984375 L 371.5625 153.207031 L 340.722656 156.863281 L 325.304688 158.0625 L 309.886719 158.234375 L 294.46875 157.320312 L 279.050781 155.628906 L 263.632812 153.730469 L 248.214844 152.261719 L 232.796875 151.722656 L 217.378906 152.292969 L 201.960938 153.777344 L 186.542969 155.679688 L 171.125 157.355469 L 155.707031 158.242188 L 140.289062 158.039062 L 124.871094 156.816406 L 94.03125 153.160156 L 78.613281 151.960938 L 63.195312 151.789062 L 47.777344 152.703125 L 32.359375 154.394531 L 16.941406 156.292969 L 1.523438 157.761719 "/>
<path style="fill:none;stroke-width:2.100372;stroke-linecap:butt;stroke-linejoin:miter;stroke:rgb(25.490196%,41.176471%,88.235294%);stroke-opacity:1;stroke-miterlimit:10;" d="M 493.84375 163.523438 L 478.425781 164.84375 L 463.007812 165.175781 L 447.589844 164.40625 L 432.171875 162.796875 L 416.753906 160.886719 L 401.335938 159.320312 L 385.917969 158.625 L 370.5 159.035156 L 355.082031 160.414062 L 339.664062 162.292969 L 324.246094 164.042969 L 308.828125 165.070312 L 293.410156 165.03125 L 277.992188 163.9375 L 247.152344 160.292969 L 231.734375 158.972656 L 216.316406 158.640625 L 200.898438 159.410156 L 185.480469 161.019531 L 170.0625 162.929688 L 154.644531 164.496094 L 139.226562 165.191406 L 123.808594 164.78125 L 108.390625 163.402344 L 92.972656 161.523438 L 77.554688 159.773438 L 62.136719 158.746094 L 46.71875 158.785156 L 31.300781 159.878906 L 0.460938 163.523438 "/>
<path style="fill:none;stroke-width:2.100372;stroke-linecap:butt;stroke-linejoin:miter;stroke:rgb(25.490196%,41.176471%,88.235294%);stroke-opacity:1;stroke-miterlimit:10;" d="M 493.421875 168.921875 L 478.003906 170.730469 L 462.585938 171.890625 L 447.167969 172.011719 L 431.75 171.054688 L 400.910156 167.449219 L 385.492188 166.015625 L 370.074219 165.523438 L 354.65625 166.140625 L 339.238281 167.65625 L 308.398438 171.214844 L 292.980469 172.054688 L 277.5625 171.800781 L 262.144531 170.539062 L 246.726562 168.695312 L 231.308594 166.886719 L 215.890625 165.726562 L 200.472656 165.605469 L 185.054688 166.5625 L 154.214844 170.167969 L 138.796875 171.601562 L 123.378906 172.09375 L 107.960938 171.476562 L 92.542969 169.960938 L 61.703125 166.402344 L 46.285156 165.5625 L 30.867188 165.816406 L 15.449219 167.078125 L 0.03125 168.921875 "/>
<path style="fill:none;stroke-width:2.100372;stroke-linecap:butt;stroke-linejoin:miter;stroke:rgb(25.490196%,41.176471%,88.235294%);stroke-opacity:1;stroke-miterlimit:10;" d="M 493.738281 174.296875 L 462.898438 177.914062 L 447.480469 178.898438 L 432.0625 178.808594 L 416.644531 177.671875 L 401.226562 175.875 L 385.808594 174.023438 L 370.390625 172.738281 L 354.972656 172.457031 L 339.554688 173.273438 L 308.714844 176.816406 L 293.296875 178.351562 L 277.878906 178.996094 L 262.460938 178.535156 L 247.042969 177.121094 L 216.203125 173.503906 L 200.785156 172.519531 L 185.367188 172.609375 L 169.949219 173.746094 L 154.53125 175.542969 L 139.113281 177.394531 L 123.695312 178.679688 L 108.277344 178.960938 L 92.859375 178.144531 L 62.019531 174.601562 L 46.601562 173.066406 L 31.183594 172.421875 L 15.765625 172.882812 L 0.347656 174.296875 "/>
<path style="fill:none;stroke-width:2.100372;stroke-linecap:butt;stroke-linejoin:miter;stroke:rgb(25.490196%,41.176471%,88.235294%);stroke-opacity:1;stroke-miterlimit:10;" d="M 494.71875 179.988281 L 479.300781 181.535156 L 463.882812 183.445312 L 448.464844 185.070312 L 433.046875 185.867188 L 417.628906 185.5625 L 402.210938 184.261719 L 371.371094 180.613281 L 355.953125 179.496094 L 340.535156 179.425781 L 325.117188 180.425781 L 309.699219 182.160156 L 294.28125 184.046875 L 278.863281 185.445312 L 263.445312 185.886719 L 248.027344 185.222656 L 232.609375 183.675781 L 217.191406 181.765625 L 201.773438 180.140625 L 186.355469 179.34375 L 170.9375 179.648438 L 155.519531 180.949219 L 124.679688 184.597656 L 109.261719 185.714844 L 93.84375 185.785156 L 78.425781 184.785156 L 63.007812 183.050781 L 47.589844 181.164062 L 32.171875 179.765625 L 16.753906 179.324219 L 1.335938 179.988281 "/>
<path style="fill:none;stroke-width:2.100372;stroke-linecap:butt;stroke-linejoin:miter;stroke:rgb(25.490196%,41.176471%,88.235294%);stroke-opacity:1;stroke-miterlimit:10;" d="M 496.144531 186.265625 L 480.726562 187.125 L 465.308594 188.789062 L 449.890625 190.695312 L 434.472656 192.199219 L 419.054688 192.796875 L 403.636719 192.285156 L 388.21875 190.835938 L 372.800781 188.941406 L 357.382812 187.238281 L 341.964844 186.296875 L 326.546875 186.4375 L 311.128906 187.613281 L 280.289062 191.265625 L 264.871094 192.511719 L 249.453125 192.742188 L 234.035156 191.882812 L 218.617188 190.21875 L 203.199219 188.3125 L 187.78125 186.808594 L 172.363281 186.210938 L 156.945312 186.722656 L 141.527344 188.171875 L 126.109375 190.066406 L 110.691406 191.769531 L 95.273438 192.710938 L 79.855469 192.570312 L 64.4375 191.394531 L 33.597656 187.742188 L 18.179688 186.496094 L 2.761719 186.265625 "/>
<path style="fill:none;stroke-width:2.100372;stroke-linecap:butt;stroke-linejoin:miter;stroke:rgb(25.490196%,41.176471%,88.235294%);stroke-opacity:1;stroke-miterlimit:10;" d="M 497.699219 193.261719 L 482.28125 193.242188 L 466.863281 194.289062 L 436.023438 197.921875 L 420.605469 199.285156 L 405.1875 199.675781 L 389.769531 198.960938 L 374.351562 197.382812 L 343.511719 193.875 L 328.09375 193.125 L 312.675781 193.480469 L 297.257812 194.816406 L 281.839844 196.6875 L 266.421875 198.460938 L 251.003906 199.539062 L 235.585938 199.558594 L 220.167969 198.511719 L 189.328125 194.878906 L 173.910156 193.515625 L 158.492188 193.125 L 143.074219 193.839844 L 127.65625 195.417969 L 96.816406 198.925781 L 81.398438 199.675781 L 65.980469 199.320312 L 50.5625 197.984375 L 35.144531 196.113281 L 19.726562 194.339844 L 4.308594 193.261719 "/>
<path style="fill:none;stroke-width:2.100372;stroke-linecap:butt;stroke-linejoin:miter;stroke:rgb(25.490196%,41.176471%,88.235294%);stroke-opacity:1;stroke-miterlimit:10;" d="M 499.027344 200.960938 L 483.609375 200.066406 L 468.191406 200.261719 L 452.773438 201.476562 L 437.355469 203.304688 L 421.9375 205.128906 L 406.519531 206.335938 L 391.101562 206.515625 L 375.683594 205.609375 L 344.84375 202.023438 L 329.425781 200.550781 L 314.007812 200.003906 L 298.589844 200.5625 L 283.171875 202.042969 L 252.332031 205.625 L 236.914062 206.519531 L 221.496094 206.324219 L 206.078125 205.109375 L 190.660156 203.28125 L 175.242188 201.457031 L 159.824219 200.25 L 144.40625 200.070312 L 128.988281 200.976562 L 98.148438 204.5625 L 82.730469 206.035156 L 67.3125 206.582031 L 51.894531 206.023438 L 36.476562 204.542969 L 5.636719 200.960938 "/>
<path style="fill:none;stroke-width:2.100372;stroke-linecap:butt;stroke-linejoin:miter;stroke:rgb(25.490196%,41.176471%,88.235294%);stroke-opacity:1;stroke-miterlimit:10;" d="M 499.84375 209.1875 L 484.425781 207.617188 L 469.007812 206.917969 L 453.589844 207.320312 L 438.171875 208.691406 L 407.332031 212.324219 L 391.914062 213.359375 L 376.496094 213.328125 L 361.078125 212.242188 L 345.660156 210.464844 L 330.242188 208.597656 L 314.824219 207.269531 L 299.40625 206.929688 L 283.988281 207.691406 L 253.148438 211.207031 L 237.730469 212.777344 L 222.3125 213.476562 L 206.894531 213.074219 L 191.476562 211.703125 L 160.636719 208.070312 L 145.21875 207.035156 L 129.800781 207.066406 L 114.382812 208.152344 L 98.964844 209.929688 L 83.546875 211.796875 L 68.128906 213.125 L 52.710938 213.464844 L 37.292969 212.703125 L 6.453125 209.1875 "/>
<path style="fill:none;stroke-width:2.100372;stroke-linecap:butt;stroke-linejoin:miter;stroke:rgb(25.490196%,41.176471%,88.235294%);stroke-opacity:1;stroke-miterlimit:10;" d="M 499.953125 217.632812 L 484.535156 215.738281 L 469.117188 214.300781 L 453.699219 213.800781 L 438.28125 214.410156 L 422.863281 215.921875 L 407.445312 217.828125 L 392.027344 219.484375 L 376.609375 220.332031 L 361.191406 220.085938 L 345.773438 218.832031 L 314.933594 215.179688 L 299.515625 214.011719 L 284.097656 213.882812 L 268.679688 214.832031 L 253.261719 216.542969 L 237.84375 218.4375 L 222.425781 219.875 L 207.007812 220.375 L 191.589844 219.765625 L 176.171875 218.253906 L 160.753906 216.347656 L 145.335938 214.691406 L 129.917969 213.84375 L 114.5 214.089844 L 99.082031 215.34375 L 68.242188 218.996094 L 52.824219 220.164062 L 37.40625 220.292969 L 21.988281 219.34375 L 6.570312 217.632812 "/>
<path style="fill:none;stroke-width:2.100372;stroke-linecap:butt;stroke-linejoin:miter;stroke:rgb(25.490196%,41.176471%,88.235294%);stroke-opacity:1;stroke-miterlimit:10;" d="M 499.34375 225.964844 L 468.503906 222.316406 L 453.085938 221.027344 L 437.667969 220.738281 L 422.25 221.546875 L 406.832031 223.179688 L 391.414062 225.085938 L 375.996094 226.625 L 360.578125 227.277344 L 345.160156 226.824219 L 329.742188 225.417969 L 314.324219 223.53125 L 298.90625 221.800781 L 283.488281 220.808594 L 268.070312 220.890625 L 252.652344 222.019531 L 221.8125 225.667969 L 206.394531 226.957031 L 190.976562 227.246094 L 175.558594 226.4375 L 160.140625 224.804688 L 144.722656 222.898438 L 129.304688 221.359375 L 113.886719 220.707031 L 98.46875 221.160156 L 83.050781 222.566406 L 67.632812 224.453125 L 52.214844 226.183594 L 36.796875 227.175781 L 21.378906 227.09375 L 5.960938 225.964844 "/>
<path style="fill:none;stroke-width:2.100372;stroke-linecap:butt;stroke-linejoin:miter;stroke:rgb(25.490196%,41.176471%,88.235294%);stroke-opacity:1;stroke-miterlimit:10;" d="M 498.140625 233.851562 L 482.722656 232.558594 L 467.304688 230.703125 L 451.886719 228.910156 L 436.46875 227.785156 L 421.050781 227.707031 L 405.632812 228.703125 L 374.792969 232.324219 L 359.375 233.730469 L 343.957031 234.179688 L 328.539062 233.523438 L 313.121094 231.980469 L 282.28125 228.441406 L 266.863281 227.636719 L 251.445312 227.933594 L 236.027344 229.226562 L 220.609375 231.082031 L 205.191406 232.875 L 189.773438 234 L 174.355469 234.078125 L 158.9375 233.082031 L 128.097656 229.460938 L 112.679688 228.054688 L 97.261719 227.605469 L 81.84375 228.261719 L 66.425781 229.804688 L 35.585938 233.34375 L 20.167969 234.148438 L 4.75 233.851562 "/>
<path style="fill:none;stroke-width:2.100372;stroke-linecap:butt;stroke-linejoin:miter;stroke:rgb(25.490196%,41.176471%,88.235294%);stroke-opacity:1;stroke-miterlimit:10;" d="M 496.621094 241.078125 L 481.203125 240.574219 L 465.785156 239.132812 L 434.945312 235.53125 L 419.527344 234.585938 L 404.109375 234.71875 L 388.691406 235.890625 L 373.273438 237.703125 L 357.855469 239.546875 L 342.4375 240.800781 L 327.019531 241.039062 L 311.601562 240.1875 L 280.761719 236.625 L 265.34375 235.117188 L 249.925781 234.511719 L 234.507812 235.015625 L 219.089844 236.457031 L 188.25 240.058594 L 172.832031 241.003906 L 157.414062 240.871094 L 141.996094 239.699219 L 126.578125 237.886719 L 111.160156 236.042969 L 95.742188 234.789062 L 80.324219 234.550781 L 64.90625 235.402344 L 34.066406 238.964844 L 18.648438 240.472656 L 3.230469 241.078125 "/>
<path style="fill:none;stroke-width:2.100372;stroke-linecap:butt;stroke-linejoin:miter;stroke:rgb(25.490196%,41.176471%,88.235294%);stroke-opacity:1;stroke-miterlimit:10;" d="M 495.117188 247.5625 L 479.699219 247.960938 L 464.28125 247.253906 L 448.863281 245.679688 L 433.445312 243.769531 L 418.027344 242.167969 L 402.609375 241.410156 L 387.191406 241.753906 L 371.773438 243.085938 L 340.933594 246.726562 L 325.515625 247.808594 L 310.097656 247.835938 L 294.679688 246.796875 L 279.261719 245.042969 L 263.84375 243.164062 L 248.425781 241.792969 L 233.007812 241.394531 L 217.589844 242.101562 L 202.171875 243.675781 L 186.753906 245.585938 L 171.335938 247.1875 L 155.917969 247.945312 L 140.5 247.601562 L 125.082031 246.269531 L 94.242188 242.628906 L 78.824219 241.546875 L 63.40625 241.519531 L 47.988281 242.558594 L 32.570312 244.3125 L 17.152344 246.191406 L 1.734375 247.5625 "/>
<path style="fill:none;stroke-width:2.100372;stroke-linecap:butt;stroke-linejoin:miter;stroke:rgb(25.490196%,41.176471%,88.235294%);stroke-opacity:1;stroke-miterlimit:10;" d="M 493.972656 253.40625 L 478.554688 254.621094 L 463.136719 254.808594 L 447.71875 253.910156 L 432.300781 252.226562 L 416.882812 250.324219 L 401.464844 248.847656 L 386.046875 248.292969 L 370.628906 248.84375 L 355.210938 250.320312 L 339.792969 252.222656 L 324.375 253.90625 L 308.957031 254.808594 L 293.539062 254.625 L 278.121094 253.414062 L 247.28125 249.757812 L 231.863281 248.542969 L 216.445312 248.355469 L 201.027344 249.253906 L 185.609375 250.9375 L 170.191406 252.839844 L 154.773438 254.316406 L 139.355469 254.871094 L 123.9375 254.320312 L 108.519531 252.84375 L 93.101562 250.941406 L 77.683594 249.257812 L 62.265625 248.355469 L 46.847656 248.539062 L 31.429688 249.75 L 0.589844 253.40625 "/>
<path style="fill:none;stroke-width:2.100372;stroke-linecap:butt;stroke-linejoin:miter;stroke:rgb(25.490196%,41.176471%,88.235294%);stroke-opacity:1;stroke-miterlimit:10;" d="M 493.441406 258.839844 L 478.023438 260.59375 L 462.605469 261.636719 L 447.1875 261.613281 L 431.769531 260.53125 L 400.929688 256.890625 L 385.511719 255.558594 L 370.09375 255.210938 L 354.675781 255.964844 L 339.257812 257.566406 L 323.839844 259.476562 L 308.421875 261.050781 L 293.003906 261.757812 L 277.585938 261.363281 L 262.167969 259.996094 L 246.75 258.117188 L 231.332031 256.363281 L 215.914062 255.320312 L 200.496094 255.34375 L 185.078125 256.425781 L 154.238281 260.066406 L 138.820312 261.398438 L 123.402344 261.746094 L 107.984375 260.992188 L 92.566406 259.390625 L 77.148438 257.480469 L 61.730469 255.90625 L 46.3125 255.199219 L 30.894531 255.59375 L 15.476562 256.960938 L 0.0585938 258.839844 "/>
<path style="fill:none;stroke-width:2.100372;stroke-linecap:butt;stroke-linejoin:miter;stroke:rgb(25.490196%,41.176471%,88.235294%);stroke-opacity:1;stroke-miterlimit:10;" d="M 493.640625 264.191406 L 462.800781 267.757812 L 447.382812 268.613281 L 431.964844 268.378906 L 416.546875 267.128906 L 401.128906 265.289062 L 385.710938 263.476562 L 370.292969 262.304688 L 354.875 262.167969 L 339.457031 263.113281 L 308.617188 266.714844 L 293.199219 268.160156 L 277.78125 268.667969 L 262.363281 268.066406 L 246.945312 266.558594 L 216.105469 262.992188 L 200.6875 262.136719 L 185.269531 262.371094 L 169.851562 263.621094 L 154.433594 265.460938 L 139.015625 267.273438 L 123.597656 268.445312 L 108.179688 268.582031 L 92.761719 267.636719 L 61.921875 264.035156 L 46.503906 262.589844 L 31.085938 262.082031 L 15.667969 262.683594 L 0.25 264.191406 "/>
<path style="fill:none;stroke-width:2.100372;stroke-linecap:butt;stroke-linejoin:miter;stroke:rgb(25.490196%,41.176471%,88.235294%);stroke-opacity:1;stroke-miterlimit:10;" d="M 494.527344 269.8125 L 463.6875 273.347656 L 448.269531 274.894531 L 432.851562 275.554688 L 417.433594 275.109375 L 402.015625 273.707031 L 371.175781 270.085938 L 355.757812 269.089844 L 340.339844 269.164062 L 324.921875 270.285156 L 309.503906 272.078125 L 294.085938 273.933594 L 278.667969 275.230469 L 263.25 275.527344 L 247.832031 274.726562 L 216.992188 271.191406 L 201.574219 269.644531 L 186.15625 268.984375 L 170.738281 269.429688 L 155.320312 270.832031 L 124.480469 274.453125 L 109.0625 275.449219 L 93.644531 275.375 L 78.226562 274.253906 L 62.808594 272.460938 L 47.390625 270.605469 L 31.972656 269.308594 L 16.554688 269.011719 L 1.136719 269.8125 "/>
<path style="fill:none;stroke-width:2.100372;stroke-linecap:butt;stroke-linejoin:miter;stroke:rgb(25.490196%,41.176471%,88.235294%);stroke-opacity:1;stroke-miterlimit:10;" d="M 495.898438 275.980469 L 480.480469 276.96875 L 465.0625 278.699219 L 449.644531 280.585938 L 434.226562 281.996094 L 418.808594 282.453125 L 403.390625 281.804688 L 387.972656 280.265625 L 372.554688 278.359375 L 357.136719 276.726562 L 341.71875 275.917969 L 326.300781 276.203125 L 310.882812 277.492188 L 280.042969 281.140625 L 264.625 282.273438 L 249.207031 282.359375 L 233.789062 281.371094 L 218.371094 279.640625 L 202.953125 277.753906 L 187.535156 276.34375 L 172.117188 275.886719 L 156.699219 276.535156 L 141.28125 278.074219 L 125.863281 279.980469 L 110.445312 281.613281 L 95.027344 282.421875 L 79.609375 282.136719 L 64.191406 280.847656 L 33.351562 277.199219 L 17.933594 276.066406 L 2.515625 275.980469 "/>
<path style="fill:none;stroke-width:2.100372;stroke-linecap:butt;stroke-linejoin:miter;stroke:rgb(25.490196%,41.176471%,88.235294%);stroke-opacity:1;stroke-miterlimit:10;" d="M 497.457031 282.867188 L 482.039062 282.992188 L 466.621094 284.15625 L 435.78125 287.808594 L 420.363281 289.066406 L 404.945312 289.316406 L 389.527344 288.46875 L 374.109375 286.8125 L 358.691406 284.90625 L 343.273438 283.390625 L 327.855469 282.777344 L 312.4375 283.273438 L 297.019531 284.710938 L 281.601562 286.605469 L 266.183594 288.316406 L 250.765625 289.269531 L 235.347656 289.144531 L 219.929688 287.980469 L 189.089844 284.328125 L 173.671875 283.070312 L 158.253906 282.820312 L 142.835938 283.667969 L 127.417969 285.324219 L 112 287.230469 L 96.582031 288.746094 L 81.164062 289.359375 L 65.746094 288.863281 L 50.328125 287.425781 L 34.910156 285.53125 L 19.492188 283.820312 L 4.074219 282.867188 "/>
<path style="fill:none;stroke-width:2.100372;stroke-linecap:butt;stroke-linejoin:miter;stroke:rgb(25.490196%,41.176471%,88.235294%);stroke-opacity:1;stroke-miterlimit:10;" d="M 498.84375 290.464844 L 483.425781 289.703125 L 468.007812 290.039062 L 452.589844 291.363281 L 437.171875 293.230469 L 421.753906 295.007812 L 406.335938 296.097656 L 390.917969 296.132812 L 375.5 295.101562 L 344.660156 291.472656 L 329.242188 290.097656 L 313.824219 289.691406 L 298.40625 290.390625 L 282.988281 291.957031 L 252.148438 295.472656 L 236.730469 296.234375 L 221.3125 295.898438 L 205.894531 294.574219 L 190.476562 292.707031 L 175.058594 290.929688 L 159.640625 289.839844 L 144.222656 289.804688 L 128.804688 290.835938 L 97.964844 294.464844 L 82.546875 295.839844 L 67.128906 296.246094 L 51.710938 295.546875 L 36.292969 293.980469 L 5.453125 290.464844 "/>
<path style="fill:none;stroke-width:2.100372;stroke-linecap:butt;stroke-linejoin:miter;stroke:rgb(25.490196%,41.176471%,88.235294%);stroke-opacity:1;stroke-miterlimit:10;" d="M 499.757812 298.621094 L 484.339844 297.136719 L 468.921875 296.574219 L 453.503906 297.117188 L 438.085938 298.585938 L 407.246094 302.175781 L 391.828125 303.085938 L 376.410156 302.910156 L 360.992188 301.707031 L 345.574219 299.882812 L 330.15625 298.050781 L 314.738281 296.832031 L 299.320312 296.636719 L 283.902344 297.527344 L 253.0625 301.109375 L 237.644531 302.59375 L 222.226562 303.15625 L 206.808594 302.613281 L 191.390625 301.144531 L 160.550781 297.554688 L 145.132812 296.644531 L 129.714844 296.820312 L 114.296875 298.023438 L 98.878906 299.847656 L 83.460938 301.679688 L 68.042969 302.898438 L 52.625 303.09375 L 37.207031 302.203125 L 6.367188 298.621094 "/>
<path style="fill:none;stroke-width:2.100372;stroke-linecap:butt;stroke-linejoin:miter;stroke:rgb(25.490196%,41.176471%,88.235294%);stroke-opacity:1;stroke-miterlimit:10;" d="M 499.988281 307.054688 L 484.570312 305.183594 L 469.152344 303.84375 L 453.734375 303.488281 L 438.316406 304.234375 L 407.476562 307.742188 L 392.058594 309.320312 L 376.640625 310.035156 L 361.222656 309.648438 L 345.804688 308.285156 L 314.964844 304.652344 L 299.546875 303.605469 L 284.128906 303.621094 L 268.710938 304.695312 L 253.292969 306.464844 L 237.875 308.335938 L 222.457031 309.675781 L 207.039062 310.03125 L 191.621094 309.285156 L 160.78125 305.777344 L 145.363281 304.199219 L 129.945312 303.484375 L 114.527344 303.871094 L 99.109375 305.234375 L 68.269531 308.867188 L 52.851562 309.914062 L 37.433594 309.898438 L 22.015625 308.824219 L 6.597656 307.054688 "/>
<path style="fill:none;stroke-width:2.100372;stroke-linecap:butt;stroke-linejoin:miter;stroke:rgb(25.490196%,41.176471%,88.235294%);stroke-opacity:1;stroke-miterlimit:10;" d="M 499.484375 315.421875 L 468.644531 311.769531 L 453.226562 310.589844 L 437.808594 310.445312 L 422.390625 311.382812 L 406.972656 313.085938 L 391.554688 314.980469 L 376.136719 316.429688 L 360.71875 316.945312 L 345.300781 316.351562 L 329.882812 314.847656 L 314.464844 312.945312 L 299.046875 311.28125 L 283.628906 310.417969 L 268.210938 310.644531 L 252.792969 311.886719 L 221.953125 315.539062 L 206.535156 316.71875 L 191.117188 316.863281 L 175.699219 315.925781 L 160.28125 314.222656 L 144.863281 312.328125 L 129.445312 310.878906 L 114.027344 310.363281 L 98.609375 310.957031 L 83.191406 312.460938 L 67.773438 314.363281 L 52.355469 316.027344 L 36.9375 316.890625 L 21.519531 316.664062 L 6.101562 315.421875 "/>
<path style="fill:none;stroke-width:2.100372;stroke-linecap:butt;stroke-linejoin:miter;stroke:rgb(25.490196%,41.176471%,88.235294%);stroke-opacity:1;stroke-miterlimit:10;" d="M 498.363281 323.398438 L 482.945312 322 L 467.527344 320.113281 L 452.109375 318.375 L 436.691406 317.371094 L 421.273438 317.4375 L 405.855469 318.554688 L 375.015625 322.203125 L 359.597656 323.503906 L 344.179688 323.8125 L 328.761719 323.019531 L 313.34375 321.394531 L 297.925781 319.484375 L 282.507812 317.933594 L 267.089844 317.265625 L 251.671875 317.703125 L 236.253906 319.101562 L 220.835938 320.988281 L 205.417969 322.726562 L 190 323.730469 L 174.582031 323.664062 L 159.164062 322.546875 L 128.324219 318.898438 L 112.90625 317.597656 L 97.488281 317.289062 L 82.070312 318.082031 L 66.652344 319.707031 L 51.234375 321.617188 L 35.816406 323.167969 L 20.398438 323.835938 L 4.980469 323.398438 "/>
<path style="fill:none;stroke-width:2.100372;stroke-linecap:butt;stroke-linejoin:miter;stroke:rgb(25.490196%,41.176471%,88.235294%);stroke-opacity:1;stroke-miterlimit:10;" d="M 496.871094 330.738281 L 481.453125 330.097656 L 466.035156 328.566406 L 435.195312 325.019531 L 419.777344 324.203125 L 404.359375 324.480469 L 388.941406 325.761719 L 373.523438 327.613281 L 358.105469 329.410156 L 342.6875 330.550781 L 327.269531 330.644531 L 311.851562 329.664062 L 281.011719 326.050781 L 265.59375 324.636719 L 250.175781 324.171875 L 234.757812 324.8125 L 219.339844 326.34375 L 188.5 329.890625 L 173.082031 330.707031 L 157.664062 330.429688 L 142.246094 329.148438 L 126.828125 327.296875 L 111.410156 325.5 L 95.992188 324.359375 L 80.574219 324.265625 L 65.15625 325.246094 L 34.316406 328.859375 L 18.898438 330.273438 L 3.480469 330.738281 "/>
<path style="fill:none;stroke-width:2.100372;stroke-linecap:butt;stroke-linejoin:miter;stroke:rgb(25.490196%,41.176471%,88.235294%);stroke-opacity:1;stroke-miterlimit:10;" d="M 495.34375 337.34375 L 479.925781 337.601562 L 464.507812 336.761719 L 433.667969 333.207031 L 418.25 331.6875 L 402.832031 331.066406 L 387.414062 331.554688 L 371.996094 332.984375 L 341.15625 336.59375 L 325.738281 337.554688 L 310.320312 337.4375 L 294.902344 336.28125 L 279.484375 334.476562 L 264.066406 332.628906 L 248.648438 331.363281 L 233.230469 331.105469 L 217.8125 331.945312 L 186.972656 335.5 L 171.554688 337.019531 L 156.136719 337.640625 L 140.71875 337.152344 L 125.300781 335.722656 L 94.460938 332.113281 L 79.042969 331.152344 L 63.625 331.269531 L 48.207031 332.425781 L 32.789062 334.230469 L 17.371094 336.078125 L 1.953125 337.34375 "/>
<path style="fill:none;stroke-width:2.100372;stroke-linecap:butt;stroke-linejoin:miter;stroke:rgb(25.490196%,41.176471%,88.235294%);stroke-opacity:1;stroke-miterlimit:10;" d="M 494.121094 343.277344 L 478.703125 344.375 L 463.285156 344.417969 L 447.867188 343.394531 L 432.449219 341.648438 L 417.03125 339.765625 L 401.613281 338.382812 L 386.195312 337.96875 L 370.777344 338.660156 L 355.359375 340.222656 L 339.941406 342.132812 L 324.523438 343.746094 L 309.105469 344.515625 L 293.6875 344.1875 L 278.269531 342.867188 L 247.429688 339.222656 L 232.011719 338.125 L 216.59375 338.082031 L 201.175781 339.105469 L 185.757812 340.851562 L 170.339844 342.734375 L 154.921875 344.117188 L 139.503906 344.53125 L 124.085938 343.839844 L 108.667969 342.277344 L 93.25 340.367188 L 77.832031 338.753906 L 62.414062 337.984375 L 46.996094 338.3125 L 31.578125 339.632812 L 0.738281 343.277344 "/>
<path style="fill:none;stroke-width:2.100372;stroke-linecap:butt;stroke-linejoin:miter;stroke:rgb(25.490196%,41.176471%,88.235294%);stroke-opacity:1;stroke-miterlimit:10;" d="M 493.480469 348.757812 L 478.0625 350.449219 L 462.644531 351.367188 L 447.226562 351.199219 L 431.808594 350 L 400.96875 346.34375 L 385.550781 345.117188 L 370.132812 344.910156 L 354.714844 345.792969 L 339.296875 347.46875 L 323.878906 349.371094 L 308.460938 350.859375 L 293.042969 351.429688 L 277.625 350.894531 L 262.207031 349.429688 L 246.789062 347.53125 L 231.371094 345.839844 L 215.953125 344.921875 L 200.535156 345.089844 L 185.117188 346.289062 L 154.277344 349.945312 L 138.859375 351.171875 L 123.441406 351.378906 L 108.023438 350.496094 L 92.605469 348.820312 L 77.1875 346.917969 L 61.769531 345.429688 L 46.351562 344.859375 L 30.933594 345.394531 L 15.515625 346.859375 L 0.0976562 348.757812 "/>
<path style="fill:none;stroke-width:2.100372;stroke-linecap:butt;stroke-linejoin:miter;stroke:rgb(25.490196%,41.176471%,88.235294%);stroke-opacity:1;stroke-miterlimit:10;" d="M 493.558594 354.097656 L 462.71875 357.589844 L 447.300781 358.3125 L 431.882812 357.933594 L 416.464844 356.578125 L 401.046875 354.703125 L 385.628906 352.941406 L 370.210938 351.886719 L 354.792969 351.894531 L 339.375 352.960938 L 308.535156 356.601562 L 293.117188 357.945312 L 277.699219 358.3125 L 262.28125 357.574219 L 246.863281 355.980469 L 216.023438 352.488281 L 200.605469 351.765625 L 185.1875 352.144531 L 169.769531 353.5 L 154.351562 355.375 L 138.933594 357.136719 L 123.515625 358.191406 L 108.097656 358.183594 L 92.679688 357.117188 L 61.839844 353.476562 L 46.421875 352.132812 L 31.003906 351.765625 L 15.585938 352.503906 L 0.167969 354.097656 "/>
<path style="fill:none;stroke-width:2.100372;stroke-linecap:butt;stroke-linejoin:miter;stroke:rgb(25.490196%,41.176471%,88.235294%);stroke-opacity:1;stroke-miterlimit:10;" d="M 494.34375 359.648438 L 463.503906 363.246094 L 448.085938 364.703125 L 432.667969 365.226562 L 417.25 364.640625 L 401.832031 363.144531 L 370.992188 359.574219 L 355.574219 358.703125 L 340.15625 358.921875 L 324.738281 360.160156 L 309.320312 361.996094 L 293.902344 363.8125 L 278.484375 365 L 263.066406 365.15625 L 247.648438 364.226562 L 216.808594 360.628906 L 201.390625 359.171875 L 185.972656 358.648438 L 170.554688 359.234375 L 155.136719 360.730469 L 124.296875 364.300781 L 108.878906 365.171875 L 93.460938 364.953125 L 78.042969 363.714844 L 62.625 361.878906 L 47.207031 360.0625 L 31.789062 358.875 L 16.371094 358.71875 L 0.953125 359.648438 "/>
<path style="fill:none;stroke-width:2.100372;stroke-linecap:butt;stroke-linejoin:miter;stroke:rgb(25.490196%,41.176471%,88.235294%);stroke-opacity:1;stroke-miterlimit:10;" d="M 495.660156 365.71875 L 480.242188 366.828125 L 464.824219 368.613281 L 449.40625 370.472656 L 433.988281 371.78125 L 418.570312 372.097656 L 403.152344 371.3125 L 372.3125 367.785156 L 356.894531 366.230469 L 341.476562 365.554688 L 326.058594 365.984375 L 310.640625 367.375 L 279.800781 371 L 264.382812 372.011719 L 248.964844 371.953125 L 233.546875 370.84375 L 218.128906 369.058594 L 202.710938 367.199219 L 187.292969 365.890625 L 171.875 365.574219 L 156.457031 366.359375 L 125.617188 369.886719 L 110.199219 371.441406 L 94.78125 372.117188 L 79.363281 371.6875 L 63.945312 370.296875 L 33.105469 366.671875 L 17.6875 365.660156 L 2.269531 365.71875 "/>
<path style="fill:none;stroke-width:2.100372;stroke-linecap:butt;stroke-linejoin:miter;stroke:rgb(25.490196%,41.176471%,88.235294%);stroke-opacity:1;stroke-miterlimit:10;" d="M 497.210938 372.480469 L 481.792969 372.75 L 466.375 374.027344 L 435.535156 377.679688 L 420.117188 378.824219 L 404.699219 378.925781 L 389.28125 377.953125 L 373.863281 376.230469 L 358.445312 374.339844 L 343.027344 372.917969 L 327.609375 372.445312 L 312.191406 373.078125 L 296.773438 374.605469 L 281.355469 376.511719 L 265.9375 378.15625 L 250.519531 378.980469 L 235.101562 378.710938 L 219.683594 377.433594 L 188.84375 373.78125 L 173.425781 372.636719 L 158.007812 372.535156 L 142.589844 373.507812 L 127.171875 375.230469 L 111.753906 377.121094 L 96.335938 378.542969 L 80.917969 379.015625 L 65.5 378.382812 L 50.082031 376.855469 L 34.664062 374.949219 L 19.246094 373.304688 L 3.828125 372.480469 "/>
<path style="fill:none;stroke-width:2.100372;stroke-linecap:butt;stroke-linejoin:miter;stroke:rgb(25.490196%,41.176471%,88.235294%);stroke-opacity:1;stroke-miterlimit:10;" d="M 498.648438 379.976562 L 483.230469 379.347656 L 467.8125 379.828125 L 452.394531 381.253906 L 436.976562 383.144531 L 421.558594 384.863281 L 406.140625 385.832031 L 390.722656 385.722656 L 375.304688 384.570312 L 344.464844 380.917969 L 329.046875 379.648438 L 313.628906 379.382812 L 298.210938 380.214844 L 282.792969 381.859375 L 267.375 383.765625 L 251.957031 385.289062 L 236.539062 385.917969 L 221.121094 385.4375 L 205.703125 384.011719 L 190.285156 382.121094 L 174.867188 380.402344 L 159.449219 379.433594 L 144.03125 379.542969 L 128.613281 380.695312 L 97.773438 384.347656 L 82.355469 385.617188 L 66.9375 385.882812 L 51.519531 385.050781 L 36.101562 383.40625 L 20.683594 381.5 L 5.265625 379.976562 "/>
<path style="fill:none;stroke-width:2.100372;stroke-linecap:butt;stroke-linejoin:miter;stroke:rgb(25.490196%,41.176471%,88.235294%);stroke-opacity:1;stroke-miterlimit:10;" d="M 499.652344 388.058594 L 484.234375 386.671875 L 468.816406 386.25 L 453.398438 386.933594 L 437.980469 388.492188 L 407.140625 392.015625 L 391.722656 392.792969 L 376.304688 392.472656 L 360.886719 391.160156 L 345.46875 389.296875 L 330.050781 387.511719 L 314.632812 386.40625 L 299.214844 386.355469 L 283.796875 387.371094 L 252.957031 390.996094 L 237.539062 392.382812 L 222.121094 392.804688 L 206.703125 392.121094 L 191.285156 390.5625 L 160.445312 387.039062 L 145.027344 386.261719 L 129.609375 386.582031 L 114.191406 387.894531 L 98.773438 389.757812 L 83.355469 391.542969 L 67.9375 392.648438 L 52.519531 392.699219 L 37.101562 391.683594 L 6.261719 388.058594 "/>
<path style="fill:none;stroke-width:2.100372;stroke-linecap:butt;stroke-linejoin:miter;stroke:rgb(25.490196%,41.176471%,88.235294%);stroke-opacity:1;stroke-miterlimit:10;" d="M 500 396.476562 L 484.582031 394.640625 L 469.164062 393.410156 L 453.746094 393.195312 L 438.328125 394.070312 L 407.488281 397.644531 L 392.070312 399.136719 L 376.652344 399.714844 L 361.234375 399.1875 L 345.816406 397.726562 L 314.976562 394.132812 L 299.558594 393.210938 L 284.140625 393.371094 L 268.722656 394.5625 L 253.304688 396.382812 L 237.886719 398.21875 L 222.46875 399.449219 L 207.050781 399.664062 L 191.632812 398.789062 L 160.792969 395.214844 L 145.375 393.722656 L 129.957031 393.144531 L 114.539062 393.671875 L 99.121094 395.132812 L 68.28125 398.726562 L 52.863281 399.648438 L 37.445312 399.488281 L 22.027344 398.296875 L 6.609375 396.476562 "/>
<path style="fill:none;stroke-width:2.100372;stroke-linecap:butt;stroke-linejoin:miter;stroke:rgb(25.490196%,41.176471%,88.235294%);stroke-opacity:1;stroke-miterlimit:10;" d="M 499.609375 404.875 L 468.769531 401.238281 L 453.351562 400.175781 L 437.933594 400.175781 L 422.515625 401.234375 L 407.097656 403 L 391.679688 404.875 L 376.261719 406.226562 L 360.84375 406.601562 L 345.425781 405.871094 L 314.585938 402.375 L 299.167969 400.785156 L 283.75 400.054688 L 268.332031 400.425781 L 252.914062 401.777344 L 222.074219 405.414062 L 206.65625 406.476562 L 191.238281 406.476562 L 175.820312 405.417969 L 160.402344 403.652344 L 144.984375 401.777344 L 129.566406 400.425781 L 114.148438 400.050781 L 98.730469 400.78125 L 67.890625 404.277344 L 52.472656 405.867188 L 37.054688 406.597656 L 21.636719 406.226562 L 6.21875 404.875 "/>
<path style="fill:none;stroke-width:2.100372;stroke-linecap:butt;stroke-linejoin:miter;stroke:rgb(25.490196%,41.176471%,88.235294%);stroke-opacity:1;stroke-miterlimit:10;" d="M 498.574219 412.925781 L 483.15625 411.433594 L 467.738281 409.53125 L 452.320312 407.859375 L 436.902344 406.980469 L 421.484375 407.191406 L 406.066406 408.421875 L 375.226562 412.078125 L 359.808594 413.269531 L 344.390625 413.433594 L 328.972656 412.511719 L 313.554688 410.816406 L 298.136719 408.917969 L 282.71875 407.457031 L 267.300781 406.925781 L 251.882812 407.503906 L 236.464844 408.996094 L 221.046875 410.898438 L 205.628906 412.570312 L 190.210938 413.449219 L 174.792969 413.238281 L 159.375 412.007812 L 128.535156 408.351562 L 113.117188 407.160156 L 97.699219 406.996094 L 82.28125 407.917969 L 66.863281 409.613281 L 51.445312 411.511719 L 36.027344 412.972656 L 20.609375 413.503906 L 5.191406 412.925781 "/>
<path style="fill:none;stroke-width:2.100372;stroke-linecap:butt;stroke-linejoin:miter;stroke:rgb(25.490196%,41.176471%,88.235294%);stroke-opacity:1;stroke-miterlimit:10;" d="M 497.121094 420.378906 L 481.703125 419.601562 L 466.285156 417.984375 L 450.867188 416.074219 L 435.449219 414.515625 L 420.03125 413.832031 L 404.613281 414.253906 L 389.195312 415.640625 L 373.777344 417.523438 L 358.359375 419.269531 L 342.941406 420.289062 L 327.523438 420.238281 L 312.105469 419.136719 L 281.265625 415.492188 L 265.847656 414.179688 L 250.429688 413.855469 L 235.011719 414.632812 L 219.59375 416.25 L 204.175781 418.160156 L 188.757812 419.71875 L 173.339844 420.402344 L 157.921875 419.980469 L 142.503906 418.59375 L 127.085938 416.710938 L 111.667969 414.964844 L 96.25 413.945312 L 80.832031 413.996094 L 65.414062 415.097656 L 34.574219 418.742188 L 19.15625 420.054688 L 3.738281 420.378906 "/>
<path style="fill:none;stroke-width:2.100372;stroke-linecap:butt;stroke-linejoin:miter;stroke:rgb(25.490196%,41.176471%,88.235294%);stroke-opacity:1;stroke-miterlimit:10;" d="M 495.574219 427.097656 L 480.15625 427.210938 L 464.738281 426.246094 L 433.898438 422.636719 L 418.480469 421.210938 L 403.0625 420.730469 L 387.644531 421.355469 L 372.226562 422.878906 L 341.386719 426.433594 L 325.96875 427.265625 L 310.550781 427.003906 L 295.132812 425.734375 L 279.714844 423.886719 L 264.296875 422.082031 L 248.878906 420.929688 L 233.460938 420.816406 L 218.042969 421.78125 L 187.203125 425.390625 L 171.785156 426.816406 L 156.367188 427.296875 L 140.949219 426.671875 L 125.53125 425.148438 L 94.691406 421.59375 L 79.273438 420.761719 L 63.855469 421.023438 L 48.4375 422.292969 L 33.019531 424.140625 L 17.601562 425.945312 L 2.183594 427.097656 "/>
<path style="fill:none;stroke-width:2.100372;stroke-linecap:butt;stroke-linejoin:miter;stroke:rgb(25.490196%,41.176471%,88.235294%);stroke-opacity:1;stroke-miterlimit:10;" d="M 494.28125 433.132812 L 478.863281 434.109375 L 463.445312 434.007812 L 448.027344 432.863281 L 432.609375 431.0625 L 417.191406 429.210938 L 401.773438 427.933594 L 386.355469 427.660156 L 370.9375 428.484375 L 340.097656 432.035156 L 324.679688 433.566406 L 309.261719 434.203125 L 293.84375 433.730469 L 278.425781 432.308594 L 247.585938 428.695312 L 232.167969 427.71875 L 216.75 427.820312 L 201.332031 428.964844 L 185.914062 430.765625 L 170.496094 432.617188 L 155.078125 433.894531 L 139.660156 434.167969 L 124.242188 433.34375 L 93.402344 429.792969 L 77.984375 428.261719 L 62.566406 427.625 L 47.148438 428.097656 L 31.730469 429.519531 L 0.890625 433.132812 "/>
<path style="fill:none;stroke-width:2.100372;stroke-linecap:butt;stroke-linejoin:miter;stroke:rgb(25.490196%,41.176471%,88.235294%);stroke-opacity:1;stroke-miterlimit:10;" d="M 493.535156 438.664062 L 478.117188 440.285156 L 462.699219 441.070312 L 447.28125 440.757812 L 431.863281 439.449219 L 401.023438 435.800781 L 385.605469 434.691406 L 370.1875 434.632812 L 354.769531 435.644531 L 339.351562 437.386719 L 323.933594 439.269531 L 308.515625 440.660156 L 293.097656 441.089844 L 277.679688 440.414062 L 262.261719 438.859375 L 246.84375 436.949219 L 231.425781 435.328125 L 216.007812 434.542969 L 200.589844 434.855469 L 185.171875 436.164062 L 154.332031 439.8125 L 138.914062 440.921875 L 123.496094 440.980469 L 108.078125 439.96875 L 92.660156 438.226562 L 77.242188 436.34375 L 61.824219 434.953125 L 46.40625 434.523438 L 30.988281 435.199219 L 15.570312 436.753906 L 0.152344 438.664062 "/>
<path style="fill:none;stroke-width:2.100372;stroke-linecap:butt;stroke-linejoin:miter;stroke:rgb(25.490196%,41.176471%,88.235294%);stroke-opacity:1;stroke-miterlimit:10;" d="M 493.496094 444.007812 L 478.078125 445.910156 L 462.660156 447.410156 L 447.242188 447.996094 L 431.824219 447.476562 L 416.40625 446.023438 L 400.988281 444.125 L 385.570312 442.425781 L 370.152344 441.496094 L 354.734375 441.648438 L 339.316406 442.832031 L 308.476562 446.488281 L 293.058594 447.726562 L 277.640625 447.949219 L 262.222656 447.078125 L 246.804688 445.410156 L 231.386719 443.507812 L 215.96875 442.007812 L 200.550781 441.421875 L 185.132812 441.941406 L 169.714844 443.394531 L 154.296875 445.292969 L 138.878906 446.992188 L 123.460938 447.921875 L 108.042969 447.769531 L 92.625 446.585938 L 61.785156 442.929688 L 46.367188 441.691406 L 30.949219 441.46875 L 15.53125 442.339844 L 0.113281 444.007812 "/>
<path style="fill:none;stroke-width:2.100372;stroke-linecap:butt;stroke-linejoin:miter;stroke:rgb(25.490196%,41.176471%,88.235294%);stroke-opacity:1;stroke-miterlimit:10;" d="M 494.179688 449.503906 L 463.339844 453.140625 L 447.921875 454.496094 L 432.503906 454.878906 L 417.085938 454.15625 L 401.667969 452.574219 L 370.828125 449.070312 L 355.410156 448.332031 L 339.992188 448.695312 L 324.574219 450.039062 L 309.15625 451.910156 L 293.738281 453.679688 L 278.320312 454.75 L 262.902344 454.757812 L 247.484375 453.703125 L 216.644531 450.066406 L 201.226562 448.710938 L 185.808594 448.328125 L 170.390625 449.050781 L 154.972656 450.632812 L 124.132812 454.136719 L 108.714844 454.875 L 93.296875 454.511719 L 77.878906 453.167969 L 62.460938 451.296875 L 47.042969 449.527344 L 31.625 448.457031 L 16.207031 448.449219 L 0.789062 449.503906 "/>
<path style="fill:none;stroke-width:2.100372;stroke-linecap:butt;stroke-linejoin:miter;stroke:rgb(25.490196%,41.176471%,88.235294%);stroke-opacity:1;stroke-miterlimit:10;" d="M 495.425781 455.46875 L 480.007812 456.691406 L 464.589844 458.523438 L 449.171875 460.347656 L 433.753906 461.546875 L 418.335938 461.71875 L 402.917969 460.804688 L 372.078125 457.214844 L 356.660156 455.75 L 341.242188 455.210938 L 325.824219 455.78125 L 310.40625 457.269531 L 279.566406 460.847656 L 264.148438 461.734375 L 248.730469 461.53125 L 233.3125 460.308594 L 217.894531 458.476562 L 202.476562 456.652344 L 187.058594 455.453125 L 171.640625 455.28125 L 156.222656 456.195312 L 125.382812 459.785156 L 109.964844 461.25 L 94.546875 461.789062 L 79.128906 461.21875 L 63.710938 459.730469 L 32.871094 456.152344 L 17.453125 455.265625 L 2.035156 455.46875 "/>
<path style="fill:none;stroke-width:2.100372;stroke-linecap:butt;stroke-linejoin:miter;stroke:rgb(25.490196%,41.176471%,88.235294%);stroke-opacity:1;stroke-miterlimit:10;" d="M 496.960938 462.113281 L 481.542969 462.527344 L 466.125 463.90625 L 435.285156 467.535156 L 419.867188 468.5625 L 404.449219 468.519531 L 389.03125 467.421875 L 373.613281 465.640625 L 358.195312 463.777344 L 342.777344 462.457031 L 327.359375 462.125 L 311.941406 462.894531 L 281.101562 466.414062 L 265.683594 467.976562 L 250.265625 468.667969 L 234.847656 468.253906 L 219.429688 466.875 L 188.589844 463.246094 L 173.171875 462.21875 L 157.753906 462.261719 L 142.335938 463.359375 L 126.917969 465.140625 L 111.5 467.003906 L 96.082031 468.324219 L 80.664062 468.65625 L 65.246094 467.886719 L 34.40625 464.367188 L 18.988281 462.804688 L 3.570312 462.113281 "/>
<path style="fill:none;stroke-width:2.100372;stroke-linecap:butt;stroke-linejoin:miter;stroke:rgb(25.490196%,41.176471%,88.235294%);stroke-opacity:1;stroke-miterlimit:10;" d="M 498.441406 469.492188 L 483.023438 469.003906 L 467.605469 469.621094 L 452.1875 471.140625 L 436.769531 473.046875 L 421.351562 474.699219 L 405.933594 475.539062 L 390.515625 475.285156 L 375.097656 474.023438 L 344.257812 470.371094 L 328.839844 469.210938 L 313.421875 469.089844 L 298.003906 470.050781 L 282.585938 471.765625 L 267.167969 473.660156 L 251.75 475.09375 L 236.332031 475.582031 L 220.914062 474.964844 L 205.496094 473.445312 L 190.078125 471.539062 L 174.660156 469.886719 L 159.242188 469.046875 L 143.824219 469.300781 L 128.40625 470.5625 L 97.566406 474.214844 L 82.148438 475.375 L 66.730469 475.496094 L 51.3125 474.535156 L 35.894531 472.820312 L 20.476562 470.925781 L 5.058594 469.492188 "/>
<path style="fill:none;stroke-width:2.100372;stroke-linecap:butt;stroke-linejoin:miter;stroke:rgb(25.490196%,41.176471%,88.235294%);stroke-opacity:1;stroke-miterlimit:10;" d="M 499.53125 477.5 L 484.113281 476.21875 L 468.695312 475.9375 L 453.277344 476.753906 L 437.859375 478.390625 L 422.441406 480.296875 L 407.023438 481.832031 L 391.605469 482.476562 L 376.1875 482.011719 L 360.769531 480.597656 L 345.351562 478.707031 L 329.933594 476.980469 L 314.515625 476 L 299.097656 476.09375 L 283.679688 477.230469 L 252.839844 480.882812 L 237.421875 482.164062 L 222.003906 482.445312 L 206.585938 481.628906 L 191.167969 479.992188 L 175.75 478.085938 L 160.332031 476.550781 L 144.914062 475.90625 L 129.496094 476.371094 L 114.078125 477.785156 L 98.660156 479.675781 L 83.242188 481.402344 L 67.824219 482.382812 L 52.40625 482.289062 L 36.988281 481.152344 L 6.148438 477.5 "/>
<path style="fill:none;stroke-width:2.100372;stroke-linecap:butt;stroke-linejoin:miter;stroke:rgb(25.490196%,41.176471%,88.235294%);stroke-opacity:1;stroke-miterlimit:10;" d="M 499.992188 485.886719 L 484.574219 484.097656 L 469.15625 482.980469 L 453.738281 482.910156 L 438.320312 483.914062 L 407.480469 487.535156 L 392.0625 488.933594 L 376.644531 489.375 L 361.226562 488.707031 L 345.808594 487.160156 L 314.96875 483.625 L 299.550781 482.832031 L 284.132812 483.136719 L 268.714844 484.4375 L 253.296875 486.296875 L 237.878906 488.085938 L 222.460938 489.203125 L 207.042969 489.273438 L 191.625 488.269531 L 160.785156 484.648438 L 145.367188 483.25 L 129.949219 482.808594 L 114.53125 483.476562 L 99.113281 485.023438 L 68.273438 488.558594 L 52.855469 489.351562 L 37.4375 489.046875 L 22.019531 487.746094 L 6.601562 485.886719 "/>
<path style="fill:none;stroke-width:2.100372;stroke-linecap:butt;stroke-linejoin:miter;stroke:rgb(25.490196%,41.176471%,88.235294%);stroke-opacity:1;stroke-miterlimit:10;" d="M 499.722656 494.316406 L 468.882812 490.714844 L 453.464844 489.777344 L 438.046875 489.921875 L 422.628906 491.101562 L 407.210938 492.917969 L 391.792969 494.757812 L 376.375 496.003906 L 360.957031 496.234375 L 345.539062 495.371094 L 314.699219 491.804688 L 299.28125 490.300781 L 283.863281 489.707031 L 268.445312 490.21875 L 253.027344 491.667969 L 222.1875 495.269531 L 206.769531 496.207031 L 191.351562 496.0625 L 175.933594 494.882812 L 160.515625 493.066406 L 145.097656 491.226562 L 129.679688 489.980469 L 114.261719 489.75 L 98.84375 490.613281 L 68.003906 494.179688 L 52.585938 495.683594 L 37.167969 496.277344 L 21.75 495.765625 L 6.332031 494.316406 "/>
<path style="fill:none;stroke-width:2.100372;stroke-linecap:butt;stroke-linejoin:miter;stroke:rgb(25.490196%,41.176471%,88.235294%);stroke-opacity:1;stroke-miterlimit:10;" d="M 498.773438 502.445312 L 483.355469 500.867188 L 467.9375 498.957031 L 452.519531 497.359375 L 437.101562 496.613281 L 421.683594 496.96875 L 406.265625 498.308594 L 375.425781 501.949219 L 360.007812 503.023438 L 344.589844 503.039062 L 329.171875 501.992188 L 313.753906 500.234375 L 298.335938 498.359375 L 282.917969 496.996094 L 267.5 496.605469 L 252.082031 497.320312 L 236.664062 498.898438 L 221.246094 500.808594 L 205.828125 502.40625 L 190.410156 503.152344 L 174.992188 502.796875 L 159.574219 501.457031 L 128.734375 497.816406 L 113.316406 496.742188 L 97.898438 496.726562 L 82.480469 497.773438 L 67.0625 499.53125 L 51.644531 501.40625 L 36.226562 502.769531 L 20.808594 503.160156 L 5.390625 502.445312 "/>
<path style="fill:none;stroke-width:2.100372;stroke-linecap:butt;stroke-linejoin:miter;stroke:rgb(25.490196%,41.176471%,88.235294%);stroke-opacity:1;stroke-miterlimit:10;" d="M 497.367188 510.003906 L 481.949219 509.097656 L 466.53125 507.410156 L 451.113281 505.511719 L 435.695312 504.039062 L 420.277344 503.492188 L 404.859375 504.054688 L 389.441406 505.535156 L 374.023438 507.4375 L 358.605469 509.117188 L 343.1875 510.011719 L 327.769531 509.816406 L 312.351562 508.597656 L 281.511719 504.941406 L 266.09375 503.734375 L 250.675781 503.554688 L 235.257812 504.460938 L 219.839844 506.148438 L 204.421875 508.046875 L 189.003906 509.519531 L 173.585938 510.066406 L 158.167969 509.503906 L 142.75 508.023438 L 127.332031 506.121094 L 111.914062 504.441406 L 96.496094 503.546875 L 81.078125 503.742188 L 65.660156 504.960938 L 34.820312 508.617188 L 19.402344 509.824219 L 3.984375 510.003906 "/>
<path style="fill:none;stroke-width:2.100372;stroke-linecap:butt;stroke-linejoin:miter;stroke:rgb(25.490196%,41.176471%,88.235294%);stroke-opacity:1;stroke-miterlimit:10;" d="M 495.8125 516.839844 L 480.394531 516.804688 L 464.976562 515.714844 L 434.136719 512.070312 L 418.71875 510.742188 L 403.300781 510.402344 L 387.882812 511.164062 L 372.464844 512.769531 L 357.046875 514.679688 L 341.628906 516.25 L 326.210938 516.949219 L 310.792969 516.542969 L 295.375 515.167969 L 279.957031 513.289062 L 264.539062 511.539062 L 249.121094 510.507812 L 233.703125 510.542969 L 218.285156 511.632812 L 187.445312 515.277344 L 172.027344 516.605469 L 156.609375 516.945312 L 141.191406 516.183594 L 125.773438 514.578125 L 110.355469 512.667969 L 94.9375 511.097656 L 79.519531 510.398438 L 64.101562 510.804688 L 48.683594 512.179688 L 33.265625 514.058594 L 17.847656 515.808594 L 2.429688 516.839844 "/>
<path style="fill:none;stroke-width:2.100372;stroke-linecap:butt;stroke-linejoin:miter;stroke:rgb(25.490196%,41.176471%,88.235294%);stroke-opacity:1;stroke-miterlimit:10;" d="M 494.457031 522.96875 L 479.039062 523.816406 L 463.621094 523.570312 L 448.203125 522.3125 L 432.785156 520.46875 L 417.367188 518.660156 L 401.949219 517.496094 L 386.53125 517.367188 L 371.113281 518.320312 L 340.273438 521.925781 L 324.855469 523.363281 L 309.4375 523.859375 L 294.019531 523.25 L 278.601562 521.738281 L 247.761719 518.175781 L 232.34375 517.328125 L 216.925781 517.574219 L 201.507812 518.832031 L 186.089844 520.675781 L 170.671875 522.484375 L 155.253906 523.648438 L 139.835938 523.777344 L 124.417969 522.824219 L 93.578125 519.21875 L 78.160156 517.78125 L 62.742188 517.285156 L 47.324219 517.894531 L 31.90625 519.40625 L 1.066406 522.96875 "/>
<path style="fill:none;stroke-width:2.100372;stroke-linecap:butt;stroke-linejoin:miter;stroke:rgb(25.490196%,41.176471%,88.235294%);stroke-opacity:1;stroke-miterlimit:10;" d="M 493.609375 528.566406 L 478.191406 530.105469 L 462.773438 530.757812 L 447.355469 530.300781 L 431.9375 528.890625 L 401.097656 525.273438 L 385.679688 524.285156 L 370.261719 524.371094 L 354.84375 525.5 L 339.425781 527.296875 L 324.007812 529.152344 L 308.589844 530.441406 L 293.171875 530.730469 L 277.753906 529.921875 L 246.914062 526.378906 L 231.496094 524.839844 L 216.078125 524.1875 L 200.660156 524.644531 L 185.242188 526.054688 L 154.402344 529.671875 L 138.984375 530.660156 L 123.566406 530.574219 L 108.148438 529.445312 L 92.730469 527.648438 L 77.3125 525.792969 L 61.894531 524.503906 L 46.476562 524.214844 L 31.058594 525.023438 L 0.21875 528.566406 "/>
<path style="fill:none;stroke-width:2.100372;stroke-linecap:butt;stroke-linejoin:miter;stroke:rgb(25.490196%,41.176471%,88.235294%);stroke-opacity:1;stroke-miterlimit:10;" d="M 493.453125 533.917969 L 478.035156 535.804688 L 462.617188 537.207031 L 447.199219 537.65625 L 431.78125 536.996094 L 416.363281 535.453125 L 400.945312 533.542969 L 385.527344 531.914062 L 370.109375 531.113281 L 354.691406 531.410156 L 339.273438 532.707031 L 308.433594 536.355469 L 293.015625 537.480469 L 277.597656 537.558594 L 262.179688 536.5625 L 246.761719 534.828125 L 231.34375 532.941406 L 215.925781 531.539062 L 200.507812 531.089844 L 185.089844 531.75 L 169.671875 533.292969 L 154.253906 535.203125 L 138.835938 536.832031 L 123.417969 537.632812 L 108 537.335938 L 92.582031 536.039062 L 61.742188 532.390625 L 46.324219 531.265625 L 30.90625 531.1875 L 15.488281 532.183594 L 0.0703125 533.917969 "/>
<path style="fill:none;stroke-width:2.100372;stroke-linecap:butt;stroke-linejoin:miter;stroke:rgb(25.490196%,41.176471%,88.235294%);stroke-opacity:1;stroke-miterlimit:10;" d="M 494.027344 539.371094 L 463.1875 543.023438 L 447.769531 544.273438 L 432.351562 544.511719 L 416.933594 543.65625 L 401.515625 541.996094 L 386.097656 540.089844 L 370.679688 538.582031 L 355.261719 537.980469 L 339.84375 538.484375 L 324.425781 539.925781 L 309.007812 541.820312 L 293.589844 543.527344 L 278.171875 544.472656 L 262.753906 544.335938 L 247.335938 543.164062 L 216.496094 539.511719 L 201.078125 538.261719 L 185.660156 538.023438 L 170.242188 538.878906 L 154.824219 540.539062 L 139.40625 542.445312 L 123.988281 543.953125 L 108.570312 544.554688 L 93.152344 544.050781 L 77.734375 542.609375 L 62.316406 540.714844 L 46.898438 539.007812 L 31.480469 538.0625 L 16.0625 538.199219 L 0.644531 539.371094 "/>
<path style="fill:none;stroke-width:2.100372;stroke-linecap:butt;stroke-linejoin:miter;stroke:rgb(25.490196%,41.176471%,88.235294%);stroke-opacity:1;stroke-miterlimit:10;" d="M 495.199219 545.246094 L 479.78125 546.578125 L 464.363281 548.445312 L 448.945312 550.21875 L 433.527344 551.300781 L 418.109375 551.328125 L 402.691406 550.289062 L 371.851562 546.65625 L 356.433594 545.289062 L 341.015625 544.890625 L 325.597656 545.597656 L 310.179688 547.171875 L 279.339844 550.683594 L 263.921875 551.4375 L 248.503906 551.089844 L 233.085938 549.757812 L 217.667969 547.890625 L 202.25 546.117188 L 186.832031 545.035156 L 171.414062 545.007812 L 155.996094 546.046875 L 125.15625 549.679688 L 109.738281 551.046875 L 94.320312 551.445312 L 78.902344 550.738281 L 63.484375 549.164062 L 32.644531 545.652344 L 17.226562 544.898438 L 1.808594 545.246094 "/>
<path style="fill-rule:nonzero;fill:rgb(100%,100%,100%);fill-opacity:1;stroke-width:1.48027;stroke-linecap:butt;stroke-linejoin:miter;stroke:rgb(25.490196%,41.176471%,88.235294%);stroke-opacity:1;stroke-miterlimit:10;" d="M 266.449219 425.800781 C 268.160156 424.429688 269.875 423.0625 271.585938 421.691406 C 278.164062 429.914062 284.742188 438.140625 291.324219 446.363281 C 291.324219 447.734375 291.324219 449.101562 291.324219 450.472656 C 284.746094 458.695312 278.167969 466.921875 271.585938 475.144531 C 269.875 473.773438 268.160156 472.40625 266.449219 471.035156 C 272.480469 463.496094 278.511719 455.957031 284.542969 448.417969 C 278.511719 440.878906 272.480469 433.339844 266.449219 425.800781 Z M 279.605469 425.800781 C 281.316406 424.429688 283.03125 423.0625 284.742188 421.691406 C 297.898438 438.140625 311.058594 454.585938 324.214844 471.035156 C 322.503906 472.40625 320.789062 473.773438 319.078125 475.144531 C 313.355469 467.992188 307.632812 460.835938 301.910156 453.683594 C 296.1875 460.835938 290.464844 467.992188 284.742188 475.144531 C 283.03125 473.773438 281.316406 472.40625 279.605469 471.035156 C 285.636719 463.496094 291.667969 455.957031 297.699219 448.417969 C 291.667969 440.878906 285.636719 433.339844 279.605469 425.800781 Z M 305.199219 439.371094 C 315.066406 439.371094 324.9375 439.371094 334.804688 439.371094 C 334.804688 441.5625 334.804688 443.757812 334.804688 445.949219 C 324.9375 445.949219 315.066406 445.949219 305.199219 445.949219 C 305.199219 443.757812 305.199219 441.5625 305.199219 439.371094 Z M 313.425781 448.089844 C 320.554688 448.089844 327.679688 448.089844 334.808594 448.089844 C 334.808594 450.28125 334.808594 452.476562 334.808594 454.667969 C 327.679688 454.667969 320.554688 454.667969 313.425781 454.667969 C 313.425781 452.476562 313.425781 450.28125 313.425781 448.089844 Z M 313.425781 448.089844 "/>
<path style="fill-rule:nonzero;fill:rgb(100%,100%,100%);fill-opacity:1;stroke-width:1.48027;stroke-linecap:butt;stroke-linejoin:miter;stroke:rgb(25.490196%,41.176471%,88.235294%);stroke-opacity:1;stroke-miterlimit:10;" d="M 266.449219 339.453125 C 268.160156 338.082031 269.875 336.714844 271.585938 335.34375 C 278.164062 343.566406 284.742188 351.792969 291.324219 360.015625 C 291.324219 361.386719 291.324219 362.753906 291.324219 364.125 C 284.746094 372.347656 278.167969 380.574219 271.585938 388.796875 C 269.875 387.425781 268.160156 386.058594 266.449219 384.6875 C 272.480469 377.148438 278.511719 369.609375 284.542969 362.070312 C 278.511719 354.53125 272.480469 346.992188 266.449219 339.453125 Z M 279.605469 339.453125 C 281.316406 338.082031 283.03125 336.714844 284.742188 335.34375 C 297.898438 351.792969 311.058594 368.238281 324.214844 384.6875 C 322.503906 386.058594 320.789062 387.425781 319.078125 388.796875 C 313.355469 381.644531 307.632812 374.488281 301.910156 367.335938 C 296.1875 374.488281 290.464844 381.644531 284.742188 388.796875 C 283.03125 387.425781 281.316406 386.058594 279.605469 384.6875 C 285.636719 377.148438 291.667969 369.609375 297.699219 362.070312 C 291.667969 354.53125 285.636719 346.992188 279.605469 339.453125 Z M 305.199219 353.023438 C 315.066406 353.023438 324.9375 353.023438 334.804688 353.023438 C 334.804688 355.214844 334.804688 357.410156 334.804688 359.601562 C 324.9375 359.601562 315.066406 359.601562 305.199219 359.601562 C 305.199219 357.410156 305.199219 355.214844 305.199219 353.023438 Z M 313.425781 361.742188 C 320.554688 361.742188 327.679688 361.742188 334.808594 361.742188 C 334.808594 363.933594 334.808594 366.128906 334.808594 368.320312 C 327.679688 368.320312 320.554688 368.320312 313.425781 368.320312 C 313.425781 366.128906 313.425781 363.933594 313.425781 361.742188 Z M 313.425781 361.742188 "/>
<path style="fill-rule:nonzero;fill:rgb(100%,100%,100%);fill-opacity:1;stroke-width:1.48027;stroke-linecap:butt;stroke-linejoin:miter;stroke:rgb(25.490196%,41.176471%,88.235294%);stroke-opacity:1;stroke-miterlimit:10;" d="M 266.449219 253.105469 C 268.160156 251.734375 269.875 250.367188 271.585938 248.996094 C 278.164062 257.21875 284.742188 265.445312 291.324219 273.667969 C 291.324219 275.039062 291.324219 276.40625 291.324219 277.777344 C 284.746094 286 278.167969 294.226562 271.585938 302.449219 C 269.875 301.078125 268.160156 299.710938 266.449219 298.339844 C 272.480469 290.800781 278.511719 283.261719 284.542969 275.722656 C 278.511719 268.183594 272.480469 260.644531 266.449219 253.105469 Z M 279.605469 253.105469 C 281.316406 251.734375 283.03125 250.367188 284.742188 248.996094 C 297.898438 265.445312 311.058594 281.890625 324.214844 298.339844 C 322.503906 299.710938 320.789062 301.078125 319.078125 302.449219 C 313.355469 295.296875 307.632812 288.140625 301.910156 280.988281 C 296.1875 288.140625 290.464844 295.296875 284.742188 302.449219 C 283.03125 301.078125 281.316406 299.710938 279.605469 298.339844 C 285.636719 290.800781 291.667969 283.261719 297.699219 275.722656 C 291.667969 268.183594 285.636719 260.644531 279.605469 253.105469 Z M 305.199219 266.675781 C 315.066406 266.675781 324.9375 266.675781 334.804688 266.675781 C 334.804688 268.867188 334.804688 271.0625 334.804688 273.253906 C 324.9375 273.253906 315.066406 273.253906 305.199219 273.253906 C 305.199219 271.0625 305.199219 268.867188 305.199219 266.675781 Z M 313.425781 275.394531 C 320.554688 275.394531 327.679688 275.394531 334.808594 275.394531 C 334.808594 277.585938 334.808594 279.78125 334.808594 281.972656 C 327.679688 281.972656 320.554688 281.972656 313.425781 281.972656 C 313.425781 279.78125 313.425781 277.585938 313.425781 275.394531 Z M 313.425781 275.394531 "/>
<path style="fill-rule:nonzero;fill:rgb(100%,100%,100%);fill-opacity:1;stroke-width:1.48027;stroke-linecap:butt;stroke-linejoin:miter;stroke:rgb(25.490196%,41.176471%,88.235294%);stroke-opacity:1;stroke-miterlimit:10;" d="M 266.449219 166.757812 C 268.160156 165.386719 269.875 164.019531 271.585938 162.648438 C 278.164062 170.871094 284.742188 179.097656 291.324219 187.320312 C 291.324219 188.691406 291.324219 190.058594 291.324219 191.429688 C 284.746094 199.652344 278.167969 207.878906 271.585938 216.101562 C 269.875 214.730469 268.160156 213.363281 266.449219 211.992188 C 272.480469 204.453125 278.511719 196.914062 284.542969 189.375 C 278.511719 181.835938 272.480469 174.296875 266.449219 166.757812 Z M 279.605469 166.757812 C 281.316406 165.386719 283.03125 164.019531 284.742188 162.648438 C 297.898438 179.097656 311.058594 195.542969 324.214844 211.992188 C 322.503906 213.363281 320.789062 214.730469 319.078125 216.101562 C 313.355469 208.949219 307.632812 201.792969 301.910156 194.640625 C 296.1875 201.792969 290.464844 208.949219 284.742188 216.101562 C 283.03125 214.730469 281.316406 213.363281 279.605469 211.992188 C 285.636719 204.453125 291.667969 196.914062 297.699219 189.375 C 291.667969 181.835938 285.636719 174.296875 279.605469 166.757812 Z M 305.199219 180.328125 C 315.066406 180.328125 324.9375 180.328125 334.804688 180.328125 C 334.804688 182.519531 334.804688 184.714844 334.804688 186.90625 C 324.9375 186.90625 315.066406 186.90625 305.199219 186.90625 C 305.199219 184.714844 305.199219 182.519531 305.199219 180.328125 Z M 313.425781 189.046875 C 320.554688 189.046875 327.679688 189.046875 334.808594 189.046875 C 334.808594 191.238281 334.808594 193.433594 334.808594 195.625 C 327.679688 195.625 320.554688 195.625 313.425781 195.625 C 313.425781 193.433594 313.425781 191.238281 313.425781 189.046875 Z M 313.425781 189.046875 "/>
<path style="fill-rule:nonzero;fill:rgb(100%,100%,100%);fill-opacity:1;stroke-width:1.48027;stroke-linecap:butt;stroke-linejoin:miter;stroke:rgb(25.490196%,41.176471%,88.235294%);stroke-opacity:1;stroke-miterlimit:10;" d="M 266.449219 80.414062 C 268.160156 79.042969 269.875 77.675781 271.585938 76.304688 C 278.164062 84.527344 284.742188 92.753906 291.324219 100.976562 C 291.324219 102.347656 291.324219 103.714844 291.324219 105.085938 C 284.746094 113.308594 278.167969 121.535156 271.585938 129.757812 C 269.875 128.386719 268.160156 127.019531 266.449219 125.648438 C 272.480469 118.109375 278.511719 110.570312 284.542969 103.03125 C 278.511719 95.492188 272.480469 87.953125 266.449219 80.414062 Z M 279.605469 80.414062 C 281.316406 79.042969 283.03125 77.675781 284.742188 76.304688 C 297.898438 92.753906 311.058594 109.199219 324.214844 125.648438 C 322.503906 127.019531 320.789062 128.386719 319.078125 129.757812 C 313.355469 122.605469 307.632812 115.449219 301.910156 108.296875 C 296.1875 115.449219 290.464844 122.605469 284.742188 129.757812 C 283.03125 128.386719 281.316406 127.019531 279.605469 125.648438 C 285.636719 118.109375 291.667969 110.570312 297.699219 103.03125 C 291.667969 95.492188 285.636719 87.953125 279.605469 80.414062 Z M 305.199219 93.984375 C 315.066406 93.984375 324.9375 93.984375 334.804688 93.984375 C 334.804688 96.175781 334.804688 98.371094 334.804688 100.5625 C 324.9375 100.5625 315.066406 100.5625 305.199219 100.5625 C 305.199219 98.371094 305.199219 96.175781 305.199219 93.984375 Z M 313.425781 102.699219 C 320.554688 102.699219 327.679688 102.699219 334.808594 102.699219 C 334.808594 104.890625 334.808594 107.085938 334.808594 109.277344 C 327.679688 109.277344 320.554688 109.277344 313.425781 109.277344 C 313.425781 107.085938 313.425781 104.890625 313.425781 102.699219 Z M 313.425781 102.699219 "/>
<path style="fill-rule:nonzero;fill:rgb(100%,100%,100%);fill-opacity:1;stroke-width:1.48027;stroke-linecap:butt;stroke-linejoin:miter;stroke:rgb(25.490196%,41.176471%,88.235294%);stroke-opacity:1;stroke-miterlimit:10;" d="M 165.195312 425.800781 C 166.90625 424.429688 168.621094 423.0625 170.332031 421.691406 C 176.910156 429.914062 183.488281 438.140625 190.070312 446.363281 C 190.070312 447.734375 190.070312 449.101562 190.070312 450.472656 C 183.492188 458.695312 176.914062 466.921875 170.332031 475.144531 C 168.621094 473.773438 166.90625 472.40625 165.195312 471.035156 C 171.226562 463.496094 177.257812 455.957031 183.289062 448.417969 C 177.257812 440.878906 171.226562 433.339844 165.195312 425.800781 Z M 178.351562 425.800781 C 180.0625 424.429688 181.777344 423.0625 183.488281 421.691406 C 196.644531 438.140625 209.804688 454.585938 222.960938 471.035156 C 221.25 472.40625 219.535156 473.773438 217.824219 475.144531 C 212.101562 467.992188 206.378906 460.835938 200.65625 453.683594 C 194.933594 460.835938 189.210938 467.992188 183.488281 475.144531 C 181.777344 473.773438 180.0625 472.40625 178.351562 471.035156 C 184.382812 463.496094 190.414062 455.957031 196.445312 448.417969 C 190.414062 440.878906 184.382812 433.339844 178.351562 425.800781 Z M 203.945312 439.371094 C 213.8125 439.371094 223.683594 439.371094 233.550781 439.371094 C 233.550781 441.5625 233.550781 443.757812 233.550781 445.949219 C 223.683594 445.949219 213.8125 445.949219 203.945312 445.949219 C 203.945312 443.757812 203.945312 441.5625 203.945312 439.371094 Z M 212.171875 448.089844 C 219.300781 448.089844 226.425781 448.089844 233.554688 448.089844 C 233.554688 450.28125 233.554688 452.476562 233.554688 454.667969 C 226.425781 454.667969 219.300781 454.667969 212.171875 454.667969 C 212.171875 452.476562 212.171875 450.28125 212.171875 448.089844 Z M 212.171875 448.089844 "/>
<path style="fill-rule:nonzero;fill:rgb(100%,100%,100%);fill-opacity:1;stroke-width:1.48027;stroke-linecap:butt;stroke-linejoin:miter;stroke:rgb(25.490196%,41.176471%,88.235294%);stroke-opacity:1;stroke-miterlimit:10;" d="M 165.195312 339.453125 C 166.90625 338.082031 168.621094 336.714844 170.332031 335.34375 C 176.910156 343.566406 183.488281 351.792969 190.070312 360.015625 C 190.070312 361.386719 190.070312 362.753906 190.070312 364.125 C 183.492188 372.347656 176.914062 380.574219 170.332031 388.796875 C 168.621094 387.425781 166.90625 386.058594 165.195312 384.6875 C 171.226562 377.148438 177.257812 369.609375 183.289062 362.070312 C 177.257812 354.53125 171.226562 346.992188 165.195312 339.453125 Z M 178.351562 339.453125 C 180.0625 338.082031 181.777344 336.714844 183.488281 335.34375 C 196.644531 351.792969 209.804688 368.238281 222.960938 384.6875 C 221.25 386.058594 219.535156 387.425781 217.824219 388.796875 C 212.101562 381.644531 206.378906 374.488281 200.65625 367.335938 C 194.933594 374.488281 189.210938 381.644531 183.488281 388.796875 C 181.777344 387.425781 180.0625 386.058594 178.351562 384.6875 C 184.382812 377.148438 190.414062 369.609375 196.445312 362.070312 C 190.414062 354.53125 184.382812 346.992188 178.351562 339.453125 Z M 203.945312 353.023438 C 213.8125 353.023438 223.683594 353.023438 233.550781 353.023438 C 233.550781 355.214844 233.550781 357.410156 233.550781 359.601562 C 223.683594 359.601562 213.8125 359.601562 203.945312 359.601562 C 203.945312 357.410156 203.945312 355.214844 203.945312 353.023438 Z M 212.171875 361.742188 C 219.300781 361.742188 226.425781 361.742188 233.554688 361.742188 C 233.554688 363.933594 233.554688 366.128906 233.554688 368.320312 C 226.425781 368.320312 219.300781 368.320312 212.171875 368.320312 C 212.171875 366.128906 212.171875 363.933594 212.171875 361.742188 Z M 212.171875 361.742188 "/>
<path style="fill-rule:nonzero;fill:rgb(100%,100%,100%);fill-opacity:1;stroke-width:1.48027;stroke-linecap:butt;stroke-linejoin:miter;stroke:rgb(25.490196%,41.176471%,88.235294%);stroke-opacity:1;stroke-miterlimit:10;" d="M 165.195312 253.105469 C 166.90625 251.734375 168.621094 250.367188 170.332031 248.996094 C 176.910156 257.21875 183.488281 265.445312 190.070312 273.667969 C 190.070312 275.039062 190.070312 276.40625 190.070312 277.777344 C 183.492188 286 176.914062 294.226562 170.332031 302.449219 C 168.621094 301.078125 166.90625 299.710938 165.195312 298.339844 C 171.226562 290.800781 177.257812 283.261719 183.289062 275.722656 C 177.257812 268.183594 171.226562 260.644531 165.195312 253.105469 Z M 178.351562 253.105469 C 180.0625 251.734375 181.777344 250.367188 183.488281 248.996094 C 196.644531 265.445312 209.804688 281.890625 222.960938 298.339844 C 221.25 299.710938 219.535156 301.078125 217.824219 302.449219 C 212.101562 295.296875 206.378906 288.140625 200.65625 280.988281 C 194.933594 288.140625 189.210938 295.296875 183.488281 302.449219 C 181.777344 301.078125 180.0625 299.710938 178.351562 298.339844 C 184.382812 290.800781 190.414062 283.261719 196.445312 275.722656 C 190.414062 268.183594 184.382812 260.644531 178.351562 253.105469 Z M 203.945312 266.675781 C 213.8125 266.675781 223.683594 266.675781 233.550781 266.675781 C 233.550781 268.867188 233.550781 271.0625 233.550781 273.253906 C 223.683594 273.253906 213.8125 273.253906 203.945312 273.253906 C 203.945312 271.0625 203.945312 268.867188 203.945312 266.675781 Z M 212.171875 275.394531 C 219.300781 275.394531 226.425781 275.394531 233.554688 275.394531 C 233.554688 277.585938 233.554688 279.78125 233.554688 281.972656 C 226.425781 281.972656 219.300781 281.972656 212.171875 281.972656 C 212.171875 279.78125 212.171875 277.585938 212.171875 275.394531 Z M 212.171875 275.394531 "/>
<path style="fill-rule:nonzero;fill:rgb(100%,100%,100%);fill-opacity:1;stroke-width:1.48027;stroke-linecap:butt;stroke-linejoin:miter;stroke:rgb(25.490196%,41.176471%,88.235294%);stroke-opacity:1;stroke-miterlimit:10;" d="M 165.195312 166.757812 C 166.90625 165.386719 168.621094 164.019531 170.332031 162.648438 C 176.910156 170.871094 183.488281 179.097656 190.070312 187.320312 C 190.070312 188.691406 190.070312 190.058594 190.070312 191.429688 C 183.492188 199.652344 176.914062 207.878906 170.332031 216.101562 C 168.621094 214.730469 166.90625 213.363281 165.195312 211.992188 C 171.226562 204.453125 177.257812 196.914062 183.289062 189.375 C 177.257812 181.835938 171.226562 174.296875 165.195312 166.757812 Z M 178.351562 166.757812 C 180.0625 165.386719 181.777344 164.019531 183.488281 162.648438 C 196.644531 179.097656 209.804688 195.542969 222.960938 211.992188 C 221.25 213.363281 219.535156 214.730469 217.824219 216.101562 C 212.101562 208.949219 206.378906 201.792969 200.65625 194.640625 C 194.933594 201.792969 189.210938 208.949219 183.488281 216.101562 C 181.777344 214.730469 180.0625 213.363281 178.351562 211.992188 C 184.382812 204.453125 190.414062 196.914062 196.445312 189.375 C 190.414062 181.835938 184.382812 174.296875 178.351562 166.757812 Z M 203.945312 180.328125 C 213.8125 180.328125 223.683594 180.328125 233.550781 180.328125 C 233.550781 182.519531 233.550781 184.714844 233.550781 186.90625 C 223.683594 186.90625 213.8125 186.90625 203.945312 186.90625 C 203.945312 184.714844 203.945312 182.519531 203.945312 180.328125 Z M 212.171875 189.046875 C 219.300781 189.046875 226.425781 189.046875 233.554688 189.046875 C 233.554688 191.238281 233.554688 193.433594 233.554688 195.625 C 226.425781 195.625 219.300781 195.625 212.171875 195.625 C 212.171875 193.433594 212.171875 191.238281 212.171875 189.046875 Z M 212.171875 189.046875 "/>
<path style="fill-rule:nonzero;fill:rgb(100%,100%,100%);fill-opacity:1;stroke-width:1.48027;stroke-linecap:butt;stroke-linejoin:miter;stroke:rgb(25.490196%,41.176471%,88.235294%);stroke-opacity:1;stroke-miterlimit:10;" d="M 165.195312 80.414062 C 166.90625 79.042969 168.621094 77.675781 170.332031 76.304688 C 176.910156 84.527344 183.488281 92.753906 190.070312 100.976562 C 190.070312 102.347656 190.070312 103.714844 190.070312 105.085938 C 183.492188 113.308594 176.914062 121.535156 170.332031 129.757812 C 168.621094 128.386719 166.90625 127.019531 165.195312 125.648438 C 171.226562 118.109375 177.257812 110.570312 183.289062 103.03125 C 177.257812 95.492188 171.226562 87.953125 165.195312 80.414062 Z M 178.351562 80.414062 C 180.0625 79.042969 181.777344 77.675781 183.488281 76.304688 C 196.644531 92.753906 209.804688 109.199219 222.960938 125.648438 C 221.25 127.019531 219.535156 128.386719 217.824219 129.757812 C 212.101562 122.605469 206.378906 115.449219 200.65625 108.296875 C 194.933594 115.449219 189.210938 122.605469 183.488281 129.757812 C 181.777344 128.386719 180.0625 127.019531 178.351562 125.648438 C 184.382812 118.109375 190.414062 110.570312 196.445312 103.03125 C 190.414062 95.492188 184.382812 87.953125 178.351562 80.414062 Z M 203.945312 93.984375 C 213.8125 93.984375 223.683594 93.984375 233.550781 93.984375 C 233.550781 96.175781 233.550781 98.371094 233.550781 100.5625 C 223.683594 100.5625 213.8125 100.5625 203.945312 100.5625 C 203.945312 98.371094 203.945312 96.175781 203.945312 93.984375 Z M 212.171875 102.699219 C 219.300781 102.699219 226.425781 102.699219 233.554688 102.699219 C 233.554688 104.890625 233.554688 107.085938 233.554688 109.277344 C 226.425781 109.277344 219.300781 109.277344 212.171875 109.277344 C 212.171875 107.085938 212.171875 104.890625 212.171875 102.699219 Z M 212.171875 102.699219 "/>
</g>
</svg>
