<?xml version="1.0" encoding="UTF-8"?>
<svg xmlns="http://www.w3.org/2000/svg" xmlns:xlink="http://www.w3.org/1999/xlink" width="500pt" height="937.950512pt" viewBox="0 0 500 937.950512" version="1.1">
<g id="surface1">
<path style=" stroke:none;fill-rule:nonzero;fill:rgb(0%,50.196078%,0%);fill-opacity:1;" d="M 147.542969 708.523438 C 147.542969 696.882812 138.105469 687.445312 126.464844 687.445312 C 114.824219 687.445312 105.386719 696.882812 105.386719 708.523438 C 105.386719 720.164062 114.824219 729.601562 126.464844 729.601562 C 138.105469 729.601562 147.542969 720.164062 147.542969 708.523438 Z M 147.542969 708.523438 "/>
<path style=" stroke:none;fill-rule:nonzero;fill:rgb(0%,0%,100%);fill-opacity:1;" d="M 394.613281 126.464844 C 394.613281 114.824219 385.175781 105.386719 373.535156 105.386719 C 361.894531 105.386719 352.457031 114.824219 352.457031 126.464844 C 352.457031 138.105469 361.894531 147.542969 373.535156 147.542969 C 385.175781 147.542969 394.613281 138.105469 394.613281 126.464844 Z M 394.613281 126.464844 "/>
<path style=" stroke:none;fill-rule:nonzero;fill:rgb(100%,0%,0%);fill-opacity:1;" d="M 394.613281 811.484375 C 394.613281 799.84375 385.175781 790.40625 373.535156 790.40625 C 361.894531 790.40625 352.457031 799.84375 352.457031 811.484375 C 352.457031 823.125 361.894531 832.5625 373.535156 832.5625 C 385.175781 832.5625 394.613281 823.125 394.613281 811.484375 Z M 394.613281 811.484375 "/>
<path style="fill-rule:nonzero;fill:rgb(0%,0%,0%);fill-opacity:1;stroke-width:2.739271;stroke-linecap:butt;stroke-linejoin:miter;stroke:rgb(0%,0%,0%);stroke-opacity:1;stroke-miterlimit:10;" d="M 373.535156 651.304688 C 373.535156 592.332031 325.726562 544.523438 266.753906 544.523438 C 207.78125 544.523438 159.972656 592.332031 159.972656 651.304688 C 159.972656 710.277344 207.78125 758.085938 266.753906 758.085938 C 325.726562 758.085938 373.535156 710.277344 373.535156 651.304688 Z M 373.535156 651.304688 "/>
<path style="fill:none;stroke-width:1;stroke-linecap:butt;stroke-linejoin:miter;stroke:rgb(0%,0%,0%);stroke-opacity:1;stroke-miterlimit:10;" d="M 373.535156 811.484375 L 373.535156 126.464844 L 126.464844 708.523438 Z M 373.535156 811.484375 "/>
</g>
</svg>
