<?xml version="1.0" encoding="UTF-8"?>
<svg xmlns="http://www.w3.org/2000/svg" xmlns:xlink="http://www.w3.org/1999/xlink" width="500pt" height="500pt" viewBox="0 0 500 500" version="1.1">
<g id="surface1">
<path style=" stroke:none;fill-rule:nonzero;fill:rgb(100%,84.313725%,0%);fill-opacity:1;" d="M 458.332031 250 C 458.332031 134.941406 365.058594 41.667969 250 41.667969 C 134.941406 41.667969 41.667969 134.941406 41.667969 250 C 41.667969 365.058594 134.941406 458.332031 250 458.332031 C 365.058594 458.332031 458.332031 365.058594 458.332031 250 Z M 458.332031 250 "/>
<path style=" stroke:none;fill-rule:nonzero;fill:rgb(100%,100%,100%);fill-opacity:1;" d="M 437.5 250 C 437.5 146.445312 353.554688 62.5 250 62.5 C 146.445312 62.5 62.5 146.445312 62.5 250 C 62.5 353.554688 146.445312 437.5 250 437.5 C 353.554688 437.5 437.5 353.554688 437.5 250 Z M 437.5 250 "/>
<path style=" stroke:none;fill-rule:nonzero;fill:rgb(100%,84.313725%,0%);fill-opacity:1;" d="M 416.667969 250 C 416.667969 157.953125 342.046875 83.332031 250 83.332031 C 157.953125 83.332031 83.332031 157.953125 83.332031 250 C 83.332031 342.046875 157.953125 416.667969 250 416.667969 C 342.046875 416.667969 416.667969 342.046875 416.667969 250 Z M 416.667969 250 "/>
<path style=" stroke:none;fill-rule:nonzero;fill:rgb(100%,100%,100%);fill-opacity:1;" d="M 395.832031 250 C 395.832031 169.457031 330.539062 104.167969 250 104.167969 C 169.457031 104.167969 104.167969 169.460938 104.167969 250 C 104.167969 330.542969 169.460938 395.832031 250 395.832031 C 330.542969 395.832031 395.832031 330.539062 395.832031 250 Z M 395.832031 250 "/>
<path style=" stroke:none;fill-rule:nonzero;fill:rgb(100%,84.313725%,0%);fill-opacity:1;" d="M 375 250 C 375 180.964844 319.035156 125 250 125 C 180.964844 125 125 180.964844 125 250 C 125 319.035156 180.964844 375 250 375 C 319.035156 375 375 319.035156 375 250 Z M 375 250 "/>
<path style=" stroke:none;fill-rule:nonzero;fill:rgb(100%,100%,100%);fill-opacity:1;" d="M 354.167969 250 C 354.167969 192.46875 307.53125 145.832031 250 145.832031 C 192.46875 145.832031 145.832031 192.46875 145.832031 250 C 145.832031 307.53125 192.46875 354.167969 250 354.167969 C 307.53125 354.167969 354.167969 307.53125 354.167969 250 Z M 354.167969 250 "/>
<path style=" stroke:none;fill-rule:nonzero;fill:rgb(100%,84.313725%,0%);fill-opacity:1;" d="M 333.332031 250 C 333.332031 203.976562 296.023438 166.667969 250 166.667969 C 203.976562 166.667969 166.667969 203.976562 166.667969 250 C 166.667969 296.023438 203.976562 333.332031 250 333.332031 C 296.023438 333.332031 333.332031 296.023438 333.332031 250 Z M 333.332031 250 "/>
<path style=" stroke:none;fill-rule:nonzero;fill:rgb(100%,100%,100%);fill-opacity:1;" d="M 312.5 250 C 312.5 215.480469 284.519531 187.5 250 187.5 C 215.480469 187.5 187.5 215.480469 187.5 250 C 187.5 284.519531 215.480469 312.5 250 312.5 C 284.519531 312.5 312.5 284.519531 312.5 250 Z M 312.5 250 "/>
<path style=" stroke:none;fill-rule:nonzero;fill:rgb(100%,84.313725%,0%);fill-opacity:1;" d="M 291.667969 250 C 291.667969 226.988281 273.011719 208.332031 250 208.332031 C 226.988281 208.332031 208.332031 226.988281 208.332031 250 C 208.332031 273.011719 226.988281 291.667969 250 291.667969 C 273.011719 291.667969 291.667969 273.011719 291.667969 250 Z M 291.667969 250 "/>
<path style=" stroke:none;fill-rule:nonzero;fill:rgb(100%,100%,100%);fill-opacity:1;" d="M 270.832031 250 C 270.832031 238.492188 261.503906 229.167969 250 229.167969 C 238.492188 229.167969 229.167969 238.496094 229.167969 250 C 229.167969 261.507812 238.496094 270.832031 250 270.832031 C 261.507812 270.832031 270.832031 261.503906 270.832031 250 Z M 270.832031 250 "/>
<path style=" stroke:none;fill-rule:nonzero;fill:rgb(100%,84.313725%,0%);fill-opacity:1;" d="M 250 250 L 458.332031 250 C 458.332031 134.941406 365.058594 41.667969 250 41.667969 C 134.941406 41.667969 41.667969 134.941406 41.667969 250 Z M 250 250 "/>
<path style=" stroke:none;fill-rule:nonzero;fill:rgb(100%,100%,100%);fill-opacity:1;" d="M 250 250 L 437.5 250 C 437.5 146.445312 353.554688 62.5 250 62.5 C 146.445312 62.5 62.5 146.445312 62.5 250 Z M 250 250 "/>
<path style=" stroke:none;fill-rule:nonzero;fill:rgb(100%,84.313725%,0%);fill-opacity:1;" d="M 250 250 L 416.667969 250 C 416.667969 157.953125 342.046875 83.332031 250 83.332031 C 157.953125 83.332031 83.332031 157.953125 83.332031 250 Z M 250 250 "/>
<path style=" stroke:none;fill-rule:nonzero;fill:rgb(100%,100%,100%);fill-opacity:1;" d="M 250 250 L 395.832031 250 C 395.832031 169.457031 330.539062 104.167969 250 104.167969 C 169.457031 104.167969 104.167969 169.460938 104.167969 250 Z M 250 250 "/>
<path style=" stroke:none;fill-rule:nonzero;fill:rgb(100%,84.313725%,0%);fill-opacity:1;" d="M 250 250 L 375 250 C 375 180.964844 319.035156 125 250 125 C 180.964844 125 125 180.964844 125 250 Z M 250 250 "/>
<path style=" stroke:none;fill-rule:nonzero;fill:rgb(100%,100%,100%);fill-opacity:1;" d="M 250 250 L 354.167969 250 C 354.167969 192.46875 307.53125 145.832031 250 145.832031 C 192.46875 145.832031 145.832031 192.46875 145.832031 250 Z M 250 250 "/>
<path style=" stroke:none;fill-rule:nonzero;fill:rgb(100%,84.313725%,0%);fill-opacity:1;" d="M 250 250 L 333.332031 250 C 333.332031 203.976562 296.023438 166.667969 250 166.667969 C 203.976562 166.667969 166.667969 203.976562 166.667969 250 Z M 250 250 "/>
<path style=" stroke:none;fill-rule:nonzero;fill:rgb(100%,100%,100%);fill-opacity:1;" d="M 250 250 L 312.5 250 C 312.5 215.480469 284.519531 187.5 250 187.5 C 215.480469 187.5 187.5 215.480469 187.5 250 Z M 250 250 "/>
<path style=" stroke:none;fill-rule:nonzero;fill:rgb(100%,84.313725%,0%);fill-opacity:1;" d="M 250 250 L 291.667969 250 C 291.667969 226.988281 273.011719 208.332031 250 208.332031 C 226.988281 208.332031 208.332031 226.988281 208.332031 250 Z M 250 250 "/>
<path style=" stroke:none;fill-rule:nonzero;fill:rgb(100%,100%,100%);fill-opacity:1;" d="M 250 250 L 270.832031 250 C 270.832031 238.492188 261.503906 229.167969 250 229.167969 C 238.492188 229.167969 229.167969 238.496094 229.167969 250 Z M 250 250 "/>
</g>
</svg>
