<?xml version="1.0" encoding="UTF-8"?>
<svg xmlns="http://www.w3.org/2000/svg" xmlns:xlink="http://www.w3.org/1999/xlink" width="500pt" height="500pt" viewBox="0 0 500 500" version="1.1">
<defs>
<clipPath id="clip1">
  <path d="M 41 249 L 250 249 L 250 250 L 41 250 Z M 41 249 "/>
</clipPath>
<clipPath id="clip2">
  <path d="M 250 250 L 41.667969 250 C 41.667969 134.941406 134.941406 41.667969 250 41.667969 Z M 250 250 "/>
</clipPath>
<clipPath id="clip3">
  <path d="M 41 205 L 250 205 L 250 250 L 41 250 Z M 41 205 "/>
</clipPath>
<clipPath id="clip4">
  <path d="M 250 250 L 41.667969 250 C 41.667969 134.941406 134.941406 41.667969 250 41.667969 Z M 250 250 "/>
</clipPath>
<clipPath id="clip5">
  <path d="M 41 189 L 250 189 L 250 250 L 41 250 Z M 41 189 "/>
</clipPath>
<clipPath id="clip6">
  <path d="M 250 250 L 41.667969 250 C 41.667969 134.941406 134.941406 41.667969 250 41.667969 Z M 250 250 "/>
</clipPath>
<clipPath id="clip7">
  <path d="M 41 173 L 250 173 L 250 250 L 41 250 Z M 41 173 "/>
</clipPath>
<clipPath id="clip8">
  <path d="M 250 250 L 41.667969 250 C 41.667969 134.941406 134.941406 41.667969 250 41.667969 Z M 250 250 "/>
</clipPath>
<clipPath id="clip9">
  <path d="M 41 157 L 250 157 L 250 250 L 41 250 Z M 41 157 "/>
</clipPath>
<clipPath id="clip10">
  <path d="M 250 250 L 41.667969 250 C 41.667969 134.941406 134.941406 41.667969 250 41.667969 Z M 250 250 "/>
</clipPath>
<clipPath id="clip11">
  <path d="M 41 141 L 250 141 L 250 250 L 41 250 Z M 41 141 "/>
</clipPath>
<clipPath id="clip12">
  <path d="M 250 250 L 41.667969 250 C 41.667969 134.941406 134.941406 41.667969 250 41.667969 Z M 250 250 "/>
</clipPath>
<clipPath id="clip13">
  <path d="M 41 127 L 250 127 L 250 250 L 41 250 Z M 41 127 "/>
</clipPath>
<clipPath id="clip14">
  <path d="M 250 250 L 41.667969 250 C 41.667969 134.941406 134.941406 41.667969 250 41.667969 Z M 250 250 "/>
</clipPath>
<clipPath id="clip15">
  <path d="M 44 112 L 250 112 L 250 250 L 44 250 Z M 44 112 "/>
</clipPath>
<clipPath id="clip16">
  <path d="M 250 250 L 41.667969 250 C 41.667969 134.941406 134.941406 41.667969 250 41.667969 Z M 250 250 "/>
</clipPath>
<clipPath id="clip17">
  <path d="M 53 99 L 250 99 L 250 250 L 53 250 Z M 53 99 "/>
</clipPath>
<clipPath id="clip18">
  <path d="M 250 250 L 41.667969 250 C 41.667969 134.941406 134.941406 41.667969 250 41.667969 Z M 250 250 "/>
</clipPath>
<clipPath id="clip19">
  <path d="M 63 86 L 250 86 L 250 250 L 63 250 Z M 63 86 "/>
</clipPath>
<clipPath id="clip20">
  <path d="M 250 250 L 41.667969 250 C 41.667969 134.941406 134.941406 41.667969 250 41.667969 Z M 250 250 "/>
</clipPath>
<clipPath id="clip21">
  <path d="M 74 74 L 250 74 L 250 250 L 74 250 Z M 74 74 "/>
</clipPath>
<clipPath id="clip22">
  <path d="M 250 250 L 41.667969 250 C 41.667969 134.941406 134.941406 41.667969 250 41.667969 Z M 250 250 "/>
</clipPath>
<clipPath id="clip23">
  <path d="M 86 63 L 250 63 L 250 250 L 86 250 Z M 86 63 "/>
</clipPath>
<clipPath id="clip24">
  <path d="M 250 250 L 41.667969 250 C 41.667969 134.941406 134.941406 41.667969 250 41.667969 Z M 250 250 "/>
</clipPath>
<clipPath id="clip25">
  <path d="M 99 53 L 250 53 L 250 250 L 99 250 Z M 99 53 "/>
</clipPath>
<clipPath id="clip26">
  <path d="M 250 250 L 41.667969 250 C 41.667969 134.941406 134.941406 41.667969 250 41.667969 Z M 250 250 "/>
</clipPath>
<clipPath id="clip27">
  <path d="M 112 44 L 250 44 L 250 250 L 112 250 Z M 112 44 "/>
</clipPath>
<clipPath id="clip28">
  <path d="M 250 250 L 41.667969 250 C 41.667969 134.941406 134.941406 41.667969 250 41.667969 Z M 250 250 "/>
</clipPath>
<clipPath id="clip29">
  <path d="M 127 41 L 250 41 L 250 250 L 127 250 Z M 127 41 "/>
</clipPath>
<clipPath id="clip30">
  <path d="M 250 250 L 41.667969 250 C 41.667969 134.941406 134.941406 41.667969 250 41.667969 Z M 250 250 "/>
</clipPath>
<clipPath id="clip31">
  <path d="M 141 41 L 250 41 L 250 250 L 141 250 Z M 141 41 "/>
</clipPath>
<clipPath id="clip32">
  <path d="M 250 250 L 41.667969 250 C 41.667969 134.941406 134.941406 41.667969 250 41.667969 Z M 250 250 "/>
</clipPath>
<clipPath id="clip33">
  <path d="M 157 41 L 250 41 L 250 250 L 157 250 Z M 157 41 "/>
</clipPath>
<clipPath id="clip34">
  <path d="M 250 250 L 41.667969 250 C 41.667969 134.941406 134.941406 41.667969 250 41.667969 Z M 250 250 "/>
</clipPath>
<clipPath id="clip35">
  <path d="M 173 41 L 250 41 L 250 250 L 173 250 Z M 173 41 "/>
</clipPath>
<clipPath id="clip36">
  <path d="M 250 250 L 41.667969 250 C 41.667969 134.941406 134.941406 41.667969 250 41.667969 Z M 250 250 "/>
</clipPath>
<clipPath id="clip37">
  <path d="M 189 41 L 250 41 L 250 250 L 189 250 Z M 189 41 "/>
</clipPath>
<clipPath id="clip38">
  <path d="M 250 250 L 41.667969 250 C 41.667969 134.941406 134.941406 41.667969 250 41.667969 Z M 250 250 "/>
</clipPath>
<clipPath id="clip39">
  <path d="M 205 41 L 250 41 L 250 250 L 205 250 Z M 205 41 "/>
</clipPath>
<clipPath id="clip40">
  <path d="M 250 250 L 41.667969 250 C 41.667969 134.941406 134.941406 41.667969 250 41.667969 Z M 250 250 "/>
</clipPath>
<clipPath id="clip41">
  <path d="M 221 41 L 250 41 L 250 250 L 221 250 Z M 221 41 "/>
</clipPath>
<clipPath id="clip42">
  <path d="M 250 250 L 41.667969 250 C 41.667969 134.941406 134.941406 41.667969 250 41.667969 Z M 250 250 "/>
</clipPath>
<clipPath id="clip43">
  <path d="M 238 41 L 250 41 L 250 250 L 238 250 Z M 238 41 "/>
</clipPath>
<clipPath id="clip44">
  <path d="M 250 250 L 41.667969 250 C 41.667969 134.941406 134.941406 41.667969 250 41.667969 Z M 250 250 "/>
</clipPath>
</defs>
<g id="surface1">
<path style="fill:none;stroke-width:2;stroke-linecap:butt;stroke-linejoin:miter;stroke:rgb(100%,64.705882%,0%);stroke-opacity:1;stroke-miterlimit:10;" d="M 458.332031 250 L 41.664062 250 "/>
<path style="fill:none;stroke-width:2;stroke-linecap:butt;stroke-linejoin:miter;stroke:rgb(100%,64.705882%,0%);stroke-opacity:1;stroke-miterlimit:10;" d="M 458.332031 250 L 42.308594 233.65625 "/>
<path style="fill:none;stroke-width:2;stroke-linecap:butt;stroke-linejoin:miter;stroke:rgb(100%,64.705882%,0%);stroke-opacity:1;stroke-miterlimit:10;" d="M 458.332031 250 L 44.230469 217.410156 "/>
<path style="fill:none;stroke-width:2;stroke-linecap:butt;stroke-linejoin:miter;stroke:rgb(100%,64.705882%,0%);stroke-opacity:1;stroke-miterlimit:10;" d="M 458.332031 250 L 47.421875 201.367188 "/>
<path style="fill:none;stroke-width:2;stroke-linecap:butt;stroke-linejoin:miter;stroke:rgb(100%,64.705882%,0%);stroke-opacity:1;stroke-miterlimit:10;" d="M 458.332031 250 L 51.863281 185.621094 "/>
<path style="fill:none;stroke-width:2;stroke-linecap:butt;stroke-linejoin:miter;stroke:rgb(100%,64.705882%,0%);stroke-opacity:1;stroke-miterlimit:10;" d="M 458.332031 250 L 57.523438 170.273438 "/>
<path style="fill:none;stroke-width:2;stroke-linecap:butt;stroke-linejoin:miter;stroke:rgb(100%,64.705882%,0%);stroke-opacity:1;stroke-miterlimit:10;" d="M 458.332031 250 L 64.371094 155.417969 "/>
<path style="fill:none;stroke-width:2;stroke-linecap:butt;stroke-linejoin:miter;stroke:rgb(100%,64.705882%,0%);stroke-opacity:1;stroke-miterlimit:10;" d="M 458.332031 250 L 72.367188 141.144531 "/>
<path style="fill:none;stroke-width:2;stroke-linecap:butt;stroke-linejoin:miter;stroke:rgb(100%,64.705882%,0%);stroke-opacity:1;stroke-miterlimit:10;" d="M 458.332031 250 L 81.453125 127.542969 "/>
<path style="fill:none;stroke-width:2;stroke-linecap:butt;stroke-linejoin:miter;stroke:rgb(100%,64.705882%,0%);stroke-opacity:1;stroke-miterlimit:10;" d="M 458.332031 250 L 91.582031 114.699219 "/>
<path style="fill:none;stroke-width:2;stroke-linecap:butt;stroke-linejoin:miter;stroke:rgb(100%,64.705882%,0%);stroke-opacity:1;stroke-miterlimit:10;" d="M 458.332031 250 L 102.683594 102.6875 "/>
<path style="fill:none;stroke-width:2;stroke-linecap:butt;stroke-linejoin:miter;stroke:rgb(100%,64.705882%,0%);stroke-opacity:1;stroke-miterlimit:10;" d="M 458.332031 250 L 114.695312 91.582031 "/>
<path style="fill:none;stroke-width:2;stroke-linecap:butt;stroke-linejoin:miter;stroke:rgb(100%,64.705882%,0%);stroke-opacity:1;stroke-miterlimit:10;" d="M 458.332031 250 L 127.542969 81.453125 "/>
<path style="fill:none;stroke-width:2;stroke-linecap:butt;stroke-linejoin:miter;stroke:rgb(100%,64.705882%,0%);stroke-opacity:1;stroke-miterlimit:10;" d="M 458.332031 250 L 141.144531 72.367188 "/>
<path style="fill:none;stroke-width:2;stroke-linecap:butt;stroke-linejoin:miter;stroke:rgb(100%,64.705882%,0%);stroke-opacity:1;stroke-miterlimit:10;" d="M 458.332031 250 L 155.417969 64.375 "/>
<path style="fill:none;stroke-width:2;stroke-linecap:butt;stroke-linejoin:miter;stroke:rgb(100%,64.705882%,0%);stroke-opacity:1;stroke-miterlimit:10;" d="M 458.332031 250 L 170.273438 57.523438 "/>
<path style="fill:none;stroke-width:2;stroke-linecap:butt;stroke-linejoin:miter;stroke:rgb(100%,64.705882%,0%);stroke-opacity:1;stroke-miterlimit:10;" d="M 458.332031 250 L 185.621094 51.863281 "/>
<path style="fill:none;stroke-width:2;stroke-linecap:butt;stroke-linejoin:miter;stroke:rgb(100%,64.705882%,0%);stroke-opacity:1;stroke-miterlimit:10;" d="M 458.332031 250 L 201.363281 47.421875 "/>
<path style="fill:none;stroke-width:2;stroke-linecap:butt;stroke-linejoin:miter;stroke:rgb(100%,64.705882%,0%);stroke-opacity:1;stroke-miterlimit:10;" d="M 458.332031 250 L 217.40625 44.230469 "/>
<path style="fill:none;stroke-width:2;stroke-linecap:butt;stroke-linejoin:miter;stroke:rgb(100%,64.705882%,0%);stroke-opacity:1;stroke-miterlimit:10;" d="M 458.332031 250 L 233.652344 42.308594 "/>
<path style="fill:none;stroke-width:2;stroke-linecap:butt;stroke-linejoin:miter;stroke:rgb(100%,64.705882%,0%);stroke-opacity:1;stroke-miterlimit:10;" d="M 458.332031 250 L 250 41.667969 "/>
<path style="fill:none;stroke-width:2;stroke-linecap:butt;stroke-linejoin:miter;stroke:rgb(100%,64.705882%,0%);stroke-opacity:1;stroke-miterlimit:10;" d="M 458.332031 250 L 266.34375 42.308594 "/>
<path style="fill:none;stroke-width:2;stroke-linecap:butt;stroke-linejoin:miter;stroke:rgb(100%,64.705882%,0%);stroke-opacity:1;stroke-miterlimit:10;" d="M 458.332031 250 L 282.589844 44.230469 "/>
<path style="fill:none;stroke-width:2;stroke-linecap:butt;stroke-linejoin:miter;stroke:rgb(100%,64.705882%,0%);stroke-opacity:1;stroke-miterlimit:10;" d="M 458.332031 250 L 298.632812 47.421875 "/>
<path style="fill:none;stroke-width:2;stroke-linecap:butt;stroke-linejoin:miter;stroke:rgb(100%,64.705882%,0%);stroke-opacity:1;stroke-miterlimit:10;" d="M 458.332031 250 L 314.378906 51.863281 "/>
<path style="fill:none;stroke-width:2;stroke-linecap:butt;stroke-linejoin:miter;stroke:rgb(100%,64.705882%,0%);stroke-opacity:1;stroke-miterlimit:10;" d="M 458.332031 250 L 329.722656 57.523438 "/>
<path style="fill:none;stroke-width:2;stroke-linecap:butt;stroke-linejoin:miter;stroke:rgb(100%,64.705882%,0%);stroke-opacity:1;stroke-miterlimit:10;" d="M 458.332031 250 L 344.578125 64.375 "/>
<path style="fill:none;stroke-width:2;stroke-linecap:butt;stroke-linejoin:miter;stroke:rgb(100%,64.705882%,0%);stroke-opacity:1;stroke-miterlimit:10;" d="M 458.332031 250 L 358.851562 72.367188 "/>
<path style="fill:none;stroke-width:2;stroke-linecap:butt;stroke-linejoin:miter;stroke:rgb(100%,64.705882%,0%);stroke-opacity:1;stroke-miterlimit:10;" d="M 458.332031 250 L 372.453125 81.453125 "/>
<path style="fill:none;stroke-width:2;stroke-linecap:butt;stroke-linejoin:miter;stroke:rgb(100%,64.705882%,0%);stroke-opacity:1;stroke-miterlimit:10;" d="M 458.332031 250 L 385.300781 91.582031 "/>
<path style="fill:none;stroke-width:2;stroke-linecap:butt;stroke-linejoin:miter;stroke:rgb(100%,64.705882%,0%);stroke-opacity:1;stroke-miterlimit:10;" d="M 458.332031 250 L 397.3125 102.6875 "/>
<path style="fill:none;stroke-width:2;stroke-linecap:butt;stroke-linejoin:miter;stroke:rgb(100%,64.705882%,0%);stroke-opacity:1;stroke-miterlimit:10;" d="M 458.332031 250 L 408.417969 114.699219 "/>
<path style="fill:none;stroke-width:2;stroke-linecap:butt;stroke-linejoin:miter;stroke:rgb(100%,64.705882%,0%);stroke-opacity:1;stroke-miterlimit:10;" d="M 458.332031 250 L 418.542969 127.542969 "/>
<path style="fill:none;stroke-width:2;stroke-linecap:butt;stroke-linejoin:miter;stroke:rgb(100%,64.705882%,0%);stroke-opacity:1;stroke-miterlimit:10;" d="M 458.332031 250 L 427.632812 141.144531 "/>
<path style="fill:none;stroke-width:2;stroke-linecap:butt;stroke-linejoin:miter;stroke:rgb(100%,64.705882%,0%);stroke-opacity:1;stroke-miterlimit:10;" d="M 458.332031 250 L 435.625 155.417969 "/>
<path style="fill:none;stroke-width:2;stroke-linecap:butt;stroke-linejoin:miter;stroke:rgb(100%,64.705882%,0%);stroke-opacity:1;stroke-miterlimit:10;" d="M 458.332031 250 L 442.472656 170.273438 "/>
<path style="fill:none;stroke-width:2;stroke-linecap:butt;stroke-linejoin:miter;stroke:rgb(100%,64.705882%,0%);stroke-opacity:1;stroke-miterlimit:10;" d="M 458.332031 250 L 448.136719 185.621094 "/>
<path style="fill:none;stroke-width:2;stroke-linecap:butt;stroke-linejoin:miter;stroke:rgb(100%,64.705882%,0%);stroke-opacity:1;stroke-miterlimit:10;" d="M 458.332031 250 L 452.574219 201.367188 "/>
<path style="fill:none;stroke-width:2;stroke-linecap:butt;stroke-linejoin:miter;stroke:rgb(100%,64.705882%,0%);stroke-opacity:1;stroke-miterlimit:10;" d="M 458.332031 250 L 455.765625 217.410156 "/>
<path style="fill:none;stroke-width:2;stroke-linecap:butt;stroke-linejoin:miter;stroke:rgb(100%,64.705882%,0%);stroke-opacity:1;stroke-miterlimit:10;" d="M 458.332031 250 L 457.691406 233.65625 "/>
<path style="fill:none;stroke-width:2;stroke-linecap:butt;stroke-linejoin:miter;stroke:rgb(0%,100%,100%);stroke-opacity:1;stroke-miterlimit:10;" d="M 250 458.332031 L 250 41.664062 "/>
<path style="fill:none;stroke-width:2;stroke-linecap:butt;stroke-linejoin:miter;stroke:rgb(0%,100%,100%);stroke-opacity:1;stroke-miterlimit:10;" d="M 250 458.332031 L 266.34375 42.308594 "/>
<path style="fill:none;stroke-width:2;stroke-linecap:butt;stroke-linejoin:miter;stroke:rgb(0%,100%,100%);stroke-opacity:1;stroke-miterlimit:10;" d="M 250 458.332031 L 282.589844 44.230469 "/>
<path style="fill:none;stroke-width:2;stroke-linecap:butt;stroke-linejoin:miter;stroke:rgb(0%,100%,100%);stroke-opacity:1;stroke-miterlimit:10;" d="M 250 458.332031 L 298.632812 47.421875 "/>
<path style="fill:none;stroke-width:2;stroke-linecap:butt;stroke-linejoin:miter;stroke:rgb(0%,100%,100%);stroke-opacity:1;stroke-miterlimit:10;" d="M 250 458.332031 L 314.378906 51.863281 "/>
<path style="fill:none;stroke-width:2;stroke-linecap:butt;stroke-linejoin:miter;stroke:rgb(0%,100%,100%);stroke-opacity:1;stroke-miterlimit:10;" d="M 250 458.332031 L 329.726562 57.523438 "/>
<path style="fill:none;stroke-width:2;stroke-linecap:butt;stroke-linejoin:miter;stroke:rgb(0%,100%,100%);stroke-opacity:1;stroke-miterlimit:10;" d="M 250 458.332031 L 344.582031 64.371094 "/>
<path style="fill:none;stroke-width:2;stroke-linecap:butt;stroke-linejoin:miter;stroke:rgb(0%,100%,100%);stroke-opacity:1;stroke-miterlimit:10;" d="M 250 458.332031 L 358.855469 72.367188 "/>
<path style="fill:none;stroke-width:2;stroke-linecap:butt;stroke-linejoin:miter;stroke:rgb(0%,100%,100%);stroke-opacity:1;stroke-miterlimit:10;" d="M 250 458.332031 L 372.457031 81.453125 "/>
<path style="fill:none;stroke-width:2;stroke-linecap:butt;stroke-linejoin:miter;stroke:rgb(0%,100%,100%);stroke-opacity:1;stroke-miterlimit:10;" d="M 250 458.332031 L 385.300781 91.582031 "/>
<path style="fill:none;stroke-width:2;stroke-linecap:butt;stroke-linejoin:miter;stroke:rgb(0%,100%,100%);stroke-opacity:1;stroke-miterlimit:10;" d="M 250 458.332031 L 397.3125 102.683594 "/>
<path style="fill:none;stroke-width:2;stroke-linecap:butt;stroke-linejoin:miter;stroke:rgb(0%,100%,100%);stroke-opacity:1;stroke-miterlimit:10;" d="M 250 458.332031 L 408.417969 114.695312 "/>
<path style="fill:none;stroke-width:2;stroke-linecap:butt;stroke-linejoin:miter;stroke:rgb(0%,100%,100%);stroke-opacity:1;stroke-miterlimit:10;" d="M 250 458.332031 L 418.546875 127.542969 "/>
<path style="fill:none;stroke-width:2;stroke-linecap:butt;stroke-linejoin:miter;stroke:rgb(0%,100%,100%);stroke-opacity:1;stroke-miterlimit:10;" d="M 250 458.332031 L 427.632812 141.144531 "/>
<path style="fill:none;stroke-width:2;stroke-linecap:butt;stroke-linejoin:miter;stroke:rgb(0%,100%,100%);stroke-opacity:1;stroke-miterlimit:10;" d="M 250 458.332031 L 435.625 155.417969 "/>
<path style="fill:none;stroke-width:2;stroke-linecap:butt;stroke-linejoin:miter;stroke:rgb(0%,100%,100%);stroke-opacity:1;stroke-miterlimit:10;" d="M 250 458.332031 L 442.476562 170.273438 "/>
<path style="fill:none;stroke-width:2;stroke-linecap:butt;stroke-linejoin:miter;stroke:rgb(0%,100%,100%);stroke-opacity:1;stroke-miterlimit:10;" d="M 250 458.332031 L 448.136719 185.621094 "/>
<path style="fill:none;stroke-width:2;stroke-linecap:butt;stroke-linejoin:miter;stroke:rgb(0%,100%,100%);stroke-opacity:1;stroke-miterlimit:10;" d="M 250 458.332031 L 452.578125 201.363281 "/>
<path style="fill:none;stroke-width:2;stroke-linecap:butt;stroke-linejoin:miter;stroke:rgb(0%,100%,100%);stroke-opacity:1;stroke-miterlimit:10;" d="M 250 458.332031 L 455.769531 217.40625 "/>
<path style="fill:none;stroke-width:2;stroke-linecap:butt;stroke-linejoin:miter;stroke:rgb(0%,100%,100%);stroke-opacity:1;stroke-miterlimit:10;" d="M 250 458.332031 L 457.691406 233.652344 "/>
<path style="fill:none;stroke-width:2;stroke-linecap:butt;stroke-linejoin:miter;stroke:rgb(0%,100%,100%);stroke-opacity:1;stroke-miterlimit:10;" d="M 250 458.332031 L 458.332031 250 "/>
<path style="fill:none;stroke-width:2;stroke-linecap:butt;stroke-linejoin:miter;stroke:rgb(0%,100%,100%);stroke-opacity:1;stroke-miterlimit:10;" d="M 250 458.332031 L 457.691406 266.34375 "/>
<path style="fill:none;stroke-width:2;stroke-linecap:butt;stroke-linejoin:miter;stroke:rgb(0%,100%,100%);stroke-opacity:1;stroke-miterlimit:10;" d="M 250 458.332031 L 455.769531 282.589844 "/>
<path style="fill:none;stroke-width:2;stroke-linecap:butt;stroke-linejoin:miter;stroke:rgb(0%,100%,100%);stroke-opacity:1;stroke-miterlimit:10;" d="M 250 458.332031 L 452.578125 298.632812 "/>
<path style="fill:none;stroke-width:2;stroke-linecap:butt;stroke-linejoin:miter;stroke:rgb(0%,100%,100%);stroke-opacity:1;stroke-miterlimit:10;" d="M 250 458.332031 L 448.136719 314.378906 "/>
<path style="fill:none;stroke-width:2;stroke-linecap:butt;stroke-linejoin:miter;stroke:rgb(0%,100%,100%);stroke-opacity:1;stroke-miterlimit:10;" d="M 250 458.332031 L 442.476562 329.722656 "/>
<path style="fill:none;stroke-width:2;stroke-linecap:butt;stroke-linejoin:miter;stroke:rgb(0%,100%,100%);stroke-opacity:1;stroke-miterlimit:10;" d="M 250 458.332031 L 435.625 344.578125 "/>
<path style="fill:none;stroke-width:2;stroke-linecap:butt;stroke-linejoin:miter;stroke:rgb(0%,100%,100%);stroke-opacity:1;stroke-miterlimit:10;" d="M 250 458.332031 L 427.632812 358.851562 "/>
<path style="fill:none;stroke-width:2;stroke-linecap:butt;stroke-linejoin:miter;stroke:rgb(0%,100%,100%);stroke-opacity:1;stroke-miterlimit:10;" d="M 250 458.332031 L 418.546875 372.453125 "/>
<path style="fill:none;stroke-width:2;stroke-linecap:butt;stroke-linejoin:miter;stroke:rgb(0%,100%,100%);stroke-opacity:1;stroke-miterlimit:10;" d="M 250 458.332031 L 408.417969 385.300781 "/>
<path style="fill:none;stroke-width:2;stroke-linecap:butt;stroke-linejoin:miter;stroke:rgb(0%,100%,100%);stroke-opacity:1;stroke-miterlimit:10;" d="M 250 458.332031 L 397.3125 397.3125 "/>
<path style="fill:none;stroke-width:2;stroke-linecap:butt;stroke-linejoin:miter;stroke:rgb(0%,100%,100%);stroke-opacity:1;stroke-miterlimit:10;" d="M 250 458.332031 L 385.300781 408.417969 "/>
<path style="fill:none;stroke-width:2;stroke-linecap:butt;stroke-linejoin:miter;stroke:rgb(0%,100%,100%);stroke-opacity:1;stroke-miterlimit:10;" d="M 250 458.332031 L 372.457031 418.542969 "/>
<path style="fill:none;stroke-width:2;stroke-linecap:butt;stroke-linejoin:miter;stroke:rgb(0%,100%,100%);stroke-opacity:1;stroke-miterlimit:10;" d="M 250 458.332031 L 358.855469 427.632812 "/>
<path style="fill:none;stroke-width:2;stroke-linecap:butt;stroke-linejoin:miter;stroke:rgb(0%,100%,100%);stroke-opacity:1;stroke-miterlimit:10;" d="M 250 458.332031 L 344.582031 435.625 "/>
<path style="fill:none;stroke-width:2;stroke-linecap:butt;stroke-linejoin:miter;stroke:rgb(0%,100%,100%);stroke-opacity:1;stroke-miterlimit:10;" d="M 250 458.332031 L 329.726562 442.472656 "/>
<path style="fill:none;stroke-width:2;stroke-linecap:butt;stroke-linejoin:miter;stroke:rgb(0%,100%,100%);stroke-opacity:1;stroke-miterlimit:10;" d="M 250 458.332031 L 314.378906 448.136719 "/>
<path style="fill:none;stroke-width:2;stroke-linecap:butt;stroke-linejoin:miter;stroke:rgb(0%,100%,100%);stroke-opacity:1;stroke-miterlimit:10;" d="M 250 458.332031 L 298.632812 452.574219 "/>
<path style="fill:none;stroke-width:2;stroke-linecap:butt;stroke-linejoin:miter;stroke:rgb(0%,100%,100%);stroke-opacity:1;stroke-miterlimit:10;" d="M 250 458.332031 L 282.589844 455.765625 "/>
<path style="fill:none;stroke-width:2;stroke-linecap:butt;stroke-linejoin:miter;stroke:rgb(0%,100%,100%);stroke-opacity:1;stroke-miterlimit:10;" d="M 250 458.332031 L 266.34375 457.691406 "/>
<path style="fill:none;stroke-width:2;stroke-linecap:butt;stroke-linejoin:miter;stroke:rgb(0%,0%,100%);stroke-opacity:1;stroke-miterlimit:10;" d="M 41.667969 250 L 458.335938 250 "/>
<path style="fill:none;stroke-width:2;stroke-linecap:butt;stroke-linejoin:miter;stroke:rgb(0%,0%,100%);stroke-opacity:1;stroke-miterlimit:10;" d="M 41.667969 250 L 457.691406 266.34375 "/>
<path style="fill:none;stroke-width:2;stroke-linecap:butt;stroke-linejoin:miter;stroke:rgb(0%,0%,100%);stroke-opacity:1;stroke-miterlimit:10;" d="M 41.667969 250 L 455.769531 282.589844 "/>
<path style="fill:none;stroke-width:2;stroke-linecap:butt;stroke-linejoin:miter;stroke:rgb(0%,0%,100%);stroke-opacity:1;stroke-miterlimit:10;" d="M 41.667969 250 L 452.578125 298.632812 "/>
<path style="fill:none;stroke-width:2;stroke-linecap:butt;stroke-linejoin:miter;stroke:rgb(0%,0%,100%);stroke-opacity:1;stroke-miterlimit:10;" d="M 41.667969 250 L 448.136719 314.378906 "/>
<path style="fill:none;stroke-width:2;stroke-linecap:butt;stroke-linejoin:miter;stroke:rgb(0%,0%,100%);stroke-opacity:1;stroke-miterlimit:10;" d="M 41.667969 250 L 442.476562 329.726562 "/>
<path style="fill:none;stroke-width:2;stroke-linecap:butt;stroke-linejoin:miter;stroke:rgb(0%,0%,100%);stroke-opacity:1;stroke-miterlimit:10;" d="M 41.667969 250 L 435.628906 344.582031 "/>
<path style="fill:none;stroke-width:2;stroke-linecap:butt;stroke-linejoin:miter;stroke:rgb(0%,0%,100%);stroke-opacity:1;stroke-miterlimit:10;" d="M 41.667969 250 L 427.632812 358.855469 "/>
<path style="fill:none;stroke-width:2;stroke-linecap:butt;stroke-linejoin:miter;stroke:rgb(0%,0%,100%);stroke-opacity:1;stroke-miterlimit:10;" d="M 41.667969 250 L 418.546875 372.457031 "/>
<path style="fill:none;stroke-width:2;stroke-linecap:butt;stroke-linejoin:miter;stroke:rgb(0%,0%,100%);stroke-opacity:1;stroke-miterlimit:10;" d="M 41.667969 250 L 408.417969 385.300781 "/>
<path style="fill:none;stroke-width:2;stroke-linecap:butt;stroke-linejoin:miter;stroke:rgb(0%,0%,100%);stroke-opacity:1;stroke-miterlimit:10;" d="M 41.667969 250 L 397.316406 397.3125 "/>
<path style="fill:none;stroke-width:2;stroke-linecap:butt;stroke-linejoin:miter;stroke:rgb(0%,0%,100%);stroke-opacity:1;stroke-miterlimit:10;" d="M 41.667969 250 L 385.304688 408.417969 "/>
<path style="fill:none;stroke-width:2;stroke-linecap:butt;stroke-linejoin:miter;stroke:rgb(0%,0%,100%);stroke-opacity:1;stroke-miterlimit:10;" d="M 41.667969 250 L 372.457031 418.546875 "/>
<path style="fill:none;stroke-width:2;stroke-linecap:butt;stroke-linejoin:miter;stroke:rgb(0%,0%,100%);stroke-opacity:1;stroke-miterlimit:10;" d="M 41.667969 250 L 358.855469 427.632812 "/>
<path style="fill:none;stroke-width:2;stroke-linecap:butt;stroke-linejoin:miter;stroke:rgb(0%,0%,100%);stroke-opacity:1;stroke-miterlimit:10;" d="M 41.667969 250 L 344.582031 435.625 "/>
<path style="fill:none;stroke-width:2;stroke-linecap:butt;stroke-linejoin:miter;stroke:rgb(0%,0%,100%);stroke-opacity:1;stroke-miterlimit:10;" d="M 41.667969 250 L 329.726562 442.476562 "/>
<path style="fill:none;stroke-width:2;stroke-linecap:butt;stroke-linejoin:miter;stroke:rgb(0%,0%,100%);stroke-opacity:1;stroke-miterlimit:10;" d="M 41.667969 250 L 314.378906 448.136719 "/>
<path style="fill:none;stroke-width:2;stroke-linecap:butt;stroke-linejoin:miter;stroke:rgb(0%,0%,100%);stroke-opacity:1;stroke-miterlimit:10;" d="M 41.667969 250 L 298.636719 452.578125 "/>
<path style="fill:none;stroke-width:2;stroke-linecap:butt;stroke-linejoin:miter;stroke:rgb(0%,0%,100%);stroke-opacity:1;stroke-miterlimit:10;" d="M 41.667969 250 L 282.59375 455.769531 "/>
<path style="fill:none;stroke-width:2;stroke-linecap:butt;stroke-linejoin:miter;stroke:rgb(0%,0%,100%);stroke-opacity:1;stroke-miterlimit:10;" d="M 41.667969 250 L 266.347656 457.691406 "/>
<path style="fill:none;stroke-width:2;stroke-linecap:butt;stroke-linejoin:miter;stroke:rgb(0%,0%,100%);stroke-opacity:1;stroke-miterlimit:10;" d="M 41.667969 250 L 250 458.332031 "/>
<path style="fill:none;stroke-width:2;stroke-linecap:butt;stroke-linejoin:miter;stroke:rgb(0%,0%,100%);stroke-opacity:1;stroke-miterlimit:10;" d="M 41.667969 250 L 233.65625 457.691406 "/>
<path style="fill:none;stroke-width:2;stroke-linecap:butt;stroke-linejoin:miter;stroke:rgb(0%,0%,100%);stroke-opacity:1;stroke-miterlimit:10;" d="M 41.667969 250 L 217.410156 455.769531 "/>
<path style="fill:none;stroke-width:2;stroke-linecap:butt;stroke-linejoin:miter;stroke:rgb(0%,0%,100%);stroke-opacity:1;stroke-miterlimit:10;" d="M 41.667969 250 L 201.367188 452.578125 "/>
<path style="fill:none;stroke-width:2;stroke-linecap:butt;stroke-linejoin:miter;stroke:rgb(0%,0%,100%);stroke-opacity:1;stroke-miterlimit:10;" d="M 41.667969 250 L 185.621094 448.136719 "/>
<path style="fill:none;stroke-width:2;stroke-linecap:butt;stroke-linejoin:miter;stroke:rgb(0%,0%,100%);stroke-opacity:1;stroke-miterlimit:10;" d="M 41.667969 250 L 170.277344 442.476562 "/>
<path style="fill:none;stroke-width:2;stroke-linecap:butt;stroke-linejoin:miter;stroke:rgb(0%,0%,100%);stroke-opacity:1;stroke-miterlimit:10;" d="M 41.667969 250 L 155.421875 435.625 "/>
<path style="fill:none;stroke-width:2;stroke-linecap:butt;stroke-linejoin:miter;stroke:rgb(0%,0%,100%);stroke-opacity:1;stroke-miterlimit:10;" d="M 41.667969 250 L 141.148438 427.632812 "/>
<path style="fill:none;stroke-width:2;stroke-linecap:butt;stroke-linejoin:miter;stroke:rgb(0%,0%,100%);stroke-opacity:1;stroke-miterlimit:10;" d="M 41.667969 250 L 127.546875 418.546875 "/>
<path style="fill:none;stroke-width:2;stroke-linecap:butt;stroke-linejoin:miter;stroke:rgb(0%,0%,100%);stroke-opacity:1;stroke-miterlimit:10;" d="M 41.667969 250 L 114.699219 408.417969 "/>
<path style="fill:none;stroke-width:2;stroke-linecap:butt;stroke-linejoin:miter;stroke:rgb(0%,0%,100%);stroke-opacity:1;stroke-miterlimit:10;" d="M 41.667969 250 L 102.6875 397.3125 "/>
<path style="fill:none;stroke-width:2;stroke-linecap:butt;stroke-linejoin:miter;stroke:rgb(0%,0%,100%);stroke-opacity:1;stroke-miterlimit:10;" d="M 41.667969 250 L 91.582031 385.300781 "/>
<path style="fill:none;stroke-width:2;stroke-linecap:butt;stroke-linejoin:miter;stroke:rgb(0%,0%,100%);stroke-opacity:1;stroke-miterlimit:10;" d="M 41.667969 250 L 81.457031 372.457031 "/>
<path style="fill:none;stroke-width:2;stroke-linecap:butt;stroke-linejoin:miter;stroke:rgb(0%,0%,100%);stroke-opacity:1;stroke-miterlimit:10;" d="M 41.667969 250 L 72.367188 358.855469 "/>
<path style="fill:none;stroke-width:2;stroke-linecap:butt;stroke-linejoin:miter;stroke:rgb(0%,0%,100%);stroke-opacity:1;stroke-miterlimit:10;" d="M 41.667969 250 L 64.375 344.582031 "/>
<path style="fill:none;stroke-width:2;stroke-linecap:butt;stroke-linejoin:miter;stroke:rgb(0%,0%,100%);stroke-opacity:1;stroke-miterlimit:10;" d="M 41.667969 250 L 57.527344 329.726562 "/>
<path style="fill:none;stroke-width:2;stroke-linecap:butt;stroke-linejoin:miter;stroke:rgb(0%,0%,100%);stroke-opacity:1;stroke-miterlimit:10;" d="M 41.667969 250 L 51.863281 314.378906 "/>
<path style="fill:none;stroke-width:2;stroke-linecap:butt;stroke-linejoin:miter;stroke:rgb(0%,0%,100%);stroke-opacity:1;stroke-miterlimit:10;" d="M 41.667969 250 L 47.425781 298.632812 "/>
<path style="fill:none;stroke-width:2;stroke-linecap:butt;stroke-linejoin:miter;stroke:rgb(0%,0%,100%);stroke-opacity:1;stroke-miterlimit:10;" d="M 41.667969 250 L 44.234375 282.589844 "/>
<path style="fill:none;stroke-width:2;stroke-linecap:butt;stroke-linejoin:miter;stroke:rgb(0%,0%,100%);stroke-opacity:1;stroke-miterlimit:10;" d="M 41.667969 250 L 42.308594 266.34375 "/>
<path style="fill:none;stroke-width:2;stroke-linecap:butt;stroke-linejoin:miter;stroke:rgb(50.196078%,0%,50.196078%);stroke-opacity:1;stroke-miterlimit:10;" d="M 250 41.667969 L 250 458.335938 "/>
<path style="fill:none;stroke-width:2;stroke-linecap:butt;stroke-linejoin:miter;stroke:rgb(50.196078%,0%,50.196078%);stroke-opacity:1;stroke-miterlimit:10;" d="M 250 41.667969 L 233.65625 457.691406 "/>
<path style="fill:none;stroke-width:2;stroke-linecap:butt;stroke-linejoin:miter;stroke:rgb(50.196078%,0%,50.196078%);stroke-opacity:1;stroke-miterlimit:10;" d="M 250 41.667969 L 217.410156 455.769531 "/>
<path style="fill:none;stroke-width:2;stroke-linecap:butt;stroke-linejoin:miter;stroke:rgb(50.196078%,0%,50.196078%);stroke-opacity:1;stroke-miterlimit:10;" d="M 250 41.667969 L 201.367188 452.578125 "/>
<path style="fill:none;stroke-width:2;stroke-linecap:butt;stroke-linejoin:miter;stroke:rgb(50.196078%,0%,50.196078%);stroke-opacity:1;stroke-miterlimit:10;" d="M 250 41.667969 L 185.621094 448.136719 "/>
<path style="fill:none;stroke-width:2;stroke-linecap:butt;stroke-linejoin:miter;stroke:rgb(50.196078%,0%,50.196078%);stroke-opacity:1;stroke-miterlimit:10;" d="M 250 41.667969 L 170.273438 442.476562 "/>
<path style="fill:none;stroke-width:2;stroke-linecap:butt;stroke-linejoin:miter;stroke:rgb(50.196078%,0%,50.196078%);stroke-opacity:1;stroke-miterlimit:10;" d="M 250 41.667969 L 155.417969 435.628906 "/>
<path style="fill:none;stroke-width:2;stroke-linecap:butt;stroke-linejoin:miter;stroke:rgb(50.196078%,0%,50.196078%);stroke-opacity:1;stroke-miterlimit:10;" d="M 250 41.667969 L 141.144531 427.632812 "/>
<path style="fill:none;stroke-width:2;stroke-linecap:butt;stroke-linejoin:miter;stroke:rgb(50.196078%,0%,50.196078%);stroke-opacity:1;stroke-miterlimit:10;" d="M 250 41.667969 L 127.542969 418.546875 "/>
<path style="fill:none;stroke-width:2;stroke-linecap:butt;stroke-linejoin:miter;stroke:rgb(50.196078%,0%,50.196078%);stroke-opacity:1;stroke-miterlimit:10;" d="M 250 41.667969 L 114.699219 408.417969 "/>
<path style="fill:none;stroke-width:2;stroke-linecap:butt;stroke-linejoin:miter;stroke:rgb(50.196078%,0%,50.196078%);stroke-opacity:1;stroke-miterlimit:10;" d="M 250 41.667969 L 102.6875 397.316406 "/>
<path style="fill:none;stroke-width:2;stroke-linecap:butt;stroke-linejoin:miter;stroke:rgb(50.196078%,0%,50.196078%);stroke-opacity:1;stroke-miterlimit:10;" d="M 250 41.667969 L 91.582031 385.304688 "/>
<path style="fill:none;stroke-width:2;stroke-linecap:butt;stroke-linejoin:miter;stroke:rgb(50.196078%,0%,50.196078%);stroke-opacity:1;stroke-miterlimit:10;" d="M 250 41.667969 L 81.453125 372.457031 "/>
<path style="fill:none;stroke-width:2;stroke-linecap:butt;stroke-linejoin:miter;stroke:rgb(50.196078%,0%,50.196078%);stroke-opacity:1;stroke-miterlimit:10;" d="M 250 41.667969 L 72.367188 358.855469 "/>
<path style="fill:none;stroke-width:2;stroke-linecap:butt;stroke-linejoin:miter;stroke:rgb(50.196078%,0%,50.196078%);stroke-opacity:1;stroke-miterlimit:10;" d="M 250 41.667969 L 64.375 344.582031 "/>
<path style="fill:none;stroke-width:2;stroke-linecap:butt;stroke-linejoin:miter;stroke:rgb(50.196078%,0%,50.196078%);stroke-opacity:1;stroke-miterlimit:10;" d="M 250 41.667969 L 57.523438 329.726562 "/>
<path style="fill:none;stroke-width:2;stroke-linecap:butt;stroke-linejoin:miter;stroke:rgb(50.196078%,0%,50.196078%);stroke-opacity:1;stroke-miterlimit:10;" d="M 250 41.667969 L 51.863281 314.378906 "/>
<path style="fill:none;stroke-width:2;stroke-linecap:butt;stroke-linejoin:miter;stroke:rgb(50.196078%,0%,50.196078%);stroke-opacity:1;stroke-miterlimit:10;" d="M 250 41.667969 L 47.421875 298.636719 "/>
<path style="fill:none;stroke-width:2;stroke-linecap:butt;stroke-linejoin:miter;stroke:rgb(50.196078%,0%,50.196078%);stroke-opacity:1;stroke-miterlimit:10;" d="M 250 41.667969 L 44.230469 282.59375 "/>
<path style="fill:none;stroke-width:2;stroke-linecap:butt;stroke-linejoin:miter;stroke:rgb(50.196078%,0%,50.196078%);stroke-opacity:1;stroke-miterlimit:10;" d="M 250 41.667969 L 42.308594 266.347656 "/>
<path style="fill:none;stroke-width:2;stroke-linecap:butt;stroke-linejoin:miter;stroke:rgb(50.196078%,0%,50.196078%);stroke-opacity:1;stroke-miterlimit:10;" d="M 250 41.667969 L 41.667969 250 "/>
<path style="fill:none;stroke-width:2;stroke-linecap:butt;stroke-linejoin:miter;stroke:rgb(50.196078%,0%,50.196078%);stroke-opacity:1;stroke-miterlimit:10;" d="M 250 41.667969 L 42.308594 233.65625 "/>
<path style="fill:none;stroke-width:2;stroke-linecap:butt;stroke-linejoin:miter;stroke:rgb(50.196078%,0%,50.196078%);stroke-opacity:1;stroke-miterlimit:10;" d="M 250 41.667969 L 44.230469 217.410156 "/>
<path style="fill:none;stroke-width:2;stroke-linecap:butt;stroke-linejoin:miter;stroke:rgb(50.196078%,0%,50.196078%);stroke-opacity:1;stroke-miterlimit:10;" d="M 250 41.667969 L 47.421875 201.367188 "/>
<path style="fill:none;stroke-width:2;stroke-linecap:butt;stroke-linejoin:miter;stroke:rgb(50.196078%,0%,50.196078%);stroke-opacity:1;stroke-miterlimit:10;" d="M 250 41.667969 L 51.863281 185.621094 "/>
<path style="fill:none;stroke-width:2;stroke-linecap:butt;stroke-linejoin:miter;stroke:rgb(50.196078%,0%,50.196078%);stroke-opacity:1;stroke-miterlimit:10;" d="M 250 41.667969 L 57.523438 170.277344 "/>
<path style="fill:none;stroke-width:2;stroke-linecap:butt;stroke-linejoin:miter;stroke:rgb(50.196078%,0%,50.196078%);stroke-opacity:1;stroke-miterlimit:10;" d="M 250 41.667969 L 64.375 155.421875 "/>
<path style="fill:none;stroke-width:2;stroke-linecap:butt;stroke-linejoin:miter;stroke:rgb(50.196078%,0%,50.196078%);stroke-opacity:1;stroke-miterlimit:10;" d="M 250 41.667969 L 72.367188 141.148438 "/>
<path style="fill:none;stroke-width:2;stroke-linecap:butt;stroke-linejoin:miter;stroke:rgb(50.196078%,0%,50.196078%);stroke-opacity:1;stroke-miterlimit:10;" d="M 250 41.667969 L 81.453125 127.546875 "/>
<path style="fill:none;stroke-width:2;stroke-linecap:butt;stroke-linejoin:miter;stroke:rgb(50.196078%,0%,50.196078%);stroke-opacity:1;stroke-miterlimit:10;" d="M 250 41.667969 L 91.582031 114.699219 "/>
<path style="fill:none;stroke-width:2;stroke-linecap:butt;stroke-linejoin:miter;stroke:rgb(50.196078%,0%,50.196078%);stroke-opacity:1;stroke-miterlimit:10;" d="M 250 41.667969 L 102.6875 102.6875 "/>
<path style="fill:none;stroke-width:2;stroke-linecap:butt;stroke-linejoin:miter;stroke:rgb(50.196078%,0%,50.196078%);stroke-opacity:1;stroke-miterlimit:10;" d="M 250 41.667969 L 114.699219 91.582031 "/>
<path style="fill:none;stroke-width:2;stroke-linecap:butt;stroke-linejoin:miter;stroke:rgb(50.196078%,0%,50.196078%);stroke-opacity:1;stroke-miterlimit:10;" d="M 250 41.667969 L 127.542969 81.457031 "/>
<path style="fill:none;stroke-width:2;stroke-linecap:butt;stroke-linejoin:miter;stroke:rgb(50.196078%,0%,50.196078%);stroke-opacity:1;stroke-miterlimit:10;" d="M 250 41.667969 L 141.144531 72.367188 "/>
<path style="fill:none;stroke-width:2;stroke-linecap:butt;stroke-linejoin:miter;stroke:rgb(50.196078%,0%,50.196078%);stroke-opacity:1;stroke-miterlimit:10;" d="M 250 41.667969 L 155.417969 64.375 "/>
<path style="fill:none;stroke-width:2;stroke-linecap:butt;stroke-linejoin:miter;stroke:rgb(50.196078%,0%,50.196078%);stroke-opacity:1;stroke-miterlimit:10;" d="M 250 41.667969 L 170.273438 57.527344 "/>
<path style="fill:none;stroke-width:2;stroke-linecap:butt;stroke-linejoin:miter;stroke:rgb(50.196078%,0%,50.196078%);stroke-opacity:1;stroke-miterlimit:10;" d="M 250 41.667969 L 185.621094 51.863281 "/>
<path style="fill:none;stroke-width:2;stroke-linecap:butt;stroke-linejoin:miter;stroke:rgb(50.196078%,0%,50.196078%);stroke-opacity:1;stroke-miterlimit:10;" d="M 250 41.667969 L 201.367188 47.425781 "/>
<path style="fill:none;stroke-width:2;stroke-linecap:butt;stroke-linejoin:miter;stroke:rgb(50.196078%,0%,50.196078%);stroke-opacity:1;stroke-miterlimit:10;" d="M 250 41.667969 L 217.410156 44.234375 "/>
<path style="fill:none;stroke-width:2;stroke-linecap:butt;stroke-linejoin:miter;stroke:rgb(50.196078%,0%,50.196078%);stroke-opacity:1;stroke-miterlimit:10;" d="M 250 41.667969 L 233.65625 42.308594 "/>
<g clip-path="url(#clip1)" clip-rule="nonzero">
<g clip-path="url(#clip2)" clip-rule="nonzero">
<path style="fill:none;stroke-width:2;stroke-linecap:butt;stroke-linejoin:miter;stroke:rgb(100%,64.705882%,0%);stroke-opacity:1;stroke-miterlimit:10;" d="M 458.332031 250 L 41.664062 250 "/>
</g>
</g>
<g clip-path="url(#clip3)" clip-rule="nonzero">
<g clip-path="url(#clip4)" clip-rule="nonzero">
<path style="fill:none;stroke-width:2;stroke-linecap:butt;stroke-linejoin:miter;stroke:rgb(100%,64.705882%,0%);stroke-opacity:1;stroke-miterlimit:10;" d="M 458.332031 250 L 42.308594 233.65625 "/>
</g>
</g>
<g clip-path="url(#clip5)" clip-rule="nonzero">
<g clip-path="url(#clip6)" clip-rule="nonzero">
<path style="fill:none;stroke-width:2;stroke-linecap:butt;stroke-linejoin:miter;stroke:rgb(100%,64.705882%,0%);stroke-opacity:1;stroke-miterlimit:10;" d="M 458.332031 250 L 44.230469 217.410156 "/>
</g>
</g>
<g clip-path="url(#clip7)" clip-rule="nonzero">
<g clip-path="url(#clip8)" clip-rule="nonzero">
<path style="fill:none;stroke-width:2;stroke-linecap:butt;stroke-linejoin:miter;stroke:rgb(100%,64.705882%,0%);stroke-opacity:1;stroke-miterlimit:10;" d="M 458.332031 250 L 47.421875 201.367188 "/>
</g>
</g>
<g clip-path="url(#clip9)" clip-rule="nonzero">
<g clip-path="url(#clip10)" clip-rule="nonzero">
<path style="fill:none;stroke-width:2;stroke-linecap:butt;stroke-linejoin:miter;stroke:rgb(100%,64.705882%,0%);stroke-opacity:1;stroke-miterlimit:10;" d="M 458.332031 250 L 51.863281 185.621094 "/>
</g>
</g>
<g clip-path="url(#clip11)" clip-rule="nonzero">
<g clip-path="url(#clip12)" clip-rule="nonzero">
<path style="fill:none;stroke-width:2;stroke-linecap:butt;stroke-linejoin:miter;stroke:rgb(100%,64.705882%,0%);stroke-opacity:1;stroke-miterlimit:10;" d="M 458.332031 250 L 57.523438 170.273438 "/>
</g>
</g>
<g clip-path="url(#clip13)" clip-rule="nonzero">
<g clip-path="url(#clip14)" clip-rule="nonzero">
<path style="fill:none;stroke-width:2;stroke-linecap:butt;stroke-linejoin:miter;stroke:rgb(100%,64.705882%,0%);stroke-opacity:1;stroke-miterlimit:10;" d="M 458.332031 250 L 64.371094 155.417969 "/>
</g>
</g>
<g clip-path="url(#clip15)" clip-rule="nonzero">
<g clip-path="url(#clip16)" clip-rule="nonzero">
<path style="fill:none;stroke-width:2;stroke-linecap:butt;stroke-linejoin:miter;stroke:rgb(100%,64.705882%,0%);stroke-opacity:1;stroke-miterlimit:10;" d="M 458.332031 250 L 72.367188 141.144531 "/>
</g>
</g>
<g clip-path="url(#clip17)" clip-rule="nonzero">
<g clip-path="url(#clip18)" clip-rule="nonzero">
<path style="fill:none;stroke-width:2;stroke-linecap:butt;stroke-linejoin:miter;stroke:rgb(100%,64.705882%,0%);stroke-opacity:1;stroke-miterlimit:10;" d="M 458.332031 250 L 81.453125 127.542969 "/>
</g>
</g>
<g clip-path="url(#clip19)" clip-rule="nonzero">
<g clip-path="url(#clip20)" clip-rule="nonzero">
<path style="fill:none;stroke-width:2;stroke-linecap:butt;stroke-linejoin:miter;stroke:rgb(100%,64.705882%,0%);stroke-opacity:1;stroke-miterlimit:10;" d="M 458.332031 250 L 91.582031 114.699219 "/>
</g>
</g>
<g clip-path="url(#clip21)" clip-rule="nonzero">
<g clip-path="url(#clip22)" clip-rule="nonzero">
<path style="fill:none;stroke-width:2;stroke-linecap:butt;stroke-linejoin:miter;stroke:rgb(100%,64.705882%,0%);stroke-opacity:1;stroke-miterlimit:10;" d="M 458.332031 250 L 102.683594 102.6875 "/>
</g>
</g>
<g clip-path="url(#clip23)" clip-rule="nonzero">
<g clip-path="url(#clip24)" clip-rule="nonzero">
<path style="fill:none;stroke-width:2;stroke-linecap:butt;stroke-linejoin:miter;stroke:rgb(100%,64.705882%,0%);stroke-opacity:1;stroke-miterlimit:10;" d="M 458.332031 250 L 114.695312 91.582031 "/>
</g>
</g>
<g clip-path="url(#clip25)" clip-rule="nonzero">
<g clip-path="url(#clip26)" clip-rule="nonzero">
<path style="fill:none;stroke-width:2;stroke-linecap:butt;stroke-linejoin:miter;stroke:rgb(100%,64.705882%,0%);stroke-opacity:1;stroke-miterlimit:10;" d="M 458.332031 250 L 127.542969 81.453125 "/>
</g>
</g>
<g clip-path="url(#clip27)" clip-rule="nonzero">
<g clip-path="url(#clip28)" clip-rule="nonzero">
<path style="fill:none;stroke-width:2;stroke-linecap:butt;stroke-linejoin:miter;stroke:rgb(100%,64.705882%,0%);stroke-opacity:1;stroke-miterlimit:10;" d="M 458.332031 250 L 141.144531 72.367188 "/>
</g>
</g>
<g clip-path="url(#clip29)" clip-rule="nonzero">
<g clip-path="url(#clip30)" clip-rule="nonzero">
<path style="fill:none;stroke-width:2;stroke-linecap:butt;stroke-linejoin:miter;stroke:rgb(100%,64.705882%,0%);stroke-opacity:1;stroke-miterlimit:10;" d="M 458.332031 250 L 155.417969 64.375 "/>
</g>
</g>
<g clip-path="url(#clip31)" clip-rule="nonzero">
<g clip-path="url(#clip32)" clip-rule="nonzero">
<path style="fill:none;stroke-width:2;stroke-linecap:butt;stroke-linejoin:miter;stroke:rgb(100%,64.705882%,0%);stroke-opacity:1;stroke-miterlimit:10;" d="M 458.332031 250 L 170.273438 57.523438 "/>
</g>
</g>
<g clip-path="url(#clip33)" clip-rule="nonzero">
<g clip-path="url(#clip34)" clip-rule="nonzero">
<path style="fill:none;stroke-width:2;stroke-linecap:butt;stroke-linejoin:miter;stroke:rgb(100%,64.705882%,0%);stroke-opacity:1;stroke-miterlimit:10;" d="M 458.332031 250 L 185.621094 51.863281 "/>
</g>
</g>
<g clip-path="url(#clip35)" clip-rule="nonzero">
<g clip-path="url(#clip36)" clip-rule="nonzero">
<path style="fill:none;stroke-width:2;stroke-linecap:butt;stroke-linejoin:miter;stroke:rgb(100%,64.705882%,0%);stroke-opacity:1;stroke-miterlimit:10;" d="M 458.332031 250 L 201.363281 47.421875 "/>
</g>
</g>
<g clip-path="url(#clip37)" clip-rule="nonzero">
<g clip-path="url(#clip38)" clip-rule="nonzero">
<path style="fill:none;stroke-width:2;stroke-linecap:butt;stroke-linejoin:miter;stroke:rgb(100%,64.705882%,0%);stroke-opacity:1;stroke-miterlimit:10;" d="M 458.332031 250 L 217.40625 44.230469 "/>
</g>
</g>
<g clip-path="url(#clip39)" clip-rule="nonzero">
<g clip-path="url(#clip40)" clip-rule="nonzero">
<path style="fill:none;stroke-width:2;stroke-linecap:butt;stroke-linejoin:miter;stroke:rgb(100%,64.705882%,0%);stroke-opacity:1;stroke-miterlimit:10;" d="M 458.332031 250 L 233.652344 42.308594 "/>
</g>
</g>
<g clip-path="url(#clip41)" clip-rule="nonzero">
<g clip-path="url(#clip42)" clip-rule="nonzero">
<path style="fill:none;stroke-width:2;stroke-linecap:butt;stroke-linejoin:miter;stroke:rgb(100%,64.705882%,0%);stroke-opacity:1;stroke-miterlimit:10;" d="M 458.332031 250 L 250 41.667969 "/>
</g>
</g>
<g clip-path="url(#clip43)" clip-rule="nonzero">
<g clip-path="url(#clip44)" clip-rule="nonzero">
<path style="fill:none;stroke-width:2;stroke-linecap:butt;stroke-linejoin:miter;stroke:rgb(100%,64.705882%,0%);stroke-opacity:1;stroke-miterlimit:10;" d="M 458.332031 250 L 266.34375 42.308594 "/>
</g>
</g>
</g>
</svg>
