<?xml version="1.0" encoding="UTF-8"?>
<svg xmlns="http://www.w3.org/2000/svg" xmlns:xlink="http://www.w3.org/1999/xlink" width="500pt" height="439.634252pt" viewBox="0 0 500 439.634252" version="1.1">
<g id="surface1">
<path style=" stroke:none;fill-rule:nonzero;fill:rgb(13.333333%,69.411765%,29.803922%);fill-opacity:1;" d="M 159.453125 310.367188 L 68.90625 400.914062 L 99.089844 431.097656 L 189.636719 340.550781 Z M 159.453125 310.367188 "/>
<path style=" stroke:none;fill-rule:nonzero;fill:rgb(98.039216%,56.862745%,98.431373%);fill-opacity:1;" d="M 189.632812 340.546875 L 129.265625 400.914062 L 159.449219 431.097656 L 219.816406 370.730469 Z M 189.632812 340.546875 "/>
<path style=" stroke:none;fill-rule:nonzero;fill:rgb(24.705882%,70.980392%,89.803922%);fill-opacity:1;" d="M 219.816406 370.730469 L 189.632812 400.914062 L 219.816406 431.097656 L 250 400.914062 Z M 219.816406 370.730469 "/>
<path style=" stroke:none;fill-rule:nonzero;fill:rgb(13.333333%,69.411765%,29.803922%);fill-opacity:1;" d="M 159.453125 310.367188 L 250 219.820312 L 219.816406 189.636719 L 129.269531 280.183594 Z M 159.453125 310.367188 "/>
<path style=" stroke:none;fill-rule:nonzero;fill:rgb(0%,0%,0%);fill-opacity:1;" d="M 129.269531 280.183594 L 189.636719 219.816406 L 159.453125 189.632812 L 99.085938 250 Z M 129.269531 280.183594 "/>
<path style=" stroke:none;fill-rule:nonzero;fill:rgb(95.294118%,69.019608%,81.176471%);fill-opacity:1;" d="M 99.085938 250 L 129.269531 219.816406 L 99.085938 189.632812 L 68.902344 219.816406 Z M 99.085938 250 "/>
<path style=" stroke:none;fill-rule:nonzero;fill:rgb(100%,84.313725%,0%);fill-opacity:1;" d="M 159.453125 310.367188 L 250 400.914062 L 280.183594 370.730469 L 189.636719 280.183594 Z M 159.453125 310.367188 "/>
<path style=" stroke:none;fill-rule:nonzero;fill:rgb(95.294118%,52.941176%,18.431373%);fill-opacity:1;" d="M 189.632812 280.183594 L 250 340.550781 L 280.183594 310.367188 L 219.816406 250 Z M 189.632812 280.183594 "/>
<path style=" stroke:none;fill-rule:nonzero;fill:rgb(100%,34.901961%,56.078431%);fill-opacity:1;" d="M 219.816406 250 L 250 280.183594 L 280.183594 250 L 250 219.816406 Z M 219.816406 250 "/>
<path style=" stroke:none;fill-rule:nonzero;fill:rgb(100%,84.313725%,0%);fill-opacity:1;" d="M 159.453125 310.367188 L 68.90625 219.820312 L 38.722656 250.003906 L 129.269531 340.550781 Z M 159.453125 310.367188 "/>
<path style=" stroke:none;fill-rule:nonzero;fill:rgb(8.235294%,69.803922%,82.745098%);fill-opacity:1;" d="M 129.269531 340.546875 L 68.902344 280.179688 L 38.71875 310.363281 L 99.085938 370.730469 Z M 129.269531 340.546875 "/>
<path style=" stroke:none;fill-rule:nonzero;fill:rgb(13.72549%,43.137255%,58.823529%);fill-opacity:1;" d="M 99.085938 370.730469 L 68.902344 340.546875 L 38.71875 370.730469 L 68.902344 400.914062 Z M 99.085938 370.730469 "/>
<path style=" stroke:none;fill-rule:nonzero;fill:rgb(96.470588%,96.078431%,93.333333%);fill-opacity:1;" d="M 370.730469 280.183594 L 280.183594 370.730469 L 310.367188 400.914062 L 400.914062 310.367188 Z M 370.730469 280.183594 "/>
<path style=" stroke:none;fill-rule:nonzero;fill:rgb(41.568627%,71.372549%,77.647059%);fill-opacity:1;" d="M 400.914062 310.367188 L 340.546875 370.734375 L 370.730469 400.917969 L 431.097656 340.550781 Z M 400.914062 310.367188 "/>
<path style=" stroke:none;fill-rule:nonzero;fill:rgb(100%,80.784314%,67.843137%);fill-opacity:1;" d="M 431.097656 340.546875 L 400.914062 370.730469 L 431.097656 400.914062 L 461.28125 370.730469 Z M 431.097656 340.546875 "/>
<path style=" stroke:none;fill-rule:nonzero;fill:rgb(96.470588%,96.078431%,93.333333%);fill-opacity:1;" d="M 370.730469 280.183594 L 461.277344 189.636719 L 431.09375 159.453125 L 340.546875 250 Z M 370.730469 280.183594 "/>
<path style=" stroke:none;fill-rule:nonzero;fill:rgb(92.54902%,93.333333%,23.529412%);fill-opacity:1;" d="M 340.546875 250 L 400.914062 189.632812 L 370.730469 159.449219 L 310.363281 219.816406 Z M 340.546875 250 "/>
<path style=" stroke:none;fill-rule:nonzero;fill:rgb(37.647059%,68.627451%,38.431373%);fill-opacity:1;" d="M 310.367188 219.816406 L 340.550781 189.632812 L 310.367188 159.449219 L 280.183594 189.632812 Z M 310.367188 219.816406 "/>
<path style=" stroke:none;fill-rule:nonzero;fill:rgb(35.294118%,0%,84.313725%);fill-opacity:1;" d="M 370.730469 280.183594 L 461.277344 370.730469 L 491.460938 340.546875 L 400.914062 250 Z M 370.730469 280.183594 "/>
<path style=" stroke:none;fill-rule:nonzero;fill:rgb(0%,61.960784%,83.529412%);fill-opacity:1;" d="M 400.914062 250 L 461.28125 310.367188 L 491.464844 280.183594 L 431.097656 219.816406 Z M 400.914062 250 "/>
<path style=" stroke:none;fill-rule:nonzero;fill:rgb(0%,83.137255%,72.156863%);fill-opacity:1;" d="M 431.097656 219.816406 L 461.28125 250 L 491.464844 219.816406 L 461.28125 189.632812 Z M 431.097656 219.816406 "/>
<path style=" stroke:none;fill-rule:nonzero;fill:rgb(35.294118%,0%,84.313725%);fill-opacity:1;" d="M 370.730469 280.183594 L 280.183594 189.636719 L 250 219.820312 L 340.546875 310.367188 Z M 370.730469 280.183594 "/>
<path style=" stroke:none;fill-rule:nonzero;fill:rgb(76.078431%,0%,82.745098%);fill-opacity:1;" d="M 340.546875 310.367188 L 280.179688 250 L 249.996094 280.183594 L 310.363281 340.550781 Z M 340.546875 310.367188 "/>
<path style=" stroke:none;fill-rule:nonzero;fill:rgb(83.529412%,0%,39.607843%);fill-opacity:1;" d="M 310.367188 340.546875 L 280.183594 310.363281 L 250 340.546875 L 280.183594 370.730469 Z M 310.367188 340.546875 "/>
<path style=" stroke:none;fill-rule:nonzero;fill:rgb(13.333333%,69.411765%,29.803922%);fill-opacity:1;" d="M 340.546875 129.269531 L 431.09375 38.722656 L 400.910156 8.539062 L 310.363281 99.085938 Z M 340.546875 129.269531 "/>
<path style=" stroke:none;fill-rule:nonzero;fill:rgb(98.039216%,56.862745%,98.431373%);fill-opacity:1;" d="M 310.367188 99.085938 L 370.734375 38.71875 L 340.550781 8.535156 L 280.183594 68.902344 Z M 310.367188 99.085938 "/>
<path style=" stroke:none;fill-rule:nonzero;fill:rgb(24.705882%,70.980392%,89.803922%);fill-opacity:1;" d="M 280.183594 68.902344 L 310.367188 38.71875 L 280.183594 8.535156 L 250 38.71875 Z M 280.183594 68.902344 "/>
<path style=" stroke:none;fill-rule:nonzero;fill:rgb(13.333333%,69.411765%,29.803922%);fill-opacity:1;" d="M 340.546875 129.269531 L 250 219.816406 L 280.183594 250 L 370.730469 159.453125 Z M 340.546875 129.269531 "/>
<path style=" stroke:none;fill-rule:nonzero;fill:rgb(0%,0%,0%);fill-opacity:1;" d="M 370.730469 159.453125 L 310.363281 219.820312 L 340.546875 250.003906 L 400.914062 189.636719 Z M 370.730469 159.453125 "/>
<path style=" stroke:none;fill-rule:nonzero;fill:rgb(95.294118%,69.019608%,81.176471%);fill-opacity:1;" d="M 400.914062 189.632812 L 370.730469 219.816406 L 400.914062 250 L 431.097656 219.816406 Z M 400.914062 189.632812 "/>
<path style=" stroke:none;fill-rule:nonzero;fill:rgb(100%,84.313725%,0%);fill-opacity:1;" d="M 340.546875 129.269531 L 250 38.722656 L 219.816406 68.90625 L 310.363281 159.453125 Z M 340.546875 129.269531 "/>
<path style=" stroke:none;fill-rule:nonzero;fill:rgb(95.294118%,52.941176%,18.431373%);fill-opacity:1;" d="M 310.367188 159.453125 L 250 99.085938 L 219.816406 129.269531 L 280.183594 189.636719 Z M 310.367188 159.453125 "/>
<path style=" stroke:none;fill-rule:nonzero;fill:rgb(100%,34.901961%,56.078431%);fill-opacity:1;" d="M 280.183594 189.632812 L 250 159.449219 L 219.816406 189.632812 L 250 219.816406 Z M 280.183594 189.632812 "/>
<path style=" stroke:none;fill-rule:nonzero;fill:rgb(100%,84.313725%,0%);fill-opacity:1;" d="M 340.546875 129.269531 L 431.09375 219.816406 L 461.277344 189.632812 L 370.730469 99.085938 Z M 340.546875 129.269531 "/>
<path style=" stroke:none;fill-rule:nonzero;fill:rgb(8.235294%,69.803922%,82.745098%);fill-opacity:1;" d="M 370.730469 99.085938 L 431.097656 159.453125 L 461.28125 129.269531 L 400.914062 68.902344 Z M 370.730469 99.085938 "/>
<path style=" stroke:none;fill-rule:nonzero;fill:rgb(13.72549%,43.137255%,58.823529%);fill-opacity:1;" d="M 400.914062 68.902344 L 431.097656 99.085938 L 461.28125 68.902344 L 431.097656 38.71875 Z M 400.914062 68.902344 "/>
<path style=" stroke:none;fill-rule:nonzero;fill:rgb(96.470588%,96.078431%,93.333333%);fill-opacity:1;" d="M 129.269531 159.453125 L 219.816406 68.90625 L 189.632812 38.722656 L 99.085938 129.269531 Z M 129.269531 159.453125 "/>
<path style=" stroke:none;fill-rule:nonzero;fill:rgb(41.568627%,71.372549%,77.647059%);fill-opacity:1;" d="M 99.085938 129.269531 L 159.453125 68.902344 L 129.269531 38.71875 L 68.902344 99.085938 Z M 99.085938 129.269531 "/>
<path style=" stroke:none;fill-rule:nonzero;fill:rgb(100%,80.784314%,67.843137%);fill-opacity:1;" d="M 68.902344 99.085938 L 99.085938 68.902344 L 68.902344 38.71875 L 38.71875 68.902344 Z M 68.902344 99.085938 "/>
<path style=" stroke:none;fill-rule:nonzero;fill:rgb(96.470588%,96.078431%,93.333333%);fill-opacity:1;" d="M 129.269531 159.453125 L 38.722656 250 L 68.90625 280.183594 L 159.453125 189.636719 Z M 129.269531 159.453125 "/>
<path style=" stroke:none;fill-rule:nonzero;fill:rgb(92.54902%,93.333333%,23.529412%);fill-opacity:1;" d="M 159.453125 189.632812 L 99.085938 250 L 129.269531 280.183594 L 189.636719 219.816406 Z M 159.453125 189.632812 "/>
<path style=" stroke:none;fill-rule:nonzero;fill:rgb(37.647059%,68.627451%,38.431373%);fill-opacity:1;" d="M 189.632812 219.816406 L 159.449219 250 L 189.632812 280.183594 L 219.816406 250 Z M 189.632812 219.816406 "/>
<path style=" stroke:none;fill-rule:nonzero;fill:rgb(35.294118%,0%,84.313725%);fill-opacity:1;" d="M 129.269531 159.453125 L 38.722656 68.90625 L 8.539062 99.089844 L 99.085938 189.636719 Z M 129.269531 159.453125 "/>
<path style=" stroke:none;fill-rule:nonzero;fill:rgb(0%,61.960784%,83.529412%);fill-opacity:1;" d="M 99.085938 189.632812 L 38.71875 129.265625 L 8.535156 159.449219 L 68.902344 219.816406 Z M 99.085938 189.632812 "/>
<path style=" stroke:none;fill-rule:nonzero;fill:rgb(0%,83.137255%,72.156863%);fill-opacity:1;" d="M 68.902344 219.816406 L 38.71875 189.632812 L 8.535156 219.816406 L 38.71875 250 Z M 68.902344 219.816406 "/>
<path style=" stroke:none;fill-rule:nonzero;fill:rgb(35.294118%,0%,84.313725%);fill-opacity:1;" d="M 129.269531 159.453125 L 219.816406 250 L 250 219.816406 L 159.453125 129.269531 Z M 129.269531 159.453125 "/>
<path style=" stroke:none;fill-rule:nonzero;fill:rgb(76.078431%,0%,82.745098%);fill-opacity:1;" d="M 159.453125 129.269531 L 219.820312 189.636719 L 250.003906 159.453125 L 189.636719 99.085938 Z M 159.453125 129.269531 "/>
<path style=" stroke:none;fill-rule:nonzero;fill:rgb(83.529412%,0%,39.607843%);fill-opacity:1;" d="M 189.632812 99.085938 L 219.816406 129.269531 L 250 99.085938 L 219.816406 68.902344 Z M 189.632812 99.085938 "/>
</g>
</svg>
