<?xml version="1.0" encoding="UTF-8"?>
<svg xmlns="http://www.w3.org/2000/svg" xmlns:xlink="http://www.w3.org/1999/xlink" width="1000pt" height="1000pt" viewBox="0 0 1000 1000" version="1.1">
<g id="surface1">
<path style="fill:none;stroke-width:0.4;stroke-linecap:butt;stroke-linejoin:miter;stroke:rgb(25.490196%,41.176471%,88.235294%);stroke-opacity:1;stroke-miterlimit:10;" d="M 1033.757812 1496.125 L 1031.953125 1371.125 L 1028 1246.125 L 1016.285156 996.125 L 1005.476562 746.125 L 1002.527344 621.125 L 1001.90625 496.125 L 1003.710938 371.125 L 1007.664062 246.125 L 1019.378906 -3.875 L 1030.1875 -253.875 L 1033.136719 -378.875 L 1033.757812 -503.875 "/>
<path style="fill:none;stroke-width:0.4;stroke-linecap:butt;stroke-linejoin:miter;stroke:rgb(25.490196%,41.176471%,88.235294%);stroke-opacity:1;stroke-miterlimit:10;" d="M 999.160156 1514.851562 L 1000.304688 1389.851562 L 999.011719 1264.851562 L 995.480469 1139.851562 L 990.25 1014.851562 L 978.003906 764.851562 L 972.855469 639.851562 L 969.449219 514.851562 L 968.304688 389.851562 L 969.597656 264.851562 L 973.128906 139.851562 L 978.359375 14.851562 L 990.605469 -235.148438 L 995.753906 -360.148438 L 999.160156 -485.148438 "/>
<path style="fill:none;stroke-width:0.4;stroke-linecap:butt;stroke-linejoin:miter;stroke:rgb(25.490196%,41.176471%,88.235294%);stroke-opacity:1;stroke-miterlimit:10;" d="M 961.210938 1530.257812 L 965.046875 1405.257812 L 966.707031 1280.257812 L 965.9375 1155.257812 L 962.855469 1030.257812 L 940.289062 530.257812 L 936.453125 405.257812 L 934.792969 280.257812 L 935.5625 155.257812 L 938.644531 30.257812 L 961.210938 -469.742188 "/>
<path style="fill:none;stroke-width:0.4;stroke-linecap:butt;stroke-linejoin:miter;stroke:rgb(25.490196%,41.176471%,88.235294%);stroke-opacity:1;stroke-miterlimit:10;" d="M 921.117188 1538.890625 L 931.027344 1288.890625 L 933.191406 1163.890625 L 932.949219 1038.890625 L 930.339844 913.890625 L 925.757812 788.890625 L 913.664062 538.890625 L 903.753906 288.890625 L 901.589844 163.890625 L 901.832031 38.890625 L 904.441406 -86.109375 L 909.023438 -211.109375 L 921.117188 -461.109375 "/>
<path style="fill:none;stroke-width:0.4;stroke-linecap:butt;stroke-linejoin:miter;stroke:rgb(25.490196%,41.176471%,88.235294%);stroke-opacity:1;stroke-miterlimit:10;" d="M 880.332031 1538.820312 L 892.441406 1288.820312 L 897.054688 1163.820312 L 899.707031 1038.820312 L 899.992188 913.820312 L 897.871094 788.820312 L 888.011719 538.820312 L 875.902344 288.820312 L 871.289062 163.820312 L 868.636719 38.820312 L 868.351562 -86.179688 L 870.472656 -211.179688 L 880.332031 -461.179688 "/>
<path style="fill:none;stroke-width:0.4;stroke-linecap:butt;stroke-linejoin:miter;stroke:rgb(25.490196%,41.176471%,88.235294%);stroke-opacity:1;stroke-miterlimit:10;" d="M 840.238281 1530.066406 L 862.816406 1030.066406 L 865.9375 905.066406 L 866.75 780.066406 L 865.132812 655.066406 L 861.332031 530.066406 L 838.753906 30.066406 L 835.632812 -94.933594 L 834.820312 -219.933594 L 836.4375 -344.933594 L 840.238281 -469.933594 "/>
<path style="fill:none;stroke-width:0.4;stroke-linecap:butt;stroke-linejoin:miter;stroke:rgb(25.490196%,41.176471%,88.235294%);stroke-opacity:1;stroke-miterlimit:10;" d="M 802.324219 1514.585938 L 805.691406 1389.585938 L 810.816406 1264.585938 L 823.058594 1014.585938 L 828.316406 889.585938 L 831.882812 764.585938 L 833.21875 639.585938 L 832.117188 514.585938 L 828.75 389.585938 L 823.625 264.585938 L 811.382812 14.585938 L 806.125 -110.414062 L 802.558594 -235.414062 L 801.222656 -360.414062 L 802.324219 -485.414062 "/>
<path style="fill:none;stroke-width:0.4;stroke-linecap:butt;stroke-linejoin:miter;stroke:rgb(25.490196%,41.176471%,88.235294%);stroke-opacity:1;stroke-miterlimit:10;" d="M 767.796875 1495.839844 L 768.375 1370.839844 L 771.285156 1245.839844 L 782.050781 995.839844 L 793.789062 745.839844 L 797.777344 620.839844 L 799.625 495.839844 L 799.046875 370.839844 L 796.136719 245.839844 L 785.371094 -4.160156 L 773.632812 -254.160156 L 769.644531 -379.160156 L 767.796875 -504.160156 "/>
<path style="fill:none;stroke-width:0.4;stroke-linecap:butt;stroke-linejoin:miter;stroke:rgb(25.490196%,41.176471%,88.235294%);stroke-opacity:1;stroke-miterlimit:10;" d="M 737.109375 1478.023438 L 734.765625 1353.023438 L 734.8125 1228.023438 L 737.246094 1103.023438 L 741.695312 978.023438 L 753.722656 728.023438 L 763.851562 478.023438 L 766.195312 353.023438 L 766.148438 228.023438 L 763.714844 103.023438 L 759.265625 -21.976562 L 747.238281 -271.976562 L 737.109375 -521.976562 "/>
<path style="fill:none;stroke-width:0.4;stroke-linecap:butt;stroke-linejoin:miter;stroke:rgb(25.490196%,41.176471%,88.235294%);stroke-opacity:1;stroke-miterlimit:10;" d="M 709.441406 1465.117188 L 704.699219 1340.117188 L 701.875 1215.117188 L 701.394531 1090.117188 L 703.332031 965.117188 L 712.960938 715.117188 L 725.121094 465.117188 L 729.863281 340.117188 L 732.6875 215.117188 L 733.167969 90.117188 L 731.230469 -34.882812 L 721.601562 -284.882812 L 709.441406 -534.882812 "/>
<path style="fill:none;stroke-width:0.4;stroke-linecap:butt;stroke-linejoin:miter;stroke:rgb(25.490196%,41.176471%,88.235294%);stroke-opacity:1;stroke-miterlimit:10;" d="M 683.25 1460.015625 L 672.105469 1210.015625 L 668.816406 1085.015625 L 667.808594 960.015625 L 669.238281 835.015625 L 672.882812 710.015625 L 684.351562 460.015625 L 695.496094 210.015625 L 698.785156 85.015625 L 699.792969 -39.984375 L 698.363281 -164.984375 L 694.71875 -289.984375 L 683.25 -539.984375 "/>
<path style="fill:none;stroke-width:0.4;stroke-linecap:butt;stroke-linejoin:miter;stroke:rgb(25.490196%,41.176471%,88.235294%);stroke-opacity:1;stroke-miterlimit:10;" d="M 657.089844 1463.851562 L 644.859375 1213.851562 L 639.5 1088.851562 L 635.773438 963.851562 L 634.25 838.851562 L 635.160156 713.851562 L 638.363281 588.851562 L 643.375 463.851562 L 655.605469 213.851562 L 660.964844 88.851562 L 664.691406 -36.148438 L 666.214844 -161.148438 L 665.304688 -286.148438 L 662.101562 -411.148438 L 657.089844 -536.148438 "/>
<path style="fill:none;stroke-width:0.4;stroke-linecap:butt;stroke-linejoin:miter;stroke:rgb(25.490196%,41.176471%,88.235294%);stroke-opacity:1;stroke-miterlimit:10;" d="M 629.53125 1475.769531 L 618.953125 1225.769531 L 607.113281 975.769531 L 602.976562 850.769531 L 600.945312 725.769531 L 601.328125 600.769531 L 604.066406 475.769531 L 614.644531 225.769531 L 626.484375 -24.230469 L 630.621094 -149.230469 L 632.652344 -274.230469 L 632.269531 -399.230469 L 629.53125 -524.230469 "/>
<path style="fill:none;stroke-width:0.4;stroke-linecap:butt;stroke-linejoin:miter;stroke:rgb(25.490196%,41.176471%,88.235294%);stroke-opacity:1;stroke-miterlimit:10;" d="M 599.34375 1493.109375 L 597.089844 1368.109375 L 592.78125 1243.109375 L 580.828125 993.109375 L 570.488281 743.109375 L 567.964844 618.109375 L 567.820312 493.109375 L 570.074219 368.109375 L 574.382812 243.109375 L 586.335938 -6.890625 L 596.675781 -256.890625 L 599.199219 -381.890625 L 599.34375 -506.890625 "/>
<path style="fill:none;stroke-width:0.4;stroke-linecap:butt;stroke-linejoin:miter;stroke:rgb(25.490196%,41.176471%,88.235294%);stroke-opacity:1;stroke-miterlimit:10;" d="M 565.546875 1511.984375 L 566.222656 1386.984375 L 564.46875 1261.984375 L 555.082031 1011.984375 L 542.882812 761.984375 L 538.015625 636.984375 L 535.019531 511.984375 L 534.34375 386.984375 L 536.097656 261.984375 L 545.484375 11.984375 L 557.683594 -238.015625 L 562.550781 -363.015625 L 565.546875 -488.015625 "/>
<path style="fill:none;stroke-width:0.4;stroke-linecap:butt;stroke-linejoin:miter;stroke:rgb(25.490196%,41.176471%,88.235294%);stroke-opacity:1;stroke-miterlimit:10;" d="M 528.097656 1528.179688 L 531.546875 1403.179688 L 532.746094 1278.179688 L 531.507812 1153.179688 L 528.023438 1028.179688 L 505.394531 528.179688 L 501.945312 403.179688 L 500.746094 278.179688 L 501.984375 153.179688 L 505.46875 28.179688 L 528.097656 -471.820312 "/>
<path style="fill:none;stroke-width:0.4;stroke-linecap:butt;stroke-linejoin:miter;stroke:rgb(25.490196%,41.176471%,88.235294%);stroke-opacity:1;stroke-miterlimit:10;" d="M 488.097656 1538.066406 L 497.433594 1288.066406 L 499.144531 1163.066406 L 498.429688 1038.066406 L 495.394531 913.066406 L 490.503906 788.066406 L 478.296875 538.066406 L 468.960938 288.066406 L 467.25 163.066406 L 467.964844 38.066406 L 471 -86.933594 L 475.890625 -211.933594 L 488.097656 -461.933594 "/>
<path style="fill:none;stroke-width:0.4;stroke-linecap:butt;stroke-linejoin:miter;stroke:rgb(25.490196%,41.176471%,88.235294%);stroke-opacity:1;stroke-miterlimit:10;" d="M 447.226562 1539.4375 L 459.160156 1289.4375 L 463.4375 1164.4375 L 465.652344 1039.4375 L 465.464844 914.4375 L 462.902344 789.4375 L 452.519531 539.4375 L 440.585938 289.4375 L 436.308594 164.4375 L 434.09375 39.4375 L 434.28125 -85.5625 L 436.84375 -210.5625 L 447.226562 -460.5625 "/>
<path style="fill:none;stroke-width:0.4;stroke-linecap:butt;stroke-linejoin:miter;stroke:rgb(25.490196%,41.176471%,88.235294%);stroke-opacity:1;stroke-miterlimit:10;" d="M 407.050781 1531.988281 L 418.914062 1281.988281 L 429.453125 1031.988281 L 432.152344 906.988281 L 432.492188 781.988281 L 430.421875 656.988281 L 426.253906 531.988281 L 414.390625 281.988281 L 403.851562 31.988281 L 401.152344 -93.011719 L 400.8125 -218.011719 L 402.882812 -343.011719 L 407.050781 -468.011719 "/>
<path style="fill:none;stroke-width:0.4;stroke-linecap:butt;stroke-linejoin:miter;stroke:rgb(25.490196%,41.176471%,88.235294%);stroke-opacity:1;stroke-miterlimit:10;" d="M 368.828125 1517.378906 L 372.585938 1392.378906 L 377.964844 1267.378906 L 390.191406 1017.378906 L 395.175781 892.378906 L 398.34375 767.378906 L 399.210938 642.378906 L 397.644531 517.378906 L 393.886719 392.378906 L 388.507812 267.378906 L 376.28125 17.378906 L 371.296875 -107.621094 L 368.128906 -232.621094 L 367.261719 -357.621094 L 368.828125 -482.621094 "/>
<path style="fill:none;stroke-width:0.4;stroke-linecap:butt;stroke-linejoin:miter;stroke:rgb(25.490196%,41.176471%,88.235294%);stroke-opacity:1;stroke-miterlimit:10;" d="M 333.675781 1498.878906 L 334.722656 1373.878906 L 338.046875 1248.878906 L 349.226562 998.878906 L 360.664062 748.878906 L 364.273438 623.878906 L 365.660156 498.878906 L 364.613281 373.878906 L 361.289062 248.878906 L 350.109375 -1.121094 L 338.671875 -251.121094 L 335.0625 -376.121094 L 333.675781 -501.121094 "/>
<path style="fill:none;stroke-width:0.4;stroke-linecap:butt;stroke-linejoin:miter;stroke:rgb(25.490196%,41.176471%,88.235294%);stroke-opacity:1;stroke-miterlimit:10;" d="M 302.175781 1480.628906 L 300.277344 1355.628906 L 300.800781 1230.628906 L 303.664062 1105.628906 L 308.433594 980.628906 L 320.601562 730.628906 L 330.179688 480.628906 L 332.078125 355.628906 L 331.554688 230.628906 L 328.691406 105.628906 L 323.921875 -19.371094 L 311.753906 -269.371094 L 302.175781 -519.371094 "/>
<path style="fill:none;stroke-width:0.4;stroke-linecap:butt;stroke-linejoin:miter;stroke:rgb(25.490196%,41.176471%,88.235294%);stroke-opacity:1;stroke-miterlimit:10;" d="M 274.109375 1466.710938 L 269.691406 1341.710938 L 267.296875 1216.710938 L 267.289062 1091.710938 L 269.671875 966.710938 L 279.847656 716.710938 L 291.859375 466.710938 L 296.277344 341.710938 L 298.671875 216.710938 L 298.679688 91.710938 L 296.296875 -33.289062 L 286.121094 -283.289062 L 274.109375 -533.289062 "/>
<path style="fill:none;stroke-width:0.4;stroke-linecap:butt;stroke-linejoin:miter;stroke:rgb(25.490196%,41.176471%,88.235294%);stroke-opacity:1;stroke-miterlimit:10;" d="M 248.019531 1460.234375 L 237.292969 1210.234375 L 234.417969 1085.234375 L 233.882812 960.234375 L 235.769531 835.234375 L 239.789062 710.234375 L 251.550781 460.234375 L 262.277344 210.234375 L 265.152344 85.234375 L 265.6875 -39.765625 L 263.800781 -164.765625 L 259.78125 -289.765625 L 248.019531 -539.765625 "/>
<path style="fill:none;stroke-width:0.4;stroke-linecap:butt;stroke-linejoin:miter;stroke:rgb(25.490196%,41.176471%,88.235294%);stroke-opacity:1;stroke-miterlimit:10;" d="M 222.027344 1462.652344 L 209.785156 1212.652344 L 204.6875 1087.652344 L 201.355469 962.652344 L 200.296875 837.652344 L 201.671875 712.652344 L 205.273438 587.652344 L 210.550781 462.652344 L 222.792969 212.652344 L 227.890625 87.652344 L 231.222656 -37.347656 L 232.28125 -162.347656 L 230.90625 -287.347656 L 227.304688 -412.347656 L 222.027344 -537.347656 "/>
<path style="fill:none;stroke-width:0.4;stroke-linecap:butt;stroke-linejoin:miter;stroke:rgb(25.490196%,41.176471%,88.235294%);stroke-opacity:1;stroke-miterlimit:10;" d="M 194.683594 1473.417969 L 172.09375 973.417969 L 168.324219 848.417969 L 166.746094 723.417969 L 167.601562 598.417969 L 170.757812 473.417969 L 193.347656 -26.582031 L 197.117188 -151.582031 L 198.695312 -276.582031 L 197.839844 -401.582031 L 194.683594 -526.582031 "/>
<path style="fill:none;stroke-width:0.4;stroke-linecap:butt;stroke-linejoin:miter;stroke:rgb(25.490196%,41.176471%,88.235294%);stroke-opacity:1;stroke-miterlimit:10;" d="M 164.820312 1490.132812 L 162.128906 1365.132812 L 157.488281 1240.132812 L 145.367188 990.132812 L 135.558594 740.132812 L 133.476562 615.132812 L 133.804688 490.132812 L 136.496094 365.132812 L 141.136719 240.132812 L 153.257812 -9.867188 L 163.066406 -259.867188 L 165.148438 -384.867188 L 164.820312 -509.867188 "/>
<path style="fill:none;stroke-width:0.4;stroke-linecap:butt;stroke-linejoin:miter;stroke:rgb(25.490196%,41.176471%,88.235294%);stroke-opacity:1;stroke-miterlimit:10;" d="M 131.679688 1509.046875 L 131.878906 1384.046875 L 129.675781 1259.046875 L 119.71875 1009.046875 L 107.636719 759.046875 L 103.082031 634.046875 L 100.507812 509.046875 L 100.308594 384.046875 L 102.511719 259.046875 L 112.46875 9.046875 L 124.550781 -240.953125 L 129.105469 -365.953125 L 131.679688 -490.953125 "/>
<path style="fill:none;stroke-width:0.4;stroke-linecap:butt;stroke-linejoin:miter;stroke:rgb(25.490196%,41.176471%,88.235294%);stroke-opacity:1;stroke-miterlimit:10;" d="M 94.9375 1525.9375 L 97.984375 1400.9375 L 98.710938 1275.9375 L 97.011719 1150.9375 L 93.140625 1025.9375 L 70.585938 525.9375 L 67.539062 400.9375 L 66.8125 275.9375 L 68.511719 150.9375 L 72.382812 25.9375 L 94.9375 -474.0625 "/>
<path style="fill:none;stroke-width:0.4;stroke-linecap:butt;stroke-linejoin:miter;stroke:rgb(25.490196%,41.176471%,88.235294%);stroke-opacity:1;stroke-miterlimit:10;" d="M 55.257812 1537.023438 L 60.464844 1412.023438 L 63.960938 1287.023438 L 65.210938 1162.023438 L 64.023438 1037.023438 L 60.582031 912.023438 L 55.410156 787.023438 L 43.164062 537.023438 L 37.957031 412.023438 L 34.460938 287.023438 L 33.210938 162.023438 L 34.398438 37.023438 L 37.839844 -87.976562 L 43.011719 -212.976562 L 55.257812 -462.976562 "/>
<path style="fill:none;stroke-width:0.4;stroke-linecap:butt;stroke-linejoin:miter;stroke:rgb(25.490196%,41.176471%,88.235294%);stroke-opacity:1;stroke-miterlimit:10;" d="M 14.238281 1539.828125 L 25.925781 1289.828125 L 29.847656 1164.828125 L 31.609375 1039.828125 L 30.945312 914.828125 L 27.957031 789.828125 L 17.109375 539.828125 L 5.421875 289.828125 L 1.5 164.828125 L -0.261719 39.828125 L 0.402344 -85.171875 L 3.390625 -210.171875 L 14.238281 -460.171875 "/>
<path style="fill:none;stroke-width:0.4;stroke-linecap:butt;stroke-linejoin:miter;stroke:rgb(25.490196%,41.176471%,88.235294%);stroke-opacity:1;stroke-miterlimit:10;" d="M -26.214844 1533.71875 L -14.15625 1283.71875 L -4.125 1033.71875 L -1.859375 908.71875 L -1.992188 783.71875 L -4.503906 658.71875 L -9.011719 533.71875 L -21.070312 283.71875 L -31.101562 33.71875 L -33.367188 -91.28125 L -33.234375 -216.28125 L -30.722656 -341.28125 L -26.214844 -466.28125 "/>
<path style="fill:none;stroke-width:0.4;stroke-linecap:butt;stroke-linejoin:miter;stroke:rgb(25.490196%,41.176471%,88.235294%);stroke-opacity:1;stroke-miterlimit:10;" d="M 1538.890625 -26.398438 L 1288.890625 -38.785156 L 1163.890625 -41.488281 L 1038.890625 -41.183594 L 913.890625 -37.917969 L 788.890625 -32.191406 L 538.890625 -17.074219 L 288.890625 -4.6875 L 163.890625 -1.984375 L 38.890625 -2.289062 L -86.109375 -5.554688 L -211.109375 -11.28125 L -461.109375 -26.398438 "/>
<path style="fill:none;stroke-width:0.4;stroke-linecap:butt;stroke-linejoin:miter;stroke:rgb(25.490196%,41.176471%,88.235294%);stroke-opacity:1;stroke-miterlimit:10;" d="M 1538.820312 24.585938 L 1288.820312 9.453125 L 1163.820312 3.6875 L 1038.820312 0.375 L 913.820312 0.015625 L 788.820312 2.667969 L 538.820312 14.992188 L 288.820312 30.125 L 163.820312 35.890625 L 38.820312 39.203125 L -86.179688 39.5625 L -211.179688 36.910156 L -461.179688 24.585938 "/>
<path style="fill:none;stroke-width:0.4;stroke-linecap:butt;stroke-linejoin:miter;stroke:rgb(25.490196%,41.176471%,88.235294%);stroke-opacity:1;stroke-miterlimit:10;" d="M 1530.066406 74.703125 L 1030.066406 46.480469 L 905.066406 42.578125 L 780.066406 41.5625 L 655.066406 43.582031 L 530.066406 48.332031 L 30.066406 76.554688 L -94.933594 80.457031 L -219.933594 81.472656 L -344.933594 79.453125 L -469.933594 74.703125 "/>
<path style="fill:none;stroke-width:0.4;stroke-linecap:butt;stroke-linejoin:miter;stroke:rgb(25.490196%,41.176471%,88.235294%);stroke-opacity:1;stroke-miterlimit:10;" d="M 1514.585938 122.09375 L 1389.585938 117.882812 L 1264.585938 111.480469 L 1014.585938 96.175781 L 889.585938 89.605469 L 764.585938 85.148438 L 639.585938 83.480469 L 514.585938 84.855469 L 389.585938 89.066406 L 264.585938 95.46875 L 14.585938 110.773438 L -110.414062 117.34375 L -235.414062 121.800781 L -360.414062 123.46875 L -485.414062 122.09375 "/>
<path style="fill:none;stroke-width:0.4;stroke-linecap:butt;stroke-linejoin:miter;stroke:rgb(25.490196%,41.176471%,88.235294%);stroke-opacity:1;stroke-miterlimit:10;" d="M 1495.839844 165.253906 L 1370.839844 164.535156 L 1245.839844 160.894531 L 995.839844 147.4375 L 745.839844 132.765625 L 620.839844 127.78125 L 495.839844 125.472656 L 370.839844 126.191406 L 245.839844 129.832031 L -4.160156 143.289062 L -254.160156 157.960938 L -379.160156 162.945312 L -504.160156 165.253906 "/>
<path style="fill:none;stroke-width:0.4;stroke-linecap:butt;stroke-linejoin:miter;stroke:rgb(25.490196%,41.176471%,88.235294%);stroke-opacity:1;stroke-miterlimit:10;" d="M 1478.023438 203.613281 L 1353.023438 206.542969 L 1228.023438 206.484375 L 1103.023438 203.441406 L 978.023438 197.882812 L 728.023438 182.847656 L 478.023438 170.1875 L 353.023438 167.257812 L 228.023438 167.316406 L 103.023438 170.359375 L -21.976562 175.917969 L -271.976562 190.953125 L -521.976562 203.613281 "/>
<path style="fill:none;stroke-width:0.4;stroke-linecap:butt;stroke-linejoin:miter;stroke:rgb(25.490196%,41.176471%,88.235294%);stroke-opacity:1;stroke-miterlimit:10;" d="M 1465.117188 238.199219 L 1340.117188 244.125 L 1215.117188 247.65625 L 1090.117188 248.257812 L 965.117188 245.835938 L 715.117188 233.800781 L 465.117188 218.601562 L 340.117188 212.675781 L 215.117188 209.144531 L 90.117188 208.542969 L -34.882812 210.964844 L -284.882812 223 L -534.882812 238.199219 "/>
<path style="fill:none;stroke-width:0.4;stroke-linecap:butt;stroke-linejoin:miter;stroke:rgb(25.490196%,41.176471%,88.235294%);stroke-opacity:1;stroke-miterlimit:10;" d="M 1460.015625 270.9375 L 1210.015625 284.871094 L 1085.015625 288.980469 L 960.015625 290.238281 L 835.015625 288.453125 L 710.015625 283.898438 L 460.015625 269.5625 L 210.015625 255.628906 L 85.015625 251.519531 L -39.984375 250.261719 L -164.984375 252.046875 L -289.984375 256.601562 L -539.984375 270.9375 "/>
<path style="fill:none;stroke-width:0.4;stroke-linecap:butt;stroke-linejoin:miter;stroke:rgb(25.490196%,41.176471%,88.235294%);stroke-opacity:1;stroke-miterlimit:10;" d="M 1463.851562 303.636719 L 1213.851562 318.925781 L 1088.851562 325.625 L 963.851562 330.28125 L 838.851562 332.1875 L 713.851562 331.050781 L 588.851562 327.046875 L 463.851562 320.785156 L 213.851562 305.496094 L 88.851562 298.796875 L -36.148438 294.140625 L -161.148438 292.234375 L -286.148438 293.371094 L -411.148438 297.375 L -536.148438 303.636719 "/>
<path style="fill:none;stroke-width:0.4;stroke-linecap:butt;stroke-linejoin:miter;stroke:rgb(25.490196%,41.176471%,88.235294%);stroke-opacity:1;stroke-miterlimit:10;" d="M 1475.769531 338.085938 L 1225.769531 351.3125 L 975.769531 366.113281 L 850.769531 371.28125 L 725.769531 373.820312 L 600.769531 373.34375 L 475.769531 369.921875 L 225.769531 356.695312 L -24.230469 341.894531 L -149.230469 336.726562 L -274.230469 334.1875 L -399.230469 334.664062 L -524.230469 338.085938 "/>
<path style="fill:none;stroke-width:0.4;stroke-linecap:butt;stroke-linejoin:miter;stroke:rgb(25.490196%,41.176471%,88.235294%);stroke-opacity:1;stroke-miterlimit:10;" d="M 1493.109375 375.820312 L 1368.109375 378.636719 L 1243.109375 384.023438 L 993.109375 398.960938 L 743.109375 411.882812 L 618.109375 415.039062 L 493.109375 415.222656 L 368.109375 412.40625 L 243.109375 407.019531 L -6.890625 392.082031 L -256.890625 379.160156 L -381.890625 376.003906 L -506.890625 375.820312 "/>
<path style="fill:none;stroke-width:0.4;stroke-linecap:butt;stroke-linejoin:miter;stroke:rgb(25.490196%,41.176471%,88.235294%);stroke-opacity:1;stroke-miterlimit:10;" d="M 1511.984375 418.066406 L 1386.984375 417.222656 L 1261.984375 419.414062 L 1011.984375 431.148438 L 761.984375 446.394531 L 636.984375 452.476562 L 511.984375 456.222656 L 386.984375 457.066406 L 261.984375 454.875 L 11.984375 443.140625 L -238.015625 427.894531 L -363.015625 421.8125 L -488.015625 418.066406 "/>
<path style="fill:none;stroke-width:0.4;stroke-linecap:butt;stroke-linejoin:miter;stroke:rgb(25.490196%,41.176471%,88.235294%);stroke-opacity:1;stroke-miterlimit:10;" d="M 1528.179688 464.878906 L 1403.179688 460.566406 L 1278.179688 459.070312 L 1153.179688 460.617188 L 1028.179688 464.972656 L 528.179688 493.257812 L 403.179688 497.570312 L 278.179688 499.066406 L 153.179688 497.519531 L 28.179688 493.164062 L -471.820312 464.878906 "/>
<path style="fill:none;stroke-width:0.4;stroke-linecap:butt;stroke-linejoin:miter;stroke:rgb(25.490196%,41.176471%,88.235294%);stroke-opacity:1;stroke-miterlimit:10;" d="M 1538.066406 514.875 L 1288.066406 503.207031 L 1163.066406 501.066406 L 1038.066406 501.960938 L 913.066406 505.753906 L 788.066406 511.867188 L 538.066406 527.125 L 288.066406 538.792969 L 163.066406 540.933594 L 38.066406 540.039062 L -86.933594 536.246094 L -211.933594 530.132812 L -461.933594 514.875 "/>
<path style="fill:none;stroke-width:0.4;stroke-linecap:butt;stroke-linejoin:miter;stroke:rgb(25.490196%,41.176471%,88.235294%);stroke-opacity:1;stroke-miterlimit:10;" d="M 1539.4375 565.96875 L 1289.4375 551.050781 L 1164.4375 545.703125 L 1039.4375 542.9375 L 914.4375 543.171875 L 789.4375 546.375 L 539.4375 559.351562 L 289.4375 574.269531 L 164.4375 579.617188 L 39.4375 582.382812 L -85.5625 582.148438 L -210.5625 578.945312 L -460.5625 565.96875 "/>
<path style="fill:none;stroke-width:0.4;stroke-linecap:butt;stroke-linejoin:miter;stroke:rgb(25.490196%,41.176471%,88.235294%);stroke-opacity:1;stroke-miterlimit:10;" d="M 1531.988281 616.1875 L 1281.988281 601.359375 L 1031.988281 588.1875 L 906.988281 584.8125 L 781.988281 584.386719 L 656.988281 586.976562 L 531.988281 592.183594 L 281.988281 607.011719 L 31.988281 620.183594 L -93.011719 623.558594 L -218.011719 623.984375 L -343.011719 621.394531 L -468.011719 616.1875 "/>
<path style="fill:none;stroke-width:0.4;stroke-linecap:butt;stroke-linejoin:miter;stroke:rgb(25.490196%,41.176471%,88.235294%);stroke-opacity:1;stroke-miterlimit:10;" d="M 1517.378906 663.960938 L 1392.378906 659.261719 L 1267.378906 652.535156 L 1017.378906 637.253906 L 892.378906 631.023438 L 767.378906 627.066406 L 642.378906 625.984375 L 517.378906 627.941406 L 392.378906 632.640625 L 267.378906 639.367188 L 17.378906 654.648438 L -107.621094 660.878906 L -232.621094 664.835938 L -357.621094 665.917969 L -482.621094 663.960938 "/>
<path style="fill:none;stroke-width:0.4;stroke-linecap:butt;stroke-linejoin:miter;stroke:rgb(25.490196%,41.176471%,88.235294%);stroke-opacity:1;stroke-miterlimit:10;" d="M 1498.878906 707.902344 L 1373.878906 706.59375 L 1248.878906 702.441406 L 998.878906 688.46875 L 748.878906 674.167969 L 623.878906 669.652344 L 498.878906 667.917969 L 373.878906 669.226562 L 248.878906 673.378906 L -1.121094 687.351562 L -251.121094 701.652344 L -376.121094 706.167969 L -501.121094 707.902344 "/>
<path style="fill:none;stroke-width:0.4;stroke-linecap:butt;stroke-linejoin:miter;stroke:rgb(25.490196%,41.176471%,88.235294%);stroke-opacity:1;stroke-miterlimit:10;" d="M 1480.628906 747.277344 L 1355.628906 749.648438 L 1230.628906 748.996094 L 1105.628906 745.417969 L 980.628906 739.457031 L 730.628906 724.246094 L 480.628906 712.273438 L 355.628906 709.902344 L 230.628906 710.554688 L 105.628906 714.132812 L -19.371094 720.09375 L -269.371094 735.304688 L -519.371094 747.277344 "/>
<path style="fill:none;stroke-width:0.4;stroke-linecap:butt;stroke-linejoin:miter;stroke:rgb(25.490196%,41.176471%,88.235294%);stroke-opacity:1;stroke-miterlimit:10;" d="M 1466.710938 782.367188 L 1341.710938 787.890625 L 1216.710938 790.882812 L 1091.710938 790.890625 L 966.710938 787.910156 L 716.710938 775.191406 L 466.710938 760.175781 L 341.710938 754.652344 L 216.710938 751.660156 L 91.710938 751.652344 L -33.289062 754.632812 L -283.289062 767.351562 L -533.289062 782.367188 "/>
<path style="fill:none;stroke-width:0.4;stroke-linecap:butt;stroke-linejoin:miter;stroke:rgb(25.490196%,41.176471%,88.235294%);stroke-opacity:1;stroke-miterlimit:10;" d="M 1460.234375 814.976562 L 1210.234375 828.386719 L 1085.234375 831.980469 L 960.234375 832.648438 L 835.234375 830.289062 L 710.234375 825.265625 L 460.234375 810.5625 L 210.234375 797.152344 L 85.234375 793.558594 L -39.765625 792.890625 L -164.765625 795.25 L -289.765625 800.273438 L -539.765625 814.976562 "/>
<path style="fill:none;stroke-width:0.4;stroke-linecap:butt;stroke-linejoin:miter;stroke:rgb(25.490196%,41.176471%,88.235294%);stroke-opacity:1;stroke-miterlimit:10;" d="M 1462.652344 847.464844 L 1212.652344 862.765625 L 1087.652344 869.140625 L 962.652344 873.308594 L 837.652344 874.632812 L 712.652344 872.914062 L 587.652344 868.414062 L 462.652344 861.816406 L 212.652344 846.515625 L 87.652344 840.140625 L -37.347656 835.972656 L -162.347656 834.648438 L -287.347656 836.367188 L -412.347656 840.867188 L -537.347656 847.464844 "/>
<path style="fill:none;stroke-width:0.4;stroke-linecap:butt;stroke-linejoin:miter;stroke:rgb(25.490196%,41.176471%,88.235294%);stroke-opacity:1;stroke-miterlimit:10;" d="M 1473.417969 881.644531 L 973.417969 909.878906 L 848.417969 914.589844 L 723.417969 916.558594 L 598.417969 915.488281 L 473.417969 911.542969 L -26.582031 883.308594 L -151.582031 878.597656 L -276.582031 876.628906 L -401.582031 877.699219 L -526.582031 881.644531 "/>
<path style="fill:none;stroke-width:0.4;stroke-linecap:butt;stroke-linejoin:miter;stroke:rgb(25.490196%,41.176471%,88.235294%);stroke-opacity:1;stroke-miterlimit:10;" d="M 1490.132812 918.972656 L 1365.132812 922.335938 L 1240.132812 928.136719 L 990.132812 943.285156 L 740.132812 955.546875 L 615.132812 958.148438 L 490.132812 957.738281 L 365.132812 954.375 L 240.132812 948.574219 L -9.867188 933.425781 L -259.867188 921.164062 L -384.867188 918.5625 L -509.867188 918.972656 "/>
<path style="fill:none;stroke-width:0.4;stroke-linecap:butt;stroke-linejoin:miter;stroke:rgb(25.490196%,41.176471%,88.235294%);stroke-opacity:1;stroke-miterlimit:10;" d="M 1509.046875 960.398438 L 1384.046875 960.148438 L 1259.046875 962.902344 L 1009.046875 975.351562 L 759.046875 990.453125 L 634.046875 996.144531 L 509.046875 999.359375 L 384.046875 999.609375 L 259.046875 996.855469 L 9.046875 984.40625 L -240.953125 969.304688 L -365.953125 963.613281 L -490.953125 960.398438 "/>
<path style="fill:none;stroke-width:0.4;stroke-linecap:butt;stroke-linejoin:miter;stroke:rgb(25.490196%,41.176471%,88.235294%);stroke-opacity:1;stroke-miterlimit:10;" d="M 1525.9375 1006.328125 L 1400.9375 1002.523438 L 1275.9375 1001.613281 L 1150.9375 1003.738281 L 1025.9375 1008.574219 L 525.9375 1036.769531 L 400.9375 1040.574219 L 275.9375 1041.484375 L 150.9375 1039.359375 L 25.9375 1034.523438 L -474.0625 1006.328125 "/>
</g>
</svg>
