<?xml version="1.0" encoding="UTF-8"?>
<svg xmlns="http://www.w3.org/2000/svg" xmlns:xlink="http://www.w3.org/1999/xlink" width="500pt" height="500pt" viewBox="0 0 500 500" version="1.1">
<g id="surface1">
<path style=" stroke:none;fill-rule:nonzero;fill:rgb(100%,80.784314%,67.843137%);fill-opacity:1;" d="M 310.941406 250 L 395.027344 165.914062 L 360.699219 131.585938 L 276.613281 215.671875 Z M 310.941406 250 "/>
<path style=" stroke:none;fill-rule:nonzero;fill:rgb(37.647059%,68.627451%,38.431373%);fill-opacity:1;" d="M 276.613281 215.671875 L 353.371094 138.914062 L 319.042969 104.585938 L 242.285156 181.34375 Z M 276.613281 215.671875 "/>
<path style=" stroke:none;fill-rule:nonzero;fill:rgb(92.54902%,93.333333%,23.529412%);fill-opacity:1;" d="M 242.285156 181.34375 L 310.941406 112.6875 L 276.613281 78.359375 L 207.957031 147.015625 Z M 242.285156 181.34375 "/>
<path style=" stroke:none;fill-rule:nonzero;fill:rgb(96.470588%,96.078431%,93.333333%);fill-opacity:1;" d="M 207.957031 147.019531 L 267.414062 87.5625 L 233.085938 53.234375 L 173.628906 112.691406 Z M 207.957031 147.019531 "/>
<path style=" stroke:none;fill-rule:nonzero;fill:rgb(41.568627%,71.372549%,77.647059%);fill-opacity:1;" d="M 173.628906 112.691406 L 222.175781 64.144531 L 187.847656 29.816406 L 139.300781 78.363281 Z M 173.628906 112.691406 "/>
<path style=" stroke:none;fill-rule:nonzero;fill:rgb(100%,80.784314%,67.843137%);fill-opacity:1;" d="M 139.304688 78.363281 L 173.632812 44.035156 L 139.304688 9.707031 L 104.976562 44.035156 Z M 139.304688 78.363281 "/>
<path style=" stroke:none;fill-rule:nonzero;fill:rgb(37.647059%,68.627451%,38.431373%);fill-opacity:1;" d="M 189.058594 250 L 104.972656 334.085938 L 139.300781 368.414062 L 223.386719 284.328125 Z M 189.058594 250 "/>
<path style=" stroke:none;fill-rule:nonzero;fill:rgb(100%,80.784314%,67.843137%);fill-opacity:1;" d="M 223.386719 284.328125 L 146.628906 361.085938 L 180.957031 395.414062 L 257.714844 318.65625 Z M 223.386719 284.328125 "/>
<path style=" stroke:none;fill-rule:nonzero;fill:rgb(41.568627%,71.372549%,77.647059%);fill-opacity:1;" d="M 257.714844 318.65625 L 189.058594 387.3125 L 223.386719 421.640625 L 292.042969 352.984375 Z M 257.714844 318.65625 "/>
<path style=" stroke:none;fill-rule:nonzero;fill:rgb(96.470588%,96.078431%,93.333333%);fill-opacity:1;" d="M 292.042969 352.980469 L 232.585938 412.4375 L 266.914062 446.765625 L 326.371094 387.308594 Z M 292.042969 352.980469 "/>
<path style=" stroke:none;fill-rule:nonzero;fill:rgb(92.54902%,93.333333%,23.529412%);fill-opacity:1;" d="M 326.371094 387.308594 L 277.824219 435.855469 L 312.152344 470.183594 L 360.699219 421.636719 Z M 326.371094 387.308594 "/>
<path style=" stroke:none;fill-rule:nonzero;fill:rgb(37.647059%,68.627451%,38.431373%);fill-opacity:1;" d="M 360.695312 421.636719 L 326.367188 455.964844 L 360.695312 490.292969 L 395.023438 455.964844 Z M 360.695312 421.636719 "/>
<path style=" stroke:none;fill-rule:nonzero;fill:rgb(0%,83.137255%,72.156863%);fill-opacity:1;" d="M 250 189.058594 L 165.914062 104.972656 L 131.585938 139.300781 L 215.671875 223.386719 Z M 250 189.058594 "/>
<path style=" stroke:none;fill-rule:nonzero;fill:rgb(83.529412%,0%,39.607843%);fill-opacity:1;" d="M 215.671875 223.386719 L 138.914062 146.628906 L 104.585938 180.957031 L 181.34375 257.714844 Z M 215.671875 223.386719 "/>
<path style=" stroke:none;fill-rule:nonzero;fill:rgb(76.078431%,0%,82.745098%);fill-opacity:1;" d="M 181.34375 257.714844 L 112.6875 189.058594 L 78.359375 223.386719 L 147.015625 292.042969 Z M 181.34375 257.714844 "/>
<path style=" stroke:none;fill-rule:nonzero;fill:rgb(35.294118%,0%,84.313725%);fill-opacity:1;" d="M 147.019531 292.042969 L 87.5625 232.585938 L 53.234375 266.914062 L 112.691406 326.371094 Z M 147.019531 292.042969 "/>
<path style=" stroke:none;fill-rule:nonzero;fill:rgb(0%,61.960784%,83.529412%);fill-opacity:1;" d="M 112.691406 326.371094 L 64.144531 277.824219 L 29.816406 312.152344 L 78.363281 360.699219 Z M 112.691406 326.371094 "/>
<path style=" stroke:none;fill-rule:nonzero;fill:rgb(0%,83.137255%,72.156863%);fill-opacity:1;" d="M 78.363281 360.695312 L 44.035156 326.367188 L 9.707031 360.695312 L 44.035156 395.023438 Z M 78.363281 360.695312 "/>
<path style=" stroke:none;fill-rule:nonzero;fill:rgb(83.529412%,0%,39.607843%);fill-opacity:1;" d="M 250 310.941406 L 334.085938 395.027344 L 368.414062 360.699219 L 284.328125 276.613281 Z M 250 310.941406 "/>
<path style=" stroke:none;fill-rule:nonzero;fill:rgb(0%,83.137255%,72.156863%);fill-opacity:1;" d="M 284.328125 276.613281 L 361.085938 353.371094 L 395.414062 319.042969 L 318.65625 242.285156 Z M 284.328125 276.613281 "/>
<path style=" stroke:none;fill-rule:nonzero;fill:rgb(0%,61.960784%,83.529412%);fill-opacity:1;" d="M 318.65625 242.285156 L 387.3125 310.941406 L 421.640625 276.613281 L 352.984375 207.957031 Z M 318.65625 242.285156 "/>
<path style=" stroke:none;fill-rule:nonzero;fill:rgb(35.294118%,0%,84.313725%);fill-opacity:1;" d="M 352.980469 207.957031 L 412.4375 267.414062 L 446.765625 233.085938 L 387.308594 173.628906 Z M 352.980469 207.957031 "/>
<path style=" stroke:none;fill-rule:nonzero;fill:rgb(76.078431%,0%,82.745098%);fill-opacity:1;" d="M 387.308594 173.628906 L 435.855469 222.175781 L 470.183594 187.847656 L 421.636719 139.300781 Z M 387.308594 173.628906 "/>
<path style=" stroke:none;fill-rule:nonzero;fill:rgb(83.529412%,0%,39.607843%);fill-opacity:1;" d="M 421.636719 139.304688 L 455.964844 173.632812 L 490.292969 139.304688 L 455.964844 104.976562 Z M 421.636719 139.304688 "/>
</g>
</svg>
