<?xml version="1.0" encoding="UTF-8"?>
<svg xmlns="http://www.w3.org/2000/svg" xmlns:xlink="http://www.w3.org/1999/xlink" width="500pt" height="500pt" viewBox="0 0 500 500" version="1.1">
<g id="surface1">
<path style=" stroke:none;fill-rule:nonzero;fill:rgb(100%,80.784314%,67.843137%);fill-opacity:1;" d="M 250 250 L 455.964844 44.035156 L 421.636719 9.707031 L 215.671875 215.671875 Z M 250 250 "/>
<path style=" stroke:none;fill-rule:nonzero;fill:rgb(37.647059%,68.627451%,38.431373%);fill-opacity:1;" d="M 215.671875 215.671875 L 387.308594 44.035156 L 352.980469 9.707031 L 181.34375 181.34375 Z M 215.671875 215.671875 "/>
<path style=" stroke:none;fill-rule:nonzero;fill:rgb(92.54902%,93.333333%,23.529412%);fill-opacity:1;" d="M 181.34375 181.34375 L 318.652344 44.035156 L 284.324219 9.707031 L 147.015625 147.015625 Z M 181.34375 181.34375 "/>
<path style=" stroke:none;fill-rule:nonzero;fill:rgb(96.470588%,96.078431%,93.333333%);fill-opacity:1;" d="M 147.019531 147.019531 L 250 44.039062 L 215.671875 9.710938 L 112.691406 112.691406 Z M 147.019531 147.019531 "/>
<path style=" stroke:none;fill-rule:nonzero;fill:rgb(41.568627%,71.372549%,77.647059%);fill-opacity:1;" d="M 112.691406 112.691406 L 181.347656 44.035156 L 147.019531 9.707031 L 78.363281 78.363281 Z M 112.691406 112.691406 "/>
<path style=" stroke:none;fill-rule:nonzero;fill:rgb(100%,80.784314%,67.843137%);fill-opacity:1;" d="M 78.363281 78.363281 L 112.691406 44.035156 L 78.363281 9.707031 L 44.035156 44.035156 Z M 78.363281 78.363281 "/>
<path style=" stroke:none;fill-rule:nonzero;fill:rgb(37.647059%,68.627451%,38.431373%);fill-opacity:1;" d="M 250 250 L 44.035156 455.964844 L 78.363281 490.292969 L 284.328125 284.328125 Z M 250 250 "/>
<path style=" stroke:none;fill-rule:nonzero;fill:rgb(100%,80.784314%,67.843137%);fill-opacity:1;" d="M 284.328125 284.328125 L 112.691406 455.964844 L 147.019531 490.292969 L 318.65625 318.65625 Z M 284.328125 284.328125 "/>
<path style=" stroke:none;fill-rule:nonzero;fill:rgb(41.568627%,71.372549%,77.647059%);fill-opacity:1;" d="M 318.65625 318.65625 L 181.347656 455.964844 L 215.675781 490.292969 L 352.984375 352.984375 Z M 318.65625 318.65625 "/>
<path style=" stroke:none;fill-rule:nonzero;fill:rgb(96.470588%,96.078431%,93.333333%);fill-opacity:1;" d="M 352.980469 352.980469 L 250 455.960938 L 284.328125 490.289062 L 387.308594 387.308594 Z M 352.980469 352.980469 "/>
<path style=" stroke:none;fill-rule:nonzero;fill:rgb(92.54902%,93.333333%,23.529412%);fill-opacity:1;" d="M 387.308594 387.308594 L 318.652344 455.964844 L 352.980469 490.292969 L 421.636719 421.636719 Z M 387.308594 387.308594 "/>
<path style=" stroke:none;fill-rule:nonzero;fill:rgb(37.647059%,68.627451%,38.431373%);fill-opacity:1;" d="M 421.636719 421.636719 L 387.308594 455.964844 L 421.636719 490.292969 L 455.964844 455.964844 Z M 421.636719 421.636719 "/>
<path style=" stroke:none;fill-rule:nonzero;fill:rgb(0%,83.137255%,72.156863%);fill-opacity:1;" d="M 250 250 L 44.035156 44.035156 L 9.707031 78.363281 L 215.671875 284.328125 Z M 250 250 "/>
<path style=" stroke:none;fill-rule:nonzero;fill:rgb(83.529412%,0%,39.607843%);fill-opacity:1;" d="M 215.671875 284.328125 L 44.035156 112.691406 L 9.707031 147.019531 L 181.34375 318.65625 Z M 215.671875 284.328125 "/>
<path style=" stroke:none;fill-rule:nonzero;fill:rgb(76.078431%,0%,82.745098%);fill-opacity:1;" d="M 181.34375 318.65625 L 44.035156 181.347656 L 9.707031 215.675781 L 147.015625 352.984375 Z M 181.34375 318.65625 "/>
<path style=" stroke:none;fill-rule:nonzero;fill:rgb(35.294118%,0%,84.313725%);fill-opacity:1;" d="M 147.019531 352.980469 L 44.039062 250 L 9.710938 284.328125 L 112.691406 387.308594 Z M 147.019531 352.980469 "/>
<path style=" stroke:none;fill-rule:nonzero;fill:rgb(0%,61.960784%,83.529412%);fill-opacity:1;" d="M 112.691406 387.308594 L 44.035156 318.652344 L 9.707031 352.980469 L 78.363281 421.636719 Z M 112.691406 387.308594 "/>
<path style=" stroke:none;fill-rule:nonzero;fill:rgb(0%,83.137255%,72.156863%);fill-opacity:1;" d="M 78.363281 421.636719 L 44.035156 387.308594 L 9.707031 421.636719 L 44.035156 455.964844 Z M 78.363281 421.636719 "/>
<path style=" stroke:none;fill-rule:nonzero;fill:rgb(83.529412%,0%,39.607843%);fill-opacity:1;" d="M 250 250 L 455.964844 455.964844 L 490.292969 421.636719 L 284.328125 215.671875 Z M 250 250 "/>
<path style=" stroke:none;fill-rule:nonzero;fill:rgb(0%,83.137255%,72.156863%);fill-opacity:1;" d="M 284.328125 215.671875 L 455.964844 387.308594 L 490.292969 352.980469 L 318.65625 181.34375 Z M 284.328125 215.671875 "/>
<path style=" stroke:none;fill-rule:nonzero;fill:rgb(0%,61.960784%,83.529412%);fill-opacity:1;" d="M 318.65625 181.34375 L 455.964844 318.652344 L 490.292969 284.324219 L 352.984375 147.015625 Z M 318.65625 181.34375 "/>
<path style=" stroke:none;fill-rule:nonzero;fill:rgb(35.294118%,0%,84.313725%);fill-opacity:1;" d="M 352.980469 147.019531 L 455.960938 250 L 490.289062 215.671875 L 387.308594 112.691406 Z M 352.980469 147.019531 "/>
<path style=" stroke:none;fill-rule:nonzero;fill:rgb(76.078431%,0%,82.745098%);fill-opacity:1;" d="M 387.308594 112.691406 L 455.964844 181.347656 L 490.292969 147.019531 L 421.636719 78.363281 Z M 387.308594 112.691406 "/>
<path style=" stroke:none;fill-rule:nonzero;fill:rgb(83.529412%,0%,39.607843%);fill-opacity:1;" d="M 421.636719 78.363281 L 455.964844 112.691406 L 490.292969 78.363281 L 455.964844 44.035156 Z M 421.636719 78.363281 "/>
</g>
</svg>
