<?xml version="1.0" encoding="UTF-8"?>
<svg xmlns="http://www.w3.org/2000/svg" xmlns:xlink="http://www.w3.org/1999/xlink" width="500pt" height="500pt" viewBox="0 0 500 500" version="1.1">
<g id="surface1">
<path style=" stroke:none;fill-rule:nonzero;fill:rgb(100%,80.784314%,67.843137%);fill-opacity:1;" d="M 193.535156 250 L 419.390625 24.144531 L 400.570312 5.324219 L 174.714844 231.179688 Z M 193.535156 250 "/>
<path style=" stroke:none;fill-rule:nonzero;fill:rgb(37.647059%,68.627451%,38.431373%);fill-opacity:1;" d="M 174.714844 231.179688 L 362.925781 42.96875 L 344.105469 24.148438 L 155.894531 212.359375 Z M 174.714844 231.179688 "/>
<path style=" stroke:none;fill-rule:nonzero;fill:rgb(92.54902%,93.333333%,23.529412%);fill-opacity:1;" d="M 155.894531 212.359375 L 306.464844 61.789062 L 287.644531 42.96875 L 137.074219 193.539062 Z M 155.894531 212.359375 "/>
<path style=" stroke:none;fill-rule:nonzero;fill:rgb(96.470588%,96.078431%,93.333333%);fill-opacity:1;" d="M 137.074219 193.535156 L 250 80.609375 L 231.179688 61.789062 L 118.253906 174.714844 Z M 137.074219 193.535156 "/>
<path style=" stroke:none;fill-rule:nonzero;fill:rgb(41.568627%,71.372549%,77.647059%);fill-opacity:1;" d="M 118.25 174.714844 L 193.535156 99.429688 L 174.714844 80.609375 L 99.429688 155.894531 Z M 118.25 174.714844 "/>
<path style=" stroke:none;fill-rule:nonzero;fill:rgb(100%,80.784314%,67.843137%);fill-opacity:1;" d="M 99.429688 155.894531 L 137.070312 118.253906 L 118.25 99.433594 L 80.609375 137.074219 Z M 99.429688 155.894531 "/>
<path style=" stroke:none;fill-rule:nonzero;fill:rgb(37.647059%,68.627451%,38.431373%);fill-opacity:1;" d="M 306.464844 250 L 80.609375 475.855469 L 99.429688 494.675781 L 325.285156 268.820312 Z M 306.464844 250 "/>
<path style=" stroke:none;fill-rule:nonzero;fill:rgb(100%,80.784314%,67.843137%);fill-opacity:1;" d="M 325.285156 268.820312 L 137.074219 457.03125 L 155.894531 475.851562 L 344.105469 287.640625 Z M 325.285156 268.820312 "/>
<path style=" stroke:none;fill-rule:nonzero;fill:rgb(41.568627%,71.372549%,77.647059%);fill-opacity:1;" d="M 344.105469 287.640625 L 193.535156 438.210938 L 212.355469 457.03125 L 362.925781 306.460938 Z M 344.105469 287.640625 "/>
<path style=" stroke:none;fill-rule:nonzero;fill:rgb(96.470588%,96.078431%,93.333333%);fill-opacity:1;" d="M 362.925781 306.464844 L 250 419.390625 L 268.820312 438.210938 L 381.746094 325.285156 Z M 362.925781 306.464844 "/>
<path style=" stroke:none;fill-rule:nonzero;fill:rgb(92.54902%,93.333333%,23.529412%);fill-opacity:1;" d="M 381.75 325.285156 L 306.464844 400.570312 L 325.285156 419.390625 L 400.570312 344.105469 Z M 381.75 325.285156 "/>
<path style=" stroke:none;fill-rule:nonzero;fill:rgb(37.647059%,68.627451%,38.431373%);fill-opacity:1;" d="M 400.570312 344.105469 L 362.929688 381.746094 L 381.75 400.566406 L 419.390625 362.925781 Z M 400.570312 344.105469 "/>
<path style=" stroke:none;fill-rule:nonzero;fill:rgb(0%,83.137255%,72.156863%);fill-opacity:1;" d="M 250 306.464844 L 24.144531 80.609375 L 5.324219 99.429688 L 231.179688 325.285156 Z M 250 306.464844 "/>
<path style=" stroke:none;fill-rule:nonzero;fill:rgb(83.529412%,0%,39.607843%);fill-opacity:1;" d="M 231.179688 325.285156 L 42.96875 137.074219 L 24.148438 155.894531 L 212.359375 344.105469 Z M 231.179688 325.285156 "/>
<path style=" stroke:none;fill-rule:nonzero;fill:rgb(76.078431%,0%,82.745098%);fill-opacity:1;" d="M 212.359375 344.105469 L 61.789062 193.535156 L 42.96875 212.355469 L 193.539062 362.925781 Z M 212.359375 344.105469 "/>
<path style=" stroke:none;fill-rule:nonzero;fill:rgb(35.294118%,0%,84.313725%);fill-opacity:1;" d="M 193.535156 362.925781 L 80.609375 250 L 61.789062 268.820312 L 174.714844 381.746094 Z M 193.535156 362.925781 "/>
<path style=" stroke:none;fill-rule:nonzero;fill:rgb(0%,61.960784%,83.529412%);fill-opacity:1;" d="M 174.714844 381.75 L 99.429688 306.464844 L 80.609375 325.285156 L 155.894531 400.570312 Z M 174.714844 381.75 "/>
<path style=" stroke:none;fill-rule:nonzero;fill:rgb(0%,83.137255%,72.156863%);fill-opacity:1;" d="M 155.894531 400.570312 L 118.253906 362.929688 L 99.433594 381.75 L 137.074219 419.390625 Z M 155.894531 400.570312 "/>
<path style=" stroke:none;fill-rule:nonzero;fill:rgb(83.529412%,0%,39.607843%);fill-opacity:1;" d="M 250 193.535156 L 475.855469 419.390625 L 494.675781 400.570312 L 268.820312 174.714844 Z M 250 193.535156 "/>
<path style=" stroke:none;fill-rule:nonzero;fill:rgb(0%,83.137255%,72.156863%);fill-opacity:1;" d="M 268.820312 174.714844 L 457.03125 362.925781 L 475.851562 344.105469 L 287.640625 155.894531 Z M 268.820312 174.714844 "/>
<path style=" stroke:none;fill-rule:nonzero;fill:rgb(0%,61.960784%,83.529412%);fill-opacity:1;" d="M 287.640625 155.894531 L 438.210938 306.464844 L 457.03125 287.644531 L 306.460938 137.074219 Z M 287.640625 155.894531 "/>
<path style=" stroke:none;fill-rule:nonzero;fill:rgb(35.294118%,0%,84.313725%);fill-opacity:1;" d="M 306.464844 137.074219 L 419.390625 250 L 438.210938 231.179688 L 325.285156 118.253906 Z M 306.464844 137.074219 "/>
<path style=" stroke:none;fill-rule:nonzero;fill:rgb(76.078431%,0%,82.745098%);fill-opacity:1;" d="M 325.285156 118.25 L 400.570312 193.535156 L 419.390625 174.714844 L 344.105469 99.429688 Z M 325.285156 118.25 "/>
<path style=" stroke:none;fill-rule:nonzero;fill:rgb(83.529412%,0%,39.607843%);fill-opacity:1;" d="M 344.105469 99.429688 L 381.746094 137.070312 L 400.566406 118.25 L 362.925781 80.609375 Z M 344.105469 99.429688 "/>
</g>
</svg>
