<?xml version="1.0" encoding="UTF-8"?>
<svg xmlns="http://www.w3.org/2000/svg" xmlns:xlink="http://www.w3.org/1999/xlink" width="500pt" height="500pt" viewBox="0 0 500 500" version="1.1">
<g id="surface1">
<path style=" stroke:none;fill-rule:nonzero;fill:rgb(98.039216%,56.862745%,98.431373%);fill-opacity:1;" d="M 130.628906 369.371094 L 51.046875 448.953125 L 90.835938 488.742188 L 170.417969 409.160156 Z M 130.628906 369.371094 "/>
<path style=" stroke:none;fill-rule:nonzero;fill:rgb(24.705882%,70.980392%,89.803922%);fill-opacity:1;" d="M 170.417969 409.164062 L 130.628906 448.953125 L 170.417969 488.742188 L 210.207031 448.953125 Z M 170.417969 409.164062 "/>
<path style=" stroke:none;fill-rule:nonzero;fill:rgb(0%,0%,0%);fill-opacity:1;" d="M 130.628906 369.371094 L 210.210938 289.789062 L 170.421875 250 L 90.839844 329.582031 Z M 130.628906 369.371094 "/>
<path style=" stroke:none;fill-rule:nonzero;fill:rgb(95.294118%,69.019608%,81.176471%);fill-opacity:1;" d="M 90.835938 329.582031 L 130.625 289.792969 L 90.835938 250.003906 L 51.046875 289.792969 Z M 90.835938 329.582031 "/>
<path style=" stroke:none;fill-rule:nonzero;fill:rgb(95.294118%,52.941176%,18.431373%);fill-opacity:1;" d="M 130.628906 369.371094 L 210.210938 448.953125 L 250 409.164062 L 170.417969 329.582031 Z M 130.628906 369.371094 "/>
<path style=" stroke:none;fill-rule:nonzero;fill:rgb(100%,34.901961%,56.078431%);fill-opacity:1;" d="M 170.417969 329.582031 L 210.207031 369.371094 L 249.996094 329.582031 L 210.207031 289.792969 Z M 170.417969 329.582031 "/>
<path style=" stroke:none;fill-rule:nonzero;fill:rgb(8.235294%,69.803922%,82.745098%);fill-opacity:1;" d="M 130.628906 369.371094 L 51.046875 289.789062 L 11.257812 329.578125 L 90.839844 409.160156 Z M 130.628906 369.371094 "/>
<path style=" stroke:none;fill-rule:nonzero;fill:rgb(13.72549%,43.137255%,58.823529%);fill-opacity:1;" d="M 90.835938 409.164062 L 51.046875 369.375 L 11.257812 409.164062 L 51.046875 448.953125 Z M 90.835938 409.164062 "/>
<path style=" stroke:none;fill-rule:nonzero;fill:rgb(41.568627%,71.372549%,77.647059%);fill-opacity:1;" d="M 329.582031 329.582031 L 250 409.164062 L 289.789062 448.953125 L 369.371094 369.371094 Z M 329.582031 329.582031 "/>
<path style=" stroke:none;fill-rule:nonzero;fill:rgb(100%,80.784314%,67.843137%);fill-opacity:1;" d="M 369.371094 369.371094 L 329.582031 409.160156 L 369.371094 448.949219 L 409.160156 409.160156 Z M 369.371094 369.371094 "/>
<path style=" stroke:none;fill-rule:nonzero;fill:rgb(92.54902%,93.333333%,23.529412%);fill-opacity:1;" d="M 329.582031 329.582031 L 409.164062 250 L 369.375 210.210938 L 289.792969 289.792969 Z M 329.582031 329.582031 "/>
<path style=" stroke:none;fill-rule:nonzero;fill:rgb(37.647059%,68.627451%,38.431373%);fill-opacity:1;" d="M 289.789062 289.789062 L 329.578125 250 L 289.789062 210.210938 L 250 250 Z M 289.789062 289.789062 "/>
<path style=" stroke:none;fill-rule:nonzero;fill:rgb(0%,61.960784%,83.529412%);fill-opacity:1;" d="M 329.582031 329.582031 L 409.164062 409.164062 L 448.953125 369.375 L 369.371094 289.792969 Z M 329.582031 329.582031 "/>
<path style=" stroke:none;fill-rule:nonzero;fill:rgb(0%,83.137255%,72.156863%);fill-opacity:1;" d="M 369.371094 289.789062 L 409.160156 329.578125 L 448.949219 289.789062 L 409.160156 250 Z M 369.371094 289.789062 "/>
<path style=" stroke:none;fill-rule:nonzero;fill:rgb(76.078431%,0%,82.745098%);fill-opacity:1;" d="M 329.582031 329.582031 L 250 250 L 210.210938 289.789062 L 289.792969 369.371094 Z M 329.582031 329.582031 "/>
<path style=" stroke:none;fill-rule:nonzero;fill:rgb(83.529412%,0%,39.607843%);fill-opacity:1;" d="M 289.789062 369.371094 L 250 329.582031 L 210.210938 369.371094 L 250 409.160156 Z M 289.789062 369.371094 "/>
<path style=" stroke:none;fill-rule:nonzero;fill:rgb(98.039216%,56.862745%,98.431373%);fill-opacity:1;" d="M 369.371094 130.628906 L 448.953125 51.046875 L 409.164062 11.257812 L 329.582031 90.839844 Z M 369.371094 130.628906 "/>
<path style=" stroke:none;fill-rule:nonzero;fill:rgb(24.705882%,70.980392%,89.803922%);fill-opacity:1;" d="M 329.582031 90.835938 L 369.371094 51.046875 L 329.582031 11.257812 L 289.792969 51.046875 Z M 329.582031 90.835938 "/>
<path style=" stroke:none;fill-rule:nonzero;fill:rgb(0%,0%,0%);fill-opacity:1;" d="M 369.371094 130.628906 L 289.789062 210.210938 L 329.578125 250 L 409.160156 170.417969 Z M 369.371094 130.628906 "/>
<path style=" stroke:none;fill-rule:nonzero;fill:rgb(95.294118%,69.019608%,81.176471%);fill-opacity:1;" d="M 409.164062 170.417969 L 369.375 210.207031 L 409.164062 249.996094 L 448.953125 210.207031 Z M 409.164062 170.417969 "/>
<path style=" stroke:none;fill-rule:nonzero;fill:rgb(95.294118%,52.941176%,18.431373%);fill-opacity:1;" d="M 369.371094 130.628906 L 289.789062 51.046875 L 250 90.835938 L 329.582031 170.417969 Z M 369.371094 130.628906 "/>
<path style=" stroke:none;fill-rule:nonzero;fill:rgb(100%,34.901961%,56.078431%);fill-opacity:1;" d="M 329.582031 170.417969 L 289.792969 130.628906 L 250.003906 170.417969 L 289.792969 210.207031 Z M 329.582031 170.417969 "/>
<path style=" stroke:none;fill-rule:nonzero;fill:rgb(8.235294%,69.803922%,82.745098%);fill-opacity:1;" d="M 369.371094 130.628906 L 448.953125 210.210938 L 488.742188 170.421875 L 409.160156 90.839844 Z M 369.371094 130.628906 "/>
<path style=" stroke:none;fill-rule:nonzero;fill:rgb(13.72549%,43.137255%,58.823529%);fill-opacity:1;" d="M 409.164062 90.835938 L 448.953125 130.625 L 488.742188 90.835938 L 448.953125 51.046875 Z M 409.164062 90.835938 "/>
<path style=" stroke:none;fill-rule:nonzero;fill:rgb(41.568627%,71.372549%,77.647059%);fill-opacity:1;" d="M 170.417969 170.417969 L 250 90.835938 L 210.210938 51.046875 L 130.628906 130.628906 Z M 170.417969 170.417969 "/>
<path style=" stroke:none;fill-rule:nonzero;fill:rgb(100%,80.784314%,67.843137%);fill-opacity:1;" d="M 130.628906 130.628906 L 170.417969 90.839844 L 130.628906 51.050781 L 90.839844 90.839844 Z M 130.628906 130.628906 "/>
<path style=" stroke:none;fill-rule:nonzero;fill:rgb(92.54902%,93.333333%,23.529412%);fill-opacity:1;" d="M 170.417969 170.417969 L 90.835938 250 L 130.625 289.789062 L 210.207031 210.207031 Z M 170.417969 170.417969 "/>
<path style=" stroke:none;fill-rule:nonzero;fill:rgb(37.647059%,68.627451%,38.431373%);fill-opacity:1;" d="M 210.210938 210.210938 L 170.421875 250 L 210.210938 289.789062 L 250 250 Z M 210.210938 210.210938 "/>
<path style=" stroke:none;fill-rule:nonzero;fill:rgb(0%,61.960784%,83.529412%);fill-opacity:1;" d="M 170.417969 170.417969 L 90.835938 90.835938 L 51.046875 130.625 L 130.628906 210.207031 Z M 170.417969 170.417969 "/>
<path style=" stroke:none;fill-rule:nonzero;fill:rgb(0%,83.137255%,72.156863%);fill-opacity:1;" d="M 130.628906 210.210938 L 90.839844 170.421875 L 51.050781 210.210938 L 90.839844 250 Z M 130.628906 210.210938 "/>
<path style=" stroke:none;fill-rule:nonzero;fill:rgb(76.078431%,0%,82.745098%);fill-opacity:1;" d="M 170.417969 170.417969 L 250 250 L 289.789062 210.210938 L 210.207031 130.628906 Z M 170.417969 170.417969 "/>
<path style=" stroke:none;fill-rule:nonzero;fill:rgb(83.529412%,0%,39.607843%);fill-opacity:1;" d="M 210.210938 130.628906 L 250 170.417969 L 289.789062 130.628906 L 250 90.839844 Z M 210.210938 130.628906 "/>
</g>
</svg>
