<?xml version="1.0" encoding="UTF-8"?>
<svg xmlns="http://www.w3.org/2000/svg" xmlns:xlink="http://www.w3.org/1999/xlink" width="500pt" height="475.348623pt" viewBox="0 0 500 475.348623" version="1.1">
<g id="surface1">
<path style=" stroke:none;fill-rule:nonzero;fill:rgb(0%,0%,0%);fill-opacity:1;" d="M 139.070312 348.605469 L 28.140625 459.535156 L 40.464844 471.859375 L 151.394531 360.929688 Z M 139.070312 348.605469 "/>
<path style=" stroke:none;fill-rule:nonzero;fill:rgb(13.333333%,69.411765%,29.803922%);fill-opacity:1;" d="M 151.394531 360.929688 L 52.789062 459.535156 L 65.113281 471.859375 L 163.71875 373.253906 Z M 151.394531 360.929688 "/>
<path style=" stroke:none;fill-rule:nonzero;fill:rgb(98.039216%,56.862745%,98.431373%);fill-opacity:1;" d="M 163.71875 373.257812 L 77.4375 459.539062 L 89.761719 471.863281 L 176.042969 385.582031 Z M 163.71875 373.257812 "/>
<path style=" stroke:none;fill-rule:nonzero;fill:rgb(24.705882%,70.980392%,89.803922%);fill-opacity:1;" d="M 176.046875 385.582031 L 102.09375 459.535156 L 114.417969 471.859375 L 188.371094 397.90625 Z M 176.046875 385.582031 "/>
<path style=" stroke:none;fill-rule:nonzero;fill:rgb(95.294118%,69.019608%,81.176471%);fill-opacity:1;" d="M 188.371094 397.910156 L 126.742188 459.539062 L 139.066406 471.863281 L 200.695312 410.234375 Z M 188.371094 397.910156 "/>
<path style=" stroke:none;fill-rule:nonzero;fill:rgb(0%,0%,0%);fill-opacity:1;" d="M 200.695312 410.234375 L 151.390625 459.539062 L 163.714844 471.863281 L 213.019531 422.558594 Z M 200.695312 410.234375 "/>
<path style=" stroke:none;fill-rule:nonzero;fill:rgb(13.333333%,69.411765%,29.803922%);fill-opacity:1;" d="M 213.023438 422.558594 L 176.046875 459.535156 L 188.371094 471.859375 L 225.347656 434.882812 Z M 213.023438 422.558594 "/>
<path style=" stroke:none;fill-rule:nonzero;fill:rgb(98.039216%,56.862745%,98.431373%);fill-opacity:1;" d="M 225.347656 434.886719 L 200.695312 459.539062 L 213.019531 471.863281 L 237.671875 447.210938 Z M 225.347656 434.886719 "/>
<path style=" stroke:none;fill-rule:nonzero;fill:rgb(24.705882%,70.980392%,89.803922%);fill-opacity:1;" d="M 237.675781 447.210938 L 225.351562 459.535156 L 237.675781 471.859375 L 250 459.535156 Z M 237.675781 447.210938 "/>
<path style=" stroke:none;fill-rule:nonzero;fill:rgb(98.039216%,56.862745%,98.431373%);fill-opacity:1;" d="M 139.070312 348.605469 L 250 237.675781 L 237.675781 225.351562 L 126.746094 336.28125 Z M 139.070312 348.605469 "/>
<path style=" stroke:none;fill-rule:nonzero;fill:rgb(13.333333%,69.411765%,29.803922%);fill-opacity:1;" d="M 126.742188 336.28125 L 225.347656 237.675781 L 213.023438 225.351562 L 114.417969 323.957031 Z M 126.742188 336.28125 "/>
<path style=" stroke:none;fill-rule:nonzero;fill:rgb(0%,0%,0%);fill-opacity:1;" d="M 114.417969 323.953125 L 200.699219 237.671875 L 188.375 225.347656 L 102.09375 311.628906 Z M 114.417969 323.953125 "/>
<path style=" stroke:none;fill-rule:nonzero;fill:rgb(95.294118%,69.019608%,81.176471%);fill-opacity:1;" d="M 102.089844 311.628906 L 176.042969 237.675781 L 163.71875 225.351562 L 89.765625 299.304688 Z M 102.089844 311.628906 "/>
<path style=" stroke:none;fill-rule:nonzero;fill:rgb(24.705882%,70.980392%,89.803922%);fill-opacity:1;" d="M 89.765625 299.304688 L 151.394531 237.675781 L 139.070312 225.351562 L 77.441406 286.980469 Z M 89.765625 299.304688 "/>
<path style=" stroke:none;fill-rule:nonzero;fill:rgb(98.039216%,56.862745%,98.431373%);fill-opacity:1;" d="M 77.441406 286.976562 L 126.746094 237.671875 L 114.421875 225.347656 L 65.117188 274.652344 Z M 77.441406 286.976562 "/>
<path style=" stroke:none;fill-rule:nonzero;fill:rgb(13.333333%,69.411765%,29.803922%);fill-opacity:1;" d="M 65.113281 274.652344 L 102.089844 237.675781 L 89.765625 225.351562 L 52.789062 262.328125 Z M 65.113281 274.652344 "/>
<path style=" stroke:none;fill-rule:nonzero;fill:rgb(0%,0%,0%);fill-opacity:1;" d="M 52.789062 262.324219 L 77.441406 237.671875 L 65.117188 225.347656 L 40.464844 250 Z M 52.789062 262.324219 "/>
<path style=" stroke:none;fill-rule:nonzero;fill:rgb(95.294118%,69.019608%,81.176471%);fill-opacity:1;" d="M 40.464844 250 L 52.789062 237.675781 L 40.464844 225.351562 L 28.140625 237.675781 Z M 40.464844 250 "/>
<path style=" stroke:none;fill-rule:nonzero;fill:rgb(8.235294%,69.803922%,82.745098%);fill-opacity:1;" d="M 139.070312 348.605469 L 250 459.535156 L 262.324219 447.210938 L 151.394531 336.28125 Z M 139.070312 348.605469 "/>
<path style=" stroke:none;fill-rule:nonzero;fill:rgb(100%,84.313725%,0%);fill-opacity:1;" d="M 151.394531 336.28125 L 250 434.886719 L 262.324219 422.5625 L 163.71875 323.957031 Z M 151.394531 336.28125 "/>
<path style=" stroke:none;fill-rule:nonzero;fill:rgb(95.294118%,52.941176%,18.431373%);fill-opacity:1;" d="M 163.71875 323.953125 L 250 410.234375 L 262.324219 397.910156 L 176.042969 311.628906 Z M 163.71875 323.953125 "/>
<path style=" stroke:none;fill-rule:nonzero;fill:rgb(100%,34.901961%,56.078431%);fill-opacity:1;" d="M 176.046875 311.628906 L 250 385.582031 L 262.324219 373.257812 L 188.371094 299.304688 Z M 176.046875 311.628906 "/>
<path style=" stroke:none;fill-rule:nonzero;fill:rgb(13.72549%,43.137255%,58.823529%);fill-opacity:1;" d="M 188.371094 299.304688 L 250 360.933594 L 262.324219 348.609375 L 200.695312 286.980469 Z M 188.371094 299.304688 "/>
<path style=" stroke:none;fill-rule:nonzero;fill:rgb(8.235294%,69.803922%,82.745098%);fill-opacity:1;" d="M 200.695312 286.976562 L 250 336.28125 L 262.324219 323.957031 L 213.019531 274.652344 Z M 200.695312 286.976562 "/>
<path style=" stroke:none;fill-rule:nonzero;fill:rgb(100%,84.313725%,0%);fill-opacity:1;" d="M 213.023438 274.652344 L 250 311.628906 L 262.324219 299.304688 L 225.347656 262.328125 Z M 213.023438 274.652344 "/>
<path style=" stroke:none;fill-rule:nonzero;fill:rgb(95.294118%,52.941176%,18.431373%);fill-opacity:1;" d="M 225.347656 262.324219 L 250 286.976562 L 262.324219 274.652344 L 237.671875 250 Z M 225.347656 262.324219 "/>
<path style=" stroke:none;fill-rule:nonzero;fill:rgb(100%,34.901961%,56.078431%);fill-opacity:1;" d="M 237.675781 250 L 250 262.324219 L 262.324219 250 L 250 237.675781 Z M 237.675781 250 "/>
<path style=" stroke:none;fill-rule:nonzero;fill:rgb(95.294118%,52.941176%,18.431373%);fill-opacity:1;" d="M 139.070312 348.605469 L 28.140625 237.675781 L 15.816406 250 L 126.746094 360.929688 Z M 139.070312 348.605469 "/>
<path style=" stroke:none;fill-rule:nonzero;fill:rgb(100%,84.313725%,0%);fill-opacity:1;" d="M 126.742188 360.929688 L 28.136719 262.324219 L 15.8125 274.648438 L 114.417969 373.253906 Z M 126.742188 360.929688 "/>
<path style=" stroke:none;fill-rule:nonzero;fill:rgb(8.235294%,69.803922%,82.745098%);fill-opacity:1;" d="M 114.417969 373.257812 L 28.136719 286.976562 L 15.8125 299.300781 L 102.09375 385.582031 Z M 114.417969 373.257812 "/>
<path style=" stroke:none;fill-rule:nonzero;fill:rgb(13.72549%,43.137255%,58.823529%);fill-opacity:1;" d="M 102.089844 385.582031 L 28.136719 311.628906 L 15.8125 323.953125 L 89.765625 397.90625 Z M 102.089844 385.582031 "/>
<path style=" stroke:none;fill-rule:nonzero;fill:rgb(100%,34.901961%,56.078431%);fill-opacity:1;" d="M 89.765625 397.910156 L 28.136719 336.28125 L 15.8125 348.605469 L 77.441406 410.234375 Z M 89.765625 397.910156 "/>
<path style=" stroke:none;fill-rule:nonzero;fill:rgb(95.294118%,52.941176%,18.431373%);fill-opacity:1;" d="M 77.441406 410.234375 L 28.136719 360.929688 L 15.8125 373.253906 L 65.117188 422.558594 Z M 77.441406 410.234375 "/>
<path style=" stroke:none;fill-rule:nonzero;fill:rgb(100%,84.313725%,0%);fill-opacity:1;" d="M 65.113281 422.558594 L 28.136719 385.582031 L 15.8125 397.90625 L 52.789062 434.882812 Z M 65.113281 422.558594 "/>
<path style=" stroke:none;fill-rule:nonzero;fill:rgb(8.235294%,69.803922%,82.745098%);fill-opacity:1;" d="M 52.789062 434.886719 L 28.136719 410.234375 L 15.8125 422.558594 L 40.464844 447.210938 Z M 52.789062 434.886719 "/>
<path style=" stroke:none;fill-rule:nonzero;fill:rgb(13.72549%,43.137255%,58.823529%);fill-opacity:1;" d="M 40.464844 447.210938 L 28.140625 434.886719 L 15.816406 447.210938 L 28.140625 459.535156 Z M 40.464844 447.210938 "/>
<path style=" stroke:none;fill-rule:nonzero;fill:rgb(92.54902%,93.333333%,23.529412%);fill-opacity:1;" d="M 373.257812 336.28125 L 262.328125 447.210938 L 274.652344 459.535156 L 385.582031 348.605469 Z M 373.257812 336.28125 "/>
<path style=" stroke:none;fill-rule:nonzero;fill:rgb(96.470588%,96.078431%,93.333333%);fill-opacity:1;" d="M 385.582031 348.605469 L 286.976562 447.210938 L 299.300781 459.535156 L 397.90625 360.929688 Z M 385.582031 348.605469 "/>
<path style=" stroke:none;fill-rule:nonzero;fill:rgb(41.568627%,71.372549%,77.647059%);fill-opacity:1;" d="M 397.910156 360.929688 L 311.628906 447.210938 L 323.953125 459.535156 L 410.234375 373.253906 Z M 397.910156 360.929688 "/>
<path style=" stroke:none;fill-rule:nonzero;fill:rgb(100%,80.784314%,67.843137%);fill-opacity:1;" d="M 410.234375 373.257812 L 336.28125 447.210938 L 348.605469 459.535156 L 422.558594 385.582031 Z M 410.234375 373.257812 "/>
<path style=" stroke:none;fill-rule:nonzero;fill:rgb(37.647059%,68.627451%,38.431373%);fill-opacity:1;" d="M 422.558594 385.582031 L 360.929688 447.210938 L 373.253906 459.535156 L 434.882812 397.90625 Z M 422.558594 385.582031 "/>
<path style=" stroke:none;fill-rule:nonzero;fill:rgb(92.54902%,93.333333%,23.529412%);fill-opacity:1;" d="M 434.886719 397.910156 L 385.582031 447.214844 L 397.90625 459.539062 L 447.210938 410.234375 Z M 434.886719 397.910156 "/>
<path style=" stroke:none;fill-rule:nonzero;fill:rgb(96.470588%,96.078431%,93.333333%);fill-opacity:1;" d="M 447.210938 410.234375 L 410.234375 447.210938 L 422.558594 459.535156 L 459.535156 422.558594 Z M 447.210938 410.234375 "/>
<path style=" stroke:none;fill-rule:nonzero;fill:rgb(41.568627%,71.372549%,77.647059%);fill-opacity:1;" d="M 459.535156 422.558594 L 434.882812 447.210938 L 447.207031 459.535156 L 471.859375 434.882812 Z M 459.535156 422.558594 "/>
<path style=" stroke:none;fill-rule:nonzero;fill:rgb(100%,80.784314%,67.843137%);fill-opacity:1;" d="M 471.863281 434.886719 L 459.539062 447.210938 L 471.863281 459.535156 L 484.1875 447.210938 Z M 471.863281 434.886719 "/>
<path style=" stroke:none;fill-rule:nonzero;fill:rgb(41.568627%,71.372549%,77.647059%);fill-opacity:1;" d="M 373.257812 336.28125 L 484.1875 225.351562 L 471.863281 213.027344 L 360.933594 323.957031 Z M 373.257812 336.28125 "/>
<path style=" stroke:none;fill-rule:nonzero;fill:rgb(96.470588%,96.078431%,93.333333%);fill-opacity:1;" d="M 360.929688 323.953125 L 459.535156 225.347656 L 447.210938 213.023438 L 348.605469 311.628906 Z M 360.929688 323.953125 "/>
<path style=" stroke:none;fill-rule:nonzero;fill:rgb(92.54902%,93.333333%,23.529412%);fill-opacity:1;" d="M 348.605469 311.628906 L 434.886719 225.347656 L 422.5625 213.023438 L 336.28125 299.304688 Z M 348.605469 311.628906 "/>
<path style=" stroke:none;fill-rule:nonzero;fill:rgb(37.647059%,68.627451%,38.431373%);fill-opacity:1;" d="M 336.28125 299.304688 L 410.234375 225.351562 L 397.910156 213.027344 L 323.957031 286.980469 Z M 336.28125 299.304688 "/>
<path style=" stroke:none;fill-rule:nonzero;fill:rgb(100%,80.784314%,67.843137%);fill-opacity:1;" d="M 323.953125 286.976562 L 385.582031 225.347656 L 373.257812 213.023438 L 311.628906 274.652344 Z M 323.953125 286.976562 "/>
<path style=" stroke:none;fill-rule:nonzero;fill:rgb(41.568627%,71.372549%,77.647059%);fill-opacity:1;" d="M 311.628906 274.652344 L 360.933594 225.347656 L 348.609375 213.023438 L 299.304688 262.328125 Z M 311.628906 274.652344 "/>
<path style=" stroke:none;fill-rule:nonzero;fill:rgb(96.470588%,96.078431%,93.333333%);fill-opacity:1;" d="M 299.304688 262.324219 L 336.28125 225.347656 L 323.957031 213.023438 L 286.980469 250 Z M 299.304688 262.324219 "/>
<path style=" stroke:none;fill-rule:nonzero;fill:rgb(92.54902%,93.333333%,23.529412%);fill-opacity:1;" d="M 286.976562 250 L 311.628906 225.347656 L 299.304688 213.023438 L 274.652344 237.675781 Z M 286.976562 250 "/>
<path style=" stroke:none;fill-rule:nonzero;fill:rgb(37.647059%,68.627451%,38.431373%);fill-opacity:1;" d="M 274.652344 237.675781 L 286.976562 225.351562 L 274.652344 213.027344 L 262.328125 225.351562 Z M 274.652344 237.675781 "/>
<path style=" stroke:none;fill-rule:nonzero;fill:rgb(76.078431%,0%,82.745098%);fill-opacity:1;" d="M 373.257812 336.28125 L 484.1875 447.210938 L 496.511719 434.886719 L 385.582031 323.957031 Z M 373.257812 336.28125 "/>
<path style=" stroke:none;fill-rule:nonzero;fill:rgb(35.294118%,0%,84.313725%);fill-opacity:1;" d="M 385.582031 323.953125 L 484.1875 422.558594 L 496.511719 410.234375 L 397.90625 311.628906 Z M 385.582031 323.953125 "/>
<path style=" stroke:none;fill-rule:nonzero;fill:rgb(0%,61.960784%,83.529412%);fill-opacity:1;" d="M 397.910156 311.628906 L 484.191406 397.910156 L 496.515625 385.585938 L 410.234375 299.304688 Z M 397.910156 311.628906 "/>
<path style=" stroke:none;fill-rule:nonzero;fill:rgb(0%,83.137255%,72.156863%);fill-opacity:1;" d="M 410.234375 299.304688 L 484.1875 373.257812 L 496.511719 360.933594 L 422.558594 286.980469 Z M 410.234375 299.304688 "/>
<path style=" stroke:none;fill-rule:nonzero;fill:rgb(83.529412%,0%,39.607843%);fill-opacity:1;" d="M 422.558594 286.976562 L 484.1875 348.605469 L 496.511719 336.28125 L 434.882812 274.652344 Z M 422.558594 286.976562 "/>
<path style=" stroke:none;fill-rule:nonzero;fill:rgb(76.078431%,0%,82.745098%);fill-opacity:1;" d="M 434.886719 274.652344 L 484.191406 323.957031 L 496.515625 311.632812 L 447.210938 262.328125 Z M 434.886719 274.652344 "/>
<path style=" stroke:none;fill-rule:nonzero;fill:rgb(35.294118%,0%,84.313725%);fill-opacity:1;" d="M 447.210938 262.324219 L 484.1875 299.300781 L 496.511719 286.976562 L 459.535156 250 Z M 447.210938 262.324219 "/>
<path style=" stroke:none;fill-rule:nonzero;fill:rgb(0%,61.960784%,83.529412%);fill-opacity:1;" d="M 459.535156 250 L 484.1875 274.652344 L 496.511719 262.328125 L 471.859375 237.675781 Z M 459.535156 250 "/>
<path style=" stroke:none;fill-rule:nonzero;fill:rgb(0%,83.137255%,72.156863%);fill-opacity:1;" d="M 471.863281 237.675781 L 484.1875 250 L 496.511719 237.675781 L 484.1875 225.351562 Z M 471.863281 237.675781 "/>
<path style=" stroke:none;fill-rule:nonzero;fill:rgb(0%,61.960784%,83.529412%);fill-opacity:1;" d="M 373.257812 336.28125 L 262.328125 225.351562 L 250.003906 237.675781 L 360.933594 348.605469 Z M 373.257812 336.28125 "/>
<path style=" stroke:none;fill-rule:nonzero;fill:rgb(35.294118%,0%,84.313725%);fill-opacity:1;" d="M 360.929688 348.605469 L 262.324219 250 L 250 262.324219 L 348.605469 360.929688 Z M 360.929688 348.605469 "/>
<path style=" stroke:none;fill-rule:nonzero;fill:rgb(76.078431%,0%,82.745098%);fill-opacity:1;" d="M 348.605469 360.929688 L 262.324219 274.648438 L 250 286.972656 L 336.28125 373.253906 Z M 348.605469 360.929688 "/>
<path style=" stroke:none;fill-rule:nonzero;fill:rgb(83.529412%,0%,39.607843%);fill-opacity:1;" d="M 336.28125 373.257812 L 262.328125 299.304688 L 250.003906 311.628906 L 323.957031 385.582031 Z M 336.28125 373.257812 "/>
<path style=" stroke:none;fill-rule:nonzero;fill:rgb(0%,83.137255%,72.156863%);fill-opacity:1;" d="M 323.953125 385.582031 L 262.324219 323.953125 L 250 336.277344 L 311.628906 397.90625 Z M 323.953125 385.582031 "/>
<path style=" stroke:none;fill-rule:nonzero;fill:rgb(0%,61.960784%,83.529412%);fill-opacity:1;" d="M 311.628906 397.910156 L 262.324219 348.605469 L 250 360.929688 L 299.304688 410.234375 Z M 311.628906 397.910156 "/>
<path style=" stroke:none;fill-rule:nonzero;fill:rgb(35.294118%,0%,84.313725%);fill-opacity:1;" d="M 299.304688 410.234375 L 262.328125 373.257812 L 250.003906 385.582031 L 286.980469 422.558594 Z M 299.304688 410.234375 "/>
<path style=" stroke:none;fill-rule:nonzero;fill:rgb(76.078431%,0%,82.745098%);fill-opacity:1;" d="M 286.976562 422.558594 L 262.324219 397.90625 L 250 410.230469 L 274.652344 434.882812 Z M 286.976562 422.558594 "/>
<path style=" stroke:none;fill-rule:nonzero;fill:rgb(83.529412%,0%,39.607843%);fill-opacity:1;" d="M 274.652344 434.886719 L 262.328125 422.5625 L 250.003906 434.886719 L 262.328125 447.210938 Z M 274.652344 434.886719 "/>
<path style=" stroke:none;fill-rule:nonzero;fill:rgb(0%,0%,0%);fill-opacity:1;" d="M 360.929688 126.742188 L 471.859375 15.8125 L 459.535156 3.488281 L 348.605469 114.417969 Z M 360.929688 126.742188 "/>
<path style=" stroke:none;fill-rule:nonzero;fill:rgb(13.333333%,69.411765%,29.803922%);fill-opacity:1;" d="M 348.605469 114.417969 L 447.210938 15.8125 L 434.886719 3.488281 L 336.28125 102.09375 Z M 348.605469 114.417969 "/>
<path style=" stroke:none;fill-rule:nonzero;fill:rgb(98.039216%,56.862745%,98.431373%);fill-opacity:1;" d="M 336.28125 102.089844 L 422.5625 15.808594 L 410.238281 3.484375 L 323.957031 89.765625 Z M 336.28125 102.089844 "/>
<path style=" stroke:none;fill-rule:nonzero;fill:rgb(24.705882%,70.980392%,89.803922%);fill-opacity:1;" d="M 323.953125 89.765625 L 397.90625 15.8125 L 385.582031 3.488281 L 311.628906 77.441406 Z M 323.953125 89.765625 "/>
<path style=" stroke:none;fill-rule:nonzero;fill:rgb(95.294118%,69.019608%,81.176471%);fill-opacity:1;" d="M 311.628906 77.441406 L 373.257812 15.8125 L 360.933594 3.488281 L 299.304688 65.117188 Z M 311.628906 77.441406 "/>
<path style=" stroke:none;fill-rule:nonzero;fill:rgb(0%,0%,0%);fill-opacity:1;" d="M 299.304688 65.113281 L 348.609375 15.808594 L 336.285156 3.484375 L 286.980469 52.789062 Z M 299.304688 65.113281 "/>
<path style=" stroke:none;fill-rule:nonzero;fill:rgb(13.333333%,69.411765%,29.803922%);fill-opacity:1;" d="M 286.976562 52.789062 L 323.953125 15.8125 L 311.628906 3.488281 L 274.652344 40.464844 Z M 286.976562 52.789062 "/>
<path style=" stroke:none;fill-rule:nonzero;fill:rgb(98.039216%,56.862745%,98.431373%);fill-opacity:1;" d="M 274.652344 40.464844 L 299.304688 15.8125 L 286.980469 3.488281 L 262.328125 28.140625 Z M 274.652344 40.464844 "/>
<path style=" stroke:none;fill-rule:nonzero;fill:rgb(24.705882%,70.980392%,89.803922%);fill-opacity:1;" d="M 262.324219 28.136719 L 274.648438 15.8125 L 262.324219 3.488281 L 250 15.8125 Z M 262.324219 28.136719 "/>
<path style=" stroke:none;fill-rule:nonzero;fill:rgb(98.039216%,56.862745%,98.431373%);fill-opacity:1;" d="M 360.929688 126.742188 L 250 237.671875 L 262.324219 249.996094 L 373.253906 139.066406 Z M 360.929688 126.742188 "/>
<path style=" stroke:none;fill-rule:nonzero;fill:rgb(13.333333%,69.411765%,29.803922%);fill-opacity:1;" d="M 373.257812 139.070312 L 274.652344 237.675781 L 286.976562 250 L 385.582031 151.394531 Z M 373.257812 139.070312 "/>
<path style=" stroke:none;fill-rule:nonzero;fill:rgb(0%,0%,0%);fill-opacity:1;" d="M 385.582031 151.394531 L 299.300781 237.675781 L 311.625 250 L 397.90625 163.71875 Z M 385.582031 151.394531 "/>
<path style=" stroke:none;fill-rule:nonzero;fill:rgb(95.294118%,69.019608%,81.176471%);fill-opacity:1;" d="M 397.910156 163.71875 L 323.957031 237.671875 L 336.28125 249.996094 L 410.234375 176.042969 Z M 397.910156 163.71875 "/>
<path style=" stroke:none;fill-rule:nonzero;fill:rgb(24.705882%,70.980392%,89.803922%);fill-opacity:1;" d="M 410.234375 176.046875 L 348.605469 237.675781 L 360.929688 250 L 422.558594 188.371094 Z M 410.234375 176.046875 "/>
<path style=" stroke:none;fill-rule:nonzero;fill:rgb(98.039216%,56.862745%,98.431373%);fill-opacity:1;" d="M 422.558594 188.371094 L 373.253906 237.675781 L 385.578125 250 L 434.882812 200.695312 Z M 422.558594 188.371094 "/>
<path style=" stroke:none;fill-rule:nonzero;fill:rgb(13.333333%,69.411765%,29.803922%);fill-opacity:1;" d="M 434.886719 200.695312 L 397.910156 237.671875 L 410.234375 249.996094 L 447.210938 213.019531 Z M 434.886719 200.695312 "/>
<path style=" stroke:none;fill-rule:nonzero;fill:rgb(0%,0%,0%);fill-opacity:1;" d="M 447.210938 213.023438 L 422.558594 237.675781 L 434.882812 250 L 459.535156 225.347656 Z M 447.210938 213.023438 "/>
<path style=" stroke:none;fill-rule:nonzero;fill:rgb(95.294118%,69.019608%,81.176471%);fill-opacity:1;" d="M 459.535156 225.347656 L 447.210938 237.671875 L 459.535156 249.996094 L 471.859375 237.671875 Z M 459.535156 225.347656 "/>
<path style=" stroke:none;fill-rule:nonzero;fill:rgb(8.235294%,69.803922%,82.745098%);fill-opacity:1;" d="M 360.929688 126.742188 L 250 15.8125 L 237.675781 28.136719 L 348.605469 139.066406 Z M 360.929688 126.742188 "/>
<path style=" stroke:none;fill-rule:nonzero;fill:rgb(100%,84.313725%,0%);fill-opacity:1;" d="M 348.605469 139.070312 L 250 40.464844 L 237.675781 52.789062 L 336.28125 151.394531 Z M 348.605469 139.070312 "/>
<path style=" stroke:none;fill-rule:nonzero;fill:rgb(95.294118%,52.941176%,18.431373%);fill-opacity:1;" d="M 336.28125 151.394531 L 250 65.113281 L 237.675781 77.4375 L 323.957031 163.71875 Z M 336.28125 151.394531 "/>
<path style=" stroke:none;fill-rule:nonzero;fill:rgb(100%,34.901961%,56.078431%);fill-opacity:1;" d="M 323.953125 163.71875 L 250 89.765625 L 237.675781 102.089844 L 311.628906 176.042969 Z M 323.953125 163.71875 "/>
<path style=" stroke:none;fill-rule:nonzero;fill:rgb(13.72549%,43.137255%,58.823529%);fill-opacity:1;" d="M 311.628906 176.046875 L 250 114.417969 L 237.675781 126.742188 L 299.304688 188.371094 Z M 311.628906 176.046875 "/>
<path style=" stroke:none;fill-rule:nonzero;fill:rgb(8.235294%,69.803922%,82.745098%);fill-opacity:1;" d="M 299.304688 188.371094 L 250 139.066406 L 237.675781 151.390625 L 286.980469 200.695312 Z M 299.304688 188.371094 "/>
<path style=" stroke:none;fill-rule:nonzero;fill:rgb(100%,84.313725%,0%);fill-opacity:1;" d="M 286.976562 200.695312 L 250 163.71875 L 237.675781 176.042969 L 274.652344 213.019531 Z M 286.976562 200.695312 "/>
<path style=" stroke:none;fill-rule:nonzero;fill:rgb(95.294118%,52.941176%,18.431373%);fill-opacity:1;" d="M 274.652344 213.023438 L 250 188.371094 L 237.675781 200.695312 L 262.328125 225.347656 Z M 274.652344 213.023438 "/>
<path style=" stroke:none;fill-rule:nonzero;fill:rgb(100%,34.901961%,56.078431%);fill-opacity:1;" d="M 262.324219 225.347656 L 250 213.023438 L 237.675781 225.347656 L 250 237.671875 Z M 262.324219 225.347656 "/>
<path style=" stroke:none;fill-rule:nonzero;fill:rgb(95.294118%,52.941176%,18.431373%);fill-opacity:1;" d="M 360.929688 126.742188 L 471.859375 237.671875 L 484.183594 225.347656 L 373.253906 114.417969 Z M 360.929688 126.742188 "/>
<path style=" stroke:none;fill-rule:nonzero;fill:rgb(100%,84.313725%,0%);fill-opacity:1;" d="M 373.257812 114.417969 L 471.863281 213.023438 L 484.1875 200.699219 L 385.582031 102.09375 Z M 373.257812 114.417969 "/>
<path style=" stroke:none;fill-rule:nonzero;fill:rgb(8.235294%,69.803922%,82.745098%);fill-opacity:1;" d="M 385.582031 102.089844 L 471.863281 188.371094 L 484.1875 176.046875 L 397.90625 89.765625 Z M 385.582031 102.089844 "/>
<path style=" stroke:none;fill-rule:nonzero;fill:rgb(13.72549%,43.137255%,58.823529%);fill-opacity:1;" d="M 397.910156 89.765625 L 471.863281 163.71875 L 484.1875 151.394531 L 410.234375 77.441406 Z M 397.910156 89.765625 "/>
<path style=" stroke:none;fill-rule:nonzero;fill:rgb(100%,34.901961%,56.078431%);fill-opacity:1;" d="M 410.234375 77.441406 L 471.863281 139.070312 L 484.1875 126.746094 L 422.558594 65.117188 Z M 410.234375 77.441406 "/>
<path style=" stroke:none;fill-rule:nonzero;fill:rgb(95.294118%,52.941176%,18.431373%);fill-opacity:1;" d="M 422.558594 65.113281 L 471.863281 114.417969 L 484.1875 102.09375 L 434.882812 52.789062 Z M 422.558594 65.113281 "/>
<path style=" stroke:none;fill-rule:nonzero;fill:rgb(100%,84.313725%,0%);fill-opacity:1;" d="M 434.886719 52.789062 L 471.863281 89.765625 L 484.1875 77.441406 L 447.210938 40.464844 Z M 434.886719 52.789062 "/>
<path style=" stroke:none;fill-rule:nonzero;fill:rgb(8.235294%,69.803922%,82.745098%);fill-opacity:1;" d="M 447.210938 40.464844 L 471.863281 65.117188 L 484.1875 52.792969 L 459.535156 28.140625 Z M 447.210938 40.464844 "/>
<path style=" stroke:none;fill-rule:nonzero;fill:rgb(13.72549%,43.137255%,58.823529%);fill-opacity:1;" d="M 459.535156 28.136719 L 471.859375 40.460938 L 484.183594 28.136719 L 471.859375 15.8125 Z M 459.535156 28.136719 "/>
<path style=" stroke:none;fill-rule:nonzero;fill:rgb(92.54902%,93.333333%,23.529412%);fill-opacity:1;" d="M 126.742188 139.070312 L 237.671875 28.140625 L 225.347656 15.816406 L 114.417969 126.746094 Z M 126.742188 139.070312 "/>
<path style=" stroke:none;fill-rule:nonzero;fill:rgb(96.470588%,96.078431%,93.333333%);fill-opacity:1;" d="M 114.417969 126.742188 L 213.023438 28.136719 L 200.699219 15.8125 L 102.09375 114.417969 Z M 114.417969 126.742188 "/>
<path style=" stroke:none;fill-rule:nonzero;fill:rgb(41.568627%,71.372549%,77.647059%);fill-opacity:1;" d="M 102.089844 114.417969 L 188.371094 28.136719 L 176.046875 15.8125 L 89.765625 102.09375 Z M 102.089844 114.417969 "/>
<path style=" stroke:none;fill-rule:nonzero;fill:rgb(100%,80.784314%,67.843137%);fill-opacity:1;" d="M 89.765625 102.089844 L 163.71875 28.136719 L 151.394531 15.8125 L 77.441406 89.765625 Z M 89.765625 102.089844 "/>
<path style=" stroke:none;fill-rule:nonzero;fill:rgb(37.647059%,68.627451%,38.431373%);fill-opacity:1;" d="M 77.441406 89.765625 L 139.070312 28.136719 L 126.746094 15.8125 L 65.117188 77.441406 Z M 77.441406 89.765625 "/>
<path style=" stroke:none;fill-rule:nonzero;fill:rgb(92.54902%,93.333333%,23.529412%);fill-opacity:1;" d="M 65.113281 77.441406 L 114.417969 28.136719 L 102.09375 15.8125 L 52.789062 65.117188 Z M 65.113281 77.441406 "/>
<path style=" stroke:none;fill-rule:nonzero;fill:rgb(96.470588%,96.078431%,93.333333%);fill-opacity:1;" d="M 52.789062 65.113281 L 89.765625 28.136719 L 77.441406 15.8125 L 40.464844 52.789062 Z M 52.789062 65.113281 "/>
<path style=" stroke:none;fill-rule:nonzero;fill:rgb(41.568627%,71.372549%,77.647059%);fill-opacity:1;" d="M 40.464844 52.789062 L 65.117188 28.136719 L 52.792969 15.8125 L 28.140625 40.464844 Z M 40.464844 52.789062 "/>
<path style=" stroke:none;fill-rule:nonzero;fill:rgb(100%,80.784314%,67.843137%);fill-opacity:1;" d="M 28.136719 40.464844 L 40.460938 28.140625 L 28.136719 15.816406 L 15.8125 28.140625 Z M 28.136719 40.464844 "/>
<path style=" stroke:none;fill-rule:nonzero;fill:rgb(41.568627%,71.372549%,77.647059%);fill-opacity:1;" d="M 126.742188 139.070312 L 15.8125 250 L 28.136719 262.324219 L 139.066406 151.394531 Z M 126.742188 139.070312 "/>
<path style=" stroke:none;fill-rule:nonzero;fill:rgb(96.470588%,96.078431%,93.333333%);fill-opacity:1;" d="M 139.070312 151.394531 L 40.464844 250 L 52.789062 262.324219 L 151.394531 163.71875 Z M 139.070312 151.394531 "/>
<path style=" stroke:none;fill-rule:nonzero;fill:rgb(92.54902%,93.333333%,23.529412%);fill-opacity:1;" d="M 151.394531 163.71875 L 65.113281 250 L 77.4375 262.324219 L 163.71875 176.042969 Z M 151.394531 163.71875 "/>
<path style=" stroke:none;fill-rule:nonzero;fill:rgb(37.647059%,68.627451%,38.431373%);fill-opacity:1;" d="M 163.71875 176.046875 L 89.765625 250 L 102.089844 262.324219 L 176.042969 188.371094 Z M 163.71875 176.046875 "/>
<path style=" stroke:none;fill-rule:nonzero;fill:rgb(100%,80.784314%,67.843137%);fill-opacity:1;" d="M 176.046875 188.371094 L 114.417969 250 L 126.742188 262.324219 L 188.371094 200.695312 Z M 176.046875 188.371094 "/>
<path style=" stroke:none;fill-rule:nonzero;fill:rgb(41.568627%,71.372549%,77.647059%);fill-opacity:1;" d="M 188.371094 200.695312 L 139.066406 250 L 151.390625 262.324219 L 200.695312 213.019531 Z M 188.371094 200.695312 "/>
<path style=" stroke:none;fill-rule:nonzero;fill:rgb(96.470588%,96.078431%,93.333333%);fill-opacity:1;" d="M 200.695312 213.023438 L 163.71875 250 L 176.042969 262.324219 L 213.019531 225.347656 Z M 200.695312 213.023438 "/>
<path style=" stroke:none;fill-rule:nonzero;fill:rgb(92.54902%,93.333333%,23.529412%);fill-opacity:1;" d="M 213.023438 225.347656 L 188.371094 250 L 200.695312 262.324219 L 225.347656 237.671875 Z M 213.023438 225.347656 "/>
<path style=" stroke:none;fill-rule:nonzero;fill:rgb(37.647059%,68.627451%,38.431373%);fill-opacity:1;" d="M 225.347656 237.675781 L 213.023438 250 L 225.347656 262.324219 L 237.671875 250 Z M 225.347656 237.675781 "/>
<path style=" stroke:none;fill-rule:nonzero;fill:rgb(76.078431%,0%,82.745098%);fill-opacity:1;" d="M 126.742188 139.070312 L 15.8125 28.140625 L 3.488281 40.464844 L 114.417969 151.394531 Z M 126.742188 139.070312 "/>
<path style=" stroke:none;fill-rule:nonzero;fill:rgb(35.294118%,0%,84.313725%);fill-opacity:1;" d="M 114.417969 151.394531 L 15.8125 52.789062 L 3.488281 65.113281 L 102.09375 163.71875 Z M 114.417969 151.394531 "/>
<path style=" stroke:none;fill-rule:nonzero;fill:rgb(0%,61.960784%,83.529412%);fill-opacity:1;" d="M 102.089844 163.71875 L 15.808594 77.4375 L 3.484375 89.761719 L 89.765625 176.042969 Z M 102.089844 163.71875 "/>
<path style=" stroke:none;fill-rule:nonzero;fill:rgb(0%,83.137255%,72.156863%);fill-opacity:1;" d="M 89.765625 176.046875 L 15.8125 102.09375 L 3.488281 114.417969 L 77.441406 188.371094 Z M 89.765625 176.046875 "/>
<path style=" stroke:none;fill-rule:nonzero;fill:rgb(83.529412%,0%,39.607843%);fill-opacity:1;" d="M 77.441406 188.371094 L 15.8125 126.742188 L 3.488281 139.066406 L 65.117188 200.695312 Z M 77.441406 188.371094 "/>
<path style=" stroke:none;fill-rule:nonzero;fill:rgb(76.078431%,0%,82.745098%);fill-opacity:1;" d="M 65.113281 200.695312 L 15.808594 151.390625 L 3.484375 163.714844 L 52.789062 213.019531 Z M 65.113281 200.695312 "/>
<path style=" stroke:none;fill-rule:nonzero;fill:rgb(35.294118%,0%,84.313725%);fill-opacity:1;" d="M 52.789062 213.023438 L 15.8125 176.046875 L 3.488281 188.371094 L 40.464844 225.347656 Z M 52.789062 213.023438 "/>
<path style=" stroke:none;fill-rule:nonzero;fill:rgb(0%,61.960784%,83.529412%);fill-opacity:1;" d="M 40.464844 225.347656 L 15.8125 200.695312 L 3.488281 213.019531 L 28.140625 237.671875 Z M 40.464844 225.347656 "/>
<path style=" stroke:none;fill-rule:nonzero;fill:rgb(0%,83.137255%,72.156863%);fill-opacity:1;" d="M 28.136719 237.675781 L 15.8125 225.351562 L 3.488281 237.675781 L 15.8125 250 Z M 28.136719 237.675781 "/>
<path style=" stroke:none;fill-rule:nonzero;fill:rgb(0%,61.960784%,83.529412%);fill-opacity:1;" d="M 126.742188 139.070312 L 237.671875 250 L 249.996094 237.675781 L 139.066406 126.746094 Z M 126.742188 139.070312 "/>
<path style=" stroke:none;fill-rule:nonzero;fill:rgb(35.294118%,0%,84.313725%);fill-opacity:1;" d="M 139.070312 126.742188 L 237.675781 225.347656 L 250 213.023438 L 151.394531 114.417969 Z M 139.070312 126.742188 "/>
<path style=" stroke:none;fill-rule:nonzero;fill:rgb(76.078431%,0%,82.745098%);fill-opacity:1;" d="M 151.394531 114.417969 L 237.675781 200.699219 L 250 188.375 L 163.71875 102.09375 Z M 151.394531 114.417969 "/>
<path style=" stroke:none;fill-rule:nonzero;fill:rgb(83.529412%,0%,39.607843%);fill-opacity:1;" d="M 163.71875 102.089844 L 237.671875 176.042969 L 249.996094 163.71875 L 176.042969 89.765625 Z M 163.71875 102.089844 "/>
<path style=" stroke:none;fill-rule:nonzero;fill:rgb(0%,83.137255%,72.156863%);fill-opacity:1;" d="M 176.046875 89.765625 L 237.675781 151.394531 L 250 139.070312 L 188.371094 77.441406 Z M 176.046875 89.765625 "/>
<path style=" stroke:none;fill-rule:nonzero;fill:rgb(0%,61.960784%,83.529412%);fill-opacity:1;" d="M 188.371094 77.441406 L 237.675781 126.746094 L 250 114.421875 L 200.695312 65.117188 Z M 188.371094 77.441406 "/>
<path style=" stroke:none;fill-rule:nonzero;fill:rgb(35.294118%,0%,84.313725%);fill-opacity:1;" d="M 200.695312 65.113281 L 237.671875 102.089844 L 249.996094 89.765625 L 213.019531 52.789062 Z M 200.695312 65.113281 "/>
<path style=" stroke:none;fill-rule:nonzero;fill:rgb(76.078431%,0%,82.745098%);fill-opacity:1;" d="M 213.023438 52.789062 L 237.675781 77.441406 L 250 65.117188 L 225.347656 40.464844 Z M 213.023438 52.789062 "/>
<path style=" stroke:none;fill-rule:nonzero;fill:rgb(83.529412%,0%,39.607843%);fill-opacity:1;" d="M 225.347656 40.464844 L 237.671875 52.789062 L 249.996094 40.464844 L 237.671875 28.140625 Z M 225.347656 40.464844 "/>
</g>
</svg>
