<?xml version="1.0" encoding="UTF-8"?>
<svg xmlns="http://www.w3.org/2000/svg" xmlns:xlink="http://www.w3.org/1999/xlink" width="500pt" height="500pt" viewBox="0 0 500 500" version="1.1">
<g id="surface1">
<path style=" stroke:none;fill-rule:nonzero;fill:rgb(96.470588%,96.078431%,93.333333%);fill-opacity:1;" d="M 362.425781 330.304688 L 458.792969 233.9375 L 426.671875 201.816406 L 330.304688 298.183594 Z M 362.425781 330.304688 "/>
<path style=" stroke:none;fill-rule:nonzero;fill:rgb(41.568627%,71.372549%,77.647059%);fill-opacity:1;" d="M 330.304688 298.183594 L 394.546875 233.941406 L 362.425781 201.820312 L 298.183594 266.0625 Z M 330.304688 298.183594 "/>
<path style=" stroke:none;fill-rule:nonzero;fill:rgb(100%,80.784314%,67.843137%);fill-opacity:1;" d="M 298.183594 266.0625 L 330.304688 233.941406 L 298.183594 201.820312 L 266.0625 233.941406 Z M 298.183594 266.0625 "/>
<path style=" stroke:none;fill-rule:nonzero;fill:rgb(96.470588%,96.078431%,93.333333%);fill-opacity:1;" d="M 362.425781 330.304688 L 266.058594 426.671875 L 298.179688 458.792969 L 394.546875 362.425781 Z M 362.425781 330.304688 "/>
<path style=" stroke:none;fill-rule:nonzero;fill:rgb(92.54902%,93.333333%,23.529412%);fill-opacity:1;" d="M 394.546875 362.425781 L 330.304688 426.667969 L 362.425781 458.789062 L 426.667969 394.546875 Z M 394.546875 362.425781 "/>
<path style=" stroke:none;fill-rule:nonzero;fill:rgb(37.647059%,68.627451%,38.431373%);fill-opacity:1;" d="M 426.671875 394.546875 L 394.550781 426.667969 L 426.671875 458.789062 L 458.792969 426.667969 Z M 426.671875 394.546875 "/>
<path style=" stroke:none;fill-rule:nonzero;fill:rgb(35.294118%,0%,84.313725%);fill-opacity:1;" d="M 362.425781 330.304688 L 266.058594 233.9375 L 233.9375 266.058594 L 330.304688 362.425781 Z M 362.425781 330.304688 "/>
<path style=" stroke:none;fill-rule:nonzero;fill:rgb(0%,61.960784%,83.529412%);fill-opacity:1;" d="M 330.304688 362.425781 L 266.0625 298.183594 L 233.941406 330.304688 L 298.183594 394.546875 Z M 330.304688 362.425781 "/>
<path style=" stroke:none;fill-rule:nonzero;fill:rgb(0%,83.137255%,72.156863%);fill-opacity:1;" d="M 298.183594 394.546875 L 266.0625 362.425781 L 233.941406 394.546875 L 266.0625 426.667969 Z M 298.183594 394.546875 "/>
<path style=" stroke:none;fill-rule:nonzero;fill:rgb(35.294118%,0%,84.313725%);fill-opacity:1;" d="M 362.425781 330.304688 L 458.792969 426.671875 L 490.914062 394.550781 L 394.546875 298.183594 Z M 362.425781 330.304688 "/>
<path style=" stroke:none;fill-rule:nonzero;fill:rgb(76.078431%,0%,82.745098%);fill-opacity:1;" d="M 394.546875 298.183594 L 458.789062 362.425781 L 490.910156 330.304688 L 426.667969 266.0625 Z M 394.546875 298.183594 "/>
<path style=" stroke:none;fill-rule:nonzero;fill:rgb(83.529412%,0%,39.607843%);fill-opacity:1;" d="M 426.671875 266.0625 L 458.792969 298.183594 L 490.914062 266.0625 L 458.792969 233.941406 Z M 426.671875 266.0625 "/>
<path style=" stroke:none;fill-rule:nonzero;fill:rgb(96.470588%,96.078431%,93.333333%);fill-opacity:1;" d="M 137.574219 362.425781 L 233.941406 266.058594 L 201.820312 233.9375 L 105.453125 330.304688 Z M 137.574219 362.425781 "/>
<path style=" stroke:none;fill-rule:nonzero;fill:rgb(41.568627%,71.372549%,77.647059%);fill-opacity:1;" d="M 105.453125 330.304688 L 169.695312 266.0625 L 137.574219 233.941406 L 73.332031 298.183594 Z M 105.453125 330.304688 "/>
<path style=" stroke:none;fill-rule:nonzero;fill:rgb(100%,80.784314%,67.843137%);fill-opacity:1;" d="M 73.328125 298.183594 L 105.449219 266.0625 L 73.328125 233.941406 L 41.207031 266.0625 Z M 73.328125 298.183594 "/>
<path style=" stroke:none;fill-rule:nonzero;fill:rgb(96.470588%,96.078431%,93.333333%);fill-opacity:1;" d="M 137.574219 362.425781 L 41.207031 458.792969 L 73.328125 490.914062 L 169.695312 394.546875 Z M 137.574219 362.425781 "/>
<path style=" stroke:none;fill-rule:nonzero;fill:rgb(92.54902%,93.333333%,23.529412%);fill-opacity:1;" d="M 169.695312 394.546875 L 105.453125 458.789062 L 137.574219 490.910156 L 201.816406 426.667969 Z M 169.695312 394.546875 "/>
<path style=" stroke:none;fill-rule:nonzero;fill:rgb(37.647059%,68.627451%,38.431373%);fill-opacity:1;" d="M 201.816406 426.671875 L 169.695312 458.792969 L 201.816406 490.914062 L 233.9375 458.792969 Z M 201.816406 426.671875 "/>
<path style=" stroke:none;fill-rule:nonzero;fill:rgb(35.294118%,0%,84.313725%);fill-opacity:1;" d="M 137.574219 362.425781 L 41.207031 266.058594 L 9.085938 298.179688 L 105.453125 394.546875 Z M 137.574219 362.425781 "/>
<path style=" stroke:none;fill-rule:nonzero;fill:rgb(0%,61.960784%,83.529412%);fill-opacity:1;" d="M 105.453125 394.546875 L 41.210938 330.304688 L 9.089844 362.425781 L 73.332031 426.667969 Z M 105.453125 394.546875 "/>
<path style=" stroke:none;fill-rule:nonzero;fill:rgb(0%,83.137255%,72.156863%);fill-opacity:1;" d="M 73.328125 426.671875 L 41.207031 394.550781 L 9.085938 426.671875 L 41.207031 458.792969 Z M 73.328125 426.671875 "/>
<path style=" stroke:none;fill-rule:nonzero;fill:rgb(35.294118%,0%,84.313725%);fill-opacity:1;" d="M 137.574219 362.425781 L 233.941406 458.792969 L 266.0625 426.671875 L 169.695312 330.304688 Z M 137.574219 362.425781 "/>
<path style=" stroke:none;fill-rule:nonzero;fill:rgb(76.078431%,0%,82.745098%);fill-opacity:1;" d="M 169.695312 330.304688 L 233.9375 394.546875 L 266.058594 362.425781 L 201.816406 298.183594 Z M 169.695312 330.304688 "/>
<path style=" stroke:none;fill-rule:nonzero;fill:rgb(83.529412%,0%,39.607843%);fill-opacity:1;" d="M 201.816406 298.183594 L 233.9375 330.304688 L 266.058594 298.183594 L 233.9375 266.0625 Z M 201.816406 298.183594 "/>
<path style=" stroke:none;fill-rule:nonzero;fill:rgb(96.470588%,96.078431%,93.333333%);fill-opacity:1;" d="M 362.425781 137.574219 L 458.792969 41.207031 L 426.671875 9.085938 L 330.304688 105.453125 Z M 362.425781 137.574219 "/>
<path style=" stroke:none;fill-rule:nonzero;fill:rgb(41.568627%,71.372549%,77.647059%);fill-opacity:1;" d="M 330.304688 105.453125 L 394.546875 41.210938 L 362.425781 9.089844 L 298.183594 73.332031 Z M 330.304688 105.453125 "/>
<path style=" stroke:none;fill-rule:nonzero;fill:rgb(100%,80.784314%,67.843137%);fill-opacity:1;" d="M 298.183594 73.328125 L 330.304688 41.207031 L 298.183594 9.085938 L 266.0625 41.207031 Z M 298.183594 73.328125 "/>
<path style=" stroke:none;fill-rule:nonzero;fill:rgb(96.470588%,96.078431%,93.333333%);fill-opacity:1;" d="M 362.425781 137.574219 L 266.058594 233.941406 L 298.179688 266.0625 L 394.546875 169.695312 Z M 362.425781 137.574219 "/>
<path style=" stroke:none;fill-rule:nonzero;fill:rgb(92.54902%,93.333333%,23.529412%);fill-opacity:1;" d="M 394.546875 169.695312 L 330.304688 233.9375 L 362.425781 266.058594 L 426.667969 201.816406 Z M 394.546875 169.695312 "/>
<path style=" stroke:none;fill-rule:nonzero;fill:rgb(37.647059%,68.627451%,38.431373%);fill-opacity:1;" d="M 426.671875 201.816406 L 394.550781 233.9375 L 426.671875 266.058594 L 458.792969 233.9375 Z M 426.671875 201.816406 "/>
<path style=" stroke:none;fill-rule:nonzero;fill:rgb(35.294118%,0%,84.313725%);fill-opacity:1;" d="M 362.425781 137.574219 L 266.058594 41.207031 L 233.9375 73.328125 L 330.304688 169.695312 Z M 362.425781 137.574219 "/>
<path style=" stroke:none;fill-rule:nonzero;fill:rgb(0%,61.960784%,83.529412%);fill-opacity:1;" d="M 330.304688 169.695312 L 266.0625 105.453125 L 233.941406 137.574219 L 298.183594 201.816406 Z M 330.304688 169.695312 "/>
<path style=" stroke:none;fill-rule:nonzero;fill:rgb(0%,83.137255%,72.156863%);fill-opacity:1;" d="M 298.183594 201.816406 L 266.0625 169.695312 L 233.941406 201.816406 L 266.0625 233.9375 Z M 298.183594 201.816406 "/>
<path style=" stroke:none;fill-rule:nonzero;fill:rgb(35.294118%,0%,84.313725%);fill-opacity:1;" d="M 362.425781 137.574219 L 458.792969 233.941406 L 490.914062 201.820312 L 394.546875 105.453125 Z M 362.425781 137.574219 "/>
<path style=" stroke:none;fill-rule:nonzero;fill:rgb(76.078431%,0%,82.745098%);fill-opacity:1;" d="M 394.546875 105.453125 L 458.789062 169.695312 L 490.910156 137.574219 L 426.667969 73.332031 Z M 394.546875 105.453125 "/>
<path style=" stroke:none;fill-rule:nonzero;fill:rgb(83.529412%,0%,39.607843%);fill-opacity:1;" d="M 426.671875 73.328125 L 458.792969 105.449219 L 490.914062 73.328125 L 458.792969 41.207031 Z M 426.671875 73.328125 "/>
<path style=" stroke:none;fill-rule:nonzero;fill:rgb(96.470588%,96.078431%,93.333333%);fill-opacity:1;" d="M 137.574219 169.695312 L 233.941406 73.328125 L 201.820312 41.207031 L 105.453125 137.574219 Z M 137.574219 169.695312 "/>
<path style=" stroke:none;fill-rule:nonzero;fill:rgb(41.568627%,71.372549%,77.647059%);fill-opacity:1;" d="M 105.453125 137.574219 L 169.695312 73.332031 L 137.574219 41.210938 L 73.332031 105.453125 Z M 105.453125 137.574219 "/>
<path style=" stroke:none;fill-rule:nonzero;fill:rgb(100%,80.784314%,67.843137%);fill-opacity:1;" d="M 73.328125 105.453125 L 105.449219 73.332031 L 73.328125 41.210938 L 41.207031 73.332031 Z M 73.328125 105.453125 "/>
<path style=" stroke:none;fill-rule:nonzero;fill:rgb(96.470588%,96.078431%,93.333333%);fill-opacity:1;" d="M 137.574219 169.695312 L 41.207031 266.0625 L 73.328125 298.183594 L 169.695312 201.816406 Z M 137.574219 169.695312 "/>
<path style=" stroke:none;fill-rule:nonzero;fill:rgb(92.54902%,93.333333%,23.529412%);fill-opacity:1;" d="M 169.695312 201.816406 L 105.453125 266.058594 L 137.574219 298.179688 L 201.816406 233.9375 Z M 169.695312 201.816406 "/>
<path style=" stroke:none;fill-rule:nonzero;fill:rgb(37.647059%,68.627451%,38.431373%);fill-opacity:1;" d="M 201.816406 233.9375 L 169.695312 266.058594 L 201.816406 298.179688 L 233.9375 266.058594 Z M 201.816406 233.9375 "/>
<path style=" stroke:none;fill-rule:nonzero;fill:rgb(35.294118%,0%,84.313725%);fill-opacity:1;" d="M 137.574219 169.695312 L 41.207031 73.328125 L 9.085938 105.449219 L 105.453125 201.816406 Z M 137.574219 169.695312 "/>
<path style=" stroke:none;fill-rule:nonzero;fill:rgb(0%,61.960784%,83.529412%);fill-opacity:1;" d="M 105.453125 201.816406 L 41.210938 137.574219 L 9.089844 169.695312 L 73.332031 233.9375 Z M 105.453125 201.816406 "/>
<path style=" stroke:none;fill-rule:nonzero;fill:rgb(0%,83.137255%,72.156863%);fill-opacity:1;" d="M 73.328125 233.9375 L 41.207031 201.816406 L 9.085938 233.9375 L 41.207031 266.058594 Z M 73.328125 233.9375 "/>
<path style=" stroke:none;fill-rule:nonzero;fill:rgb(35.294118%,0%,84.313725%);fill-opacity:1;" d="M 137.574219 169.695312 L 233.941406 266.0625 L 266.0625 233.941406 L 169.695312 137.574219 Z M 137.574219 169.695312 "/>
<path style=" stroke:none;fill-rule:nonzero;fill:rgb(76.078431%,0%,82.745098%);fill-opacity:1;" d="M 169.695312 137.574219 L 233.9375 201.816406 L 266.058594 169.695312 L 201.816406 105.453125 Z M 169.695312 137.574219 "/>
<path style=" stroke:none;fill-rule:nonzero;fill:rgb(83.529412%,0%,39.607843%);fill-opacity:1;" d="M 201.816406 105.453125 L 233.9375 137.574219 L 266.058594 105.453125 L 233.9375 73.332031 Z M 201.816406 105.453125 "/>
</g>
</svg>
