<?xml version="1.0" encoding="UTF-8" standalone="no"?>
<!-- Created with Inkscape (http://www.inkscape.org/) -->

<svg
   xmlns:dc="http://purl.org/dc/elements/1.1/"
   xmlns:cc="http://creativecommons.org/ns#"
   xmlns:rdf="http://www.w3.org/1999/02/22-rdf-syntax-ns#"
   xmlns:svg="http://www.w3.org/2000/svg"
   xmlns="http://www.w3.org/2000/svg"
   xmlns:sodipodi="http://sodipodi.sourceforge.net/DTD/sodipodi-0.dtd"
   xmlns:inkscape="http://www.inkscape.org/namespaces/inkscape"
   width="500mm"
   height="500mm"
   viewBox="0 0 500 500"
   version="1.1"
   id="svg1411"
   inkscape:version="0.92.3 (2405546, 2018-03-11)"
   sodipodi:docname="b.svg">
  <defs
     id="defs1405" />
  <sodipodi:namedview
     id="base"
     pagecolor="#ffffff"
     bordercolor="#666666"
     borderopacity="1.0"
     inkscape:pageopacity="0.0"
     inkscape:pageshadow="2"
     inkscape:zoom="0.35"
     inkscape:cx="1157.1429"
     inkscape:cy="560"
     inkscape:document-units="mm"
     inkscape:current-layer="layer1"
     showgrid="false"
     inkscape:window-width="1272"
     inkscape:window-height="1438"
     inkscape:window-x="0"
     inkscape:window-y="0"
     inkscape:window-maximized="0" />
  <metadata
     id="metadata1408">
    <rdf:RDF>
      <cc:Work
         rdf:about="">
        <dc:format>image/svg+xml</dc:format>
        <dc:type
           rdf:resource="http://purl.org/dc/dcmitype/StillImage" />
        <dc:title></dc:title>
      </cc:Work>
    </rdf:RDF>
  </metadata>
  <g
     inkscape:label="Layer 1"
     inkscape:groupmode="layer"
     id="layer1"
     transform="translate(0,203)">
    <path
       style="opacity:1;fill:#090000;fill-opacity:1;stroke:none;stroke-width:0.29288033;stroke-linejoin:round;stroke-miterlimit:4;stroke-dasharray:none;stroke-dashoffset:0;stroke-opacity:1"
       id="path1956"
       d="m 240.41645,-198.53432 c -2.3e-4,0.25921 0.002,0.51841 -0.004,0.77755 -0.0249,0.55183 -0.0478,1.10372 -0.0745,1.65547 -0.0503,1.04608 -0.0873,2.09281 -0.12302,3.13953 -0.0444,1.31371 -0.0803,2.62771 -0.11401,3.94176 -0.0391,1.52345 -0.0725,3.04704 -0.10358,4.57068 -0.0362,1.81307 -0.0657,3.62627 -0.0944,5.43948 -0.0334,1.98833 -0.0544,3.97685 -0.0909,5.96511 -0.0401,2.26169 -0.10892,4.52264 -0.17106,6.78373 -0.0583,2.57695 -0.14767,5.15278 -0.25436,7.72797 -0.12095,2.93859 -0.26914,5.87584 -0.43124,8.81221 -0.1868,3.08842 -0.38186,6.17629 -0.56922,9.26468 -0.18555,3.07231 -0.36484,6.14502 -0.53568,9.21826 -0.17008,3.21079 -0.33895,6.42164 -0.51148,9.6323 -0.17813,3.29542 -0.34476,6.5915 -0.50532,9.88791 -0.16018,3.32577 -0.31132,6.65202 -0.46037,9.97836 -0.15299,3.392806 -0.28822,6.786439 -0.41964,10.180221 -0.13273,3.44929 -0.25874,6.898859 -0.38074,10.348584 -0.12327,3.505877 -0.23567,7.012162 -0.34648,10.518494 -0.11511,3.590735 -0.21773,7.181885 -0.31572,10.773175 -0.10023,3.721248 -0.19408,7.442684 -0.28622,11.164162 -0.0948,3.804677 -0.17957,7.609618 -0.26113,11.41463 -0.0838,3.943848 -0.16136,7.887835 -0.23689,11.831865 -0.0748,3.933174 -0.14502,7.866443 -0.21477,11.799718 -0.0701,3.8963098 -0.13463,7.7927227 -0.19613,11.6891884 -0.0618,3.9562617 -0.12031,7.9125762 -0.17765,11.8689093 -0.057,3.9416543 -0.11002,7.8833713 -0.16179,11.8251043 -0.0506,3.874135 -0.0988,7.748302 -0.1465,11.622477 -0.0456,3.715694 -0.0894,7.431415 -0.13294,11.147139 -0.0433,3.44869 -0.12029,6.89678 -0.21363,10.344335 -0.11958,3.542673 -0.26664,7.084261 -0.43016,10.624968 -0.16953,3.54793 -0.3419,7.095728 -0.51253,10.643605 -0.1587,3.363542 -0.34105,6.725814 -0.51722,10.088404 -0.15592,3.149362 -0.35435,6.296607 -0.45588,9.448615 -0.0808,2.87901 0.10606,5.753386 0.41777,8.611736 0.30142,2.73955 0.93165,5.41586 1.68749,8.0513 0.84431,2.84297 2.00602,5.56061 3.26054,8.22581 1.45295,3.05396 3.31579,5.85381 5.27291,8.56904 2.24279,3.06337 4.80528,5.83806 7.43509,8.53233 2.84029,2.89124 5.86105,5.5721 8.95674,8.1547 3.18491,2.64004 6.49234,5.10847 9.85547,7.49041 3.48355,2.44951 7.10252,4.67415 10.74929,6.84239 3.83054,2.26504 7.74701,4.36295 11.65891,6.46729 4.05735,2.2275 8.20075,4.27162 12.37143,6.25255 4.31373,2.04338 8.67481,3.97407 13.04125,5.88939 4.6112,2.02234 9.27128,3.91742 13.9517,5.75514 4.9061,1.90841 9.84864,3.71152 14.78452,5.53278 4.89341,1.79141 9.77756,3.61018 14.65741,5.44184 4.77385,1.80451 9.53807,3.63702 14.3034,5.46608 4.56821,1.75255 9.1311,3.52018 13.70553,5.25476 4.47342,1.68619 8.9513,3.35939 13.43336,5.02018 4.23479,1.56556 8.47777,3.1066 12.72203,4.64359 3.92443,1.42214 7.85351,2.83012 11.78707,4.22418 3.74484,1.33638 7.49973,2.64163 11.25735,3.93779 3.66946,1.2722 7.34961,2.50989 11.03143,3.74201 3.49551,1.16467 6.99359,2.32082 10.49429,3.46821 3.46681,1.13932 6.9447,2.24102 10.42624,3.32959 3.32882,1.03786 6.66572,2.04687 9.99143,3.09571 2.85754,0.85701 5.65584,1.90561 8.43321,3.01056 2.00947,0.81621 3.95759,1.78152 5.82648,2.90515 1.27441,0.76901 2.43791,1.70622 3.4274,2.84602 0.68333,0.81349 1.06942,1.72273 0.9826,2.80744 -0.3093,1.12961 -1.18061,1.89441 -2.02789,2.59511 -1.88071,1.40044 -3.94271,2.49105 -6.07954,3.38318 -2.01101,0.81182 -4.11939,1.28611 -6.23079,1.70214 -2.57162,0.47403 -5.16957,0.75785 -7.7688,1.00002 -3.10641,0.27098 -6.22173,0.37004 -9.33782,0.35293 -3.96897,-0.0535 -7.9242,-0.43239 -11.87457,-0.80722 -4.61986,-0.46329 -9.24188,-0.90186 -13.86536,-1.32331 -4.79111,-0.4345 -9.58451,-0.84011 -14.37881,-1.23352 -4.81047,-0.40219 -9.62881,-0.68286 -14.44932,-0.91011 -4.68907,-0.23514 -9.38332,-0.22516 -14.07431,-0.0812 -4.5116,0.18034 -9.01517,0.5257 -13.51577,0.89334 -4.19353,0.34165 -8.38237,0.74213 -12.57093,1.14437 -3.88158,0.38505 -7.7632,0.7706 -11.64118,1.19415 -3.64631,0.39954 -7.27575,0.94413 -10.89955,1.52238 -3.50826,0.56431 -6.99595,1.25513 -10.47449,1.992 -3.46329,0.73898 -6.90863,1.56665 -10.3493,2.41292 -3.40811,0.83484 -6.79983,1.74037 -10.19288,2.63948 -3.28352,0.87307 -6.5722,1.72455 -9.86484,2.55894 -3.20127,0.81508 -6.41233,1.58647 -9.62919,2.33061 -3.23965,0.77362 -6.50936,1.39105 -9.78226,1.98552 -3.22144,0.57044 -6.45408,1.06815 -9.68656,1.56413 -3.09477,0.47231 -6.1913,0.93181 -9.28839,1.38703 -2.9051,0.42767 -5.81156,0.84505 -8.71821,1.26076 -2.72947,0.39151 -5.46029,0.7724 -8.19202,1.14605 -2.59215,0.35565 -5.18581,0.69897 -7.77948,1.04219 -2.43099,0.32165 -4.86281,0.63638 -7.29503,0.94763 -2.27914,0.29504 -4.56054,0.5705 -6.83937,0.86805 -2.1002,0.27138 -4.19511,0.58526 -6.28606,0.92577 -1.91498,0.31369 -3.81974,0.68771 -5.71567,1.10898 -1.75679,0.39521 -3.48131,0.92485 -5.19381,1.49095 -1.59636,0.53311 -3.16412,1.15377 -4.72369,1.79409 -1.43174,0.60621 -2.85749,1.22798 -4.27776,1.8632 -1.20115,0.53943 -2.38337,1.12305 -3.56129,1.71566 -0.99279,0.50049 -1.97504,1.02322 -2.95054,1.55969 -0.83625,0.45892 -1.66708,0.92856 -2.48735,1.41825 -1.17432,0.709 0.74161,-0.4508 1.11408,-0.67316 0.11554,-0.069 -0.22848,0.14267 -0.34232,0.21471 -0.31934,0.20207 -0.63366,0.41119 -0.94659,0.62397 -0.52544,0.35306 -1.02411,0.74594 -1.50834,1.15806 -0.38694,0.33157 -0.75454,0.68656 -1.11109,1.05341 -0.15248,0.15745 -0.29733,0.32255 -0.44143,0.48834 0,0 -1.98848,0.87847 -1.98848,0.87847 v 0 c 0.14155,-0.17111 0.28611,-0.33909 0.4366,-0.5017 0.355,-0.37254 0.71845,-0.736 1.10428,-1.07363 0.48256,-0.41828 0.97495,-0.82415 1.50113,-1.18131 1.25113,-0.86183 2.55211,-1.63769 3.85668,-2.40734 0.82256,-0.4853 1.65402,-0.95361 2.49078,-1.41139 0.97699,-0.53332 1.96015,-1.05408 2.95385,-1.55239 1.17879,-0.59071 2.36297,-1.16983 3.56529,-1.7063 1.42127,-0.63299 2.84686,-1.25561 4.28063,-1.85685 1.5622,-0.63658 3.13239,-1.25388 4.73176,-1.78122 1.71637,-0.56111 3.44501,-1.08424 5.20541,-1.47302 1.89811,-0.41661 3.80483,-0.78698 5.72141,-1.09823 2.09192,-0.33737 4.18753,-0.64963 6.28844,-0.9193 2.27873,-0.2953 4.55957,-0.57226 6.8384,-0.86675 2.43165,-0.31125 4.86291,-0.62589 7.29335,-0.94742 2.5931,-0.3429 5.18613,-0.68648 7.77769,-1.042 2.7311,-0.37383 5.46127,-0.7551 8.19018,-1.1462 2.90602,-0.4154 5.81177,-0.83281 8.71622,-1.26027 3.09639,-0.45519 6.19228,-0.91437 9.2863,-1.38705 3.23124,-0.49636 6.46264,-0.99475 9.68243,-1.56829 3.27124,-0.59613 6.53848,-1.21933 9.77655,-1.99372 3.21583,-0.74578 6.42585,-1.51873 9.62639,-2.33396 3.29176,-0.83514 6.5796,-1.68701 9.86247,-2.55993 3.39344,-0.89908 6.78606,-1.80245 10.19479,-2.63615 3.44193,-0.8446 6.88847,-1.67087 10.35319,-2.40723 3.48048,-0.73387 6.96998,-1.42206 10.48012,-1.983 3.62536,-0.57576 7.25644,-1.11675 10.90426,-1.51297 3.87785,-0.42124 7.75909,-0.80666 11.64048,-1.19014 4.18828,-0.4013 8.37691,-0.79995 12.57019,-1.14004 4.50196,-0.36528 9.00692,-0.70885 13.51993,-0.8831 4.69387,-0.13846 9.39083,-0.1428 14.08248,0.0952 4.82171,0.22984 9.64127,0.51308 14.45298,0.91636 4.79481,0.3938 9.58871,0.79989 14.38032,1.23473 4.62464,0.42177 9.24777,0.86101 13.86909,1.32135 3.94917,0.37143 7.90348,0.74401 11.87117,0.78621 3.11397,0.008 6.22715,-0.0955 9.33089,-0.37351 2.59633,-0.24709 5.19163,-0.53522 7.75906,-1.01991 2.10614,-0.42503 4.20853,-0.91128 6.20964,-1.7402 0.6763,-0.28821 0.98284,-0.4079 1.63858,-0.72958 0.24811,-0.12174 0.9523,-0.55888 0.73692,-0.38137 -2.31965,1.91148 -0.63488,0.16134 0.0225,-0.0451 0.83631,-0.66061 1.69396,-1.37917 2.09479,-2.42798 0.13892,-1.02502 -0.24738,-1.87325 -0.89149,-2.64062 -0.97828,-1.11937 -2.13029,-2.03517 -3.38667,-2.79008 -1.8618,-1.11324 -3.8018,-2.07005 -5.80159,-2.88018 -2.77268,-1.10212 -5.56682,-2.14582 -8.41913,-3.00154 -3.32527,-1.04806 -6.66128,-2.05795 -9.98922,-3.09668 -3.48194,-1.08977 -6.9603,-2.19234 -10.4277,-3.33214 -3.50053,-1.14805 -6.99868,-2.30415 -10.49384,-3.47014 -3.68169,-1.23314 -7.36162,-2.47219 -11.0312,-3.74457 -3.75767,-1.29696 -7.51277,-2.60244 -11.2576,-3.93978 -3.93298,-1.39514 -7.86147,-2.8041 -11.78535,-4.22719 -4.24369,-1.53805 -8.48609,-3.08012 -12.72031,-4.64669 -4.48187,-1.66188 -8.95972,-3.33558 -13.43314,-5.02232 -4.574,-1.73546 -9.13667,-3.50327 -13.7045,-5.25651 -4.76458,-1.82919 -9.52789,-3.66212 -14.30137,-5.4656 -4.87934,-1.8315 -9.76337,-3.64911 -14.65592,-5.44147 -4.93719,-1.82198 -9.88101,-3.62583 -14.78822,-5.53551 -4.68251,-1.83954 -9.34442,-3.73716 -13.9579,-5.76085 -4.36861,-1.91559 -8.73128,-3.848 -13.04633,-5.89368 -4.173,-1.98389 -8.31828,-4.03172 -12.37869,-6.26043 -3.91442,-2.10577 -7.83282,-4.20632 -11.66516,-6.47415 -3.65067,-2.1722 -7.2732,-4.40139 -10.75984,-6.85599 -3.36627,-2.38678 -6.67686,-4.85992 -9.86473,-7.50482 -3.09999,-2.58879 -6.12513,-5.27574 -8.9698,-8.17285 -2.63653,-2.70306 -5.20571,-5.48645 -7.45468,-8.55893 -1.96522,-2.72645 -3.83603,-5.53765 -5.29697,-8.60311 -1.26125,-2.67533 -2.42915,-5.40337 -3.28028,-8.25685 -0.7626,-2.64665 -1.39929,-5.33458 -1.70568,-8.08641 -0.31657,-2.86824 -0.5069,-5.752833 -0.43016,-8.642321 0.0987,-3.153939 0.29982,-6.302851 0.45588,-9.454039 0.17659,-3.362537 0.35966,-6.724756 0.51899,-10.088245 0.17135,-3.547956 0.34412,-7.095834 0.51404,-10.64387 0.16407,-3.539013 0.30967,-7.078929 0.42998,-10.619872 0.094,-3.446862 0.17273,-6.894237 0.21726,-10.342234 0.0443,-3.716023 0.0886,-7.432045 0.13437,-11.148047 0.0481,-3.87442 0.097,-7.748828 0.1475,-11.623214 0.0518,-3.941808 0.10467,-7.883604 0.16156,-11.825335 0.0574,-3.9565026 0.11637,-7.9129758 0.17798,-11.8694041 0.061,-3.89645 0.12402,-7.7928655 0.19499,-11.6891299 0.0702,-3.933492 0.14097,-7.866978 0.21537,-11.800388 0.0753,-3.944098 0.15291,-7.888152 0.2362,-11.832079 0.0809,-3.80496 0.16453,-7.609864 0.25917,-11.414482 0.0921,-3.721656 0.18651,-7.443248 0.28602,-11.164692 0.0973,-3.591308 0.1981,-7.182516 0.31364,-10.773237 0.11098,-3.506497 0.22309,-7.012964 0.34569,-10.51904 0.12169,-3.449992 0.24784,-6.899804 0.38051,-10.349351 0.13109,-3.393943 0.265,-6.787783 0.4176,-10.18075 0.14917,-3.32667 0.3008,-6.65322 0.46037,-9.97936 0.16006,-3.29667 0.32618,-6.59301 0.50426,-9.88867 0.1722,-3.21053 0.34139,-6.42121 0.50992,-9.63194 0.16993,-3.07366 0.34967,-6.14671 0.53521,-9.21938 0.18734,-3.08793 0.38147,-6.1754 0.56929,-9.2633 0.16232,-2.93489 0.31014,-5.87071 0.42994,-8.80788 0.10649,-2.57377 0.19624,-5.14818 0.25336,-7.72373 0.0611,-2.26001 0.12921,-4.51985 0.16923,-6.78042 0.0368,-1.98779 0.0565,-3.97588 0.0897,-5.96375 0.0285,-1.81313 0.0572,-3.62627 0.0919,-5.43929 0.03,-1.52372 0.0625,-3.04738 0.10129,-4.57088 0.0331,-1.31427 0.0677,-2.62851 0.11121,-3.94246 0.0347,-1.04712 0.071,-2.09422 0.11846,-3.1408 0.0256,-0.55025 0.0471,-1.10061 0.0721,-1.65087 0.0121,-0.25643 0.006,-0.51313 0.007,-0.76982 0,0 1.92383,-1.02847 1.92383,-1.02847 z"
       inkscape:connector-curvature="0" />
  </g>
</svg>
