<?xml version="1.0" encoding="UTF-8" standalone="no"?>
<!-- Created with Inkscape (http://www.inkscape.org/) -->

<svg
   xmlns:dc="http://purl.org/dc/elements/1.1/"
   xmlns:cc="http://creativecommons.org/ns#"
   xmlns:rdf="http://www.w3.org/1999/02/22-rdf-syntax-ns#"
   xmlns:svg="http://www.w3.org/2000/svg"
   xmlns="http://www.w3.org/2000/svg"
   xmlns:sodipodi="http://sodipodi.sourceforge.net/DTD/sodipodi-0.dtd"
   xmlns:inkscape="http://www.inkscape.org/namespaces/inkscape"
   width="500mm"
   height="500mm"
   viewBox="0 0 500 500"
   version="1.1"
   id="svg1992"
   inkscape:version="0.92.3 (2405546, 2018-03-11)"
   sodipodi:docname="c.svg">
  <defs
     id="defs1986" />
  <sodipodi:namedview
     id="base"
     pagecolor="#ffffff"
     bordercolor="#666666"
     borderopacity="1.0"
     inkscape:pageopacity="0.0"
     inkscape:pageshadow="2"
     inkscape:zoom="0.35"
     inkscape:cx="1042.8571"
     inkscape:cy="560"
     inkscape:document-units="mm"
     inkscape:current-layer="layer1"
     showgrid="false"
     inkscape:window-width="1477"
     inkscape:window-height="1438"
     inkscape:window-x="0"
     inkscape:window-y="0"
     inkscape:window-maximized="0" />
  <metadata
     id="metadata1989">
    <rdf:RDF>
      <cc:Work
         rdf:about="">
        <dc:format>image/svg+xml</dc:format>
        <dc:type
           rdf:resource="http://purl.org/dc/dcmitype/StillImage" />
        <dc:title></dc:title>
      </cc:Work>
    </rdf:RDF>
  </metadata>
  <g
     inkscape:label="Layer 1"
     inkscape:groupmode="layer"
     id="layer1"
     transform="translate(0,203)">
    <path
       style="opacity:1;fill:#090000;fill-opacity:1;stroke:none;stroke-width:0.28949991;stroke-linejoin:round;stroke-miterlimit:4;stroke-dasharray:none;stroke-dashoffset:0;stroke-opacity:1"
       id="path2537"
       d="m 49.389458,-199.20213 c -0.0011,0.80192 -0.0027,1.60385 -0.0038,2.40577 -0.0021,1.83493 -0.0034,3.66986 -0.0048,5.50478 -7.94e-4,2.72977 -0.02786,5.45947 -0.0487,8.18915 -0.02278,2.96548 -0.04444,5.93096 -0.06491,8.89645 -0.02236,3.26855 -0.04153,6.5371 -0.05995,9.80566 -0.01984,3.52064 -0.03778,7.04127 -0.05457,10.56192 -0.01723,3.67189 -0.03314,7.34377 -0.04864,11.01566 -0.0155,3.68368 -0.02983,7.36736 -0.04411,11.05105 -0.01487,3.81637 -0.0281,7.63274 -0.04104,11.44912 -0.01312,3.96161 -0.02516,7.92321 -0.03676,11.88483 -0.01206,4.06362 -0.02307,8.12725 -0.03382,12.190872 -0.01114,4.207553 -0.02088,8.415111 -0.03049,12.622667 -0.0095,4.258008 -0.01908,8.516017 -0.02788,12.774026 -0.009,4.359111 -0.01704,8.718221 -0.02508,13.077332 0.0021,4.536946 0.01908,9.073877 0.03322,13.610801 0.02313,4.560761 0.02836,9.121435 0.0043,13.682186 -0.0168,4.609367 -0.120457,9.217566 -0.232368,13.825579 -0.121192,4.821856 -0.297384,9.6422802 -0.472297,14.4626406 -0.16754,4.8101802 -0.376494,9.6189654 -0.579808,14.4279124 -0.208338,4.911019 -0.438311,9.821119 -0.689811,14.730373 -0.247483,4.762036 -0.49239,9.524184 -0.733182,14.286516 -0.233717,4.624863 -0.455853,9.250226 -0.671925,13.875811 -0.213193,4.581209 -0.414192,9.162913 -0.611026,13.744739 -0.193977,4.525823 -0.377965,9.051991 -0.555752,13.578359 -0.183221,4.662807 -0.346575,9.326285 -0.506325,13.989838 -0.160319,4.705588 -0.311986,9.411428 -0.459396,14.117348 -0.15884,4.77414 -0.256159,9.54967 -0.347618,14.32523 -0.08835,4.67935 -0.170534,9.35879 -0.250476,14.03826 -0.07657,4.64256 -0.159199,9.28507 -0.220392,13.92783 -0.06804,4.54832 -0.07608,9.09689 -0.04384,13.64545 0.04238,4.58951 0.144624,9.17831 0.266139,13.76652 0.119509,4.4852 0.261366,8.96977 0.407786,13.45425 0.1446,4.4249 0.284652,8.84995 0.42127,13.2751 0.133596,4.34534 0.260495,8.69086 0.384728,13.03645 0.120327,4.21944 0.23581,8.43901 0.350274,12.6586 0.108233,4.00987 0.213791,8.01978 0.318841,12.02969 0.09842,3.74436 0.194757,7.48875 0.290055,11.23316 0.08917,3.49742 0.176728,6.9949 0.26385,10.49239 0.07868,3.19275 0.158798,6.38544 0.240515,9.5781 0.06954,2.70844 0.143999,5.41678 0.219289,8.12508 0.06512,2.33577 0.131741,4.67151 0.198781,7.00723 0,0 -1.997818,0.95416 -1.997818,0.95416 v 0 c -0.06624,-2.33622 -0.131945,-4.67245 -0.196112,-7.00871 -0.07416,-2.70915 -0.146976,-5.41831 -0.215014,-8.1276 -0.08026,-3.19327 -0.159054,-6.38653 -0.237138,-9.57985 -0.08627,-3.4978 -0.173191,-6.99562 -0.261477,-10.4934 -0.09459,-3.74473 -0.19027,-7.48943 -0.287705,-11.23409 -0.104185,-4.01023 -0.208817,-8.02044 -0.316585,-12.03058 -0.113715,-4.21976 -0.228663,-8.43947 -0.348578,-12.65909 -0.123965,-4.34557 -0.250354,-8.69106 -0.383812,-13.03637 -0.136366,-4.42515 -0.275667,-8.8502 -0.420479,-13.27511 -0.146224,-4.48497 -0.288533,-8.97005 -0.407466,-13.45572 -0.121713,-4.58932 -0.223745,-9.17923 -0.267965,-13.76983 -0.03346,-4.54984 -0.02619,-9.09966 0.04257,-13.64924 0.06079,-4.64308 0.143833,-9.28586 0.220469,-13.92872 0.07978,-4.67976 0.16161,-9.35948 0.251294,-14.0391 0.09158,-4.7761 0.187605,-9.55225 0.345728,-14.32695 0.147169,-4.70615 0.299122,-9.41218 0.459362,-14.117961 0.159546,-4.663552 0.321736,-9.327058 0.504134,-13.989893 0.177366,-4.526637 0.361392,-9.053027 0.555567,-13.579071 0.197046,-4.582123 0.397983,-9.164121 0.611206,-13.745627 0.21586,-4.62593 0.438213,-9.251588 0.672129,-13.876757 0.24149,-4.762661 0.486793,-9.525155 0.735012,-14.287519 0.252127,-4.908708 0.483066,-9.818252 0.690605,-14.728785 0.202433,-4.8085737 0.41144,-9.6169519 0.579898,-14.4266982 0.175437,-4.8194834 0.351586,-9.6390528 0.472371,-14.4600588 0.111115,-4.60666 0.215485,-9.213479 0.232323,-13.821477 0.02437,-4.560435 0.02114,-9.120804 -0.0024,-13.681254 -0.01458,-4.536829 -0.03238,-9.07366 -0.0361,-13.610513 0.0079,-4.359062 0.01617,-8.718125 0.02469,-13.077186 0.0084,-4.257867 0.01677,-8.515736 0.02686,-12.773598 0.0096,-4.207455 0.0195,-8.414907 0.02971,-12.622358 0.01008,-4.063425 0.02074,-8.126854 0.03239,-12.190274 0.01161,-3.96153 0.02336,-7.92305 0.03606,-11.88457 0.01209,-3.8161 0.02492,-7.6322 0.03905,-11.44829 0.01384,-3.6837 0.02867,-7.36739 0.04398,-11.05108 0.01543,-3.67186 0.03119,-7.34372 0.04824,-11.01558 0.01617,-3.52029 0.03242,-7.04059 0.05198,-10.56088 0.01799,-3.26821 0.03607,-6.53641 0.05721,-9.8046 0.01923,-2.96528 0.04024,-5.93055 0.06313,-8.8958 0.0204,-2.72837 0.0466,-5.45679 0.04396,-8.18525 -0.0013,-1.8334 -0.0028,-3.66681 -0.0048,-5.50023 -0.0011,-0.80073 -0.0028,-1.60145 -0.0038,-2.40218 0,0 2.017014,-0.95704 2.017014,-0.95704 z"
       inkscape:connector-curvature="0" />
  </g>
</svg>
