<?xml version="1.0" encoding="UTF-8" standalone="no"?>
<!-- Created with Inkscape (http://www.inkscape.org/) -->

<svg
   xmlns:dc="http://purl.org/dc/elements/1.1/"
   xmlns:cc="http://creativecommons.org/ns#"
   xmlns:rdf="http://www.w3.org/1999/02/22-rdf-syntax-ns#"
   xmlns:svg="http://www.w3.org/2000/svg"
   xmlns="http://www.w3.org/2000/svg"
   xmlns:sodipodi="http://sodipodi.sourceforge.net/DTD/sodipodi-0.dtd"
   xmlns:inkscape="http://www.inkscape.org/namespaces/inkscape"
   width="500mm"
   height="500mm"
   viewBox="0 0 500 500"
   version="1.1"
   id="svg2582"
   inkscape:version="0.92.3 (2405546, 2018-03-11)"
   sodipodi:docname="d.svg">
  <defs
     id="defs2576" />
  <sodipodi:namedview
     id="base"
     pagecolor="#ffffff"
     bordercolor="#666666"
     borderopacity="1.0"
     inkscape:pageopacity="0.0"
     inkscape:pageshadow="2"
     inkscape:zoom="0.35"
     inkscape:cx="1042.8571"
     inkscape:cy="560"
     inkscape:document-units="mm"
     inkscape:current-layer="layer1"
     showgrid="false"
     inkscape:window-width="1477"
     inkscape:window-height="1438"
     inkscape:window-x="0"
     inkscape:window-y="0"
     inkscape:window-maximized="0" />
  <metadata
     id="metadata2579">
    <rdf:RDF>
      <cc:Work
         rdf:about="">
        <dc:format>image/svg+xml</dc:format>
        <dc:type
           rdf:resource="http://purl.org/dc/dcmitype/StillImage" />
        <dc:title></dc:title>
      </cc:Work>
    </rdf:RDF>
  </metadata>
  <g
     inkscape:label="Layer 1"
     inkscape:groupmode="layer"
     id="layer1"
     transform="translate(0,203)">
    <path
       style="opacity:1;fill:#090000;fill-opacity:1;stroke:none;stroke-width:0.28949994;stroke-linejoin:round;stroke-miterlimit:4;stroke-dasharray:none;stroke-dashoffset:0;stroke-opacity:1"
       id="path2537"
       d="m 251.62604,-200.38659 c -0.001,0.80192 -0.003,1.60385 -0.004,2.40577 -0.002,1.83493 -0.003,3.66986 -0.005,5.50478 -7.9e-4,2.72977 -0.0279,5.45947 -0.0487,8.18915 -0.0228,2.96548 -0.0444,5.93096 -0.0649,8.89645 -0.0224,3.26855 -0.0415,6.5371 -0.0599,9.80566 -0.0198,3.52064 -0.0378,7.04127 -0.0546,10.56192 -0.0172,3.67189 -0.0331,7.34377 -0.0486,11.01566 -0.0155,3.68368 -0.0298,7.36736 -0.0441,11.05105 -0.0149,3.81637 -0.0281,7.63274 -0.041,11.44912 -0.0131,3.96161 -0.0251,7.92321 -0.0368,11.88483 -0.0121,4.06362 -0.0231,8.12725 -0.0338,12.19087 -0.0111,4.20756 -0.0209,8.41512 -0.0305,12.62267 -0.01,4.25801 -0.0191,8.51602 -0.0279,12.77403 -0.009,4.35911 -0.017,8.71822 -0.0251,13.07733 0.002,4.53695 0.0191,9.07388 0.0332,13.6108 0.0231,4.56076 0.0284,9.12144 0.004,13.68219 -0.0168,4.60937 -0.12045,9.21757 -0.23236,13.82558 -0.1212,4.82185 -0.29739,9.64228 -0.4723,14.46264 -0.16754,4.81018 -0.37649,9.61896 -0.57981,14.42791 -0.20834,4.91102 -0.43831,9.82112 -0.68981,14.73037 -0.24748,4.76204 -0.49239,9.52419 -0.73318,14.28652 -0.23372,4.62486 -0.45585,9.25023 -0.67193,13.87581 -0.21319,4.58121 -0.41419,9.16292 -0.61102,13.74475 -0.19398,4.52581 -0.37797,9.05198 -0.55575,13.57834 -0.18323,4.6628 -0.34658,9.3263 -0.50633,13.98984 -0.16032,4.70559 -0.31199,9.41144 -0.4594,14.11735 -0.15884,4.77414 -0.25615,9.54968 -0.34761,14.32523 -0.0883,4.67936 -0.17054,9.35879 -0.25048,14.03826 -0.0766,4.64256 -0.1592,9.28508 -0.22039,13.92782 -0.068,4.54832 -0.0761,9.09691 -0.0438,13.64547 0.0424,4.58951 0.14462,9.17831 0.26614,13.76651 0.11951,4.48521 0.26136,8.96977 0.40778,13.45424 0.1446,4.42492 0.28466,8.84997 0.42127,13.2751 0.1336,4.34536 0.2605,8.69088 0.38473,13.03647 0.12033,4.21945 0.23581,8.43899 0.35028,12.6586 0.10823,4.00986 0.21379,8.01978 0.31884,12.02967 0.0984,3.74439 0.19475,7.48877 0.29005,11.23318 0.0892,3.49742 0.17673,6.9949 0.26385,10.4924 0.0787,3.19272 0.1588,6.38542 0.24052,9.5781 0.0695,2.70843 0.144,5.41676 0.21929,8.12506 0.0651,2.33577 0.13174,4.67151 0.19878,7.00723 0,0 -1.99782,0.95416 -1.99782,0.95416 v 0 c -0.0662,-2.33622 -0.13195,-4.67243 -0.19611,-7.0087 -0.0742,-2.70915 -0.14698,-5.41833 -0.21502,-8.12761 -0.0803,-3.19325 -0.15905,-6.38654 -0.23714,-9.57985 -0.0863,-3.49779 -0.17319,-6.99561 -0.26147,-10.4934 -0.0946,-3.74472 -0.19027,-7.48942 -0.28771,-11.23407 -0.10418,-4.01024 -0.20882,-8.02045 -0.31658,-12.03061 -0.11372,-4.21976 -0.22867,-8.43946 -0.34858,-12.65907 -0.12397,-4.34557 -0.25036,-8.69106 -0.38381,-13.03639 -0.13637,-4.42513 -0.27567,-8.85018 -0.42048,-13.2751 -0.14623,-4.48497 -0.28854,-8.97006 -0.40747,-13.45572 -0.12171,-4.58931 -0.22374,-9.17922 -0.26796,-13.76982 -0.0335,-4.54986 -0.0262,-9.09966 0.0426,-13.64925 0.0608,-4.64306 0.14383,-9.28587 0.22047,-13.92872 0.0798,-4.67977 0.16161,-9.35948 0.25129,-14.03908 0.0916,-4.7761 0.1876,-9.55226 0.34573,-14.32695 0.14717,-4.70617 0.29912,-9.41218 0.45936,-14.11798 0.15955,-4.66355 0.32174,-9.32704 0.50413,-13.9899 0.17737,-4.52662 0.3614,-9.05301 0.55557,-13.57905 0.19705,-4.58213 0.39798,-9.16413 0.61121,-13.74564 0.21586,-4.62593 0.43821,-9.25158 0.67213,-13.87675 0.24149,-4.76266 0.48679,-9.52516 0.73501,-14.28752 0.25213,-4.90871 0.48306,-9.81825 0.6906,-14.72879 0.20244,-4.80857 0.41144,-9.61695 0.5799,-14.4267 0.17544,-4.81948 0.35159,-9.63905 0.47237,-14.46005 0.11112,-4.60667 0.21549,-9.21348 0.23233,-13.82148 0.0244,-4.56044 0.0211,-9.12081 -0.002,-13.68126 -0.0146,-4.53682 -0.0324,-9.07366 -0.0361,-13.61051 0.008,-4.35906 0.0162,-8.71813 0.0247,-13.07719 0.008,-4.25786 0.0168,-8.51573 0.0269,-12.77359 0.01,-4.20746 0.0195,-8.41491 0.0297,-12.62236 0.0101,-4.06343 0.0207,-8.12686 0.0324,-12.19028 0.0116,-3.96153 0.0234,-7.92305 0.0361,-11.88457 0.0121,-3.8161 0.0249,-7.6322 0.0391,-11.44829 0.0138,-3.6837 0.0287,-7.36739 0.044,-11.05108 0.0154,-3.67186 0.0312,-7.34372 0.0482,-11.01558 0.0162,-3.52029 0.0324,-7.04059 0.052,-10.56088 0.018,-3.26821 0.0361,-6.53641 0.0572,-9.8046 0.0192,-2.96528 0.0402,-5.93055 0.0631,-8.8958 0.0204,-2.72837 0.0466,-5.45679 0.044,-8.18525 -0.001,-1.8334 -0.003,-3.66681 -0.005,-5.50023 -0.001,-0.80073 -0.003,-1.60145 -0.004,-2.40218 0,0 2.01701,-0.95704 2.01701,-0.95704 z"
       inkscape:connector-curvature="0" />
  </g>
</svg>
