<?xml version="1.0" encoding="UTF-8" standalone="no"?>
<!-- Created with Inkscape (http://www.inkscape.org/) -->

<svg
   xmlns:dc="http://purl.org/dc/elements/1.1/"
   xmlns:cc="http://creativecommons.org/ns#"
   xmlns:rdf="http://www.w3.org/1999/02/22-rdf-syntax-ns#"
   xmlns:svg="http://www.w3.org/2000/svg"
   xmlns="http://www.w3.org/2000/svg"
   xmlns:sodipodi="http://sodipodi.sourceforge.net/DTD/sodipodi-0.dtd"
   xmlns:inkscape="http://www.inkscape.org/namespaces/inkscape"
   width="500mm"
   height="500mm"
   viewBox="0 0 500 500"
   version="1.1"
   id="svg3158"
   inkscape:version="0.92.3 (2405546, 2018-03-11)"
   sodipodi:docname="e.svg">
  <defs
     id="defs3152" />
  <sodipodi:namedview
     id="base"
     pagecolor="#ffffff"
     bordercolor="#666666"
     borderopacity="1.0"
     inkscape:pageopacity="0.0"
     inkscape:pageshadow="2"
     inkscape:zoom="0.35"
     inkscape:cx="814.28571"
     inkscape:cy="674.28571"
     inkscape:document-units="mm"
     inkscape:current-layer="layer1"
     showgrid="false"
     inkscape:window-width="1477"
     inkscape:window-height="1438"
     inkscape:window-x="0"
     inkscape:window-y="0"
     inkscape:window-maximized="0" />
  <metadata
     id="metadata3155">
    <rdf:RDF>
      <cc:Work
         rdf:about="">
        <dc:format>image/svg+xml</dc:format>
        <dc:type
           rdf:resource="http://purl.org/dc/dcmitype/StillImage" />
        <dc:title></dc:title>
      </cc:Work>
    </rdf:RDF>
  </metadata>
  <g
     inkscape:label="Layer 1"
     inkscape:groupmode="layer"
     id="layer1"
     transform="translate(0,203)">
    <path
       style="opacity:1;fill:#090000;fill-opacity:1;stroke:none;stroke-width:0.30000001;stroke-linejoin:round;stroke-miterlimit:4;stroke-dasharray:none;stroke-dashoffset:0;stroke-opacity:1"
       id="path3703"
       d="m 234.04186,-198.18418 c -0.80359,0.29593 -2.50369,1.3646 0.7827,-0.51989 -0.69132,0.43887 -1.32294,0.96309 -1.93908,1.50019 -0.87372,0.77328 -1.67778,1.61945 -2.47469,2.47022 -0.89944,0.96368 -1.77431,1.9498 -2.6522,2.93301 -0.82439,0.89968 -1.63923,1.8044 -2.35008,2.79741 -0.55759,0.80504 -0.95215,1.69955 -1.27882,2.6181 -0.28969,0.84234 -0.47719,1.71334 -0.60003,2.59417 -0.12167,1.12139 0.0318,2.24401 0.19715,3.35212 0.23017,1.38672 0.50043,2.76638 0.79631,4.14046 0.30132,1.35819 0.58869,2.7196 0.95689,4.06155 0.39267,1.35744 0.94556,2.65931 1.53305,3.94178 0.58489,1.25393 1.2472,2.46933 1.91694,3.67935 0.6651,1.15542 1.31525,2.3189 1.93756,3.49792 0.63361,1.17718 1.10571,2.42561 1.52182,3.69274 0.42362,1.32425 0.58606,2.70375 0.69343,4.08344 0.1022,1.58716 0.0109,3.1775 -0.13839,4.75818 -0.18114,1.79982 -0.56427,3.56925 -0.98872,5.32478 -0.46557,1.88167 -1.02497,3.73843 -1.61561,5.58409 -0.60369,1.9146 -1.30354,3.79646 -2.02691,5.66844 -0.76325,1.92427 -1.55664,3.83667 -2.37043,5.74008 -0.79213,1.83725 -1.60382,3.66597 -2.4017,5.50073 -0.78774,1.83416 -1.56218,3.67396 -2.33241,5.51552 -0.81382,1.94651 -1.63695,3.8891 -2.45297,5.83468 -0.83048,1.96704 -1.6705,3.93002 -2.50041,5.89731 -0.81402,1.92153 -1.63152,3.841075 -2.23337,5.840999 -0.577,2.122607 -0.57363,4.322197 -0.47501,6.500887 0.12248,2.156584 0.51278,4.28262 0.95533,6.392622 0.41123,1.992161 1.02778,3.929906 1.71995,5.839679 0.63486,1.786197 1.49415,3.473286 2.4474,5.107152 0.90283,1.479968 1.90633,2.895528 2.93864,4.287178 1.01399,1.392158 2.20346,2.635652 3.43245,3.836504 1.30465,1.241499 2.63199,2.458849 3.96189,3.673149 1.37011,1.271476 2.78226,2.495785 4.1982,3.715562 1.42262,1.225518 2.90337,2.380451 4.40654,3.504825 1.43987,1.109757 3.00984,2.012809 4.64727,2.79264 1.52746,0.685903 3.10582,1.250195 4.69268,1.780934 1.51746,0.455234 3.00901,0.976894 4.47207,1.584237 1.43632,0.584679 2.79212,1.335874 4.10237,2.160337 1.31859,0.840575 2.5301,1.830173 3.69487,2.869596 1.19222,1.070182 2.08279,2.396493 2.878,3.77362 0.79714,1.473388 1.40546,3.036985 1.95309,4.616945 0.54959,1.587568 0.89143,3.226705 1.05783,4.895596 0.14875,1.678275 -0.0527,3.348582 -0.32824,5.001447 -0.27593,1.614398 -0.73129,3.186184 -1.2818,4.72602 -0.56776,1.553527 -1.41554,2.969331 -2.35371,4.322535 -1.02982,1.455734 -2.21453,2.790539 -3.41001,4.110127 -1.24568,1.3629 -2.51592,2.7030229 -3.76825,4.0597586 -1.35735,1.4619684 -2.6029,3.0207452 -3.8222,4.5979529 -1.24966,1.6248195 -2.44112,3.2927713 -3.60168,4.9819956 -1.15838,1.6981011 -2.238,3.4478648 -3.28035,5.2189724 -1.09332,1.8501598 -2.05466,3.7721725 -2.98416,5.7083115 -0.9449,1.980811 -1.80689,3.99942 -2.63503,6.03133 -0.83608,2.014972 -1.45236,4.107146 -1.99834,6.21596 -0.53249,2.122151 -0.9569,4.268922 -1.32145,6.425628 -0.35822,2.200545 -0.55807,4.421317 -0.61841,6.648939 -0.0283,2.298616 0.47541,4.544761 1.03833,6.758268 0.60386,2.2606 1.31965,4.488916 2.05631,6.709069 0.84682,2.52672 1.75251,5.033042 2.66435,7.536841 0.97921,2.665357 1.95178,5.333016 2.89311,8.012028 0.97396,2.781856 1.85909,5.593239 2.72324,8.410734 0.8688,2.8371 1.69727,5.686425 2.45273,8.555831 0.75379,2.877396 1.21827,5.815039 1.55356,8.766915 0.31244,3.084936 0.26094,6.189901 0.14649,9.283545 -0.12604,3.11806 -0.38403,6.22794 -0.68312,9.33344 -0.30003,3.04765 -0.72275,6.08086 -1.20412,9.10458 -0.48921,3.0163 -1.08504,6.01371 -1.72105,9.00202 -0.63089,2.95984 -1.30823,5.90944 -2.003,8.85486 -0.70109,2.97392 -1.46888,5.93135 -2.26031,8.8823 -0.78767,2.93661 -1.62917,5.85822 -2.49827,8.77163 -0.85796,2.81932 -1.72836,5.63494 -2.62417,8.44248 -0.87224,2.69521 -1.71871,5.39843 -2.54037,8.10945 -0.8221,2.70563 -1.58714,5.42783 -2.32048,8.15867 -0.74959,2.83295 -1.44149,5.68079 -2.10454,8.53509 -0.65394,2.80379 -1.19491,5.63115 -1.68389,8.46775 -0.46651,2.69491 -0.81594,5.40684 -1.07073,8.12935 -0.24384,2.56945 -0.26162,5.15003 -0.19402,7.7276 0.0748,2.4165 0.32502,4.82172 0.66729,7.21347 0.329,2.24171 0.89126,4.43659 1.52983,6.60718 0.62256,2.05827 1.43604,4.04934 2.31595,6.00884 0.84708,1.89011 1.87224,3.68766 3.03529,5.39904 1.11168,1.61438 2.44934,3.04358 3.87025,4.38573 1.35163,1.25555 2.8525,2.32799 4.40652,3.31528 1.49077,0.94073 3.0873,1.69133 4.69008,2.41718 1.5407,0.69284 3.10833,1.32083 4.69255,1.90622 1.60056,0.57052 3.22577,1.06812 4.85004,1.56586 1.58968,0.48969 3.18643,0.95578 4.78633,1.41078 1.58679,0.43172 3.14015,0.97145 4.66697,1.57986 1.48516,0.59264 2.90949,1.32088 4.30096,2.10534 1.32496,0.74091 2.56437,1.61697 3.76198,2.54635 1.036,0.80904 2.00184,1.6995 2.91777,2.64083 0.78161,0.80129 1.44286,1.70262 2.05341,2.63739 0.53059,0.83376 0.97864,1.71329 1.37546,2.61716 0.35894,0.81499 0.59955,1.67243 0.77994,2.54238 0.14989,0.80626 0.17854,1.62647 0.16746,2.4443 -0.003,0.75824 -0.11568,1.50849 -0.25022,2.25269 -0.1215,0.72522 -0.32139,1.43213 -0.538,2.13357 -0.21556,0.70281 -0.50113,1.3806 -0.79889,2.05171 -0.28683,0.63979 -0.6146,1.25955 -0.95662,1.87121 -0.3387,0.59045 -0.69686,1.16909 -1.06654,1.74057 -0.38124,0.5842 -0.77444,1.16027 -1.19078,1.72 -0.41958,0.5601 -0.86434,1.1004 -1.31953,1.63171 -0.46824,0.54877 -0.9661,1.07061 -1.47709,1.5794 -0.51486,0.5016 -1.04511,0.98732 -1.58306,1.46397 -0.54829,0.48154 -1.10598,0.952 -1.66798,1.4174 -0.37249,0.30887 -0.75777,0.60174 -1.14166,0.8962 0,0 -2.09999,0.83769 -2.09999,0.83769 v 0 c 0.3834,-0.29374 0.76996,-0.58359 1.14466,-0.88847 0.5623,-0.46397 1.12192,-0.93099 1.67056,-1.41113 0.54099,-0.47085 1.06836,-0.95728 1.5881,-1.45145 0.51224,-0.50413 1.01558,-1.0174 1.48389,-1.56321 0.45829,-0.52543 0.90337,-1.06246 1.32528,-1.61769 0.42166,-0.55239 0.81478,-1.12493 1.1971,-1.70518 0.36859,-0.5691 0.7316,-1.14126 1.0722,-1.72779 0.34332,-0.60605 0.67559,-1.21845 0.96549,-1.85229 0.29885,-0.66381 0.59052,-1.33244 0.81042,-2.02742 0.21709,-0.69398 0.42818,-1.39092 0.54943,-2.1095 0.13947,-0.73245 0.25951,-1.47185 0.26739,-2.21938 0.0177,-0.80266 -0.005,-1.60784 -0.14417,-2.40056 -0.17211,-0.85588 -0.40447,-1.69955 -0.75602,-2.50103 -0.39034,-0.89315 -0.83211,-1.76183 -1.35604,-2.58514 -0.60275,-0.92255 -1.25659,-1.8112 -2.02946,-2.60069 -0.91038,-0.93239 -1.87032,-1.81414 -2.89947,-2.6152 -1.1916,-0.92035 -2.42511,-1.7867 -3.74298,-2.51915 -1.38639,-0.77573 -2.80495,-1.49569 -4.2839,-2.08031 -1.52354,-0.60045 -3.07294,-1.13226 -4.65414,-1.56139 -1.60062,-0.45646 -3.19805,-0.92408 -4.78854,-1.4148 -1.6272,-0.49993 -3.25548,-0.99952 -4.85746,-1.57642 -1.58705,-0.59004 -3.15738,-1.22309 -4.70095,-1.91989 -1.6098,-0.73274 -3.21147,-1.49371 -4.70699,-2.4442 -1.56163,-0.99991 -3.07028,-2.08412 -4.42849,-3.35203 -1.42947,-1.35612 -2.77476,-2.79995 -3.89427,-4.42804 -1.16916,-1.72294 -2.20123,-3.53163 -3.05423,-5.43335 -0.88458,-1.9685 -1.70251,-3.96864 -2.32994,-6.03597 -0.64316,-2.18019 -1.21019,-4.38467 -1.54391,-6.63628 -0.34619,-2.3995 -0.59978,-4.81263 -0.67789,-7.23725 -0.0713,-2.58556 -0.0578,-5.17435 0.18326,-7.75221 0.25145,-2.72796 0.59837,-5.44531 1.06424,-8.14557 0.48734,-2.84057 1.02633,-5.67206 1.67926,-8.47984 0.66153,-2.85655 1.35363,-5.70619 2.10065,-8.54168 0.73172,-2.73307 1.4951,-5.45748 2.31696,-8.16496 0.82075,-2.71232 1.66595,-5.41697 2.5395,-8.11279 0.89758,-2.80617 1.76731,-5.62118 2.62703,-8.43912 0.87044,-2.9115 1.71322,-5.83123 2.5014,-8.7662 0.79243,-2.94884 1.56122,-5.90418 2.26312,-8.87608 0.69542,-2.94394 1.37315,-5.89217 2.00511,-8.8505 0.63771,-2.98482 1.23494,-5.97882 1.72629,-8.99168 0.48363,-3.01948 0.90807,-6.04861 1.21044,-9.09222 0.3009,-3.10166 0.5613,-6.20763 0.68957,-9.32196 0.11771,-3.083217 0.17295,-6.177731 -0.13259,-9.25293 -0.33004,-2.942114 -0.78955,-5.870152 -1.53846,-8.738235 -0.75313,-2.866998 -1.58086,-5.713465 -2.44825,-8.547973 -0.86284,-2.814743 -1.74689,-5.623295 -2.71969,-8.402373 -0.94086,-2.678192 -1.91325,-5.34498 -2.89283,-8.00922 -0.91326,-2.505374 -1.82039,-5.013243 -2.66974,-7.541181 -0.7404,-2.224307 -1.45908,-4.457022 -2.06548,-6.722253 -0.57077,-2.231223 -1.08292,-4.495387 -1.0673,-6.812811 0.0524,-2.236809 0.2499,-4.466707 0.6036,-6.676993 0.36078,-2.162583 0.78447,-4.314669 1.31324,-6.443028 0.54206,-2.11723 1.15134,-4.219276 1.98513,-6.243076 0.82612,-2.036115 1.68736,-4.058447 2.6298,-6.043869 0.92746,-1.941018 1.88422,-3.8693623 2.97524,-5.7250069 1.03928,-1.7762458 2.11818,-3.5298353 3.2737,-5.2333101 1.15837,-1.69342325 2.34878,-3.364812 3.59688,-4.9936135 1.21681,-1.5821818 2.45847,-3.147388 3.81284,-4.6153995 1.24966,-1.3586989 2.52132,-2.6969826 3.76839,-4.0581 1.19588,-1.312751 2.3832,-2.638827 3.4201,-4.083431 0.94359,-1.334547 1.80011,-2.730878 2.37739,-4.268012 0.55803,-1.526558 1.01829,-3.086489 1.29969,-4.689837 0.28087,-1.634456 0.49307,-3.286416 0.35507,-4.948357 -0.1549,-1.653222 -0.49072,-3.276245 -1.0326,-4.848683 -0.54085,-1.567227 -1.14275,-3.118072 -1.93233,-4.57932 -0.78373,-1.356604 -1.66256,-2.661775 -2.84174,-3.711448 -1.15809,-1.02914 -2.36277,-2.008341 -3.67456,-2.837646 -1.3044,-0.813086 -2.65363,-1.552662 -4.08151,-2.12875 -1.46141,-0.599977 -2.95204,-1.111189 -4.46304,-1.572022 -1.59226,-0.537575 -3.17699,-1.10644 -4.70709,-1.804588 -1.64493,-0.793843 -3.22099,-1.712153 -4.67018,-2.83028 -1.50583,-1.128887 -2.98933,-2.288151 -4.4147,-3.517894 -1.4172,-1.22155 -2.83013,-2.448171 -4.20207,-3.720759 -1.33187,-1.215927 -2.66093,-2.435204 -3.96646,-3.679457 -1.23583,-1.210638 -2.43115,-2.464689 -3.45147,-3.866682 -1.0364,-1.398831 -2.04389,-2.82162 -2.95011,-4.309149 -0.95947,-1.645815 -1.82515,-3.344826 -2.46587,-5.143209 -0.697,-1.91905 -1.3189,-3.866071 -1.73418,-5.868001 -0.44664,-2.12081 -0.84171,-4.257455 -0.97122,-6.424988 -0.10639,-2.199272 -0.11903,-4.420018 0.44099,-6.568038 0.58719,-2.010965 1.40494,-3.936657 2.22246,-5.863437 0.82986,-1.96735 1.66936,-3.93059 2.50117,-5.89711 0.81526,-1.94555 1.63821,-3.88787 2.45203,-5.83402 0.77006,-1.8422 1.54397,-3.68278 2.33041,-5.51806 0.7972,-1.83501 1.6092,-3.66354 2.40296,-5.50004 0.81642,-1.90037 1.60701,-3.81204 2.37394,-5.73293 0.72484,-1.86776 1.42656,-3.74542 2.03155,-5.65603 0.59317,-1.84042 1.1529,-3.69271 1.62193,-5.56911 0.4271,-1.74561 0.81399,-3.50503 1.00112,-5.2951 0.15367,-1.56851 0.2485,-3.14681 0.15394,-4.72262 -0.10172,-1.3627 -0.25453,-2.72598 -0.66903,-4.03499 -0.41036,-1.25579 -0.87465,-2.49371 -1.50289,-3.65965 -0.62156,-1.17774 -1.27117,-2.33982 -1.93525,-3.49411 -0.67224,-1.21513 -1.33704,-2.43562 -1.92477,-3.69451 -0.59307,-1.29305 -1.15135,-2.6055 -1.55105,-3.97327 -0.37225,-1.3452 -0.66013,-2.71072 -0.96252,-4.07294 -0.29819,-1.37809 -0.56911,-2.76203 -0.80371,-4.15245 -0.17283,-1.12595 -0.33329,-2.26569 -0.22976,-3.40701 0.11296,-0.89441 0.29685,-1.77853 0.5804,-2.6356 0.3189,-0.93595 0.70521,-1.84893 1.25443,-2.67628 0.70004,-1.00742 1.50773,-1.92349 2.34172,-2.82209 0.87929,-0.98274 1.75171,-1.97181 2.65001,-2.93735 0.79513,-0.85502 1.59621,-1.70641 2.46358,-2.48944 0.61227,-0.54561 1.24126,-1.0747 1.92158,-1.53458 0.9107,-0.53127 2.01692,-1.36387 3.12962,-1.66786 0,0 -1.8027,1.37095 -1.8027,1.37095 z"
       inkscape:connector-curvature="0" />
  </g>
</svg>
