<?xml version="1.0" encoding="UTF-8" standalone="no"?>
<!-- Created with Inkscape (http://www.inkscape.org/) -->

<svg
   xmlns:dc="http://purl.org/dc/elements/1.1/"
   xmlns:cc="http://creativecommons.org/ns#"
   xmlns:rdf="http://www.w3.org/1999/02/22-rdf-syntax-ns#"
   xmlns:svg="http://www.w3.org/2000/svg"
   xmlns="http://www.w3.org/2000/svg"
   xmlns:sodipodi="http://sodipodi.sourceforge.net/DTD/sodipodi-0.dtd"
   xmlns:inkscape="http://www.inkscape.org/namespaces/inkscape"
   width="500mm"
   height="500mm"
   viewBox="0 0 500 500"
   version="1.1"
   id="svg3730"
   inkscape:version="0.92.3 (2405546, 2018-03-11)"
   sodipodi:docname="f.svg">
  <defs
     id="defs3724" />
  <sodipodi:namedview
     id="base"
     pagecolor="#ffffff"
     bordercolor="#666666"
     borderopacity="1.0"
     inkscape:pageopacity="0.0"
     inkscape:pageshadow="2"
     inkscape:zoom="0.35"
     inkscape:cx="928.57143"
     inkscape:cy="560"
     inkscape:document-units="mm"
     inkscape:current-layer="layer1"
     showgrid="false"
     inkscape:window-width="1631"
     inkscape:window-height="1438"
     inkscape:window-x="0"
     inkscape:window-y="0"
     inkscape:window-maximized="0" />
  <metadata
     id="metadata3727">
    <rdf:RDF>
      <cc:Work
         rdf:about="">
        <dc:format>image/svg+xml</dc:format>
        <dc:type
           rdf:resource="http://purl.org/dc/dcmitype/StillImage" />
        <dc:title></dc:title>
      </cc:Work>
    </rdf:RDF>
  </metadata>
  <g
     inkscape:label="Layer 1"
     inkscape:groupmode="layer"
     id="layer1"
     transform="translate(0,203)">
    <path
       style="opacity:1;fill:#090000;fill-opacity:1;stroke:none;stroke-width:0.30000001;stroke-linejoin:round;stroke-miterlimit:4;stroke-dasharray:none;stroke-dashoffset:0;stroke-opacity:1"
       id="path4275"
       d="m 214.97736,-194.83678 c 0.46929,0.70821 1.02858,1.34821 1.60286,1.97183 1.07547,1.17507 2.25831,2.23962 3.46805,3.27286 1.85879,1.55601 3.86853,2.91685 5.85498,4.30159 2.77945,1.91392 5.50519,3.90388 8.2061,5.92664 3.56695,2.66938 7.15272,5.3131 10.70874,7.9971 4.35056,3.25977 8.5059,6.76711 12.68425,10.24167 2.59504,2.33477 5.52797,4.3261 7.90122,6.90429 1.40404,1.52525 1.75552,2.18436 2.901,3.88602 2.3485,3.7555 3.9411,7.85938 5.05439,12.12713 0.96869,3.78263 1.21944,7.66017 1.04283,11.54514 -0.27252,3.70863 -1.41618,7.23391 -2.78942,10.66105 -1.64021,3.89772 -3.85681,7.50388 -6.15149,11.04155 -2.64436,3.98804 -5.53339,7.804963 -8.45967,11.588214 -3.04049,3.888385 -6.13656,7.732781 -9.19497,11.607032 -3.26628,4.170169 -6.45839,8.397595 -9.67629,12.605028 -3.061,4.009445 -6.10785,8.029633 -9.17546,12.034038 -2.79784,3.626416 -5.59177,7.255838 -8.35998,10.90494 -2.6931,3.510327 -5.28629,7.095275 -7.81781,10.723329 -2.57435,3.711652 -5.07938,7.470608 -7.56904,11.239373 -2.14917,3.234854 -4.35451,6.429526 -6.13024,9.888937 -1.28314,2.521929 -1.926,5.1918922 -1.86548,8.0094295 0.17603,2.7451473 1.4272,5.0921258 2.95572,7.30855091 2.32628,2.97418119 5.10723,5.55418879 7.83982,8.14675089 2.92218,2.7407107 5.85109,5.4742317 8.7766,8.2113997 3.48798,3.282225 7.11895,6.406925 10.7125,9.571754 3.58045,3.150767 7.16442,6.296371 10.6836,9.51561 4.15722,3.895074 8.35452,7.74664 12.58095,11.566384 4.21896,3.8056 8.44256,7.605948 12.66883,11.40342 3.93023,3.465132 7.71579,7.085928 11.4562,10.753423 3.2511,3.180848 6.41996,6.443848 9.29312,9.97212 2.49023,3.143276 3.74809,6.208183 4.25725,10.157486 0.27993,4.32779 -1.0424,8.451823 -2.57752,12.433481 -2.06287,4.94758 -5.19977,9.31217 -8.36869,13.59517 -3.74499,4.91958 -7.67463,9.69454 -11.58351,14.48374 -3.92279,4.82235 -7.84349,9.64636 -11.78218,14.45575 -3.57195,4.35761 -7.15544,8.70569 -10.73709,13.05531 -3.2083,3.8794 -6.37583,7.79235 -9.53326,11.71323 -3.16468,3.95171 -6.25479,7.96227 -9.32047,11.991 -2.99972,3.93528 -5.91176,7.93557 -8.82889,11.93205 -2.69634,3.71059 -5.37313,7.43526 -8.07998,11.13824 -2.29535,3.15595 -4.61059,6.29849 -6.82849,9.50965 -1.6596,2.37498 -2.80079,5.01949 -3.71378,7.7528 -0.66882,2.07941 -1.06907,4.22497 -1.20978,6.40188 -0.0632,2.18104 0.70264,4.1909 1.611,6.13114 1.13655,2.21877 2.57625,4.26191 4.01445,6.29161 1.47719,2.08814 3.01294,4.13115 4.6475,6.09846 2.08162,2.4416 4.45708,4.60391 6.83315,6.75103 2.40394,2.10769 4.83133,4.18888 7.27246,6.2534 2.12573,1.80255 4.27207,3.58065 6.43881,5.33365 1.88681,1.49495 3.76815,2.9967 5.65817,4.48757 1.66827,1.29157 3.34321,2.57443 5.01132,3.8662 1.53014,1.18563 3.06632,2.36323 4.58266,3.56656 1.40845,1.10913 2.80208,2.23694 4.21616,3.33893 1.27084,0.98798 2.55503,1.95893 3.81459,2.9613 1.14603,0.92271 2.28935,1.84859 3.41794,2.79257 1.01021,0.87228 1.99882,1.7699 2.97487,2.68018 0.59489,0.57277 1.17345,1.16213 1.75337,1.74992 0,0 -1.92463,1.17764 -1.92463,1.17764 v 0 c -0.57769,-0.5856 -1.15409,-1.17274 -1.7479,-1.74212 -0.97406,-0.90657 -1.95826,-1.80314 -2.96731,-2.67066 -1.1273,-0.94265 -2.26945,-1.86705 -3.41427,-2.78831 -1.25977,-1.00065 -2.54185,-1.97286 -3.81171,-2.96066 -1.41321,-1.10376 -2.80761,-2.23128 -4.21595,-3.34121 -1.51614,-1.20203 -3.05112,-2.37963 -4.58025,-3.56502 -1.66795,-1.29252 -3.34335,-2.5754 -5.01025,-3.86929 -1.88953,-1.49236 -3.77129,-2.99448 -5.65708,-4.49154 -2.16606,-1.75562 -4.31203,-3.53587 -6.43791,-5.33996 -2.44122,-2.06753 -4.86979,-4.15044 -7.27373,-6.26123 -2.38334,-2.15506 -4.76513,-4.32628 -6.85438,-6.7754 -1.63929,-1.97098 -3.17886,-4.01844 -4.65855,-6.112 -1.44527,-2.04103 -2.8912,-4.09586 -4.03585,-6.32532 -0.92654,-1.97061 -1.70884,-4.01309 -1.66639,-6.22892 0.12758,-2.19459 0.52328,-4.35798 1.18832,-6.45616 0.90759,-2.75195 2.03592,-5.42028 3.69681,-7.81476 2.21503,-3.21696 4.53635,-6.35915 6.83269,-9.51822 2.71,-3.70245 5.38821,-7.42783 8.08472,-11.14007 2.91852,-3.99725 5.82902,-8.00039 8.82938,-11.93702 3.06491,-4.0299 6.15361,-8.04212 9.3164,-11.99592 3.1577,-3.92261 6.32606,-7.83685 9.53585,-11.71702 3.58388,-4.35015 7.16919,-8.6991 10.74328,-13.05729 3.94041,-4.80902 7.86262,-9.63282 11.78502,-14.45654 3.90711,-4.78653 7.83456,-9.55898 11.58267,-14.4721 3.16577,-4.26718 6.3055,-8.6119 8.38341,-13.53664 1.53738,-3.94584 2.87012,-8.034843 2.61842,-12.330538 -0.48609,-3.91467 -1.72797,-6.936582 -4.19378,-10.050516 -2.86647,-3.52216 -6.02716,-6.780768 -9.2706,-9.956667 -3.73753,-3.665855 -7.52425,-7.280619 -11.44985,-10.74601 -4.2247,-3.798655 -8.44517,-7.601924 -12.66399,-11.407113 -4.22779,-3.820163 -8.42679,-7.671816 -12.59019,-11.562136 -3.52093,-3.215412 -7.104,-6.360236 -10.68211,-9.511726 -3.59534,-3.166766 -7.22726,-6.294204 -10.7207,-9.574368 -2.92957,-2.733918 -5.85744,-5.469689 -8.77949,-8.21164 -2.74345,-2.6040159 -5.5361,-5.1946677 -7.87152,-8.1818082 -1.55337,-2.25041352 -2.82531,-4.6343966 -3.02312,-7.4194722 -0.0833,-2.8497186 0.53725,-5.5554716 1.82508,-8.1135936 1.76343,-3.474902 3.9713,-6.676265 6.1283,-9.915376 2.49012,-3.7704 4.99625,-7.530558 7.56885,-11.245369 2.52861,-3.631192 5.11858,-7.21969 7.81232,-10.730695 2.76862,-3.650615 5.56384,-7.280878 8.36356,-10.907676 3.06968,-4.004434 6.11832,-8.024857 9.17967,-12.035647 3.21915,-4.20661 6.41003,-8.435075 9.6736,-12.607488 3.05575,-3.874812 6.15054,-7.718639 9.193,-11.603937 2.92651,-3.778284 5.8167,-7.589424 8.46476,-11.570434 2.29433,-3.52512 4.51244,-7.11734 6.16217,-10.99912 1.37861,-3.40407 2.53214,-6.90573 2.82159,-10.59339 0.19053,-3.86441 -0.0506,-7.72253 -1.00808,-11.48741 -1.09887,-4.24622 -2.67833,-8.32872 -5.01222,-12.06448 -1.13691,-1.68908 -1.48005,-2.33589 -2.87503,-3.84828 -2.37152,-2.57113 -5.29886,-4.55992 -7.88833,-6.89175 -4.17579,-3.4734 -8.33096,-6.97676 -12.68324,-10.22983 -3.55893,-2.68188 -7.14797,-5.32292 -10.71759,-7.99047 -2.7023,-2.0189 -5.42939,-4.0049 -8.20981,-5.91531 -1.9942,-1.38748 -4.01035,-2.753 -5.8739,-4.31583 -1.21669,-1.03939 -2.4057,-2.11113 -3.48838,-3.29212 -0.58336,-0.63462 -1.1506,-1.28612 -1.63182,-2.00332 0,0 1.95807,-1.13965 1.95807,-1.13965 z"
       inkscape:connector-curvature="0" />
  </g>
</svg>
