<?xml version="1.0" encoding="UTF-8" standalone="no"?>
<!-- Created with Inkscape (http://www.inkscape.org/) -->

<svg
   xmlns:dc="http://purl.org/dc/elements/1.1/"
   xmlns:cc="http://creativecommons.org/ns#"
   xmlns:rdf="http://www.w3.org/1999/02/22-rdf-syntax-ns#"
   xmlns:svg="http://www.w3.org/2000/svg"
   xmlns="http://www.w3.org/2000/svg"
   xmlns:sodipodi="http://sodipodi.sourceforge.net/DTD/sodipodi-0.dtd"
   xmlns:inkscape="http://www.inkscape.org/namespaces/inkscape"
   width="500mm"
   height="500mm"
   viewBox="0 0 500 500"
   version="1.1"
   id="svg4302"
   inkscape:version="0.92.3 (2405546, 2018-03-11)"
   sodipodi:docname="g.svg">
  <defs
     id="defs4296" />
  <sodipodi:namedview
     id="base"
     pagecolor="#ffffff"
     bordercolor="#666666"
     borderopacity="1.0"
     inkscape:pageopacity="0.0"
     inkscape:pageshadow="2"
     inkscape:zoom="0.35"
     inkscape:cx="700"
     inkscape:cy="560"
     inkscape:document-units="mm"
     inkscape:current-layer="layer1"
     showgrid="false"
     inkscape:window-width="1631"
     inkscape:window-height="1438"
     inkscape:window-x="0"
     inkscape:window-y="0"
     inkscape:window-maximized="0" />
  <metadata
     id="metadata4299">
    <rdf:RDF>
      <cc:Work
         rdf:about="">
        <dc:format>image/svg+xml</dc:format>
        <dc:type
           rdf:resource="http://purl.org/dc/dcmitype/StillImage" />
        <dc:title></dc:title>
      </cc:Work>
    </rdf:RDF>
  </metadata>
  <g
     inkscape:label="Layer 1"
     inkscape:groupmode="layer"
     id="layer1"
     transform="translate(0,203)">
    <path
       style="opacity:1;fill:#090000;fill-opacity:1;stroke:none;stroke-width:0.30000001;stroke-linejoin:round;stroke-miterlimit:4;stroke-dasharray:none;stroke-dashoffset:0;stroke-opacity:1"
       id="path4847"
       d="m 221.78534,-196.25263 c 1.62143,1.39973 3.08134,2.97987 4.68164,4.39796 0.72723,0.87555 1.6048,1.58245 2.47584,2.31056 1.19921,0.93287 2.32812,1.9497 3.50365,2.90898 0.76244,0.88174 1.64919,1.62121 2.53859,2.37321 1.23233,0.94712 2.57533,1.71563 3.8914,2.54383 0.98678,0.76384 1.71924,1.77946 2.62313,2.62295 0.15972,0.13495 0.3419,0.24712 0.47917,0.40485 0.82644,0.94961 0.004,0.39838 1.05279,1.27775 0.64545,0.54137 1.37516,0.98504 2.02214,1.53466 1.11381,1.18416 2.46663,2.11075 3.59672,3.27159 0.76727,0.71022 1.55499,1.4197 2.23504,2.21724 0.88636,0.61137 1.78254,1.20537 2.65914,1.84347 0.79334,0.72265 1.47028,1.56189 2.27148,2.27443 0.8646,1.04891 2.06428,1.73717 3.09878,2.59515 1.28427,0.9105 2.62224,1.74955 3.97822,2.5506 1.11791,0.86581 2.28938,1.65243 3.46411,2.43478 0.84698,0.67818 1.52109,1.53036 2.32529,2.25054 1.04103,0.7154 2.02827,1.49287 3.02699,2.26688 0.83434,1.06565 2.15236,1.38702 3.24583,2.08565 1.21152,0.78478 2.3269,1.7738 3.23569,2.8982 0.92245,0.70166 1.90297,1.33754 2.75889,2.14108 0.83389,0.82088 1.75509,1.45684 2.7713,2.03371 0.77653,0.7678 1.64989,1.34594 2.52995,1.97192 1.04402,0.43003 1.94474,1.02396 2.8466,1.69285 2.14646,0.79718 0.9099,1.56715 -0.75639,0.89598 -1.41373,-0.43406 -2.79612,-0.93687 -4.20818,-1.375 -1.39411,-0.31218 -2.83599,-0.22431 -4.25349,-0.19537 -1.32289,0.0209 -2.51886,0.61246 -3.83405,0.78108 -1.53763,-0.046 -2.99416,0.43997 -4.49781,0.67946 -1.51146,0.18778 -3.03813,0.13416 -4.55711,0.11135 -1.62626,0.004 -3.25593,-0.13288 -4.86563,0.12406 -1.81008,0.47493 -3.65555,0.62024 -5.51827,0.65581 -1.27684,-0.10031 -1.76508,0.50579 -2.89725,1.0069 -0.52635,0.23297 -1.08574,0.31367 -1.6434,0.42585 -1.18963,0.49065 -2.43654,0.698 -3.61752,1.1947 0.0775,-0.0162 0.27876,-0.11284 0.23257,-0.0485 -0.10299,0.14341 -0.29405,0.19771 -0.42487,0.31628 -0.5243,0.47522 -0.95568,1.04606 -1.46614,1.53594 -0.72372,0.78501 -1.44345,1.58821 -2.24472,2.2971 -0.7557,0.75393 -1.47169,1.55514 -2.27131,2.26429 -0.9317,1.05373 -1.7783,2.17702 -2.59731,3.31873 -1.26902,1.15093 -2.31694,1.7171 -3.49851,2.37487 -1.02243,0.42461 -1.68895,1.31902 -2.44677,2.08355 -0.58928,0.5945 -1.31663,1.25073 -1.93176,1.81686 -0.733,0.66435 -1.64214,1.17176 -2.36489,1.84542 -0.63094,0.58808 -0.79735,1.03428 -1.55946,1.53836 -1.32907,0.70269 -1.93739,1.2376 -3.05222,2.14706 -0.93518,0.83938 -1.9059,1.7394 -2.58202,2.80592 -0.75649,1.07182 -1.43255,2.21669 -2.38894,3.12626 -0.73256,0.93422 -1.77978,1.40824 -2.75131,2.03501 -0.0282,0.0182 0.0652,0.0162 0.0978,0.0243 -0.18056,0.11533 -0.36112,0.23066 -0.54168,0.34599 -0.19466,0.13149 -0.38227,0.27407 -0.58397,0.39448 -0.41989,0.25067 -0.86574,0.45711 -1.27941,0.71792 -0.0294,0.0185 0.0674,0.0166 0.1011,0.0249 -0.1778,0.11705 -0.34754,0.24738 -0.53341,0.35115 -0.94441,0.52727 -1.68603,0.80824 -1.05624,0.56408 -0.74315,0.65397 -1.44015,0.71064 -2.29831,0.96828 -0.55441,0.16645 -1.07272,0.43721 -1.63258,0.60242 -1.21388,0.32934 -2.32366,0.80037 -3.59409,0.93489 -0.67345,0.35101 -1.61486,0.30972 -2.20108,0.82758 -0.0794,0.0701 0.19799,-0.14548 0.29792,-0.11042 0.0638,0.0224 -0.0463,0.12705 -0.0694,0.19057 0.37795,0.38461 1.3317,0.20267 1.83652,0.18497 0.95059,0.0145 1.79943,0.51793 2.7425,0.69637 1.10169,-0.0178 2.1157,0.29242 3.17672,0.55422 1.97444,0.15935 3.86314,0.849306 5.64174,1.712282 1.11351,0.69556 2.35817,0.588772 3.52542,0.854718 0.43978,0.1002 1.18844,0.503563 1.592,0.705569 2.00257,0.851811 4.08042,1.403006 6.08927,2.239701 0.39284,0.126119 0.78818,0.244718 1.17852,0.378357 1.26238,0.432186 1.0034,0.421888 2.3081,0.757414 1.12079,0.288238 2.17209,0.34988 3.25733,0.765025 1.57956,0.718732 3.23956,1.34095 4.93146,1.745646 0.27251,0.04112 0.55179,0.05036 0.81754,0.123376 0.45035,0.123729 1.51278,0.614881 1.94123,0.769879 1.00989,0.365344 2.05401,0.553127 3.06716,0.906849 1.56294,0.538667 3.20064,0.865428 4.8233,1.193038 1.60182,0.183885 3.09475,0.772104 4.70323,0.93804 1.11357,0.553995 2.38104,0.551241 3.53247,0.932995 1.16545,0.299908 2.25707,0.763717 3.39852,1.134359 1.35171,0.0781 2.47386,0.635447 3.6626,1.218787 1.21579,0.437192 2.51556,0.719262 3.65033,1.354092 1.05613,0.458209 2.14701,0.880105 3.25284,1.223624 1.21399,0.512797 2.43152,1.078738 3.53803,1.797291 1.0391,0.426633 1.91567,1.042421 2.80202,1.716842 1.37686,0.978426 2.47208,2.091713 3.02112,3.704992 0.36967,2.147998 0.34107,2.500254 -1.56723,3.408891 -0.65424,0.530937 -1.50027,0.465162 -2.23526,0.759495 -0.8605,0.380703 -1.77043,0.587023 -2.70706,0.608912 -0.98538,0.455745 -0.83089,0.108188 -1.98625,0.961752 -0.0531,0.03919 0.13848,0.114888 0.10176,0.169662 -0.18304,0.272991 -0.45911,0.470447 -0.68868,0.70567 -1.42505,1.265526 -2.87401,2.502567 -4.4131,3.629784 -1.64771,1.509459 -3.68413,2.476281 -5.62192,3.547015 -0.45599,0.675378 -3.91499,1.734476 -4.02193,2.110512 -0.27634,0.167743 -0.54473,0.349353 -0.82902,0.503235 -0.0316,0.01712 -1.922,0.93595 -2.28249,1.2079 -0.0881,0.06645 -0.1037,0.20067 -0.18675,0.273317 -0.47194,0.412816 -1.33219,0.950809 -1.84099,1.285446 -2.26092,1.049147 -4.20909,2.701682 -6.54176,3.573762 -1.38768,0.627089 -2.72189,1.420153 -4.17269,1.901952 -2.07583,0.689366 -0.30175,-0.124802 -2.13717,0.803857 -1.68212,1.117036 -3.69739,1.470363 -5.50565,2.275427 -1.9922,0.990314 -4.11247,1.275448 -6.3049,1.307941 -1.93697,-0.04404 -3.87319,-0.101613 -5.81068,-0.119568 -2.02106,-0.01024 -4.04216,-0.0024 -6.06323,5.3e-4 -2.13992,0.0551 -4.29081,-0.134911 -6.41562,0.151444 -2.1303,0.448908 -4.2936,0.616138 -6.46515,0.65337 -2.16706,-0.187814 -4.25676,0.145304 -6.38603,0.471276 -2.07378,0.111676 -4.06842,0.72231 -5.88308,1.73169 -1.21033,0.71959 -2.63046,1.018538 -3.86625,1.679197 -0.17064,0.08562 -0.36444,0.135628 -0.51192,0.256865 -0.0617,0.05075 0.27971,-0.09939 0.23768,-0.03142 -0.0928,0.150017 -0.30032,0.192895 -0.41851,0.323827 -0.14169,0.156961 -0.21719,0.364651 -0.35087,0.528489 -0.32746,0.401328 -0.71116,0.753438 -1.05679,1.139227 -0.95916,0.876361 -1.99894,1.612969 -2.36726,2.899069 -0.33344,1.517075 0.47003,1.491808 1.37555,2.185987 0.34428,0.482452 0.84242,0.793792 1.32886,1.147855 1.2895,0.965732 2.51783,1.891546 3.49205,3.19255 1.55067,1.536755 3.01937,3.102689 4.69668,4.511506 1.32346,1.550188 3.01189,2.692733 4.49264,4.067915 0.61488,0.57104 1.35326,1.444887 1.89995,2.066576 1.63933,1.895396 3.86474,3.203564 5.51915,5.062112 1.31373,1.194376 2.59819,2.403834 3.67866,3.8112562 1.37474,1.7921393 2.76531,3.5321531 4.42417,5.0754782 1.81814,1.4652228 3.8578,2.7632157 5.06945,4.80329608 0.15339,0.23623058 0.28265,0.49001097 0.46017,0.70869442 0.70245,0.8653832 1.60971,1.599938 2.35242,2.4316451 1.13012,1.3628026 0.56595,0.7201932 1.68543,1.9340221 1.32337,1.825117 2.92462,3.3622985 4.73,4.6982939 1.84551,1.960631 3.5544,4.04224 5.40382,6.00393 1.35088,1.215668 2.21149,2.827761 3.35064,4.205621 0.53518,0.647335 1.1952,1.144627 1.83596,1.676146 0.36317,0.292616 0.75032,0.557744 1.0895,0.877853 0.6966,0.657428 1.26188,1.443278 1.93933,2.120431 0.97448,0.974064 2.00841,1.771267 2.91582,2.817517 0.75909,1.305827 2.02051,2.11886 3.07781,3.136635 0.31226,0.300596 0.56553,0.658085 0.87193,0.96466 0.43152,0.431758 1.46387,1.280105 1.90944,1.654368 0.39372,0.337863 0.81326,0.647772 1.18115,1.013587 1.12473,1.118386 1.01709,1.317919 2.08869,2.529488 1.02844,1.162773 2.273,2.134897 3.45339,3.134043 2.56489,2.334752 5.29638,4.522364 8.30259,6.264568 0.357,0.271201 0.72954,0.523084 1.07098,0.813602 1.09281,0.929772 2.10479,1.924376 3.3037,2.732548 3.47916,2.345237 -0.70996,-0.759785 2.44623,1.631146 1.02333,1.456361 2.53865,2.197412 3.96536,3.147959 0.64937,0.432644 1.27222,0.90423 1.92127,1.337329 0.34822,0.256632 0.68255,0.533262 1.04466,0.769897 0.63923,0.417754 1.69777,0.943658 2.3496,1.343864 1.33625,0.82042 2.53691,1.832237 3.79246,2.766981 1.98358,1.111255 3.73819,2.51778 5.56702,3.855434 0.25032,0.100118 0.51369,0.172323 0.75094,0.300329 0.0307,0.01667 1.28474,0.895244 1.33107,0.925803 0.78269,0.516176 1.6198,0.903579 2.41331,1.401392 1.69839,1.023805 2.04198,1.230789 0.16066,2.075339 -0.90347,0.03567 -1.80549,-0.05842 -2.70849,-0.08533 -0.92596,-0.119751 -1.73757,0.61804 -2.6503,0.642673 -0.0957,0.0026 0.17131,-0.08549 0.25699,-0.128217 -1.42627,0.62103 -1.64595,1.293256 -3.487,1.706536 -1.44587,0.481647 -2.78881,1.090877 -4.10739,1.847955 -0.33957,0.494189 0.0262,0.01164 -0.96732,0.74475 -1.37742,1.016344 -2.06475,1.534213 -3.66117,2.356008 -0.0265,0.06538 -0.0296,0.146315 -0.0796,0.196109 -0.47154,0.470033 -0.93581,0.694743 -1.45489,1.114822 -0.84035,0.680059 -1.65619,1.4165 -2.42504,2.175722 -1.48985,0.751734 -2.44626,2.18776 -3.83355,3.07385 -0.51641,0.329856 -1.07066,0.596318 -1.606,0.894477 -1.1554,1.028647 -2.3427,2.016363 -3.4477,3.115759 -1.12205,1.350301 -2.50907,2.448534 -3.8169,3.620029 -1.83488,1.347338 -3.47626,2.92317 -5.27867,4.313423 -1.0473,1.526196 -2.65434,2.353151 -4.30263,3.115628 -1.27625,1.125034 -3.09415,1.875077 -4.44039,2.641047 -1.21117,0.63397 -2.11792,1.76855 -3.29064,2.44591 -0.46125,0.26644 -0.9535,0.47517 -1.43026,0.71274 -0.62313,0.44492 -1.3914,0.55856 -2.07668,0.84338 -0.0328,0.0138 0.12076,0.0175 0.0971,0.0439 -0.15113,0.16957 -0.34466,0.29628 -0.52424,0.4354 -0.22902,0.1774 -0.46732,0.34247 -0.70098,0.51371 -1.59488,1.14972 -3.50157,1.5643 -5.27763,2.29058 -1.6713,0.87281 -3.30079,1.82533 -5.0986,2.47139 -0.88333,0.54491 -1.94767,0.64027 -2.89082,0.99724 -0.36043,0.13645 -2.21155,1.2314 -2.30649,1.28374 -1.44376,0.60851 -2.1996,0.94461 -3.25289,1.53212 0.0853,-0.0119 0.25961,-0.12211 0.25602,-0.036 -0.007,0.17698 -0.21732,0.28765 -0.27348,0.45566 -0.17232,0.51552 0.17825,1.16538 0.40135,1.60957 0.50642,0.57692 0.89931,1.20465 1.36464,1.80739 0.79736,0.85752 1.44824,1.84095 2.22015,2.70785 0.8846,1.31131 1.73088,2.63478 2.35097,4.09306 1.27789,2.00088 2.9145,3.72573 4.31981,5.63766 1.62774,1.65907 2.49135,3.83574 3.69681,5.7899 1.03967,2.02644 2.44084,3.81704 3.64392,5.74236 0.57077,0.78909 1.37467,1.35133 2.05537,2.02094 0.65385,0.64323 0.93766,1.26061 1.67267,1.90587 1.28434,0.92745 2.24959,2.09021 3.13017,3.39604 1.32442,1.37493 2.88274,2.42617 4.0858,3.92482 1.12739,1.28321 2.78393,1.91482 4.29488,2.65436 1.44302,0.92334 3.08598,1.44782 4.59799,2.21382 0.84411,0.40418 0.25929,0.1511 1.12715,0.4609 0.15716,0.0561 0.59088,0.0842 0.46271,0.19103 -0.28476,0.23739 -0.63296,0.38709 -0.93662,0.59976 -0.10797,0.0756 0.23209,-0.12507 0.34814,-0.18759 -0.56611,0.70599 -1.06382,1.08514 -1.9058,1.50799 1.22671,-0.51824 -1.03698,0.72075 -1.52047,0.76764 -1.34745,0.45162 -2.59098,1.14353 -3.87686,1.73985 -0.66173,0.25257 -1.42479,0.48413 -2.0159,0.89466 -0.0538,0.0374 0.23593,-0.0677 0.19582,-0.0159 -0.23966,0.30943 -0.6231,0.47392 -0.93022,0.71655 -0.80576,0.56017 -1.49163,1.33688 -2.33293,1.84737 -1.00007,0.60682 -1.71031,0.81664 -1.08298,0.6219 -0.37992,0.21688 -0.77924,0.40286 -1.13974,0.65067 -0.0663,0.0456 0.28275,-0.0993 0.23925,-0.0317 -0.0951,0.14787 -0.29089,0.19915 -0.42213,0.31609 -0.38372,0.3419 -0.75449,0.7315 -1.08911,1.12128 -1.00369,0.90377 -1.47052,0.90689 -2.44355,1.59002 -0.0645,0.0453 0.2682,-0.0987 0.2348,-0.0273 -0.0901,0.19251 -0.2924,0.30858 -0.4386,0.46286 -0.8692,0.56785 -1.41167,1.58324 -2.27927,2.14358 -0.36898,0.23828 -0.76677,0.42873 -1.15016,0.64309 0.0649,-0.022 0.25296,-0.10194 0.19479,-0.0657 -0.36565,0.2277 -0.76674,0.39778 -1.12115,0.64257 -0.0667,0.0461 0.27423,-0.10824 0.24073,-0.0344 -0.18221,0.40137 -1.229,1.35479 -1.53667,1.70047 -1.22239,0.98714 -2.19679,2.21425 -3.08241,3.49994 -0.95556,0.99414 -2.22519,1.72823 -3.59161,1.96535 -1.44993,0.20928 -2.73456,0.053 -4.00299,-0.67323 -1.50545,-1.01246 -2.52379,-2.51767 -3.77326,-3.79646 -1.30009,-1.36488 -2.75696,-2.55537 -4.14447,-3.8209 -0.57691,-0.62918 -1.42452,-0.81388 -2.12574,-1.22454 -0.75283,-0.44085 -1.44204,-1.12064 -2.15804,-1.62433 -0.92801,-0.93496 -2.10337,-1.58766 -3.09978,-2.43113 -0.99333,-1.01922 -0.47205,-0.53707 -1.56359,-1.44666 -1.76761,-1.45902 -3.92011,-2.27684 -5.96058,-3.26123 -0.43564,-0.33107 -1.36051,-0.93813 0.29101,-0.83645 0.22745,0.014 1.08873,1.28678 1.20159,1.45841 0.6949,1.28379 1.26897,2.48743 1.41497,3.95248 0.36201,1.13961 0.58393,2.2906 1.05409,3.38971 0.46604,1.3956 0.42332,2.85803 0.77278,4.28487 0.54771,1.55403 0.13962,3.24964 0.70163,4.76917 1.03156,1.39036 1.01726,3.07393 1.41597,4.67029 0.61344,1.64825 0.40869,3.42681 0.71411,5.12458 0.3076,0.70369 0.24742,1.53543 0.47417,2.25158 0.22924,0.72406 0.7944,1.42222 1.15357,2.08891 0.81519,1.55882 0.90675,3.33053 1.40254,4.97708 0.46696,1.17285 0.51288,2.41374 0.94433,3.59315 0.45208,1.32183 0.42242,2.73021 0.4155,4.10863 -0.0491,1.32223 0.51648,2.54207 0.68598,3.84824 0.11775,1.49785 0.0597,3.00267 0.0391,4.5032 0.42157,1.16933 0.50607,2.44531 0.90742,3.61091 0.27011,1.14675 0.90073,2.00625 1.61624,2.902 0.98932,0.94774 2.41892,0.81857 3.69117,0.79687 1.54543,-0.0611 3.09139,-0.093 4.63792,-0.10171 1.49764,-0.37523 2.98588,-0.68834 4.52942,-0.78099 1.51197,-0.0396 3.02457,0.008 4.53664,0.0246 0.99846,0.094 2.02817,-0.10133 3.02376,0.009 0.11399,0.0127 1.27092,0.32833 1.32689,0.34335 1.4802,0.51748 3.08636,0.25041 4.57983,0.60934 0.14585,0.11361 0.32498,0.1942 0.43756,0.34084 0.44445,0.57898 -0.31364,2.08705 -0.56881,2.60852 -0.65952,1.07217 -1.43035,2.11802 -2.22216,3.10526 -0.67307,1.00208 -1.07033,2.20967 -1.41532,3.36854 -0.13027,1.27439 -0.47897,2.49116 -0.96972,3.67348 -0.38212,1.30415 -1.10208,2.46091 -1.40511,3.78735 -0.24187,1.48508 -0.65997,2.91729 -0.80191,4.42298 0.13703,1.37195 -0.38441,2.60546 -0.65224,3.91721 -0.20739,1.4536 -0.14568,2.92823 -0.1245,4.39166 0.025,1.5217 0.0271,3.04361 0.0272,4.56547 -0.002,1.77239 -0.003,3.54478 -0.003,5.31714 4e-5,1.50472 1.9e-4,3.0094 2.4e-4,4.51411 3e-5,1.50911 1e-5,3.01821 0,4.52731 0.15589,1.42449 -0.0973,2.69124 -0.50766,4.03429 -0.32943,1.27492 -0.30624,2.60091 -0.28615,3.90726 8e-4,1.29268 -0.0446,2.53074 0.37212,3.76338 0.44188,1.2862 0.93382,2.55334 1.53414,3.77447 0.49665,1.14541 0.48906,2.39596 0.4609,3.61958 0.0792,1.17843 -0.24462,2.28073 -0.57195,3.39725 0,0 -0.67945,0.322 -0.67945,0.322 v 0 c 0.3292,-1.11091 0.66189,-2.20517 0.58031,-3.37931 0.0295,-1.21198 0.0463,-2.4519 -0.44352,-3.58791 -0.60126,-1.22431 -1.09518,-2.49402 -1.5391,-3.78288 -0.42151,-1.2404 -0.38697,-2.4818 -0.38323,-3.78399 -0.0209,-1.31289 -0.0453,-2.64512 0.276,-3.92833 0.43652,-1.44179 0.66662,-2.46435 0.5183,-4.01478 10e-6,-1.50911 10e-6,-3.01819 -5e-5,-4.52729 -8e-5,-1.50476 -2.7e-4,-3.00953 7e-5,-4.51429 5.3e-4,-1.77232 0.002,-3.54465 0.003,-5.31696 9e-5,-1.52157 -0.002,-3.04316 -0.0266,-4.56454 -0.0215,-1.46807 -0.0832,-2.94661 0.1166,-4.40563 0.26007,-1.31228 0.80025,-2.53873 0.65654,-3.91044 0.13776,-1.50958 0.55434,-2.94402 0.79701,-4.43124 0.29228,-1.33607 1.018,-2.48917 1.39962,-3.79958 0.50111,-1.1758 0.84928,-2.39291 0.97281,-3.66556 0.33696,-1.16771 0.74792,-2.37805 1.40344,-3.39593 0.8015,-0.97364 1.55095,-2.03665 2.22854,-3.09022 0.19913,-0.38717 0.93325,-2.11212 0.61757,-2.51672 -0.10751,-0.13777 -0.2796,-0.20971 -0.41939,-0.31456 -1.49873,-0.33677 -3.10026,-0.0961 -4.58075,-0.61169 -1.43563,-0.38161 -2.85532,-0.37492 -4.33972,-0.3373 -1.51095,-0.0169 -3.02262,-0.0653 -4.53339,-0.0201 -1.54354,0.0994 -3.02816,0.43166 -4.53189,0.77758 -1.54639,0.01 -3.09212,0.0435 -4.63746,0.10224 -1.29671,0.0183 -2.73359,0.12573 -3.73018,-0.85321 -0.7218,-0.90146 -1.3543,-1.77162 -1.62873,-2.92446 -0.40797,-1.17237 -0.48609,-2.45883 -0.91867,-3.63445 0.0205,-1.4973 0.0784,-2.99866 -0.0347,-4.4935 -0.16644,-1.31059 -0.73614,-2.53201 -0.69009,-3.85736 0.008,-1.36964 0.0422,-2.77 -0.40399,-4.0844 -0.43321,-1.18155 -0.48228,-2.42102 -0.94554,-3.59743 -0.4971,-1.64105 -0.58174,-3.40929 -1.39494,-4.96409 -0.36351,-0.67548 -0.93177,-1.37927 -1.16575,-2.11177 -0.22812,-0.71416 -0.16139,-1.54837 -0.47292,-2.24967 -0.30971,-1.69564 -0.10007,-3.47279 -0.71243,-5.1198 -0.40172,-1.59316 -0.37747,-3.27556 -1.41149,-4.66333 -0.0985,-0.2636 -0.24587,-0.51382 -0.2955,-0.79081 -0.2322,-1.29591 0.10798,-2.71664 -0.41063,-3.98577 -0.34995,-1.42345 -0.31375,-2.87893 -0.76795,-4.27347 -0.47366,-1.10654 -0.69746,-2.26353 -1.06437,-3.4104 -0.13889,-1.45497 -0.70752,-2.64623 -1.39703,-3.92075 -0.13718,-0.20796 -0.25976,-0.42635 -0.41154,-0.62392 -0.13419,-0.17467 -0.29091,-0.33102 -0.44383,-0.48955 -0.10475,-0.10862 -0.33513,-0.16053 -0.32865,-0.31129 0.0493,-1.14665 0.69796,-0.13401 0.96545,0.0103 2.04689,0.98319 4.19922,1.81475 5.97014,3.27711 0.274,0.22934 0.54799,0.4587 0.82199,0.68804 0.24602,0.25104 0.46949,0.52634 0.73804,0.75309 0.99793,0.84264 2.16914,1.49955 3.10055,2.43112 0.7122,0.50202 1.39895,1.17356 2.15006,1.61116 0.70963,0.41341 1.55639,0.61251 2.13945,1.24526 1.38978,1.26537 2.84411,2.46062 4.14676,3.82463 1.2433,1.27516 2.25762,2.77635 3.76279,3.77801 1.26089,0.70694 2.5412,0.84712 3.97326,0.63024 1.15069,-0.21902 1.34461,-0.27223 2.30219,-1.21187 0.87462,-1.2935 1.85256,-2.52786 3.08005,-3.50941 1.2128,-1.36282 2.17035,-2.36956 3.5004,-3.00508 -0.0445,0.0369 -0.17743,0.14856 -0.13359,0.1108 0.62232,-0.53618 1.17135,-1.14247 1.76748,-1.70632 0.16252,-0.15372 0.34347,-0.28673 0.51521,-0.43011 1.01805,-1.10003 1.95167,-1.33628 2.64824,-2.02163 0.73955,-0.89648 1.59733,-1.50526 2.55017,-2.1723 0.0477,-0.0334 -0.0975,0.0638 -0.14628,0.0956 1.17261,-0.71797 2.26762,-1.41991 3.41859,-2.46316 1.22483,-0.9752 2.52363,-1.87788 4.03561,-2.34223 1.28563,-0.60216 2.53372,-1.29913 3.89427,-1.72328 0.69542,-0.1012 0.52169,-0.29184 0.11207,0.13557 -0.0759,0.0792 0.20013,-0.0932 0.28856,-0.15806 0.0773,-0.0567 0.1358,-0.13534 0.2037,-0.20302 0.30246,-0.18457 0.60492,-0.36914 0.90738,-0.55374 -0.86968,0.6514 -0.12675,0.0785 0.0151,-0.0704 1.12003,-1.17563 -0.57436,0.60658 0.36662,-0.53957 0.0589,-0.0717 0.15013,-0.10919 0.22519,-0.1638 0.31471,-0.18476 0.60583,-0.41741 0.94413,-0.55425 0.12432,-0.0503 -0.16436,0.22294 -0.28243,0.28657 -0.0494,0.0266 -1.47129,-0.59092 -1.58818,-0.65548 -1.51744,-0.7565 -3.14865,-1.30022 -4.59602,-2.21425 -1.51915,-0.74726 -3.18529,-1.38099 -4.31333,-2.68157 -1.20483,-1.499 -2.76991,-2.54757 -4.08925,-3.93002 -0.87753,-1.3 -1.84125,-2.4552 -3.11946,-3.38024 -0.72642,-0.64476 -1.0217,-1.26386 -1.67123,-1.90267 -0.68702,-0.67566 -1.49104,-1.24798 -2.06651,-2.04359 -1.20292,-1.9255 -2.60605,-3.71506 -3.64318,-5.74328 -1.20569,-1.95199 -2.06961,-4.12525 -3.69535,-5.78377 -1.40725,-1.91785 -3.04889,-3.64601 -4.33015,-5.65179 -0.61544,-1.45137 -1.45699,-2.76854 -2.33937,-4.07156 -0.77087,-0.87085 -1.42589,-1.85195 -2.22411,-2.71135 -0.47077,-0.60536 -0.8632,-1.23875 -1.37222,-1.81991 -0.71677,-1.43076 -0.6436,-1.98371 0.85756,-2.87401 -0.59666,0.40997 0.20678,-0.14917 0.93425,-0.5126 0.51732,-0.25842 1.09551,-0.51528 1.62602,-0.75351 0.22515,-0.1011 0.461,-0.17645 0.6915,-0.26469 0.52481,-0.29802 1.63406,-1.0137 2.31653,-1.26857 0.94597,-0.3533 1.99605,-0.47588 2.88587,-1.00314 0.70693,-0.25781 1.55926,-0.5144 2.21931,-0.8641 0.77496,-0.41056 1.48165,-0.94139 2.25296,-1.35874 0.19795,-0.10711 0.41763,-0.16796 0.62644,-0.25194 1.32877,-0.52332 2.71891,-0.86916 3.9894,-1.54972 0.80123,-0.58084 1.5388,-1.26402 2.4207,-1.72849 0.64192,-0.33809 1.48047,-0.37272 2.07044,-0.84985 0.35136,0.0744 2.80365,-2.12357 3.43296,-2.41821 1.88844,-1.19229 3.93698,-2.027712 5.72694,-3.382934 1.16223,-0.54438 2.28449,-1.15144 3.01815,-2.370481 1.81241,-1.378665 3.43778,-2.972806 5.28274,-4.308661 1.30181,-1.17811 2.70338,-2.261261 3.81627,-3.615822 1.4547,-1.43973 2.95907,-2.799609 4.72498,-3.872468 1.56025,-0.695404 2.5636,-2.49391 4.16335,-3.212042 1.59216,-1.591151 3.38323,-2.971323 5.23904,-4.240344 1.40407,-0.219022 3.19728,-2.695813 4.62587,-3.106314 1.26442,-0.721149 2.67695,-1.34755 4.12128,-1.831182 0.20238,-0.04908 0.39892,-0.150892 0.60712,-0.14724 0.0657,0 -0.18275,0.177165 -0.12065,0.15576 0.84783,-0.292444 1.45772,-1.00375 1.69989,-0.988166 1.0999,-0.632698 2.41824,-1.188138 3.70618,-1.226053 0.89895,0.02828 1.79909,0.129355 2.6979,0.06911 -0.10797,0.09631 -0.27987,0.151103 -0.32387,0.288898 -0.0469,0.146923 0.33282,-0.2091 0.29292,-0.358061 -0.1619,-0.604705 -0.8999,-0.849021 -1.36023,-1.14292 -0.79533,-0.495882 -1.63269,-0.887545 -2.41575,-1.404303 -0.11088,-0.07318 -1.21301,-0.853122 -1.3218,-0.911913 -0.2417,-0.130571 -0.5075,-0.210449 -0.76126,-0.3157 -1.82425,-1.342999 -3.58503,-2.740131 -5.56316,-3.858525 -1.25285,-0.934244 -2.45359,-1.940306 -3.78849,-2.758305 -0.73763,-0.452001 -1.63044,-0.877723 -2.35471,-1.351277 -0.36126,-0.236204 -0.69577,-0.511006 -1.04365,-0.766511 -0.64773,-0.433383 -1.27085,-0.902859 -1.91976,-1.334448 -1.42857,-0.950137 -2.93754,-1.706964 -3.9678,-3.155449 -3.17497,-2.39735 1.0782,0.748622 -2.44591,-1.631924 -1.19783,-0.809122 -2.21031,-1.803609 -3.30444,-2.731622 -0.33959,-0.288046 -0.70993,-0.53776 -1.06492,-0.80664 -3.00479,-1.752756 -5.74086,-3.938358 -8.30965,-6.275626 -1.18474,-1.0029 -2.42836,-1.980126 -3.46041,-3.147361 -1.04965,-1.187141 -0.97907,-1.422943 -2.08188,-2.516579 -0.36832,-0.36525 -0.78797,-0.674804 -1.18195,-1.012204 -0.48444,-0.406884 -1.45176,-1.199157 -1.91501,-1.662951 -0.30398,-0.304342 -0.55624,-0.658275 -0.86614,-0.95659 -1.05977,-1.020146 -2.3191,-1.841514 -3.08399,-3.146248 -0.90709,-1.043287 -1.94191,-1.842423 -2.9142,-2.815918 -0.67434,-0.675169 -1.23896,-1.456801 -1.93382,-2.110822 -0.33996,-0.319977 -0.72732,-0.585523 -1.09099,-0.878282 -0.65555,-0.545928 -1.29844,-1.03038 -1.84659,-1.694069 -1.13595,-1.375396 -1.99587,-2.982711 -3.3421,-4.197035 -1.84768,-1.957665 -3.55446,-4.035988 -5.40007,-5.990793 -1.80442,-1.3439382 -3.41291,-2.8804715 -4.73711,-4.7104383 -1.11879,-1.2168478 -0.55544,-0.5743151 -1.68358,-1.9332522 -0.74673,-0.8345593 -1.6584,-1.5714874 -2.36265,-2.4421597 -0.17774,-0.219747 -0.30727,-0.4744614 -0.46091,-0.71168943 -1.20648,-2.03301337 -3.25063,-3.31968997 -5.05538,-4.78683897 -1.66092,-1.5469076 -3.05796,-3.2875246 -4.43406,-5.0839607 -1.08196,-1.4036387 -2.36576,-2.6113767 -3.67513,-3.8070127 -1.65824,-1.854642 -3.87882,-3.168042 -5.51716,-5.063903 -0.54839,-0.622435 -1.27813,-1.484767 -1.89427,-2.056707 -1.48112,-1.374878 -3.16488,-2.522963 -4.49341,-4.067622 -1.68069,-1.412896 -3.15521,-2.982026 -4.70751,-4.524967 -0.97045,-1.2929 -2.19974,-2.211036 -3.4823,-3.172124 -0.48258,-0.349361 -0.98344,-0.669639 -1.33077,-1.148009 -0.94446,-0.691134 -1.73144,-0.754401 -1.41742,-2.265767 0.34842,-1.310219 1.36639,-2.060305 2.35418,-2.931022 1.02546,-1.154023 1.88404,-2.368077 3.3792,-2.979121 1.25008,-0.633336 2.65,-0.966632 3.864,-1.679419 1.83107,-0.986925 3.81763,-1.599962 5.89774,-1.710016 2.13063,-0.329469 4.22488,-0.64091 6.39248,-0.463489 2.1701,-0.04039 4.33007,-0.217321 6.4597,-0.659815 2.12846,-0.270875 4.27988,-0.09181 6.42185,-0.144042 2.02125,-0.0028 4.04252,-0.01119 6.06375,3.7e-5 1.93717,0.01873 3.87304,0.07809 5.80977,0.117848 2.18804,-0.03889 4.30021,-0.341876 6.28633,-1.331177 1.81826,-0.784539 3.81634,-1.173099 5.50337,-2.278269 1.9053,-0.932259 0.006,-0.07814 2.14043,-0.798896 1.44922,-0.489436 2.78189,-1.282398 4.17481,-1.901708 1.87633,-0.72277 3.42493,-2.005648 5.25413,-2.839024 1.70683,-1.113893 3.2915,-2.423261 5.1385,-3.265821 0.44085,-0.287332 0.86506,-0.601993 1.32256,-0.861997 0.45961,-0.261196 0.95133,-0.471625 1.45639,-0.627732 0.0754,-0.02331 0.1615,0.06594 0.23409,0.03503 0.82349,-0.350594 1.43112,-1.126355 2.29027,-1.401442 1.11974,-0.51412 -0.78164,0.376253 1.86825,-1.094367 0.0653,-0.03623 0.15542,0.0028 0.22175,-0.03145 0.83624,-0.43194 1.55186,-1.058719 2.25216,-1.675974 1.54337,-1.119415 2.98503,-2.363232 4.41716,-3.617846 1.15189,-1.182079 2.27812,-2.091261 3.87345,-2.569292 0.93234,-0.03249 1.83489,-0.253066 2.69187,-0.628756 0.74692,-0.265202 1.57033,-0.257948 2.23846,-0.756327 -0.0956,0.08531 -0.4114,0.226316 -0.28676,0.255918 0.84619,0.200967 0.78528,-2.447301 0.60047,-2.841194 -0.5389,-1.602245 -1.63539,-2.696903 -3,-3.665757 -0.88255,-0.67619 -1.76829,-1.274638 -2.7985,-1.711928 -1.10789,-0.707049 -2.31177,-1.282438 -3.52687,-1.780593 -1.10688,-0.352716 -2.20665,-0.76336 -3.26139,-1.235945 -1.14183,-0.620914 -2.43395,-0.907939 -3.64757,-1.351651 -1.18534,-0.583993 -2.3136,-1.114954 -3.65731,-1.209685 -1.13858,-0.378177 -2.23585,-0.82676 -3.39837,-1.134049 -1.15357,-0.36358 -2.40604,-0.392923 -3.52297,-0.920642 -1.60711,-0.175199 -3.10354,-0.76168 -4.70651,-0.94443 -1.62403,-0.332182 -3.26553,-0.654016 -4.82866,-1.201505 -1.0145,-0.349694 -2.05898,-0.544719 -3.06881,-0.910836 -0.52757,-0.191272 -1.38185,-0.605266 -1.93237,-0.754338 -0.26741,-0.07241 -0.5474,-0.08576 -0.82111,-0.128637 -1.69223,-0.413909 -3.35341,-1.034063 -4.93568,-1.753989 -1.08118,-0.402611 -2.14024,-0.471522 -3.25317,-0.761095 -1.26777,-0.329862 -1.08366,-0.338331 -2.30912,-0.759053 -0.3918,-0.134509 -0.78808,-0.255569 -1.18212,-0.383355 -2.01006,-0.836057 -4.09415,-1.380884 -6.09403,-2.242642 -0.43132,-0.213792 -1.1021,-0.577387 -1.57547,-0.682789 -1.18659,-0.264205 -2.45436,-0.196099 -3.54092,-0.877055 -1.78022,-0.854823 -3.66178,-1.534736 -5.63437,-1.698535 -1.05945,-0.264052 -2.07728,-0.549912 -3.17565,-0.550182 -0.93444,-0.18413 -1.78281,-0.68843 -2.73256,-0.68258 -0.56083,0.0196 -1.54149,0.20832 -1.91045,-0.30582 0.19528,-0.89336 2.44372,-1.40342 3.2573,-1.68001 1.26311,-0.1448 2.37226,-0.62649 3.58623,-0.94615 0.94004,-0.28839 1.84189,-0.67588 2.78768,-0.93824 0.0588,-0.0163 -0.10221,0.0666 -0.15331,0.0998 1.08946,-0.65371 2.18673,-1.21338 3.35229,-2.05287 1.15578,-0.72536 2.2852,-1.35873 3.20062,-2.39239 0.97243,-0.89034 1.63333,-2.04511 2.39684,-3.10785 0.65201,-1.08312 1.64646,-1.97761 2.57125,-2.82903 1.00471,-0.8009 2.01313,-1.5662 3.05046,-2.15522 0.81865,-0.50655 0.90815,-0.91569 1.56139,-1.53447 0.71508,-0.67736 1.64199,-1.17443 2.37121,-1.83855 1.81231,-1.66433 3.35225,-3.63996 5.65655,-4.65432 -0.34377,0.38814 -0.10049,0.10128 0.97808,-0.63665 0.0536,-0.0367 -0.21424,0.14673 -0.16237,0.10765 0.30684,-0.23117 0.6659,-0.38818 0.96804,-0.62546 0.16493,-0.12953 0.29275,-0.30037 0.43912,-0.45055 0.81333,-1.14917 1.67498,-2.26234 2.58949,-3.33465 0.81221,-0.69428 1.5168,-1.51086 2.27128,-2.26438 0.81358,-0.69328 1.52325,-1.51107 2.24586,-2.29426 0.96553,-0.89319 1.69059,-1.99181 2.94526,-2.55569 1.18105,-0.4934 2.4346,-0.69991 3.62499,-1.18205 0.3598,-0.0757 1.42858,-0.25528 1.7243,-0.41208 1.0395,-0.55119 1.61478,-1.14971 2.82412,-1.00935 1.86111,-0.039 3.70249,-0.19783 5.51221,-0.66373 1.61429,-0.24029 3.24544,-0.1137 4.87413,-0.11468 1.51646,0.0224 3.04104,0.0742 4.54922,-0.12184 1.50223,-0.24587 2.96251,-0.71513 4.49958,-0.67814 1.31075,-0.17919 2.51222,-0.7742 3.83858,-0.77401 1.42295,-0.0284 2.87136,-0.11383 4.26823,0.21478 1.41089,0.44679 2.79927,0.93492 4.21066,1.38007 0.82598,0.32411 0.74369,0.0349 0.6373,0.80744 -0.0169,0.12322 -0.0947,-0.23899 -0.18603,-0.32348 -0.26641,-0.24659 -0.63714,-0.40121 -0.95472,-0.55919 -0.89929,-0.67123 -1.81073,-1.24701 -2.84559,-1.69128 -0.88289,-0.61934 -1.74258,-1.21122 -2.52601,-1.96588 -1.01674,-0.5846 -1.9445,-1.22302 -2.78013,-2.04885 -0.86125,-0.80235 -1.84814,-1.43388 -2.76482,-2.14963 -0.90633,-1.11663 -2.01321,-2.10114 -3.2208,-2.87867 -1.10014,-0.69037 -2.41429,-1.02694 -3.2516,-2.09059 -0.99718,-0.77911 -1.99289,-1.5478 -3.03011,-2.27131 -0.79748,-0.72243 -1.47452,-1.56618 -2.31897,-2.24172 -1.17092,-0.78584 -2.34363,-1.56745 -3.46061,-2.43217 -1.35708,-0.80637 -2.70252,-1.6405 -3.98511,-2.56011 -1.03782,-0.85587 -2.23391,-1.54923 -3.10152,-2.59688 -0.79539,-0.71552 -1.47515,-1.54774 -2.26749,-2.26816 -0.87835,-0.64457 -1.78958,-1.22717 -2.66844,-1.85824 -0.68169,-0.79409 -1.46639,-1.50327 -2.23193,-2.21337 -1.13127,-1.15637 -2.47617,-2.08789 -3.59189,-3.26626 -0.64825,-0.54886 -1.38182,-0.99591 -2.02557,-1.54088 -1.08984,-0.92261 -0.20628,-0.30706 -1.05038,-1.27077 -0.13863,-0.15827 -0.32116,-0.27189 -0.48174,-0.40783 -0.89586,-0.84542 -1.63066,-1.85133 -2.61414,-2.61148 -1.31975,-0.82742 -2.66313,-1.60267 -3.89706,-2.55271 -0.89009,-0.75029 -1.77402,-1.49274 -2.53896,-2.3717 -1.17172,-0.96471 -2.3057,-1.97457 -3.50316,-2.91007 -0.87262,-0.72688 -1.7484,-1.43759 -2.47748,-2.31235 -1.59352,-1.42424 -3.05505,-2.99899 -4.67815,-4.39549 0,0 0.63513,-0.39894 0.63513,-0.39894 z"
       inkscape:connector-curvature="0" />
  </g>
</svg>
