<?xml version="1.0" encoding="UTF-8"?>
<svg xmlns="http://www.w3.org/2000/svg" xmlns:xlink="http://www.w3.org/1999/xlink" width="1000pt" height="333.333333pt" viewBox="0 0 1000 333.333333" version="1.1">
<defs>
<clipPath id="clip1">
  <path d="M 0 0 L 1000 0 L 1000 333.332031 L 0 333.332031 Z M 0 0 "/>
</clipPath>
<clipPath id="clip2">
  <path d="M 107 328 L 113 328 L 113 333.332031 L 107 333.332031 Z M 107 328 "/>
</clipPath>
<clipPath id="clip3">
  <path d="M 850 328 L 856 328 L 856 333.332031 L 850 333.332031 Z M 850 328 "/>
</clipPath>
<clipPath id="clip4">
  <path d="M 540 328 L 546 328 L 546 333.332031 L 540 333.332031 Z M 540 328 "/>
</clipPath>
</defs>
<g id="surface1">
<path style=" stroke:none;fill-rule:nonzero;fill:rgb(0%,0%,0%);fill-opacity:1;" d="M 1000 333.332031 L 1000 0 L 0 0 L 0 333.332031 Z M 1000 333.332031 "/>
<g clip-path="url(#clip1)" clip-rule="nonzero">
<path style=" stroke:none;fill-rule:nonzero;fill:rgb(0%,0%,0%);fill-opacity:1;" d="M 806.875 1302.632812 L 1637.214844 -135.554688 L 193.128906 -969.296875 L -637.210938 468.890625 Z M 806.875 1302.632812 "/>
</g>
<path style=" stroke:none;fill-rule:nonzero;fill:rgb(100%,84.313725%,0%);fill-opacity:1;" d="M 702.851562 319.359375 C 703.195312 318.761719 702.992188 317.996094 702.394531 317.652344 C 701.796875 317.308594 701.03125 317.511719 700.6875 318.109375 C 700.34375 318.707031 700.546875 319.472656 701.144531 319.816406 C 701.742188 320.160156 702.507812 319.957031 702.851562 319.359375 Z M 702.851562 319.359375 "/>
<path style=" stroke:none;fill-rule:nonzero;fill:rgb(100%,84.313725%,0%);fill-opacity:1;" d="M 103.035156 53.054688 C 103.378906 52.457031 103.175781 51.691406 102.578125 51.347656 C 101.980469 51.003906 101.214844 51.207031 100.871094 51.804688 C 100.527344 52.402344 100.730469 53.167969 101.328125 53.511719 C 101.925781 53.855469 102.691406 53.652344 103.035156 53.054688 Z M 103.035156 53.054688 "/>
<path style=" stroke:none;fill-rule:nonzero;fill:rgb(100%,84.313725%,0%);fill-opacity:1;" d="M 142.84375 291.632812 C 143.1875 291.035156 142.984375 290.269531 142.386719 289.925781 C 141.789062 289.582031 141.023438 289.785156 140.679688 290.382812 C 140.335938 290.980469 140.539062 291.746094 141.136719 292.089844 C 141.734375 292.433594 142.5 292.230469 142.84375 291.632812 Z M 142.84375 291.632812 "/>
<path style=" stroke:none;fill-rule:nonzero;fill:rgb(100%,84.313725%,0%);fill-opacity:1;" d="M 881.566406 213.417969 C 881.910156 212.820312 881.707031 212.054688 881.109375 211.710938 C 880.511719 211.367188 879.746094 211.570312 879.402344 212.167969 C 879.058594 212.765625 879.261719 213.53125 879.859375 213.875 C 880.457031 214.21875 881.222656 214.015625 881.566406 213.417969 Z M 881.566406 213.417969 "/>
<path style=" stroke:none;fill-rule:nonzero;fill:rgb(100%,84.313725%,0%);fill-opacity:1;" d="M 645.605469 77.640625 C 645.949219 77.042969 645.746094 76.277344 645.148438 75.933594 C 644.550781 75.589844 643.785156 75.792969 643.441406 76.390625 C 643.097656 76.988281 643.300781 77.753906 643.898438 78.097656 C 644.496094 78.441406 645.261719 78.238281 645.605469 77.640625 Z M 645.605469 77.640625 "/>
<path style=" stroke:none;fill-rule:nonzero;fill:rgb(100%,84.313725%,0%);fill-opacity:1;" d="M 397.015625 218.382812 C 397.359375 217.785156 397.15625 217.019531 396.558594 216.675781 C 395.960938 216.332031 395.195312 216.535156 394.851562 217.132812 C 394.507812 217.730469 394.710938 218.496094 395.308594 218.839844 C 395.90625 219.183594 396.671875 218.980469 397.015625 218.382812 Z M 397.015625 218.382812 "/>
<path style=" stroke:none;fill-rule:nonzero;fill:rgb(100%,84.313725%,0%);fill-opacity:1;" d="M 419.257812 56.355469 C 419.601562 55.757812 419.398438 54.992188 418.800781 54.648438 C 418.203125 54.304688 417.4375 54.507812 417.09375 55.105469 C 416.75 55.703125 416.953125 56.46875 417.550781 56.8125 C 418.148438 57.15625 418.914062 56.953125 419.257812 56.355469 Z M 419.257812 56.355469 "/>
<path style=" stroke:none;fill-rule:nonzero;fill:rgb(100%,84.313725%,0%);fill-opacity:1;" d="M 84.378906 270.855469 C 84.722656 270.257812 84.519531 269.492188 83.921875 269.148438 C 83.324219 268.804688 82.558594 269.007812 82.214844 269.605469 C 81.871094 270.203125 82.074219 270.96875 82.671875 271.3125 C 83.269531 271.65625 84.035156 271.453125 84.378906 270.855469 Z M 84.378906 270.855469 "/>
<path style=" stroke:none;fill-rule:nonzero;fill:rgb(100%,84.313725%,0%);fill-opacity:1;" d="M 928.945312 172.019531 C 929.289062 171.421875 929.085938 170.65625 928.488281 170.3125 C 927.890625 169.96875 927.125 170.171875 926.78125 170.769531 C 926.4375 171.367188 926.640625 172.132812 927.238281 172.476562 C 927.835938 172.820312 928.601562 172.617188 928.945312 172.019531 Z M 928.945312 172.019531 "/>
<path style=" stroke:none;fill-rule:nonzero;fill:rgb(100%,84.313725%,0%);fill-opacity:1;" d="M 837.175781 36.324219 C 837.519531 35.726562 837.316406 34.960938 836.71875 34.617188 C 836.121094 34.273438 835.355469 34.476562 835.011719 35.074219 C 834.667969 35.671875 834.871094 36.4375 835.46875 36.78125 C 836.066406 37.125 836.832031 36.921875 837.175781 36.324219 Z M 837.175781 36.324219 "/>
<path style=" stroke:none;fill-rule:nonzero;fill:rgb(100%,84.313725%,0%);fill-opacity:1;" d="M 882.023438 315.691406 C 882.367188 315.09375 882.164062 314.328125 881.566406 313.984375 C 880.96875 313.640625 880.203125 313.84375 879.859375 314.441406 C 879.515625 315.039062 879.71875 315.804688 880.316406 316.148438 C 880.914062 316.492188 881.679688 316.289062 882.023438 315.691406 Z M 882.023438 315.691406 "/>
<path style=" stroke:none;fill-rule:nonzero;fill:rgb(100%,84.313725%,0%);fill-opacity:1;" d="M 407.886719 80.996094 C 408.230469 80.398438 408.027344 79.632812 407.429688 79.289062 C 406.832031 78.945312 406.066406 79.148438 405.722656 79.746094 C 405.378906 80.34375 405.582031 81.109375 406.179688 81.453125 C 406.777344 81.796875 407.542969 81.59375 407.886719 80.996094 Z M 407.886719 80.996094 "/>
<path style=" stroke:none;fill-rule:nonzero;fill:rgb(100%,84.313725%,0%);fill-opacity:1;" d="M 501.191406 162.019531 C 501.535156 161.421875 501.332031 160.65625 500.734375 160.3125 C 500.136719 159.96875 499.371094 160.171875 499.027344 160.769531 C 498.683594 161.367188 498.886719 162.132812 499.484375 162.476562 C 500.082031 162.820312 500.847656 162.617188 501.191406 162.019531 Z M 501.191406 162.019531 "/>
<path style=" stroke:none;fill-rule:nonzero;fill:rgb(100%,84.313725%,0%);fill-opacity:1;" d="M 224.226562 246.96875 C 224.570312 246.371094 224.367188 245.605469 223.769531 245.261719 C 223.171875 244.917969 222.40625 245.121094 222.0625 245.71875 C 221.71875 246.316406 221.921875 247.082031 222.519531 247.425781 C 223.117188 247.769531 223.882812 247.566406 224.226562 246.96875 Z M 224.226562 246.96875 "/>
<path style=" stroke:none;fill-rule:nonzero;fill:rgb(100%,84.313725%,0%);fill-opacity:1;" d="M 104.648438 183.570312 C 104.992188 182.972656 104.789062 182.207031 104.191406 181.863281 C 103.59375 181.519531 102.828125 181.722656 102.484375 182.320312 C 102.140625 182.917969 102.34375 183.683594 102.941406 184.027344 C 103.539062 184.371094 104.304688 184.167969 104.648438 183.570312 Z M 104.648438 183.570312 "/>
<path style=" stroke:none;fill-rule:nonzero;fill:rgb(100%,84.313725%,0%);fill-opacity:1;" d="M 952.214844 31.636719 C 952.558594 31.039062 952.355469 30.273438 951.757812 29.929688 C 951.160156 29.585938 950.394531 29.789062 950.050781 30.386719 C 949.707031 30.984375 949.910156 31.75 950.507812 32.09375 C 951.105469 32.4375 951.871094 32.234375 952.214844 31.636719 Z M 952.214844 31.636719 "/>
<path style=" stroke:none;fill-rule:nonzero;fill:rgb(100%,84.313725%,0%);fill-opacity:1;" d="M 624.015625 296.296875 C 624.359375 295.699219 624.15625 294.933594 623.558594 294.589844 C 622.960938 294.246094 622.195312 294.449219 621.851562 295.046875 C 621.507812 295.644531 621.710938 296.410156 622.308594 296.753906 C 622.90625 297.097656 623.671875 296.894531 624.015625 296.296875 Z M 624.015625 296.296875 "/>
<path style=" stroke:none;fill-rule:nonzero;fill:rgb(100%,84.313725%,0%);fill-opacity:1;" d="M 121.390625 201.714844 C 121.734375 201.117188 121.53125 200.351562 120.933594 200.007812 C 120.335938 199.664062 119.570312 199.867188 119.226562 200.464844 C 118.882812 201.0625 119.085938 201.828125 119.683594 202.171875 C 120.28125 202.515625 121.046875 202.3125 121.390625 201.714844 Z M 121.390625 201.714844 "/>
<path style=" stroke:none;fill-rule:nonzero;fill:rgb(100%,84.313725%,0%);fill-opacity:1;" d="M 439.171875 132.324219 C 439.515625 131.726562 439.3125 130.960938 438.714844 130.617188 C 438.117188 130.273438 437.351562 130.476562 437.007812 131.074219 C 436.664062 131.671875 436.867188 132.4375 437.464844 132.78125 C 438.0625 133.125 438.828125 132.921875 439.171875 132.324219 Z M 439.171875 132.324219 "/>
<path style=" stroke:none;fill-rule:nonzero;fill:rgb(100%,84.313725%,0%);fill-opacity:1;" d="M 339.972656 75.746094 C 340.316406 75.148438 340.113281 74.382812 339.515625 74.039062 C 338.917969 73.695312 338.152344 73.898438 337.808594 74.496094 C 337.464844 75.09375 337.667969 75.859375 338.265625 76.203125 C 338.863281 76.546875 339.628906 76.34375 339.972656 75.746094 Z M 339.972656 75.746094 "/>
<path style=" stroke:none;fill-rule:nonzero;fill:rgb(100%,84.313725%,0%);fill-opacity:1;" d="M 125.03125 83.855469 C 125.375 83.257812 125.171875 82.492188 124.574219 82.148438 C 123.976562 81.804688 123.210938 82.007812 122.867188 82.605469 C 122.523438 83.203125 122.726562 83.96875 123.324219 84.3125 C 123.921875 84.65625 124.6875 84.453125 125.03125 83.855469 Z M 125.03125 83.855469 "/>
<path style=" stroke:none;fill-rule:nonzero;fill:rgb(100%,84.313725%,0%);fill-opacity:1;" d="M 748.039062 106.816406 C 748.382812 106.21875 748.179688 105.453125 747.582031 105.109375 C 746.984375 104.765625 746.21875 104.96875 745.875 105.566406 C 745.53125 106.164062 745.734375 106.929688 746.332031 107.273438 C 746.929688 107.617188 747.695312 107.414062 748.039062 106.816406 Z M 748.039062 106.816406 "/>
<path style=" stroke:none;fill-rule:nonzero;fill:rgb(100%,84.313725%,0%);fill-opacity:1;" d="M 18.84375 13.917969 C 19.1875 13.320312 18.984375 12.554688 18.386719 12.210938 C 17.789062 11.867188 17.023438 12.070312 16.679688 12.667969 C 16.335938 13.265625 16.539062 14.03125 17.136719 14.375 C 17.734375 14.71875 18.5 14.515625 18.84375 13.917969 Z M 18.84375 13.917969 "/>
<path style=" stroke:none;fill-rule:nonzero;fill:rgb(100%,84.313725%,0%);fill-opacity:1;" d="M 339.195312 149.296875 C 339.539062 148.699219 339.335938 147.933594 338.738281 147.589844 C 338.140625 147.246094 337.375 147.449219 337.03125 148.046875 C 336.6875 148.644531 336.890625 149.410156 337.488281 149.753906 C 338.085938 150.097656 338.851562 149.894531 339.195312 149.296875 Z M 339.195312 149.296875 "/>
<path style=" stroke:none;fill-rule:nonzero;fill:rgb(100%,84.313725%,0%);fill-opacity:1;" d="M 993.121094 213.703125 C 993.464844 213.105469 993.261719 212.339844 992.664062 211.996094 C 992.066406 211.652344 991.300781 211.855469 990.957031 212.453125 C 990.613281 213.050781 990.816406 213.816406 991.414062 214.160156 C 992.011719 214.503906 992.777344 214.300781 993.121094 213.703125 Z M 993.121094 213.703125 "/>
<path style=" stroke:none;fill-rule:nonzero;fill:rgb(100%,84.313725%,0%);fill-opacity:1;" d="M 149.9375 76.976562 C 150.28125 76.378906 150.078125 75.613281 149.480469 75.269531 C 148.882812 74.925781 148.117188 75.128906 147.773438 75.726562 C 147.429688 76.324219 147.632812 77.089844 148.230469 77.433594 C 148.828125 77.777344 149.59375 77.574219 149.9375 76.976562 Z M 149.9375 76.976562 "/>
<path style=" stroke:none;fill-rule:nonzero;fill:rgb(100%,84.313725%,0%);fill-opacity:1;" d="M 207.621094 90.28125 C 207.964844 89.683594 207.761719 88.917969 207.164062 88.574219 C 206.566406 88.230469 205.800781 88.433594 205.457031 89.03125 C 205.113281 89.628906 205.316406 90.394531 205.914062 90.738281 C 206.511719 91.082031 207.277344 90.878906 207.621094 90.28125 Z M 207.621094 90.28125 "/>
<path style=" stroke:none;fill-rule:nonzero;fill:rgb(100%,84.313725%,0%);fill-opacity:1;" d="M 271.605469 227.09375 C 271.949219 226.496094 271.746094 225.730469 271.148438 225.386719 C 270.550781 225.042969 269.785156 225.246094 269.441406 225.84375 C 269.097656 226.441406 269.300781 227.207031 269.898438 227.550781 C 270.496094 227.894531 271.261719 227.691406 271.605469 227.09375 Z M 271.605469 227.09375 "/>
<path style=" stroke:none;fill-rule:nonzero;fill:rgb(100%,84.313725%,0%);fill-opacity:1;" d="M 342.765625 198.402344 C 343.109375 197.804688 342.90625 197.039062 342.308594 196.695312 C 341.710938 196.351562 340.945312 196.554688 340.601562 197.152344 C 340.257812 197.75 340.460938 198.515625 341.058594 198.859375 C 341.65625 199.203125 342.421875 199 342.765625 198.402344 Z M 342.765625 198.402344 "/>
<path style=" stroke:none;fill-rule:nonzero;fill:rgb(100%,84.313725%,0%);fill-opacity:1;" d="M 152.730469 115.949219 C 153.074219 115.351562 152.871094 114.585938 152.273438 114.242188 C 151.675781 113.898438 150.910156 114.101562 150.566406 114.699219 C 150.222656 115.296875 150.425781 116.0625 151.023438 116.40625 C 151.621094 116.75 152.386719 116.546875 152.730469 115.949219 Z M 152.730469 115.949219 "/>
<path style=" stroke:none;fill-rule:nonzero;fill:rgb(100%,84.313725%,0%);fill-opacity:1;" d="M 917.207031 261.488281 C 917.550781 260.890625 917.347656 260.125 916.75 259.78125 C 916.152344 259.4375 915.386719 259.640625 915.042969 260.238281 C 914.699219 260.835938 914.902344 261.601562 915.5 261.945312 C 916.097656 262.289062 916.863281 262.085938 917.207031 261.488281 Z M 917.207031 261.488281 "/>
<path style=" stroke:none;fill-rule:nonzero;fill:rgb(100%,84.313725%,0%);fill-opacity:1;" d="M 931.058594 171.277344 C 931.402344 170.679688 931.199219 169.914062 930.601562 169.570312 C 930.003906 169.226562 929.238281 169.429688 928.894531 170.027344 C 928.550781 170.625 928.753906 171.390625 929.351562 171.734375 C 929.949219 172.078125 930.714844 171.875 931.058594 171.277344 Z M 931.058594 171.277344 "/>
<path style=" stroke:none;fill-rule:nonzero;fill:rgb(100%,84.313725%,0%);fill-opacity:1;" d="M 142.910156 294.40625 C 143.253906 293.808594 143.050781 293.042969 142.453125 292.699219 C 141.855469 292.355469 141.089844 292.558594 140.746094 293.15625 C 140.402344 293.753906 140.605469 294.519531 141.203125 294.863281 C 141.800781 295.207031 142.566406 295.003906 142.910156 294.40625 Z M 142.910156 294.40625 "/>
<path style=" stroke:none;fill-rule:nonzero;fill:rgb(100%,84.313725%,0%);fill-opacity:1;" d="M 204.75 185.515625 C 205.09375 184.917969 204.890625 184.152344 204.292969 183.808594 C 203.695312 183.464844 202.929688 183.667969 202.585938 184.265625 C 202.242188 184.863281 202.445312 185.628906 203.042969 185.972656 C 203.640625 186.316406 204.40625 186.113281 204.75 185.515625 Z M 204.75 185.515625 "/>
<path style=" stroke:none;fill-rule:nonzero;fill:rgb(100%,84.313725%,0%);fill-opacity:1;" d="M 736.363281 278.105469 C 736.707031 277.507812 736.503906 276.742188 735.90625 276.398438 C 735.308594 276.054688 734.542969 276.257812 734.199219 276.855469 C 733.855469 277.453125 734.058594 278.21875 734.65625 278.5625 C 735.253906 278.90625 736.019531 278.703125 736.363281 278.105469 Z M 736.363281 278.105469 "/>
<path style=" stroke:none;fill-rule:nonzero;fill:rgb(100%,84.313725%,0%);fill-opacity:1;" d="M 402.96875 72.5 C 403.3125 71.902344 403.109375 71.136719 402.511719 70.792969 C 401.914062 70.449219 401.148438 70.652344 400.804688 71.25 C 400.460938 71.847656 400.664062 72.613281 401.261719 72.957031 C 401.859375 73.300781 402.625 73.097656 402.96875 72.5 Z M 402.96875 72.5 "/>
<path style=" stroke:none;fill-rule:nonzero;fill:rgb(100%,84.313725%,0%);fill-opacity:1;" d="M 701.175781 79.703125 C 701.519531 79.105469 701.316406 78.339844 700.71875 77.996094 C 700.121094 77.652344 699.355469 77.855469 699.011719 78.453125 C 698.667969 79.050781 698.871094 79.816406 699.46875 80.160156 C 700.066406 80.503906 700.832031 80.300781 701.175781 79.703125 Z M 701.175781 79.703125 "/>
<path style=" stroke:none;fill-rule:nonzero;fill:rgb(100%,84.313725%,0%);fill-opacity:1;" d="M 249.230469 305.671875 C 249.574219 305.074219 249.371094 304.308594 248.773438 303.964844 C 248.175781 303.621094 247.410156 303.824219 247.066406 304.421875 C 246.722656 305.019531 246.925781 305.785156 247.523438 306.128906 C 248.121094 306.472656 248.886719 306.269531 249.230469 305.671875 Z M 249.230469 305.671875 "/>
<path style=" stroke:none;fill-rule:nonzero;fill:rgb(100%,84.313725%,0%);fill-opacity:1;" d="M 180.277344 317.246094 C 180.621094 316.648438 180.417969 315.882812 179.820312 315.539062 C 179.222656 315.195312 178.457031 315.398438 178.113281 315.996094 C 177.769531 316.59375 177.972656 317.359375 178.570312 317.703125 C 179.167969 318.046875 179.933594 317.84375 180.277344 317.246094 Z M 180.277344 317.246094 "/>
<path style=" stroke:none;fill-rule:nonzero;fill:rgb(100%,84.313725%,0%);fill-opacity:1;" d="M 657.207031 25.558594 C 657.550781 24.960938 657.347656 24.195312 656.75 23.851562 C 656.152344 23.507812 655.386719 23.710938 655.042969 24.308594 C 654.699219 24.90625 654.902344 25.671875 655.5 26.015625 C 656.097656 26.359375 656.863281 26.15625 657.207031 25.558594 Z M 657.207031 25.558594 "/>
<path style=" stroke:none;fill-rule:nonzero;fill:rgb(100%,84.313725%,0%);fill-opacity:1;" d="M 299.800781 189.296875 C 300.144531 188.699219 299.941406 187.933594 299.34375 187.589844 C 298.746094 187.246094 297.980469 187.449219 297.636719 188.046875 C 297.292969 188.644531 297.496094 189.410156 298.09375 189.753906 C 298.691406 190.097656 299.457031 189.894531 299.800781 189.296875 Z M 299.800781 189.296875 "/>
<path style=" stroke:none;fill-rule:nonzero;fill:rgb(100%,84.313725%,0%);fill-opacity:1;" d="M 168.121094 11.957031 C 168.464844 11.359375 168.261719 10.59375 167.664062 10.25 C 167.066406 9.90625 166.300781 10.109375 165.957031 10.707031 C 165.613281 11.304688 165.816406 12.070312 166.414062 12.414062 C 167.011719 12.757812 167.777344 12.554688 168.121094 11.957031 Z M 168.121094 11.957031 "/>
<path style=" stroke:none;fill-rule:nonzero;fill:rgb(100%,84.313725%,0%);fill-opacity:1;" d="M 993.128906 24.84375 C 993.472656 24.246094 993.269531 23.480469 992.671875 23.136719 C 992.074219 22.792969 991.308594 22.996094 990.964844 23.59375 C 990.621094 24.191406 990.824219 24.957031 991.421875 25.300781 C 992.019531 25.644531 992.785156 25.441406 993.128906 24.84375 Z M 993.128906 24.84375 "/>
<path style=" stroke:none;fill-rule:nonzero;fill:rgb(100%,84.313725%,0%);fill-opacity:1;" d="M 685.214844 229.988281 C 685.558594 229.390625 685.355469 228.625 684.757812 228.28125 C 684.160156 227.9375 683.394531 228.140625 683.050781 228.738281 C 682.707031 229.335938 682.910156 230.101562 683.507812 230.445312 C 684.105469 230.789062 684.871094 230.585938 685.214844 229.988281 Z M 685.214844 229.988281 "/>
<path style=" stroke:none;fill-rule:nonzero;fill:rgb(100%,84.313725%,0%);fill-opacity:1;" d="M 82.867188 243.824219 C 83.210938 243.226562 83.007812 242.460938 82.410156 242.117188 C 81.8125 241.773438 81.046875 241.976562 80.703125 242.574219 C 80.359375 243.171875 80.5625 243.9375 81.160156 244.28125 C 81.757812 244.625 82.523438 244.421875 82.867188 243.824219 Z M 82.867188 243.824219 "/>
<path style=" stroke:none;fill-rule:nonzero;fill:rgb(100%,84.313725%,0%);fill-opacity:1;" d="M 456.382812 251.40625 C 456.726562 250.808594 456.523438 250.042969 455.925781 249.699219 C 455.328125 249.355469 454.5625 249.558594 454.21875 250.15625 C 453.875 250.753906 454.078125 251.519531 454.675781 251.863281 C 455.273438 252.207031 456.039062 252.003906 456.382812 251.40625 Z M 456.382812 251.40625 "/>
<path style=" stroke:none;fill-rule:nonzero;fill:rgb(100%,84.313725%,0%);fill-opacity:1;" d="M 345.730469 31.453125 C 346.074219 30.855469 345.871094 30.089844 345.273438 29.746094 C 344.675781 29.402344 343.910156 29.605469 343.566406 30.203125 C 343.222656 30.800781 343.425781 31.566406 344.023438 31.910156 C 344.621094 32.253906 345.386719 32.050781 345.730469 31.453125 Z M 345.730469 31.453125 "/>
<path style=" stroke:none;fill-rule:nonzero;fill:rgb(100%,84.313725%,0%);fill-opacity:1;" d="M 652.644531 73.425781 C 652.988281 72.828125 652.785156 72.0625 652.1875 71.71875 C 651.589844 71.375 650.824219 71.578125 650.480469 72.175781 C 650.136719 72.773438 650.339844 73.539062 650.9375 73.882812 C 651.535156 74.226562 652.300781 74.023438 652.644531 73.425781 Z M 652.644531 73.425781 "/>
<path style=" stroke:none;fill-rule:nonzero;fill:rgb(100%,84.313725%,0%);fill-opacity:1;" d="M 819.386719 213.964844 C 819.730469 213.367188 819.527344 212.601562 818.929688 212.257812 C 818.332031 211.914062 817.566406 212.117188 817.222656 212.714844 C 816.878906 213.3125 817.082031 214.078125 817.679688 214.421875 C 818.277344 214.765625 819.042969 214.5625 819.386719 213.964844 Z M 819.386719 213.964844 "/>
<path style=" stroke:none;fill-rule:nonzero;fill:rgb(100%,84.313725%,0%);fill-opacity:1;" d="M 284.878906 161.679688 C 285.222656 161.082031 285.019531 160.316406 284.421875 159.972656 C 283.824219 159.628906 283.058594 159.832031 282.714844 160.429688 C 282.371094 161.027344 282.574219 161.792969 283.171875 162.136719 C 283.769531 162.480469 284.535156 162.277344 284.878906 161.679688 Z M 284.878906 161.679688 "/>
<path style=" stroke:none;fill-rule:nonzero;fill:rgb(100%,84.313725%,0%);fill-opacity:1;" d="M 333.597656 201.820312 C 333.941406 201.222656 333.738281 200.457031 333.140625 200.113281 C 332.542969 199.769531 331.777344 199.972656 331.433594 200.570312 C 331.089844 201.167969 331.292969 201.933594 331.890625 202.277344 C 332.488281 202.621094 333.253906 202.417969 333.597656 201.820312 Z M 333.597656 201.820312 "/>
<path style=" stroke:none;fill-rule:nonzero;fill:rgb(100%,84.313725%,0%);fill-opacity:1;" d="M 669.292969 77.886719 C 669.636719 77.289062 669.433594 76.523438 668.835938 76.179688 C 668.238281 75.835938 667.472656 76.039062 667.128906 76.636719 C 666.785156 77.234375 666.988281 78 667.585938 78.34375 C 668.183594 78.6875 668.949219 78.484375 669.292969 77.886719 Z M 669.292969 77.886719 "/>
<path style=" stroke:none;fill-rule:nonzero;fill:rgb(100%,84.313725%,0%);fill-opacity:1;" d="M 206.738281 330.285156 C 207.082031 329.6875 206.878906 328.921875 206.28125 328.578125 C 205.683594 328.234375 204.917969 328.4375 204.574219 329.035156 C 204.230469 329.632812 204.433594 330.398438 205.03125 330.742188 C 205.628906 331.085938 206.394531 330.882812 206.738281 330.285156 Z M 206.738281 330.285156 "/>
<path style=" stroke:none;fill-rule:nonzero;fill:rgb(100%,84.313725%,0%);fill-opacity:1;" d="M 884.777344 84.277344 C 885.121094 83.679688 884.917969 82.914062 884.320312 82.570312 C 883.722656 82.226562 882.957031 82.429688 882.613281 83.027344 C 882.269531 83.625 882.472656 84.390625 883.070312 84.734375 C 883.667969 85.078125 884.433594 84.875 884.777344 84.277344 Z M 884.777344 84.277344 "/>
<path style=" stroke:none;fill-rule:nonzero;fill:rgb(100%,84.313725%,0%);fill-opacity:1;" d="M 112.972656 287.597656 C 113.316406 287 113.113281 286.234375 112.515625 285.890625 C 111.917969 285.546875 111.152344 285.75 110.808594 286.347656 C 110.464844 286.945312 110.667969 287.710938 111.265625 288.054688 C 111.863281 288.398438 112.628906 288.195312 112.972656 287.597656 Z M 112.972656 287.597656 "/>
<path style=" stroke:none;fill-rule:nonzero;fill:rgb(100%,84.313725%,0%);fill-opacity:1;" d="M 69.507812 322.859375 C 69.851562 322.261719 69.648438 321.496094 69.050781 321.152344 C 68.453125 320.808594 67.6875 321.011719 67.34375 321.609375 C 67 322.207031 67.203125 322.972656 67.800781 323.316406 C 68.398438 323.660156 69.164062 323.457031 69.507812 322.859375 Z M 69.507812 322.859375 "/>
<path style=" stroke:none;fill-rule:nonzero;fill:rgb(100%,84.313725%,0%);fill-opacity:1;" d="M 220.066406 66.316406 C 220.410156 65.71875 220.207031 64.953125 219.609375 64.609375 C 219.011719 64.265625 218.246094 64.46875 217.902344 65.066406 C 217.558594 65.664062 217.761719 66.429688 218.359375 66.773438 C 218.957031 67.117188 219.722656 66.914062 220.066406 66.316406 Z M 220.066406 66.316406 "/>
<path style=" stroke:none;fill-rule:nonzero;fill:rgb(100%,84.313725%,0%);fill-opacity:1;" d="M 856.273438 129.960938 C 856.617188 129.363281 856.414062 128.597656 855.816406 128.253906 C 855.21875 127.910156 854.453125 128.113281 854.109375 128.710938 C 853.765625 129.308594 853.96875 130.074219 854.566406 130.417969 C 855.164062 130.761719 855.929688 130.558594 856.273438 129.960938 Z M 856.273438 129.960938 "/>
<path style=" stroke:none;fill-rule:nonzero;fill:rgb(100%,84.313725%,0%);fill-opacity:1;" d="M 259.714844 331.976562 C 260.058594 331.378906 259.855469 330.613281 259.257812 330.269531 C 258.660156 329.925781 257.894531 330.128906 257.550781 330.726562 C 257.207031 331.324219 257.410156 332.089844 258.007812 332.433594 C 258.605469 332.777344 259.371094 332.574219 259.714844 331.976562 Z M 259.714844 331.976562 "/>
<path style=" stroke:none;fill-rule:nonzero;fill:rgb(100%,84.313725%,0%);fill-opacity:1;" d="M 823.207031 115.035156 C 823.550781 114.4375 823.347656 113.671875 822.75 113.328125 C 822.152344 112.984375 821.386719 113.1875 821.042969 113.785156 C 820.699219 114.382812 820.902344 115.148438 821.5 115.492188 C 822.097656 115.835938 822.863281 115.632812 823.207031 115.035156 Z M 823.207031 115.035156 "/>
<path style=" stroke:none;fill-rule:nonzero;fill:rgb(100%,84.313725%,0%);fill-opacity:1;" d="M 898.140625 31.125 C 898.484375 30.527344 898.28125 29.761719 897.683594 29.417969 C 897.085938 29.074219 896.320312 29.277344 895.976562 29.875 C 895.632812 30.472656 895.835938 31.238281 896.433594 31.582031 C 897.03125 31.925781 897.796875 31.722656 898.140625 31.125 Z M 898.140625 31.125 "/>
<path style=" stroke:none;fill-rule:nonzero;fill:rgb(100%,84.313725%,0%);fill-opacity:1;" d="M 303.503906 145.707031 C 303.847656 145.109375 303.644531 144.34375 303.046875 144 C 302.449219 143.65625 301.683594 143.859375 301.339844 144.457031 C 300.996094 145.054688 301.199219 145.820312 301.796875 146.164062 C 302.394531 146.507812 303.160156 146.304688 303.503906 145.707031 Z M 303.503906 145.707031 "/>
<path style=" stroke:none;fill-rule:nonzero;fill:rgb(100%,84.313725%,0%);fill-opacity:1;" d="M 140.867188 273.988281 C 141.210938 273.390625 141.007812 272.625 140.410156 272.28125 C 139.8125 271.9375 139.046875 272.140625 138.703125 272.738281 C 138.359375 273.335938 138.5625 274.101562 139.160156 274.445312 C 139.757812 274.789062 140.523438 274.585938 140.867188 273.988281 Z M 140.867188 273.988281 "/>
<path style=" stroke:none;fill-rule:nonzero;fill:rgb(100%,84.313725%,0%);fill-opacity:1;" d="M 80.59375 162.304688 C 80.9375 161.707031 80.734375 160.941406 80.136719 160.597656 C 79.539062 160.253906 78.773438 160.457031 78.429688 161.054688 C 78.085938 161.652344 78.289062 162.417969 78.886719 162.761719 C 79.484375 163.105469 80.25 162.902344 80.59375 162.304688 Z M 80.59375 162.304688 "/>
<path style=" stroke:none;fill-rule:nonzero;fill:rgb(100%,84.313725%,0%);fill-opacity:1;" d="M 916.691406 48.855469 C 917.035156 48.257812 916.832031 47.492188 916.234375 47.148438 C 915.636719 46.804688 914.871094 47.007812 914.527344 47.605469 C 914.183594 48.203125 914.386719 48.96875 914.984375 49.3125 C 915.582031 49.65625 916.347656 49.453125 916.691406 48.855469 Z M 916.691406 48.855469 "/>
<path style=" stroke:none;fill-rule:nonzero;fill:rgb(100%,84.313725%,0%);fill-opacity:1;" d="M 336.292969 220.167969 C 336.636719 219.570312 336.433594 218.804688 335.835938 218.460938 C 335.238281 218.117188 334.472656 218.320312 334.128906 218.917969 C 333.785156 219.515625 333.988281 220.28125 334.585938 220.625 C 335.183594 220.96875 335.949219 220.765625 336.292969 220.167969 Z M 336.292969 220.167969 "/>
<path style=" stroke:none;fill-rule:nonzero;fill:rgb(100%,84.313725%,0%);fill-opacity:1;" d="M 519.4375 259.34375 C 519.78125 258.746094 519.578125 257.980469 518.980469 257.636719 C 518.382812 257.292969 517.617188 257.496094 517.273438 258.09375 C 516.929688 258.691406 517.132812 259.457031 517.730469 259.800781 C 518.328125 260.144531 519.09375 259.941406 519.4375 259.34375 Z M 519.4375 259.34375 "/>
<path style=" stroke:none;fill-rule:nonzero;fill:rgb(100%,84.313725%,0%);fill-opacity:1;" d="M 784.875 297.5 C 785.21875 296.902344 785.015625 296.136719 784.417969 295.792969 C 783.820312 295.449219 783.054688 295.652344 782.710938 296.25 C 782.367188 296.847656 782.570312 297.613281 783.167969 297.957031 C 783.765625 298.300781 784.53125 298.097656 784.875 297.5 Z M 784.875 297.5 "/>
<path style=" stroke:none;fill-rule:nonzero;fill:rgb(100%,84.313725%,0%);fill-opacity:1;" d="M 44.8125 37.535156 C 45.15625 36.9375 44.953125 36.171875 44.355469 35.828125 C 43.757812 35.484375 42.992188 35.6875 42.648438 36.285156 C 42.304688 36.882812 42.507812 37.648438 43.105469 37.992188 C 43.703125 38.335938 44.46875 38.132812 44.8125 37.535156 Z M 44.8125 37.535156 "/>
<path style=" stroke:none;fill-rule:nonzero;fill:rgb(100%,84.313725%,0%);fill-opacity:1;" d="M 695.082031 252.203125 C 695.425781 251.605469 695.222656 250.839844 694.625 250.496094 C 694.027344 250.152344 693.261719 250.355469 692.917969 250.953125 C 692.574219 251.550781 692.777344 252.316406 693.375 252.660156 C 693.972656 253.003906 694.738281 252.800781 695.082031 252.203125 Z M 695.082031 252.203125 "/>
<path style=" stroke:none;fill-rule:nonzero;fill:rgb(100%,84.313725%,0%);fill-opacity:1;" d="M 329.484375 327.921875 C 329.828125 327.324219 329.625 326.558594 329.027344 326.214844 C 328.429688 325.871094 327.664062 326.074219 327.320312 326.671875 C 326.976562 327.269531 327.179688 328.035156 327.777344 328.378906 C 328.375 328.722656 329.140625 328.519531 329.484375 327.921875 Z M 329.484375 327.921875 "/>
<path style=" stroke:none;fill-rule:nonzero;fill:rgb(100%,84.313725%,0%);fill-opacity:1;" d="M 136.8125 41.691406 C 137.15625 41.09375 136.953125 40.328125 136.355469 39.984375 C 135.757812 39.640625 134.992188 39.84375 134.648438 40.441406 C 134.304688 41.039062 134.507812 41.804688 135.105469 42.148438 C 135.703125 42.492188 136.46875 42.289062 136.8125 41.691406 Z M 136.8125 41.691406 "/>
<path style=" stroke:none;fill-rule:nonzero;fill:rgb(100%,84.313725%,0%);fill-opacity:1;" d="M 820.097656 34.859375 C 820.441406 34.261719 820.238281 33.496094 819.640625 33.152344 C 819.042969 32.808594 818.277344 33.011719 817.933594 33.609375 C 817.589844 34.207031 817.792969 34.972656 818.390625 35.316406 C 818.988281 35.660156 819.753906 35.457031 820.097656 34.859375 Z M 820.097656 34.859375 "/>
<path style=" stroke:none;fill-rule:nonzero;fill:rgb(100%,84.313725%,0%);fill-opacity:1;" d="M 566.421875 158.695312 C 566.765625 158.097656 566.5625 157.332031 565.964844 156.988281 C 565.367188 156.644531 564.601562 156.847656 564.257812 157.445312 C 563.914062 158.042969 564.117188 158.808594 564.714844 159.152344 C 565.3125 159.496094 566.078125 159.292969 566.421875 158.695312 Z M 566.421875 158.695312 "/>
<path style=" stroke:none;fill-rule:nonzero;fill:rgb(100%,84.313725%,0%);fill-opacity:1;" d="M 201.589844 283.4375 C 201.933594 282.839844 201.730469 282.074219 201.132812 281.730469 C 200.535156 281.386719 199.769531 281.589844 199.425781 282.1875 C 199.082031 282.785156 199.285156 283.550781 199.882812 283.894531 C 200.480469 284.238281 201.246094 284.035156 201.589844 283.4375 Z M 201.589844 283.4375 "/>
<path style=" stroke:none;fill-rule:nonzero;fill:rgb(100%,84.313725%,0%);fill-opacity:1;" d="M 10.347656 315.355469 C 10.691406 314.757812 10.488281 313.992188 9.890625 313.648438 C 9.292969 313.304688 8.527344 313.507812 8.183594 314.105469 C 7.839844 314.703125 8.042969 315.46875 8.640625 315.8125 C 9.238281 316.15625 10.003906 315.953125 10.347656 315.355469 Z M 10.347656 315.355469 "/>
<path style=" stroke:none;fill-rule:nonzero;fill:rgb(100%,84.313725%,0%);fill-opacity:1;" d="M 700.636719 94.742188 C 700.980469 94.144531 700.777344 93.378906 700.179688 93.035156 C 699.582031 92.691406 698.816406 92.894531 698.472656 93.492188 C 698.128906 94.089844 698.332031 94.855469 698.929688 95.199219 C 699.527344 95.542969 700.292969 95.339844 700.636719 94.742188 Z M 700.636719 94.742188 "/>
<path style=" stroke:none;fill-rule:nonzero;fill:rgb(100%,84.313725%,0%);fill-opacity:1;" d="M 262.335938 137.222656 C 262.679688 136.625 262.476562 135.859375 261.878906 135.515625 C 261.28125 135.171875 260.515625 135.375 260.171875 135.972656 C 259.828125 136.570312 260.03125 137.335938 260.628906 137.679688 C 261.226562 138.023438 261.992188 137.820312 262.335938 137.222656 Z M 262.335938 137.222656 "/>
<path style=" stroke:none;fill-rule:nonzero;fill:rgb(100%,84.313725%,0%);fill-opacity:1;" d="M 384.9375 81.058594 C 385.28125 80.460938 385.078125 79.695312 384.480469 79.351562 C 383.882812 79.007812 383.117188 79.210938 382.773438 79.808594 C 382.429688 80.40625 382.632812 81.171875 383.230469 81.515625 C 383.828125 81.859375 384.59375 81.65625 384.9375 81.058594 Z M 384.9375 81.058594 "/>
<path style=" stroke:none;fill-rule:nonzero;fill:rgb(100%,84.313725%,0%);fill-opacity:1;" d="M 5.128906 321.324219 C 5.472656 320.726562 5.269531 319.960938 4.671875 319.617188 C 4.074219 319.273438 3.308594 319.476562 2.964844 320.074219 C 2.621094 320.671875 2.824219 321.4375 3.421875 321.78125 C 4.019531 322.125 4.785156 321.921875 5.128906 321.324219 Z M 5.128906 321.324219 "/>
<path style=" stroke:none;fill-rule:nonzero;fill:rgb(100%,84.313725%,0%);fill-opacity:1;" d="M 570.4375 291.445312 C 570.78125 290.847656 570.578125 290.082031 569.980469 289.738281 C 569.382812 289.394531 568.617188 289.597656 568.273438 290.195312 C 567.929688 290.792969 568.132812 291.558594 568.730469 291.902344 C 569.328125 292.246094 570.09375 292.042969 570.4375 291.445312 Z M 570.4375 291.445312 "/>
<path style=" stroke:none;fill-rule:nonzero;fill:rgb(100%,84.313725%,0%);fill-opacity:1;" d="M 194.519531 257.378906 C 194.863281 256.78125 194.660156 256.015625 194.0625 255.671875 C 193.464844 255.328125 192.699219 255.53125 192.355469 256.128906 C 192.011719 256.726562 192.214844 257.492188 192.8125 257.835938 C 193.410156 258.179688 194.175781 257.976562 194.519531 257.378906 Z M 194.519531 257.378906 "/>
<path style=" stroke:none;fill-rule:nonzero;fill:rgb(100%,84.313725%,0%);fill-opacity:1;" d="M 594.433594 53.0625 C 594.777344 52.464844 594.574219 51.699219 593.976562 51.355469 C 593.378906 51.011719 592.613281 51.214844 592.269531 51.8125 C 591.925781 52.410156 592.128906 53.175781 592.726562 53.519531 C 593.324219 53.863281 594.089844 53.660156 594.433594 53.0625 Z M 594.433594 53.0625 "/>
<path style=" stroke:none;fill-rule:nonzero;fill:rgb(100%,84.313725%,0%);fill-opacity:1;" d="M 303.109375 43.480469 C 303.453125 42.882812 303.25 42.117188 302.652344 41.773438 C 302.054688 41.429688 301.289062 41.632812 300.945312 42.230469 C 300.601562 42.828125 300.804688 43.59375 301.402344 43.9375 C 302 44.28125 302.765625 44.078125 303.109375 43.480469 Z M 303.109375 43.480469 "/>
<path style=" stroke:none;fill-rule:nonzero;fill:rgb(100%,84.313725%,0%);fill-opacity:1;" d="M 118.066406 29.734375 C 118.410156 29.136719 118.207031 28.371094 117.609375 28.027344 C 117.011719 27.683594 116.246094 27.886719 115.902344 28.484375 C 115.558594 29.082031 115.761719 29.847656 116.359375 30.191406 C 116.957031 30.535156 117.722656 30.332031 118.066406 29.734375 Z M 118.066406 29.734375 "/>
<path style=" stroke:none;fill-rule:nonzero;fill:rgb(100%,84.313725%,0%);fill-opacity:1;" d="M 164.648438 149.117188 C 164.992188 148.519531 164.789062 147.753906 164.191406 147.410156 C 163.59375 147.066406 162.828125 147.269531 162.484375 147.867188 C 162.140625 148.464844 162.34375 149.230469 162.941406 149.574219 C 163.539062 149.917969 164.304688 149.714844 164.648438 149.117188 Z M 164.648438 149.117188 "/>
<path style=" stroke:none;fill-rule:nonzero;fill:rgb(100%,84.313725%,0%);fill-opacity:1;" d="M 677.441406 164.601562 C 677.785156 164.003906 677.582031 163.238281 676.984375 162.894531 C 676.386719 162.550781 675.621094 162.753906 675.277344 163.351562 C 674.933594 163.949219 675.136719 164.714844 675.734375 165.058594 C 676.332031 165.402344 677.097656 165.199219 677.441406 164.601562 Z M 677.441406 164.601562 "/>
<path style=" stroke:none;fill-rule:nonzero;fill:rgb(100%,84.313725%,0%);fill-opacity:1;" d="M 349.257812 35.917969 C 349.601562 35.320312 349.398438 34.554688 348.800781 34.210938 C 348.203125 33.867188 347.4375 34.070312 347.09375 34.667969 C 346.75 35.265625 346.953125 36.03125 347.550781 36.375 C 348.148438 36.71875 348.914062 36.515625 349.257812 35.917969 Z M 349.257812 35.917969 "/>
<path style=" stroke:none;fill-rule:nonzero;fill:rgb(0%,0%,0%);fill-opacity:1;" d="M 724.269531 132.726562 C 724.960938 131.53125 724.550781 130 723.355469 129.3125 C 722.160156 128.621094 720.628906 129.03125 719.941406 130.226562 C 719.25 131.421875 719.660156 132.953125 720.855469 133.640625 C 722.050781 134.332031 723.582031 133.921875 724.269531 132.726562 Z M 724.269531 132.726562 "/>
<path style=" stroke:none;fill-rule:nonzero;fill:rgb(0%,0%,0%);fill-opacity:1;" d="M 268.960938 148.535156 C 269.652344 147.339844 269.242188 145.808594 268.046875 145.121094 C 266.851562 144.429688 265.320312 144.839844 264.632812 146.035156 C 263.941406 147.230469 264.351562 148.761719 265.546875 149.449219 C 266.742188 150.140625 268.273438 149.730469 268.960938 148.535156 Z M 268.960938 148.535156 "/>
<g clip-path="url(#clip2)" clip-rule="nonzero">
<path style=" stroke:none;fill-rule:nonzero;fill:rgb(0%,0%,0%);fill-opacity:1;" d="M 111.96875 332.535156 C 112.660156 331.339844 112.25 329.808594 111.054688 329.121094 C 109.859375 328.429688 108.328125 328.839844 107.640625 330.035156 C 106.949219 331.230469 107.359375 332.761719 108.554688 333.449219 C 109.75 334.140625 111.28125 333.730469 111.96875 332.535156 Z M 111.96875 332.535156 "/>
</g>
<path style=" stroke:none;fill-rule:nonzero;fill:rgb(0%,0%,0%);fill-opacity:1;" d="M 121.621094 329.601562 C 122.3125 328.40625 121.902344 326.875 120.707031 326.1875 C 119.511719 325.496094 117.980469 325.90625 117.292969 327.101562 C 116.601562 328.296875 117.011719 329.828125 118.207031 330.515625 C 119.402344 331.207031 120.933594 330.796875 121.621094 329.601562 Z M 121.621094 329.601562 "/>
<path style=" stroke:none;fill-rule:nonzero;fill:rgb(0%,0%,0%);fill-opacity:1;" d="M 248.371094 186.28125 C 249.0625 185.085938 248.652344 183.554688 247.457031 182.867188 C 246.261719 182.175781 244.730469 182.585938 244.042969 183.78125 C 243.351562 184.976562 243.761719 186.507812 244.957031 187.195312 C 246.152344 187.886719 247.683594 187.476562 248.371094 186.28125 Z M 248.371094 186.28125 "/>
<path style=" stroke:none;fill-rule:nonzero;fill:rgb(0%,0%,0%);fill-opacity:1;" d="M 905.34375 306.367188 C 906.035156 305.171875 905.625 303.640625 904.429688 302.953125 C 903.234375 302.261719 901.703125 302.671875 901.015625 303.867188 C 900.324219 305.0625 900.734375 306.59375 901.929688 307.28125 C 903.125 307.972656 904.65625 307.5625 905.34375 306.367188 Z M 905.34375 306.367188 "/>
<path style=" stroke:none;fill-rule:nonzero;fill:rgb(0%,0%,0%);fill-opacity:1;" d="M 906.980469 187.808594 C 907.671875 186.613281 907.261719 185.082031 906.066406 184.394531 C 904.871094 183.703125 903.339844 184.113281 902.652344 185.308594 C 901.960938 186.503906 902.371094 188.035156 903.566406 188.722656 C 904.761719 189.414062 906.292969 189.003906 906.980469 187.808594 Z M 906.980469 187.808594 "/>
<path style=" stroke:none;fill-rule:nonzero;fill:rgb(0%,0%,0%);fill-opacity:1;" d="M 786.777344 178.65625 C 787.46875 177.460938 787.058594 175.929688 785.863281 175.242188 C 784.667969 174.550781 783.136719 174.960938 782.449219 176.15625 C 781.757812 177.351562 782.167969 178.882812 783.363281 179.570312 C 784.558594 180.261719 786.089844 179.851562 786.777344 178.65625 Z M 786.777344 178.65625 "/>
<path style=" stroke:none;fill-rule:nonzero;fill:rgb(0%,0%,0%);fill-opacity:1;" d="M 698.949219 267.09375 C 699.640625 265.898438 699.230469 264.367188 698.035156 263.679688 C 696.839844 262.988281 695.308594 263.398438 694.621094 264.59375 C 693.929688 265.789062 694.339844 267.320312 695.535156 268.007812 C 696.730469 268.699219 698.261719 268.289062 698.949219 267.09375 Z M 698.949219 267.09375 "/>
<path style=" stroke:none;fill-rule:nonzero;fill:rgb(0%,0%,0%);fill-opacity:1;" d="M 97.566406 317.082031 C 98.257812 315.886719 97.847656 314.355469 96.652344 313.667969 C 95.457031 312.976562 93.925781 313.386719 93.238281 314.582031 C 92.546875 315.777344 92.957031 317.308594 94.152344 317.996094 C 95.347656 318.6875 96.878906 318.277344 97.566406 317.082031 Z M 97.566406 317.082031 "/>
<path style=" stroke:none;fill-rule:nonzero;fill:rgb(0%,0%,0%);fill-opacity:1;" d="M 762.433594 118.472656 C 763.125 117.277344 762.714844 115.746094 761.519531 115.058594 C 760.324219 114.367188 758.792969 114.777344 758.105469 115.972656 C 757.414062 117.167969 757.824219 118.699219 759.019531 119.386719 C 760.214844 120.078125 761.746094 119.667969 762.433594 118.472656 Z M 762.433594 118.472656 "/>
<path style=" stroke:none;fill-rule:nonzero;fill:rgb(0%,0%,0%);fill-opacity:1;" d="M 937.59375 80.449219 C 938.285156 79.253906 937.875 77.722656 936.679688 77.035156 C 935.484375 76.34375 933.953125 76.753906 933.265625 77.949219 C 932.574219 79.144531 932.984375 80.675781 934.179688 81.363281 C 935.375 82.054688 936.90625 81.644531 937.59375 80.449219 Z M 937.59375 80.449219 "/>
<path style=" stroke:none;fill-rule:nonzero;fill:rgb(0%,0%,0%);fill-opacity:1;" d="M 875.484375 68.929688 C 876.175781 67.734375 875.765625 66.203125 874.570312 65.515625 C 873.375 64.824219 871.84375 65.234375 871.15625 66.429688 C 870.464844 67.625 870.875 69.15625 872.070312 69.84375 C 873.265625 70.535156 874.796875 70.125 875.484375 68.929688 Z M 875.484375 68.929688 "/>
<path style=" stroke:none;fill-rule:nonzero;fill:rgb(0%,0%,0%);fill-opacity:1;" d="M 406.199219 327.472656 C 406.890625 326.277344 406.480469 324.746094 405.285156 324.058594 C 404.089844 323.367188 402.558594 323.777344 401.871094 324.972656 C 401.179688 326.167969 401.589844 327.699219 402.785156 328.386719 C 403.980469 329.078125 405.511719 328.667969 406.199219 327.472656 Z M 406.199219 327.472656 "/>
<g clip-path="url(#clip3)" clip-rule="nonzero">
<path style=" stroke:none;fill-rule:nonzero;fill:rgb(100%,0%,0%);fill-opacity:1;" d="M 855.089844 332.640625 C 855.78125 331.445312 855.371094 329.914062 854.175781 329.226562 C 852.980469 328.535156 851.449219 328.945312 850.761719 330.140625 C 850.070312 331.335938 850.480469 332.867188 851.675781 333.554688 C 852.871094 334.246094 854.402344 333.835938 855.089844 332.640625 Z M 855.089844 332.640625 "/>
</g>
<path style=" stroke:none;fill-rule:nonzero;fill:rgb(100%,0%,0%);fill-opacity:1;" d="M 221.175781 149.484375 C 221.867188 148.289062 221.457031 146.757812 220.261719 146.070312 C 219.066406 145.378906 217.535156 145.789062 216.847656 146.984375 C 216.15625 148.179688 216.566406 149.710938 217.761719 150.398438 C 218.957031 151.089844 220.488281 150.679688 221.175781 149.484375 Z M 221.175781 149.484375 "/>
<path style=" stroke:none;fill-rule:nonzero;fill:rgb(100%,0%,0%);fill-opacity:1;" d="M 820.691406 306.84375 C 821.382812 305.648438 820.972656 304.117188 819.777344 303.429688 C 818.582031 302.738281 817.050781 303.148438 816.363281 304.34375 C 815.671875 305.539062 816.082031 307.070312 817.277344 307.757812 C 818.472656 308.449219 820.003906 308.039062 820.691406 306.84375 Z M 820.691406 306.84375 "/>
<path style=" stroke:none;fill-rule:nonzero;fill:rgb(100%,0%,0%);fill-opacity:1;" d="M 825.257812 135.730469 C 825.949219 134.535156 825.539062 133.003906 824.34375 132.316406 C 823.148438 131.625 821.617188 132.035156 820.929688 133.230469 C 820.238281 134.425781 820.648438 135.957031 821.84375 136.644531 C 823.039062 137.335938 824.570312 136.925781 825.257812 135.730469 Z M 825.257812 135.730469 "/>
<g clip-path="url(#clip4)" clip-rule="nonzero">
<path style=" stroke:none;fill-rule:nonzero;fill:rgb(100%,0%,0%);fill-opacity:1;" d="M 545.308594 332.730469 C 546 331.535156 545.589844 330.003906 544.394531 329.316406 C 543.199219 328.625 541.667969 329.035156 540.980469 330.230469 C 540.289062 331.425781 540.699219 332.957031 541.894531 333.644531 C 543.089844 334.335938 544.621094 333.925781 545.308594 332.730469 Z M 545.308594 332.730469 "/>
</g>
<path style=" stroke:none;fill-rule:nonzero;fill:rgb(100%,0%,0%);fill-opacity:1;" d="M 943.214844 231.625 C 943.90625 230.429688 943.496094 228.898438 942.300781 228.210938 C 941.105469 227.519531 939.574219 227.929688 938.886719 229.125 C 938.195312 230.320312 938.605469 231.851562 939.800781 232.539062 C 940.996094 233.230469 942.527344 232.820312 943.214844 231.625 Z M 943.214844 231.625 "/>
<path style=" stroke:none;fill-rule:nonzero;fill:rgb(25.490196%,41.176471%,88.235294%);fill-opacity:1;" d="M 888.015625 316.347656 C 888.707031 315.152344 888.296875 313.621094 887.101562 312.933594 C 885.90625 312.242188 884.375 312.652344 883.6875 313.847656 C 882.996094 315.042969 883.40625 316.574219 884.601562 317.261719 C 885.796875 317.953125 887.328125 317.542969 888.015625 316.347656 Z M 888.015625 316.347656 "/>
<path style=" stroke:none;fill-rule:nonzero;fill:rgb(25.490196%,41.176471%,88.235294%);fill-opacity:1;" d="M 880.84375 81.078125 C 881.535156 79.882812 881.125 78.351562 879.929688 77.664062 C 878.734375 76.972656 877.203125 77.382812 876.515625 78.578125 C 875.824219 79.773438 876.234375 81.304688 877.429688 81.992188 C 878.625 82.683594 880.15625 82.273438 880.84375 81.078125 Z M 880.84375 81.078125 "/>
<path style=" stroke:none;fill-rule:nonzero;fill:rgb(25.490196%,41.176471%,88.235294%);fill-opacity:1;" d="M 581.339844 135.5 C 582.03125 134.304688 581.621094 132.773438 580.425781 132.085938 C 579.230469 131.394531 577.699219 131.804688 577.011719 133 C 576.320312 134.195312 576.730469 135.726562 577.925781 136.414062 C 579.121094 137.105469 580.652344 136.695312 581.339844 135.5 Z M 581.339844 135.5 "/>
<path style=" stroke:none;fill-rule:nonzero;fill:rgb(25.490196%,41.176471%,88.235294%);fill-opacity:1;" d="M 48.578125 232.691406 C 49.269531 231.496094 48.859375 229.964844 47.664062 229.277344 C 46.46875 228.585938 44.9375 228.996094 44.25 230.191406 C 43.558594 231.386719 43.96875 232.917969 45.164062 233.605469 C 46.359375 234.296875 47.890625 233.886719 48.578125 232.691406 Z M 48.578125 232.691406 "/>
<path style=" stroke:none;fill-rule:nonzero;fill:rgb(25.490196%,41.176471%,88.235294%);fill-opacity:1;" d="M 589.464844 204.378906 C 590.15625 203.183594 589.746094 201.652344 588.550781 200.964844 C 587.355469 200.273438 585.824219 200.683594 585.136719 201.878906 C 584.445312 203.074219 584.855469 204.605469 586.050781 205.292969 C 587.246094 205.984375 588.777344 205.574219 589.464844 204.378906 Z M 589.464844 204.378906 "/>
<path style=" stroke:none;fill-rule:nonzero;fill:rgb(25.490196%,41.176471%,88.235294%);fill-opacity:1;" d="M 506.695312 30.179688 C 507.386719 28.984375 506.976562 27.453125 505.78125 26.765625 C 504.585938 26.074219 503.054688 26.484375 502.367188 27.679688 C 501.675781 28.875 502.085938 30.40625 503.28125 31.09375 C 504.476562 31.785156 506.007812 31.375 506.695312 30.179688 Z M 506.695312 30.179688 "/>
<path style=" stroke:none;fill-rule:nonzero;fill:rgb(25.490196%,41.176471%,88.235294%);fill-opacity:1;" d="M 834.265625 207.550781 C 834.957031 206.355469 834.546875 204.824219 833.351562 204.136719 C 832.15625 203.445312 830.625 203.855469 829.9375 205.050781 C 829.246094 206.246094 829.65625 207.777344 830.851562 208.464844 C 832.046875 209.15625 833.578125 208.746094 834.265625 207.550781 Z M 834.265625 207.550781 "/>
<path style=" stroke:none;fill-rule:nonzero;fill:rgb(25.490196%,41.176471%,88.235294%);fill-opacity:1;" d="M 676.097656 136.578125 C 676.789062 135.382812 676.378906 133.851562 675.183594 133.164062 C 673.988281 132.472656 672.457031 132.882812 671.769531 134.078125 C 671.078125 135.273438 671.488281 136.804688 672.683594 137.492188 C 673.878906 138.183594 675.410156 137.773438 676.097656 136.578125 Z M 676.097656 136.578125 "/>
<path style=" stroke:none;fill-rule:nonzero;fill:rgb(25.490196%,41.176471%,88.235294%);fill-opacity:1;" d="M 883.851562 204.21875 C 884.542969 203.023438 884.132812 201.492188 882.9375 200.804688 C 881.742188 200.113281 880.210938 200.523438 879.523438 201.71875 C 878.832031 202.914062 879.242188 204.445312 880.4375 205.132812 C 881.632812 205.824219 883.164062 205.414062 883.851562 204.21875 Z M 883.851562 204.21875 "/>
<path style=" stroke:none;fill-rule:nonzero;fill:rgb(25.490196%,41.176471%,88.235294%);fill-opacity:1;" d="M 39.117188 324.992188 C 39.808594 323.796875 39.398438 322.265625 38.203125 321.578125 C 37.007812 320.886719 35.476562 321.296875 34.789062 322.492188 C 34.097656 323.6875 34.507812 325.21875 35.703125 325.90625 C 36.898438 326.597656 38.429688 326.1875 39.117188 324.992188 Z M 39.117188 324.992188 "/>
<path style=" stroke:none;fill-rule:nonzero;fill:rgb(25.490196%,41.176471%,88.235294%);fill-opacity:1;" d="M 393.613281 66.441406 C 394.304688 65.246094 393.894531 63.714844 392.699219 63.027344 C 391.503906 62.335938 389.972656 62.746094 389.285156 63.941406 C 388.59375 65.136719 389.003906 66.667969 390.199219 67.355469 C 391.394531 68.046875 392.925781 67.636719 393.613281 66.441406 Z M 393.613281 66.441406 "/>
<path style=" stroke:none;fill-rule:nonzero;fill:rgb(25.490196%,41.176471%,88.235294%);fill-opacity:1;" d="M 491.585938 19.414062 C 492.277344 18.21875 491.867188 16.6875 490.671875 16 C 489.476562 15.308594 487.945312 15.71875 487.257812 16.914062 C 486.566406 18.109375 486.976562 19.640625 488.171875 20.328125 C 489.367188 21.019531 490.898438 20.609375 491.585938 19.414062 Z M 491.585938 19.414062 "/>
<path style=" stroke:none;fill-rule:nonzero;fill:rgb(25.490196%,41.176471%,88.235294%);fill-opacity:1;" d="M 830.128906 256.652344 C 830.820312 255.457031 830.410156 253.925781 829.214844 253.238281 C 828.019531 252.546875 826.488281 252.957031 825.800781 254.152344 C 825.109375 255.347656 825.519531 256.878906 826.714844 257.566406 C 827.910156 258.257812 829.441406 257.847656 830.128906 256.652344 Z M 830.128906 256.652344 "/>
<path style=" stroke:none;fill-rule:nonzero;fill:rgb(100%,64.705882%,0%);fill-opacity:1;" d="M 342.664062 150.359375 C 342.664062 149.808594 342.214844 149.359375 341.664062 149.359375 C 341.113281 149.359375 340.664062 149.808594 340.664062 150.359375 C 340.664062 150.910156 341.113281 151.359375 341.664062 151.359375 C 342.214844 151.359375 342.664062 150.910156 342.664062 150.359375 Z M 342.664062 150.359375 "/>
<path style=" stroke:none;fill-rule:nonzero;fill:rgb(100%,64.705882%,0%);fill-opacity:1;" d="M 339.671875 163.246094 C 339.671875 162.695312 339.222656 162.246094 338.671875 162.246094 C 338.121094 162.246094 337.671875 162.695312 337.671875 163.246094 C 337.671875 163.796875 338.121094 164.246094 338.671875 164.246094 C 339.222656 164.246094 339.671875 163.796875 339.671875 163.246094 Z M 339.671875 163.246094 "/>
<path style=" stroke:none;fill-rule:nonzero;fill:rgb(100%,64.705882%,0%);fill-opacity:1;" d="M 311.398438 182.679688 C 311.398438 182.128906 310.949219 181.679688 310.398438 181.679688 C 309.847656 181.679688 309.398438 182.128906 309.398438 182.679688 C 309.398438 183.230469 309.847656 183.679688 310.398438 183.679688 C 310.949219 183.679688 311.398438 183.230469 311.398438 182.679688 Z M 311.398438 182.679688 "/>
<path style=" stroke:none;fill-rule:nonzero;fill:rgb(100%,64.705882%,0%);fill-opacity:1;" d="M 278.800781 192.605469 C 278.800781 192.054688 278.351562 191.605469 277.800781 191.605469 C 277.25 191.605469 276.800781 192.054688 276.800781 192.605469 C 276.800781 193.15625 277.25 193.605469 277.800781 193.605469 C 278.351562 193.605469 278.800781 193.15625 278.800781 192.605469 Z M 278.800781 192.605469 "/>
<path style=" stroke:none;fill-rule:nonzero;fill:rgb(100%,64.705882%,0%);fill-opacity:1;" d="M 245.175781 199.4375 C 245.175781 198.886719 244.726562 198.4375 244.175781 198.4375 C 243.625 198.4375 243.175781 198.886719 243.175781 199.4375 C 243.175781 199.988281 243.625 200.4375 244.175781 200.4375 C 244.726562 200.4375 245.175781 199.988281 245.175781 199.4375 Z M 245.175781 199.4375 "/>
<path style=" stroke:none;fill-rule:nonzero;fill:rgb(100%,64.705882%,0%);fill-opacity:1;" d="M 210.949219 201.171875 C 210.949219 200.621094 210.5 200.171875 209.949219 200.171875 C 209.398438 200.171875 208.949219 200.621094 208.949219 201.171875 C 208.949219 201.722656 209.398438 202.171875 209.949219 202.171875 C 210.5 202.171875 210.949219 201.722656 210.949219 201.171875 Z M 210.949219 201.171875 "/>
<path style=" stroke:none;fill-rule:nonzero;fill:rgb(100%,64.705882%,0%);fill-opacity:1;" d="M 180.300781 189.03125 C 180.300781 188.480469 179.851562 188.03125 179.300781 188.03125 C 178.75 188.03125 178.300781 188.480469 178.300781 189.03125 C 178.300781 189.582031 178.75 190.03125 179.300781 190.03125 C 179.851562 190.03125 180.300781 189.582031 180.300781 189.03125 Z M 180.300781 189.03125 "/>
<path style=" stroke:none;fill-rule:nonzero;fill:rgb(100%,64.705882%,0%);fill-opacity:1;" d="M 188.964844 208.09375 C 188.964844 207.542969 188.515625 207.09375 187.964844 207.09375 C 187.414062 207.09375 186.964844 207.542969 186.964844 208.09375 C 186.964844 208.644531 187.414062 209.09375 187.964844 209.09375 C 188.515625 209.09375 188.964844 208.644531 188.964844 208.09375 Z M 188.964844 208.09375 "/>
<path style=" stroke:none;fill-rule:nonzero;fill:rgb(100%,64.705882%,0%);fill-opacity:1;" d="M 156.433594 207.324219 C 156.433594 206.773438 155.984375 206.324219 155.433594 206.324219 C 154.882812 206.324219 154.433594 206.773438 154.433594 207.324219 C 154.433594 207.875 154.882812 208.324219 155.433594 208.324219 C 155.984375 208.324219 156.433594 207.875 156.433594 207.324219 Z M 156.433594 207.324219 "/>
<path style=" stroke:none;fill-rule:nonzero;fill:rgb(100%,64.705882%,0%);fill-opacity:1;" d="M 172.84375 222.695312 C 172.84375 222.144531 172.394531 221.695312 171.84375 221.695312 C 171.292969 221.695312 170.84375 222.144531 170.84375 222.695312 C 170.84375 223.246094 171.292969 223.695312 171.84375 223.695312 C 172.394531 223.695312 172.84375 223.246094 172.84375 222.695312 Z M 172.84375 222.695312 "/>
<path style=" stroke:none;fill-rule:nonzero;fill:rgb(100%,64.705882%,0%);fill-opacity:1;" d="M 151.59375 236.363281 C 151.59375 235.8125 151.144531 235.363281 150.59375 235.363281 C 150.042969 235.363281 149.59375 235.8125 149.59375 236.363281 C 149.59375 236.914062 150.042969 237.363281 150.59375 237.363281 C 151.144531 237.363281 151.59375 236.914062 151.59375 236.363281 Z M 151.59375 236.363281 "/>
<path style=" stroke:none;fill-rule:nonzero;fill:rgb(100%,64.705882%,0%);fill-opacity:1;" d="M 185.273438 230.589844 C 185.273438 230.039062 184.824219 229.589844 184.273438 229.589844 C 183.722656 229.589844 183.273438 230.039062 183.273438 230.589844 C 183.273438 231.140625 183.722656 231.589844 184.273438 231.589844 C 184.824219 231.589844 185.273438 231.140625 185.273438 230.589844 Z M 185.273438 230.589844 "/>
<path style=" stroke:none;fill-rule:nonzero;fill:rgb(100%,64.705882%,0%);fill-opacity:1;" d="M 218.601562 222.5625 C 218.601562 222.011719 218.152344 221.5625 217.601562 221.5625 C 217.050781 221.5625 216.601562 222.011719 216.601562 222.5625 C 216.601562 223.113281 217.050781 223.5625 217.601562 223.5625 C 218.152344 223.5625 218.601562 223.113281 218.601562 222.5625 Z M 218.601562 222.5625 "/>
<path style=" stroke:none;fill-rule:nonzero;fill:rgb(100%,64.705882%,0%);fill-opacity:1;" d="M 251.570312 213.105469 C 251.570312 212.554688 251.121094 212.105469 250.570312 212.105469 C 250.019531 212.105469 249.570312 212.554688 249.570312 213.105469 C 249.570312 213.65625 250.019531 214.105469 250.570312 214.105469 C 251.121094 214.105469 251.570312 213.65625 251.570312 213.105469 Z M 251.570312 213.105469 "/>
<path style=" stroke:none;fill-rule:nonzero;fill:rgb(100%,64.705882%,0%);fill-opacity:1;" d="M 284.574219 203.792969 C 284.574219 203.242188 284.125 202.792969 283.574219 202.792969 C 283.023438 202.792969 282.574219 203.242188 282.574219 203.792969 C 282.574219 204.34375 283.023438 204.792969 283.574219 204.792969 C 284.125 204.792969 284.574219 204.34375 284.574219 203.792969 Z M 284.574219 203.792969 "/>
<path style=" stroke:none;fill-rule:nonzero;fill:rgb(100%,64.705882%,0%);fill-opacity:1;" d="M 317.210938 193.394531 C 317.210938 192.84375 316.761719 192.394531 316.210938 192.394531 C 315.660156 192.394531 315.210938 192.84375 315.210938 193.394531 C 315.210938 193.945312 315.660156 194.394531 316.210938 194.394531 C 316.761719 194.394531 317.210938 193.945312 317.210938 193.394531 Z M 317.210938 193.394531 "/>
<path style=" stroke:none;fill-rule:nonzero;fill:rgb(100%,64.705882%,0%);fill-opacity:1;" d="M 350.453125 185.128906 C 350.453125 184.578125 350.003906 184.128906 349.453125 184.128906 C 348.902344 184.128906 348.453125 184.578125 348.453125 185.128906 C 348.453125 185.679688 348.902344 186.128906 349.453125 186.128906 C 350.003906 186.128906 350.453125 185.679688 350.453125 185.128906 Z M 350.453125 185.128906 "/>
<path style=" stroke:none;fill-rule:nonzero;fill:rgb(100%,64.705882%,0%);fill-opacity:1;" d="M 383.753906 177.25 C 383.753906 176.699219 383.304688 176.25 382.753906 176.25 C 382.203125 176.25 381.753906 176.699219 381.753906 177.25 C 381.753906 177.800781 382.203125 178.25 382.753906 178.25 C 383.304688 178.25 383.753906 177.800781 383.753906 177.25 Z M 383.753906 177.25 "/>
<path style=" stroke:none;fill-rule:nonzero;fill:rgb(100%,64.705882%,0%);fill-opacity:1;" d="M 417.609375 171.597656 C 417.609375 171.046875 417.160156 170.597656 416.609375 170.597656 C 416.058594 170.597656 415.609375 171.046875 415.609375 171.597656 C 415.609375 172.148438 416.058594 172.597656 416.609375 172.597656 C 417.160156 172.597656 417.609375 172.148438 417.609375 171.597656 Z M 417.609375 171.597656 "/>
<path style=" stroke:none;fill-rule:nonzero;fill:rgb(100%,64.705882%,0%);fill-opacity:1;" d="M 451.675781 172.257812 C 451.675781 171.707031 451.226562 171.257812 450.675781 171.257812 C 450.125 171.257812 449.675781 171.707031 449.675781 172.257812 C 449.675781 172.808594 450.125 173.257812 450.675781 173.257812 C 451.226562 173.257812 451.675781 172.808594 451.675781 172.257812 Z M 451.675781 172.257812 "/>
<path style=" stroke:none;fill-rule:nonzero;fill:rgb(100%,64.705882%,0%);fill-opacity:1;" d="M 485.367188 178.65625 C 485.367188 178.105469 484.917969 177.65625 484.367188 177.65625 C 483.816406 177.65625 483.367188 178.105469 483.367188 178.65625 C 483.367188 179.207031 483.816406 179.65625 484.367188 179.65625 C 484.917969 179.65625 485.367188 179.207031 485.367188 178.65625 Z M 485.367188 178.65625 "/>
<path style=" stroke:none;fill-rule:nonzero;fill:rgb(100%,64.705882%,0%);fill-opacity:1;" d="M 518.835938 185.886719 C 518.835938 185.335938 518.386719 184.886719 517.835938 184.886719 C 517.285156 184.886719 516.835938 185.335938 516.835938 185.886719 C 516.835938 186.4375 517.285156 186.886719 517.835938 186.886719 C 518.386719 186.886719 518.835938 186.4375 518.835938 185.886719 Z M 518.835938 185.886719 "/>
<path style=" stroke:none;fill-rule:nonzero;fill:rgb(100%,64.705882%,0%);fill-opacity:1;" d="M 551.816406 195.054688 C 551.816406 194.503906 551.367188 194.054688 550.816406 194.054688 C 550.265625 194.054688 549.816406 194.503906 549.816406 195.054688 C 549.816406 195.605469 550.265625 196.054688 550.816406 196.054688 C 551.367188 196.054688 551.816406 195.605469 551.816406 195.054688 Z M 551.816406 195.054688 "/>
<path style=" stroke:none;fill-rule:nonzero;fill:rgb(100%,64.705882%,0%);fill-opacity:1;" d="M 585.542969 192.730469 C 585.542969 192.179688 585.09375 191.730469 584.542969 191.730469 C 583.992188 191.730469 583.542969 192.179688 583.542969 192.730469 C 583.542969 193.28125 583.992188 193.730469 584.542969 193.730469 C 585.09375 193.730469 585.542969 193.28125 585.542969 192.730469 Z M 585.542969 192.730469 "/>
<path style=" stroke:none;fill-rule:nonzero;fill:rgb(100%,64.705882%,0%);fill-opacity:1;" d="M 619.59375 189.699219 C 619.59375 189.148438 619.144531 188.699219 618.59375 188.699219 C 618.042969 188.699219 617.59375 189.148438 617.59375 189.699219 C 617.59375 190.25 618.042969 190.699219 618.59375 190.699219 C 619.144531 190.699219 619.59375 190.25 619.59375 189.699219 Z M 619.59375 189.699219 "/>
<path style=" stroke:none;fill-rule:nonzero;fill:rgb(100%,64.705882%,0%);fill-opacity:1;" d="M 653.742188 193.050781 C 653.742188 192.5 653.292969 192.050781 652.742188 192.050781 C 652.191406 192.050781 651.742188 192.5 651.742188 193.050781 C 651.742188 193.601562 652.191406 194.050781 652.742188 194.050781 C 653.292969 194.050781 653.742188 193.601562 653.742188 193.050781 Z M 653.742188 193.050781 "/>
<path style=" stroke:none;fill-rule:nonzero;fill:rgb(100%,64.705882%,0%);fill-opacity:1;" d="M 687.96875 193.78125 C 687.96875 193.230469 687.519531 192.78125 686.96875 192.78125 C 686.417969 192.78125 685.96875 193.230469 685.96875 193.78125 C 685.96875 194.332031 686.417969 194.78125 686.96875 194.78125 C 687.519531 194.78125 687.96875 194.332031 687.96875 193.78125 Z M 687.96875 193.78125 "/>
<path style=" stroke:none;fill-rule:nonzero;fill:rgb(100%,64.705882%,0%);fill-opacity:1;" d="M 722.238281 192.941406 C 722.238281 192.390625 721.789062 191.941406 721.238281 191.941406 C 720.6875 191.941406 720.238281 192.390625 720.238281 192.941406 C 720.238281 193.492188 720.6875 193.941406 721.238281 193.941406 C 721.789062 193.941406 722.238281 193.492188 722.238281 192.941406 Z M 722.238281 192.941406 "/>
<path style=" stroke:none;fill-rule:nonzero;fill:rgb(100%,64.705882%,0%);fill-opacity:1;" d="M 756.496094 192.101562 C 756.496094 191.550781 756.046875 191.101562 755.496094 191.101562 C 754.945312 191.101562 754.496094 191.550781 754.496094 192.101562 C 754.496094 192.652344 754.945312 193.101562 755.496094 193.101562 C 756.046875 193.101562 756.496094 192.652344 756.496094 192.101562 Z M 756.496094 192.101562 "/>
<path style=" stroke:none;fill-rule:nonzero;fill:rgb(100%,64.705882%,0%);fill-opacity:1;" d="M 790.355469 187.035156 C 790.355469 186.484375 789.90625 186.035156 789.355469 186.035156 C 788.804688 186.035156 788.355469 186.484375 788.355469 187.035156 C 788.355469 187.585938 788.804688 188.035156 789.355469 188.035156 C 789.90625 188.035156 790.355469 187.585938 790.355469 187.035156 Z M 790.355469 187.035156 "/>
<path style=" stroke:none;fill-rule:nonzero;fill:rgb(100%,64.705882%,0%);fill-opacity:1;" d="M 818.503906 171.175781 C 818.503906 170.625 818.054688 170.175781 817.503906 170.175781 C 816.953125 170.175781 816.503906 170.625 816.503906 171.175781 C 816.503906 171.726562 816.953125 172.175781 817.503906 172.175781 C 818.054688 172.175781 818.503906 171.726562 818.503906 171.175781 Z M 818.503906 171.175781 "/>
<path style=" stroke:none;fill-rule:nonzero;fill:rgb(100%,64.705882%,0%);fill-opacity:1;" d="M 850.40625 169.753906 C 850.40625 169.203125 849.957031 168.753906 849.40625 168.753906 C 848.855469 168.753906 848.40625 169.203125 848.40625 169.753906 C 848.40625 170.304688 848.855469 170.753906 849.40625 170.753906 C 849.957031 170.753906 850.40625 170.304688 850.40625 169.753906 Z M 850.40625 169.753906 "/>
<path style=" stroke:none;fill-rule:nonzero;fill:rgb(100%,64.705882%,0%);fill-opacity:1;" d="M 845.78125 160.746094 C 845.78125 160.195312 845.332031 159.746094 844.78125 159.746094 C 844.230469 159.746094 843.78125 160.195312 843.78125 160.746094 C 843.78125 161.296875 844.230469 161.746094 844.78125 161.746094 C 845.332031 161.746094 845.78125 161.296875 845.78125 160.746094 Z M 845.78125 160.746094 "/>
<path style=" stroke:none;fill-rule:nonzero;fill:rgb(100%,64.705882%,0%);fill-opacity:1;" d="M 813.980469 159 C 813.980469 158.449219 813.53125 158 812.980469 158 C 812.429688 158 811.980469 158.449219 811.980469 159 C 811.980469 159.550781 812.429688 160 812.980469 160 C 813.53125 160 813.980469 159.550781 813.980469 159 Z M 813.980469 159 "/>
<path style=" stroke:none;fill-rule:nonzero;fill:rgb(100%,64.705882%,0%);fill-opacity:1;" d="M 790.644531 172.878906 C 790.644531 172.328125 790.195312 171.878906 789.644531 171.878906 C 789.09375 171.878906 788.644531 172.328125 788.644531 172.878906 C 788.644531 173.429688 789.09375 173.878906 789.644531 173.878906 C 790.195312 173.878906 790.644531 173.429688 790.644531 172.878906 Z M 790.644531 172.878906 "/>
<path style=" stroke:none;fill-rule:nonzero;fill:rgb(100%,64.705882%,0%);fill-opacity:1;" d="M 757.722656 182.03125 C 757.722656 181.480469 757.273438 181.03125 756.722656 181.03125 C 756.171875 181.03125 755.722656 181.480469 755.722656 182.03125 C 755.722656 182.582031 756.171875 183.03125 756.722656 183.03125 C 757.273438 183.03125 757.722656 182.582031 757.722656 182.03125 Z M 757.722656 182.03125 "/>
<path style=" stroke:none;fill-rule:nonzero;fill:rgb(100%,64.705882%,0%);fill-opacity:1;" d="M 723.472656 181.253906 C 723.472656 180.703125 723.023438 180.253906 722.472656 180.253906 C 721.921875 180.253906 721.472656 180.703125 721.472656 181.253906 C 721.472656 181.804688 721.921875 182.253906 722.472656 182.253906 C 723.023438 182.253906 723.472656 181.804688 723.472656 181.253906 Z M 723.472656 181.253906 "/>
<path style=" stroke:none;fill-rule:nonzero;fill:rgb(100%,64.705882%,0%);fill-opacity:1;" d="M 689.3125 178.324219 C 689.3125 177.773438 688.863281 177.324219 688.3125 177.324219 C 687.761719 177.324219 687.3125 177.773438 687.3125 178.324219 C 687.3125 178.875 687.761719 179.324219 688.3125 179.324219 C 688.863281 179.324219 689.3125 178.875 689.3125 178.324219 Z M 689.3125 178.324219 "/>
<path style=" stroke:none;fill-rule:nonzero;fill:rgb(100%,64.705882%,0%);fill-opacity:1;" d="M 655.671875 171.601562 C 655.671875 171.050781 655.222656 170.601562 654.671875 170.601562 C 654.121094 170.601562 653.671875 171.050781 653.671875 171.601562 C 653.671875 172.152344 654.121094 172.601562 654.671875 172.601562 C 655.222656 172.601562 655.671875 172.152344 655.671875 171.601562 Z M 655.671875 171.601562 "/>
<path style=" stroke:none;fill-rule:nonzero;fill:rgb(100%,64.705882%,0%);fill-opacity:1;" d="M 623.996094 158.515625 C 623.996094 157.964844 623.546875 157.515625 622.996094 157.515625 C 622.445312 157.515625 621.996094 157.964844 621.996094 158.515625 C 621.996094 159.066406 622.445312 159.515625 622.996094 159.515625 C 623.546875 159.515625 623.996094 159.066406 623.996094 158.515625 Z M 623.996094 158.515625 "/>
<path style=" stroke:none;fill-rule:nonzero;fill:rgb(100%,64.705882%,0%);fill-opacity:1;" d="M 592.828125 144.210938 C 592.828125 143.660156 592.378906 143.210938 591.828125 143.210938 C 591.277344 143.210938 590.828125 143.660156 590.828125 144.210938 C 590.828125 144.761719 591.277344 145.210938 591.828125 145.210938 C 592.378906 145.210938 592.828125 144.761719 592.828125 144.210938 Z M 592.828125 144.210938 "/>
<path style=" stroke:none;fill-rule:nonzero;fill:rgb(100%,64.705882%,0%);fill-opacity:1;" d="M 562.769531 127.675781 C 562.769531 127.125 562.320312 126.675781 561.769531 126.675781 C 561.21875 126.675781 560.769531 127.125 560.769531 127.675781 C 560.769531 128.226562 561.21875 128.675781 561.769531 128.675781 C 562.320312 128.675781 562.769531 128.226562 562.769531 127.675781 Z M 562.769531 127.675781 "/>
<path style=" stroke:none;fill-rule:nonzero;fill:rgb(100%,64.705882%,0%);fill-opacity:1;" d="M 530.804688 115.347656 C 530.804688 114.796875 530.355469 114.347656 529.804688 114.347656 C 529.253906 114.347656 528.804688 114.796875 528.804688 115.347656 C 528.804688 115.898438 529.253906 116.347656 529.804688 116.347656 C 530.355469 116.347656 530.804688 115.898438 530.804688 115.347656 Z M 530.804688 115.347656 "/>
<path style=" stroke:none;fill-rule:nonzero;fill:rgb(100%,64.705882%,0%);fill-opacity:1;" d="M 497.628906 106.601562 C 497.628906 106.050781 497.179688 105.601562 496.628906 105.601562 C 496.078125 105.601562 495.628906 106.050781 495.628906 106.601562 C 495.628906 107.152344 496.078125 107.601562 496.628906 107.601562 C 497.179688 107.601562 497.628906 107.152344 497.628906 106.601562 Z M 497.628906 106.601562 "/>
<path style=" stroke:none;fill-rule:nonzero;fill:rgb(100%,64.705882%,0%);fill-opacity:1;" d="M 463.898438 100.5625 C 463.898438 100.011719 463.449219 99.5625 462.898438 99.5625 C 462.347656 99.5625 461.898438 100.011719 461.898438 100.5625 C 461.898438 101.113281 462.347656 101.5625 462.898438 101.5625 C 463.449219 101.5625 463.898438 101.113281 463.898438 100.5625 Z M 463.898438 100.5625 "/>
<path style=" stroke:none;fill-rule:nonzero;fill:rgb(100%,64.705882%,0%);fill-opacity:1;" d="M 429.789062 96.972656 C 429.789062 96.421875 429.339844 95.972656 428.789062 95.972656 C 428.238281 95.972656 427.789062 96.421875 427.789062 96.972656 C 427.789062 97.523438 428.238281 97.972656 428.789062 97.972656 C 429.339844 97.972656 429.789062 97.523438 429.789062 96.972656 Z M 429.789062 96.972656 "/>
<path style=" stroke:none;fill-rule:nonzero;fill:rgb(100%,64.705882%,0%);fill-opacity:1;" d="M 395.554688 97.738281 C 395.554688 97.1875 395.105469 96.738281 394.554688 96.738281 C 394.003906 96.738281 393.554688 97.1875 393.554688 97.738281 C 393.554688 98.289062 394.003906 98.738281 394.554688 98.738281 C 395.105469 98.738281 395.554688 98.289062 395.554688 97.738281 Z M 395.554688 97.738281 "/>
<path style=" stroke:none;fill-rule:nonzero;fill:rgb(100%,64.705882%,0%);fill-opacity:1;" d="M 361.480469 101.742188 C 361.480469 101.191406 361.03125 100.742188 360.480469 100.742188 C 359.929688 100.742188 359.480469 101.191406 359.480469 101.742188 C 359.480469 102.292969 359.929688 102.742188 360.480469 102.742188 C 361.03125 102.742188 361.480469 102.292969 361.480469 101.742188 Z M 361.480469 101.742188 "/>
<path style=" stroke:none;fill-rule:nonzero;fill:rgb(100%,64.705882%,0%);fill-opacity:1;" d="M 328.058594 109.273438 C 328.058594 108.722656 327.609375 108.273438 327.058594 108.273438 C 326.507812 108.273438 326.058594 108.722656 326.058594 109.273438 C 326.058594 109.824219 326.507812 110.273438 327.058594 110.273438 C 327.609375 110.273438 328.058594 109.824219 328.058594 109.273438 Z M 328.058594 109.273438 "/>
<path style=" stroke:none;fill-rule:nonzero;fill:rgb(100%,64.705882%,0%);fill-opacity:1;" d="M 294.707031 117.089844 C 294.707031 116.539062 294.257812 116.089844 293.707031 116.089844 C 293.15625 116.089844 292.707031 116.539062 292.707031 117.089844 C 292.707031 117.640625 293.15625 118.089844 293.707031 118.089844 C 294.257812 118.089844 294.707031 117.640625 294.707031 117.089844 Z M 294.707031 117.089844 "/>
<path style=" stroke:none;fill-rule:nonzero;fill:rgb(100%,64.705882%,0%);fill-opacity:1;" d="M 261.605469 125.847656 C 261.605469 125.296875 261.15625 124.847656 260.605469 124.847656 C 260.054688 124.847656 259.605469 125.296875 259.605469 125.847656 C 259.605469 126.398438 260.054688 126.847656 260.605469 126.847656 C 261.15625 126.847656 261.605469 126.398438 261.605469 125.847656 Z M 261.605469 125.847656 "/>
<path style=" stroke:none;fill-rule:nonzero;fill:rgb(100%,64.705882%,0%);fill-opacity:1;" d="M 269.9375 130.289062 C 269.9375 129.738281 269.488281 129.289062 268.9375 129.289062 C 268.386719 129.289062 267.9375 129.738281 267.9375 130.289062 C 267.9375 130.839844 268.386719 131.289062 268.9375 131.289062 C 269.488281 131.289062 269.9375 130.839844 269.9375 130.289062 Z M 269.9375 130.289062 "/>
<path style=" stroke:none;fill-rule:nonzero;fill:rgb(100%,64.705882%,0%);fill-opacity:1;" d="M 302.335938 139.4375 C 302.335938 138.886719 301.886719 138.4375 301.335938 138.4375 C 300.785156 138.4375 300.335938 138.886719 300.335938 139.4375 C 300.335938 139.988281 300.785156 140.4375 301.335938 140.4375 C 301.886719 140.4375 302.335938 139.988281 302.335938 139.4375 Z M 302.335938 139.4375 "/>
</g>
</svg>
